<svg version="1.1" id="Capa_1" xmlns="http://www.w3.org/2000/svg" xmlns:xlink="http://www.w3.org/1999/xlink" x="0px" y="0px" viewBox="0 0 492 492" style="enable-background:new 0 0 492 492;" xml:space="preserve" width="400px" height="400px">
<g>
	<g>
		<path style="fill:#010002;" d="M461,124l-22-13l-60,32v-43l-16-9l-15,9v67l-41,21v-46l-41,23v-43l62-31V70l-22-12l-40,21V14L246,0
			l-20,14v65l-35-21l-17,11v23l52,30v43l-41-22v45l-38-22l1-63l-20-12l-15,12v41l-58-32l-24,11v26l57,31l-37,21v23l21,10l53-31
			l37,21l-37,23l38,22h1l-37,22l-54-32l-22,12v24l38,18l-58,33v26l25,10l57-32v41l14,11l17-12v-62l41-21v45l41-25v43l-52,30v23
			l17,11l35-21v65l20,14l20-14v-65l35,21l17-9v-25l-52-30v-43l41,23v-42l41,22v62l16,11l15-11v-41l56,31l26-11v-25l-54-33l34-19v-22
			l-19-12l-55,30l-39-20l38-22l-36-23l37-24l55,32l19-10v-23l-36-20l56-32V124z M266,277h-36l-19-30l18-32h36l17,32L266,277z"/>
	</g>
</g>
<g>
</g>
<g>
</g>
<g>
</g>
<g>
</g>
<g>
</g>
<g>
</g>
<g>
</g>
<g>
</g>
<g>
</g>
<g>
</g>
<g>
</g>
<g>
</g>
<g>
</g>
<g>
</g>
<g>
</g>
</svg>
