<svg version="1.1" id="Capa_1" xmlns="http://www.w3.org/2000/svg" xmlns:xlink="http://www.w3.org/1999/xlink" x="0px" y="0px"
	 width="400px" height="400px" viewBox="0 0 446.454 446.454" style="enable-background:new 0 0 446.454 446.454;"
	 xml:space="preserve">
<g>
	<g>
		<path d="M446.454,196.858c-74.081,0-109.356-122.553-153.449-122.553S229.5,112.269,229.5,112.269l-4.982,9.161
			c0,0-26.976-47.124-71.068-47.124c-44.093,0-79.369,123.892-153.45,123.892c0,0,49.391,173.951,216.954,173.951l12.546-0.669
			C397.063,371.479,446.454,196.858,446.454,196.858z M223.332,242.959c-27.731,0-50.203-4.418-50.203-9.858
			c0-5.451,22.472-9.859,50.203-9.859c27.722,0,50.203,4.418,50.203,9.859C273.535,238.541,251.054,242.959,223.332,242.959z"/>
	</g>
</g>
<g>
</g>
<g>
</g>
<g>
</g>
<g>
</g>
<g>
</g>
<g>
</g>
<g>
</g>
<g>
</g>
<g>
</g>
<g>
</g>
<g>
</g>
<g>
</g>
<g>
</g>
<g>
</g>
<g>
</g>
</svg>
