<svg version="1.1" id="Capa_1" xmlns="http://www.w3.org/2000/svg" xmlns:xlink="http://www.w3.org/1999/xlink" x="0px" y="0px"
	 width="400px" height="400px" viewBox="0 0 31.889 31.889" style="enable-background:new 0 0 31.889 31.889;"
	 xml:space="preserve">
<g>
	<g>
		<path d="M31.889,9.27c0-2.611-2.289-4.736-5.104-4.743c-0.337-2.316-2.483-4.107-5.075-4.107c-0.952,0-1.866,0.241-2.671,0.701
			c-0.897-0.644-1.993-0.995-3.134-0.995c-1.924,0-3.68,1.014-4.548,2.574c-0.438-0.111-0.889-0.167-1.346-0.167
			c-2.822,0-5.119,2.127-5.119,4.743c0,0.185,0.012,0.372,0.035,0.558c-1.105,0.9-1.731,2.174-1.731,3.55
			c0,1.955,1.269,3.675,3.194,4.396c0.451,2.225,2.54,3.855,5.03,3.855c0.835,0,1.651-0.188,2.386-0.548
			c0.893,0.634,1.982,0.979,3.11,0.979c1.526,0,2.957-0.627,3.927-1.701c0.659,0.275,1.372,0.419,2.096,0.419
			c2.821,0,5.117-2.127,5.117-4.742c0-0.061,0-0.121-0.004-0.182C30.279,13.325,31.889,11.448,31.889,9.27z M27.275,12.708
			l-0.674,0.08l0.125,0.667c0.039,0.211,0.059,0.402,0.059,0.584c0,1.914-1.727,3.472-3.848,3.472c-0.691,0-1.373-0.171-1.974-0.496
			l-0.491-0.266l-0.326,0.455c-0.715,0.995-1.922,1.59-3.23,1.59c-0.98,0-1.917-0.337-2.637-0.949l-0.346-0.295l-0.391,0.234
			c-0.633,0.378-1.367,0.578-2.123,0.578c-1.992,0-3.638-1.348-3.83-3.133l-0.045-0.423l-0.407-0.118
			c-1.598-0.464-2.67-1.792-2.67-3.306c0-1.085,0.552-2.089,1.514-2.753l0.352-0.244L6.238,7.966
			C6.188,7.74,6.162,7.507,6.162,7.275c0-1.915,1.726-3.473,3.849-3.473c0.501,0,0.992,0.088,1.463,0.262l0.581,0.216l0.229-0.577
			c0.547-1.38,2.003-2.306,3.621-2.306c1,0,1.949,0.348,2.674,0.98l0.373,0.327l0.407-0.286c0.682-0.477,1.494-0.728,2.35-0.728
			c2.123,0,3.85,1.557,3.852,3.437l-0.004,0.79l0.713-0.085c0.166-0.021,0.33-0.034,0.502-0.034c2.121,0,3.849,1.558,3.849,3.473
			C30.618,11.003,29.182,12.481,27.275,12.708z"/>
		<path d="M7.956,20.587c-2.066,0-3.746,1.407-3.746,3.137c0,1.729,1.68,3.135,3.746,3.135c2.064,0,3.745-1.406,3.745-3.135
			C11.701,21.994,10.021,20.587,7.956,20.587z M7.956,25.588c-1.365,0-2.474-0.836-2.474-1.866c0-1.029,1.108-1.865,2.474-1.865
			c1.364,0,2.475,0.836,2.475,1.865C10.431,24.752,9.32,25.588,7.956,25.588z"/>
		<path d="M2.776,27.049C1.245,27.049,0,28.106,0,29.406c0,1.299,1.245,2.356,2.776,2.356c1.531,0,2.775-1.058,2.775-2.356
			C5.551,28.106,4.308,27.049,2.776,27.049z M2.776,30.493c-0.816,0-1.507-0.497-1.507-1.087c0-0.589,0.69-1.087,1.507-1.087
			s1.505,0.498,1.505,1.087C4.281,29.996,3.593,30.493,2.776,30.493z"/>
	</g>
</g>
<g>
</g>
<g>
</g>
<g>
</g>
<g>
</g>
<g>
</g>
<g>
</g>
<g>
</g>
<g>
</g>
<g>
</g>
<g>
</g>
<g>
</g>
<g>
</g>
<g>
</g>
<g>
</g>
<g>
</g>
</svg>
