<svg version="1.1" id="Capa_1" xmlns="http://www.w3.org/2000/svg" xmlns:xlink="http://www.w3.org/1999/xlink" x="0px" y="0px"
	 width="400px" height="400px" viewBox="0 0 586.3 586.3" style="enable-background:new 0 0 586.3 586.3;" xml:space="preserve"
	>
<g>
	<g>
		<path d="M253.544,531.3c0,31.4-25.2,55-58.7,55s-58.7-23.6-58.7-55c0-28.899,41.3-75.699,49.6-84.699c2.3-2.601,5.6-4,9-4
			c3.5,0,6.7,1.5,9.1,4C212.145,455.601,253.544,502.4,253.544,531.3z"/>
		<path d="M478.945,348.101c-11.2-43.5-41.5-59.101-63.4-85.3c-29.3-35.1-37.7-125-39.5-168.2C373.646,38,342.445,0,293.145,0
			c-49.3,0-80.5,38-82.9,94.6c-1.8,43.1-10.3,133.1-39.5,168.2c-21.9,26.2-52.2,41.8-63.4,85.3c-10.2,39.6-1,70.6,30.4,103.699
			c2.9,3.101,7.3,4.5,11.5,3.801c4.2-0.801,7.8-3.601,9.4-7.5c10.1-23.5,22.2-23.5,26.2-23.5c2.9,0,6.1,0.5,9.4,1.5
			c13.2,3.899,24.1,13.8,35.7,24.3c16.5,14.899,35.1,31.8,63,31.8c27.9,0,46.5-16.9,63-31.8c11.6-10.5,22.5-20.4,35.7-24.3
			c3.3-1,6.5-1.5,9.399-1.5c4,0,16.2,0,26.2,23.5c1.7,3.899,5.2,6.8,9.5,7.5c4.2,0.699,8.5-0.7,11.5-3.801
			C480.045,418.7,489.146,387.7,478.945,348.101z"/>
	</g>
</g>
<g>
</g>
<g>
</g>
<g>
</g>
<g>
</g>
<g>
</g>
<g>
</g>
<g>
</g>
<g>
</g>
<g>
</g>
<g>
</g>
<g>
</g>
<g>
</g>
<g>
</g>
<g>
</g>
<g>
</g>
</svg>
