<svg version="1.1" id="Capa_1" xmlns="http://www.w3.org/2000/svg" xmlns:xlink="http://www.w3.org/1999/xlink" x="0px" y="0px"
	 width="400px" height="400px" viewBox="0 0 649.289 649.289" style="enable-background:new 0 0 649.289 649.289;"
	 xml:space="preserve">
<g>
	<g>
		<g>
			<path d="M341.979,29.995V15.582V15.56v-1.233V10.54h-0.974C338.949,4.479,333.323,0,326.44,0c-6.882,0-12.508,4.479-14.542,10.54
				h-1.017V29.8C157.897,36.292,34.021,148.807,18.634,291.987l7.358,1.299c7.683-32.225,36.596-56.225,71.179-56.182
				c35.514-0.043,64.881,25.386,71.612,58.973l0.584,3.052h7.618l0.541-3.052c6.687-33.587,36.055-59.016,71.568-59.016
				c26.165,0,48.91,13.807,61.808,34.432v278.894l0,0v36.877c-0.043,17.551-13.526,30.904-28.957,30.947
				c-15.43-0.043-28.826-13.396-28.87-30.99c-0.043-8.57-6.969-15.561-15.604-15.561c-7.315,0-13.439,5.021-15.084,11.816h-0.52
				v3.787c0.043,33.738,26.381,61.916,60.055,62.025c33.739-0.109,60.012-28.309,60.055-62.025v-36.877l0,0V267.359
				c13.223-18.352,34.67-30.298,59.06-30.255c35.514-0.043,64.881,25.386,71.568,58.973l0.584,3.052h7.575l0.627-3.052
				c6.688-33.587,36.012-59.016,71.568-59.016c33.394,0,61.506,22.355,70.335,52.913l7.358-1.515
				C613.731,147.919,492.172,37.808,341.979,29.995z"/>
		</g>
	</g>
</g>
<g>
</g>
<g>
</g>
<g>
</g>
<g>
</g>
<g>
</g>
<g>
</g>
<g>
</g>
<g>
</g>
<g>
</g>
<g>
</g>
<g>
</g>
<g>
</g>
<g>
</g>
<g>
</g>
<g>
</g>
</svg>
