<?xml version="1.0" encoding="iso-8859-1"?>
<!-- Generator: Adobe Illustrator 18.0.0, SVG Export Plug-In . SVG Version: 6.00 Build 0)  -->
<!DOCTYPE svg PUBLIC "-//W3C//DTD SVG 1.1//EN" "http://www.w3.org/Graphics/SVG/1.1/DTD/svg11.dtd">
<svg version="1.1" id="Capa_1" xmlns="http://www.w3.org/2000/svg" xmlns:xlink="http://www.w3.org/1999/xlink" x="0px" y="0px"
	 viewBox="0 0 479.09 479.09" style="enable-background:new 0 0 479.09 479.09;" xml:space="preserve">
<g>
	<path d="M408.929,70.162C363.685,24.917,303.529,0,239.545,0S115.405,24.917,70.161,70.162S0,175.561,0,239.545
		s24.917,124.139,70.161,169.383s105.399,70.161,169.384,70.161s124.14-24.917,169.384-70.161S479.09,303.53,479.09,239.545
		S454.173,115.406,408.929,70.162z M403.271,403.272c-43.732,43.732-101.879,67.817-163.727,67.817s-119.994-24.085-163.727-67.817
		C32.085,359.539,8,301.393,8,239.545S32.085,119.551,75.818,75.819C119.551,32.085,177.697,8,239.545,8
		s119.994,24.085,163.727,67.818c43.733,43.732,67.818,101.879,67.818,163.727S447.005,359.539,403.271,403.272z"/>
	<path d="M332.281,293.605c-16.574-17.442-38.425-28.523-61.962-31.522c1.047-4.152,1.897-8.555,2.531-13.164
		c2.93,1.984,5.898,3.972,8.884,5.944c7.223,4.767,15.521,7.206,23.822,7.205c5.385,0,10.771-1.026,15.863-3.11
		c6.374-2.603,11.953-6.77,16.14-12.058c2.101-2.664,3.691-5.541,5.105-8.267c1.645-3.198,2.997-5.911,4.251-8.751
		c0.453-1.024,0.933-2.12,1.391-3.274c0.652-1.646,0.145-3.524-1.247-4.618c-1.393-1.095-3.339-1.144-4.782-0.12
		c-4.765,3.371-9.056,7.084-12.623,10.269c-3.889,3.47-8.196,5.855-12.805,7.093c-5.106,1.374-10.417,1.325-15.353-0.141
		c-4.302-1.278-8.138-3.868-12.198-6.611c-0.871-0.587-1.74-1.174-2.616-1.75c-2.078-1.363-4.155-2.716-6.222-4.051
		c3.466,0.342,6.872,0.656,10.193,0.941c14.22,1.229,27.988-4.508,36.842-15.336c4.354-5.334,7.267-11.659,8.423-18.3
		c0.576-3.337,0.6-6.63,0.538-9.687c-0.055-2.885-0.149-6.297-0.432-9.73c-0.094-1.176-0.208-2.343-0.344-3.52
		c-0.202-1.763-1.542-3.181-3.29-3.484c-1.751-0.298-3.488,0.583-4.271,2.174c-2.527,5.129-4.55,10.48-6.198,15.049
		c-1.755,4.9-4.401,9.051-7.871,12.34c-3.837,3.649-8.522,6.141-13.55,7.205c-4.397,0.927-9.013,0.481-13.9,0.006
		c-1.036-0.101-2.072-0.201-3.109-0.289c-4.066-0.339-7.907-0.64-11.656-0.912c-0.004-0.018-0.007-0.037-0.01-0.055
		c3.521-0.806,7.221-1.676,11.215-2.639c13.862-3.359,25.1-13.173,30.06-26.255c2.437-6.451,3.184-13.375,2.163-20.013
		c-0.517-3.409-1.536-6.522-2.561-9.381c-1.037-2.893-2.181-5.996-3.514-9.099c-0.465-1.074-0.93-2.138-1.426-3.201
		c-0.75-1.608-2.472-2.525-4.226-2.265c-1.755,0.267-3.124,1.658-3.363,3.417c-0.788,5.808-0.996,11.471-1.095,16.242
		c-0.112,5.199-1.305,9.978-3.547,14.204c-2.476,4.676-6.126,8.526-10.554,11.135c-3.863,2.274-8.367,3.314-13.135,4.415
		c-1.032,0.238-2.063,0.477-3.093,0.729c-1.172,0.289-2.344,0.582-3.516,0.872c-2.216-4.97-4.782-9.273-7.627-12.76l0.029-0.019
		c-7.087-10.966-20.353-32.737-29.565-55.35c-10.802-26.511-12.84-46.583-5.894-58.047c10.958-18.079,32.288-20.984,48.564-15.849
		c11.53,3.64,24.638,12.976,23.916,27.361c-1.407,5.296-2.121,10.762-2.121,16.254c0,11.248,3.005,22.315,8.688,32.002l5.98,10.21
		c1.034,1.768,3.235,2.464,5.103,1.622c1.865-0.846,2.791-2.964,2.144-4.906l-1.86-5.592c-2.36-7.08-0.338-14.915,5.158-19.966
		c2.657-2.452,4.768-5.364,6.281-8.671c1.271-2.813,2.048-5.772,2.313-8.817c0.404-0.9,0.472-1.941,0.145-2.919
		c0,0-0.024-0.07-0.071-0.205c-0.167-6.226-2.48-12.202-6.556-16.895l-4.828-5.581c-1.051-1.625-2.091-3.313-3.189-5.097
		c-4.431-7.195-9.453-15.35-17.165-22.17c-11.51-10.191-26.682-15.146-46.382-15.146c-22.835,0-41.862,10.494-52.201,28.791
		c-8.249,14.597-10.852,33.783-7.528,55.486c3.579,23.369,13.766,49.312,30.248,77.133c-1.8,2.708-3.463,5.766-4.965,9.133
		c-1.174-0.292-2.344-0.588-3.524-0.878c-1.022-0.25-2.053-0.487-3.083-0.726c-4.768-1.101-9.271-2.141-13.127-4.415
		c-4.425-2.607-8.08-6.46-10.566-11.138c-2.24-4.224-3.433-9.002-3.545-14.2c-0.101-4.823-0.309-10.525-1.085-16.244
		c-0.239-1.759-1.608-3.15-3.363-3.417c-1.758-0.262-3.475,0.656-4.226,2.265c-0.501,1.074-0.981,2.148-1.431,3.211
		c-1.328,3.093-2.472,6.196-3.51,9.09c-0.972,2.713-2.037,5.947-2.567,9.371c-1.024,6.657-0.272,13.583,2.172,20.023
		c4.948,13.078,16.182,22.893,30.054,26.254c4.061,0.978,7.761,1.847,11.214,2.634c-0.004,0.02-0.007,0.039-0.011,0.059
		c-3.759,0.273-7.663,0.579-11.653,0.913c-1.036,0.087-2.075,0.188-3.114,0.289c-4.891,0.474-9.506,0.923-13.899-0.007
		c-5.032-1.066-9.718-3.559-13.553-7.206c-3.472-3.299-6.119-7.45-7.872-12.341c-1.517-4.229-3.593-9.763-6.196-15.047
		c-0.784-1.592-2.516-2.47-4.271-2.174c-1.748,0.304-3.088,1.722-3.29,3.484c-0.136,1.177-0.24,2.343-0.333,3.509
		c-0.272,3.315-0.374,6.635-0.442,9.736c-0.062,3.03-0.038,6.301,0.548,9.691c1.141,6.613,4.048,12.94,8.414,18.303
		c8.853,10.826,22.629,16.559,36.839,15.333c3.331-0.285,6.713-0.597,10.193-0.939c-2.081,1.346-4.156,2.698-6.212,4.051
		c-0.866,0.569-1.729,1.151-2.593,1.733c-4.072,2.749-7.92,5.345-12.229,6.625c-4.936,1.467-10.24,1.517-15.344,0.142
		c-4.607-1.237-8.915-3.623-12.807-7.095c-3.591-3.198-7.9-6.92-12.63-10.267c-1.449-1.027-3.402-0.974-4.795,0.13
		c-1.392,1.103-1.89,2.992-1.223,4.638c0.394,0.97,0.803,1.915,1.214,2.865l0.164,0.376c1.383,3.136,2.919,6.163,4.258,8.768
		c1.409,2.716,3.004,5.597,5.111,8.257c4.171,5.282,9.748,9.45,16.125,12.054c5.092,2.084,10.479,3.111,15.865,3.11
		c8.302,0,16.605-2.438,23.834-7.205c2.91-1.922,5.882-3.914,8.876-5.943c0.634,4.609,1.485,9.012,2.532,13.164
		c-23.537,2.995-45.387,14.074-61.96,31.518c-17.772,18.706-27.895,43.107-28.502,68.708c-0.63,26.491,8.744,51.92,26.395,71.601
		c17.507,19.521,41.475,31.595,67.486,33.998c0.057,0.005,0.113,0.009,0.17,0.012l9.28,0.46c0.067,0.003,0.134,0.005,0.199,0.005
		c1.685,0,3.199-1.06,3.768-2.66c0.592-1.664,0.021-3.519-1.401-4.564c-0.063-0.046-6.378-4.697-14.789-11.98
		c-13.266-11.483-36.489-33.703-42.979-53.494c-1.198-3.644,0.507-6.537,2.502-8.03c2.005-1.501,5.281-2.327,8.457-0.138
		c6.319,4.358,10.507,10.192,10.545,10.245c1.043,1.474,2.94,2.068,4.636,1.45s2.767-2.293,2.617-4.091l-1.24-14.871
		c-1.373-16.419-11.334-30.864-26.632-38.636c-0.286-0.146-0.453-0.257-0.544-0.323c-4.524-14.022,0.745-29.585,12.867-37.923
		c12.49-8.594,27.043-13.086,42.238-13.082c0.477,0.567,0.961,1.111,1.453,1.632c-5.52,4.695-8.798,11.602-8.798,19.035
		c0,6.366,2.404,12.44,6.791,17.127c0.979,1.029,2.287,1.56,3.608,1.56c0.989,0,1.985-0.297,2.856-0.906
		c2.034-1.422,2.71-4.069,1.602-6.308c-0.933-1.866-1.328-3.97-1.144-6.085c0.479-5.481,4.986-9.904,10.478-10.286
		c3.187-0.22,6.233,0.856,8.557,3.028c2.322,2.169,3.602,5.113,3.602,8.29c0,1.775-0.399,3.476-1.18,5.036
		c-1.121,2.22-0.452,4.869,1.592,6.302c2.049,1.434,4.775,1.159,6.485-0.66c4.921-5.244,7.343-12.383,6.645-19.583
		c-0.629-6.499-3.784-12.386-8.684-16.542c0.494-0.523,0.98-1.069,1.459-1.638c15.195,0.003,29.752,4.484,42.236,13.081
		c12.115,8.332,17.384,23.885,12.864,37.928c-0.091,0.066-0.253,0.173-0.52,0.311c-15.323,7.784-25.283,22.231-26.645,38.644
		l-1.24,14.87c-0.149,1.798,0.923,3.475,2.619,4.091c1.698,0.618,3.596,0.021,4.636-1.453c0.041-0.058,4.163-5.849,10.531-10.241
		c3.176-2.189,6.45-1.364,8.458,0.136c1.998,1.493,3.706,4.389,2.512,8.032c-6.502,19.802-29.718,42.015-42.978,53.493
		c-8.409,7.282-14.733,11.933-14.797,11.979c-1.424,1.044-1.995,2.899-1.404,4.563c0.569,1.602,2.083,2.662,3.769,2.662
		c0.065,0,0.133-0.002,0.199-0.005l9.28-0.46c0.057-0.003,0.113-0.007,0.17-0.012c26.015-2.403,49.983-14.478,67.491-33.998
		c17.649-19.68,27.024-45.107,26.399-71.601C360.18,336.71,350.057,312.311,332.281,293.605z M239.545,291.892
		c-12.863,0-26.636-25.211-26.636-62.741s13.772-62.741,26.636-62.741c12.862,0,26.635,25.211,26.635,62.741
		S252.407,291.892,239.545,291.892z M282.292,237.417c0.846,0.556,1.688,1.124,2.529,1.693c4.384,2.96,8.917,6.021,14.397,7.649
		c6.355,1.886,13.17,1.954,19.706,0.198c4.898-1.315,9.498-3.631,13.711-6.897c-0.429,0.648-0.879,1.278-1.354,1.882
		c-3.328,4.203-7.784,7.526-12.889,9.61c-10.496,4.295-22.553,3.035-32.252-3.366c-4.169-2.753-8.308-5.538-12.344-8.298
		c0.182-2.54,0.295-5.13,0.346-7.759C276.845,233.865,279.563,235.626,282.292,237.417z M282.821,212.019
		c1,0.085,2.003,0.183,3.006,0.28c5.274,0.511,10.728,1.042,16.329-0.143c6.478-1.37,12.497-4.563,17.403-9.23
		c3.689-3.498,6.633-7.733,8.771-12.613c-0.067,0.776-0.162,1.547-0.293,2.305c-0.92,5.284-3.25,10.335-6.736,14.604
		c-7.179,8.779-18.381,13.421-29.961,12.427c-5.651-0.484-11.555-1.061-17.578-1.708c-0.17-2.269-0.388-4.502-0.658-6.689
		C276.242,211.485,279.45,211.738,282.821,212.019z M270.658,188.14c0.99-0.242,1.987-0.473,2.985-0.703
		c5.147-1.188,10.47-2.417,15.395-5.316c5.705-3.36,10.396-8.3,13.563-14.282c2.38-4.488,3.824-9.433,4.306-14.735
		c0.179,0.753,0.331,1.513,0.447,2.279c0.813,5.287,0.212,10.813-1.737,15.974c-4.021,10.606-13.166,18.573-24.457,21.31
		c-3.944,0.951-7.596,1.81-11.076,2.606c-0.589-2.251-1.24-4.418-1.94-6.508C268.982,188.557,269.822,188.346,270.658,188.14z
		 M203.062,43.431c9.01-15.946,25.075-24.728,45.236-24.728c17.659,0,31.097,4.297,41.081,13.137
		c6.823,6.035,11.313,13.324,15.654,20.374c1.176,1.909,2.286,3.713,3.441,5.489c0.1,0.153,0.209,0.3,0.329,0.438l5.014,5.795
		c2.973,3.425,4.61,7.82,4.61,12.378c0,0.166,0.011,0.331,0.03,0.495c-0.014,0.109-0.022,0.221-0.027,0.332
		c-0.1,2.453-0.668,4.84-1.68,7.078c-1.063,2.322-2.552,4.376-4.419,6.1c-3.891,3.574-6.557,8.134-7.838,13.054
		c-2.603-6.507-3.956-13.481-3.956-20.539c0-4.922,0.655-9.819,1.948-14.556c0.07-0.258,0.115-0.521,0.133-0.787
		c1.056-15.826-10.512-29.918-29.468-35.901c-10.304-3.252-21.423-3.513-31.312-0.731c-11.311,3.181-20.476,10.118-26.503,20.063
		c-16.031,26.457,8.615,76.989,26.802,107.698c-0.857-0.124-1.719-0.209-2.594-0.209c-5.545,0-10.745,2.542-15.348,7.085
		C195.142,115.406,187.417,71.116,203.062,43.431z M197.931,192.667c-11.299-2.737-20.438-10.703-24.453-21.312
		c-1.956-5.156-2.561-10.679-1.746-15.969c0.118-0.762,0.271-1.518,0.449-2.265c0.482,5.296,1.926,10.234,4.305,14.721
		c3.183,5.984,7.875,10.922,13.57,14.277c4.918,2.9,10.241,4.13,15.39,5.318c0.997,0.23,1.993,0.46,2.979,0.701
		c0.842,0.207,1.679,0.42,2.519,0.628c-0.7,2.088-1.35,4.253-1.938,6.501C205.595,194.492,201.941,193.633,197.931,192.667z
		 M187.744,219.649c-11.571,1.004-22.781-3.647-29.955-12.42c-3.494-4.293-5.821-9.343-6.729-14.604
		c-0.131-0.761-0.227-1.527-0.296-2.294c2.137,4.865,5.074,9.091,8.758,12.592c4.906,4.667,10.926,7.86,17.409,9.234
		c5.597,1.185,11.052,0.655,16.328,0.143c1.006-0.098,2.012-0.195,3.013-0.279c3.31-0.278,6.554-0.533,9.713-0.768
		c-0.27,2.189-0.488,4.424-0.658,6.695C199.168,218.603,193.371,219.167,187.744,219.649z M192.956,248.185
		c-9.71,6.402-21.77,7.66-32.267,3.366c-5.104-2.084-9.556-5.405-12.877-9.611c-0.479-0.605-0.934-1.239-1.365-1.889
		c4.216,3.271,8.819,5.589,13.721,6.905c6.529,1.757,13.342,1.689,19.698-0.198c5.489-1.63,10.033-4.696,14.428-7.662
		c0.836-0.564,1.671-1.128,2.511-1.68c2.691-1.769,5.412-3.534,8.14-5.289c0.051,2.628,0.164,5.219,0.346,7.758
		C201.123,242.737,196.981,245.527,192.956,248.185z M175.111,296.778c-15.103,10.388-21.621,29.822-15.849,47.27
		c0.974,2.925,3.561,4.251,4.424,4.693c12.82,6.513,21.155,18.541,22.295,32.175l0.282,3.383c-1.313-1.142-2.761-2.288-4.326-3.368
		c-5.49-3.784-12.476-3.66-17.792,0.32c-5.302,3.968-7.385,10.614-5.309,16.93c6.734,20.538,28.375,42.358,45.343,57.048
		c1.804,1.562,3.507,3.001,5.076,4.303c-47.951-6.308-84.11-48.226-82.949-97.032c0.56-23.612,9.901-46.123,26.304-63.388
		c15.599-16.418,36.256-26.709,58.454-29.227c1.575,4.637,3.417,8.852,5.485,12.563
		C201.675,283.381,187.473,288.271,175.111,296.778z M222.866,307.619c0.844-4.242,3.29-8.004,6.848-10.528
		c1.311,0.766,2.656,1.383,4.031,1.838C229.161,300.389,225.28,303.531,222.866,307.619z M252.748,303.237
		c-2.158-2.015-4.681-3.455-7.404-4.308c1.372-0.454,2.713-1.07,4.022-1.833c3.557,2.515,6.016,6.253,6.858,10.491
		C255.287,305.989,254.121,304.52,252.748,303.237z M269.841,459.529c1.569-1.301,3.272-2.74,5.075-4.301
		c16.961-14.683,38.595-36.498,45.343-57.048c2.071-6.32-0.018-12.967-5.322-16.934c-5.315-3.975-12.299-4.099-17.79-0.315
		c-1.561,1.077-3.004,2.221-4.313,3.358l0.281-3.375c1.13-13.629,9.465-25.656,22.319-32.187c0.854-0.441,3.453-1.783,4.393-4.688
		c5.769-17.44-0.75-36.875-15.85-47.26c-12.357-8.51-26.555-13.408-41.435-14.336c2.068-3.71,3.908-7.923,5.483-12.559
		c22.198,2.522,42.857,12.814,58.457,29.231c16.405,17.264,25.748,39.773,26.308,63.383
		C353.941,411.302,317.783,453.218,269.841,459.529z"/>
</g>
<g>
</g>
<g>
</g>
<g>
</g>
<g>
</g>
<g>
</g>
<g>
</g>
<g>
</g>
<g>
</g>
<g>
</g>
<g>
</g>
<g>
</g>
<g>
</g>
<g>
</g>
<g>
</g>
<g>
</g>
</svg>
