<?xml version="1.0" encoding="iso-8859-1"?>
<!-- Generator: Adobe Illustrator 18.0.0, SVG Export Plug-In . SVG Version: 6.00 Build 0)  -->
<!DOCTYPE svg PUBLIC "-//W3C//DTD SVG 1.1//EN" "http://www.w3.org/Graphics/SVG/1.1/DTD/svg11.dtd">
<svg version="1.1" id="Capa_1" xmlns="http://www.w3.org/2000/svg" xmlns:xlink="http://www.w3.org/1999/xlink" x="0px" y="0px"
	 viewBox="0 0 479.089 479.089" style="enable-background:new 0 0 479.089 479.089;" xml:space="preserve">
<g>
	<path d="M408.928,70.161C363.684,24.917,303.529,0,239.545,0C175.56,0,115.405,24.917,70.161,70.161S0,175.56,0,239.545
		s24.917,124.139,70.161,169.383s105.399,70.161,169.384,70.161c63.984,0,124.139-24.917,169.383-70.161
		s70.161-105.398,70.161-169.383S454.172,115.405,408.928,70.161z M403.271,403.272c-43.733,43.732-101.879,67.817-163.727,67.817
		s-119.994-24.085-163.727-67.817C32.085,359.539,8,301.393,8,239.545c0-61.848,24.085-119.994,67.818-163.727S177.697,8,239.545,8
		c61.848,0,119.994,24.085,163.727,67.818c43.733,43.733,67.818,101.879,67.818,163.727
		C471.089,301.392,447.004,359.539,403.271,403.272z"/>
	<path d="M205.092,274.231c-3.229-2.275-6.613-4.408-10.045-6.333c-4.88-2.759-9.971-5.165-15.129-7.15
		c-10.794-4.163-21.884-6.483-32.961-6.895c-1.089-0.042-2.142,0.363-2.924,1.116c-0.783,0.754-1.225,1.794-1.225,2.881
		c0,5.07,0.591,9.838,1.761,14.181c3.271,12.009,14.24,20.12,26.429,20.12c1.321,0,2.658-0.096,3.999-0.292
		c8.077-1.158,19.849-4.02,30.063-11.065c1.077-0.743,1.722-1.965,1.729-3.273C206.794,276.212,206.161,274.984,205.092,274.231z
		 M173.849,283.942c-9.729,1.421-18.999-4.603-21.559-14.002c-0.656-2.437-1.096-5.057-1.317-7.827
		c8.756,0.751,17.504,2.797,26.068,6.101c4.796,1.846,9.529,4.083,14.081,6.656c1.405,0.788,2.8,1.612,4.177,2.468
		C187.719,281.279,179.716,283.1,173.849,283.942z"/>
	<path d="M332.129,253.853c-11.09,0.412-22.18,2.732-32.958,6.894c-5.098,1.962-10.187,4.367-15.127,7.148
		c-3.44,1.938-6.815,4.07-10.031,6.336c-1.069,0.753-1.703,1.982-1.696,3.29c0.007,1.309,0.653,2.531,1.73,3.273
		c10.188,7.021,21.971,9.902,30.072,11.086c1.322,0.189,2.639,0.281,3.944,0.281c11.948,0,22.81-7.729,26.187-19.168
		c1.345-4.507,2.027-9.603,2.027-15.144c0-1.087-0.442-2.127-1.225-2.881C334.271,254.216,333.217,253.811,332.129,253.853z
		 M326.582,270.717c-2.632,8.916-11.802,14.61-21.315,13.245c-5.872-0.857-13.886-2.694-21.459-6.629
		c1.371-0.854,2.761-1.678,4.163-2.468c4.603-2.592,9.338-4.83,14.079-6.654c8.553-3.303,17.303-5.349,26.068-6.1
		C327.875,265.22,327.362,268.101,326.582,270.717z"/>
	<path d="M225.811,375.632c-11.021-4.592-27.188-18.79-27.35-18.934c-1.179-1.04-2.859-1.292-4.292-0.646
		c-1.433,0.646-2.354,2.073-2.354,3.646c0,11.733,3.133,19.749,9.313,23.824c2.902,1.913,6.373,2.868,10.316,2.868
		c4.289,0,9.135-1.131,14.405-3.39c1.478-0.634,2.433-2.09,2.424-3.697S227.295,376.25,225.811,375.632z M205.532,376.844
		c-2.46-1.622-3.908-4.549-4.731-7.843c3.684,2.893,8.308,6.317,12.972,9.233C210.821,378.602,207.843,378.368,205.532,376.844z"/>
	<path d="M253.264,375.632c-1.484,0.618-2.453,2.064-2.461,3.672s0.947,3.063,2.424,3.697c5.271,2.259,10.116,3.39,14.405,3.39
		c3.942,0,7.415-0.956,10.316-2.868c6.179-4.075,9.313-12.091,9.313-23.824c0-1.572-0.921-2.999-2.354-3.646
		c-1.433-0.648-3.113-0.396-4.292,0.646C280.452,356.842,264.301,371.034,253.264,375.632z M273.544,376.844
		c-2.313,1.524-5.287,1.759-8.241,1.391c4.664-2.916,9.288-6.341,12.972-9.233C277.452,372.295,276.003,375.222,273.544,376.844z"/>
	<path d="M461.682,297.213c-3.398-20.365-37.039-43.719-68.119-40.604c-7.879,0.782-15.772-1.548-23.467-6.927
		c-8.287-5.781-14.229-14.677-16.732-25.054c-0.854-3.515-2.035-6.905-3.53-10.148c35.263-31.464,55.434-76.358,55.434-123.688
		v-0.18c0-3.938-2.562-7.246-6.375-8.232c-3.848-0.995-7.733,0.672-9.662,4.15c-14.052,25.29-34.449,46.78-58.983,62.149
		c-24.669,15.453-53.049,24.328-82.183,25.756c-2.28-2.136-5.311-3.371-8.525-3.371c-3.199,0-6.218,1.223-8.515,3.371
		c-29.138-1.433-57.52-10.309-82.187-25.76c-24.535-15.369-44.928-36.858-58.973-62.143c-1.928-3.477-5.805-5.146-9.657-4.155
		c-3.814,0.983-6.383,4.289-6.391,8.235v0.18c0,47.591,20.367,92.661,55.962,124.136c-1.103,2.941-2.164,6.324-3.178,10.145
		c-2.2,8.281-6.688,15.538-12.983,20.988c-9.163,7.945-18.609,11.494-28.088,10.548c-31.077-3.1-64.723,20.238-68.122,40.604
		c-0.316,1.894,0.762,3.738,2.563,4.403c0.073,0.027,0.213,0.083,0.213,0.083c0.101,0.03,10.288,3.205,24.369,13.182
		c13.346,9.457,25.877,14.104,38.119,14.104c2.024,0,4.043-0.128,6.054-0.381c12.178-1.536,24.511-7.792,37.515-19.033
		c0.615,10.36,5.029,20.004,12.534,27.269l23.306,22.564c6.455,6.257,10.158,15.001,10.158,23.99c0,0,0.004-0.006,0.004-0.007
		c0,0.004,0,0.007,0,0.011v26.27c0.006,2.296,1.149,4.443,3.06,5.744c1.2,0.818,2.6,1.238,4.01,1.238
		c0.322,0.409,0.672,0.797,1.065,1.153c1.508,1.36,3.156,2.521,4.876,3.438c6.229,3.371,13.618,3.899,20.271,1.458
		c21.938-8.046,46.097-8.047,68.023-0.001c2.763,1.015,5.651,1.517,8.53,1.517c4.056,0,8.091-0.997,11.722-2.962
		c1.758-0.938,3.411-2.105,4.888-3.451c0.397-0.356,0.751-0.748,1.077-1.16c1.409,0,2.809-0.417,4.009-1.235
		c1.91-1.302,3.054-3.449,3.06-5.798v-26.211c0-0.013-0.001-0.025-0.001-0.038c0.009-8.973,3.717-17.702,10.176-23.954
		l23.307-22.566c7.499-7.261,11.91-16.905,12.524-27.275c13.007,11.245,25.342,17.504,37.522,19.04
		c2.012,0.253,4.029,0.381,6.054,0.381c12.241,0,24.774-4.647,38.119-14.104c13.975-9.901,24.274-13.152,24.376-13.185
		c0,0,0.133-0.044,0.2-0.068C460.918,300.967,461.999,299.112,461.682,297.213z M334.495,155.46
		c25.677-16.084,47.022-38.576,61.731-65.046c0.078-0.14,0.227-0.401,0.663-0.288c0.379,0.098,0.379,0.314,0.379,0.488v0.18
		c0,44.444-18.683,86.635-51.417,116.517c-0.434-0.661-0.876-1.317-1.34-1.962c-11.634-16.238-30.522-25.933-50.526-25.933
		c-10.089,0-20.143,2.508-29.075,7.252c-2.059,1.094-4.417,1.308-6.638,0.599c-2.224-0.709-4.025-2.249-5.074-4.339l-0.38-0.756
		C281.784,180.041,309.9,170.867,334.495,155.46z M81.818,90.794v-0.172c0-0.177,0.001-0.396,0.387-0.496
		c0.441-0.112,0.586,0.147,0.666,0.291c14.701,26.465,36.043,48.956,61.721,65.04c24.594,15.405,52.71,24.58,81.679,26.716
		l-0.38,0.758c-1.469,2.925-4.415,4.742-7.688,4.742c-1.417,0-2.77-0.337-4.026-1.006c-27.347-14.505-61.574-6.473-79.619,18.682
		c-0.43,0.599-0.854,1.265-1.275,1.982C100.516,177.46,81.818,135.283,81.818,90.794z M49.179,308.354
		c-9.064-6.422-16.668-10.232-21.41-12.286c4.592-5.04,14.495-12.776,29.921-9.014c27.493,6.693,51.915,2.205,67.53-11.945
		l0.682,23.965C98.733,324.975,76.404,327.644,49.179,308.354z M298.832,408.214l-43.192-16.867
		c-10.385-4.053-21.822-4.053-32.207,0.002l-43.19,16.871v-24.822c0-20.452,9.775-38.516,17.971-50.063
		c3.49-4.901,9.072-7.638,14.842-7.638c2.183,0,4.394,0.393,6.527,1.207l17.433,6.665c1.631,0.623,3.426,0.623,5.055,0l17.432-6.665
		c7.771-2.965,16.557-0.326,21.367,6.426c8.194,11.544,17.962,29.601,17.962,50.067L298.832,408.214z M276.306,415.189
		c-23.705-8.696-49.82-8.696-73.537,0c-4.501,1.654-9.498,1.295-13.729-0.994c-0.288-0.154-0.572-0.317-0.852-0.49l38.156-14.905
		c8.507-3.321,17.879-3.321,26.387-0.001l38.125,14.888c-0.281,0.173-0.55,0.364-0.841,0.519
		C285.804,416.485,280.807,416.841,276.306,415.189z M344.909,308.074c-0.255,8.748-3.863,16.923-10.158,23.018l-23.307,22.566
		c-2.92,2.826-5.378,6.064-7.334,9.572c-3.718-13.976-10.619-25.94-16.716-34.53c-0.001-0.002-0.002-0.003-0.003-0.005
		c-6.923-9.723-19.564-13.532-30.743-9.263l-17.104,6.539l-17.105-6.539c-11.176-4.269-23.818-0.46-30.745,9.268
		c-6.099,8.593-13.004,20.557-16.725,34.525c-1.952-3.507-4.408-6.743-7.322-9.567l-23.308-22.566
		c-6.302-6.101-9.913-14.275-10.169-23.021l-0.222-7.414c0-0.015,0-0.029-0.001-0.043l-1.016-35.708
		c-0.049-1.711-1.181-3.201-2.815-3.708c-1.635-0.504-3.411,0.083-4.417,1.468c-12.661,17.399-37.379,23.61-66.117,16.615
		c-7.967-1.938-14.996-1.369-20.951,0.536c11.532-9.464,28.934-16.97,46.103-15.245c11.754,1.168,23.234-3.021,34.123-12.463
		c7.511-6.503,12.862-15.141,15.476-24.981c2.101-7.915,4.49-13.995,6.727-17.117c15.722-21.916,45.544-28.913,69.363-16.279
		c2.386,1.271,5.077,1.942,7.78,1.942c6.317,0,12.002-3.507,14.839-9.155l2.501-4.991c0.09-0.181,0.203-0.372,0.321-0.553
		c0.831-1.213,2.17-1.908,3.677-1.908c1.506,0,2.846,0.695,3.632,1.843c0.16,0.244,0.277,0.442,0.371,0.629l2.506,4.982
		c2.021,4.029,5.499,7.001,9.793,8.37c4.292,1.37,8.846,0.958,12.822-1.157c7.78-4.133,16.536-6.317,25.321-6.317
		c17.431,0,33.888,8.446,44.026,22.596c3.578,4.979,6.127,10.532,7.576,16.499c2.961,12.273,10.04,22.833,19.928,29.73
		c9.302,6.503,19.001,9.304,28.841,8.329c17.164-1.728,34.574,5.781,46.106,15.249c-5.957-1.907-12.988-2.483-20.953-0.54
		c-28.774,6.997-53.49,0.784-66.115-16.62c-1.005-1.386-2.781-1.979-4.417-1.474c-1.636,0.505-2.769,1.995-2.819,3.706
		L344.909,308.074z M429.909,308.354c-27.228,19.292-49.561,16.62-76.736-9.294l0.692-23.952
		c15.594,14.149,40.017,18.637,67.537,11.944c15.414-3.759,25.324,3.98,29.916,9.016
		C446.578,298.122,438.973,301.932,429.909,308.354z"/>
</g>
<g>
</g>
<g>
</g>
<g>
</g>
<g>
</g>
<g>
</g>
<g>
</g>
<g>
</g>
<g>
</g>
<g>
</g>
<g>
</g>
<g>
</g>
<g>
</g>
<g>
</g>
<g>
</g>
<g>
</g>
</svg>
