<?xml version="1.0" encoding="iso-8859-1"?>
<!-- Generator: Adobe Illustrator 18.0.0, SVG Export Plug-In . SVG Version: 6.00 Build 0)  -->
<!DOCTYPE svg PUBLIC "-//W3C//DTD SVG 1.1//EN" "http://www.w3.org/Graphics/SVG/1.1/DTD/svg11.dtd">
<svg version="1.1" id="Capa_1" xmlns="http://www.w3.org/2000/svg" xmlns:xlink="http://www.w3.org/1999/xlink" x="0px" y="0px"
	 viewBox="0 0 479.09 479.09" style="enable-background:new 0 0 479.09 479.09;" xml:space="preserve">
<g>
	<path d="M239.545,479.09c-63.984,0-124.14-24.917-169.384-70.161S0,303.53,0,239.545s24.917-124.14,70.161-169.384
		S175.561,0,239.545,0s124.14,24.917,169.384,70.161S479.09,175.56,479.09,239.545s-24.917,124.14-70.161,169.384
		S303.529,479.09,239.545,479.09z M239.545,8C177.697,8,119.551,32.085,75.818,75.818C32.085,119.551,8,177.697,8,239.545
		s24.085,119.994,67.818,163.727c43.732,43.733,101.879,67.818,163.727,67.818s119.994-24.085,163.727-67.818
		c43.733-43.733,67.818-101.879,67.818-163.727s-24.085-119.994-67.818-163.727C359.539,32.085,301.393,8,239.545,8z"/>
	<path d="M434.454,146.326c-15.162-30.632-39.122-48.948-69.288-52.967c-45.456-6.059-74.877,7.551-91.555,20.031
		c-14.517,10.863-22.228,22.772-25.009,27.679h-18.109c-2.781-4.907-10.492-16.816-25.01-27.679
		c-30.221-22.611-66.472-23.375-91.563-20.031c-30.168,4.019-54.127,22.335-69.289,52.97c-26.013,52.557-20.328,131,13.823,190.76
		c21.154,37.028,41.456,47.424,54.763,49.625c11.308,1.871,22.426-1.427,31.311-9.282c16.22-14.341,22.431-41.116,14.769-63.663
		c-14.036-41.337-41.76-76.551-69.695-88.919c1.282-9.541,3.425-17.089,6.388-22.451c7.648-13.843,16.145-21.574,25.975-23.634
		c8.938-1.874,19.326,0.803,32.015,8.343c-4.984-0.532-10.628-0.928-16.404-0.928c-22.383,0-36.224,5.885-41.137,17.491
		c-0.565,1.336-0.363,2.873,0.528,4.018c0.257,0.33,20.882,14.61,31.667,26.569c7.47,8.303,17.819,12.79,28.416,12.79
		c2.656,0,5.328-0.284,7.973-0.859c1.355,8.169,5.419,15.685,11.602,21.279l9.507,57.837c1.271,7.719,5.338,14.66,11.446,19.543
		l14.581,11.67c8.062,6.449,17.723,9.674,27.384,9.674s19.322-3.225,27.385-9.674l14.577-11.668
		c6.124-4.895,10.19-11.837,11.45-19.546l9.506-57.833c3.518-3.175,6.355-6.963,8.446-11.282c1.543-3.185,2.593-6.534,3.164-9.998
		c2.644,0.574,5.313,0.858,7.969,0.858c10.595,0,20.947-4.488,28.413-12.787c10.775-11.949,31.411-26.242,31.668-26.572
		c0.892-1.144,1.094-2.681,0.528-4.017c-7.829-18.505-37.844-18.651-57.533-16.571c12.682-7.535,23.064-10.211,32.006-8.337
		c9.832,2.06,18.332,9.791,25.985,23.637c2.964,5.354,5.106,12.901,6.388,22.448c-27.934,12.367-55.662,47.581-69.704,88.918
		c-8.063,23.725-1.121,51.116,16.508,65.128l0.001,0c0.065,0.052,0.133,0.102,0.201,0.15c6.901,5.416,14.754,8.188,23.039,8.188
		c2.438,0,4.913-0.24,7.412-0.723c13.051-2.523,32.958-13.146,53.688-49.421C454.788,277.326,460.469,198.881,434.454,146.326z
		 M151.721,316.341c6.266,18.438,2.007,40.002-10.062,52.742c-16.072-13.426-27.796-29.585-34.834-40.846
		c3.094-1.748,4.824-5.294,5.491-6.668c7.479-15.417-0.649-35.749-23.505-58.855c-0.714-10.444-0.727-20.477-0.067-29.443
		C113.921,245.658,138.763,278.179,151.721,316.341z M105.119,318.078c-0.966,1.99-1.701,2.776-2.041,3.062
		c-0.235-0.166-0.652-0.528-1.226-1.283c-0.024-0.035-0.05-0.069-0.075-0.104c-4.747-6.328-9.331-23.888-11.744-44.008
		C108.74,297.16,108.814,310.459,105.119,318.078z M120.322,170.935c-12.244,2.566-22.494,11.593-31.335,27.594
		c-3.777,6.835-6.37,16.392-7.705,28.403c-1.238,11.129-1.356,24.217-0.344,37.849c0.001,0.003,0.001,0.007,0.001,0.01
		c1.376,18.729,5.179,40.812,10.9,53.517c1.061,2.357,5.026,8.933,6.042,10.636c6.852,11.487,19.519,29.991,37.574,45.381
		c-5.028,3.324-12.048,5.965-20.932,4.495c-11.594-1.917-29.527-11.402-49.122-45.701c-32.906-57.582-38.499-132.933-13.6-183.242
		c13.925-28.136,35.771-44.938,63.176-48.589c34.33-4.573,63.163,1.646,85.688,18.487c14.081,10.529,21.182,22.164,23.194,25.826
		l-0.817,3.552c-5.457,23.639-26.724,40.527-50.917,40.617C151.115,173.928,134.631,167.936,120.322,170.935z M134.578,228.903
		c-6.153-6.822-14.774-13.951-21.553-19.169c9.066,1.065,22.155,3.3,38.226,6.56c1.864,0.376,3.626,1.066,5.239,2.053
		c0.744,0.454,1.412,0.937,2.042,1.476c0.026,0.022,0.053,0.043,0.08,0.064c3.504,3.008,5.58,7.387,5.697,12.013l0.149,6.185
		C153.712,240.86,142.242,237.423,134.578,228.903z M306.568,240.837c0,0.021-0.001,0.078-0.001,0.125
		c-0.001,0.022-0.003,0.043-0.004,0.064h0c0,0.001,0,0.002,0,0.003c-0.129,4.095-1.088,8.021-2.856,11.671
		c-1.815,3.748-4.344,6.983-7.516,9.616c-0.741,0.616-1.235,1.478-1.392,2.429l-9.74,59.264c-0.94,5.753-3.977,10.936-8.553,14.592
		l-14.579,11.669c-13.181,10.545-31.592,10.544-44.771,0L202.575,338.6c-4.563-3.648-7.6-8.832-8.55-14.595l-9.74-59.26
		c-0.156-0.949-0.649-1.811-1.389-2.426c-6.358-5.29-10.136-13.072-10.368-21.354c0-0.048-0.001-0.106-0.001-0.127l-0.018-0.745
		c0.882,3.045,2.292,5.475,4.254,7.313c3.266,3.058,7.332,3.886,11.273,3.886c1.938,0,3.844-0.201,5.611-0.435l1.571,58.814
		c0.267,10.004,3.954,19.737,10.385,27.404c6.429,7.664,15.377,12.987,25.216,14.993c2.896,0.575,5.834,0.867,8.729,0.867
		c2.899,0,5.834-0.292,8.736-0.87c20.409-4.146,35.041-21.58,35.583-42.393l1.571-58.814c1.768,0.234,3.674,0.435,5.614,0.435
		c3.943,0,8.013-0.829,11.279-3.888c1.962-1.838,3.373-4.268,4.255-7.312L306.568,240.837z M179.41,231.833
		c0.218,0.059,0.441,0.124,0.671,0.194c3.1,0.955,5.779,2.55,7.958,4.735c1.707,1.719,3.099,3.8,4.16,6.217
		c-3.833,0.489-7.746,0.667-9.967-1.412C180.443,239.891,179.487,236.563,179.41,231.833z M239.545,328.882
		c-4.365-7.914-11.381-14.096-16.263-17.756c-0.578-0.434-0.822-1.187-0.605-1.873c0.195-0.619,0.649-0.909,0.902-1.026
		c0.154-0.072,0.408-0.16,0.719-0.16c0.196,0,0.415,0.035,0.647,0.131l0.911,0.38c8.699,3.624,18.678,3.625,27.377,0l0.909-0.379
		c0.603-0.251,1.115-0.09,1.367,0.027c0.254,0.118,0.708,0.408,0.903,1.027c0.217,0.686-0.027,1.438-0.606,1.872
		C250.925,314.786,243.909,320.967,239.545,328.882z M286.887,242.979c1.062-2.416,2.451-4.496,4.154-6.211
		c2.16-2.167,4.796-3.748,7.835-4.701c0.048-0.013,0.096-0.026,0.143-0.041c0.228-0.07,0.45-0.135,0.667-0.194
		c-0.077,4.729-1.034,8.057-2.823,9.732C294.638,243.647,290.722,243.469,286.887,242.979z M344.509,228.907
		c-7.662,8.515-19.127,11.954-29.871,9.181l0.15-6.19c0.109-4.622,2.179-8.996,5.679-12.003c0.03-0.024,0.06-0.047,0.089-0.072
		c0.63-0.539,1.298-1.022,2.045-1.479c1.61-0.985,3.372-1.675,5.239-2.052c16.07-3.259,29.156-5.491,38.221-6.556
		C359.282,214.956,350.661,222.084,344.509,228.907z M339.752,194.189c10.907-0.148,24.066,1.09,31.287,7.04
		c-9.366,0.663-24.355,3.079-44.785,7.223c-2.783,0.561-5.417,1.593-7.824,3.066c-1.068,0.652-2.039,1.35-2.962,2.131l-13.344,9.624
		c-1.209,0.114-3.094,0.389-5.32,1.064c-0.05,0.013-0.1,0.027-0.148,0.042c-4.359,1.337-8.154,3.605-11.286,6.746
		c-3.673,3.7-6.262,8.477-7.692,14.198c-0.071,0.285-1.808,64.136-1.808,64.136c-0.444,17.069-12.442,31.365-29.162,34.761
		c-1.042,0.208-2.089,0.361-3.138,0.478c0.506-11.551,12.02-23.412,17.036-27.172c3.293-2.468,4.674-6.761,3.437-10.683
		c-0.817-2.588-2.698-4.729-5.16-5.873c-2.46-1.143-5.31-1.201-7.816-0.157l-0.909,0.379c-6.744,2.81-14.479,2.81-21.222,0.001
		l-0.911-0.38c-2.506-1.044-5.356-0.987-7.817,0.158c-2.462,1.145-4.342,3.285-5.158,5.873c-1.237,3.92,0.144,8.212,3.436,10.682
		c5.017,3.761,16.531,15.621,17.037,27.172c-1.045-0.116-2.087-0.268-3.124-0.474c-8.054-1.642-15.393-6.007-20.664-12.291
		c-5.273-6.289-8.298-14.271-8.516-22.477c0,0-1.736-63.848-1.808-64.133c-1.431-5.721-4.02-10.498-7.698-14.204
		c-3.118-3.128-6.912-5.395-11.272-6.737c-2.294-0.709-4.24-0.995-5.475-1.11l-13.354-9.633c-0.92-0.777-1.887-1.472-2.948-2.119
		c-2.41-1.475-5.044-2.507-7.824-3.067c-20.425-4.144-35.41-6.559-44.776-7.224c6.93-5.688,19.285-7.049,29.515-7.049
		c16.37,0,32.189,3.461,32.347,3.496c0.257,0.057,1.612,0.107,2.027,0.107c27.933-0.002,52.582-19.519,58.888-46.833l0.432-1.876
		h16.551l0.432,1.88c6.365,27.571,30.571,46.827,58.863,46.827c0.423,0,1.798-0.048,2.053-0.104
		C309.313,197.643,323.99,194.419,339.752,194.189z M340.756,372.199c-14.445-11.938-20.209-35.798-13.391-55.858
		c12.964-38.16,37.808-70.68,62.982-83.068c0.654,8.96,0.642,18.989-0.064,29.433c-22.855,23.106-30.987,43.441-23.514,58.865
		c1.709,3.521,3.726,5.821,6.011,6.919c-3.739,6.79-8.836,15.712-14.144,23.781C346.577,370.603,341.64,372.083,340.756,372.199z
		 M389.059,275.739c-2.249,18.689-6.402,35.355-10.85,42.709c-1.078,1.776-1.844,2.454-2.193,2.697
		c-0.338-0.282-1.076-1.064-2.048-3.066C370.274,310.458,370.354,297.153,389.059,275.739z M413.695,333.119
		c-19.225,33.641-36.855,43.331-48.262,45.536c-5.887,1.138-11.609,0.549-16.89-1.686c6.887-5.279,17.496-18.823,35.657-52.77
		c0,0,3.431-6.705,3.954-8.006c4.716-11.722,8.486-30.785,10.002-51.421c0-0.002,0-0.004,0-0.006
		c1.003-13.632,0.884-26.714-0.344-37.835c-1.335-12.021-3.928-21.579-7.705-28.404c-8.846-16.003-19.1-25.029-31.347-27.595
		c-14.304-2.998-30.798,2.996-51.808,18.843c-24.476-0.073-45.397-16.755-50.906-40.62l-0.815-3.545
		c2.001-3.646,9.099-15.294,23.197-25.837c22.521-16.841,51.349-23.063,85.68-18.487c27.403,3.651,49.249,20.452,63.175,48.586
		C452.186,200.182,446.598,275.535,413.695,333.119z"/>
</g>
<g>
</g>
<g>
</g>
<g>
</g>
<g>
</g>
<g>
</g>
<g>
</g>
<g>
</g>
<g>
</g>
<g>
</g>
<g>
</g>
<g>
</g>
<g>
</g>
<g>
</g>
<g>
</g>
<g>
</g>
</svg>
