<?xml version="1.0" encoding="iso-8859-1"?>
<!-- Generator: Adobe Illustrator 18.0.0, SVG Export Plug-In . SVG Version: 6.00 Build 0)  -->
<!DOCTYPE svg PUBLIC "-//W3C//DTD SVG 1.1//EN" "http://www.w3.org/Graphics/SVG/1.1/DTD/svg11.dtd">
<svg version="1.1" id="Capa_1" xmlns="http://www.w3.org/2000/svg" xmlns:xlink="http://www.w3.org/1999/xlink" x="0px" y="0px"
	 viewBox="0 0 479.09 479.09" style="enable-background:new 0 0 479.09 479.09;" xml:space="preserve">
<g>
	<path d="M419.258,245.885c-6.842-11.396-15.097-21.953-24.43-31.412c-8.748-8.867-18.258-17.032-28.538-24.072
		c-6.394-4.379-12.979-8.508-19.786-12.215c-1.805-3.653-4.127-6.981-6.916-9.909c13.272-7.137,25.647-15.656,36.999-25.579
		c10.645-9.305,20.377-19.98,28.298-31.709c1.202-1.78,2.357-3.591,3.478-5.423c0.986-1.612,2.172-3.185,1.585-5.167
		c-0.489-1.65-2.039-2.824-3.759-2.855c-2.009-0.037-4.021,1.6-5.694,2.552l-0.553,0.314c-10.357,5.916-20.649,11.863-31.439,16.967
		c-5.269,2.492-10.553,4.956-15.907,7.26c-5.434,2.339-10.963,4.38-16.508,6.434c-6.212,2.301-12.574,4.347-18.952,6.144
		c3.743-4.607,7.292-9.414,10.39-14.481c3.068-5.02,5.726-10.295,8.141-15.657c5.011-11.126,8.169-23.027,9.462-35.161
		c0.563-5.279,0.704-10.609,0.266-15.903c-0.185-2.24-0.025-5.421-1.92-6.99c-0.945-0.782-2.227-1.092-3.425-0.822
		c-1.409,0.317-2.27,1.394-3.186,2.423c-4.186,4.7-7.954,9.805-11.818,14.769c-3.908,5.021-7.763,10.071-11.78,15.006
		c-4.03,4.95-8.02,9.933-12.108,14.835c-4.097,4.914-8.383,9.651-12.62,14.443c-1.081,1.222-2.163,2.443-3.253,3.658l-5.749-3.57
		c-24.666-15.311-55.312-15.31-79.979,0l-5.711,3.546c-8.841-9.554-17.154-19.572-25.375-29.662
		c-2.403-2.949-4.78-5.919-7.111-8.925l-0.401-0.518c-5.62-7.256-11.224-14.562-17.077-21.632c-1.211-1.462-2.555-3.602-4.421-4.25
		c-1.726-0.599-3.695,0.09-4.676,1.629c-1.028,1.612-0.892,4.069-1.032,5.92c-0.165,2.181-0.25,4.368-0.261,6.556
		c-0.089,17.724,4.965,34.99,12.873,50.746c4.287,8.541,9.549,16.519,15.51,23.982c-13.165-3.821-26.006-8.389-38.579-13.861
		c-12.716-5.534-25.052-11.92-37.126-18.734c-3.036-1.714-5.989-3.57-9.023-5.287c-1.267-0.717-2.612-1.707-4.12-1.728
		c-1.315-0.019-2.584,0.627-3.339,1.707c-1.949,2.79,0.658,5.699,2.147,8.009c1.763,2.735,3.581,5.431,5.499,8.06
		c7.823,10.723,17.049,20.26,27.049,28.962c9.517,8.281,20.001,15.427,30.948,21.681c1.38,0.788,2.769,1.559,4.17,2.309
		c-2.785,2.925-5.105,6.248-6.909,9.897c-0.05,0.027-0.628,0.341-0.628,0.341c-13.635,7.427-26.353,16.389-37.994,26.668
		c-10.893,9.618-20.879,20.602-29.042,32.641c-1.209,1.783-2.373,3.597-3.502,5.433c-1.037,1.685-2.526,3.457-2.06,5.563
		c0.388,1.757,1.961,3.058,3.757,3.123c2.104,0.076,4.251-1.681,6.003-2.683l0.559-0.318c8.242-4.717,16.431-9.542,24.887-13.871
		c8.212-4.204,16.644-8.075,25.115-11.727c4.797-2.068,9.654-3.971,14.566-5.751c1.113,1.846,2.367,3.617,3.78,5.284
		c-15.077,6.114-28.448,16.152-38.518,28.931c-10.975,13.927-17.918,30.893-19.771,48.533c-1.079,10.269-0.444,20.701,1.838,30.771
		c-5.903,9.188-8.189,20.268-7.495,31.09c0.767,11.962,5.026,23.572,11.539,33.583c7.357,11.308,17.64,20.766,29.582,27.055
		c11.474,6.044,24.707,9.241,37.681,7.773c6.921-0.783,13.94-2.901,19.862-6.637c1.245-0.786,2.073-2.027,2.06-3.537
		c-0.014-1.678-1.165-3.381-1.861-4.86c-1.678-3.567-3.427-7.102-5.281-10.581c-0.945-1.773-1.917-3.532-2.919-5.273
		c6.4,0.158,12.842-0.279,19.129-1.517c2.518-0.496,5.089-1.069,7.491-1.995l-0.003-0.007c2.053-0.792,2.473-2.701,2.791-4.648
		c0.295-1.805,0.497-3.624,0.609-5.449c0.234-3.805,0.078-7.63-0.422-11.408c-1.031-7.785-3.513-15.352-7.071-22.343
		c-7.738-15.208-20.592-27.89-35.954-35.333c-8.067-3.908-16.879-6.379-25.845-6.868c-6.294-37.247,18.642-55.501,36.081-63.547
		l19.628,19.628c-3.957,6.344-3.84,14.597,0.314,20.809c3.738,5.591,10.274,8.892,16.994,8.546
		c4.426-0.228,8.681-2.036,11.952-5.021c14.146,6.999,30.661,8.609,45.918,4.598c4.236-1.114,8.357-2.659,12.284-4.6
		c5.542,5.06,13.724,6.458,20.61,3.456c6.042-2.635,10.432-8.353,11.376-14.881c0.646-4.471-0.333-9.077-2.723-12.909l19.428-19.424
		c17.263,8.075,41.905,26.326,35.649,63.345c-16.62,0.905-32.453,8.517-44.62,19.687c-12.074,11.084-20.992,25.971-23.842,42.207
		c-0.73,4.157-1.051,8.389-0.9,12.608c0.076,2.119,0.27,4.234,0.59,6.33c0.321,2.106,0.624,4.345,2.881,5.217l-0.002,0.006
		c2.402,0.926,4.973,1.499,7.491,1.995c6.287,1.238,12.729,1.675,19.13,1.517c-1.993,3.46-3.864,6.989-5.643,10.563
		c-0.873,1.753-1.724,3.518-2.557,5.29c-0.695,1.478-1.846,3.182-1.861,4.86c-0.013,1.51,0.815,2.751,2.059,3.537
		c1.489,0.941,3.082,1.748,4.681,2.481c3.216,1.474,6.597,2.578,10.055,3.32c12.903,2.77,26.517,0.516,38.463-4.825
		c12.388-5.539,23.229-14.449,31.279-25.354c7.198-9.751,12.203-21.238,13.784-33.292c1.414-10.782,0-22.045-5.087-31.742
		c-0.618-1.179-1.288-2.331-2.007-3.452c4.057-17.89,2.808-36.81-3.65-53.986c-5.887-15.66-15.959-29.664-28.963-40.192
		c-7.063-5.718-14.957-10.398-23.359-13.86c1.499-1.748,2.816-3.616,3.983-5.561c21.903,8.272,42.991,18.605,63.106,30.575
		c1.415,0.842,2.834,1.676,4.273,2.477c1.31,0.729,2.575,1.571,4.142,1.341C419.186,251.494,420.702,248.293,419.258,245.885
		C418.232,244.177,420.182,247.425,419.258,245.885z M325.316,143.094c9.231-3.035,18.428-6.082,27.408-9.822
		c8.751-3.645,17.412-7.631,25.882-11.889c4.887-2.457,9.678-5.099,14.434-7.798c-12.389,15.855-27.576,29.539-44.583,40.316
		c-5.003,3.17-10.184,6.055-15.43,8.8c-0.515-0.352-1.037-0.696-1.57-1.027l-15.468-9.6c0.245-2.075,0.26-4.182,0.053-6.269
		C319.579,144.871,322.532,144.007,325.316,143.094C326.648,142.656,322.532,144.007,325.316,143.094z M294.148,115.41
		c5.925-6.704,11.835-13.385,17.494-20.318c5.662-6.938,11.329-13.87,16.78-20.975c3.047-3.972,6.157-7.894,9.231-11.845
		c0.014,9.622-1.686,19.423-4.426,28.629c-2.865,9.623-7.242,18.994-12.465,27.561c-2.908,4.77-6.249,9.289-9.766,13.625
		c-2.234-3.214-5.099-5.955-8.499-8.062l-10.312-6.405C292.845,116.88,293.504,116.138,294.148,115.41
		C295.485,113.897,293.504,116.138,294.148,115.41z M203.777,116.563c22.065-13.695,49.479-13.693,71.54,0l22.963,14.262
		c5.703,3.534,9.391,9.689,9.862,16.381l-10.583-6.568c-13.497-8.387-28.787-13.789-44.558-15.73
		c-15.792-1.944-31.972-0.423-47.119,4.452c-8.539,2.748-16.735,6.544-24.354,11.277l-10.583,6.568
		c0.468-6.691,4.164-12.846,9.862-16.382L203.777,116.563z M141.492,62.435c4.348,5.583,8.809,11.076,13.143,16.671l0.402,0.52
		c7.917,10.21,16.197,20.208,24.643,29.985c2.352,2.723,4.799,5.361,7.245,7.998l-10.335,6.417c-3.411,2.116-6.281,4.865-8.512,8.08
		c-7.49-9.389-13.709-19.639-18.327-30.736c-1.358-3.265-2.584-6.584-3.681-9.945C142.993,81.988,141.44,72.097,141.492,62.435z
		 M116.74,144.104c-11.361-8.813-21.855-19.022-30.635-30.418c19.227,10.604,39.209,20.254,60.13,27.051
		c5.566,1.808,11.173,3.5,16.809,5.072c-0.206,2.085-0.19,4.19,0.053,6.266l-15.469,9.601c-0.521,0.324-1.032,0.659-1.536,1.002
		C135.803,157.447,125.873,151.168,116.74,144.104C112.241,140.614,121.205,147.558,116.74,144.104z M130.685,210.376
		c-7.403,2.64-14.633,5.738-21.779,9.004c-7.064,3.228-14.122,6.503-20.991,10.131c-3.946,2.084-7.842,4.261-11.72,6.469
		c5.541-7.118,11.455-13.878,17.976-20.123c6.624-6.344,13.777-12.119,21.193-17.508c4.391-3.191,8.908-6.176,13.583-8.936
		c-1.213,7.062-0.555,14.279,1.842,20.924C130.753,210.351,130.719,210.364,130.685,210.376
		C118.903,214.577,130.719,210.364,130.685,210.376z M135.548,364.622c18.052-0.523,34.746,12.365,47.076,25.659
		c-4.973,1-12.897,1.977-22.994,1.161C153.339,381.979,145.626,372.859,135.548,364.622z M135.54,356.602
		c-2.606,0.064-5.206,0.358-7.762,0.874c-2.141,0.433-4.806,0.74-5.837,2.958c-0.473,1.017-0.493,2.211-0.056,3.243
		c0.512,1.21,1.575,1.838,2.603,2.568c2.21,1.568,4.364,3.215,6.455,4.94c7.703,6.354,14.476,13.767,20.22,21.93
		c5.663,8.048,10.282,16.752,14.449,25.651c-16.11,7.908-35.561,3.942-50.334-5.061c-16.072-9.795-28.639-26.258-32.33-44.871
		c-1.58-7.967-1.474-16.358,0.995-24.137c2.504-7.888,7.481-14.849,14.294-19.582c16.445-11.424,38.702-7.798,54.958,1.999
		c17.342,10.451,30.83,28.82,33.299,49.173c0.275,2.268,0.407,4.554,0.381,6.839C171.062,366.626,155.765,356.109,135.54,356.602z
		 M128.807,261.764c-10.501,13.517-14.325,29.824-11.422,48.515c-11.046,0.945-21.274,5.164-29.206,12.795
		c-2.483-16.482-0.087-33.534,6.851-48.69c6.153-13.439,15.743-25.228,27.696-33.929c6.535-4.757,13.742-8.58,21.341-11.334
		l11.491,11.49C146.945,244.911,136.656,251.66,128.807,261.764C118.305,275.282,136.656,251.66,128.807,261.764z M197.5,287.616
		c-4.659,0-8.939-2.994-10.549-7.364c-1.63-4.424-0.243-9.516,3.379-12.524c3.628-3.013,8.909-3.42,12.951-0.986
		c4.022,2.422,6.159,7.22,5.242,11.83C207.492,283.76,202.787,287.616,197.5,287.616z M244.74,289.101
		c-10.078,0.955-20.395-0.867-29.564-5.144c2.623-6.093,1.861-13.274-1.971-18.68c-3.413-4.815-8.965-7.866-14.865-8.121
		c-4.112-0.178-8.221,0.985-11.625,3.299l-40.769-40.769c-11.157-11.157-12.732-29.371-3.631-42.268
		c2.533-3.59,5.802-6.63,9.533-8.945l33.9-21.04c12.531-7.784,26.728-12.796,41.371-14.592c14.661-1.798,29.676-0.373,43.733,4.164
		c7.883,2.545,15.451,6.056,22.487,10.428l33.899,21.04c13.469,8.361,19.044,25.612,13.115,40.306
		c-1.643,4.071-4.101,7.802-7.204,10.908l-40.777,40.768c-5.624-3.82-13.056-4.362-19.168-1.39
		c-5.256,2.556-9.166,7.495-10.413,13.209c-0.849,3.893-0.456,8.021,1.12,11.681C257.896,286.756,251.473,288.495,244.74,289.101
		C241.32,289.425,251.473,288.495,244.74,289.101z M281.59,287.616c-4.659,0-8.939-2.994-10.55-7.364
		c-1.63-4.424-0.243-9.516,3.379-12.524c3.628-3.013,8.909-3.42,12.951-0.986c4.022,2.422,6.159,7.22,5.242,11.83
		C291.581,283.76,286.877,287.616,281.59,287.616z M342.908,364.621c-10.078,8.238-17.79,17.358-24.081,26.82
		c-10.098,0.816-18.022-0.161-22.994-1.16C308.155,376.992,324.818,364.13,342.908,364.621z M312.844,418.766
		c7.853-16.77,17.619-32.51,31.563-44.919c2.062-1.835,4.195-3.592,6.39-5.267c1.043-0.796,2.101-1.575,3.171-2.334
		c1.029-0.73,2.092-1.359,2.603-2.568c0.893-2.11-0.216-4.548-2.346-5.328c-2.336-0.855-4.989-1.211-7.449-1.487
		c-9.92-1.109-19.807,1.327-28.652,5.775c-10.038,5.048-18.803,12.413-26.542,20.487c-0.181-15.835,7.013-31.176,17.546-42.731
		c9.883-10.841,23.15-18.937,37.685-21.533c12.442-2.221,25.896-0.11,35.837,8.094c9.804,8.09,14.297,20.601,13.882,33.101
		c-0.475,14.313-6.774,28.069-16.009,38.847c-1.236,1.442-2.528,2.837-3.871,4.18C357.957,421.776,331.731,428.037,312.844,418.766z
		 M380.466,268.513c9.247,16.725,12.637,35.83,9.812,54.561c-7.932-7.631-18.161-11.85-29.207-12.795
		c1.728-11.12,1.161-22.642-2.821-33.239c-3.999-10.643-11.217-19.739-20.074-26.78c-4.6-3.657-9.612-6.787-14.855-9.436
		l11.535-11.533C354.25,236.45,370.39,250.288,380.466,268.513C389.713,285.238,370.39,250.288,380.466,268.513z M390.446,229.182
		c-13.646-7.159-27.713-13.447-42.116-18.924c2.362-6.592,3.017-13.742,1.832-20.741c15.572,9.446,29.868,20.69,42.294,34.043
		c3.643,3.915,7.094,8.009,10.327,12.269C399.054,233.764,395.053,231.609,390.446,229.182
		C379.21,223.288,395.053,231.609,390.446,229.182z"/>
	<path d="M408.929,70.161C363.685,24.917,303.529,0,239.545,0S115.405,24.917,70.161,70.161S0,175.56,0,239.545
		s24.917,124.14,70.161,169.384s105.399,70.161,169.384,70.161s124.14-24.917,169.384-70.161S479.09,303.53,479.09,239.545
		S454.173,115.405,408.929,70.161z M403.271,403.272c-43.732,43.733-101.879,67.818-163.727,67.818s-119.994-24.085-163.727-67.818
		C32.085,359.539,8,301.393,8,239.545S32.085,119.551,75.818,75.818C119.551,32.085,177.697,8,239.545,8
		s119.994,24.085,163.727,67.818c43.733,43.733,67.818,101.879,67.818,163.727S447.005,359.539,403.271,403.272z"/>
</g>
<g>
</g>
<g>
</g>
<g>
</g>
<g>
</g>
<g>
</g>
<g>
</g>
<g>
</g>
<g>
</g>
<g>
</g>
<g>
</g>
<g>
</g>
<g>
</g>
<g>
</g>
<g>
</g>
<g>
</g>
</svg>
