<?xml version="1.0" encoding="iso-8859-1"?>
<!-- Generator: Adobe Illustrator 18.0.0, SVG Export Plug-In . SVG Version: 6.00 Build 0)  -->
<!DOCTYPE svg PUBLIC "-//W3C//DTD SVG 1.1//EN" "http://www.w3.org/Graphics/SVG/1.1/DTD/svg11.dtd">
<svg version="1.1" id="Capa_1" xmlns="http://www.w3.org/2000/svg" xmlns:xlink="http://www.w3.org/1999/xlink" x="0px" y="0px"
	 viewBox="0 0 479.09 479.09" style="enable-background:new 0 0 479.09 479.09;" xml:space="preserve">
<g>
	<path d="M408.928,70.161C363.684,24.917,303.53,0,239.545,0C175.56,0,115.406,24.917,70.161,70.161S0,175.56,0,239.545
		s24.917,124.14,70.161,169.384S175.56,479.09,239.545,479.09c63.984,0,124.139-24.917,169.383-70.161S479.09,303.53,479.09,239.545
		S454.173,115.405,408.928,70.161z M403.272,403.272c-43.733,43.733-101.879,67.818-163.727,67.818
		c-61.848,0-119.994-24.085-163.727-67.818S8,301.393,8,239.545S32.085,119.551,75.818,75.818S177.697,8,239.545,8
		c61.848,0,119.994,24.085,163.727,67.818s67.818,101.879,67.818,163.727S447.005,359.539,403.272,403.272z"/>
	<path d="M409.654,178.611c-0.478-1.736-2.057-2.939-3.857-2.939c-11.016,0-26.251-4.605-44.603-13.324
		c-2.286-42.927-10.001-84.531-20.752-111.693c-2.753-6.952-7.399-12.974-13.438-17.415c-6.01-4.421-13.143-7.067-20.627-7.652
		c-0.048-0.004-0.097-0.007-0.146-0.009c-22.58-0.936-41.835,16.667-42.914,39.238l-2.605,54.382
		c-14.063-1.711-28.273-1.711-42.337,0.001l-2.605-54.382c-1.078-22.571-20.334-40.175-42.914-39.239
		c-0.049,0.002-0.098,0.005-0.146,0.009c-7.478,0.585-14.607,3.231-20.617,7.652c-6.038,4.441-10.685,10.463-13.438,17.416
		c-10.75,27.16-18.465,68.764-20.751,111.69c-18.354,8.72-33.592,13.326-44.609,13.326c-1.8,0-3.379,1.203-3.857,2.939
		c-0.283,1.029,0.348,2.986,0.348,2.986c0.371,0.674,9.256,16.688,25.456,31.454c7.425,6.767,15.174,12.124,23.139,16.068
		c1.003,15.514,2.652,31.36,4.925,47.147c0.711,4.942,4.691,8.364,9.593,8.364c0.23,0,0.462-0.007,0.696-0.023
		c5.209-0.34,9.038-4.375,9.103-9.597c0.16-13.316,0.504-26.163,1.021-38.268c2.679,0.306,5.369,0.474,8.067,0.474
		c3.214,0,6.439-0.238,9.669-0.675v35.274c0,15.716,4.652,30.869,13.453,43.822c9.019,13.274,13.786,28.896,13.786,45.176
		c0,15.009,6.541,28.515,16.916,37.832c-7.133,14.418-4.383,31.838,7.201,43.422l23.91,23.909c0.781,0.781,1.805,1.171,2.829,1.171
		c1.024,0,2.047-0.391,2.829-1.171l23.909-23.909c7.139-7.139,11.07-16.635,11.07-26.738c0-5.814-1.349-11.508-3.89-16.671
		c10.384-9.317,16.93-22.828,16.93-37.844c0-16.281,4.767-31.902,13.786-45.175c8.801-12.953,13.453-28.106,13.453-43.822v-35.274
		c3.229,0.437,6.453,0.675,9.666,0.675c2.701,0,5.393-0.169,8.074-0.475c0.521,12.306,0.866,25.154,1.023,38.266
		c0.058,5.219,3.882,9.256,9.092,9.601c0.237,0.016,0.472,0.023,0.705,0.023c4.904,0,8.884-3.421,9.596-8.365
		c2.273-15.788,3.923-31.636,4.926-47.152c7.961-3.944,15.707-9.298,23.128-16.062c16.2-14.766,25.085-30.78,25.456-31.454
		C409.302,181.597,409.937,179.64,409.654,178.611z M352.945,158.26c-5.776-2.976-11.819-6.318-18.099-10.01
		c-4.698-26.709-11.127-46.122-19.123-57.763c-0.111-13.917,2.311-36.872,9.532-42.868c1.132-0.94,2.29-1.373,3.636-1.349
		c1.679,2.243,3.071,4.7,4.113,7.331C343.079,79.057,350.423,117.777,352.945,158.26z M315.971,136.55
		c-0.074-7.864-0.152-18.011-0.195-28.943c3.795,9.131,7.107,20.873,9.91,35.113C322.501,140.747,319.259,138.687,315.971,136.55z
		 M271.309,65.2c0.868-18.168,16.369-32.339,34.518-31.63c5.968,0.48,11.65,2.594,16.438,6.115c0.083,0.061,0.159,0.129,0.242,0.191
		c-0.819,0.443-1.611,0.965-2.364,1.591c-12.806,10.639-12.481,46.331-12.402,50.365l0.003,0c0,14.541,0.091,28.963,0.185,40.096
		c-1.722-0.824-3.439-1.574-5.136-2.228c-11.123-4.288-22.555-7.397-34.126-9.346L271.309,65.2z M249.591,362.69
		c1.047,0,1.651,0.607,1.918,0.969c0.267,0.362,0.667,1.118,0.357,2.119l-1.917,6.185c-1.421,4.586-5.602,7.667-10.403,7.667
		s-8.982-3.081-10.403-7.667l-1.917-6.185c-0.31-1,0.091-1.757,0.357-2.119s0.871-0.969,1.918-0.969H249.591z M173.262,33.569
		c18.193-0.701,33.65,13.461,34.518,31.631l2.642,55.153c-11.569,1.949-23,5.058-34.121,9.345c-1.694,0.653-3.409,1.402-5.131,2.225
		c0.095-11.152,0.185-25.605,0.185-40.171c0-0.006-0.001-0.011-0.001-0.017c0.082-4.408,0.321-39.698-12.403-50.269
		c-0.752-0.624-1.543-1.145-2.361-1.588c0.083-0.063,0.16-0.132,0.244-0.193C161.621,36.163,167.301,34.049,173.262,33.569z
		 M163.128,136.546c-3.292,2.14-6.537,4.203-9.726,6.177c2.805-14.251,6.121-25.999,9.921-35.132
		C163.28,118.528,163.202,128.678,163.128,136.546z M146.095,53.601c1.042-2.631,2.434-5.089,4.113-7.332
		c1.342-0.022,2.499,0.411,3.629,1.35c7.222,5.998,9.645,28.96,9.532,42.877c-8,11.638-14.43,31.05-19.127,57.757
		c-6.276,3.69-12.316,7.03-18.089,10.005C128.676,117.775,136.02,79.056,146.095,53.601z M134.7,274.912
		c-0.017,1.329-0.893,1.665-1.625,1.712c-0.746,0.049-1.659-0.173-1.85-1.499c-2.044-14.201-3.583-28.45-4.588-42.451
		c3.022,1.105,6.07,1.996,9.136,2.698C135.227,247.861,134.865,261.138,134.7,274.912z M100.795,207.287
		c-5.789-5.256-10.621-10.747-14.399-15.55c23.53,11.448,50.716,12.427,75.06,2.643v34.094
		C140.28,231.736,119.887,224.622,100.795,207.287z M269.358,415.327c0,7.966-3.1,15.453-8.728,21.081l-21.081,21.081
		l-21.081-21.081c-8.753-8.753-11.09-21.725-6.323-32.792c7.914,5.084,17.315,8.047,27.4,8.047c10.09,0,19.495-2.966,27.411-8.054
		C268.532,407.289,269.358,411.272,269.358,415.327z M297.567,311.141c-9.923,14.605-15.169,31.781-15.169,49.671
		c0,23.628-19.223,42.851-42.852,42.851s-42.852-19.223-42.852-42.851c0-17.89-5.245-35.066-15.169-49.672
		c-7.896-11.621-12.07-25.22-12.07-39.326v-28.148c2.421,7.093,7.183,17.134,15.667,21.904c3.253,1.83,6.737,2.745,10.42,2.745
		c3.065,0,6.269-0.634,9.592-1.902c1.017-0.388,1.832-1.174,2.257-2.176s0.423-2.134-0.005-3.135
		c-2.169-5.072-7.038-10.631-14.468-16.521c-2.726-2.164-5.767-4.352-9.036-6.5c-5.892-3.881-10.543-6.375-10.739-6.479
		c-1.162-0.622-2.538-0.62-3.689-0.037v-43.32c0-1.376-0.707-2.655-1.872-3.387c-0.648-0.407-1.387-0.613-2.128-0.613
		c-0.592,0-1.186,0.131-1.736,0.396c-24.965,12.028-53.959,11.132-78.051-2.3c25.804-5.104,58.727-23.959,83.46-40.153
		c0.881-0.577,1.456-0.956,1.64-1.067c2.827-1.565,5.656-2.896,8.409-3.958c18.195-7.014,37.254-10.748,56.368-11.205V354.69h-6.043
		c-3.334,0-6.38,1.539-8.358,4.223c-1.978,2.684-2.546,6.049-1.559,9.233l1.917,6.185c2.465,7.955,9.717,13.299,18.045,13.299
		s15.58-5.344,18.045-13.299l1.917-6.185c0.987-3.184,0.418-6.549-1.559-9.233c-1.978-2.684-5.024-4.223-8.358-4.223h-6.045V125.959
		c19.115,0.457,38.174,4.191,56.37,11.205c2.756,1.063,5.585,2.395,8.362,3.932c0.231,0.138,0.808,0.518,1.691,1.097
		c40.477,26.5,66.784,36.816,83.484,40.135c-24.099,13.445-53.105,14.347-78.079,2.315c-1.24-0.598-2.698-0.515-3.864,0.216
		c-1.165,0.732-1.872,2.011-1.872,3.387v43.321c-1.15-0.584-2.525-0.587-3.687,0.033c-0.195,0.104-4.851,2.59-10.74,6.476
		c-3.309,2.186-6.351,4.379-9.041,6.517c-7.435,5.904-12.303,11.458-14.467,16.509c-0.429,1.001-0.431,2.133-0.006,3.136
		c0.425,1.003,1.24,1.789,2.257,2.177c3.324,1.268,6.527,1.902,9.592,1.902c3.683,0,7.167-0.916,10.421-2.745
		c8.488-4.772,13.25-14.82,15.67-21.913v28.158C309.636,285.92,305.463,299.519,297.567,311.141z M178.031,243.818
		c0.475,0.305,0.961,0.621,1.456,0.946c3.074,2.02,5.919,4.066,8.461,6.083c4.18,3.313,7.427,6.472,9.61,9.328
		c-3.105,0.4-5.912-0.12-8.5-1.571C183.704,255.603,180.184,249.258,178.031,243.818z M301.06,243.812
		c-2.153,5.442-5.674,11.791-11.029,14.793c-2.586,1.45-5.394,1.974-8.493,1.572c2.183-2.848,5.429-6.003,9.607-9.321
		c2.509-1.994,5.361-4.048,8.473-6.104C300.108,244.427,300.589,244.114,301.06,243.812z M347.874,275.125
		c-0.191,1.329-1.125,1.545-1.855,1.499c-0.731-0.048-1.605-0.383-1.62-1.71c-0.162-13.563-0.525-26.843-1.075-39.544
		c3.067-0.703,6.116-1.595,9.139-2.7C351.457,246.673,349.919,260.924,347.874,275.125z M378.294,207.287
		c-19.092,17.335-39.482,24.447-60.657,21.187v-34.094c24.341,9.784,51.525,8.806,75.055-2.641
		C388.914,196.542,384.081,202.032,378.294,207.287z"/>
</g>
<g>
</g>
<g>
</g>
<g>
</g>
<g>
</g>
<g>
</g>
<g>
</g>
<g>
</g>
<g>
</g>
<g>
</g>
<g>
</g>
<g>
</g>
<g>
</g>
<g>
</g>
<g>
</g>
<g>
</g>
</svg>
