<?xml version="1.0" encoding="iso-8859-1"?>
<!-- Generator: Adobe Illustrator 18.0.0, SVG Export Plug-In . SVG Version: 6.00 Build 0)  -->
<!DOCTYPE svg PUBLIC "-//W3C//DTD SVG 1.1//EN" "http://www.w3.org/Graphics/SVG/1.1/DTD/svg11.dtd">
<svg version="1.1" id="Capa_1" xmlns="http://www.w3.org/2000/svg" xmlns:xlink="http://www.w3.org/1999/xlink" x="0px" y="0px"
	 viewBox="0 0 479.089 479.089" style="enable-background:new 0 0 479.089 479.089;" xml:space="preserve">
<g>
	<path d="M408.928,70.161C363.684,24.917,303.529,0,239.544,0C175.56,0,115.405,24.917,70.161,70.161
		C24.917,115.405,0,175.56,0,239.545s24.917,124.139,70.161,169.383s105.399,70.161,169.383,70.161
		c63.985,0,124.14-24.917,169.384-70.161s70.161-105.398,70.161-169.383S454.172,115.405,408.928,70.161z M403.271,403.272
		c-43.733,43.732-101.879,67.817-163.727,67.817s-119.994-24.085-163.727-67.817C32.085,359.539,8,301.392,8,239.545
		c0-61.848,24.085-119.994,67.818-163.727C119.551,32.085,177.697,8,239.544,8s119.994,24.085,163.727,67.818
		s67.818,101.879,67.818,163.727C471.089,301.393,447.004,359.539,403.271,403.272z"/>
	<path d="M406.772,130.123C406.772,130.123,406.772,130.123,406.772,130.123c-29.128-66.32-102.283-100.508-170.491-83.238
		c-31.381-7.887-63.603-5.359-93.252,7.339c-26.838,11.493-49.397,30.448-65.235,54.812c-3.305,5.071-6.251,10.449-8.755,15.982
		c-0.01,0.022-0.016,0.045-0.025,0.067c-6.799,15.048-10.294,30.846-10.386,46.96c-0.05,9.802,1.225,17.583,3.794,23.14
		c0.434,0.932,1.133,1.935,2.019,3.204c3.02,4.33,8.075,11.577,5.267,19.651c-0.571,1.611-1.225,3.296-2.148,4.714l-26.407,40.845
		c-4.121,6.354-4.421,14.125-0.802,20.786c3.621,6.663,10.308,10.641,17.888,10.641h12.107c-0.14,4.384-1.397,6.315-4.452,11.007
		l-0.134,0.206c-1.8,2.756-2.751,5.956-2.751,9.257c0,5.264,2.37,10.095,6.405,13.3c-2.01,5.647-4.69,16.675,3.069,20.794
		c0.079,0.042,0.159,0.081,0.241,0.117l2.964,1.328c4.435,1.994,7.18,6.594,6.829,11.474c-0.053,0.826-0.078,1.502-0.078,2.128
		c0,7.863,3.091,15.255,8.704,20.813c5.555,5.5,12.901,8.519,20.734,8.519c0.1,0,0.2,0,0.3-0.001l0.148-0.003
		c0.704-0.01,1.393-0.02,2.083-0.038c15.784-0.349,31.603-4.171,45.977-11.075c0.72,0.901,1.491,1.772,2.324,2.597
		c5.53,5.477,12.879,8.502,20.634,8.514l11.707,34.703c0.497,1.474,1.804,2.526,3.35,2.697c5.006,0.555,10.023,0.83,15.038,0.83
		c17.447,0,34.8-3.345,51.038-9.863l2.137,6.333c0.463,1.371,1.629,2.385,3.051,2.652l2.33,0.438
		c7.242,1.358,14.493,2.021,21.685,2.02c38.479-0.002,75.079-18.964,97.162-51.619c0.823-1.218,0.913-2.788,0.233-4.091
		l-40.22-77.111c0.883-0.158,1.798-0.34,2.772-0.564c11.454-2.64,21.951-8.654,30.351-17.388c4.655-4.816,7.687-8.226,9.012-10.136
		c14.025-20.244,22.81-43.882,25.403-68.358C421.066,179.247,417.048,153.527,406.772,130.123z M84.499,113.399
		c14.974-23.035,36.303-40.954,61.68-51.822c23.663-10.134,49.063-13.413,74.259-9.701c-1.956,0.741-3.907,1.516-5.848,2.347
		c-23.861,10.219-44.326,26.346-59.706,46.918c-5.09,0.201-10.121,1.508-14.691,3.817l-11.668,5.897
		c-15.361,7.753-32.359,11.84-49.518,11.947C80.687,119.576,82.524,116.43,84.499,113.399z M114.212,385.925
		c-0.675,0.019-1.332,0.027-2.004,0.037l-0.13,0.002c-5.801,0.037-11.212-2.146-15.308-6.202c-4.083-4.044-6.333-9.416-6.333-15.128
		c0-0.535,0.027-1.078,0.06-1.583c0.588-8.187-4.044-15.949-11.535-19.317l-2.803-1.256c-1.531-0.971-0.954-5.844,0.593-10.448
		l16.298,4.684c0.369,0.105,0.741,0.156,1.107,0.156c1.738,0,3.338-1.143,3.842-2.896c0.61-2.123-0.616-4.339-2.739-4.949
		l-19.516-5.609c-2.924-1.571-4.737-4.575-4.737-7.922c0-1.742,0.501-3.431,1.453-4.888l0.137-0.21
		c3.469-5.329,5.76-8.85,5.76-16.242v-3.13c0-2.209-1.791-4-4-4h-16.12c-4.602,0-8.661-2.415-10.859-6.461
		c-2.196-4.042-2.015-8.758,0.488-12.617l26.402-40.839c1.373-2.107,2.243-4.32,2.986-6.419c4.157-11.952-2.875-22.033-6.253-26.877
		c-0.525-0.752-1.178-1.689-1.324-1.995c-2.068-4.473-3.095-11.111-3.051-19.729c0.081-14.136,2.985-28.024,8.632-41.323
		c1.018,0.026,2.035,0.041,3.052,0.041c18.642,0,37.133-4.387,53.819-12.809l11.669-5.898c1.546-0.781,3.164-1.411,4.821-1.889
		c-3.004,4.73-5.709,9.698-8.022,14.809c-6.811,15.051-10.314,30.87-10.412,47.021c-0.052,9.796,1.222,17.578,3.791,23.135
		c0.435,0.938,1.138,1.947,2.028,3.224c3.018,4.329,8.068,11.573,5.255,19.649c-0.563,1.601-1.211,3.278-2.139,4.706l-1.782,2.755
		c-0.042-1.448-0.865-2.786-2.192-3.455l-7.936-4.007l-22.184-11.204l-2.357-5.583c-0.859-2.035-3.205-2.989-5.241-2.129
		c-2.035,0.859-2.989,3.206-2.129,5.241l2.615,6.194v17.39l-5.903,1.481c-2.143,0.538-3.444,2.71-2.907,4.853
		c0.456,1.816,2.086,3.028,3.877,3.028c0.322,0,0.649-0.039,0.976-0.121l40.071-7.628c0.3-0.052,0.583-0.148,0.856-0.262
		l-22.173,34.292c-4.121,6.359-4.419,14.132-0.799,20.791c3.62,6.658,10.305,10.634,17.884,10.634h12.11
		c-0.139,4.38-1.396,6.308-4.448,10.994l-0.149,0.229c-1.796,2.767-2.745,5.964-2.745,9.247c0,5.285,2.388,10.135,6.404,13.318
		c-2.011,5.652-4.681,16.665,3.076,20.783c0.078,0.041,0.158,0.08,0.238,0.116l2.961,1.329c4.438,1.995,7.183,6.591,6.83,11.453
		c-0.048,0.707-0.073,1.427-0.073,2.14c0,3.947,0.779,7.774,2.264,11.311C143.091,382.159,128.642,385.606,114.212,385.925z
		 M105.918,226.318v-10.061l14.831,7.49L105.918,226.318z M201.804,423.664l-10.13-30.03c20.202-1.472,39.475-8.357,56.313-20.151
		l13.924,41.254C242.897,422.445,222.247,425.518,201.804,423.664z M273.468,423.886l-0.026-0.005l-19.626-58.146
		c-0.414-1.226-1.395-2.176-2.633-2.55c-1.238-0.372-2.581-0.126-3.604,0.665c-18.037,13.946-39.402,21.579-61.808,22.074
		c-0.721,0.02-1.432,0.03-2.133,0.04c-0.071,0.001-0.142,0.001-0.213,0.001c-5.692,0-11.043-2.198-15.088-6.204
		c-4.084-4.045-6.333-9.419-6.333-15.132c0-0.523,0.018-1.063,0.053-1.578c0.593-8.183-4.04-15.943-11.533-19.313l-2.799-1.256
		c-1.533-0.971-0.957-5.847,0.591-10.453l16.296,4.683c0.37,0.105,0.741,0.156,1.107,0.156c1.738,0,3.338-1.143,3.842-2.896
		c0.61-2.123-0.616-4.339-2.739-4.949l-19.537-5.615c-2.913-1.576-4.718-4.579-4.718-7.92c0-1.733,0.503-3.425,1.452-4.887
		l0.145-0.223c3.467-5.322,5.758-8.839,5.758-16.227v-3.134c0-2.209-1.791-4-4-4h-16.123c-4.6,0-8.658-2.413-10.855-6.455
		c-2.198-4.042-2.017-8.76,0.486-12.623l26.406-40.837c1.385-2.13,2.28-4.433,2.977-6.415c4.161-11.943-2.866-22.023-6.243-26.867
		c-0.527-0.756-1.184-1.698-1.332-2.01c-2.07-4.479-3.096-11.117-3.05-19.728c0.086-14.152,2.99-28.043,8.634-41.331
		c19.672,0.51,39.274-3.875,56.871-12.757l11.67-5.898c13.471-6.805,30.109-1.456,37.087,11.92
		c8.906,17.104,13.613,36.325,13.613,55.586c0,7.569-0.725,15.186-2.155,22.64c-0.014,0.072-0.026,0.144-0.036,0.217l-2.311,17.063
		c-0.268,1.981,0.967,3.856,2.894,4.391c1.923,0.534,3.952-0.434,4.743-2.27c3.387-7.855,11.637-12.313,20.06-10.843
		c8.846,1.534,15.266,9.147,15.266,18.102c0,0.987-0.086,2.028-0.252,3.067l-2.627,15.765c-0.562,3.375-2.041,6.508-4.286,9.07
		c-2.232,2.568-5.135,4.461-8.41,5.479c-1.683,0.531-3.292,1.263-4.783,2.172c-1.1,0.672-1.809,1.831-1.905,3.116
		c-0.096,1.284,0.432,2.537,1.419,3.364l16.694,13.993c11.732,9.826,26.459,15.628,41.704,16.496l40.784,78.194
		C358.208,414.433,315.535,431.778,273.468,423.886z M386.412,268.302c-1.032,1.488-4.017,4.817-8.195,9.141
		c-7.328,7.618-16.453,12.855-26.388,15.145c-2.75,0.634-5.008,0.939-6.897,0.951c-0.108-0.004-0.216-0.007-0.265-0.007
		c-0.007,0-0.012,0-0.017,0c-14.282-0.325-28.182-5.559-39.138-14.735l-11.682-9.792c3.668-1.558,6.938-3.928,9.557-6.94
		c3.216-3.671,5.342-8.172,6.149-13.016l2.632-15.792c0.236-1.481,0.356-2.947,0.356-4.354c0-12.855-9.209-23.783-21.894-25.983
		c-6.942-1.213-13.8,0.383-19.301,4.096l0.457-3.373c1.511-7.914,2.277-16.001,2.277-24.038c0-20.542-5.02-41.041-14.519-59.283
		c-8.992-17.24-30.43-24.131-47.79-15.364l-11.668,5.897c-15.361,7.753-32.359,11.84-49.518,11.947
		c1.679-3.226,3.516-6.372,5.492-9.404c14.974-23.035,36.302-40.954,61.679-51.822c69.706-29.85,151.219,2.341,181.708,71.762
		C418.993,177.855,414.12,228.31,386.412,268.302z"/>
	<path d="M206.712,222.054l-4.292-2.167l-25.83-13.045l-2.357-5.583c-0.859-2.035-3.204-2.989-5.241-2.129
		c-2.035,0.859-2.989,3.206-2.129,5.241l2.615,6.194v17.39l-5.903,1.481c-2.143,0.538-3.444,2.71-2.907,4.853
		c0.456,1.816,2.086,3.028,3.877,3.028c0.322,0,0.649-0.039,0.976-0.121l40.07-7.628c1.699-0.295,3.018-1.646,3.272-3.351
		C209.118,224.508,208.251,222.832,206.712,222.054z M192.316,223.746l-14.838,2.572v-10.065l2.099,1.06L192.316,223.746z"/>
	<path d="M90.827,182.136c6.951,2.28,20.204,6.988,30.866,12.907c0.615,0.341,1.281,0.503,1.938,0.503
		c1.406,0,2.77-0.743,3.501-2.059c1.072-1.932,0.375-4.367-1.556-5.439c-11.242-6.24-25.034-11.145-32.255-13.513
		c-2.101-0.689-4.359,0.455-5.047,2.554C87.584,179.188,88.728,181.447,90.827,182.136z"/>
	<path d="M161.953,182.136c6.951,2.28,20.204,6.989,30.865,12.907c0.615,0.341,1.281,0.503,1.938,0.503
		c1.406,0,2.77-0.743,3.501-2.059c1.072-1.932,0.375-4.367-1.556-5.439c-11.241-6.239-25.033-11.145-32.255-13.513
		c-2.102-0.689-4.359,0.455-5.047,2.554S159.854,181.447,161.953,182.136z"/>
</g>
<g>
</g>
<g>
</g>
<g>
</g>
<g>
</g>
<g>
</g>
<g>
</g>
<g>
</g>
<g>
</g>
<g>
</g>
<g>
</g>
<g>
</g>
<g>
</g>
<g>
</g>
<g>
</g>
<g>
</g>
</svg>
