<?xml version="1.0" encoding="iso-8859-1"?>
<!-- Generator: Adobe Illustrator 18.0.0, SVG Export Plug-In . SVG Version: 6.00 Build 0)  -->
<!DOCTYPE svg PUBLIC "-//W3C//DTD SVG 1.1//EN" "http://www.w3.org/Graphics/SVG/1.1/DTD/svg11.dtd">
<svg version="1.1" id="Capa_1" xmlns="http://www.w3.org/2000/svg" xmlns:xlink="http://www.w3.org/1999/xlink" x="0px" y="0px"
	 viewBox="0 0 479.09 479.09" style="enable-background:new 0 0 479.09 479.09;" xml:space="preserve">
<g>
	<path d="M408.929,70.161C363.685,24.917,303.529,0,239.545,0S115.405,24.917,70.161,70.161S0,175.56,0,239.545
		s24.917,124.139,70.161,169.383s105.399,70.161,169.384,70.161s124.14-24.917,169.384-70.161S479.09,303.53,479.09,239.545
		S454.173,115.406,408.929,70.161z M403.271,403.272c-43.732,43.732-101.879,67.817-163.727,67.817s-119.994-24.085-163.727-67.817
		C32.085,359.539,8,301.393,8,239.545c0-61.848,24.085-119.994,67.818-163.727C119.551,32.085,177.697,8,239.545,8
		s119.994,24.085,163.727,67.818c43.733,43.733,67.818,101.879,67.818,163.727C471.09,301.393,447.005,359.539,403.271,403.272z"/>
	<path d="M412.957,233.469c-6.684-32.65-17.324-58.5-22.903-70.69c2.367,1.031,4.965,2.677,7.217,5.305
		c1.084,1.266,2.841,1.729,4.407,1.155c1.566-0.571,2.614-2.054,2.63-3.721c0.324-35.063-15.137-56.667-28.165-68.615
		c-7.05-6.465-14.099-10.847-19.462-13.637c3.401-0.754,7.854-1.296,13.373-1.094c1.716,0.076,3.267-0.964,3.881-2.559
		s0.148-3.402-1.159-4.501c-14.03-11.785-31.511-17.183-50.546-15.6c-9.142,0.758-18.503,3.149-26.794,6.726
		c7.783-10.275,20.199-19.2,34.007-29.124l0.346-0.248c1.459-1.049,2.04-2.943,1.419-4.63c-0.622-1.687-2.291-2.756-4.083-2.604
		c-57.503,4.748-81.413,32.314-87.579,40.995c-6.167-8.68-30.077-36.247-87.579-40.995c-1.772-0.152-3.462,0.917-4.083,2.604
		c-0.621,1.687-0.04,3.581,1.419,4.63l0.346,0.248c13.808,9.924,26.224,18.848,34.007,29.124
		c-8.292-3.578-17.652-5.968-26.795-6.726c-19.038-1.578-36.516,3.815-50.546,15.6c-1.308,1.099-1.773,2.907-1.159,4.501
		c0.615,1.595,2.192,2.637,3.881,2.559c5.525-0.205,9.976,0.34,13.374,1.094c-5.362,2.79-12.412,7.172-19.462,13.637
		c-13.028,11.949-28.49,33.552-28.166,68.615c0.016,1.667,1.063,3.149,2.63,3.721c1.564,0.572,3.321,0.112,4.407-1.155
		c2.253-2.628,4.852-4.274,7.218-5.305c-5.58,12.189-16.221,38.04-22.904,70.69c-12.225,59.718-4.858,113.354,21.302,155.109
		c0.841,1.341,2.392,2.057,3.961,1.835c1.567-0.227,2.854-1.355,3.28-2.881c2.128-7.599,6.469-14.983,10.005-20.16
		c3.504,18.116,13.521,57.863,36.532,77.519c1.214,1.036,2.928,1.252,4.362,0.548c1.434-0.705,2.311-2.194,2.23-3.79
		c-1.053-21.04,2.648-35.226,6.034-42.599c10.186,12.943,40.715,47.873,84.363,63.426c0.435,0.155,0.889,0.232,1.343,0.232
		s0.908-0.077,1.343-0.232c43.641-15.551,74.17-50.475,84.36-63.422c3.394,7.391,7.088,21.571,6.037,42.596
		c-0.08,1.595,0.797,3.084,2.23,3.789c1.435,0.704,3.148,0.488,4.362-0.548c23.015-19.658,33.031-59.413,36.533-77.525
		c3.533,5.169,7.868,12.546,10.003,20.167c0.427,1.525,1.713,2.654,3.28,2.881c1.568,0.222,3.12-0.494,3.961-1.835
		C417.815,346.823,425.181,293.187,412.957,233.469z M389.116,377.148c-5.389-12.131-13.666-21.731-14.089-22.219
		c-1.034-1.188-2.67-1.658-4.172-1.205c-1.507,0.454-2.607,1.749-2.813,3.31c-0.069,0.529-6.624,48.661-28.59,74.881
		c-0.5-29.841-10.264-42.033-10.723-42.589c-0.795-0.963-1.99-1.495-3.243-1.449c-1.248,0.05-2.401,0.68-3.118,1.703
		c-0.326,0.467-32.982,46.505-82.824,64.874c-49.762-18.345-82.498-64.408-82.825-64.875c-0.717-1.022-1.871-1.652-3.118-1.701
		c-0.053-0.002-0.105-0.003-0.158-0.003c-1.19,0-2.322,0.529-3.084,1.451c-0.458,0.556-10.224,12.745-10.723,42.586
		c-21.938-26.204-28.52-74.349-28.59-74.879c-0.206-1.56-1.307-2.854-2.813-3.309c-1.508-0.452-3.139,0.018-4.172,1.205
		c-0.423,0.487-8.701,10.088-14.09,22.219c-27.059-48.73-23.85-103.604-16.047-141.862c8.94-43.833,25.689-76.054,25.857-76.375
		c0.651-1.24,0.606-2.73-0.118-3.929s-2.022-1.931-3.423-1.931c-0.358,0-6.613,0.059-13.202,3.811
		c1.554-21.789,9.965-39.868,25.066-53.835c12.824-11.86,25.955-16.184,26.08-16.224c1.452-0.463,2.516-1.711,2.741-3.219
		s-0.426-3.013-1.68-3.881c-0.268-0.185-5.069-3.432-14.503-4.883c25.767-14.365,56.106-5.476,70.737,4.82
		c1.425,1.003,3.335,0.968,4.724-0.087c1.387-1.055,1.932-2.887,1.345-4.529c-5.033-14.096-16.654-24.69-30.995-35.477
		c50.572,8.842,67.528,37.288,67.702,37.59c0.711,1.253,2.04,2.028,3.48,2.028h3.612c1.431,0,2.759-0.776,3.474-2.016
		c0.181-0.314,17.137-28.761,67.71-37.603c-14.341,10.787-25.962,21.381-30.996,35.477c-0.587,1.641-0.042,3.474,1.345,4.529
		c1.389,1.056,3.299,1.091,4.724,0.087c14.631-10.295,44.972-19.186,70.737-4.82c-9.432,1.452-14.234,4.698-14.503,4.883
		c-1.253,0.868-1.904,2.373-1.679,3.88s1.289,2.756,2.741,3.219c0.495,0.158,47.118,15.665,51.134,70.053
		c-6.583-3.746-12.833-3.805-13.19-3.805c-1.4,0-2.698,0.733-3.423,1.931s-0.77,2.689-0.118,3.929
		c0.168,0.32,16.917,32.542,25.857,76.375C412.966,273.545,416.175,328.417,389.116,377.148z"/>
	<path d="M200.81,203.694c-3.737-2.581-8.249-3.627-12.663-2.952c-1.187,0.169-2.367,0.469-3.494,0.885
		c-6.56,2.395-10.93,4.853-13.358,7.514c-0.83,0.91-1.194,2.151-0.988,3.366s0.96,2.266,2.044,2.851
		c2.851,1.538,6.91,2.765,11.209,4.065c6.655,2.012,16.713,5.053,17.477,8.86c0.379,1.888,2.037,3.213,3.918,3.213
		c0.161,0,0.324-0.01,0.488-0.03c2.075-0.253,3.605-2.062,3.512-4.15l-0.438-9.734C208.268,211.933,205.452,206.867,200.81,203.694z
		 M185.874,211.766c-0.963-0.291-1.913-0.578-2.83-0.863c1.21-0.549,2.65-1.14,4.365-1.766c0.611-0.226,1.24-0.386,1.908-0.481
		c2.425-0.373,4.894,0.203,6.962,1.631c2.349,1.605,3.844,4.082,4.182,6.883C196.174,214.88,190.858,213.273,185.874,211.766z"/>
	<path d="M294.456,201.632c-1.138-0.419-2.321-0.719-3.478-0.884c-4.454-0.681-8.966,0.364-12.686,2.935
		c-4.659,3.184-7.474,8.25-7.724,13.9l-0.427,9.738c-0.092,2.088,1.44,3.896,3.516,4.146c0.163,0.02,0.324,0.029,0.484,0.029
		c1.883,0,3.542-1.329,3.919-3.218c0.759-3.803,10.817-6.843,17.474-8.855c4.3-1.3,8.361-2.527,11.212-4.065
		c1.084-0.585,1.838-1.637,2.044-2.852c0.206-1.214-0.158-2.456-0.989-3.366C305.379,206.488,301.011,204.03,294.456,201.632z
		 M293.221,211.766c-4.988,1.508-10.309,3.116-14.597,5.408c0.337-2.801,1.834-5.282,4.2-6.898c1.638-1.132,3.542-1.727,5.502-1.727
		c0.491,0,0.986,0.038,1.481,0.113c0.64,0.091,1.272,0.251,1.891,0.479c1.709,0.625,3.145,1.215,4.351,1.762
		C295.133,211.188,294.184,211.475,293.221,211.766z"/>
	<path d="M297.739,157.409c-5.612-8.272-14.56-13.286-24.547-13.757c-9.994-0.476-19.365,3.68-25.731,11.387l-7.916,9.581
		l-7.917-9.581c-6.365-7.707-15.759-11.848-25.729-11.388c-9.987,0.471-18.936,5.485-24.549,13.757L162.4,185.336
		c-11.777,17.366-14.768,39.577-7.999,59.415l26.439,77.608l1.329,9.519c1.194,8.631,6.338,15.845,13.934,19.786v0.167
		c0,20.966,17.061,38.022,38.031,38.022h10.82c20.971,0,38.031-17.057,38.031-38.022v-0.168
		c7.597-3.943,12.738-11.155,13.934-19.781l1.329-9.523l26.438-77.605c6.769-19.84,3.778-42.052-8-59.417L297.739,157.409z
		 M244.955,381.853h-10.82c-15.701,0-28.618-12.11-29.916-27.476c6.031,0.981,12.233-0.167,17.647-3.376l17.679-10.471
		l17.677,10.471c4.168,2.47,8.801,3.722,13.462,3.722c1.397,0,2.797-0.12,4.187-0.346
		C273.573,369.743,260.656,381.853,244.955,381.853z M239.545,320.502c-3.262-6.391-9.041-13.766-19.108-21.313
		c-0.875-0.656-1.242-1.792-0.914-2.83c0.296-0.938,0.982-1.376,1.365-1.554c0.233-0.108,0.615-0.241,1.084-0.241
		c0.298,0,0.632,0.054,0.984,0.201l1.805,0.751c9.395,3.915,20.171,3.914,29.567,0l1.807-0.752c0.908-0.379,1.685-0.136,2.067,0.041
		c0.383,0.179,1.069,0.617,1.365,1.554c0.327,1.037-0.04,2.175-0.914,2.83C248.586,306.736,242.807,314.111,239.545,320.502z
		 M288.996,330.78c-0.924,6.665-5.217,12.128-11.493,14.617c-5.334,2.129-11.239,1.662-16.203-1.279l-17.631-10.444
		c1.349-12.916,14.118-23.837,19.785-28.084c3.587-2.69,5.092-7.368,3.743-11.639c-0.891-2.821-2.94-5.153-5.622-6.4
		c-2.684-1.245-5.787-1.308-8.517-0.171l-1.806,0.752c-7.441,3.1-15.974,3.101-23.415-0.001l-1.805-0.751
		c-2.73-1.138-5.835-1.075-8.517,0.171c-2.682,1.247-4.731,3.579-5.622,6.398c-1.35,4.272,0.154,8.95,3.744,11.641
		c5.666,4.248,18.435,15.169,19.784,28.085l-17.632,10.443c-4.965,2.942-10.868,3.407-16.211,1.276
		c-6.269-2.486-10.562-7.949-11.484-14.618l-1.344-9.623c0.016-19.475,1.669-37.11,4.916-52.423
		c2.228-10.505,8.063-20.009,16.429-26.764c8.358-6.749,18.888-10.465,29.648-10.465c22.68,0,42.168,16.191,46.339,38.497
		c2.812,15.051,4.244,32.261,4.258,51.155L288.996,330.78z M317.115,242.171l-19.464,57.135
		c-0.701-10.991-1.934-21.294-3.706-30.778c-4.878-26.09-27.673-45.027-54.202-45.027c-12.584,0-24.897,4.347-34.674,12.241
		c-9.792,7.905-16.621,19.031-19.229,31.328c-2.102,9.914-3.557,20.744-4.358,32.363l-19.508-57.264
		c-5.963-17.476-3.328-37.043,7.047-52.341l18.948-27.926c4.187-6.168,10.858-9.907,18.306-10.258
		c7.467-0.34,14.439,2.745,19.187,8.492l11.001,13.313c0.76,0.92,1.891,1.452,3.083,1.452c1.193,0,2.323-0.533,3.084-1.452
		l11-13.313c4.747-5.748,11.729-8.836,19.188-8.491c7.446,0.351,14.118,4.09,18.304,10.258l18.947,27.925
		C320.443,205.125,323.078,224.692,317.115,242.171z"/>
</g>
<g>
</g>
<g>
</g>
<g>
</g>
<g>
</g>
<g>
</g>
<g>
</g>
<g>
</g>
<g>
</g>
<g>
</g>
<g>
</g>
<g>
</g>
<g>
</g>
<g>
</g>
<g>
</g>
<g>
</g>
</svg>
