<?xml version="1.0" encoding="iso-8859-1"?>
<!-- Generator: Adobe Illustrator 18.0.0, SVG Export Plug-In . SVG Version: 6.00 Build 0)  -->
<!DOCTYPE svg PUBLIC "-//W3C//DTD SVG 1.1//EN" "http://www.w3.org/Graphics/SVG/1.1/DTD/svg11.dtd">
<svg version="1.1" id="Capa_1" xmlns="http://www.w3.org/2000/svg" xmlns:xlink="http://www.w3.org/1999/xlink" x="0px" y="0px"
	 viewBox="0 0 479.089 479.089" style="enable-background:new 0 0 479.089 479.089;" xml:space="preserve">
<g>
	<path d="M408.928,70.161C363.684,24.917,303.529,0,239.544,0C175.56,0,115.405,24.917,70.161,70.161
		C24.917,115.406,0,175.561,0,239.545s24.917,124.139,70.161,169.383s105.399,70.161,169.383,70.161
		c63.985,0,124.14-24.917,169.384-70.161s70.161-105.398,70.161-169.383S454.172,115.406,408.928,70.161z M403.271,403.272
		c-43.733,43.732-101.879,67.817-163.727,67.817s-119.994-24.085-163.727-67.817C32.085,359.538,8,301.393,8,239.545
		S32.085,119.551,75.818,75.819C119.551,32.085,177.697,8,239.544,8s119.994,24.085,163.727,67.818
		c43.733,43.732,67.818,101.879,67.818,163.727S447.004,359.538,403.271,403.272z"/>
	<path d="M439.86,308.143h-1.279l-49.931-127.989c5.078-1.919,9.222-4.225,12.411-6.353c7.975-5.32,11.924-10.72,12.088-10.947
		c1.073-1.484,1-3.508-0.176-4.912c-1.176-1.405-3.157-1.829-4.805-1.032c-21.957,10.602-48.392,8.935-68.986-4.356
		c-25.267-16.303-53.834-26.251-83.593-29.217v-21.528c11.357-6.844,18.97-19.295,18.97-33.492c0-21.547-17.53-39.077-39.077-39.077
		s-39.078,17.53-39.078,39.077c0,13.471,6.853,25.372,17.255,32.401v22.618c-29.753,2.966-58.325,12.917-83.591,29.218
		c-20.595,13.291-47.029,14.959-68.985,4.356c-1.651-0.797-3.629-0.371-4.806,1.032c-1.176,1.404-1.249,3.428-0.176,4.912
		c0.164,0.228,4.114,5.627,12.088,10.947c4.868,3.248,11.971,6.904,21.221,8.972L40.505,308.143h-1.275c-2.209,0-4,1.791-4,4
		c0,35.767,29.098,64.864,64.865,64.864c35.766,0,64.864-29.098,64.864-64.864c0-2.209-1.791-4-4-4h-1.278l-48.366-123.992
		c9.61-0.812,19.722-3.362,30.152-7.61c22.981-9.36,48.207-15.099,72.191-16.534v225.047h-9.331
		c-11.928,0-21.674,9.497-22.088,21.326h-12.267c-8.164,0-14.805,6.642-14.805,14.806v10.521c0,2.209,1.791,4,4,4h150.914
		c2.209,0,4-1.791,4-4v-10.521c0-8.164-6.642-14.806-14.805-14.806h-12.266c-0.414-11.829-10.16-21.326-22.088-21.326h-9.333
		V160.006c23.984,1.435,49.211,7.173,72.193,16.534c12.861,5.239,25.239,7.896,36.79,7.896c1.059,0,2.099-0.023,3.12-0.066
		l-48.276,123.773h-1.284c-2.209,0-4,1.791-4,4c0,35.767,29.098,64.864,64.864,64.864c35.767,0,64.865-29.098,64.865-64.864
		C443.86,309.934,442.069,308.143,439.86,308.143z M204.403,68.316c0-17.136,13.941-31.077,31.078-31.077
		s31.077,13.941,31.077,31.077s-13.941,31.077-31.077,31.077S204.403,85.451,204.403,68.316z M221.658,104.86
		c4.3,1.632,8.957,2.533,13.823,2.533c4.226,0,8.293-0.683,12.107-1.929v17.25c-4.303-0.246-8.626-0.353-12.964-0.307
		c-4.339-0.047-8.662,0.06-12.966,0.306V104.86z M247.588,130.727v20.964c-1.169-0.022-2.34-0.05-3.501-0.051
		c-3.154-0.003-6.309-0.004-9.463-0.004s-6.309,0.001-9.463,0.004c-1.161,0.001-2.333,0.029-3.503,0.051v-20.97
		c4.289-0.255,8.599-0.363,12.925-0.314c0.027,0,0.056,0,0.083,0C238.991,130.361,243.3,130.47,247.588,130.727z M100.094,369.007
		c-30.01,0-54.665-23.369-56.726-52.864h113.451C154.759,345.638,130.104,369.007,100.094,369.007z M49.092,308.143l48.399-124.075
		c1.719,0.172,3.497,0.283,5.333,0.329l48.27,123.746H49.092z M138.449,169.132c-22.449,9.144-42.991,9.618-59.362,1.707
		c18.954,3.022,38.821-0.919,55.316-11.563c23.97-15.465,51.038-24.963,79.254-27.898v20.613
		C188.667,153.432,162.371,159.388,138.449,169.132z M306.081,421.185v6.521H163.167v-6.521c0-3.753,3.053-6.806,6.805-6.806
		h129.303C303.028,414.379,306.081,417.432,306.081,421.185z M279.007,406.379h-88.767c0.407-7.417,6.569-13.326,14.086-13.326
		h60.594C272.438,393.053,278.601,398.962,279.007,406.379z M247.588,385.053h-25.93V159.691c1.172-0.023,2.347-0.05,3.511-0.051
		c6.305-0.006,12.608-0.006,18.911,0c1.163,0.001,2.337,0.028,3.509,0.051V385.053z M330.799,169.132
		c-23.923-9.744-50.219-15.7-75.211-17.142v-20.605c28.224,2.939,55.284,12.423,79.255,27.891
		c16.497,10.645,36.361,14.589,55.317,11.563C373.79,178.749,353.247,178.276,330.799,169.132z M376.652,183.411
		c1.496-0.259,2.935-0.565,4.329-0.903l49.013,125.635H328.002L376.652,183.411z M378.995,369.007
		c-30.01,0-54.665-23.369-56.725-52.864h113.451C433.66,345.638,409.005,369.007,378.995,369.007z"/>
</g>
<g>
</g>
<g>
</g>
<g>
</g>
<g>
</g>
<g>
</g>
<g>
</g>
<g>
</g>
<g>
</g>
<g>
</g>
<g>
</g>
<g>
</g>
<g>
</g>
<g>
</g>
<g>
</g>
<g>
</g>
</svg>
