<?xml version="1.0" encoding="iso-8859-1"?>
<!-- Generator: Adobe Illustrator 18.0.0, SVG Export Plug-In . SVG Version: 6.00 Build 0)  -->
<!DOCTYPE svg PUBLIC "-//W3C//DTD SVG 1.1//EN" "http://www.w3.org/Graphics/SVG/1.1/DTD/svg11.dtd">
<svg version="1.1" id="Capa_1" xmlns="http://www.w3.org/2000/svg" xmlns:xlink="http://www.w3.org/1999/xlink" x="0px" y="0px"
	 viewBox="0 0 479.09 479.09" style="enable-background:new 0 0 479.09 479.09;" xml:space="preserve">
<g>
	<path d="M408.929,70.161C363.685,24.917,303.529,0,239.545,0S115.405,24.917,70.161,70.161S0,175.56,0,239.545
		s24.917,124.14,70.161,169.384s105.399,70.161,169.384,70.161s124.14-24.917,169.384-70.161S479.09,303.53,479.09,239.545
		S454.173,115.405,408.929,70.161z M403.271,403.272c-43.732,43.733-101.879,67.818-163.727,67.818s-119.994-24.085-163.727-67.818
		C32.085,359.539,8,301.393,8,239.545S32.085,119.551,75.818,75.818C119.551,32.085,177.697,8,239.545,8
		s119.994,24.085,163.727,67.818c43.733,43.733,67.818,101.879,67.818,163.727S447.005,359.539,403.271,403.272z"/>
	<path d="M149.781,175.293c-13.202,13.201-21.402,41.26-21.402,73.226s8.2,60.024,21.402,73.226c0.78,0.781,1.804,1.171,2.828,1.171
		c1.023,0,2.047-0.391,2.828-1.172c13.201-13.201,21.402-41.26,21.402-73.226c0-31.965-8.201-60.024-21.402-73.225
		C153.875,173.731,151.342,173.731,149.781,175.293z M152.609,312.88c-10.088-12.866-16.23-36.918-16.23-64.362
		c0-27.443,6.143-51.495,16.23-64.361c10.088,12.866,16.23,36.918,16.23,64.362C168.84,275.962,162.697,300.014,152.609,312.88z"/>
	<path d="M323.652,157.346c-13.201,13.201-21.402,41.26-21.402,73.225c0,31.966,8.201,60.024,21.402,73.226
		c0.78,0.781,1.805,1.171,2.828,1.171s2.048-0.391,2.828-1.171c13.201-13.201,21.402-41.26,21.402-73.226
		c0-31.965-8.201-60.024-21.402-73.225C327.748,155.785,325.213,155.785,323.652,157.346z M326.48,294.933
		c-10.088-12.866-16.23-36.917-16.23-64.361c0-27.443,6.143-51.495,16.23-64.361c10.088,12.866,16.23,36.917,16.23,64.361
		C342.711,258.015,336.568,282.067,326.48,294.933z"/>
	<path d="M405.769,199.831c-2.238-16.411-6.191-29.731-7.521-33.932c-1.347-12.556-3.86-25.1-7.456-37.32
		c1.013-3.957,0.932-8.085-0.267-12.017c-1.934-6.376-4.295-12.629-6.997-18.625c0.468-3.476-0.172-7.315-2.08-10.865
		c-1.903-3.539-4.74-6.186-7.886-7.716c-7.524-12.034-17.037-23.936-30.696-38.407c-0.041-0.046-0.083-0.09-0.126-0.135
		c-0.02-0.021-0.039-0.042-0.059-0.063c-4.251-4.486-9.999-6.958-16.186-6.962c-0.005,0-0.01,0-0.015,0
		c-6.179,0-11.923,2.464-16.16,6.925c-0.254,0.265-0.506,0.529-0.695,0.737c-13.39,14.217-22.748,25.953-30.201,37.87
		c-3.263,1.58-6.06,4.301-7.914,7.751c-1.912,3.557-2.55,7.402-2.077,10.883c-2.711,6.003-5.016,12.102-7.004,18.617
		c-1.196,3.942-1.274,8.062-0.265,11.999c-3.593,12.233-6.107,24.793-7.464,37.361c-1.336,4.224-5.275,17.51-7.508,33.918
		c-3.038,22.312-1.722,40.927,3.91,55.329c0.604,1.543,2.089,2.543,3.724,2.543c0.109,0,0.22-0.004,0.331-0.014
		c1.762-0.145,3.219-1.43,3.584-3.159c0.391-1.85,1.469-4.15,3.1-6.725c9.006,31.364,24.877,60.519,47.29,86.848
		c-29.918,9.325-51.013,37.469-51.013,69.289c0,2.209,1.791,4,4,4c15.127,0,29.631-4.612,41.944-13.338
		c9.49-6.734,17.123-15.493,22.421-25.651c12.392,23.646,37.213,38.989,64.354,38.989c2.209,0,4-1.791,4-4
		c0-17.819-6.525-34.955-18.373-48.25c-8.879-9.97-20.068-17.156-32.636-21.043c22.413-26.331,38.284-55.491,47.289-86.862
		c1.633,2.576,2.713,4.881,3.108,6.743c0.365,1.729,1.823,3.014,3.584,3.159c0.111,0.009,0.222,0.014,0.331,0.014
		c1.634,0,3.119-1,3.723-2.542C407.499,240.776,408.813,222.153,405.769,199.831z M373.295,100.792
		c-1.591,0.855-3.341,0.328-4.242-0.062c-1.852-0.801-3.548-2.438-4.652-4.494v0c-2.11-3.927-1.604-8.475,1.106-9.932
		c2.711-1.456,6.784,0.629,8.895,4.556C376.512,94.787,376.005,99.335,373.295,100.792z M315.492,46.891
		c0.188-0.207,0.396-0.422,0.616-0.652c2.726-2.869,6.408-4.449,10.373-4.449c0.003,0,0.007,0,0.01,0
		c3.945,0.002,7.611,1.568,10.332,4.411c0.043,0.048,0.088,0.095,0.133,0.142c0.015,0.016,0.029,0.031,0.044,0.047
		c11.364,12.036,19.751,22.199,26.471,32.125c-0.596,0.203-1.184,0.438-1.751,0.744c-6.643,3.571-8.602,12.886-4.366,20.766v0
		c1.971,3.666,4.999,6.525,8.526,8.049c1.808,0.782,3.681,1.171,5.508,1.171c2.005,0,3.954-0.47,5.694-1.405
		c0.547-0.294,1.049-0.64,1.532-1.007c1.58,3.942,3.017,7.969,4.258,12.059c0.851,2.789,0.835,5.729-0.049,8.508
		c-1.268,4.013-4.213,7.193-8.082,8.727c-15.354,6.097-31.593,9.188-48.264,9.188c-16.66,0-32.898-3.091-48.266-9.188
		c-3.827-1.518-6.751-4.648-8.04-8.602c-0.014-0.048-0.028-0.096-0.043-0.144c-0.877-2.752-0.893-5.686-0.045-8.479
		c1.273-4.174,2.696-8.159,4.264-12.066c0.481,0.367,0.983,0.712,1.529,1.005c1.741,0.936,3.688,1.405,5.694,1.405
		c1.826,0,3.7-0.39,5.508-1.171c3.527-1.524,6.555-4.383,8.525-8.049v0c1.971-3.667,2.685-7.769,2.011-11.551
		c-0.726-4.067-3.05-7.426-6.377-9.214c-0.561-0.301-1.149-0.536-1.747-0.741C296.119,68.721,304.351,58.721,315.492,46.891z
		 M278.558,90.861c1.104-2.055,2.8-3.693,4.652-4.494c0.546-0.236,1.401-0.521,2.345-0.521c0.615,0,1.269,0.122,1.896,0.459
		c1.589,0.854,2.115,2.604,2.288,3.572c0.354,1.986-0.077,4.304-1.182,6.359s-2.8,3.693-4.652,4.494
		c-0.902,0.39-2.65,0.917-4.241,0.062C276.954,99.335,276.447,94.787,278.558,90.861z M255.667,242.615
		c-2.446-11.159-2.421-23.395-1.334-34.699c0.913,10.025,2.558,20.013,4.886,29.877
		C257.882,239.456,256.696,241.065,255.667,242.615z M370.491,361.035c9.622,10.797,15.298,24.44,16.215,38.795
		c-25.255-1.634-47.626-18.131-56.477-42.083c-0.58-1.571-2.078-2.614-3.752-2.614c-1.675,0-3.172,1.043-3.752,2.614
		c-4.526,12.256-12.58,22.752-23.29,30.352c-9.826,6.963-21.224,10.981-33.184,11.734c1.799-27.8,21.624-51.713,48.743-58.498
		c2.802,3.084,5.702,6.134,8.654,9.086c0.75,0.75,1.768,1.171,2.828,1.171s2.078-0.421,2.828-1.171
		c2.928-2.928,5.832-5.98,8.664-9.089C350.57,344.473,361.776,351.249,370.491,361.035z M333.607,334.236
		c-2.326,2.599-4.715,5.163-7.13,7.655c-2.431-2.508-4.813-5.071-7.114-7.65c-0.055-0.061-0.11-0.12-0.168-0.176
		c-25.686-28.776-43.1-61.146-51.753-96.206c-3.971-16.148-5.984-32.673-5.984-49.115c0-7.158,0.386-14.403,1.147-21.539
		c1.018-9.608,2.74-19.213,5.124-28.662c2.106,2.156,4.655,3.877,7.533,5.018c16.309,6.471,33.54,9.752,51.215,9.752
		c17.686,0,34.918-3.281,51.215-9.752c2.88-1.142,5.43-2.865,7.536-5.021c2.384,9.44,4.101,19.035,5.11,28.631
		c0.01,0.088,0.021,0.176,0.037,0.263c2.483,23.574,0.848,47.263-4.862,70.411C376.843,272.986,359.378,305.417,333.607,334.236z
		 M397.3,242.61c-1.03-1.551-2.217-3.159-3.554-4.82c2.336-9.867,3.972-19.824,4.883-29.828
		C399.713,219.255,399.739,231.472,397.3,242.61z"/>
	<path d="M223.925,221.388c-1.763,0.147-3.22,1.435-3.582,3.167c-0.387,1.849-1.464,4.149-3.097,6.727
		c-9.004-31.373-24.875-60.534-47.289-86.866c29.918-9.323,51.011-37.47,51.011-69.291c0-2.209-1.791-4-4-4
		c-27.144,0-51.969,15.348-64.358,38.999c-12.382-23.651-37.207-38.999-64.361-38.999c-2.209,0-4,1.791-4,4
		c0,17.83,6.525,34.966,18.372,48.25c8.88,9.97,20.069,17.155,32.637,21.042c-22.414,26.331-38.284,55.491-47.289,86.862
		c-1.63-2.572-2.707-4.873-3.095-6.726c-0.363-1.731-1.82-3.018-3.583-3.165c-1.776-0.152-3.412,0.882-4.058,2.529
		c-5.632,14.397-6.947,33.01-3.91,55.32c2.232,16.399,6.172,29.694,7.509,33.919c1.359,12.579,3.872,25.138,7.462,37.362
		c-1.009,3.932-0.928,8.055,0.268,12.012c1.965,6.444,4.326,12.691,7.001,18.611c-0.471,3.479,0.168,7.321,2.079,10.875
		c1.856,3.452,4.654,6.173,7.919,7.754c7.513,12.022,17.011,23.906,30.647,38.344c0.013,0.014,0.025,0.028,0.037,0.042
		c0.052,0.062,0.104,0.121,0.16,0.179c4.253,4.489,10.004,6.963,16.193,6.968c0.006,0,0.011,0,0.016,0
		c6.177,0,11.917-2.462,16.148-6.917l0.697-0.738c13.384-14.2,22.748-25.944,30.223-37.904c3.152-1.529,5.993-4.182,7.897-7.726
		c1.914-3.561,2.552-7.412,2.075-10.897c2.717-6.013,5.021-12.107,7-18.595c1.199-3.921,1.284-8.04,0.278-11.993
		c3.588-12.255,6.098-24.823,7.454-37.387c1.339-4.217,5.277-17.472,7.516-33.935c3.033-22.298,1.715-40.901-3.919-55.293
		C227.338,222.268,225.688,221.24,223.925,221.388z M223.425,236.486c2.461,11.204,2.438,23.492,1.34,34.823
		c-0.91-10.081-2.558-20.109-4.896-29.995C221.207,239.649,222.395,238.038,223.425,236.486z M108.593,118.052
		c-9.621-10.789-15.297-24.431-16.213-38.794c25.265,1.632,47.634,18.129,56.475,42.082c0.58,1.571,2.077,2.614,3.752,2.615
		c0.001,0,0.001,0,0.001,0c1.675,0,3.172-1.043,3.752-2.613c8.852-23.952,31.221-40.449,56.475-42.083
		c-1.801,27.798-21.623,51.71-48.737,58.494c-2.831-3.108-5.734-6.159-8.661-9.087c-0.75-0.75-1.768-1.171-2.828-1.171
		s-2.078,0.421-2.828,1.171c-2.924,2.923-5.827,5.976-8.663,9.089C128.517,134.615,117.31,127.839,108.593,118.052z M81.795,236.491
		c1.028,1.546,2.211,3.151,3.546,4.808c-2.334,9.873-3.969,19.833-4.88,29.834C79.377,259.844,79.355,247.629,81.795,236.491z
		 M105.794,378.298c0.628-0.338,1.281-0.459,1.897-0.459c0.943,0,1.799,0.286,2.345,0.521c1.852,0.8,3.548,2.438,4.652,4.494
		c2.11,3.926,1.604,8.474-1.106,9.931c-1.59,0.854-3.34,0.328-4.241-0.062c-1.852-0.801-3.548-2.438-4.652-4.494
		C102.578,384.303,103.084,379.755,105.794,378.298z M163.652,432.144l-0.675,0.715c-2.723,2.866-6.402,4.444-10.364,4.444
		c-0.003,0-0.007,0-0.01,0c-3.941-0.003-7.604-1.565-10.326-4.401c-0.007-0.008-0.014-0.016-0.021-0.024
		c-0.052-0.062-0.105-0.123-0.161-0.181c-11.368-12.032-19.754-22.194-26.471-32.125c0.598-0.204,1.185-0.439,1.745-0.74
		c6.643-3.571,8.602-12.886,4.366-20.766c-1.971-3.666-4.999-6.525-8.525-8.049c-3.794-1.64-7.877-1.553-11.203,0.235
		c-0.547,0.294-1.05,0.64-1.532,1.008c-1.563-3.893-2.983-7.874-4.258-12.053c-0.85-2.809-0.835-5.748,0.046-8.508
		c1.267-4.011,4.214-7.196,8.082-8.737c15.338-6.09,31.575-9.178,48.263-9.178s32.926,3.088,48.269,9.179
		c3.87,1.532,6.818,4.718,8.088,8.744c0.874,2.771,0.888,5.703,0.038,8.48c-1.271,4.167-2.694,8.152-4.266,12.064
		c-0.48-0.365-0.98-0.708-1.523-1c-3.327-1.789-7.411-1.875-11.203-0.235c-3.526,1.524-6.555,4.383-8.525,8.049
		c-4.235,7.879-2.276,17.194,4.366,20.766c0.567,0.305,1.154,0.539,1.749,0.743C182.96,410.394,174.736,420.385,163.652,432.144z
		 M200.532,388.229c-2.11,3.927-6.185,6.011-8.894,4.556c-2.711-1.458-3.218-6.006-1.107-9.932c1.104-2.056,2.801-3.693,4.652-4.494
		c0.546-0.236,1.401-0.521,2.345-0.521c0.616,0,1.27,0.122,1.897,0.459C202.136,379.755,202.643,384.303,200.532,388.229z
		 M216.48,311.859c-0.003,0.03-0.006,0.06-0.008,0.089c-1.018,9.578-2.734,19.162-5.109,28.6c-2.108-2.159-4.658-3.882-7.539-5.022
		c-16.282-6.464-33.514-9.742-51.217-9.742c-17.702,0-34.934,3.278-51.22,9.744c-2.877,1.146-5.424,2.87-7.528,5.025
		c-2.384-9.447-4.105-19.055-5.124-28.673c-2.517-23.627-0.89-47.394,4.836-70.638c8.671-35.14,26.136-67.571,51.907-96.391
		c2.329-2.602,4.717-5.166,7.129-7.655c2.415,2.492,4.803,5.056,7.129,7.654c25.773,28.822,43.238,61.257,51.908,96.401
		c3.971,16.098,5.983,32.618,5.983,49.102C217.628,297.501,217.242,304.736,216.48,311.859z"/>
</g>
<g>
</g>
<g>
</g>
<g>
</g>
<g>
</g>
<g>
</g>
<g>
</g>
<g>
</g>
<g>
</g>
<g>
</g>
<g>
</g>
<g>
</g>
<g>
</g>
<g>
</g>
<g>
</g>
<g>
</g>
</svg>
