<?xml version="1.0" encoding="iso-8859-1"?>
<!-- Generator: Adobe Illustrator 18.0.0, SVG Export Plug-In . SVG Version: 6.00 Build 0)  -->
<!DOCTYPE svg PUBLIC "-//W3C//DTD SVG 1.1//EN" "http://www.w3.org/Graphics/SVG/1.1/DTD/svg11.dtd">
<svg version="1.1" id="Capa_1" xmlns="http://www.w3.org/2000/svg" xmlns:xlink="http://www.w3.org/1999/xlink" x="0px" y="0px"
	 viewBox="0 0 479.09 479.09" style="enable-background:new 0 0 479.09 479.09;" xml:space="preserve">
<g>
	<path d="M408.929,70.162C363.685,24.917,303.529,0,239.545,0S115.405,24.917,70.161,70.162S0,175.561,0,239.545
		s24.917,124.139,70.161,169.383s105.399,70.161,169.384,70.161s124.14-24.917,169.384-70.161S479.09,303.53,479.09,239.545
		S454.173,115.406,408.929,70.162z M403.271,403.272c-43.732,43.732-101.879,67.817-163.727,67.817s-119.994-24.085-163.727-67.817
		C32.085,359.539,8,301.393,8,239.545S32.085,119.551,75.818,75.819C119.551,32.085,177.697,8,239.545,8
		s119.994,24.085,163.727,67.818c43.733,43.732,67.818,101.879,67.818,163.727S447.005,359.539,403.271,403.272z"/>
	<path d="M422.056,357.747c-28.452-9.922-50.093-34.474-56.478-64.075c-8.855-41.062-28.762-78.823-57.662-109.458l25.411-25.412
		l1.998,15.582c0.229,1.784,1.621,3.197,3.402,3.451c0.19,0.027,0.38,0.04,0.567,0.04c1.572,0,3.022-0.929,3.665-2.401
		l26.095-59.865c0.657-1.508,0.324-3.264-0.839-4.427c-1.162-1.164-2.919-1.494-4.427-0.839l-59.865,26.095
		c-1.649,0.719-2.615,2.451-2.361,4.232s1.667,3.173,3.451,3.402L320.055,146l-25.167,25.167
		c-30.658-28.904-68.423-48.812-109.469-57.663c-29.605-6.375-54.157-28.012-64.075-56.466c-0.604-1.729-2.298-2.835-4.128-2.668
		c-1.824,0.16-3.307,1.539-3.599,3.348c-0.132,0.818-3.031,20.013,9.279,41.835v217.515l-28.618,28.618
		c-1.079,1.078-1.45,2.677-0.957,4.12c0.492,1.443,1.764,2.481,3.276,2.676l26.874,3.446l3.438,26.863
		c0.193,1.514,1.231,2.784,2.675,3.277c0.424,0.145,0.859,0.215,1.292,0.215c1.044,0,2.066-0.409,2.829-1.172l28.909-28.908h216.948
		c14.6,8.222,28.024,9.659,35.548,9.659c3.715,0,5.992-0.346,6.263-0.39c1.809-0.291,3.188-1.772,3.35-3.598
		C424.884,360.051,423.785,358.35,422.056,357.747z M357.652,121.745l-16.235,37.246l-1.994-15.558
		c-0.231-1.806-1.653-3.228-3.459-3.459l-15.558-1.994L357.652,121.745z M331.881,147.516l0.161,1.258L148.036,332.789l-1.729-1.727
		l183.776-183.776L331.881,147.516z M183.735,121.324c39.538,8.527,75.927,27.687,105.494,55.502l-19.586,19.586
		c-24.645-25.115-56.954-46.828-91.472-61.365c-14.569-6.138-26.616-13.904-35.805-23.081c-1.252-1.252-2.473-2.557-3.636-3.885
		c-3.209-3.647-6.026-7.546-8.377-11.592c-3.576-6.135-5.782-12.08-7.125-17.361C136.769,100.392,158.583,115.908,183.735,121.324z
		 M130.897,111.187c0.599,0.729,1.195,1.46,1.821,2.172c1.272,1.453,2.615,2.888,3.992,4.266
		c9.925,9.912,22.829,18.254,38.354,24.796c33.589,14.145,65,35.252,88.92,59.649l-93.913,93.913l-33.066,7.819
		c-0.722,0.171-1.383,0.539-1.907,1.064l-4.202,4.202V111.187z M122.897,328.38v19.408l-17.202-2.206L122.897,328.38z
		 M131.016,351.846c-0.024-0.189-0.069-0.371-0.118-0.551V320.38l9.056-9.056l19.354-4.576l-21.487,21.487
		c-0.751,0.75-1.172,1.769-1.172,2.829c0,1.062,0.423,2.079,1.174,2.829l7.391,7.38c0.78,0.78,1.804,1.17,2.826,1.17
		c1.023,0,2.048-0.391,2.828-1.172l22.141-22.142l-4.931,20.299l-34.265,34.265L131.016,351.846z M174.526,344.292
		c0.52-0.519,0.886-1.171,1.059-1.884l8.295-34.153l93.144-93.149c24.394,23.919,45.5,55.328,59.646,88.91
		c6.554,15.561,14.897,28.466,24.799,38.355c1.345,1.346,2.775,2.688,4.252,3.99c0.041,0.036,0.082,0.071,0.124,0.105
		c0.683,0.597,1.382,1.164,2.079,1.735H170.615L174.526,344.292z M382.61,348.747c-0.001,0-0.001-0.001-0.002-0.001
		c-0.016-0.009-0.031-0.019-0.047-0.027c-3.952-2.303-7.797-5.079-11.428-8.253c-0.084-0.079-0.17-0.154-0.26-0.225
		c-1.302-1.154-2.563-2.34-3.749-3.526c-9.166-9.155-16.932-21.201-23.081-35.803c-14.539-34.512-36.25-66.818-61.363-91.462
		l19.576-19.577c27.81,29.542,46.97,65.928,55.5,105.485c5.425,25.15,20.942,46.962,42.208,60.503
		C394.686,354.52,388.741,352.316,382.61,348.747z"/>
</g>
<g>
</g>
<g>
</g>
<g>
</g>
<g>
</g>
<g>
</g>
<g>
</g>
<g>
</g>
<g>
</g>
<g>
</g>
<g>
</g>
<g>
</g>
<g>
</g>
<g>
</g>
<g>
</g>
<g>
</g>
</svg>
