<?xml version="1.0" standalone="no"?>
<!DOCTYPE svg PUBLIC "-//W3C//DTD SVG 20010904//EN"
 "http://www.w3.org/TR/2001/REC-SVG-20010904/DTD/svg10.dtd">
<svg version="1.0" xmlns="http://www.w3.org/2000/svg"
 width="70.000000pt" height="70.000000pt" viewBox="0 0 70.000000 70.000000"
 preserveAspectRatio="xMidYMid meet">
<metadata>
Created by potrace 1.11, written by Peter Selinger 2001-2013
</metadata>
<g transform="translate(0.000000,70.000000) scale(0.100000,-0.100000)"
fill="#000000" stroke="none">
<path d="M0 355 l0 -326 213 2 c145 1 214 5 219 13 6 8 8 7 8 -2 0 -9 5 -10
19 -3 10 6 21 7 25 4 13 -13 56 -14 57 -1 4 76 3 108 -4 108 -5 0 -5 5 -1 12
10 16 11 348 2 348 -4 0 -5 6 -2 13 3 10 27 13 82 13 74 -1 77 0 80 23 3 16
-3 30 -15 39 -15 13 -15 14 -1 9 14 -5 17 0 15 31 l-2 37 -347 3 -348 3 0
-326z m465 285 c3 -5 1 -10 -4 -10 -6 0 -11 5 -11 10 0 6 2 10 4 10 3 0 8 -4
11 -10z m205 0 c0 -5 -5 -10 -11 -10 -5 0 -7 5 -4 10 3 6 8 10 11 10 2 0 4 -4
4 -10z m-196 -38 c3 -5 -1 -9 -9 -9 -8 0 -12 4 -9 9 3 4 7 8 9 8 2 0 6 -4 9
-8z m36 -2 c0 -5 -5 -10 -11 -10 -5 0 -7 5 -4 10 3 6 8 10 11 10 2 0 4 -4 4
-10z m120 6 c0 -3 -4 -8 -10 -11 -5 -3 -10 -1 -10 4 0 6 5 11 10 11 6 0 10 -2
10 -4z m-125 -46 c3 -5 1 -10 -4 -10 -6 0 -11 5 -11 10 0 6 2 10 4 10 3 0 8
-4 11 -10z m119 2 c3 -5 -1 -9 -9 -9 -8 0 -12 4 -9 9 3 4 7 8 9 8 2 0 6 -4 9
-8z m62 -4 c3 -4 -1 -5 -10 -4 -8 1 -18 5 -22 8 -3 4 1 5 10 4 8 -1 18 -5 22
-8z m-434 -27 c17 -1 43 -15 66 -36 93 -83 77 -246 -30 -301 -23 -12 -80 -20
-113 -15 -8 1 -13 310 -6 353 0 4 13 5 29 3 15 -2 39 -4 54 -4z m198 -456 c0
-2 -9 -3 -19 -2 -11 0 -18 5 -15 9 4 6 34 0 34 -7z"/>
</g>
</svg>
