<?xml version="1.0" encoding="utf-8"?>
<!-- Generator: Adobe Illustrator 16.0.0, SVG Export Plug-In . SVG Version: 6.00 Build 0)  -->
<!DOCTYPE svg PUBLIC "-//W3C//DTD SVG 1.0//EN" "http://www.w3.org/TR/2001/REC-SVG-20010904/DTD/svg10.dtd">
<svg version="1.0" id="Layer_1" xmlns="http://www.w3.org/2000/svg" xmlns:xlink="http://www.w3.org/1999/xlink" x="0px" y="0px"
	 width="384px" height="386px" viewBox="0 0 384 386" enable-background="new 0 0 384 386" xml:space="preserve">
<g>
	<path fill-rule="evenodd" clip-rule="evenodd" fill="#EF8282" d="M213.661,343.533c4.101-1.947,5.51-5.983,7.548-9.578
		c4.667-8.238,4.225-17.24,4.21-26.215c-0.015-9.223,0.156-9.252,9.104-8.521c2.123,0.174,2.951,0.837,2.922,2.967
		c-0.03,2.19-0.074,4.415-1.01,6.363c-5.088,10.592-2.117,21.58-1.711,32.432c0.144,3.804,0.671,7.594,1.021,11.392
		c5.264-3.784,7.621-10.388,6.324-16.356c-3.021-13.901-2.227-27.475,4.631-40.223c3.111-5.785,7.883-8.127,12.533-6.799
		c5.24,1.496,8.029,5.619,8.163,12.295c0.292,14.587-4.834,27.693-11.095,40.5c-0.721,1.475-2.934,3.057-1.066,4.76
		c1.549,1.412,3.803,0.91,5.703,0.11c6.98-2.934,9.18-9.347,10.928-15.797c1.84-6.782,3.865-13.433,7.56-19.454
		c3.366-5.484,7.438-10.285,13.655-12.68c11.027-4.244,19.936,2.832,17.822,14.461c-2.172,11.959-9.387,19.975-20.793,24.108
		c-6.518,2.362-7.678,5.388-4.825,13.412c2.161,6.073,6.605,8.121,12.632,5.661c5.533-2.26,9.018-6.725,11.81-11.735
		c1.776-3.188,3.173-6.589,4.753-9.888c0.55-1.145,0.805-2.721,2.767-1.777c1.44,0.691,2.87,1.467,2.13,3.333
		c-4.525,11.437-8.313,23.467-18.911,31.059c-11.681,8.366-26.036,1.601-28.885-13.309c-0.435-2.277-0.74-4.579-1.214-7.543
		c-5.557,4.665-11.354,7.191-18.365,4.983c-1.627-0.513-2.053,1.412-2.74,2.44c-3.057,4.575-6.225,9.06-10.096,12.996
		c-1.024,1.043-1.957,2.115-3.657,2.369c-5.813,0.866-7.342-0.126-7.794-6.028c-0.645-8.393-1.078-16.8-1.689-26.623
		c-4.425,7.888-9.713,13.117-16.811,16.417c-0.896,0.416-1.4,1.81-1.943,2.827c-5.108,9.568-12.816,15.066-23.881,15.361
		l0.063,0.037c0.067-0.707-0.477-0.771-0.953-0.906c-0.572-0.035-1.144-0.068-1.717-0.103c-7.708-4.556-9.224-12.403-10.615-21.015
		c-3.185,5.294-5.073,10.506-8.66,14.701c-1.416,1.656-2.822,3.275-4.67,4.462c-7.452,4.782-15.114,2.337-18.094-5.979
		c-3.114-8.69-2.562-17.767-1.872-26.71c0.295-3.821-0.539-3.851-3.61-2.882c-13.356,4.213-26.815,7.896-41.058,7.162
		c-22.096-1.14-42.12-7.814-59.179-22.232c-9.275-7.838-15.85-17.377-18.01-29.67c-2.336-13.29,2.524-22.476,15.027-27.384
		c3.084-1.211,6.748-3.533,9.48-2.22c3.539,1.7,0.623,5.805,0.545,8.738c-0.758,28.629,21.632,54.108,50.826,58.105
		c15.193,2.079,29.781-0.215,44.417-3.824c4.07-1.004,3.584-4.025,3.958-6.508c2.009-13.332,4.365-26.587,8.26-39.508
		c3.13-10.384,6.515-20.695,15.147-28.148c2.394-0.119,4.536-1.444,7.209-0.512c6.171,2.156,6.949,7.26,7.641,12.564
		c-1.114,24.265-10.512,45.448-24.424,64.859c-2.365,3.299-3.613,6.642-3.663,10.555c-0.068,5.324-0.245,10.654-0.048,15.97
		c0.11,2.959,0.479,6.335,3.909,7.437c3.784,1.214,5.947-1.729,7.678-4.29c5.242-7.763,9.193-16.164,11.422-25.314
		c0.668-2.743,1.372-5.477,2.043-8.22c0.378-1.545,1.255-2.461,2.864-1.783c3.088,1.299,3.569-0.512,4.171-2.936
		c1.915-7.713,5.319-14.461,13.436-17.327c7.178-2.532,13.82,0.415,17.253,7.789c4.724,10.147,3.897,20.718,1.8,31.313
		c-0.354,1.789-0.672,3.588-1.004,5.384c-0.353,0.385-0.628,0.811-0.037,1.17C213.032,344.094,213.41,343.71,213.661,343.533z
		 M203.428,320.971c0.164-3.193-0.112-6.327-1.278-9.317c-0.753-1.931-1.926-3.604-4.169-3.854c-2.244-0.25-3.777,1.064-4.832,2.883
		c-4.064,7.002-5.367,14.551-4.145,22.516c0.635,4.139,1.704,8.137,5.045,11.084c2.46,2.172,4.012,2.286,5.119-1.416
		C201.316,335.688,203.057,328.47,203.428,320.971z M152.713,314.362c6.407-11.269,11.37-23.003,14.718-35.396
		c1.521-5.628,2.72-11.314,2.956-17.162c0.06-1.483,0.393-3.529-1.206-4.005c-2.173-0.646-2.476,1.787-3.101,3.126
		c-1.262,2.703-2.321,5.519-3.255,8.356C157.989,283.979,154.776,299.051,152.713,314.362z M284.409,332.564
		c7.963-4.293,13.048-10.051,15.544-17.961c0.727-2.305,1.578-5.375-1.098-6.767c-2.631-1.369-4.729,0.978-6.188,2.919
		C287.994,316.971,285.71,324.146,284.409,332.564z M247.243,330.812c4.764-9.489,7.556-19.538,9.036-29.952
		c0.219-1.542,1.199-4.008-1.422-4.572c-2.229-0.479-3.17,1.681-3.889,3.236C246.357,309.512,245.863,320.034,247.243,330.812z
		 M182.178,339.883c-0.993,5.718-0.649,11.05,1.822,16.018c1.438,2.889,3.984,3.615,6.572,1.588
		c1.461-1.145,4.668-3.061,2.184-4.922C188.178,349.137,184.764,345.014,182.178,339.883z"/>
	<path fill-rule="evenodd" clip-rule="evenodd" fill="#F6A78B" d="M287.288,97.315c-0.146,7.494-1.248,14.877-2.526,22.246
		c-0.333,1.92-1.723,4.462,1.966,4.9c1.327,0.157,1.575,1.159,1.165,2.205c-0.508,1.293-0.115,3.402-2.157,3.501
		c-2.325,0.113-4.366,0.823-3.642,3.298c0.512,1.749,2.958,0.815,4.435,0.646c18.782-2.165,35.321,3.049,49.218,15.678
		c7.869,7.149,14.016,15.554,13.799,27.139c-0.236,12.758-6.959,18.322-19.969,15.833c2.604-7.129,4.104-14.404,2.31-21.948
		c-3.798-15.969-18.452-27.889-36.259-29.524c-4.134-0.38-8.279-0.632-12.416-0.988c-2.412-0.209-3.672,0.809-4.15,3.212
		c-1.439,7.211-2.047,14.473-1.662,21.815c0.063,1.197,0.317,2.43,1.562,2.897c1.638,0.618,2.396-0.698,3.149-1.788
		c3.06-4.418,4.827-9.467,6.979-14.33c0.467-1.058,0.33-2.954,2.499-2.111c1.826,0.709,2.074,1.99,1.402,3.611
		c-2.544,6.142-4.591,12.51-8.105,18.211c-0.776,1.259-1.808,2.408-2.897,3.418c-5.241,4.854-10.413,3.492-12.502-3.388
		c-0.752-2.481-0.975-5.122-1.535-8.217c-2.496,3.678-4.015,7.593-6.948,10.523c-2.146,2.144-4.303,4.561-7.681,3.658
		c-3.204-0.855-3.801-3.864-4.411-6.678c-0.167-0.77-0.481-1.508-0.858-2.662c-3.572,5.515-6.891,11.074-14.467,9.647
		c-3.597-0.678-5.458-4.467-6.467-12.458c-1.761,2.573-3.182,4.96-4.905,7.104c-3.628,4.515-8.439,6.264-12.152,4.645
		c-3.846-1.675-6.034-6.964-5.281-12.45c0.839-6.113,2.374-12.037,4.353-17.876c1.223-3.615,2.176-7.328,3.092-11.036
		c0.302-1.219,0.643-2.783-0.88-3.564c-1.607-0.825-2.867,0.082-3.973,1.197c-2.044,2.063-3.167,4.653-4.153,7.319
		c-3.657,9.879-5.654,20.134-6.91,30.554c-0.646,5.362-4.198,7.509-9.271,5.668c-1.185-0.43-1.486-1.176-1.505-2.233
		c-0.021-1.166,0.097-2.344-0.035-3.495c-0.308-2.675,2.646-5.947-0.094-7.756c-1.585-1.046-4.792,0.702-7.211,0.502
		c-3.454-0.285-4.032,2.488-5.377,4.37c-1.959,2.738-4.096,5.302-6.847,7.201c-6.197,4.277-12.129,2.128-14.378-5.083
		c-0.332-1.065-0.139-2.348-1.519-3.21c-1.579,2.39-2.924,4.853-4.671,6.988c-4.423,5.409-10.225,4.531-12.768-1.972
		c-2.324-5.943-1.556-12.25-0.849-18.287c1.04-8.887,3.096-17.65,4.556-26.493c1.033-6.253,5.783-2.971,8.702-3.155
		c3.761-0.236,1.385,3.073,1.183,4.436c-1.585,10.669-3.476,21.294-5.277,31.932c-0.083,0.491-0.339,0.983-0.303,1.459
		c0.152,2.006-1.234,4.91,1.523,5.617c2.249,0.577,3.024-2.167,3.948-3.852c4.916-8.973,5.5-19.06,7.309-28.831
		c0.302-1.632,0.666-3.252,0.933-4.89c0.978-5.985,3.118-7.349,9.04-6.111c2.277,0.477,1.938,1.775,1.67,3.312
		c-1.421,8.176-2.824,16.354-4.233,24.532c-0.769,4.459-0.628,8.958-0.545,13.45c0.024,1.327,0.125,2.823,1.707,3.259
		c1.332,0.367,2.204-0.707,2.847-1.633c2.926-4.22,5.479-8.055,3.871-14.105c-2.798-10.531-1.525-21.125,3.399-31.044
		c1.354-2.728,3.152-5.238,6.483-5.664c3.884-0.497,6.583,2.488,6.896,7.409c0.703,11.039-1.934,21.43-5.942,31.603
		c-0.563,1.43-2.803,3.405-0.733,4.663c1.806,1.098,4.148,0.166,5.909-1.475c4.892-4.557,5.614-10.723,6.701-16.786
		c2.694-15.041,5.101-30.148,9.708-44.771c1.848-5.863,4.036-11.493,11.458-12.126c7.044,0.824,8.339,2.343,7.958,9.464
		c-0.088,1.629-0.318,3.25-0.482,4.875c-4.078,10.822-11.197,20.015-16.683,30.133c2.308-1.143,3.88-2.861,5.758-4.128
		c3.013-2.035,6.493-3.017,9.937-1.479c3.42,1.527,3.426,4.856,3.486,8.153c0.096,5.103-1.355,9.83-2.76,14.625
		c-1.678,5.726-4.003,11.311-4.348,17.358c-0.098,1.733-0.689,4.086,1.538,4.792c2.099,0.665,3.304-1.424,4.249-2.844
		c3.704-5.568,6.357-11.648,8.241-18.077c2.159-7.363,4.432-14.684,10.028-20.37c5.924-6.02,10.45-5.772,15.638,1.119
		c0.147-0.796,0.164-1.434,0.384-1.991c1.51-3.842,4.863-2.283,7.305-1.989c2.83,0.339,0.843,2.649,0.609,3.981
		c-1.09,6.213-2.576,12.36-3.51,18.593c-1.061,7.067-3.398,14.046-2.398,21.716c0.882-0.488,1.391-0.624,1.684-0.953
		c9.164-10.295,10.639-23.26,12.523-36.089c0.238-1.631-0.871-1.562-1.813-1.549c-1.985,0.025-2.624-0.922-2.457-2.799
		c0.171-1.929,0.888-3.2,3.034-3.126c1.689,0.059,2.775-0.379,3.072-2.367c0.637-4.247,2.354-8.331,1.855-12.746l-0.051,0.045
		c0.291-0.283,0.582-0.566,0.874-0.849C279.431,97.294,279.431,97.294,287.288,97.315z M237.429,161.249
		c0,0.994-0.05,1.991,0.011,2.981c0.095,1.514,0.324,3.164,1.895,3.75c1.727,0.644,2.82-0.799,3.611-1.999
		c5.811-8.823,8.372-18.625,8.275-29.113c-0.018-1.917-0.623-4.217-3.067-4.538c-2.167-0.284-3.093,1.641-3.947,3.234
		C239.902,143.58,238.159,152.285,237.429,161.249z M172.786,150.363c3.14-8.028,5.79-16.047,5.705-24.656
		c-0.011-1.063,0.532-2.582-0.941-3.021c-1.465-0.438-1.987,0.938-2.367,1.999C172.183,133.047,170.65,141.563,172.786,150.363z
		 M207.766,111.373c3.221-4.578,5.288-9.584,6.467-14.935c0.215-0.978,0.746-2.558-0.934-2.846c-1.119-0.193-1.6,1-1.926,1.932
		C209.578,100.664,208.188,105.902,207.766,111.373z"/>
	<path fill-rule="evenodd" clip-rule="evenodd" fill="#73C6BD" d="M128.66,91.159c-3.012,1.983-5.26,3.61-7.643,5.008
		c-18.131,10.646-36.885,12.613-56.237,3.605c-6.812-3.171-11.361-8.577-13.54-15.833c-1.812-6.037,3.044-15.339,8.93-17.199
		c3.048-0.964,2.259,1.847,2.62,3.011c4.417,14.283,14.467,22.152,28.775,24.325c13.264,2.016,24.789-3.179,35.515-10.507
		c1.929-1.317,1.564-3.143,1.567-4.917c0.023-12.826-0.151-25.656,0.088-38.479c0.102-5.449-1.907-8.465-7.354-9.339
		c-1.722-0.276-4.303-0.081-3.958-3.252c0.364-3.353,2.932-2.104,4.614-2.118c11.993-0.103,23.989-0.161,35.981-0.03
		c19.774,0.217,36.499,12.608,41.586,30.623c5.562,19.695-1.081,39.153-16.916,49.287c-7.89,5.049-16.64,7.679-25.944,7.89
		c-11.988,0.271-23.986,0.1-35.98,0.051c-1.645-0.007-3.893,0.799-4.081-2.205c-0.18-2.869,1.799-2.565,3.64-2.748
		c7.106-0.707,8.271-1.99,8.333-8.979C128.679,96.908,128.66,94.462,128.66,91.159z M142.329,66.298
		c0,10.479-0.029,20.958,0.015,31.438c0.017,4.041,0.949,7.495,5.418,9.07c10.312,3.634,24.451-0.685,30.829-9.614
		c6.454-9.034,7.356-19.38,6.97-29.997c-0.877-24.083-15.254-37.313-39.042-36.165c-3.106,0.149-4.331,1.004-4.267,4.331
		C142.451,45.668,142.324,55.984,142.329,66.298z"/>
	<path fill-rule="evenodd" clip-rule="evenodd" fill="#73C6BD" d="M220.064,99.327c0.164-1.625,0.395-3.246,0.482-4.875
		c0.381-7.121-0.914-8.64-7.958-9.464c-3.561-14.739-3.187-29.085,5.237-42.235c9.051-14.125,22.309-20.678,38.949-19.237
		c15.844,1.372,27.623,9.624,33.895,24.229c7.242,16.867,6.436,33.64-3.382,49.57c-7.857-0.021-7.857-0.021-11.026,11.169
		c-0.292,0.282-0.584,0.566-0.875,0.849l0.051-0.045c-1.791,0.857-3.572,1.734-5.375,2.567
		C252.586,119.938,231.444,114.637,220.064,99.327z M226.219,70.171c-0.477,7.982,0.66,16.356,4.33,24.189
		c3.974,8.481,10.028,14.445,20.025,15.033c10.735,0.632,19.046-3.513,23.561-13.341c7.992-17.398,7.859-35.168,0.334-52.663
		c-3.955-9.192-11.423-14.104-21.621-14.142c-10.248-0.038-17.223,5.163-21.68,14.122C227.059,51.629,225.893,60.452,226.219,70.171
		z"/>
	<path fill-rule="evenodd" clip-rule="evenodd" fill="#C0CF7E" d="M177.527,259.424c-0.692-5.305-1.47-10.408-7.641-12.564
		c-2.673-0.933-4.815,0.393-7.209,0.512c-10.932-17.574-11.965-35.588-0.476-53.008c15.593-23.641,51.53-21.122,64.607,3.977
		c7.81,14.986,6.671,40.838-7.136,53.385C207.068,263.18,193.033,264.844,177.527,259.424z M217.609,220.263
		c0.135-9.281-0.975-18.331-6.045-26.356c-8.995-14.236-29.236-14.294-37.025,0.559c-8.855,16.887-9.014,34.768-0.002,51.699
		c7.774,14.608,27.685,14.73,36.763,0.861C216.622,238.896,217.782,229.718,217.609,220.263z"/>
	<path fill-rule="evenodd" clip-rule="evenodd" fill="#C1D181" d="M250.486,215.861c0-7.494-0.137-14.992,0.051-22.48
		c0.113-4.55-1.607-7.264-6.168-8.188c-1.809-0.366-4.453-0.339-3.918-3.331c0.491-2.755,2.935-1.608,4.521-1.63
		c8.492-0.115,16.986-0.076,25.479-0.032c1.388,0.007,3.214-0.54,3.622,1.626c0.467,2.474-1.549,2.545-3.097,2.974
		c-7.646,2.114-7.65,2.106-7.651,10.01c-0.002,13.822-0.049,27.646,0.017,41.468c0.05,10.712,5.026,17.307,14.096,18.942
		c11.731,2.115,20.962-2.199,24.964-11.604c0.801-1.883,1.174-3.806,1.174-5.823c0.002-13.322,0.117-26.647-0.049-39.968
		c-0.111-9.066-1.786-10.89-10.586-12.712c-1.717-0.355-3.408-0.59-3.248-2.903c0.182-2.607,2.235-2.001,3.771-2.01
		c8.66-0.046,17.32-0.044,25.98,0c1.387,0.007,3.209-0.542,3.624,1.625c0.473,2.467-1.538,2.553-3.079,3.001
		c-9.047,2.629-9.614,3.188-9.729,12.738c-0.146,12.156-0.037,24.314-0.065,36.472c-0.04,17.085-10.956,28.065-27.998,28.28
		c-4.343,0.053-8.641-0.088-12.859-1.245c-12.541-3.44-18.842-11.69-18.851-24.725C250.482,229.519,250.486,222.69,250.486,215.861z
		"/>
	<path fill-rule="evenodd" clip-rule="evenodd" fill="#BFCF7C" d="M118.287,219.3c5.452-9.157,10.81-17.958,15.951-26.884
		c2.456-4.264,1.309-6.313-3.568-7.283c-1.142-0.227-2.27-0.541-3.419-0.706c-1.454-0.208-1.956-1.025-1.846-2.409
		c0.098-1.223,0.794-1.781,1.938-1.783c7.998-0.019,15.996-0.019,23.994-0.014c1.116,0.001,1.938,0.407,2.003,1.685
		c0.052,1.021,0.07,2.058-1.121,2.486c-13.083,4.706-16.191,17.77-23.135,27.616c-0.573,0.812-0.854,1.847-1.484,2.598
		c-8.525,10.15-7.389,22.302-7.164,34.271c0.069,3.681,2.503,5.227,5.573,6.113c1.591,0.459,3.243,0.711,4.877,1.01
		c1.443,0.264,2.536,0.752,2.366,2.543c-0.186,1.947-1.613,1.827-2.936,1.83c-6.999,0.02-13.997,0.013-20.996,0.014
		c-3.666,0-7.332,0.01-10.997-0.013c-1.336-0.008-2.717,0.071-2.846-1.899c-0.119-1.82,1.03-2.061,2.412-2.477
		c10.441-3.148,9.954-3.203,10.58-14.453c0.525-9.445-2.048-17.605-6.775-25.531c-4.601-7.713-8.708-15.719-13.094-23.563
		c-2.096-3.747-4.841-6.727-9.385-7.537c-1.437-0.256-2.96-0.727-2.737-2.85c0.246-2.343,1.996-1.846,3.376-1.852
		c9.331-0.04,18.662-0.028,27.993-0.013c1.476,0.002,3.194-0.232,3.249,2.034c0.056,2.302-1.724,1.956-3.164,2.163
		c-8.565,1.23-8.628,1.273-4.604,8.826c4.461,8.371,9.051,16.674,13.605,24.994C117.079,218.482,117.436,218.631,118.287,219.3z"/>
	<path fill-rule="evenodd" clip-rule="evenodd" fill="#FDF9F9" d="M152.713,314.362"/>
	<path fill-rule="evenodd" clip-rule="evenodd" fill="#FDF9F9" d="M169.181,257.8c1.599,0.476,1.266,2.521,1.206,4.005"/>
	<path fill-rule="evenodd" clip-rule="evenodd" fill="#FDF9F9" d="M162.826,269.282"/>
	<path fill-rule="evenodd" clip-rule="evenodd" fill="#FEFEFE" d="M213.661,343.533c-0.251,0.177-0.629,0.561-0.733,0.497
		c-0.591-0.359-0.315-0.785,0.037-1.17C213.205,343.073,213.438,343.298,213.661,343.533z"/>
	<path fill-rule="evenodd" clip-rule="evenodd" fill="#FEFEFE" d="M183.453,371.291c-0.317-0.303-0.635-0.605-0.953-0.908
		C182.977,370.52,183.521,370.584,183.453,371.291z"/>
	<path fill-rule="evenodd" clip-rule="evenodd" fill="#FDFCFC" d="M275.387,109.334c0.291-0.283,0.583-0.567,0.875-0.849
		C275.969,108.768,275.678,109.051,275.387,109.334z"/>
</g>
</svg>
