<?xml version="1.0" encoding="utf-8"?>
<!-- Generator: Adobe Illustrator 16.0.0, SVG Export Plug-In . SVG Version: 6.00 Build 0)  -->
<!DOCTYPE svg PUBLIC "-//W3C//DTD SVG 1.1//EN" "http://www.w3.org/Graphics/SVG/1.1/DTD/svg11.dtd">
<svg version="1.1" id="Layer_1" xmlns="http://www.w3.org/2000/svg" xmlns:xlink="http://www.w3.org/1999/xlink" x="0px" y="0px"
	 width="400px" height="400px" viewBox="0 0 400 400" enable-background="new 0 0 400 400" xml:space="preserve">
<g>
	<path fill-rule="evenodd" clip-rule="evenodd" fill="#F8C06C" d="M200.416,132.86c0-12.899,0.044-25.799-0.032-38.698
		c-0.018-2.926,0.869-3.775,4.009-3.738c9.457,0.11,18.92-0.399,28.383-0.498c11.666-0.122,23.338,0.08,35.001-0.146
		c9.125-0.177,18.257-0.153,27.369-0.417c3.415-0.099,3.225,2.002,3.154,3.399c-0.622,12.352,0.69,24.704-0.136,37.045
		c-0.771,11.519-3.917,22.091-12.407,30.448c-5.711,5.622-12.746,8.455-20.428,10.569c-7.493,2.063-15.026,2.059-22.463,1.612
		c-8.731-0.522-17.044-3.124-24.608-8.125c-10.465-6.92-13.971-17.646-17.023-28.769c-0.225-0.813,0.11-1.779,0.186-2.674
		C201.086,132.865,200.751,132.863,200.416,132.86z M231.285,147.255l0.042,0.025c1.534,1.41,3.155,2.528,5.385,1.596
		c9.104,1.596,18.271,1.774,27.213-0.497c8.074-2.051,13.961-6.736,16.634-15.32c1.941-6.237,1.186-12.412,1.513-18.63
		c0.146-2.775-1.151-3.626-3.644-3.61c-10.308,0.07-20.616,0.068-30.924,0.145c-9.298,0.072-18.599,0.543-27.893-0.006
		c-2.052-0.121-2.208,1.133-2.379,2.517c-0.884,7.135-0.307,14.154,1.931,20.99c1.644,5.02,4.659,9.015,9.337,11.637
		C229.105,147.264,230.086,147.524,231.285,147.255z"/>
	<path fill-rule="evenodd" clip-rule="evenodd" fill="#F8C06C" d="M224.376,267.402c-15.345-7.184-22.913-19.578-24.192-36.163
		c-0.66-8.561-0.358-17.141,3.018-25.086c5.335-12.552,14.368-21.263,28.063-24.402c2.8,1.238,4.896-1.101,7.394-1.477
		c5.662-0.85,11.347-0.482,17.02-0.699c1.757-0.067,3.554,1.265,5.267-0.115c8.152,0.483,15.671,3.22,22.271,7.742
		c11.648,7.981,17.031,19.551,17.98,33.529c0.643,9.453-0.136,18.627-4.251,27.204c-4.413,9.198-11.13,16.16-21.046,19.559
		c-0.911,0.038-1.935-0.185-2.717,0.153c-8.68,3.739-17.836,3.91-27.065,4.047c-2.693,0.039-5.308-1.593-8.001-0.268
		c-0.43-0.108-0.858-0.216-1.288-0.322c-0.548-1.161-1.749-0.984-2.664-1.104C230.779,269.554,228.017,266.811,224.376,267.402z
		 M221.622,209.114c-0.228,0.239-0.455,0.479-0.683,0.72l0.014-0.02c-1.588,0.167-1.796,1.454-2.14,2.632l-0.059,0.07
		c-0.2,0.229-0.401,0.456-0.602,0.685c-0.735,2.155-1.576,4.28-2.183,6.469c-1.375,4.976-1.126,10.094,0.682,14.749
		c3.441,8.865,11.133,12.986,19.84,14.411c8.996,1.471,18.219,1.735,27.306,0.011c5.356-1.018,10.653-2.522,14.946-6
		c6.557-5.312,8.061-12.739,7.255-20.643c-0.699-6.858-4.034-12.357-10.078-15.999c-2.536-3.038-6.151-3.39-9.703-3.903
		c-0.219-0.046-0.439-0.087-0.66-0.124c-0.428-0.63-0.895-0.634-1.396-0.086c-0.402,0.022-0.807,0.042-1.211,0.063
		c-1.351-0.896-2.678-1.973-4.342-0.6c-0.64-0.05-1.276-0.098-1.915-0.148c-1.1-0.854-2.335-0.543-3.549-0.419
		c-0.407-0.004-0.814-0.007-1.223-0.011c-2.193-1.288-4.244-0.244-6.322,0.383c-0.418,0.019-0.836,0.038-1.252,0.058
		c-2.285-1.245-14.222,1.253-15.978,3.343c-0.091,0.126-0.202,0.229-0.331,0.315c-1.578,0.015-3.187-0.025-3.69,1.985l0.011-0.005
		c-1.258,0.239-2.496,0.502-2.755,2.069L221.622,209.114z"/>
	<path fill-rule="evenodd" clip-rule="evenodd" fill="#D5D7BF" d="M119.035,226.377c1.089,1.614,2.726,1.245,4.093,1.507
		c8.924,1.703,17.708,4.096,26.724,5.357c4.566,0.641,7.024,5.438,5.065,9.851c-0.835,1.879-2.528,1.042-3.885,0.707
		c-7.51-1.854-14.997-3.807-22.51-5.646c-6.953-1.702-13.913-3.388-20.905-4.914c-2.581-0.564-3.723-1.785-3.383-4.446
		c0.344-2.702-0.787-5.736,0.637-8.082c1.494-2.459,4.755-1.348,7.181-2.022c8.653-2.403,17.395-4.49,26.103-6.696
		c0.745-0.188,1.639-0.069,2.091-1.054c-1.289-1.234-2.986-1.417-4.611-1.808c-9.16-2.202-18.302-4.486-27.479-6.611
		c-2.954-0.684-4.009-2.14-3.929-5.257c0.202-7.853-0.008-8.044,7.505-10.076c12.942-3.498,25.952-6.746,38.937-10.082
		c2.461-0.633,4.06-0.122,3.755,2.922c-0.136,1.359-0.124,2.745-0.049,4.112c0.169,3.082-1.518,3.9-4.297,4.445
		c-10.57,2.073-21.078,4.454-32.57,6.926c7.189,2.701,13.682,3.857,20.066,5.42c4.971,1.215,9.916,2.546,14.87,3.832
		c0.33,0.086,0.801,0.132,0.944,0.36c2.034,3.244,0.726,6.994,1.453,10.479c0.375,1.801-1.932,2.123-3.503,2.501
		c-10.394,2.503-20.78,5.031-31.163,7.576C119.777,225.774,119.441,226.12,119.035,226.377z"/>
	<path fill-rule="evenodd" clip-rule="evenodd" fill="#D5D7BF" d="M149.484,49.883c8.527-0.06,15.729,2.356,19.784,10.643
		c0.051,0.103,0.101,0.206,0.146,0.31c2.65,6.078,2.108,6.927-4.429,6.931c-1.143,0-2.297-0.117-3.425,0.01
		c-2.311,0.261-3.392-0.5-4.003-2.953c-1.02-4.094-6.149-6.676-10.674-5.867c-4.857,0.868-8.163,4.495-8.182,8.978
		c-0.011,2.61,3.677,5.476,6.884,6.13c7.123,1.454,14.276,3.161,20.63,6.773c5.881,3.344,7.628,9.535,5.583,16.604
		c-2.19,7.571-7.416,11.826-14.909,13.291c-7.405,1.446-14.821,2.361-22.211-0.585c-6.484-2.585-10.883-9.08-10.541-16.006
		c0.09-1.831,0.786-2.419,2.492-2.314c1.366,0.084,2.742,0.021,4.113,0.016c5.377-0.019,5.474-0.048,6.923,4.98
		c0.665,2.307,2.06,3.863,4.087,4.737c5.226,2.253,10.302,1.684,14.868-1.675c2.032-1.494,2.707-3.905,2.314-6.398
		c-0.512-3.26-2.976-4.797-5.805-5.636c-3.805-1.128-7.751-1.791-11.525-3c-4.188-1.339-8.535-2.272-11.896-5.653
		c-6.59-6.631-5.892-17.644,1.716-23.284C137.515,51.396,141.806,49.97,149.484,49.883z"/>
	<path fill-rule="evenodd" clip-rule="evenodd" fill="#D5D7BF" d="M126.997,291.472c-6.266,0-12.537-0.128-18.797,0.06
		c-2.648,0.079-3.291-0.849-3.239-3.339c0.184-8.734-0.938-7.589,7.348-7.625c3.887-0.017,7.777-0.099,11.66,0.025
		c2.145,0.067,3.116-0.521,3.04-2.864c-0.147-4.569-0.142-9.148-0.018-13.717c0.058-2.133-0.741-2.79-2.79-2.756
		c-5.486,0.091-10.975-0.006-16.462,0.034c-2.278,0.018-4.063-0.239-2.958-3.248c0.11-0.3,0.048-0.677,0.02-1.014
		c-0.5-6.055-0.487-5.778,5.432-6.076c13.693-0.688,27.392-0.449,41.086-0.696c3.112-0.057,3.871,0.909,3.82,3.865
		c-0.129,7.343,0.005,7.323-7.295,7.17c-3.2-0.066-6.404,0.026-9.604-0.048c-2.166-0.051-3.151,0.837-3.08,3.053
		c0.145,4.547,0.154,9.098,0.297,13.645c0.076,2.416,2.04,2.493,3.7,2.522c4.526,0.085,9.078,0.259,13.574-0.135
		c1.994-0.176,2.188,0.45,2.598,1.952c0.528,1.937,0.206,3.866,0.398,5.784c0.21,2.09-0.675,2.652-2.724,2.82
		C144.34,291.592,135.668,291.443,126.997,291.472z"/>
	<path fill-rule="evenodd" clip-rule="evenodd" fill="#D5D7BF" d="M155.729,321.579c-0.048,7.752,0.884,6.088-6.205,8.667
		c-9.361,3.405-18.745,6.747-28.064,10.271c-4.417,1.669-9.018,3.047-13.533,4.556c-2.235,0.747-3.167-0.014-2.816-2.13
		c0.357-2.146,0.63-4.275,0.566-6.445c-0.049-1.669,1.189-2.001,2.404-2.402c9.33-3.08,7.798-1.539,7.9-10.529
		c0.004-0.343-0.041-0.69,0.007-1.027c1.015-7.268,0.085-13.233-8.939-14.336c-2.223-0.271-2.04-2.356-2.049-4.109
		c-0.036-6.784-0.037-6.829,6.236-4.628c13.965,4.898,27.904,9.873,41.879,14.745c1.846,0.645,2.947,1.45,2.644,3.604
		C155.586,319.048,155.728,320.323,155.729,321.579z M144.92,321.794c0.055-0.271,0.109-0.541,0.164-0.813
		c-5.992-2.001-11.979-4.022-17.982-5.989c-1.32-0.433-2.3,0.004-2.3,1.563c0,3.379-0.007,6.763,0.134,10.138
		c0.057,1.352,1.079,1.135,2.034,0.828C132.95,325.601,138.936,323.702,144.92,321.794z"/>
	<path fill-rule="evenodd" clip-rule="evenodd" fill="#F2C273" d="M289.159,31.856c1.367-1.414,1.299-2.696,1.187-3.946
		c-0.614-6.876-0.091-13.767-0.279-20.648c-0.112-4.119,3.479-2.585,5.334-2.941c1.65-0.315,2.887,0.824,2.663,3.524
		c-0.48,5.823-0.085,11.721-0.009,17.588c0.059,4.561,0.313,9.124,0.216,13.68c-0.054,2.507-1.169,3.664-4.252,3.958
		c-5.818,0.554-9.008-1.084-11.075-6.87c-2.438-6.828-6.124-13.21-9.275-19.783c-0.434-0.904-0.724-1.958-2.162-2.142
		c0,4.962-0.007,9.858,0.003,14.756c0.007,3.54-0.15,7.096,0.121,10.618c0.224,2.9-1.453,3.79-3.646,3.736
		c-2.225-0.053-4.546-0.367-4.459-3.769c0.158-6.278,0.003-12.563-0.012-18.845c-0.011-4.421,0.172-8.852-0.075-13.258
		c-0.15-2.674,1.337-3.257,3.261-3.087c1.488,0.131,2.932,0.196,4.401,0.031c4.671-0.527,5.955,2.854,7.547,6.224
		C281.981,17.744,285.578,24.681,289.159,31.856z"/>
	<path fill-rule="evenodd" clip-rule="evenodd" fill="#F1C274" d="M256.529,32.542c0,2.169-0.144,4.351,0.039,6.503
		c0.195,2.302-0.845,3.506-2.94,3.826c-3.474,0.529-6.986,0.806-10.45,1.382c-4.998,0.83-9.528-0.879-13.871-2.771
		c-3.71-1.617-5.999-5.329-7.058-8.892c-1.817-6.124-1.885-12.41,0.916-18.629c3.677-8.165,14.135-10.575,20.854-9.665
		c5.713,0.774,10.247,2.778,12.443,8.503c1.163,3.03,0.225,3.865-3.02,3.975c-3.314,0.113-5.141-0.764-6.938-3.792
		c-1.647-2.776-5.324-2.746-8.444-2.072c-3.874,0.836-6.84,3.245-7.385,7.113c-0.445,3.163-0.91,6.379-0.425,9.787
		c1.25,8.768,7.483,10.943,14.352,9.578c3.016-0.599,3.748-1.451,3.427-4.555c-0.313-3.028-1.625-3.824-4.134-3.479
		c-2.181,0.298-3.854-0.111-3.698-2.58c0.127-2.02,0.148-4.443,3.512-4.204c3.061,0.217,6.156-0.078,9.234-0.047
		c2.244,0.022,4.036,0.452,3.576,3.526c-0.318,2.12-0.062,4.327-0.062,6.494C256.481,32.542,256.506,32.542,256.529,32.542z"/>
	<path fill-rule="evenodd" clip-rule="evenodd" fill="#F2C273" d="M117.397,44.445c-4.183,0.176-8.317,0.529-12.485,0.023
		c-1.902-0.231-2.51-1.026-2.508-2.844c0.012-10.825-0.015-21.651-0.108-32.476c-0.016-1.864,0.812-3.144,2.495-2.889
		c5.38,0.815,10.783-0.744,16.145,0.403c7.121,1.522,11.791,5.527,13.226,12.822c1.25,6.355,1.094,12.431-2.742,18.159
		C127.964,42.802,122.967,44.07,117.397,44.445z M111.066,29.19c0,1.357-0.003,2.156,0,2.955c0.03,5.94,0.03,5.94,5.953,5.534
		c4.164-0.285,7.209-2.412,8.17-6.417c0.905-3.773,1.046-7.731-0.287-11.455c-0.557-1.557-0.868-3.16-2.435-4.601
		c-2.482-2.284-5.339-1.531-7.947-2.255c-2.876-0.798-4.457,0.754-3.96,3.705C111.296,21.021,110.419,25.403,111.066,29.19z"/>
	<path fill-rule="evenodd" clip-rule="evenodd" fill="#D5D7BF" d="M156.445,368.164c0,5.602-0.041,11.202,0.021,16.804
		c0.022,2.048,0.045,3.791-2.88,3.009c-0.711-0.19-1.563,0.15-2.351,0.238c-2.077,0.233-3.193-0.374-3.059-2.791
		c0.176-3.19,0.031-6.398,0.029-9.6c0-1.75-0.447-2.517-2.61-2.489c-9.381,0.112-18.766-0.102-28.149-0.146
		c-2.497-0.012-4.969-0.014-7.48,0.493c-3.492,0.705-4.245-0.109-4.25-3.685c-0.013-8.385-0.7-6.969,7.11-7.139
		c9.885-0.215,19.77-0.445,29.657-0.61c5.248-0.086,6.044-0.588,5.368-5.83c-0.311-2.415,0.387-4.734-0.133-7.078
		c-0.31-1.396,0.766-1.854,1.774-2.029c1.225-0.212,2.504-0.089,3.752-0.203c2.412-0.22,3.215,0.893,3.176,3.228
		c-0.1,5.941-0.033,11.887-0.033,17.829C156.407,368.164,156.426,368.164,156.445,368.164z"/>
	<path fill-rule="evenodd" clip-rule="evenodd" fill="#D5D7BF" d="M102.904,88.672c0-10.245,0.018-20.49-0.007-30.735
		c-0.016-6.607-0.044-6.607,6.795-6.594c1.028,0.001,2.067,0.096,3.082-0.023c2.201-0.259,2.887,1.081,2.909,2.84
		c0.121,9.609,0.188,19.219,0.229,28.83c0.036,8.337-0.072,16.678,0.07,25.014c0.043,2.486-0.847,3.23-3.176,3.031
		c-3.061-0.262-6.89,1.216-9.013-0.529c-2.251-1.853-0.664-5.802-0.814-8.821c-0.216-4.327-0.055-8.674-0.055-13.012
		C102.917,88.672,102.91,88.672,102.904,88.672z"/>
	<path fill-rule="evenodd" clip-rule="evenodd" fill="#D6D8C2" d="M185.773,334.938c-5.563-2.622-10.74-2.911-15.59-4.325
		c-1.089-0.317-2.229-0.463-3.313-0.79c-4.188-1.261-5.326-3.446-4.156-7.638c0.298-1.07,1.057-1.504,1.919-1.728
		c9.135-2.359,18.269-4.724,27.439-6.934c1.043-0.25,3.287-1.981,3.33,0.833c0.032,2.106,1.745,5.242-2.35,6.024
		c-5.238,1.004-10.435,2.223-15.658,3.313c-1.101,0.229-2.654,0.142-2.766,1.449c-0.135,1.613,1.582,1.262,2.588,1.514
		c5.401,1.352,10.802,2.709,16.231,3.94c1.536,0.347,1.994,1.122,2.109,2.583c0.46,5.797,0.501,5.801-5.177,7.216
		c-4.524,1.127-9.067,2.187-13.566,3.407c-0.701,0.19-2.075,0.094-1.969,1.338c0.095,1.113,1.184,1.101,2.115,1.278
		c5.578,1.066,11.146,2.179,16.702,3.353c1.471,0.311,3.185,5.015,2.33,6.213c-0.676,0.949-1.586,0.541-2.483,0.315
		c-9.253-2.33-18.48-4.772-27.783-6.888c-3.886-0.883-1.964-3.66-2.41-5.676c-0.5-2.257,0.977-2.978,2.792-3.412
		c5.083-1.219,10.17-2.43,15.238-3.71C182.537,336.313,183.662,335.747,185.773,334.938z"/>
	<path fill-rule="evenodd" clip-rule="evenodd" fill="#D6D8C2" d="M264.496,336.496c2.904,1.914,4.492,4.25,4.659,7.704
		c0.136,2.804,0.801,5.625,1.575,8.34c0.573,2.012-0.746,2.195-1.89,2.416c-5.038,0.969-6.127,0.091-6.732-5.102
		c-0.092-0.785-0.431-1.54-0.532-2.325c-1.128-8.755-1.275-7.146-9.687-7.326c-1.705-0.037-2.164,0.777-2.145,2.297
		c0.047,3.313-0.141,6.638,0.064,9.938c0.169,2.725-1.288,3.032-3.358,2.828c-2.063-0.202-4.904,1.017-4.881-2.876
		c0.048-7.77,0.005-15.539,0-23.31c-0.003-2.856,0.044-5.715-0.023-8.569c-0.037-1.601,0.6-2.26,2.211-2.246
		c5.484,0.047,10.98-0.214,16.45,0.081c7.82,0.421,11.982,6.866,9.139,13.525C268.402,334.081,266.295,334.848,264.496,336.496z
		 M249.762,329.207c-0.011,4.824-0.011,4.824,4.033,4.832c5.323,0.01,7.684-1.564,7.684-5.123c0-3.211-2.091-4.484-7.379-4.498
		C249.787,324.406,249.772,324.423,249.762,329.207z"/>
	<path fill-rule="evenodd" clip-rule="evenodd" fill="#F2C273" d="M164.475,21.843c0.052,0.796-0.037,1.631,0.178,2.38
		c0.924,3.216-0.875,3.747-3.45,3.71c-3.308-0.047-6.616,0.031-9.925-0.008c-2.317-0.026-3.564,0.724-2.737,3.285
		c0.139,0.429,0.174,0.897,0.214,1.351c0.401,4.659,1.392,5.443,6.263,5.143c3.022-0.186,6.025-0.784,9.081-0.31
		c2.455,0.382,2.625,1.888,2.488,3.989c-0.147,2.261-1.197,2.893-3.254,2.944c-6.368,0.158-12.738-0.262-19.109,0.25
		c-2.631,0.212-4.313-0.624-4.23-4.133c0.249-10.565,0.116-21.144-0.103-31.712c-0.048-2.328,1.077-2.897,2.762-2.917
		c6.684-0.076,13.368,0.004,20.053-0.002c1.772-0.001,3.443,0.389,3.227,2.497c-0.187,1.82,0.008,4.303-3.04,4.306
		c-3.079,0.003-6.162,0.387-9.234-0.122c-0.725-0.471-1.409-0.462-2.039,0.178c-0.46-0.043-0.92-0.087-1.38-0.129
		c-0.827-0.5-1.566-0.624-2.023,0.471c-0.024,0.181-0.068,0.357-0.132,0.528c-0.898,2.061-0.798,4.13-0.064,6.207
		c0.05,0.202,0.107,0.402,0.172,0.601c0.112,0.979,0.331,1.759,1.485,0.798c0.396-0.006,0.792-0.013,1.188-0.02
		c1.223,0.983,2.419,1.065,3.579-0.105c0.224,0.079,0.446,0.159,0.669,0.237C158.168,22.496,161.368,21.425,164.475,21.843z"/>
	<path fill-rule="evenodd" clip-rule="evenodd" fill="#D6D8C2" d="M186.519,251.687c-7.394,0-14.432-0.084-21.466,0.047
		c-2.39,0.045-3.24-0.716-3.144-3.115c0.079-1.957,0.198-3.203,2.725-3.159c8.885,0.157,17.774,0.112,26.641-0.602
		c2.641-0.214,3.874,0.743,3.585,3.487c-0.118,1.129-0.125,2.296,0.014,3.419c0.331,2.671-0.845,4.193-3.225,5.328
		c-6.075,2.897-12.06,5.982-18.071,9.013c-0.658,0.332-1.593,0.412-1.662,1.542c1.038,0.984,2.35,0.478,3.518,0.488
		c5.594,0.055,11.191,0.122,16.782-0.031c2.524-0.069,2.746,1.216,2.693,3.177c-0.048,1.719,0.021,3.066-2.424,3.091
		c-8.996,0.096-17.976,0.863-26.985,0.647c-1.898-0.046-3.061-0.372-2.952-2.618c0.054-1.106-0.36-2.231-0.538-3.353
		c-0.434-2.733,0.609-4.444,3.199-5.663c6.596-3.101,13.079-6.442,19.6-9.704C185.403,253.384,186.081,253.137,186.519,251.687z"/>
	<path fill-rule="evenodd" clip-rule="evenodd" fill="#D6D8C2" d="M233.669,355.295c-2.757,0.604-4.492-0.889-4.916-3.853
		c-0.453-3.168-2.212-4.115-5.181-3.747c-1.462,0.181-2.965,0.012-4.449,0.03c-6.463,0.08-5.916-0.815-7.898,5.433
		c-0.59,1.861-6.357,3.149-7.657,1.796c-0.581-0.604-0.244-1.257-0.017-1.901c3.836-10.843,7.568-21.725,11.568-32.506
		c1.1-2.963,4.18-2.047,6.594-2.261c2.304-0.205,3.667,0.844,4.412,2.931c2.369,6.637,4.763,13.265,7.13,19.902
		c1.222,3.43,2.449,6.857,3.598,10.313C238.131,355.281,238.091,355.294,233.669,355.295z M220.566,327.424
		c-0.273-0.002-0.547-0.002-0.818-0.002c-1.239,4.003-2.497,8.002-3.702,12.016c-0.201,0.671-0.895,1.864,0.273,1.975
		c2.595,0.241,5.231,0.156,7.845,0.055c0.848-0.033,0.826-0.936,0.798-1.634c-0.005-0.113,0-0.234-0.038-0.339
		C223.474,335.47,222.02,331.446,220.566,327.424z"/>
	<path fill-rule="evenodd" clip-rule="evenodd" fill="#F1C375" d="M261.802,383.229c0.637-6.077-0.393-12.02-0.194-17.97
		c0.055-1.627,0.286-2.849,2.136-3.367c3.268-0.919,4.456-0.118,4.513,3.263c0.14,8.532-0.25,17.075,0.387,25.599
		c0.065,0.879-0.041,1.49-0.925,1.954c-4.487,2.351-8.834,0.786-10.922-3.798c-2.267-4.98-4.735-9.866-7.064-14.816
		c-0.578-1.23-1.349-2.052-2.874-2.245c0,6.041-0.029,11.97,0.015,17.896c0.017,2.068-0.013,4.092-2.769,4.112
		c-2.667,0.021-3.967-1.028-3.914-4.153c0.128-7.745,0.303-15.502-0.286-23.248c-0.285-3.76,2.48-5.293,7.127-4.62
		c3.568,0.517,4.639,3.115,5.911,5.782c2.347,4.923,4.768,9.813,7.167,14.71C260.364,382.85,260.724,383.292,261.802,383.229z"/>
	<path fill-rule="evenodd" clip-rule="evenodd" fill="#D6D8C2" d="M275.868,340.919c-0.121-7.283,0.099-13.518-0.404-19.749
		c-0.112-1.388,0.216-2.938,2.401-2.979c6.447-0.119,12.896-0.321,19.339-0.62c2.599-0.121,3.315,0.99,3.369,3.44
		c0.055,2.485-1.134,2.806-3.14,2.75c-3.426-0.091-6.86,0.105-10.28-0.053c-3.724-0.171-3.814,2.044-3.837,4.849
		c-0.021,2.739,0.446,4.384,3.715,4.15c3.07-0.221,6.168,0.016,9.251-0.062c1.85-0.047,3.024,0.209,2.95,2.556
		c-0.069,2.181-0.632,3.566-3.018,3.588c-2.856,0.027-5.719,0.13-8.567-0.014c-2.622-0.134-3.751,0.798-3.666,3.533
		c0.229,7.378-0.848,6.022,6.188,6.149c2.627,0.048,5.262,0.123,7.88-0.027c2.287-0.131,3.282,0.51,3.235,3.024
		c-0.044,2.279-0.554,3.175-3.054,3.204c-6.375,0.073-12.761-0.515-19.138,0.416c-1.913,0.278-3.402-0.651-3.277-3.215
		C276.011,347.872,275.868,343.866,275.868,340.919z"/>
	<path fill-rule="evenodd" clip-rule="evenodd" fill="#D6D8C2" d="M263.457,66.787c0.021,8.682-3.439,14.771-10.162,16.257
		c-8.871,1.961-15.41,1.08-19.646-6.467c-4.604-8.202-2.642-19.688,4.241-24.544c5.067-3.575,10.858-3.852,16.616-1.424
		c5.753,2.426,8.206,7.208,8.932,13.097C263.563,64.718,263.457,65.759,263.457,66.787z M239.412,66.354
		c0.169,1.942-0.078,3.972,0.518,6.019c1.146,3.938,3.67,6.272,7.348,6.387c3.712,0.116,6.697-2.093,7.777-5.899
		c1.214-4.276,1.07-8.539-0.377-12.751c-1.324-3.854-3.543-5.503-7.309-5.43c-3.884,0.076-5.99,1.745-7.337,5.485
		C239.306,62.183,239.543,64.221,239.412,66.354z"/>
	<path fill-rule="evenodd" clip-rule="evenodd" fill="#D6D8C2" d="M250.428,277.736c8.773-1.229,15.289,7.943,15.252,15.575
		c-0.067,13.551-5.649,18.346-17.023,18.377c-8.531,0.023-14.344-5.466-14.545-17.068
		C233.946,285.046,238.729,277.014,250.428,277.736z M257.988,294.704c0.218-2.059-0.122-4.064-0.654-6.058
		c-0.967-3.62-3.773-5.965-7.308-6.062c-3.409-0.092-6.069,1.969-7.259,5.556c-1.357,4.1-1.191,8.276-0.373,12.396
		c0.704,3.545,3.767,5.972,6.969,6.017c3.876,0.055,6.316-1.742,7.682-5.484C257.801,299,258.224,296.913,257.988,294.704z"/>
	<path fill-rule="evenodd" clip-rule="evenodd" fill="#D6D8C2" d="M195.573,294.728c0.927,8.713-6.083,15.185-14.044,15.434
		c-5.387,0.169-10.252-0.122-14.681-3.52c-7.055-5.413-6.626-21.491,2.644-25.277c5.346-2.182,10.514-2.657,15.919-1.312
		C191.314,281.521,196.405,287.527,195.573,294.728z M178.958,286.709c-2.723-0.346-5.155,0.553-7.551,1.688
		c-3.061,1.45-4.446,4.108-4.008,7.824c0.333,2.822,3.182,5.897,6.052,6.173c4.028,0.386,8.042,0.833,12.043-0.665
		c3.271-1.224,5.248-3.68,5.248-7.46c0.001-2.801-2.462-6.121-5.402-6.71C183.248,287.139,181.164,286.352,178.958,286.709z"/>
	<path fill-rule="evenodd" clip-rule="evenodd" fill="#F2C273" d="M187.296,38.421c0.524,0.06,1.048,0.119,1.571,0.178
		c3.312,0.334,5.365-1.057,5.831-4.394c0.297-2.127-0.258-4.101-3.067-4.174c0,0-0.241-0.232-0.239-0.229
		c-0.186-0.153-0.371-0.308-0.557-0.462c-4.126-1.206-8.626-0.845-12.503-3.158c-2.95-1.759-5.78-3.371-6.094-7.397
		c-0.383-4.902,1.14-8.664,5.423-11.289c5.125-3.141,10.542-3.515,16.139-1.815c3.976,1.209,5.735,4.485,6.94,8.169
		c0.52,1.587-0.076,2.237-1.591,2.687c-3.209,0.951-5.289,0.202-6.796-2.698c-1.649-3.175-7.521-3.972-9.931-1.35
		c-2.335,2.542-1.651,6.017,1.603,7.215c3.424,1.262,6.955,2.23,10.436,3.339c1.414,0.45,2.851,0.863,3.92,1.996
		c-0.122,0.864,0.31,1.501,0.797,2.157c2.427,3.271,2.793,6.985,0.44,10.12c-2.591,3.449-5.872,6.536-10.925,5.743
		c-2.109-3.983-5.746-1.191-8.716-1.902c0.401-1.218,0.78-2.368,1.16-3.518c0.312,0.02,0.625,0.04,0.938,0.061
		c0.939,0.748,2.008,1.183,3.203,1.306c0.505,0.662,0.953,0.639,1.336-0.116c0,0-0.027,0.03-0.026,0.03
		C186.822,38.754,187.059,38.588,187.296,38.421z"/>
	<path fill-rule="evenodd" clip-rule="evenodd" fill="#F1C375" d="M289.063,388.792c0.344,0.011,0.689,0.022,1.034,0.034
		c0.81,0.093,1.636,0.251,2.228-0.543c2.983-1.258,2.182-3.564,1.601-5.804c-0.344-1.322-1.218-0.814-2.146-0.773
		c-1.985,0.084-3.488-0.466-3.545-3.03c-0.055-2.47,1.127-2.874,3.165-2.691c1.354,0.123,2.736-0.058,4.092,0.063
		c1.76,0.158,4.212-1.218,5.098,0.259c1,1.665,0.771,4.139,0.84,6.269c0.068,2.149-0.286,4.313-0.216,6.464
		c0.079,2.415-0.974,3.639-3.316,3.822c-3.279,0.255-6.558,0.527-9.841,0.71c-8.304,0.462-13.857-4.677-15.394-12.675
		c-1.805-9.394,2.583-17.557,10.826-19.589c4.093-1.009,8.157-0.208,12.077,0.892c3.145,0.881,5.018,3.247,5.66,6.539
		c0.379,1.951-0.133,2.905-2.27,2.52c-2.044-0.37-4.534,0.15-5.301-2.713c-0.231-0.287-0.462-0.573-0.692-0.857l0.008,0.013
		c-0.229-0.233-0.456-0.466-0.684-0.701l0.004,0.011c-0.783-1.569-1.962-1.772-3.425-0.99c-0.431,0.059-0.861,0.116-1.291,0.175
		c-1.704-1.146-2.939-0.127-4.173,0.901c-0.015,0.165-0.07,0.314-0.165,0.45c-0.526,0.108-0.993,0.292-1.173,0.868
		c0,0,0.011-0.031,0.011-0.03c-0.23,0.278-0.463,0.558-0.694,0.836c-2.547,5.924-2.433,11.648,1.272,17.105
		c0.124,0.851,0.595,1.268,1.472,1.177l-0.011,0.012C285.43,389.24,287.241,389.037,289.063,388.792z"/>
	<path fill-rule="evenodd" clip-rule="evenodd" fill="#F1C375" d="M223.672,379.311c-0.207,10.404-6.552,14.879-15.807,15.366
		c-5.674,0.3-12.698-5.93-13.545-11.514c-0.476-3.131-0.576-6.261-0.065-9.418c1.299-8.029,8.362-13.037,16.458-11.59
		C220.503,363.905,224.297,368.928,223.672,379.311z M216.19,378.439c0-1.89,0.122-3.386-0.025-4.854
		c-0.31-3.077-3.591-6.29-6.47-6.489c-3.984-0.276-7.08,1.676-7.809,5.337c-0.91,4.574-1.551,9.075,1.312,13.491
		c1.595,2.462,3.808,2.78,6.061,3.14c2.272,0.359,4.213-0.687,5.468-2.765C216.28,383.726,216.426,380.917,216.19,378.439z"/>
	<path fill-rule="evenodd" clip-rule="evenodd" fill="#F1C274" d="M172.732,362.87c1.254,0,2.51,0.061,3.759-0.01
		c6.839-0.386,11.226,3.637,13.013,9.789c1.526,5.256,1.725,10.626-1.937,15.576c-3.406,4.606-7.999,6.188-13.279,5.986
		c-2.269-0.087-4.503-0.092-6.736,0.123c-2.522,0.241-3.512-0.786-3.516-3.293c-0.012-8.494-0.153-16.988-0.206-25.482
		c-0.011-1.764,0.861-2.732,2.755-2.677c2.048,0.062,4.099,0.015,6.148,0.015C172.733,362.889,172.732,362.88,172.732,362.87z
		 M182.516,384.15c2.205-3.937,1.119-7.964-0.12-11.764c-1.382-4.241-7.216-6.003-11.532-3.896c0,5.707,0.036,11.416-0.016,17.123
		c-0.019,2.098,0.999,2.869,2.957,2.799C177.349,388.286,180.594,387.579,182.516,384.15z"/>
	<path fill-rule="evenodd" clip-rule="evenodd" fill="#D6D8C2" d="M268.97,62.839c0-3.754,0.123-7.076-0.035-10.384
		c-0.145-3.019,1.877-2.404,3.648-2.569c2.167-0.202,3.983,0.448,3.601,2.764c-0.99,5.966,0.359,11.828,0.322,17.74
		c-0.034,5.591,2.219,8.245,6.813,8.318c4.346,0.069,7.391-2.965,7.582-7.979c0.155-4.056,0.396-8.213-0.31-12.162
		c-0.48-2.69,0.938-5.18-0.021-7.761c-0.264-0.711,0.458-1.183,1.158-1.438c3.729-1.36,6.04,0.185,6.062,4.124
		c0.033,5.787,0.053,11.575,0.012,17.362c-0.047,6.591-3.136,10.881-9.683,12.25c-8.611,1.8-15.494-0.273-18.597-8.447
		C268.052,70.777,269.336,66.49,268.97,62.839z"/>
	<path fill-rule="evenodd" clip-rule="evenodd" fill="#D7D8C3" d="M271.068,289.808c0.001-3.082,0.153-6.173-0.039-9.243
		c-0.221-3.52,2.194-2.556,4.103-2.777c2.293-0.265,3.438,0.95,3.114,2.889c-1.089,6.515,0.404,12.942,0.357,19.415
		c-0.027,3.719,2.041,5.675,5.671,5.861c5.204,0.267,7.604-1.231,8.041-5.213c0.711-6.45-0.132-12.908-0.063-19.366
		c0.027-2.797,0.754-3.758,3.638-3.702c2.739,0.052,4.17,0.409,4.008,3.692c-0.27,5.465-0.04,10.953-0.051,16.433
		c-0.012,6.612-4.139,12.339-10.378,13.358c-6.313,1.03-13.53,0.036-16.947-6.54c-1.873-3.605-1.426-7.529-1.453-11.383
		C271.061,292.09,271.066,290.948,271.068,289.808z"/>
	<path fill-rule="evenodd" clip-rule="evenodd" fill="#D7D8C3" d="M181.353,222.972c3.64,2.835,7.271,5.683,10.922,8.502
		c2.148,1.66,3.439,5.747,2.501,8.118c-0.663,1.676-1.412,0.468-2.015-0.011c-3.481-2.753-7.084-5.383-10.333-8.391
		c-1.908-1.765-3.301-1.458-5.037-0.109c-4.134,3.211-8.291,6.393-12.443,9.579c-0.714,0.55-1.498,1.371-2.389,1.028
		c-1.074-0.414-0.458-1.604-0.604-2.447c-0.691-3.979,0.814-6.688,4.396-8.655c2.971-1.634,5.664-3.785,8.434-5.77
		c0.57-0.409,1.666-0.706,1.201-1.766c-0.368-0.84-1.26-0.873-2.082-0.872c-3.086,0.003-6.181-0.151-9.253,0.052
		c-2.868,0.19-2.743-1.522-2.748-3.472c-0.005-1.962-0.088-3.526,2.752-3.481c8.911,0.139,17.826,0.145,26.734-0.026
		c2.778-0.052,2.839,1.34,2.843,3.38c0.004,2.164-0.077,3.797-3.023,3.581c-3.162-0.231-6.353-0.053-9.531-0.053
		C181.568,222.431,181.46,222.7,181.353,222.972z"/>
	<path fill-rule="evenodd" clip-rule="evenodd" fill="#D6D8C2" d="M199.257,51.12c2.544-1.486,5.032-0.807,7.231-0.328
		c2.248,0.49,2.414,3.281,3.424,5.075c1.6,2.839,2.485,6.062,4.497,8.875c2.577-3.787,3.742-8.026,5.766-11.847
		c1.336-2.526,4.589-3.817,7.21-2.875c1.333,0.479,0.981,1.211,0.527,2.127c-2.425,4.886-4.621,9.898-7.272,14.657
		c-2.417,4.339-3.752,8.787-3.107,13.731c0.371,2.834-1.162,3.104-3.46,3.099c-2.336-0.004-3.854-0.401-3.398-3.173
		c1.126-6.876-2.422-12.304-5.485-17.908C203.125,58.782,201.223,54.924,199.257,51.12z"/>
	<path fill-rule="evenodd" clip-rule="evenodd" fill="#D7D8C3" d="M217.561,292.906c2.059-4.425,3.877-8.346,5.706-12.261
		c0.807-1.724,5.424-3.221,6.944-2.103c1.281,0.943,0.174,2.066-0.266,2.978c-2.575,5.339-5.245,10.632-7.839,15.962
		c-1.362,2.798-2.344,5.635-1.423,8.873c0.419,1.476,0.896,3.431-0.553,4.493c-1.63,1.196-3.749,0.561-5.655,0.376
		c-1.067-0.104-1.13-1.105-1.006-1.874c1.3-8.062-2.593-14.51-6.381-21.029c-1.431-2.462-2.632-5.067-3.825-7.66
		c-0.643-1.399-0.438-2.173,1.531-2.229c5.435-0.16,5.507,0.041,7.967,4.992C214.252,286.425,214.914,289.87,217.561,292.906z"/>
	<path fill-rule="evenodd" clip-rule="evenodd" fill="#F2C273" d="M216.118,16.389c0,7.715-0.015,15.431,0.006,23.147
		c0.009,3.728-0.591,4.316-4.438,4.162c-3.687-0.147-3.853-0.754-3.835-4.622c0.041-8.372-0.297-16.746-0.467-25.119
		c-0.039-1.935-0.072-3.872-0.027-5.806c0.048-2.083,1.474-3.426,3.241-3.104c2.028,0.37,5.455-0.922,5.492,3.134
		c0.024,2.735,0.005,5.471,0.005,8.206C216.103,16.388,216.11,16.388,216.118,16.389z"/>
	<path fill-rule="evenodd" clip-rule="evenodd" fill="#EEC47B" d="M136.715,145.5c7.364-0.159,11.988,4.505,12.007,12.11
		c0.018,6.875-4.828,12.729-10.63,12.842c-6.364,0.124-12.218-5.114-12.14-11.344C126.049,151.43,128.877,145.401,136.715,145.5z
		 M143.153,158.323c-0.261-1.678-0.687-3.22-0.967-4.754c-0.499-2.726-1.964-4.159-4.552-4.15c-2.881,0.011-5.083,1.373-5.631,4.439
		c-0.504,2.821-0.469,5.658,0.224,8.477c0.389,1.585,1.192,2.642,2.85,3.029C139.988,166.512,142.928,164.873,143.153,158.323z"/>
	<path fill-rule="evenodd" clip-rule="evenodd" fill="#D7D8C3" d="M120.2,131.575c-0.347-1.312-0.948-2.558-0.843-3.985
		c0.065-0.885,0.202-2.17-0.868-2.332c-1.25-0.189-1.04,1.167-1.25,1.982c-0.795,3.079-1.551,6.167-2.399,9.229
		c-0.419,1.514-0.754,3.386-2.906,3.143c-1.805-0.206-3.228-0.762-3.722-3.17c-1.069-5.216-2.695-10.319-4.074-15.472
		c-0.3-1.122-1.287-2.606,0.751-2.968c1.478-0.262,3.247-0.62,3.761,1.72c0.897,4.074,1.91,8.123,3.127,13.252
		c1.306-4.775,2.503-8.562,3.334-12.428c0.418-1.944,1.211-2.62,3.156-2.721c2.205-0.115,3.069,0.914,3.498,2.829
		c0.745,3.318,1.556,6.622,2.373,9.924c0.131,0.531-0.151,1.629,0.98,1.185c0.326-0.127,0.363-0.993,0.532-1.521
		c0.426-0.008,0.852-0.016,1.278-0.024c0.106,0.946-0.314,2.023,0.687,2.745c-0.228,0.865-0.58,1.721-0.652,2.599
		c-0.106,1.299-0.106,2.615-1.778,2.814c-1.828,0.216-2.033-1.096-2.528-2.488C122.115,134.365,122.815,131.954,120.2,131.575z"/>
	<path fill-rule="evenodd" clip-rule="evenodd" fill="#EEC47B" d="M162.298,169.599c-7.076,0.376-9.783-3.36-9.986-9.582
		c-0.125-3.837-0.344-7.672-0.528-11.509c-0.078-1.612,0.374-2.687,2.289-2.515c1.611,0.145,3.112,0.012,3.069,2.513
		c-0.065,3.851,0.566,7.722,0.377,11.558c-0.163,3.282,1.777,4.91,4.142,5.705c2.708,0.911,5.077-1.345,5.595-4.888
		c0.527-3.593-0.386-7.175-0.386-10.773c0-2.031-0.426-4.563,2.669-4.429c2.812,0.121,3.212,1.985,2.747,4.606
		c-0.693,3.907,1.018,7.819,0.014,11.879C171.054,167.202,167.627,170.045,162.298,169.599z M169.881,146.676
		c-1.327,3.03-0.113,5.334-1.005,7.468c-0.204,0.487,0.075,1.136,0.79,1.275c0.533,0.104,1.031-0.216,1.038-0.635
		C170.744,152.318,171.469,149.75,169.881,146.676z M170.411,157.646c-2.526,1.483-1.329,3.629-1.594,5.367
		c-0.088,0.577,0.12,1.238,0.83,1.221c0.594-0.014,1.096-0.552,1.085-1.138C170.698,161.366,170.538,159.639,170.411,157.646z"/>
	<path fill-rule="evenodd" clip-rule="evenodd" fill="#F1C375" d="M227.896,376.945c0-3.769,0.153-7.548-0.048-11.306
		c-0.167-3.098,1.635-3.42,4.006-3.734c2.836-0.376,3.11,1.665,3.201,3.356c0.225,4.099,0.39,8.244,0.011,12.319
		c-0.402,4.316,0.182,8.565,0.195,12.844c0.009,2.536-1.033,2.984-3.217,3.226c-2.534,0.279-3.843-0.731-3.963-3.02
		c-0.189-3.638-0.061-7.294-0.065-10.944c-0.001-0.914,0-1.826,0-2.741C227.976,376.945,227.937,376.945,227.896,376.945z"/>
	<path fill-rule="evenodd" clip-rule="evenodd" fill="#D9DBC8" d="M152.309,128.505c0,2.627-0.04,5.255,0.014,7.882
		c0.037,1.844-0.707,2.696-2.621,2.743c-1.993,0.049-2.244-1.074-2.172-2.622c0.043-0.912,0.127-1.843-0.001-2.738
		c-0.196-1.374,0.843-3.375-0.899-3.978c-1.891-0.656-4.063-0.562-6,0.425c-0.928,0.473-1.175,1.141-0.99,2.244
		c0.261,1.558,0.281,3.175,0.228,4.76c-0.056,1.678-1.294,1.884-2.678,1.901c-1.458,0.017-1.999-0.622-2.039-2.057
		c-0.156-5.642-0.403-11.281-0.587-16.922c-0.051-1.547,0.77-2.266,2.323-2.295c1.436-0.028,2.521,0.232,2.405,2.015
		c-0.029,0.454,0.01,0.913,0.018,1.37c0.074,4.561,2.556,6.255,6.964,4.851c1.173-0.374,1.228-1.184,1.234-2.119
		c0.009-1.371,0.042-2.742-0.001-4.112c-0.056-1.776,1.024-2.002,2.45-2.009c1.482-0.008,2.4,0.355,2.357,2.094
		c-0.072,2.854-0.02,5.711-0.02,8.567C152.299,128.505,152.303,128.505,152.309,128.505z"/>
	<path fill-rule="evenodd" clip-rule="evenodd" fill="#D9DBC8" d="M155.774,128.03c0-2.396,0.121-4.802-0.034-7.188
		c-0.163-2.484,0.853-3.626,3.303-3.615c2.968,0.013,5.935,0.009,8.903-0.007c1.294-0.007,2.183,0.29,2.218,1.879
		c0.039,1.673-0.719,2.228-2.271,2.173c-1.597-0.056-3.201,0.068-4.793-0.029c-1.91-0.116-2.622,0.639-2.606,2.577
		c0.016,1.872,0.838,2.372,2.514,2.289c1.594-0.079,3.195,0.004,4.793,0.004c1.139,0.001,1.647,0.595,1.66,1.694
		c0.012,1.107-0.483,1.696-1.635,1.69c-1.369-0.007-2.745,0.101-4.108,0.015c-2.529-0.159-3.057,1.381-3.162,3.436
		c-0.124,2.39,1.562,2.058,3.019,2.08c1.712,0.026,3.424,0.007,5.136,0.045c1.158,0.026,1.967,0.514,2.088,1.788
		c0.116,1.209-0.67,1.538-1.637,1.765c-3.949,0.925-7.944,0.466-11.912,0.314c-1.445-0.056-1.457-1.519-1.458-2.69
		c-0.001-2.74,0-5.479,0-8.219C155.787,128.03,155.78,128.03,155.774,128.03z"/>
	<path fill-rule="evenodd" clip-rule="evenodd" fill="#EEC47B" d="M111.298,164.793c0.09-2.677-0.864-5.01-2.203-7.277
		c-1.536-2.602-3.182-5.164-4.126-8.074c-0.297-0.915-1.146-1.863,0.164-2.694c1.151-0.73,2.212-0.795,3.521-0.154
		c2.511,1.229,2.421,3.963,3.711,5.882c0.58,0.864,0.4,2.467,2.021,2.26c1.333-0.17,1.596-1.414,2.055-2.47
		c1.122-2.584,1.175-5.961,5.244-6.298c1.754-0.146,1.941,0.392,1.788,1.774c-0.275,2.479-1.904,4.381-2.938,6.495
		c-2.003,4.094-4.216,7.979-3.438,12.82c0.284,1.767-0.881,2.649-2.665,2.831c-1.861,0.188-2.728-0.518-2.754-2.402
		C111.664,166.586,111.431,165.69,111.298,164.793z"/>
	<path fill-rule="evenodd" clip-rule="evenodd" fill="#D6D8C2" d="M183.232,130.211c-0.554-0.29-0.698-0.791-0.696-1.365
		c0.472-2.102,0.043-3.8-2.126-4.711c-3.53,1.445-2.027,4.581-1.797,6.81c0.208,2.018-0.326,3.998,0.185,6.027
		c0.473,1.88-1.536,1.614-2.561,1.961c-1.216,0.412-1.943-0.254-1.943-1.595c0-6.056-0.001-12.11-0.017-18.165
		c-0.003-1.222,0.441-1.979,1.779-1.944c2.324,0.062,4.885-0.666,6.202,2.297c1.523,3.426,3.268,6.754,4.757,10.194
		c1.118,2.584,1.671,0.776,2.398-0.176c0.964,0.072,1.349,0.64,1.334,1.554c-0.015,0.97,0.176,1.792,1.376,1.868
		c0.865,3.54-1.342,4.439-4.146,4.825c-0.228-0.217-0.456-0.434-0.684-0.652C186.691,134.388,185.957,131.716,183.232,130.211z"/>
	<path fill-rule="evenodd" clip-rule="evenodd" fill="#D9DECF" d="M183.305,56.01c2.537,0.632,5.087,1.217,7.604,1.92
		c1.019,0.285,2.49,0.321,2.281,1.984c-0.182,1.435-0.831,2.618-2.435,2.926c-1.954,0.376-3.911,0.74-6.379,1.206
		c2.075,2.065,4.308,1.95,6.319,2.351c1.359,0.271,2.729,0.82,2.45,2.261c-0.34,1.754-1.847,0.701-2.835,0.495
		c-3.326-0.693-6.641-1.434-9.94-2.243c-1.152-0.282-2.065-0.896-1.975-2.382c0.084-1.378,0.733-1.983,2.058-2.274
		c2.187-0.479,4.333-1.146,6.79-1.814c-1.638-2.197-4.105-1.465-5.982-2.217c-1.406-0.564-2.806-0.69-2.892-2.729
		c-0.086-2.044,1.345-1.96,2.605-2.421c3.008-1.102,6.102-1.858,9.239-2.409c0.787-0.138,2.043-1.333,2.527,0.421
		c0.418,1.519-0.414,2.527-1.814,2.754c-2.584,0.417-4.934,1.879-7.645,1.673c-0.583-1.19-1.378-1.687-2.622-0.838
		c-0.5,0.342-0.921,0.784-0.444,1.318C181.191,57.082,182.269,57.143,183.305,56.01z"/>
	<path fill-rule="evenodd" clip-rule="evenodd" fill="#D9DECF" d="M189.327,178.934c-2.719,0-5.44-0.029-8.159,0.012
		c-1.425,0.022-2.174-0.53-2.019-2.013c0.168-1.604,1.16-1.284,2.244-1.007c3.07,0.781,6.088-0.188,9.133-0.334
		c1.393-0.067,3.181-0.512,3.565,1.628c0.349,1.947-0.057,3.502-2.147,4.468c-2.308,1.068-4.908,1.696-7.126,4.142
		c2.654,0,4.86-0.008,7.066,0.003c1.132,0.006,2.131,0.364,2.154,1.663c0.023,1.318-0.977,1.679-2.109,1.688
		c-3.193,0.025-6.387-0.022-9.579,0.068c-1.557,0.044-2.681-0.322-3.083-1.977c-0.385-1.595,0.334-2.676,1.657-3.383
		c2.799-1.494,5.631-2.923,8.45-4.379C189.359,179.321,189.343,179.127,189.327,178.934z"/>
	<path fill-rule="evenodd" clip-rule="evenodd" fill="#D9DBC8" d="M184.122,145.985c2.279,0.667,4.828-1.369,7.441-0.078
		c0.58,0.287,1.659,0.089,1.726,0.831c0.264,2.925,1.062,6.073-0.848,8.639c-2.023,2.72-5.18,3.097-8.328,2.653
		c-3.263-0.46-4.28-3.057-4.969-5.815c-0.108-0.433-0.037-0.911-0.049-1.368C178.968,145.978,178.968,145.978,184.122,145.985z
		 M186.272,148.635c-1.786,0.567-4.156-0.174-4.386,2.458c-0.196,2.233,1.457,3.339,3.361,3.58c3.274,0.414,5.424-1.133,5.522-3.583
		C190.939,146.79,187.207,150.467,186.272,148.635z"/>
	<path fill-rule="evenodd" clip-rule="evenodd" fill="#D9DECF" d="M181.393,85.726c3.166,1.19,7.077,2.469,10.812,4.141
		c1.982,0.888,1.859,3.737-0.191,4.609c-3.662,1.557-7.454,2.816-11.231,4.083c-0.785,0.264-1.928,0.371-2.246-0.875
		c-0.253-0.995,0.219-1.692,1.073-2.287c3.113-2.162,3.126-4.509,0.047-7.084c-0.64-0.535-1.314-0.97-1.055-1.925
		C178.783,85.728,179.375,85.545,181.393,85.726z M186.209,93.153c0.475-0.16,1.984,0.35,1.94-1.15
		c-0.029-0.98-1.306-1.19-2.147-1.421c-1.036-0.285-1.43,0.411-1.415,1.366C184.6,92.74,184.46,93.694,186.209,93.153z"/>
	<path fill-rule="evenodd" clip-rule="evenodd" fill="#D9DECF" d="M188.027,74.646c-1.508,4.39-1.255,4.857,3.203,5.477
		c1.124,0.156,2.128,0.451,2.119,1.721c-0.009,1.263-0.987,1.681-2.137,1.683c-3.529,0.008-7.059-0.011-10.588,0.019
		c-1.304,0.011-2.251-0.251-2.184-1.852c0.061-1.466,1.056-1.495,2.135-1.561c1.302-0.082,2.804,0.456,3.712-1.041
		c1.327-2.188,0.034-4.274-2.651-4.468c-1.183-0.085-3.128,0.745-3.112-1.493c0.017-2.159,1.829-1.899,3.306-1.896
		c2.6,0.005,5.2,0.005,7.8,0.02c1.367,0.008,3.017-0.17,3.101,1.769c0.098,2.292-1.801,1.424-3,1.583
		c-0.332,0.044-0.68-0.033-1.021-0.055c0.44-0.993,2.101-0.078,2.437-1.941c-1.192,0-2.281-0.091-3.347,0.029
		c-0.859,0.097-2.168,0.268-2.055,1.3C185.88,75.151,187.233,74.427,188.027,74.646z"/>
	<path fill-rule="evenodd" clip-rule="evenodd" fill="#D9DECF" d="M187.988,159.83c3.311,0.943,6.1,2.325,6.204,6.435
		c0.132,5.279-1.359,6.895-6.864,7.158c0.308-0.789,1.571-0.406,1.79-1.778c-2.49-0.757-4.902-1.517-7.292,0.441
		c-3.495-1.821-3.275-5.002-2.384-7.926c1.01-3.317,3.88-4.424,7.215-4.332c-0.128,1.222-1.115,1.119-1.961,1.376
		c-1.378,0.419-2.875,0.848-2.815,2.779c0.011,0.18,0.002,0.359-0.024,0.536c-0.094,0.061-0.275,0.14-0.266,0.175
		c0.041,0.173,0.132,0.334,0.205,0.5c0.113,4.7,2.333,6.157,7.154,4.639c1.344-0.423,2.52-1.073,2.479-2.806
		c-0.042-1.768-0.713-3.132-2.47-3.635c-0.961-0.274-2.017-0.216-3.03-0.308c0.854-2.932,3.025,0.49,4.21-0.943
		C189.708,161.159,187.982,161.272,187.988,159.83z"/>
	<path fill-rule="evenodd" clip-rule="evenodd" fill="#EEC47B" d="M188.69,43.059c5.054,0.793,8.334-2.293,10.925-5.743
		c2.353-3.135,1.987-6.85-0.44-10.12c-0.487-0.656-0.918-1.293-0.797-2.157c4.811,3.15,5.281,10.561,1.166,14.807
		c-4.026,4.153-9.024,4.68-14.368,4.725c-4.091,0.034-7.899-0.317-10.94-3.459c-0.981-1.013-1.772-2.071-1.988-3.49
		c0.008-0.929,0.015-1.858,0.023-2.787c0.643,0.779,1.68,1.479,1.858,2.353c0.694,3.4,2.943,4.722,6.046,5.479
		C183.025,43.363,185.857,42.881,188.69,43.059z"/>
	<path fill-rule="evenodd" clip-rule="evenodd" fill="#D9DECF" d="M185.825,200.238c0.915,0,1.835-0.065,2.743,0.014
		c1.917,0.166,3.117-0.341,2.925-2.587c-0.067-0.788,0.08-1.762,1.155-1.732c1.073,0.029,1.543,0.798,1.536,1.876
		c-0.017,2.744,0.003,5.486-0.014,8.227c-0.004,0.685-0.034,1.453-0.94,1.558c-0.687,0.081-1.041-0.421-1.12-1.032
		c-0.381-2.928-2.35-3.161-4.73-2.95c-1.587,0.14-3.199,0.068-4.797,0.015c-1.174-0.038-2.715,0.401-2.764-1.597
		c-0.054-2.205,1.647-1.75,2.923-1.84c1.023-0.073,2.055-0.015,3.083-0.015C185.825,200.195,185.825,200.218,185.825,200.238z"/>
	<path fill-rule="evenodd" clip-rule="evenodd" fill="#D9DECF" d="M161.253,192.639c0.001-4.215,0.693-4.816,4.988-4.318
		c0.337,0.04,0.667,0.154,1.004,0.189c5.67,0.583,5.668,0.582,6.192,6.217c0.074,0.807,0.252,1.728-0.858,1.882
		c-0.941,0.13-1.426-0.544-1.616-1.41c-0.048-0.221-0.013-0.46-0.064-0.68c-0.271-1.165,0.727-3.26-1.497-3.084
		c-2.132,0.169-1.118,2.031-0.998,3.255c0.062,0.627,0.119,1.144-0.635,1.289c-0.749,0.146-1.422-0.036-1.567-0.871
		c-0.154-0.893-0.121-1.815-0.221-2.719c-0.071-0.653-0.504-0.985-1.151-1.025c-0.775-0.048-1.336,0.224-1.465,1.061
		c-0.051,0.336,0,0.692-0.08,1.019c-0.268,1.087,0.716,3.094-1.069,3.034c-1.647-0.056-0.699-2.041-0.956-3.157
		C161.208,193.104,161.252,192.866,161.253,192.639z"/>
	<path fill-rule="evenodd" clip-rule="evenodd" fill="#D9DECF" d="M120.2,131.575c2.616,0.379,1.916,2.791,2.458,4.313
		c0.495,1.392,0.7,2.704,2.528,2.488c1.672-0.199,1.672-1.515,1.778-2.814c0.072-0.878,0.425-1.734,0.652-2.599
		c0.47-4.643,3.321-8.93,2.833-13.716c-0.371-0.066-0.743-0.132-1.113-0.198c-0.802,3.723-1.604,7.447-2.406,11.169
		c-0.427,0.008-0.853,0.017-1.278,0.024c0.628-3.454,1.378-6.891,1.842-10.367c0.332-2.492,2.06-2.138,3.552-1.944
		c2.281,0.296,0.951,1.874,0.727,2.888c-1.155,5.214-2.408,10.406-3.598,15.611c-0.432,1.89-1.297,2.882-3.502,2.795
		c-2.003-0.08-2.876-0.857-3.224-2.714C121.134,134.846,120.624,133.218,120.2,131.575z"/>
	<path fill-rule="evenodd" clip-rule="evenodd" fill="#D9DECF" d="M171.659,177.166c0.52-0.139,0.943,0.011,1.103,0.501
		c0.313,0.962,0.123,2.004-0.761,2.407c-3.398,1.547-2.822,2.757,0.12,4.127c0.907,0.423,1.117,1.538,0.492,2.365
		c-0.601,0.797-1.158-0.071-1.705-0.362c-2.693-1.434-5.38-2.911-8.579-2.734c-0.918,0.05-1.126-0.613-1.392-1.222
		c-0.28-0.644,0.007-1.257,0.612-1.33C165.224,180.47,168.331,178.523,171.659,177.166z"/>
	<path fill-rule="evenodd" clip-rule="evenodd" fill="#CAC39A" d="M238.115,271.427c2.693-1.325,5.308,0.307,8.001,0.268
		c9.229-0.137,18.386-0.308,27.065-4.047c0.782-0.338,1.806-0.115,2.717-0.153c-0.183,0.889-0.822,1.372-1.61,1.596
		c-11.484,3.263-23.095,5.121-35.037,3.001C238.845,272.018,238.493,271.654,238.115,271.427z"/>
	<path fill-rule="evenodd" clip-rule="evenodd" fill="#D9DECF" d="M187.977,137.791c2.804-0.386,5.011-1.285,4.146-4.824
		c0-2.167,0-4.333,0-6.608c-1.618,0.27-1.41,2.013-2.718,1.813c-0.218-2.791-0.564-5.581-0.604-8.375
		c-0.022-1.607,0.833-2.713,2.769-2.635c1.491,0.06,1.992,0.747,1.922,2.113c-0.045,0.899-0.042,1.801-0.061,2.702
		c-1.155-0.761-0.465-3.596-2.472-2.953c-2.457,0.787-0.37,2.629-0.229,4.009c0.056,0.53-0.046,1.185,0.775,1.401
		c0.629-0.573,1.283-1.167,1.936-1.76c0.024,4.343,0.049,8.687,0.072,13.03c-0.707,0.456-0.72,0.916-0.01,1.381
		C191.941,139.521,189.95,138.58,187.977,137.791z"/>
	<path fill-rule="evenodd" clip-rule="evenodd" fill="#D9DECF" d="M173.589,204.62c-0.113,1.073,0.313,2.513-1.201,2.807
		c-1.175,0.227-1.381-0.907-1.533-1.817c-0.241-1.45-1.354-1.281-2.361-1.29c-1.813-0.016-3.627-0.006-5.441-0.018
		c-0.846-0.006-1.619-0.168-1.705-1.22c-0.104-1.279,0.759-1.488,1.752-1.496c1.699-0.016,3.405,0.067,5.099-0.04
		c1.382-0.087,3.161,0.155,2.815-2.242c-0.096-0.667,0.398-1.113,1.038-0.969c0.322,0.071,0.714,0.574,0.777,0.932
		C173.139,201.042,173.348,202.832,173.589,204.62z"/>
	<path fill-rule="evenodd" clip-rule="evenodd" fill="#D9DECF" d="M190.765,105.493c-3.082,0.01-6.163,0.022-9.245,0.028
		c-1.144,0.001-2.318,0.165-2.448-1.571c-0.142-1.922,1.307-1.44,2.279-1.639c2.888-0.592,5.828,0.531,8.717-0.236
		C189.362,103.406,190.502,104.361,190.765,105.493z"/>
	<path fill-rule="evenodd" clip-rule="evenodd" fill="#CAC39A" d="M260.944,179.46c-1.713,1.38-3.51,0.048-5.267,0.115
		c-5.673,0.217-11.357-0.151-17.02,0.699c-2.497,0.375-4.594,2.714-7.394,1.477c3.994-2.539,8.522-2.591,13.029-2.919
		C249.879,178.424,255.434,178.195,260.944,179.46z"/>
	<path fill-rule="evenodd" clip-rule="evenodd" fill="#CAC39A" d="M171.564,34.129c-1.008-1.049-0.587-1.881,0.497-2.429
		c3.798-1.92,8.121,0.323,8.516,4.381c0,0-0.131,0.141-0.131,0.141c-0.977-0.137-1.501-0.699-1.994-1.583
		c-1.25-2.245-3.282-2.655-5.629-1.956c-0.194,0.253-0.389,0.507-0.583,0.761l-0.026,0.035c-0.184,0.194-0.367,0.388-0.55,0.582
		L171.564,34.129z"/>
	<path fill-rule="evenodd" clip-rule="evenodd" fill="#EEC47B" d="M191.63,30.03c2.81,0.074,3.364,2.047,3.067,4.174
		c-0.466,3.337-2.52,4.729-5.831,4.394c1.074-0.774,2.459-1.339,3.153-2.368C193.386,34.207,193.88,31.958,191.63,30.03z"/>
	<path fill-rule="evenodd" clip-rule="evenodd" fill="#CAC39A" d="M224.376,267.402c3.641-0.592,6.403,2.151,9.787,2.599
		c0.915,0.119,2.116-0.058,2.664,1.104C232.23,271.371,228.19,269.768,224.376,267.402z"/>
	<path fill-rule="evenodd" clip-rule="evenodd" fill="#D5D7BF" d="M181.881,163.984c-0.061-1.931,1.437-2.36,2.815-2.779
		c0.846-0.257,1.833-0.155,1.961-1.376c0.444,0,0.887,0,1.331,0c-0.005,1.444,1.72,1.331,2.151,2.315
		c-1.186,1.433-3.356-1.989-4.21,0.944C184.58,163.387,183.23,163.686,181.881,163.984z"/>
	<path fill-rule="evenodd" clip-rule="evenodd" fill="#D9DECF" d="M193.852,194.989c-0.536-0.184-1.138-0.254-1.564-0.565
		c-1.104-0.802-3.203-0.635-3.121-2.546c0.038-0.91,1.348-0.658,2.042-0.471C192.913,191.862,195.023,192.144,193.852,194.989z"/>
	<path fill-rule="evenodd" clip-rule="evenodd" fill="#D5D7BF" d="M193.44,122.675c-0.653,0.594-1.306,1.188-1.936,1.76
		c-0.821-0.217-0.719-0.872-0.775-1.401c-0.141-1.38-2.227-3.222,0.229-4.009c2.007-0.643,1.317,2.191,2.472,2.953
		C193.434,122.209,193.437,122.442,193.44,122.675z"/>
	<path fill-rule="evenodd" clip-rule="evenodd" fill="#D5D7BF" d="M190.765,105.493c-0.263-1.132-1.403-2.087-0.697-3.418
		c0.177-0.063,0.359-0.098,0.549-0.106c0.863,0.513,1.76,0.911,2.798,0.829c0.004,1.14,0.008,2.279,0.012,3.417
		c-0.887,2.632-1.698-0.191-2.55-0.036C190.838,105.95,190.802,105.721,190.765,105.493z"/>
	<path fill-rule="evenodd" clip-rule="evenodd" fill="#D9DECF" d="M193.414,102.797c-1.038,0.082-1.935-0.315-2.798-0.829
		c0.661-1.248-0.825-4.014,1.567-3.737C194.797,98.534,193.036,101.213,193.414,102.797z"/>
	<path fill-rule="evenodd" clip-rule="evenodd" fill="#D5D7BF" d="M181.826,172.086c2.39-1.958,4.801-1.198,7.292-0.441
		c-0.218,1.372-1.482,0.989-1.79,1.778c-0.461-0.008-0.922-0.014-1.383-0.021c-1.217-0.918-2.61-1.289-4.114-1.313L181.826,172.086z
		"/>
	<path fill-rule="evenodd" clip-rule="evenodd" fill="#D5D7BF" d="M189.405,128.172c1.308,0.2,1.1-1.544,2.718-1.813
		c0,2.275,0,4.441,0,6.608c-1.201-0.077-1.392-0.898-1.376-1.869c0.015-0.914-0.37-1.482-1.334-1.554
		C189.41,129.086,189.407,128.629,189.405,128.172z"/>
	<path fill-rule="evenodd" clip-rule="evenodd" fill="#D9DECF" d="M183.232,130.211c2.725,1.505,3.459,4.176,4.062,6.927
		C184.687,135.564,184.165,132.767,183.232,130.211z"/>
	<path fill-rule="evenodd" clip-rule="evenodd" fill="#D5D7BF" d="M188.027,74.646c-0.794-0.219-2.147,0.505-2.282-0.707
		c-0.114-1.033,1.195-1.203,2.055-1.3c1.066-0.12,2.155-0.029,3.347-0.029c-0.335,1.863-1.997,0.948-2.437,1.941
		C188.483,74.583,188.255,74.614,188.027,74.646z"/>
	<path fill-rule="evenodd" clip-rule="evenodd" fill="#CAC39A" d="M164.475,21.843c-3.106-0.418-6.307,0.653-9.362-0.583
		C158.25,21.195,161.491,19.44,164.475,21.843z"/>
	<path fill-rule="evenodd" clip-rule="evenodd" fill="#D9DECF" d="M190.876,106.178c0.853-0.155,1.664,2.668,2.55,0.036
		c0.017,0.558,0.057,1.118,0.045,1.675c-0.016,0.817-0.119,1.61-1.189,1.677c-1.228,0.076-1.509-0.707-1.495-1.716
		C190.795,107.292,190.845,106.736,190.876,106.178z"/>
	<path fill-rule="evenodd" clip-rule="evenodd" fill="#D5D7BF" d="M183.305,56.01c-1.036,1.132-2.114,1.072-3.087-0.019
		c-0.477-0.535-0.056-0.977,0.444-1.318c1.243-0.849,2.039-0.352,2.622,0.838C183.261,55.679,183.268,55.845,183.305,56.01z"/>
	<path fill-rule="evenodd" clip-rule="evenodd" fill="#D9DECF" d="M180.41,124.135c2.169,0.911,2.598,2.609,2.126,4.711
		C181.75,127.311,180.394,126.033,180.41,124.135z"/>
	<path fill-rule="evenodd" clip-rule="evenodd" fill="#CAC39A" d="M148.02,19.749c-0.733-2.077-0.834-4.146,0.064-6.207
		C148.347,15.613,148.683,17.686,148.02,19.749z"/>
	<path fill-rule="evenodd" clip-rule="evenodd" fill="#CAC39A" d="M154.443,21.023c-1.16,1.17-2.356,1.088-3.579,0.105
		C152.025,20.027,153.234,20.51,154.443,21.023z"/>
	<path fill-rule="evenodd" clip-rule="evenodd" fill="#CAC39A" d="M289.063,388.792c-1.822,0.245-3.634,0.448-4.948-1.278
		C285.894,387.444,287.569,387.767,289.063,388.792z"/>
	<path fill-rule="evenodd" clip-rule="evenodd" fill="#CAC39A" d="M283.403,367.096c1.233-1.028,2.469-2.048,4.173-0.901
		C286.389,367.435,284.73,366.502,283.403,367.096z"/>
	<path fill-rule="evenodd" clip-rule="evenodd" fill="#D9DECF" d="M181.83,172.089c1.504,0.024,2.897,0.395,4.114,1.313
		C184.443,173.373,182.752,173.936,181.83,172.089z"/>
	<path fill-rule="evenodd" clip-rule="evenodd" fill="#CAC39A" d="M288.867,366.02c1.463-0.782,2.642-0.579,3.425,0.99
		C291,367.198,290.007,366.354,288.867,366.02z"/>
	<path fill-rule="evenodd" clip-rule="evenodd" fill="#CAC39A" d="M292.325,388.283c-0.592,0.794-1.418,0.636-2.228,0.543
		C290.605,387.687,291.307,387.333,292.325,388.283z"/>
	<path fill-rule="evenodd" clip-rule="evenodd" fill="#CAC39A" d="M182.071,37.701c-0.313-0.021-0.625-0.041-0.938-0.062
		c-0.229-0.473-0.458-0.945-0.688-1.417c0,0,0.131-0.14,0.131-0.141C181.363,36.355,182.193,36.589,182.071,37.701z"/>
	<path fill-rule="evenodd" clip-rule="evenodd" fill="#CAC39A" d="M172.271,34.835c-0.008,0.928-0.015,1.857-0.023,2.787
		c-1.098-0.993-0.571-2.305-0.684-3.493c0,0,0.099-0.068,0.098-0.067c0.181,0.048,0.368,0.076,0.557,0.085
		C172.237,34.376,172.253,34.606,172.271,34.835z"/>
	<path fill-rule="evenodd" clip-rule="evenodd" fill="#CAC39A" d="M284.126,387.502c-0.877,0.091-1.348-0.326-1.472-1.177
		C283.46,386.324,284.067,386.568,284.126,387.502z"/>
	<path fill-rule="evenodd" clip-rule="evenodd" fill="#CAC39A" d="M149.676,21.148c-1.154,0.96-1.373,0.181-1.485-0.798
		C148.795,20.411,149.338,20.589,149.676,21.148z"/>
	<path fill-rule="evenodd" clip-rule="evenodd" fill="#CAC39A" d="M151.62,12.672c0.63-0.641,1.314-0.649,2.039-0.178
		C153.014,12.938,152.322,12.862,151.62,12.672z"/>
	<path fill-rule="evenodd" clip-rule="evenodd" fill="#CAC39A" d="M148.216,13.014c0.457-1.095,1.196-0.972,2.023-0.471
		C149.564,12.699,148.89,12.856,148.216,13.014z"/>
	<path fill-rule="evenodd" clip-rule="evenodd" fill="#D6D8C2" d="M193.502,137.086c-0.71-0.465-0.697-0.925,0.01-1.381
		C193.509,136.165,193.506,136.625,193.502,137.086z"/>
	<path fill-rule="evenodd" clip-rule="evenodd" fill="#CAC39A" d="M282.065,368.414c0.18-0.576,0.646-0.76,1.173-0.868
		C283.109,368.188,282.67,368.413,282.065,368.414z"/>
	<path fill-rule="evenodd" clip-rule="evenodd" fill="#EEC47B" d="M186.61,38.891c-0.383,0.755-0.831,0.778-1.336,0.116
		C185.719,38.969,186.165,38.929,186.61,38.891z"/>
	<path fill-rule="evenodd" clip-rule="evenodd" fill="#EEC47B" d="M187.296,38.421c-0.237,0.167-0.474,0.333-0.711,0.5
		C186.685,38.56,186.876,38.327,187.296,38.421z"/>
	<path fill-rule="evenodd" clip-rule="evenodd" fill="#CAC39A" d="M292.288,366.999c0.228,0.235,0.455,0.468,0.684,0.701
		C292.743,367.467,292.516,367.234,292.288,366.999z"/>
	<path fill-rule="evenodd" clip-rule="evenodd" fill="#CAC39A" d="M292.964,367.688c0.23,0.284,0.461,0.57,0.692,0.857
		C293.426,368.259,293.195,367.974,292.964,367.688z"/>
	<path fill-rule="evenodd" clip-rule="evenodd" fill="#CAC39A" d="M281.382,369.22c0.231-0.278,0.464-0.558,0.694-0.836
		C281.846,368.662,281.613,368.941,281.382,369.22z"/>
	<path fill-rule="evenodd" clip-rule="evenodd" fill="#EEC47B" d="M190.834,29.339c0.186,0.154,0.371,0.309,0.557,0.462
		C191.205,29.645,191.019,29.492,190.834,29.339z"/>
	<path fill-rule="evenodd" clip-rule="evenodd" fill="#EEC47B" d="M231.327,147.28c1.99-0.129,3.687,0.736,5.385,1.595
		C234.482,149.809,232.861,148.69,231.327,147.28z"/>
	<path fill-rule="evenodd" clip-rule="evenodd" fill="#EEC47B" d="M228.5,146.102c1.119-0.075,2.132,0.108,2.785,1.155
		C230.086,147.524,229.105,147.264,228.5,146.102z"/>
	<path fill-rule="evenodd" clip-rule="evenodd" fill="#CAC39A" d="M244.349,201.412c-5.325,1.115-10.65,2.23-15.976,3.344
		C230.127,202.665,242.063,200.167,244.349,201.412z"/>
	<path fill-rule="evenodd" clip-rule="evenodd" fill="#CAC39A" d="M275.921,206.199c-3.382-0.933-6.859-1.633-9.703-3.903
		C269.77,202.81,273.385,203.161,275.921,206.199z"/>
	<path fill-rule="evenodd" clip-rule="evenodd" fill="#CAC39A" d="M251.923,200.972c-2.044,1.16-4.195,0.563-6.321,0.384
		C247.679,200.728,249.729,199.684,251.923,200.972z"/>
	<path fill-rule="evenodd" clip-rule="evenodd" fill="#CAC39A" d="M228.04,205.07c-0.609,1.814-2.339,1.548-3.689,1.985
		C224.854,205.045,226.462,205.085,228.04,205.07z"/>
	<path fill-rule="evenodd" clip-rule="evenodd" fill="#CAC39A" d="M262.951,202.149c-1.508,0.249-3.005,0.411-4.341-0.6
		C260.273,200.177,261.601,201.254,262.951,202.149z"/>
	<path fill-rule="evenodd" clip-rule="evenodd" fill="#CAC39A" d="M220.953,209.814c-0.257,1.247-0.547,2.468-2.138,2.633
		C219.157,211.269,219.365,209.981,220.953,209.814z"/>
	<path fill-rule="evenodd" clip-rule="evenodd" fill="#CAC39A" d="M256.694,201.401c-1.373,1.466-2.422,0.193-3.549-0.419
		C254.359,200.858,255.595,200.547,256.694,201.401z"/>
	<path fill-rule="evenodd" clip-rule="evenodd" fill="#CAC39A" d="M224.36,207.051c-0.335,1.465-1.48,1.852-2.755,2.069
		C221.864,207.553,223.103,207.29,224.36,207.051z"/>
	<path fill-rule="evenodd" clip-rule="evenodd" fill="#CAC39A" d="M265.558,202.172c-0.465-0.028-0.93-0.056-1.396-0.085
		C264.663,201.538,265.13,201.542,265.558,202.172z"/>
	<path fill-rule="evenodd" clip-rule="evenodd" fill="#CAC39A" d="M221.622,209.114c-0.228,0.239-0.455,0.479-0.683,0.72
		C221.167,209.593,221.395,209.354,221.622,209.114z"/>
	<path fill-rule="evenodd" clip-rule="evenodd" fill="#CAC39A" d="M218.755,212.517c-0.2,0.229-0.4,0.456-0.602,0.685
		C218.354,212.973,218.555,212.745,218.755,212.517z"/>
	<path fill-rule="evenodd" clip-rule="evenodd" fill="#F8C06C" d="M172.271,34.835c-0.018-0.229-0.034-0.459-0.052-0.688
		c0.011-0.223,0.009-0.445-0.006-0.668c0,0,0.026-0.035,0.026-0.034c0.194-0.254,0.389-0.508,0.583-0.762
		c2.347-0.699,4.379-0.289,5.629,1.956c0.493,0.884,1.017,1.446,1.994,1.583c0.229,0.472,0.458,0.944,0.688,1.417
		c-0.379,1.15-0.758,2.3-1.16,3.519c2.97,0.711,6.607-2.082,8.716,1.902c-2.833-0.178-5.665,0.304-8.516-0.392
		c-3.103-0.757-5.352-2.079-6.046-5.479C173.951,36.314,172.914,35.615,172.271,34.835z"/>
	<path fill-rule="evenodd" clip-rule="evenodd" fill="#CAC39A" d="M182.516,384.15c0.008-2.95,0.332-5.939-0.046-8.84
		c-0.646-4.958-5.134-7.445-11.605-6.821c4.316-2.105,10.149-0.344,11.532,3.897C183.635,376.187,184.721,380.214,182.516,384.15z"
		/>
	<path fill-rule="evenodd" clip-rule="evenodd" fill="#D5D7BF" d="M126.93,130.218c0.802-3.723,1.604-7.446,2.406-11.169
		c0.37,0.066,0.742,0.132,1.113,0.198c0.488,4.787-2.363,9.074-2.833,13.716C126.615,132.241,127.036,131.164,126.93,130.218z"/>
	<path fill-rule="evenodd" clip-rule="evenodd" fill="#F8C06C" d="M169.881,146.676c1.587,3.074,0.862,5.642,0.822,8.108
		c-0.007,0.419-0.505,0.739-1.038,0.635c-0.714-0.139-0.993-0.788-0.79-1.275C169.768,152.01,168.555,149.707,169.881,146.676z"/>
	<path fill-rule="evenodd" clip-rule="evenodd" fill="#F8C06C" d="M170.411,157.646c0.127,1.994,0.287,3.72,0.321,5.449
		c0.011,0.586-0.491,1.125-1.085,1.138c-0.709,0.018-0.918-0.644-0.83-1.221C169.082,161.275,167.884,159.129,170.411,157.646z"/>
	<path fill-rule="evenodd" clip-rule="evenodd" fill="#D5D7BF" d="M181.857,164.52c0.003,0.227-0.017,0.453-0.061,0.676
		c-0.073-0.166-0.164-0.327-0.205-0.5C181.582,164.66,181.763,164.581,181.857,164.52z"/>
	<path fill-rule="evenodd" clip-rule="evenodd" fill="#EEC47B" d="M172.213,33.479c0.015,0.223,0.017,0.445,0.006,0.668
		c-0.189-0.009-0.375-0.038-0.557-0.085C171.847,33.867,172.03,33.673,172.213,33.479z"/>
	<path fill-rule="evenodd" clip-rule="evenodd" fill="#EEC47B" d="M172.823,32.684c-0.194,0.254-0.39,0.507-0.583,0.762
		C172.435,33.191,172.629,32.937,172.823,32.684z"/>
</g>
</svg>
