<?xml version="1.0" encoding="utf-8"?>
<!-- Generator: Adobe Illustrator 16.0.0, SVG Export Plug-In . SVG Version: 6.00 Build 0)  -->
<!DOCTYPE svg PUBLIC "-//W3C//DTD SVG 1.1//EN" "http://www.w3.org/Graphics/SVG/1.1/DTD/svg11.dtd">
<svg version="1.1" id="Layer_1" xmlns="http://www.w3.org/2000/svg" xmlns:xlink="http://www.w3.org/1999/xlink" x="0px" y="0px"
	 width="400px" height="400px" viewBox="0 0 400 400" enable-background="new 0 0 400 400" xml:space="preserve">
<g>
	<path fill-rule="evenodd" clip-rule="evenodd" fill="#010101" d="M29.058,291.912c-7.508,0-15.016,0-22.524,0
		c-0.402,0-0.806,0.012-1.207-0.005c-0.386-0.015-0.832,0.045-0.872-0.543c-0.051-0.755,0.508-0.664,0.954-0.662
		c2.951,0.013,5.897-0.052,8.83-0.418c6.969-0.871,6.475-1.219,6.489-6.822c0.049-19.575,0.045-39.15,0.002-58.725
		c-0.012-5.715,0.239-5.707-6.184-6.776c-2.841-0.474-5.736-0.51-8.624-0.496c-0.501,0.003-1.376,0.407-1.436-0.537
		c-0.063-0.989,0.831-0.642,1.331-0.642c15.083-0.016,30.171-0.232,45.249,0.058c16.945,0.326,32.5,14.817,34.579,31.649
		c1.09,8.83,0.521,17.478-3.855,25.373c-6.832,12.327-17.639,18.277-31.617,18.524C43.138,292.016,36.097,291.912,29.058,291.912z
		 M35.003,253.882c0,10.323-0.033,20.646,0.015,30.97c0.022,4.851,0.915,5.708,5.778,5.794c3.552,0.064,7.11,0.15,10.657,0.011
		c6.242-0.248,11.16-2.929,14.475-8.342c1.659-2.708,2.775-5.638,3.511-8.7c2.328-9.688,2.509-19.509,1.46-29.355
		c-0.698-6.56-2.216-12.92-5.897-18.558c-3.022-4.63-7.187-7.648-12.753-8.092c-3.792-0.303-7.646-0.194-11.449,0.07
		c-5.308,0.369-5.793,1.045-5.797,6.439C34.995,234.04,35,243.96,35.003,253.882z"/>
	<path fill-rule="evenodd" clip-rule="evenodd" fill="#030303" d="M352.865,291.922c-11.935-0.001-23.87-0.001-35.806-0.001
		c-0.402,0-0.805,0.018-1.206-0.005c-0.432-0.021-0.996,0.159-0.987-0.615c0.009-0.77,0.575-0.599,1.002-0.599
		c2.883-0.004,5.766-0.015,8.63-0.415c0.133-0.019,0.268-0.012,0.401-0.024c5.032-0.491,5.737-1.156,5.744-6.144
		c0.029-20.316,0.019-40.633-0.016-60.949c-0.007-3.814-0.513-4.295-4.293-4.848c-3.316-0.485-6.643-0.853-10.004-0.857
		c-0.489-0.001-1.349,0.447-1.433-0.523c-0.091-1.063,0.818-0.653,1.301-0.654c23.199-0.021,46.398-0.008,69.598-0.045
		c1.231-0.002,1.396,0.471,1.393,1.521c-0.032,8.783-0.01,17.566-0.038,26.35c-0.002,0.552,0.445,1.481-0.699,1.524
		c-1.336,0.05-0.764-1.026-0.805-1.603c-0.466-6.545-2.354-12.612-6.076-18.041c-3.868-5.643-9.152-8.696-16.12-8.505
		c-5.014,0.139-10.061-0.404-15.022,0.777c-2.661,0.633-3.283,1.269-3.294,3.947c-0.035,9.387-0.014,18.774-0.042,28.161
		c-0.002,0.857,0.069,1.327,1.151,1.321c3.495-0.021,6.958-0.261,10.394-0.928c3.154-0.612,4.97-2.684,6.139-5.502
		c1.866-4.497,2.605-9.252,3.216-14.036c0.067-0.531,0.117-1.066,0.224-1.589c0.107-0.524,0.542-0.5,0.952-0.484
		c0.454,0.017,0.509,0.331,0.513,0.682c0.005,0.401,0.005,0.805,0.005,1.207c0,14.147,0,28.295,0,42.442
		c0,0.269,0.019,0.538-0.004,0.804c-0.041,0.482,0.216,1.121-0.68,1.14c-0.784,0.016-0.857-0.529-0.905-1.06
		c-0.26-2.871-0.744-5.708-1.331-8.526c-0.424-2.031-1.028-4.008-1.748-5.958c-1.317-3.567-3.671-5.733-7.572-6.279
		c-3.063-0.43-6.114-0.707-9.202-0.731c-0.85-0.006-1.159,0.203-1.155,1.112c0.041,10.93,0.047,21.858,0.05,32.787
		c0.001,1.459,0.646,2.437,2.038,2.864c0.954,0.293,1.921,0.669,2.902,0.735c6.484,0.442,12.992,0.902,19.393-0.68
		c7.744-1.913,12.78-6.948,15.833-14.154c2.211-5.223,3.288-10.726,4.005-16.315c0.034-0.266,0.036-0.535,0.042-0.803
		c0.016-0.678,0.182-1.164,1.03-1.121c0.905,0.045,0.646,0.698,0.647,1.169c0.016,4.559,0.01,9.118,0.01,13.678
		c0,5.9-0.097,11.803,0.057,17.7c0.049,1.882-0.569,2.12-2.225,2.11C376.869,291.89,364.866,291.922,352.865,291.922z"/>
	<path fill-rule="evenodd" clip-rule="evenodd" fill="#040404" d="M347.082,145.846c-0.522,0.702-0.354,1.251-0.354,1.755
		c-0.011,10.727-0.027,21.452,0.021,32.179c0.009,1.936,0.183,3.888,0.473,5.803c0.948,6.25,3.98,8.929,10.341,9.33
		c0.736,0.046,1.566-0.241,2.619,0.632c-20.893,0-41.361,0-61.846,0c0.057-0.942,0.771-0.587,1.202-0.591
		c2.682-0.027,5.362-0.019,8.021-0.449c2.675-0.433,3.333-1.47,2.443-3.984c-1.67-4.724-3.411-9.422-5.024-14.164
		c-0.382-1.123-0.83-1.57-2.079-1.55c-4.96,0.083-9.923,0.076-14.883,0.003c-1.139-0.018-1.643,0.333-1.975,1.399
		c-0.855,2.74-1.905,5.421-2.733,8.169c-2.018,6.692,0.485,10.171,7.478,10.546c0.596,0.032,1.301-0.219,2.082,0.65
		c-8.217,0-16.094,0-23.981,0c-0.015-0.839,0.598-0.611,0.999-0.641c4.609-0.33,7.929-2.6,10.016-6.684
		c3.021-5.913,4.935-12.264,7.198-18.473c4.026-11.046,7.958-22.126,11.945-33.186c0.248-0.686,0.182-1.624,1.397-1.625
		c1.211,0,1.161,0.948,1.413,1.624c6.521,17.529,13.021,35.065,19.524,52.602c0.023,0.062,0.023,0.133,0.047,0.195
		c1.823,4.9,2.525,5.432,7.734,5.514c2.874,0.046,5.752,0.213,8.611-0.37c3.705-0.757,6.133-2.753,6.966-6.563
		c0.476-2.173,0.756-4.348,0.755-6.568c-0.006-10.995,0.019-21.989-0.002-32.984c-0.013-7.179-3.955-11.311-11.153-11.786
		c-0.476-0.031-1.051,0.181-1.507-0.51c0.653-0.495,1.325-0.31,1.93-0.312c5.296-0.015,10.594,0.034,15.889-0.041
		c1.22-0.017,1.902,0.419,2.619,1.354c10.192,13.289,20.425,26.547,30.66,39.804c0.518,0.671,0.913,1.482,1.774,1.864
		c0.638-0.544,0.373-1.263,0.374-1.88c0.019-8.783,0.028-17.565-0.017-26.347c-0.009-1.668-0.159-3.353-0.427-5
		c-0.942-5.802-4.083-8.457-10.347-8.907c-0.817-0.059-1.696,0.186-2.444-0.617c8.715,0,17.431,0,26.155,0
		c0.051,0.785-0.567,0.555-0.969,0.582c-7.344,0.489-10.316,3.399-10.612,10.862c-0.225,5.69-0.147,11.393-0.16,17.091
		c-0.021,9.653,0.011,19.309-0.04,28.962c-0.004,0.724,0.68,1.849-0.604,2.19c-1.148,0.305-1.933-0.232-2.671-1.214
		c-11.639-15.469-23.322-30.904-35-46.344C348.36,147.399,347.737,146.663,347.082,145.846z M295.478,150.122
		c-2.896,8.185-5.649,15.965-8.431,23.823c5.696,0,11.168,0,16.882,0C301.118,166.023,298.361,158.25,295.478,150.122z"/>
	<path fill-rule="evenodd" clip-rule="evenodd" fill="#040404" d="M236.115,270.886c0.551-0.652,0.395-1.354,0.395-1.988
		c-0.007-11.936-0.022-23.871-0.07-35.807c-0.011-2.488-0.475-4.916-1.177-7.31c-1.427-4.865-4.999-7.058-9.686-7.848
		c-1.447-0.245-2.931-0.271-4.393-0.448c-0.498-0.06-1.37,0.382-1.31-0.682c0.052-0.885,0.808-0.513,1.252-0.518
		c2.682-0.035,5.364-0.018,8.047-0.018c7.242,0,14.483,0,21.726,0c0.402,0,0.805-0.014,1.207,0.005
		c0.371,0.016,0.821-0.1,0.879,0.507c0.067,0.719-0.402,0.681-0.894,0.724c-1.465,0.127-2.951,0.176-4.388,0.462
		c-5.505,1.1-8.396,4.733-9.176,11.404c-0.279,2.398-0.426,4.802-0.423,7.222c0.021,17.77,0.021,35.539-0.021,53.309
		c-0.002,0.794,0.639,2.051-0.579,2.361c-1.2,0.307-2.298,0.086-3.262-1.205c-14.872-19.914-29.823-39.771-44.761-59.638
		c-0.593-0.788-1.234-1.54-1.866-2.323c-0.798,0.577-0.554,1.301-0.555,1.912c-0.011,13.411-0.021,26.821,0.022,40.232
		c0.008,2.814,0.284,5.623,0.769,8.4c1.276,7.315,5.126,10.555,13.053,11.005c0.669,0.038,1.34,0.036,2.011,0.048
		c0.369,0.005,0.634,0.101,0.665,0.545c0.038,0.546-0.246,0.698-0.723,0.684c-0.335-0.009-0.67,0-1.006,0
		c-10.192,0-20.384,0-30.577,0c-0.268,0-0.537,0.01-0.804-0.002c-0.385-0.017-0.813,0.057-0.852-0.545
		c-0.049-0.743,0.458-0.689,0.927-0.685c2.088,0.023,4.128-0.285,6.161-0.762c4.303-1.006,6.797-3.722,7.823-7.955
		c0.877-3.618,0.982-7.3,0.992-10.984c0.032-12.472,0.027-24.944-0.004-37.416c-0.004-1.735-0.051-3.508-0.396-5.199
		c-1.324-6.515-6.243-10.446-13.37-10.848c-0.334-0.02-0.672,0.004-1.004-0.033c-0.473-0.052-1.175,0.238-1.125-0.683
		c0.042-0.771,0.647-0.53,1.049-0.531c7.443-0.015,14.886,0.015,22.329-0.038c1.136-0.008,1.478,0.79,1.976,1.44
		c12.886,16.799,25.754,33.612,38.641,50.413C234.37,269.073,234.98,270.207,236.115,270.886z"/>
	<path fill-rule="evenodd" clip-rule="evenodd" fill="#030303" d="M147.467,291.913c-6.703,0-13.407,0.014-20.11-0.025
		c-0.529-0.003-1.559,0.53-1.534-0.601c0.024-1.098,1.034-0.555,1.573-0.563c3.016-0.056,6.029-0.061,9.032-0.424
		c1.005-0.122,1.983-0.301,2.921-0.67c1.477-0.579,2.137-1.657,1.595-3.186c-2.348-6.608-4.762-13.194-7.105-19.805
		c-0.302-0.851-0.834-0.879-1.539-0.877c-6.704,0.012-13.407,0.02-20.111-0.01c-0.833-0.003-1.339,0.153-1.632,1.038
		c-1.237,3.742-2.665,7.424-3.799,11.195c-2.361,7.845,0.645,12.021,8.955,12.65c0.667,0.05,1.34,0.038,2.01,0.06
		c0.389,0.013,0.813-0.056,0.853,0.546c0.038,0.556-0.26,0.672-0.723,0.672c-9.452-0.003-18.903-0.001-28.355-0.002
		c-0.411-0.001-0.812,0.004-0.805-0.598c0.006-0.567,0.363-0.609,0.793-0.624c7.693-0.253,11.887-4.9,14.624-11.506
		c4.887-11.794,8.832-23.933,13.242-35.901c3.209-8.71,6.307-17.463,9.466-26.192c0.276-0.763,0.29-1.646,1.584-1.68
		c1.352-0.035,1.486,0.85,1.8,1.693c8.322,22.415,16.64,44.831,24.959,67.248c0.186,0.502,0.375,1.002,0.565,1.502
		c1.092,2.875,2.916,4.727,6.241,4.675c2.008-0.032,4.018,0.09,6.026,0.178c0.465,0.02,1.211-0.262,1.201,0.607
		c-0.01,0.86-0.753,0.593-1.215,0.595c-6.837,0.018-13.675,0.012-20.512,0.012C147.467,291.918,147.467,291.916,147.467,291.913z
		 M122.224,234.503c-3.666,10.306-7.146,20.093-10.66,29.972c7.213,0,14.146,0,21.317,0
		C129.361,254.575,125.893,244.82,122.224,234.503z"/>
	<path fill-rule="evenodd" clip-rule="evenodd" fill="#040404" d="M344.31,108.274c-0.884,0.353-1.748,0.606-2.751,0.601
		c-8.982-0.049-17.966-0.025-26.948-0.037c-0.654-0.001-1.34,0.168-1.965-0.204c-0.028-0.796,0.592-0.591,0.988-0.597
		c1.878-0.022,3.745-0.116,5.61-0.383c3.084-0.441,3.519-0.816,3.525-3.902c0.017-7.843-0.016-15.686-0.037-23.528
		c-0.018-6.502-0.049-13.004-0.073-19.505c-0.004-0.783,0-1.566,0-2.604c-1.099,0.586-1.102,1.437-1.313,2.146
		c-4.652,15.621-9.295,31.245-13.956,46.863c-0.205,0.687-0.011,1.659-1.234,1.742c-1.341,0.092-1.275-0.981-1.533-1.714
		c-5.445-15.502-10.864-31.013-16.299-46.519c-0.25-0.714-0.341-1.532-1.017-2.034c-0.432,0.234-0.357,0.594-0.354,0.896
		c0.123,12.801-0.291,25.604,0.229,38.403c0.033,0.797,0.172,1.596,0.321,2.382c1.022,5.384,3.348,7.397,8.848,7.725
		c0.648,0.039,1.347-0.174,2.333,0.565c-7.978,0-15.568,0-23.184,0c0.078-0.799,0.683-0.519,1.072-0.544
		c5.635-0.375,8.323-2.966,8.966-8.604c0.243-2.136,0.359-4.273,0.32-6.42c-0.164-8.843,0.413-17.699-0.32-26.53
		c-0.51-6.138-2.819-8.259-9.074-8.713c-0.352-0.026-0.837,0.168-0.966-0.448c0.185-0.657,0.75-0.402,1.149-0.402
		c6.1-0.006,12.2,0.059,18.3-0.019c1.295-0.017,1.682,0.511,2.067,1.584c4.249,11.815,8.549,23.613,12.863,35.492
		c0.818-0.399,0.727-1.241,0.912-1.853c3.403-11.184,6.786-22.374,10.1-33.583c0.367-1.244,0.854-1.647,2.168-1.629
		c6.1,0.082,12.2,0.057,18.3,0.017c1.051-0.007,2.022,0.123,2.953,0.591c-0.001,0-0.015,0.028-0.015,0.028
		c-2.661,0.417-5.368,0.138-8.037,0.594c-3.21,0.548-3.609,0.895-3.611,4.097c-0.005,13.88-0.004,27.759,0.001,41.638
		c0.001,3.01,0.341,3.424,3.414,3.737c2.737,0.28,5.488,0.433,8.233,0.642L344.31,108.274z"/>
	<path fill-rule="evenodd" clip-rule="evenodd" fill="#030303" d="M127.113,164.951c0.09,9.286-2.679,16.864-8.864,23.1
		c-11.807,11.902-29.291,11.219-40.141-1.573c-10.173-11.994-9.334-31.81,1.714-42.976c15.857-16.024,39.283-7.708,45.607,10.972
		c0.512,1.513,0.888,3.086,1.182,4.658C127.004,161.24,127.188,163.38,127.113,164.951z M114.908,165.056
		c-0.123-2.18-0.179-4.863-0.441-7.527c-0.518-5.281-1.408-10.49-4.175-15.146c-5.354-9.008-17.209-8.931-22.485,0.125
		c-1.184,2.033-2.045,4.208-2.605,6.487c-2.337,9.502-2.311,19.101-0.978,28.721c0.609,4.397,1.812,8.645,4.327,12.391
		c3.324,4.952,9.053,6.918,14.62,5.013c4.422-1.513,6.831-4.986,8.514-9.064C114.395,179.486,114.698,172.527,114.908,165.056z"/>
	<path fill-rule="evenodd" clip-rule="evenodd" fill="#040404" d="M309.285,248.549c-0.277-2.614-0.437-5.248-0.851-7.841
		c-1.288-8.051-4.972-14.78-11.393-19.896c-3.16-2.518-6.686-4.117-10.843-4.142c-6.894-0.041-11.737,3.12-14.714,9.245
		c-2.373,4.884-3.403,10.149-3.898,15.483c-0.921,9.898-1.017,19.804,0.704,29.649c0.589,3.367,1.5,6.648,2.893,9.779
		c3.701,8.318,10.283,11.892,19.297,10.492c11.268-1.749,17.823-8.767,19.58-20.943c0.431-2.987,0.756-5.979,0.793-9.002
		c0.005-0.403-0.218-0.934,0.318-1.191c0.401,0.028,0.46,0.29,0.453,0.561c-0.155,6.448-0.625,12.858-3.268,18.861
		c-3.822,8.682-10.899,12.558-20.021,13.035c-18.802,0.984-33.782-10.765-36.26-29.306c-1.469-10.988-0.421-21.563,5.686-31.109
		c4.662-7.288,10.807-13.026,19.281-15.567c9.779-2.933,18.244-0.69,24.971,7.232c0.477,0.561,0.943,1.127,1.64,1.958
		c1.909-3.687,3.749-7.239,5.589-10.792c0.122,0.031,0.245,0.062,0.367,0.094c0,11.123,0,22.246,0,33.37
		C309.501,248.529,309.393,248.539,309.285,248.549z"/>
	<path fill-rule="evenodd" clip-rule="evenodd" fill="#020202" d="M87.825,81.565c8.295,2.62,11.858,7.527,12.267,16.46
		c0.113,2.475,0.224,4.95,0.359,7.423c0.06,1.089,0.449,1.957,1.684,2.155c1.361,0.219,2.212-0.461,2.652-1.635
		c0.75-1.999,0.911-4.125,1.145-6.24c0.318,2.261,0.353,4.488-0.511,6.637c-0.44,1.097-1.185,1.921-2.236,2.479
		c-4.658,2.468-10.402-0.083-11.571-5.176c-0.968-4.216-0.875-8.513-0.869-12.8c0.002-0.871,0.055-1.743,0.023-2.613
		c-0.143-3.898-2.003-6.031-5.879-6.271c-3.406-0.211-6.833-0.057-10.25-0.1c-0.805-0.011-1.024,0.318-1.021,1.07
		c0.038,7.304,0.054,14.609,0.069,21.913c0.005,1.88,0.969,2.853,2.805,2.945c2.073,0.104,4.149,0.129,6.222,0.226
		c0.708,0.033,1.458-0.224,2.598,0.527c-11.345,0-22.216,0-33.116,0c0.166-0.855,0.835-0.504,1.274-0.521
		c2.475-0.094,4.957,0.074,7.421-0.345c2.455-0.417,2.895-0.871,2.925-3.42c0.029-2.412,0.008-4.825,0.008-7.238
		c0-11.728,0.004-23.456-0.003-35.184c-0.002-2.912-0.361-3.232-3.277-3.705c-2.761-0.447-5.558-0.325-8.332-0.432
		c0.012-1.019,0.629-0.77,1.019-0.77c10.923-0.007,21.848-0.07,32.771,0.04c5.395,0.054,10.283,1.649,14.081,5.76
		c4.538,4.913,3.741,11.675-1.83,15.391c-2.438,1.625-5.193,2.41-8.03,2.961C89.571,81.23,88.919,81.354,87.825,81.565z
		 M73.704,70.201c-0.026,0-0.053,0-0.079,0c0,3.151,0.049,6.304-0.026,9.453c-0.027,1.151,0.327,1.491,1.466,1.453
		c2.679-0.088,5.365,0.028,8.043-0.076c6.555-0.254,9.953-3.749,10.078-10.264c0.016-0.871,0.022-1.745-0.03-2.613
		c-0.425-7.027-3.826-10.281-10.87-10.39c-1.944-0.03-3.89,0.049-5.833-0.016c-1.85-0.062-2.752,0.754-2.751,2.598
		C73.706,63.632,73.704,66.917,73.704,70.201z"/>
	<path fill-rule="evenodd" clip-rule="evenodd" fill="#020202" d="M2.371,135.958c12.252,0,24.504,0,37.071,0
		c-0.786,0.91-1.553,0.643-2.2,0.653c-2.217,0.035-4.426,0.142-6.559,0.785c-2.59,0.782-3.328,2.246-2.016,4.531
		c4.888,8.508,9.879,16.956,14.831,25.428c0.799-0.37,0.951-1.086,1.275-1.642c2.832-4.852,5.639-9.719,8.437-14.591
		c0.967-1.683,1.834-3.405,2.233-5.338c1.089-5.277-1.812-8.669-7.821-9.136c-0.741-0.058-1.561,0.2-2.68-0.633
		c8.872,0,17.268,0,25.685,0c-0.054,0.912-0.763,0.562-1.198,0.607c-4.132,0.431-7.365,2.325-9.52,5.9
		c-5.111,8.48-10.185,16.983-15.288,25.468c-0.498,0.828-0.756,1.659-0.751,2.644c0.032,6.369-0.007,12.739,0.027,19.108
		c0.021,3.816,0.64,4.383,4.485,4.794c2.739,0.293,5.479,0.412,8.229,0.409c0.564-0.001,1.175-0.155,2.172,0.553
		c-13.919,0-27.338,0-41.064,0c0.742-0.767,1.428-0.551,2.02-0.55c3.287,0.007,6.56-0.128,9.817-0.635
		c2.051-0.318,2.971-1.305,2.938-3.492c-0.098-6.435-0.048-12.872-0.009-19.309c0.005-0.934-0.339-1.655-0.786-2.417
		c-5.189-8.821-10.498-17.577-15.474-26.518c-2.286-4.108-5.362-6.147-10.011-5.933c-1.285,0.059-2.574,0.009-3.861,0.009
		C2.357,136.422,2.363,136.19,2.371,135.958z"/>
	<path fill-rule="evenodd" clip-rule="evenodd" fill="#040404" d="M344.31,108.274l-0.015-0.027c2.653-0.22,5.312-0.399,7.959-0.675
		c1.894-0.197,2.941-1.046,2.931-3.246c-0.076-14.344-0.06-28.689-0.018-43.034c0.005-1.723-0.636-2.511-2.33-2.857
		c-2.828-0.577-5.711-0.459-8.542-0.897c0,0,0.014-0.028,0.015-0.028c0.146-0.985,0.934-0.548,1.408-0.549
		c15.617-0.027,31.235-0.008,46.853-0.051c1.257-0.004,1.563,0.348,1.55,1.576c-0.066,5.697-0.019,11.395-0.049,17.092
		c-0.003,0.507,0.409,1.386-0.538,1.448c-1.028,0.068-0.583-0.856-0.626-1.343c-0.377-4.277-1.621-8.262-3.998-11.847
		c-2.667-4.023-6.341-6.245-11.286-6.081c-3.275,0.109-6.56-0.202-9.826,0.4c-1.785,0.329-2.708,1.091-2.692,3.04
		c0.052,6.233,0.018,12.467-0.041,18.7c-0.01,1.023,0.381,1.199,1.286,1.198c2.085-0.003,4.148-0.184,6.198-0.537
		c2.229-0.384,3.727-1.654,4.589-3.746c1.156-2.81,1.69-5.763,2.127-8.743c0.067-0.463,0.043-0.952,0.182-1.391
		c0.142-0.447-0.146-1.252,0.65-1.246c0.888,0.008,0.412,0.793,0.516,1.236c0.06,0.254,0.011,0.534,0.011,0.802
		c0,9.183,0,18.366,0,27.549c0,0.134,0.031,0.278-0.006,0.401c-0.175,0.577,0.471,1.618-0.438,1.681
		c-0.997,0.07-0.677-1.09-0.814-1.712c-0.332-1.5-0.465-3.042-0.799-4.541c-1.668-7.483-3.26-8.772-10.896-8.931
		c-2.581-0.054-2.587-0.054-2.581,2.456c0.016,6.77,0.084,13.54,0.027,20.308c-0.015,1.861,0.82,2.77,2.516,2.959
		c5.339,0.597,10.686,0.97,15.889-0.835c4.316-1.497,7.122-4.623,8.955-8.694c1.607-3.569,2.378-7.362,2.898-11.22
		c0.086-0.637-0.322-1.763,0.796-1.711c0.998,0.046,0.496,1.074,0.499,1.634c0.038,6.836-0.007,13.674,0.055,20.51
		c0.011,1.224-0.281,1.559-1.537,1.556c-16.489-0.046-32.979-0.026-49.468-0.053C345.243,108.823,344.455,109.26,344.31,108.274z"/>
	<path fill-rule="evenodd" clip-rule="evenodd" fill="#040404" d="M169.693,135.963c8.594,0,16.808,0,25.076,0
		c-0.223,1.035-0.98,0.624-1.475,0.657c-5.75,0.393-8.498,2.984-9.141,8.677c-0.671,5.951-0.213,11.921-0.307,17.882
		c-0.076,4.826-0.124,9.656,0,14.48c0.349,13.593-11.205,19.676-20.148,18.866c-5.112-0.463-10.074-1.313-14.601-3.905
		c-5.636-3.229-8.642-7.894-8.575-14.568c0.118-11.865,0.036-23.732,0.032-35.599c-0.001-4.519-0.333-4.799-4.898-5.496
		c-2.247-0.343-4.52-0.191-6.755-0.868c11.854,0,23.71,0,35.892,0c-0.778,0.715-1.457,0.515-2.053,0.519
		c-2.751,0.017-5.481,0.166-8.182,0.773c-1.766,0.397-2.605,1.317-2.598,3.196c0.049,13.408,0.029,26.815,0.078,40.223
		c0.007,1.941,0.387,3.867,0.913,5.739c1.521,5.415,5.279,8.284,11.383,8.749c9.987,0.76,17.799-5.745,18.217-15.749
		c0.426-10.241,0.364-20.507-0.085-30.758c-0.055-1.257-0.357-2.518-0.665-3.747c-1.359-5.435-4.483-8.011-10.055-8.398
		C171.182,136.596,170.539,136.862,169.693,135.963z"/>
	<path fill-rule="evenodd" clip-rule="evenodd" fill="#010101" d="M44.435,108.664c-11.632,0-23.263,0-35.018,0
		c0.372-0.916,0.995-0.618,1.448-0.618c2.684,0.001,5.36-0.079,8.022-0.454c2.586-0.363,3.107-0.907,3.109-3.472
		c0.011-14.682-0.019-29.363,0.04-44.045c0.007-1.824-0.515-2.397-2.395-2.368c-5.222,0.083-8.943,2.341-11.222,7.028
		c-2.129,4.38-3.076,9.097-4,13.825c-0.095,0.486,0.252,1.39-0.763,1.301c-0.973-0.085-0.549-0.92-0.552-1.407
		c-0.031-6.703,0.007-13.408-0.048-20.111c-0.009-1.152,0.33-1.429,1.449-1.426c14.951,0.036,29.9,0.034,44.85,0.003
		c1.018-0.002,1.37,0.229,1.362,1.314c-0.049,6.771-0.017,13.542-0.04,20.313c-0.002,0.455,0.339,1.225-0.486,1.284
		c-0.906,0.064-0.739-0.781-0.825-1.324c-0.718-4.567-1.666-9.063-3.593-13.311c-2.38-5.246-6.452-7.608-12.146-7.471
		c-1.191,0.029-1.756,0.379-1.724,1.576c0.005,0.2-0.035,0.401-0.035,0.601c0.007,14.749-0.007,29.497,0.045,44.245
		c0.01,2.765,0.485,3.099,3.288,3.474c2.465,0.329,4.938,0.421,7.421,0.413C43.241,108.031,43.914,107.88,44.435,108.664z"/>
	<path fill-rule="evenodd" clip-rule="evenodd" fill="#010101" d="M248.023,108.682c-11.631,0-23.263,0-34.935,0
		c0.155-0.974,0.839-0.634,1.271-0.633c2.751,0.001,5.495-0.074,8.222-0.471c2.456-0.358,2.997-0.935,2.999-3.365
		c0.013-14.749-0.018-29.498,0.04-44.247c0.008-1.766-0.531-2.269-2.299-2.255c-5.309,0.039-9.073,2.343-11.363,7.121
		c-2.074,4.328-3.025,8.972-3.936,13.636c-0.103,0.523,0.288,1.591-0.884,1.376c-0.886-0.163-0.443-0.996-0.445-1.497
		c-0.035-6.637,0.016-13.274-0.058-19.91c-0.014-1.279,0.355-1.527,1.564-1.523c14.815,0.043,29.632,0.044,44.447,0
		c1.28-0.004,1.682,0.284,1.667,1.629c-0.075,6.569-0.021,13.14-0.06,19.709c-0.003,0.542,0.511,1.573-0.579,1.562
		c-0.909-0.009-0.644-1.006-0.747-1.613c-0.767-4.488-1.64-8.948-3.617-13.099c-2.512-5.271-6.406-7.569-12.205-7.373
		c-1.11,0.037-1.606,0.393-1.608,1.48c-0.001,0.603-0.055,1.205-0.056,1.808c-0.004,13.877-0.01,27.755,0.001,41.632
		c0.004,4.481,0.066,4.467,4.452,5.096c2.701,0.388,5.438,0.104,8.14,0.389C248.031,108.316,248.027,108.499,248.023,108.682z"/>
	<path fill-rule="evenodd" clip-rule="evenodd" fill="#E50909" d="M143.386,315.325c8.288,0,16.575,0,24.863,0
		c-2.191,0.444-4.424,0.301-6.622,0.7c-1.636,0.297-2.445,0.937-2.436,2.745c0.059,11.13,0.059,22.258,0.004,33.387
		c-0.008,1.698,0.624,2.365,2.271,2.591c2.945,0.405,5.906,0.563,8.82,0.164c6.947-0.95,11.253-5.692,12.211-13.171
		c0.235-1.835,0.381-3.681,0.57-5.543c0.924,0.197,0.611,0.863,0.613,1.314c0.023,5.497-0.01,10.995,0.036,16.492
		c0.01,1.077-0.202,1.517-1.412,1.514c-20.515-0.039-41.03-0.031-61.545-0.04c-0.188,0-0.377-0.077-1.066-0.23
		c2.446-0.179,4.409-0.212,6.336-0.491c2.141-0.31,2.42-0.846,1.76-2.801c-1.048-3.103-2.189-6.178-3.173-9.301
		c-0.333-1.059-0.882-1.281-1.881-1.263c-3.016,0.055-6.035,0.071-9.05-0.01c-1.054-0.027-1.558,0.313-1.843,1.302
		c-0.521,1.795-1.191,3.548-1.702,5.347c-1.27,4.472,0.277,6.659,4.888,7.024c0.375,0.03,0.81-0.158,1.188,0.319
		c-0.288,0.043-0.514,0.105-0.74,0.105c-4.942,0.006-9.884,0.005-14.936-0.169c5.28-0.274,7.288-3.975,8.8-8.157
		c3.661-10.121,7.283-20.257,10.963-30.372c0.248-0.681,0.157-1.82,1.16-1.882c1.12-0.069,0.957,1.122,1.207,1.79
		c4.284,11.459,8.527,22.935,12.789,34.402c1.382,3.72,1.677,3.94,5.702,3.96c2.745,0.013,5.49,0.128,8.224-0.354
		c1.498-0.264,2.2-0.898,2.193-2.509c-0.042-11.196-0.053-22.393,0.013-33.589c0.009-1.665-0.715-2.283-2.178-2.494
		C147.432,315.821,145.446,315.608,143.386,315.325z M123.823,340.927c-1.835-5.223-3.627-10.323-5.607-15.958
		c-1.982,5.683-3.75,10.752-5.566,15.958C116.485,340.927,120.063,340.927,123.823,340.927z"/>
	<path fill-rule="evenodd" clip-rule="evenodd" fill="#040404" d="M265.707,170.876c0.571,0.165,0.404,0.647,0.387,0.995
		c-0.154,3.008-0.335,6.003-0.918,8.979c-2.318,11.844-10.635,16.587-21.607,15.564c-15.178-1.413-24.801-12.106-25.264-27.379
		c-0.347-11.44,2.946-21.255,12.061-28.632c5.734-4.641,12.173-6.663,19.495-4.616c4.115,1.15,7.024,4.018,9.783,7.456
		c1.562-2.978,3.049-5.815,4.536-8.652c0.112,0.034,0.224,0.068,0.335,0.102c0,8.823,0,17.646,0,26.719
		c-0.992-1.183-0.605-2.412-0.696-3.513c-0.638-7.7-3.539-14.233-9.75-19.062c-2.317-1.802-4.904-2.954-7.915-3.034
		c-5.746-0.152-9.705,2.504-12.077,7.632c-1.821,3.936-2.599,8.147-2.981,12.426c-0.81,9.044-0.871,18.062,1.351,26.958
		c0.146,0.583,0.293,1.17,0.49,1.736c1.997,5.736,4.995,10.55,11.75,11.121c8.419,0.712,14.705-2.736,17.892-9.512
		c1.974-4.201,2.521-8.71,2.771-13.275c0.033-0.6,0.049-1.199,0.098-1.797C265.452,171.016,265.612,170.951,265.707,170.876z"/>
	<path fill-rule="evenodd" clip-rule="evenodd" fill="#E50707" d="M258.937,315.34c7.953,0,15.906,0,23.859,0
		c-1.884,0.483-3.818,0.305-5.718,0.672c-1.635,0.315-2.457,0.944-2.421,2.758c0.093,4.623,0.08,9.251-0.002,13.875
		c-0.023,1.265,0.339,1.561,1.564,1.543c4.893-0.073,9.787-0.061,14.681-0.008c1.097,0.013,1.503-0.241,1.486-1.424
		c-0.067-4.692-0.071-9.386-0.009-14.078c0.022-1.721-0.813-2.428-2.373-2.583c-1.92-0.191-3.84-0.385-5.758-0.725
		c7.949,0,15.899,0,23.85,0c-2.009,0.356-4.055,0.265-6.062,0.688c-1.378,0.289-2.084,0.883-2.078,2.401
		c0.04,11.328,0.042,22.657,0.013,33.986c-0.004,1.445,0.682,1.969,1.98,2.25c2.038,0.44,4.116,0.249,6.154,0.683
		c-7.924,0-15.848,0-23.771,0c1.878-0.502,3.828-0.261,5.732-0.645c1.561-0.316,2.339-0.921,2.316-2.63
		c-0.069-5.229-0.056-10.459,0.001-15.687c0.013-1.13-0.285-1.485-1.445-1.471c-4.96,0.063-9.923,0.068-14.882-0.003
		c-1.224-0.018-1.4,0.447-1.39,1.509c0.048,5.229,0.075,10.459-0.005,15.687c-0.026,1.726,0.715,2.33,2.305,2.594
		c1.848,0.306,3.714,0.255,5.557,0.642c-7.902,0-15.805,0-23.707,0c1.957-0.454,3.962-0.3,5.934-0.649
		c1.589-0.282,2.314-0.916,2.307-2.62c-0.048-11.195-0.049-22.391,0.005-33.586c0.008-1.552-0.673-2.224-2.056-2.385
		c-2.047-0.239-4.1-0.426-6.15-0.636C258.883,315.445,258.909,315.393,258.937,315.34z"/>
	<path fill-rule="evenodd" clip-rule="evenodd" fill="#060606" d="M167.197,87.627c0.564,2.018,1.096,4.045,1.7,6.051
		c0.931,3.088,2.166,6.046,4.035,8.699c3.567,5.065,10.61,7.68,16.529,6.163c4.171-1.07,7.414-4.318,7.912-7.925
		c0.602-4.344-1.316-7.935-5.579-10.195c-3.625-1.923-7.58-2.967-11.503-4.079c-2.637-0.747-5.254-1.547-7.756-2.687
		c-7.841-3.574-10.605-12.525-6.029-19.854c2.857-4.576,7.063-7.068,12.488-7.239c4.386-0.138,8.555,0.696,12.046,3.586
		c1.155,0.957,1.99,0.916,3.008-0.192c1.018-1.107,2.219-2.045,3.591-3.284c0,5.943,0,11.492,0,17.332
		c-0.825-1.046-0.705-2.105-1.005-3.014c-2.218-6.711-6.186-11.724-13.367-13.381c-3.2-0.738-6.4-0.316-9.348,1.316
		c-5.479,3.033-5.997,9.862-1.004,13.635c3.284,2.482,7.196,3.471,11.091,4.45c3.372,0.847,6.72,1.757,10,2.923
		c4.584,1.628,7.181,4.86,8.14,9.593c1.497,7.381-0.98,14.209-6.542,17.706c-6.636,4.172-17.228,2.828-22.638-2.872
		c-0.361-0.382-0.717-0.77-1.164-1.25c-1.581,2.019-3.105,3.966-4.812,6.145c0-7.327,0-14.426,0-21.526
		C167.06,87.694,167.128,87.661,167.197,87.627z"/>
	<path fill-rule="evenodd" clip-rule="evenodd" fill="#070707" d="M142.498,57.066c7.239,0,14.418,0,21.606,0
		c-0.004,0.918-0.613,0.667-1.016,0.697c-5.622,0.429-8.131,2.851-8.244,8.549c-0.173,8.781-0.166,17.566-0.131,26.35
		c0.028,7.074-2.593,12.471-9.255,15.518c-7.338,3.355-19.987,0.645-25.288-5.414c-2.291-2.617-3.088-5.708-3.083-9.1
		c0.014-10.193,0.012-20.386,0.001-30.578c-0.004-4.34-0.056-4.394-4.322-5.033c-0.992-0.148-2-0.179-2.999-0.276
		c-0.938-0.091-1.93,0.179-2.792-0.63c10.302,0,20.603,0,31.304,0c-0.915,0.833-1.664,0.601-2.321,0.606
		c-2.35,0.021-4.678,0.153-6.971,0.748c-1.286,0.334-1.951,1.03-1.948,2.39c0.028,11.868,0.028,23.736,0.082,35.604
		c0.005,1.125,0.252,2.267,0.511,3.372c1.705,7.298,9.646,10.83,17.056,7.529c5.276-2.352,8.569-6.457,8.714-12.239
		c0.23-9.172,0.549-18.368-0.221-27.535c-0.439-5.221-2.3-9.596-10.056-9.871C142.866,57.746,142.592,57.695,142.498,57.066z"/>
	<path fill-rule="evenodd" clip-rule="evenodd" fill="#E50707" d="M348.55,355.358c2.053-0.404,4.13-0.262,6.168-0.672
		c1.406-0.283,2.061-0.919,2.056-2.427c-0.036-11.258-0.043-22.516,0.011-33.774c0.008-1.573-0.726-2.16-2.086-2.361
		c-2.038-0.304-4.084-0.531-6.139-0.768c8.304,0,16.608,0,24.912,0c-2.17,0.45-4.378,0.276-6.559,0.651
		c-1.74,0.299-2.542,0.979-2.531,2.867c0.065,11.057,0.067,22.115,0.004,33.172c-0.011,1.785,0.628,2.493,2.362,2.718
		c2.944,0.383,5.906,0.559,8.816,0.137c6.944-1.007,11.201-5.748,12.141-13.231c0.228-1.811,0.384-3.631,0.583-5.533
		c0.921,0.441,0.583,1.131,0.586,1.65c0.028,5.361-0.007,10.723,0.038,16.084c0.009,1.112-0.11,1.66-1.478,1.654
		c-12.665-0.057-25.331-0.032-37.997-0.04C349.142,355.485,348.846,355.402,348.55,355.358z"/>
	<path fill-rule="evenodd" clip-rule="evenodd" fill="#E50909" d="M201.959,315.4c-4.383,1.328-5.974,4.483-6.802,8.037
		c-1.725,7.402-1.789,14.878-0.258,22.327c0.827,4.029,2.39,7.655,6.782,9.531c-4.256,0.523-10.343-2.831-12.919-7.484
		c-4.432-8.005-4.233-16.192,0.329-24.09C192.056,318.589,197.864,314.905,201.959,315.4z"/>
	<path fill-rule="evenodd" clip-rule="evenodd" fill="#E50909" d="M240.898,355.137c3.439-1.34,5.223-4.137,6.168-7.456
		c2.346-8.233,2.308-16.535,0.04-24.769c-0.93-3.378-2.761-6.231-6.46-7.379c1.222-0.314,1.222-0.315,2.167-0.063
		c9.061,2.425,14.971,11.446,14.075,21.484c-0.795,8.921-6.387,16.119-14.229,18.29c-0.568,0.157-1.177,0.177-1.766,0.261
		C240.905,355.382,240.906,355.26,240.898,355.137z"/>
	<path fill-rule="evenodd" clip-rule="evenodd" fill="#E50909" d="M330.622,355.135c3.679-1.432,5.434-4.494,6.356-8.012
		c2.075-7.91,2.069-15.889-0.012-23.799c-0.911-3.465-2.681-6.432-6.343-7.743c0.014-0.119,0.012-0.239-0.008-0.359
		c5.858,0.614,10.013,3.906,13.026,8.676c5.979,9.464,3.087,22.799-6.19,29.014c-2.062,1.383-4.268,2.493-6.835,2.597
		C330.628,355.384,330.63,355.26,330.622,355.135z"/>
	<path fill-rule="evenodd" clip-rule="evenodd" fill="#E50909" d="M235.84,315.301c-3.481,1.218-5.382,3.907-6.347,7.217
		c-2.494,8.558-2.501,17.169,0.052,25.725c0.951,3.185,2.787,5.749,6.204,7.008c-3.64,0.616-9.72-2.932-12.729-7.764
		c-4.669-7.495-4.913-15.369-0.603-23.047C225.295,319.313,229.757,315.981,235.84,315.301z"/>
	<path fill-rule="evenodd" clip-rule="evenodd" fill="#E50909" d="M325.366,315.552c-3.202,1.072-5.058,3.487-5.996,6.533
		c-2.73,8.854-2.719,17.775,0.063,26.604c0.937,2.973,2.633,5.579,6.05,6.369c-0.532,1.137-1.364,0.374-1.978,0.217
		c-7.805-1.999-13.469-9.098-14.2-17.715c-0.834-9.828,4.28-18.488,12.793-21.631c1.054-0.389,2.102-0.878,3.284-0.677
		C325.349,315.351,325.343,315.45,325.366,315.552z"/>
	<path fill-rule="evenodd" clip-rule="evenodd" fill="#E50707" d="M86.383,340.192c1.403,0,2.814,0.094,4.206-0.025
		c1.422-0.123,1.98,0.211,1.926,1.802c-0.047,1.415-0.259,1.974-1.844,1.898c-3.065-0.146-6.146-0.143-9.212-0.002
		c-1.583,0.072-1.536-0.747-1.485-1.817c0.045-0.957-0.322-2.055,1.404-1.89C83.032,340.315,84.714,340.192,86.383,340.192z"/>
	<path fill-rule="evenodd" clip-rule="evenodd" fill="#E82828" d="M212.486,319.54c0.612,0.612,1.029,0.634,1.424-0.278
		c0.682-1.58,1.476-3.111,2.536-4.604c0,5.767,0,11.535,0,17.302c-0.313-4.443-1.457-8.62-4.137-12.273
		C212.367,319.636,212.427,319.587,212.486,319.54z"/>
	<path fill-rule="evenodd" clip-rule="evenodd" fill="#E82828" d="M325.366,315.552c-0.023-0.102-0.018-0.201,0.017-0.3
		c1.74-0.682,3.485-0.624,5.233-0.03c0.02,0.12,0.021,0.24,0.008,0.359C328.872,315.571,327.119,315.562,325.366,315.552z"/>
	<path fill-rule="evenodd" clip-rule="evenodd" fill="#E82828" d="M205.799,355.672c1.507-0.591,3.131-0.636,4.551-1.409
		C209.083,355.305,208.939,355.35,205.799,355.672z"/>
	<path fill-rule="evenodd" clip-rule="evenodd" fill="#E82828" d="M330.622,355.135c0.008,0.125,0.006,0.249-0.005,0.373
		c-1.64,0.358-3.296,1.047-4.849-0.254C327.4,355.769,329.01,355.395,330.622,355.135z"/>
	<path fill-rule="evenodd" clip-rule="evenodd" fill="#E82828" d="M240.898,355.137c0.008,0.123,0.007,0.245-0.005,0.369
		c-1.475,0.676-3.001,0.36-4.531,0.144C237.875,355.478,239.387,355.308,240.898,355.137z"/>
	<path fill-rule="evenodd" clip-rule="evenodd" fill="#E82828" d="M212.31,319.686c-0.104-0.11-0.308-0.312-0.301-0.319
		c0.283-0.306,0.349,0.02,0.476,0.176C212.427,319.587,212.367,319.636,212.31,319.686z"/>
</g>
<path fill-rule="evenodd" clip-rule="evenodd" fill="#E50909" d="M201.854,315.423c0,0,6.829-0.579,10.917,4.367
	c-1.916-0.878-5.072-4.492-15.478-2.598C190.28,318.47,200.508,315.93,201.854,315.423z"/>
<path fill-rule="evenodd" clip-rule="evenodd" fill="#E50909" d="M199.565,355.35c0,0,11.223,2.828,15.36-5.145
	C214.926,350.205,211.863,355.277,199.565,355.35z"/>
</svg>
