<?xml version="1.0" encoding="utf-8"?>
<!-- Generator: Adobe Illustrator 16.0.0, SVG Export Plug-In . SVG Version: 6.00 Build 0)  -->
<!DOCTYPE svg PUBLIC "-//W3C//DTD SVG 1.1//EN" "http://www.w3.org/Graphics/SVG/1.1/DTD/svg11.dtd">
<svg version="1.1" id="Layer_1" xmlns="http://www.w3.org/2000/svg" xmlns:xlink="http://www.w3.org/1999/xlink" x="0px" y="0px"
	 width="400px" height="400px" viewBox="0 0 400 400" enable-background="new 0 0 400 400" xml:space="preserve">
<g>
	<path fill-rule="evenodd" clip-rule="evenodd" fill="#4A54A1" d="M174.076,163.476c-8.912-0.716-17.55-2.153-26.186-3.618
		c-1.508-0.254-1.602-0.931-1.042-2.238c2.535-5.908,2.373-12.16,2.337-18.428c-0.094-16.883-0.101-33.769-0.009-50.649
		c0.033-6.153,0.148-12.283-2.358-18.059c-0.7-1.616-0.2-2.115,1.305-2.375c8.063-1.39,16.153-2.591,24.29-3.503
		c2.417-0.271,1.644,1.303,1.314,2.195c-3.42,9.218-1.899,18.81-2.316,28.259c-0.144,3.241,1.065,4.313,4.212,4.04
		c2.997-0.259,6.026-0.151,9.041-0.144c2.44,0.007,3.508-1.194,3.428-3.578c-0.325-9.927,1.263-20.016-2.556-29.644
		c-0.577-1.458-0.229-2.129,1.548-2.172c8.078-0.188,16.153-0.259,24.233-0.019c1.512,0.045,1.988,0.601,1.526,1.927
		c-4.252,12.197-2.09,24.824-2.392,37.264c-0.324,13.5-0.004,27.012-0.139,40.52c-0.061,6.285,0.028,12.506,2.299,18.473
		c0.789,2.073,0.115,2.615-2.019,2.735c-7.72,0.426-15.425,0.266-23.137-0.063c-2.075-0.087-2.396-0.613-1.71-2.554
		c4.094-11.585,1.814-23.618,2.336-35.458c0.083-1.863-1.079-2.742-3.024-2.732c-3.375,0.019-6.756-0.028-10.125-0.198
		c-2.431-0.123-3.524,0.74-3.5,3.295c0.078,8.2-0.252,16.412,0.129,24.595C171.748,155.334,173.162,159.264,174.076,163.476z"/>
	<path fill-rule="evenodd" clip-rule="evenodd" fill="#4A54A1" d="M212.576,216.233c3.51-6.012,6.966-11.753,10.219-17.611
		c1.004-1.809,2.108-2.563,4.215-2.513c6.023,0.139,12.051,0.108,18.077,0.007c2.204-0.033,3.388,0.264,1.868,2.669
		c-1.143,1.807-1.254,3.809-1.236,5.887c0.056,6.989-0.088,13.98,0.061,20.968c0.117,5.559-1.229,11.302,2.254,16.694
		c-7.472,0-14.424,0-21.619,0c4.056-8.839,0.805-18.097,1.677-27.314c-5.366,9.154-10.729,18.307-16.278,27.771
		c-5.48-9.357-10.727-18.315-15.973-27.271c0.464,9.006-2.285,18.03,1.404,26.946c-6.019,0-11.788-0.04-17.552,0.023
		c-2.049,0.023-1.932-0.888-1.126-2.165c1.359-2.153,1.392-4.511,1.378-6.949c-0.054-9.642-0.059-19.283,0.007-28.923
		c0.014-2.23-0.386-4.266-1.503-6.195c-0.808-1.395-0.599-2.162,1.284-2.144c6.509,0.066,13.018,0.087,19.523-0.004
		c1.511-0.021,2.11,0.789,2.726,1.849C205.463,203.972,208.949,209.981,212.576,216.233z"/>
	<path fill-rule="evenodd" clip-rule="evenodd" fill="#4A54A1" d="M102.271,278.435c7.498,0.961,14.996,1.92,22.861,2.928
		c-5.05,8.796-3.59,17.887-2.791,26.908c0.104,1.162,0.014,2.132-0.978,2.862c-0.19,0.142-0.355,0.325-0.525,0.492
		c-9.249,9.061-9.249,9.061-21.215,4.497c-15.314-5.835-16.866-7.14-25.604-21.26c-0.608-0.982-0.756-1.955-0.754-3.064
		c0.021-9.642,0.054-19.283-0.052-28.925c-0.019-1.779,0.612-2.857,1.932-3.908c2.634-2.102,5.411-4.118,7.632-6.612
		c2.506-2.817,5.329-3.501,8.914-3.378c6.982,0.235,13.978,0.129,20.967,0.035c2.026-0.028,2.919,0.556,3.414,2.666
		c1.496,6.375,3.305,12.679,5.133,19.545c-1.818-0.836-3.166-1.29-4.339-2.019c-4.914-3.063-10.45-3.385-15.967-3.583
		c-5.446-0.195-9.536,3.948-9.564,9.326c-0.021,4.942-0.092,9.882-0.075,14.824c0.019,5.488,4.933,10.848,10.332,10.954
		c2.05,0.04,3.282-1.386,3.425-3.708c0.384-6.32-0.094-12.442-3.335-18.075C101.877,278.771,102.072,278.604,102.271,278.435z"/>
	<path fill-rule="evenodd" clip-rule="evenodd" fill="#4A54A1" d="M230.592,64.986c9.178,1.126,17.828,2.412,26.402,4.264
		c1.652,0.358,2.083,0.966,1.433,2.353c-2.881,6.142-2.198,12.695-2.212,19.152c-0.045,18.563,0.02,37.125-0.078,55.688
		c-0.016,3.482,1.201,6.565,2.243,9.736c0.507,1.545,0.272,2.254-1.52,2.629c-8.002,1.668-16.067,2.905-24.162,4.014
		c-1.687,0.231-2.282-0.415-1.682-1.95c3.216-8.226,2.297-16.829,2.317-25.335c0.047-18.803-0.068-37.608,0.033-56.411
		C233.396,74.319,231.325,70.018,230.592,64.986z"/>
	<path fill-rule="evenodd" clip-rule="evenodd" fill="#4A54A1" d="M202.623,309.77c-0.184,1.976-0.569,3.905-1.418,5.719
		c-2.171,0.629-2.688-2.141-4.628-2.188c-3.712-0.094-7.781,1.046-10.605-2.688c-0.146-0.19-0.688-0.142-1.037-0.113
		c-2.935,0.243-6.765-1.21-7.241,3.81c-0.019,0.2-1.051,0.306-1.609,0.454c-4.129-18.446-8.224-36.901-12.431-55.329
		c-0.604-2.652-1.706-5.196-2.643-7.767c-0.58-1.583-0.9-2.724,1.564-2.632c4.69,0.175,9.387,0.14,14.082,0.193
		c0.728,1.618,1.456,1.606,2.184,0.003c2.65-0.575,4.054-0.318,3.234,3.14c-1.665,7.041,0.978,13.771,2.193,20.572
		c1.517,8.48,3.333,16.904,5.064,25.573c2.066-5.261,2.53-10.804,3.823-16.122c1.55-6.389,2.382-12.949,3.946-19.331
		c0.952-3.877,0.756-7.637,0.163-11.418c-0.292-1.852-0.212-2.654,1.932-2.617c5.663,0.106,11.328,0.097,16.991,0.023
		c1.85-0.025,2.01,0.632,1.396,2.137c-4.494,11.048-5.757,22.958-9.145,34.292c-1.745,5.847-2.042,12.016-4.334,17.705
		c-2.69,0.402-4.203,2.471-4.709,4.638C199.015,309.453,201.238,309.543,202.623,309.77z"/>
	<path fill-rule="evenodd" clip-rule="evenodd" fill="#4A54A1" d="M75.19,104.023c1.941-4.237,3.983-8.433,5.769-12.734
		c0.667-1.606,1.959-2.005,3.229-2.596c14.4-6.708,29.325-11.98,44.649-16.131c1.145-0.311,2.596-1.239,3.27,0.787
		c2.396,7.228,4.806,14.45,7.385,22.205c-6.504-1.847-12.29-3.741-18.522-2.153c-2.443,0.622-3.703,1.376-3.675,4.224
		c0.132,14.348,0.052,28.699,0.059,43.049c0.002,4.146,2.351,7.731,2.923,11.764c-1.164,0.782-2.08-0.125-3.039-0.405
		c-7.727-2.254-15.218-5.173-22.706-8.104c-1.522-0.596-2.921-1.084-1.324-3.223c2.09-2.803,2.316-6.134,2.264-9.595
		c-0.151-9.764-0.121-19.535-0.019-29.302c0.028-2.78-0.622-3.404-3.566-2.872c-5.781,1.043-10.846,3.797-16.212,5.83
		C75.513,104.519,75.353,104.271,75.19,104.023z"/>
	<path fill-rule="evenodd" clip-rule="evenodd" fill="#4A54A1" d="M225.127,326.337c1.188-6.938,0.447-13.913,0.398-20.871
		c-0.092-12.655-0.34-25.305-0.363-37.96c-0.009-5.42,0.015-10.803-1.91-15.966c-0.713-1.913-0.158-2.507,1.878-2.495
		c11.328,0.068,22.656,0.066,33.985-0.021c1.705-0.014,2.355,0.785,2.754,2.153c1.719,5.913,3.434,11.83,5.365,18.489
		c-7.008-3.884-13.99-2.541-20.883-2.436c-2.869,0.045-3.974,1.124-3.882,4.172c0.207,6.744,2.202,8.148,8.519,5.397
		c1.623-0.71,3.175-1.581,5.109-2.552c0,7.717,0,15.096,0,22.699c-3.346-0.549-6.554-2.007-10.163-1.124
		c-2.03,0.497-3.005,1.129-2.944,3.204c0.082,2.65,0.127,5.3,0.15,7.953c0.02,1.974,0.832,3.182,2.936,3.25
		c1.645,2.4-1.215,5.393,1.746,8c-4.719-0.179-6.644,3.31-8.561,5.68c-1.527,1.89-2.275,4.172-4.979,4.857
		c-0.911,0.229-1.137,1.138-1.172,2.023c-2.54,1.013-5.279,0.824-7.913,1.288c-2.073,0.368-1.659-0.921-1.103-2.115
		c0.457-0.087,0.916-0.177,0.318-0.726c0.051-0.482,0.105-0.963,0.157-1.446C225.527,327.602,226.221,327.31,225.127,326.337z
		 M226.154,329.043c-0.035,0.099-0.068,0.198-0.104,0.297c0.085,0.03,0.227,0.106,0.247,0.08c0.066-0.073,0.083-0.186,0.116-0.285
		C226.328,329.104,226.242,329.074,226.154,329.043z"/>
	<path fill-rule="evenodd" clip-rule="evenodd" fill="#4A54A1" d="M313.34,138.887c-0.182,0.716-0.672,1.168-1.301,1.499
		c-1.566-0.905-2.351-0.528-2.224,1.354c-9.712,4.647-19.912,7.979-30.138,11.267c-1.941,0.626-2.028-0.573-2.389-1.597
		c-2.203-6.28-4.349-12.577-6.509-18.862c0.317-0.148,0.567-0.372,0.726-0.32c8.456,2.792,16.793,1.06,25.142-0.613
		c4.944-0.991,7.091-3.427,7.373-8.617c0.936-0.554,2.08-1.482,1.021-2.33c-1.032-0.825-1.139,0.926-1.701,1.489
		c-3.793-2.69-8.419-2.549-12.525-2.483c-8.614,0.137-12.362-6.247-17.337-11.166c-0.592-0.584-0.469-1.319-0.469-2.038
		c-0.003-5.307,0.035-10.612-0.043-15.917c-0.019-1.216,0.32-2.089,1.265-2.789c0.29-0.212,0.542-0.476,0.813-0.716
		c11.507-10.322,11.507-10.322,25.789-4.631c0.557,0.222,1.096,0.495,1.666,0.674c10.749,3.354,20.424,7.887,22.049,21.519
		c0.052-0.083-0.436-0.7-0.891-0.933c-6.584-3.39-13.735-4.933-20.895-6.452c-0.702-0.148-1.428-0.254-2.142-0.259
		c-2.449-0.012-4.277,1.067-4.744,3.529c-0.479,2.521,1.333,3.736,3.371,4.386c3.977,1.272,8.009,2.37,12.017,3.538
		c0.405,2.424,1.72,0.763,2.701,0.603l0.196,0.075c0.025,0.834-0.12,1.746,0.577,2.375c2.389,2.163,1.366,4.69-0.217,6.195
		c-2.217,2.106-2.377,4.426-2.589,7.091c-0.283,3.547,1.571,7.26-0.188,10.565C310.456,137.747,311.766,138.174,313.34,138.887z
		 M307.71,127.175c0.734-0.843,1.613-1.468,0.876-2.705c-0.257-0.429-0.936-0.7-1.206-0.325
		C306.723,125.045,306.611,126.063,307.71,127.175z M305.887,128.588c-0.198-0.084-0.394-0.169-0.59-0.254
		c-0.084,0.198-0.277,0.438-0.224,0.58c0.057,0.141,0.363,0.184,0.559,0.269C305.717,128.984,305.802,128.786,305.887,128.588z
		 M309.545,111.962c-0.198-0.085-0.437-0.278-0.58-0.222c-0.139,0.057-0.181,0.363-0.266,0.559c0.195,0.083,0.436,0.278,0.577,0.221
		C309.417,112.466,309.46,112.16,309.545,111.962z"/>
	<path fill-rule="evenodd" clip-rule="evenodd" fill="#4A54A1" d="M96.542,196.121c-3.552,4.419-2.732,8.829-2.954,13.102
		c-0.134,2.629,1.107,3.868,3.383,3.183c3.361-1.011,8.549,3.053,9.955-2.469c0.909-3.569,1.14-7.887-1.138-11.571
		c-0.328-0.53-1.013-1.126-0.511-2.099c7.222,0,14.525,0,21.21,0c-2.129,15.27-1.644,30.518-0.299,45.989
		c-6.297,0-13.543,0-21.231,0c3.316-4.864,1.896-10.324,2.228-15.595c0.137-2.169-0.631-2.923-2.855-3.006
		c-10.718-0.393-10.61-0.449-10.779,10.071c-0.047,3.018,0.933,5.585,2.394,8.499c-7.585,0-14.792,0-22.346,0
		c3.571-6.184,1.877-12.777,2.108-19.163c0.231-6.377,0.036-12.771,0.049-19.156c0.005-1.459-0.165-2.822-0.801-4.191
		c-1.658-3.571-1.602-3.6,2.509-3.595C83.472,196.121,89.484,196.121,96.542,196.121z"/>
	<path fill-rule="evenodd" clip-rule="evenodd" fill="#4A54A1" d="M155.97,330.739c-7.517-0.954-14.393-2.438-21.264-3.937
		c-0.997-0.219-1.788-0.626-1.197-1.988c3.14-7.213,2.052-14.916,2.311-22.414c0.492-14.207,0.537-28.428,0.763-42.642
		c0.047-2.931-0.919-5.668-1.713-8.427c-0.504-1.755-0.061-2.339,1.812-2.309c5.903,0.1,11.812,0.14,17.712,0
		c2.29-0.054,2.443,0.974,1.807,2.592c-2.023,5.161-1.927,10.546-1.964,15.957c-0.076,11.323-0.419,22.647-0.443,33.971
		C153.772,311.194,152.288,320.951,155.97,330.739z"/>
	<path fill-rule="evenodd" clip-rule="evenodd" fill="#4A54A1" d="M76.137,179.782c0,1.347-0.028,1.917,0.005,2.483
		c0.061,0.944-0.309,1.932-1.15,1.972c-0.815,0.04-1.335-0.945-1.489-1.816c-0.104-0.584-0.075-1.197-0.063-1.795
		c0.276-12.169,0.532-24.339,0.851-36.503c0.118-4.443,0.501-4.464,4.593-2.567c19.894,9.217,39.361,19.531,61.094,24.107
		c2.601,0.549,4.629,1.974,5.015,4.947c0.123,0.947,0.461,1.863,0.624,2.808c1.619,9.385-0.615,12.424-10.188,13.267
		c-10.61,0.933-19.712-2.163-26.647-10.624c-3.435-4.184-6.565-8.636-10.6-12.301c-5.26-4.777-9.917-5.036-14.723-0.836
		c-4.819,4.214-5.804,11.677-2.198,16.668c3.331,4.615,11.743,4.012,14.461-1.034c1.003-1.87,0.914-3.783-0.245-5.47
		c-1.189-1.729-3.072-1.529-4.916-1.282c-1.395,0.184-2.254,1.282-3.437,1.875c-0.014-5.479,1.498-7.948,4.923-8.111
		c4.275-0.2,7.656,3.206,7.976,8.047c0.33,4.968-2.379,9.6-6.836,11.687c-4.528,2.12-10.261,1.314-13.813-2
		C78.422,182.413,77.602,181.383,76.137,179.782z M140.064,175.869c-2.021,2.268-3.755,4.148-6.478,3.427
		c-2.174-0.572-3.84-2.167-4.353-4.415c-0.5-2.172,0.61-4.221,1.187-6.275c0.299-1.06,0.935-1.937-0.688-2.502
		c-8.188-2.85-16.353-5.764-25.427-8.975c3.774,5.842,6.313,11.307,10.134,15.919c4.641,5.602,10.412,9.691,17.715,10.947
		c6.407,1.102,10.841-2.005,11.691-7.72c0.467-3.128-2.026-6.188-4.999-6.245c-1.712-0.031-2.813,0.938-3.361,2.283
		c-0.631,1.555,1.083,1.901,1.936,2.563C138.034,175.353,138.932,175.466,140.064,175.869z M76.58,143.686
		c0,5.623,0,10.718,0,16.379c4.009-5.058,9.331-6.756,15.632-7.962C86.7,149.135,81.913,146.558,76.58,143.686z"/>
	<path fill-rule="evenodd" clip-rule="evenodd" fill="#4A54A1" d="M131.957,54.981c3.411-2.679,6.615-5.522,10.897-6.721
		c4.895-1.371,9.3-0.938,13.06,2.669c1.658,1.59,3.404,1.877,5.606,1.486c4.261-0.749,8.565-1.289,12.864-1.786
		c0.923-0.106,2.542-0.848,2.756,0.542c0.219,1.418-1.458,1.649-2.589,1.823c-3.206,0.495-6.464,0.711-9.644,1.338
		c-25.759,5.06-51.099,11.396-73.859,25.217c-4.516,2.744-8.801,5.863-13.229,8.756c-3.058,1.995-3.958,1.557-4.033-2.035
		C73.55,75.073,73.371,63.869,73.22,52.67c-0.012-0.938-0.673-2.45,0.886-2.636c1.418-0.167,1.499,1.261,1.701,2.32
		c0.084,0.438,0.188,0.874,0.332,1.517c2.692-1.698,4.756-3.959,7.762-4.787c7.072-1.95,13.26,0.631,19.35,3.621
		c4.092,2.009,7.998,4.403,12.108,6.368c3.614,1.727,7.423,2.007,11.147,0.158c2.902-1.444,3.534-3.887,1.762-6.532
		c-0.938-1.397-2.05-2.337-3.915-1.708c-1.743,0.586-1.951,1.861-1.823,3.442c0.101,1.227,0.756,2.761-1.173,3.274
		c-1.632,0.429-2.796-0.45-3.764-1.571c-2.869-3.333-1.056-8.238,3.364-9.183C126.096,45.858,129.688,48.416,131.957,54.981z
		 M114.673,64.943c-8.193-3.583-15.799-6.803-23.879-8.749c-4.162-1.003-7.34,0.599-9.757,3.793
		c-2.448,3.231-2.799,6.864-0.966,10.513c1.736,3.456,6.558,4.629,9.606,2.426c1.781-1.284,2.982-2.933,1.898-5.223
		c-0.999-2.11-2.516-3.211-4.918-1.866c-0.485,0.273-1.103,0.655-1.604,0.009c-0.431-0.556-0.11-1.107,0.09-1.677
		c1.274-3.6,5.887-5.279,9.225-3.289c4.379,2.61,4.829,6.671,3.696,11.392C103.639,69.813,108.861,67.506,114.673,64.943z
		 M76.259,86.229c3.333-2.415,6.181-4.48,9.328-6.763c-3.274-1.682-6.169-3.168-9.328-4.791
		C76.259,78.606,76.259,82.069,76.259,86.229z M154.693,53.48c-4.042-4.641-11.924-2.859-17.159,4.005
		C143.636,56.609,149.061,54.92,154.693,53.48z"/>
	<path fill-rule="evenodd" clip-rule="evenodd" fill="#4A54A1" d="M320.713,54.72c0.374-2.452-0.29-4.497,1.232-6.146
		c1.979,0.7,1.66,2.391,1.578,3.871c-0.615,10.841-0.674,21.691-0.662,33.163c-33.592-18.803-69.387-29.319-107.59-32.075
		c0.938-1.729,2.224-1.541,3.396-1.489c2.53,0.11,5.055,0.297,7.58,0.461c4.281,0.278,8.213,0.697,11.756-3.265
		c3.01-3.369,7.655-3.576,12.074-1.765c3.029,1.242,5.83,2.914,8.414,4.836c2.178,1.618,3.004,1.083,4.163-1.086
		c2.507-4.686,6.487-6.165,10.409-4.219c2.757,1.366,4.038,5.124,2.554,7.675c-0.629,1.079-1.595,1.842-2.914,1.882
		c-1.787,0.056-0.621-1.435-1.021-2.134c-0.573-0.997-0.53-2.485-2.097-2.575c-0.867-0.05-1.623,0.372-2.028,1.249
		c-0.599,1.291-0.759,2.549,0.302,3.679c2.414,2.582,5.453,2.799,8.673,2.21c4.25-0.782,7.755-3.143,11.319-5.383
		c3.868-2.429,7.703-4.94,12.136-6.259c7.101-2.116,13.303-0.754,18.389,4.829C319.008,52.873,319.644,53.559,320.713,54.72z
		 M283.121,64.548c3.685,1.444,6.752,2.652,9.825,3.847c4.745,1.84,4.797,1.84,5.199-3.305c0.207-2.634,1.221-4.792,3.773-5.564
		c2.415-0.726,5.044-0.935,7.188,0.928c0.886,0.77,1.828,1.852,1.319,3.119c-0.539,1.345-1.682,0.245-2.523,0.193
		c-2.678-0.156-4.522,1.036-5.125,3.543c-0.658,2.728,1.06,4.221,3.458,5.069c3.151,1.112,6.357-0.165,8.271-3.291
		c2.108-3.449,1.762-9.095-0.752-12.226c-2.188-2.726-6.047-3.781-10.235-2.203C296.612,57.257,290.254,61.019,283.121,64.548z
		 M237.047,53.038c7.413,1.517,14.207,2.907,21.668,4.433C251.03,50.329,242.642,48.553,237.047,53.038z M312.274,76.9
		c3.105,1.385,5.229,3.371,8.04,3.958c0-2.938,0-5.64,0-8.909C317.575,73.636,315.2,75.096,312.274,76.9z"/>
	<path fill-rule="evenodd" clip-rule="evenodd" fill="#4A54A1" d="M311.931,262.861c-4.709-0.655-9.302,0.631-13.957,0.895
		c-2.12,0.12-3.745,1.409-4.591,3.486c-1.188,2.926-0.06,5.013,3.102,5.366c2.495,0.28,5.021,0.295,7.531,0.427
		c-0.202,5.135-3.892,9.547-2.81,14.734c-1.181,0.672-2.052-2.202-2.971,0.135c-4.33,0.037-8.662,0.146-12.991,0.089
		c-3.635-0.049-10.2-6.803-10.295-10.409c-0.08-3.129,0.102-6.299-0.362-9.371c-0.572-3.8,1.206-6.374,3.091-9.395
		c5.066-8.132,11.94-11.273,21.352-9.78c4,0.634,8.147-0.275,12.207,0.379c0.24,0.313,0.478,0.627,0.716,0.942
		c0.846,2.132,1.688,4.264,2.534,6.396C312.928,258.493,313.412,261.09,311.931,262.861z"/>
	<path fill-rule="evenodd" clip-rule="evenodd" fill="#4A54A1" d="M297.563,182.924c5.558,3.916,11.604,3.058,15.496-2.198
		c4.127-5.573,3.118-13.613-2.231-17.801c-5.703-4.462-11.688-3.981-16.604,1.632c-4.045,4.617-7.656,9.616-11.745,14.19
		c-7.746,8.664-18.099,10.718-27.345,5.873c-1.673-0.876-2.563-2.061-3.024-3.741c-1.852-6.747,1.333-12.344,7.91-14.579
		c17.578-5.981,35.222-11.828,51.881-20.174c2.973-1.491,5.825-3.244,8.643-5.02c1.736-1.093,2.323-0.641,2.313,1.249
		c-0.007,1.929,0.068,3.858,0.015,5.786c-0.352,12.405-0.729,24.807-1.096,37.21c-0.57,0.198-1.141,0.396-1.71,0.593
		c-0.102-1.879-0.203-3.759-0.347-6.436c-6.652,7.882-13.684,12.575-23.041,5.244C296.973,184.145,297.27,183.534,297.563,182.924z
		 M266.394,167.806c0.938,1.281,1.852,2.226,2.407,3.35c1.284,2.586,1.107,5.135-0.888,7.338c-1.95,2.155-4.349,1.595-6.659,0.772
		c-1.011-0.36-2.055-1.072-2.26-2.174c-0.256-1.399,1.264-1.079,1.958-1.573c1.058-0.756,2.594-1.479,2.13-2.954
		c-0.527-1.687-2.175-2.042-3.883-1.823c-4.217,0.546-6.626,6.033-4.11,9.394c3.159,4.226,11.199,5.343,14.851,1.569
		c6.494-6.714,12.616-13.79,18.895-20.716c-0.144-0.236-0.285-0.469-0.429-0.705C281.116,162.774,273.826,165.266,266.394,167.806z
		 M319.834,143.855c-5.557,3.423-10.631,6.551-16.287,10.04c7.016,1.018,12.078,3.974,16.287,9.693
		C319.834,156.505,319.834,150.454,319.834,143.855z"/>
	<path fill-rule="evenodd" clip-rule="evenodd" fill="#4A54A1" d="M298.235,287.904c0.919-2.337,1.79,0.537,2.971-0.135
		c-1.082-5.188,2.607-9.6,2.81-14.734c5.536-1.225,8.829,2.864,12.772,5.403c0.283,0.182,0.69,0.55,0.66,0.78
		c-0.792,5.892,2.242,12.252-2.182,17.705c-1.058,1.3-2.163,2.629-2.896,4.117c-3.658,7.409-9.987,11.246-17.54,13.675
		c-4.438,1.428-8.794,3.121-13.128,4.844c-1.682,0.669-2.4,0.132-2.897-1.395c-1.729-5.331-3.493-10.647-5.204-15.85
		c0.425-0.901,1.124-0.718,1.614-0.581c6.137,1.722,11.83-0.188,17.566-1.998c5.495-1.733,6.732-3.199,7.073-8.857
		c0.559-0.115,1.379-0.16,1.296-0.854c-0.106-0.896-0.874-0.295-1.366-0.3C298.777,289.536,298.97,288.325,298.235,287.904z"/>
	<path fill-rule="evenodd" clip-rule="evenodd" fill="#4A54A1" d="M163.329,196.352c-1.797,15.474-1.616,30.713-0.08,46.043
		c-6.455,0-13.8,0-20.706,0c2.685-13.193,0.711-26.531,1.331-39.756c0.106-2.238-1.816-3.875-2.021-6.287
		C149.346,196.352,156.743,196.352,163.329,196.352z"/>
	<path fill-rule="evenodd" clip-rule="evenodd" fill="#4A54A1" d="M297.104,376.463c0.349-14.527,0.692-28.814,1.034-43.102
		c0.017-0.721-0.062-1.456,0.047-2.165c0.33-2.175-1.79-4.782-0.339-6.245c1.823-1.833,4.732-2.589,7.642-4.045
		c-1.051,5.19-0.841,9.953-0.936,14.697c-0.023,1.161-1.111,3.421,1.046,3.331c1.563-0.066,3.941-0.732,3.951-3.361
		c0.016-3.731,0.661-7.606-0.128-11.159c-0.899-4.047,0.092-6.077,3.93-7.069c0.902-0.233,1.731-0.744,2.666-1.161
		c-0.831,15.063-0.237,29.954-0.449,44.84c-0.01,0.604,0.068,1.218-0.028,1.805c-0.354,2.134,1.6,4.761,0.172,6.16
		c-1.656,1.62-4.462,2.072-7.27,3.241c1.051-7.265,0.666-14.134,0.746-21.118c-3.815,0.317-5.485,1.974-5.153,5.802
		c0.433,5.02-0.582,10.11,0.563,15.113c0.217,0.945,0.033,1.688-0.936,2.048C301.453,374.894,299.234,375.688,297.104,376.463z"/>
	<path fill-rule="evenodd" clip-rule="evenodd" fill="#4A54A1" d="M255.449,23.818c-0.004,1.324-0.245,2.7,0.037,3.958
		c1.232,5.521-2.121,8.984-5.367,12.546c-0.729,0.801-1.574,0.961-2.578,0.956c-4.93-0.019-9.863-0.047-14.791,0.019
		c-1.621,0.023-1.83-0.37-1.663-2.063c1.006-10.278,0.962-20.586,0.007-30.864c-0.164-1.791,0.193-2.021,1.713-2.002
		c4.931,0.057,9.861-0.019,14.791,0.054c2.664,0.04,7.797,6.052,7.845,9.1C255.484,18.287,255.451,21.053,255.449,23.818z
		 M240.213,23.248c0,2.16-0.052,4.32,0.021,6.478c0.04,1.218-0.554,2.917,1.336,3.232c1.865,0.313,3.922-0.169,4.499-2.068
		c1.438-4.751,1.418-9.661,0.028-14.424c-0.594-2.035-2.67-2.221-4.521-2.007c-2.395,0.275-1.16,2.212-1.3,3.394
		C240.072,19.63,240.225,21.448,240.213,23.248z"/>
	<path fill-rule="evenodd" clip-rule="evenodd" fill="#4A54A1" d="M180.935,391.731c-3.569,0.462-4.805-0.478-3.75-4.452
		c0.907-3.418,0.806-7.158,0.784-10.756c-0.068-10.431,1.76-20.814,0.728-31.255c-0.137-1.378,0.259-1.698,1.479-1.573
		c4.179,0.424,8.358,0.819,12.534,1.258c0.45,0.047,0.964,0.203,1.298,0.483c3.625,3.024,5.887,18.501,3.479,22.798
		c-0.69,1.234-1.432,2.273-2.659,2.954c-0.41,0.077-1.061-0.033-0.971,0.584c0.047,0.334,0.596,0.599,0.918,0.893
		c-0.186,2.924,0.858,5.682,1.128,8.547c-0.921,0.322-0.827,1.303-1.253,1.9c-1.237,1.736-1.863,4.355-4.851,4.015
		c-0.483-2.782-1.159-5.551-1.395-8.355c-0.221-2.57-1.545-2.872-3.587-2.403c-0.634-0.113-1.162-0.911-1.892-0.33
		c-0.099,0.08-0.062,0.554-0.005,0.573c0.537,0.164,1.093,0.269,1.644,0.391c-0.047,2.891-0.096,5.783-0.146,8.676
		C182.537,387.279,180.386,388.729,180.935,391.731z M185.197,360.847c1.107,1.678-1.812,4.848,2.146,5.303
		c2.501,0.285,4.094-1.771,3.988-5.189c-0.078-2.591-0.501-5.581-3.828-5.479C183.616,355.601,186.325,359.11,185.197,360.847z"/>
	<path fill-rule="evenodd" clip-rule="evenodd" fill="#4A54A1" d="M285.281,23.63c0,1.802-0.304,3.67,0.059,5.399
		c1.046,4.992-1.929,8.08-4.829,11.326c-0.774,0.867-1.595,0.9-2.544,0.905c-1.924,0.002-3.898-0.28-5.762,0.059
		c-4.647,0.846-7.684-1.173-10.182-4.832c-0.923-1.35-1.537-2.558-1.502-4.235c0.096-4.567,0.431-9.182-0.078-13.696
		c-0.539-4.77,1.646-7.938,4.619-11.048c0.846-0.881,1.698-1.152,2.841-1.117c1.92,0.061,3.911,0.334,5.758-0.047
		c5.236-1.074,8.197,1.813,10.878,5.592c0.707,0.999,0.737,1.969,0.74,3.034C285.286,17.856,285.281,20.742,285.281,23.63z
		 M269.251,23.625c0,1.922-0.042,3.845,0.01,5.767c0.065,2.316,1.415,3.581,3.628,3.628c2.235,0.047,3.639-1.211,3.688-3.521
		c0.083-3.842,0.11-7.691,0.019-11.534c-0.054-2.216-1.175-3.564-3.611-3.562c-2.593,0.002-3.684,1.397-3.733,3.814
		C269.216,20.019,269.244,21.821,269.251,23.625z"/>
	<path fill-rule="evenodd" clip-rule="evenodd" fill="#4A54A1" d="M203.467,6.485c3.053,0,5.803,0,8.711,0
		c-1.281,10.572-0.351,21.106-0.697,31.62c-0.035,1.067,1.063,3.079-1.143,3.088c-1.922,0.01-4.268,1.178-5.613-1.724
		c-2.464-5.319-5.239-10.499-7.884-15.736c-0.205-0.407-0.328-0.9-1.253-0.869c0.318,6.052-0.69,12.12,0.891,18.08
		c-0.354,0.137-0.575,0.297-0.799,0.299c-2.41,0.023-5.279,0.841-7.116-0.182c-2.236-1.246-0.038-4.101-0.127-6.278
		c-0.285-7.102-0.155-14.221-0.066-21.335c0.028-2.309-0.356-4.514-1.105-7.081c2.742,0,5.253,0.092,7.753-0.033
		c1.646-0.08,1.959,1.119,2.487,2.146c2.212,4.311,4.396,8.638,6.911,12.888C204.268,16.506,205.354,11.64,203.467,6.485z"/>
	<path fill-rule="evenodd" clip-rule="evenodd" fill="#4A54A1" d="M156.062,41.295c3.032-9.88,4.721-19.799,6.975-29.589
		c0.08-0.351,0.396-0.726,0.322-1.02c-1.411-5.755,2.702-4.29,5.637-4.318c2.653-0.023,5.786-0.853,7.816,0.273
		c1.898,1.053,0.556,4.488,1.192,6.891c2.391,9.015,3.703,18.301,6.725,27.757c-3.041,0-5.962-0.036-8.885,0.014
		c-1.845,0.028-1.395-1.215-1.317-2.23c0.137-1.771,0.726-4.209-1.039-4.857c-2.004-0.737-4.641-0.681-6.707-0.026
		c-1.684,0.532-1.31,2.878-1.027,4.471c0.365,2.049-0.146,2.836-2.328,2.676C161.049,41.161,158.648,41.295,156.062,41.295z
		 M169.708,16.836c-1.472,2.167-0.938,4.771-1.658,7.053c-0.212,0.669-0.716,1.849,0.424,2.162c0.999,0.278,2.214,0.325,3.185,0.01
		c1.295-0.424,0.563-1.633,0.403-2.48C171.628,21.274,171.077,18.989,169.708,16.836z"/>
	<path fill-rule="evenodd" clip-rule="evenodd" fill="#4A54A1" d="M220.682,383.516c-0.141,0.817-0.275,1.637-0.426,2.452
		c-1.453,7.825-1.453,7.835-9.656,7.438c-2.279-0.107-5.1,0.462-6.689-0.664c-1.785-1.265,0.297-3.932,0.232-6.044
		c-0.389-13.004,0.832-26.014-0.129-39.01c-0.125-1.694,0.2-2.045,1.785-1.958c2.886,0.158,5.823,0.455,8.667,0.102
		c3.568-0.443,4.735,1.26,4.836,4.313c0.085,2.624,1.321,5.133,0.757,8.099c-1.911-0.809-3.736-1.731-5.795-1.371
		c-0.977,0.172-2.396-0.672-2.825,0.771c-0.476,1.602-0.89,3.597,0.108,4.901c1.488,1.948,3.154-0.349,4.822-0.565
		c0,4.302,0,8.492,0,12.752c-1.781,0.192-3.435-2.542-4.912-0.604c-1.428,1.878-0.799,4.445-0.416,6.622
		c0.391,2.217,2.643,0.906,3.976,1.437c0.019,2.113,0.674,3.199,2.997,2.038C218.818,383.821,219.787,383.741,220.682,383.516z"/>
	<path fill-rule="evenodd" clip-rule="evenodd" fill="#4A54A1" d="M144.081,375.449c2.247-4.961,2.084-6.252-2.358-8.709
		c-3.063-1.693-4.113-4.616-4.537-7.338c-1.117-7.191,0.292-14.044,4.735-20.061c0.928-1.253,1.924-0.389,2.895-0.217
		c7.147,1.274,7.149,1.279,8.153,8.33c0.252,1.778,0.48,3.56,0.789,5.856c-2.019-1.409-3.651-2.377-5.741-2.608
		c-1.616-0.177-2.862-0.384-3.515,1.354c-0.607,1.623-0.996,3.313,0.625,4.612c2.537,2.035,5.677,3.466,6.563,7.061
		c0.281,1.135,1.202,2.11,1.063,3.366c-0.721,6.591-0.158,13.462-4.876,19.12c-1.006,1.207-1.616,1.713-3.138,1.447
		c-8.556-1.489-8.57-1.459-9.291-10.115c-0.134-1.619-0.19-3.242-0.309-5.31c2.627,2.676,5.548,3.719,8.954,3.198
		c0.207,0.387,0.415,0.775,0.622,1.164c0.155-0.139,0.311-0.278,0.464-0.419C144.813,375.939,144.446,375.694,144.081,375.449z"/>
	<path fill-rule="evenodd" clip-rule="evenodd" fill="#4A54A1" d="M94.647,346.937c-2.391,3.357-3.873,7.152-6.643,10.537
		c-2.758-4.971-4.096-10.342-6.497-15.319c-0.254,4.332-0.74,8.62,0.118,12.907c-0.127,0.009-0.245,0.054-0.328,0.019
		c-1.981-0.829-4.362-1.239-5.833-2.619c-1.571-1.473,0.026-3.868-0.111-5.89c-0.398-5.835,0.396-11.712-0.466-17.236
		c8.838,0.434,11.307,7.101,13.244,15.016c1.489-2.5,2.737-4.295,3.667-6.243c0.883-1.852,1.908-2.282,3.894-1.606
		c6.233,2.118,6.24,2.043,6.205,8.647c-0.033,5.506-0.01,11.011-0.01,16.659c-2.29,0.036-4.396-1.251-6.685-1.745
		c-0.782-0.167-0.971-0.669-0.728-1.613C95.444,354.685,94.572,350.835,94.647,346.937z"/>
	<path fill-rule="evenodd" clip-rule="evenodd" fill="#4A54A1" d="M175.494,357.05c-0.997-0.806-1.526-1.237-2.061-1.663
		c-1.166-0.934-2.565-1.673-3.953-1.109c-1.383,0.563-0.704,2.141-0.78,3.265c-0.532,8.052-0.984,16.107-1.5,24.162
		c-0.186,2.897-0.004,5.755,0.78,8.961c-2.747-0.264-5.324-0.488-7.896-0.771c-1.213-0.135-1.31-0.644-1.072-1.941
		c1.976-10.793,1.661-21.802,2.876-32.67c0.323-2.877-1.771-2.307-3.25-2.382c-1.117-0.057-2.014,1.308-3.454,0.874
		c0.792-3.526,1.625-6.952,2.309-10.41c0.32-1.632,0.671-2.471,2.742-2.037c3.045,0.641,6.195,0.975,9.312,1.043
		c3.399,0.076,4.723,1.701,4.917,4.9C174.646,350.343,175.096,353.396,175.494,357.05z"/>
	<path fill-rule="evenodd" clip-rule="evenodd" fill="#4A54A1" d="M155.808,16.938c-1.011-0.405-1.444-0.572-1.873-0.751
		c-6.897-2.883-9.922-0.862-9.929,6.626c0,0.601,0,1.204,0,1.807c0.002,7.906,1.802,9.312,9.534,7.335
		c1.767-0.452,2.624-0.219,1.948,1.814c-0.038,0.113-0.081,0.226-0.125,0.339c-0.896,2.311-0.565,6.212-2.476,6.751
		c-3.573,1.008-7.634,0.577-11.456,0.287c-1.95-0.151-6.466-7.227-6.473-9.368c-0.014-4.7,0.4-9.444-0.118-14.089
		c-0.589-5.282,2.843-8.537,6.089-10.678c3.069-2.028,7.693-0.719,11.627-0.398c0.365,0.028,0.742,1.152,0.935,1.819
		C154.246,11.048,154.929,13.684,155.808,16.938z"/>
	<path fill-rule="evenodd" clip-rule="evenodd" fill="#4A54A1" d="M254.597,387.816c-1.354-2.044-2.867-4-3.571-6.407
		c1.027-0.704,1.378-1.441,0.105-2.254c-0.641-8.876-0.4-17.785,0.231-26.607c0.271-3.783,2.876-7.55,4.961-10.999
		c1.253-2.072,4.233-1.851,6.421-2.656c5.678-2.097,5.718-1.998,6.959,4.025c0.146,0.704,0.238,1.421,0.337,2.132
		c0.375,2.702,2.556,6.035-3.562,4.721c-4.09-0.879-7.828,3.698-7.983,8.434c-0.184,5.523,0.007,11.058,0.035,16.588
		c-1.425,1.061-0.676,2.252,0.125,3.018c1.027,0.98,1.887-0.077,2.674-0.751c0.614-0.252,1.229-0.504,1.845-0.756
		c-0.936,1.453-1.204,3.05-1.131,4.761c0.105,2.499-0.707,4.256-3.654,3.889C256.156,384.672,255.127,385.893,254.597,387.816z"/>
	<path fill-rule="evenodd" clip-rule="evenodd" fill="#4A54A1" d="M176.085,314.763c0.558-0.148,1.59-0.254,1.609-0.454
		c0.476-5.02,4.306-3.566,7.241-3.81c0.349-0.028,0.891-0.077,1.037,0.113c2.824,3.733,6.893,2.594,10.605,2.688
		c1.941,0.048,2.457,2.817,4.628,2.188c-1.222,5.473-2.463,10.942-3.653,16.424c-0.327,1.503-1.25,1.783-2.626,1.748
		c-4.092-0.105-8.19-0.179-12.282-0.12c-1.953,0.026-2.745-0.799-3.112-2.655C178.466,325.493,177.246,320.134,176.085,314.763z"/>
	<path fill-rule="evenodd" clip-rule="evenodd" fill="#4A54A1" d="M280.193,376.274c0.102-9.383,0.226-18.763,0.275-28.146
		c0.007-1.206,0.944-2.897-0.594-3.538c-1.418-0.594-2.669,0.589-3.785,1.528c-0.707,0.596-1.098,1.606-2.561,1.8
		c0.777-4.431,1.545-8.721,2.277-13.02c0.212-1.234,1.274-1.308,2.118-1.67c4.172-1.81,8.36-3.583,12.532-5.399
		c1.138-0.495,2.157-1.079,2.426,0.896c0.517,3.764,1.129,7.517,1.711,11.356c-6.225-1.054-6.969-0.347-7.136,5.865
		c-0.217,7.929,0.32,15.875-0.594,23.783c-3.243-0.947-3.813,0.487-2.624,3.126c1.328,2.951,0.227,3.795-2.631,3.427
		C281.145,376.225,280.667,376.274,280.193,376.274z"/>
	<path fill-rule="evenodd" clip-rule="evenodd" fill="#4A54A1" d="M233.111,330.791c0.035-0.886,0.261-1.795,1.172-2.023
		c2.703-0.686,3.451-2.968,4.979-4.857c1.917-2.37,3.842-5.858,8.561-5.68c-2.961-2.607-0.102-5.6-1.746-8
		c1.138-0.798,2.424-0.539,3.678-0.516c0.433,1.286-2.27,2.483-0.644,3.289c1.562,0.777,2.587-1.188,3.376-2.505
		c0.221-0.369,0.115-0.935,0.16-1.408c3.271-1.009,6.81-0.881,9.971-2.36c1.68,1.071,3.588,0.723,5.416,0.859
		c-0.834,3.598-1.67,7.194-2.506,10.792c-4.887,0.146-4.992,4.306-6.278,7.474C250.658,328.141,241.998,330.065,233.111,330.791z"/>
	<path fill-rule="evenodd" clip-rule="evenodd" fill="#4A54A1" d="M234.446,375.786c-1.481-2.497-1.774-5.413-2.836-8.056
		c-0.132-0.398-0.245-0.809-0.422-1.186c-0.023-0.054-0.485-0.021-0.554,0.09c-0.304,0.49,0.033,0.775,0.424,1.011
		c-0.075,4.082-0.15,8.164-0.224,12.247c-1.81,0.174-0.749-2.427-2.132-2.483c-1.703,1.301-0.582,4.365-3.443,4.652
		c-0.045-9.236-0.09-18.475-0.135-27.714c-0.007-1.079,0.066-2.17-0.062-3.236c-0.646-5.388-0.499-5.508,4.989-5.242
		c1.164,0.055,1.793,0.405,2.08,1.454c1.596,5.847,4.188,11.385,5.319,17.373c-1.218,1.347-0.706,1.96,0.896,2.108
		c0.157-0.128,0.327-0.145,0.506-0.052c-0.047,1.173,0.4,1.889,1.489,2.553c1.091,0.667,1.104,2.153-0.278,2.427
		C237.473,372.243,236.512,374.727,234.446,375.786z"/>
	<path fill-rule="evenodd" clip-rule="evenodd" fill="#4A54A1" d="M68.629,348.383c4.148,12.719,15.437,13.68,25.703,16.242
		c8.598,2.146,17.385,3.683,25.097,8.452c2.066,1.279,3.986,2.732,5.526,4.605c2.624,3.194,2.497,7.528-0.208,10.15
		c-2.989,2.893-8.229,3.056-11.192,0.377c-1.168-1.058-2.014-2.374-1.064-3.76c1.098-1.604,2.042,0.203,2.992,0.599
		c1.09,0.452,1.995,1.319,3.27,1.371c2.075,0.085,4.704-0.035,5.5-1.696c0.966-2.007-0.137-4.372-2.007-6.08
		c-4.668-4.261-10.501-5.58-16.438-6.657c-6.134-1.114-12.36-1.827-18.332-3.688c-8.408-2.617-14.867-7.682-18.81-15.688
		C68.076,351.405,67.067,350.154,68.629,348.383z"/>
	<path fill-rule="evenodd" clip-rule="evenodd" fill="#4A54A1" d="M234.446,375.786c2.065-1.06,3.026-3.543,5.618-4.054
		c1.383-0.273,1.369-1.76,0.278-2.427c-1.089-0.664-1.536-1.38-1.489-2.553c-0.297-6.601,0.729-13.249-0.669-19.81
		c-0.306-1.435,0.351-1.87,1.665-2.049c1.777-0.245,3.524-0.7,5.438-1.096c0.664,2.794-0.65,5.413-0.617,8.153
		c0.139,12.294,0.025,24.593-0.01,36.892c-0.002,1.501,0.471,3.181-2.021,3.39c-2.051,0.172-3.25-0.052-3.865-2.422
		C237.549,385.082,235.912,380.455,234.446,375.786z"/>
	<path fill-rule="evenodd" clip-rule="evenodd" fill="#4A54A1" d="M117.54,6.375c-0.504,11.22-0.984,22.122,0.217,33.005
		c0.205,1.87-0.24,2.007-1.691,1.979c-2.527-0.047-5.517,0.829-7.467-0.233c-2.36-1.291,0.089-4.172-0.005-6.412
		c-0.322-7.451-0.226-14.928-0.056-22.391c0.042-2.014-1.875-4.674-0.387-5.64c1.628-1.06,4.396-0.396,6.669-0.405
		C115.867,6.273,116.979,6.028,117.54,6.375z"/>
	<path fill-rule="evenodd" clip-rule="evenodd" fill="#4A54A1" d="M293.481,233.802c-6.961-0.926-13.825-0.929-20.692-0.827
		c-3.503,0.052-6.621,1.199-9.036,3.81c-1.145,1.234-2.323,2.753-1.183,4.476c1.173,1.771,3.101,2.317,5.088,1.52
		c2.22-0.889,4.316-2.073,6.497-3.058c0.573-0.257,1.204-1.199,1.826-0.417c0.377,0.476,0.487,1.406,0.322,2.025
		c-0.45,1.689-1.575,2.952-3.091,3.823c-3.018,1.738-6.195,1.767-9.361,0.589c-4.529-1.691-5.453-7.022-1.887-10.984
		c3.244-3.6,7.581-5.098,12.224-5.348c8.177-0.438,16.372-0.711,24.561-0.729c6.899-0.017,13.146-1.687,18.711-5.814
		c0.612-0.457,1.368-1.488,2.089-0.683c0.938,1.048-0.374,1.66-0.989,2.242C311.483,231.098,302.638,232.996,293.481,233.802z"/>
	<path fill-rule="evenodd" clip-rule="evenodd" fill="#4A54A1" d="M255.105,218.69c1.423-7.136,5.648-11.635,11.312-14.902
		c7.503-4.33,15.722-3.557,23.917-3.067c7.611,0.455,15.314,2.305,22.786-1.017c1.463-0.65,2.86-1.218,3.435-2.881
		c0.365-1.062,1.536-2.125,0.13-3.178c-1.308-0.975-2.831-0.961-3.967,0.148c-1.345,1.314-2.419,2.912-3.668,4.452
		c-2.317-2.299-1.451-4.245,0.487-6.04c2.394-2.214,6.283-2.639,8.264-0.841c2.017,1.833,1.928,4.049,0.613,6.212
		c-2.01,3.308-4.867,5.505-8.676,6.537c-6.627,1.793-13.321,1.673-20.063,1.081c-6.961-0.607-13.868-0.899-20.77,0.94
		c-5.543,1.477-9.435,4.414-11.393,9.898C257.202,216.899,257.209,218.28,255.105,218.69z"/>
	<path fill-rule="evenodd" clip-rule="evenodd" fill="#4A54A1" d="M126.331,355.956c-2.909-3.555-6.092-4.652-9.039-6.219
		c-0.761,2.615-0.728,2.565,0.634,3.481c1.192,0.802,3.316,0.445,3.708,1.805c0.5,1.743,0.123,3.741,0.123,5.583
		c-1.51,0.312-1.873-0.947-2.742-1.223c-0.985-0.311-2.08-2.113-2.907-0.546c-0.603,1.138-0.857,3.02,1.216,3.929
		c2.836,1.241,5.488,2.912,8.579,3.576c-2.205,4.476-2.186,4.438-6.532,2.389c-3.538-1.67-8.798-2.365-10.212-5.093
		c-1.352-2.61,0.165-7.353,0.123-11.159c-0.035-3.648,0.667-7.323-0.554-11.173c5.265,1.955,9.922,4.372,14.551,6.841
		C126.109,349.66,125.676,352.508,126.331,355.956z"/>
	<path fill-rule="evenodd" clip-rule="evenodd" fill="#4A54A1" d="M313.34,138.887c-1.574-0.713-2.884-1.14-1.595-3.564
		c1.76-3.305-0.095-7.018,0.188-10.565c0.212-2.665,0.372-4.985,2.589-7.091c1.583-1.505,2.605-4.033,0.217-6.195
		c-0.697-0.629-0.552-1.541-0.577-2.375c4.292,1.034,7.27,4.363,10.991,6.403c1.392,0.763,0.306,2.917,0.563,4.41
		c0.806,4.662-0.766,8.153-4.553,11.103C318.266,133.267,315.926,136.235,313.34,138.887z"/>
	<path fill-rule="evenodd" clip-rule="evenodd" fill="#4A54A1" d="M132.215,349.759c-8.19-12.249-20.982-14.186-33.79-16.124
		c-5.856-0.889-11.42-2.54-16.268-6.196c-4.848-3.655-6.466-8.032-3.866-11.106c2.294-2.709,8.174-1.838,11.96,1.708
		c1.903,1.783,1.131,3.303-0.339,5.178c-1.465-2.297-3.208-4.017-5.204-5.498c-2.019-1.498-3.903-1.029-5.538,0.476
		c-1.861,1.71-0.48,3.34,0.57,4.751c3.082,4.14,7.642,4.999,12.403,5.564c6.07,0.721,12.266,0.273,18.211,2.125
		c9.241,2.874,16.096,8.821,21.674,16.487C132.481,347.742,132.771,348.338,132.215,349.759z"/>
	<path fill-rule="evenodd" clip-rule="evenodd" fill="#4A54A1" d="M254.597,387.816c0.53-1.924,1.56-3.145,3.792-2.864
		c2.947,0.367,3.76-1.39,3.654-3.889c-0.073-1.711,0.195-3.308,1.131-4.761c1.83-4.677,1.387-9.435,0.157-14.099
		c-0.462-1.753-0.587-2.485,1.444-2.94c2.438-0.544,4.777-1.536,7.67-2.504c-1.399,4.664-1.922,9.274-1.319,13.665
		c0.747,5.444-1.43,9.753-3.562,14.254c-1.126,2.375-10.012,5.558-12.332,4.387C254.898,388.894,254.804,388.245,254.597,387.816z"
		/>
	<path fill-rule="evenodd" clip-rule="evenodd" fill="#4A54A1" d="M305.356,225.06c-2.973,0.059-5.296-1.896-5.633-4.813
		c-0.259-2.267-0.452-4.539-0.662-6.811c-0.304-3.318,1.871-6.021,5.176-6.447c1.543-0.197,3.176-0.808,4.603-0.492
		c2.038,0.45,3.536,1.941,3.768,4.233c0.179,1.792,0.15,3.611,0.4,5.392C313.896,222.431,311.789,224.928,305.356,225.06z
		 M303.938,214.509c0.19,1.418,0.384,2.836,0.572,4.257c0.186,1.416,0.911,2.146,2.414,1.965c1.515-0.185,2.012-1.223,1.963-2.519
		c-0.048-1.305-0.425-2.601-0.479-3.905c-0.068-1.636-0.162-3.487-2.158-3.491C304.025,210.808,303.813,212.671,303.938,214.509z"/>
	<path fill-rule="evenodd" clip-rule="evenodd" fill="#4A54A1" d="M276.504,215.557c0-1.154,0.165-2.337-0.028-3.455
		c-0.617-3.574,0.969-4.417,4.22-3.498c-0.759,5.041-1.856,10.056-1.993,15.193c-0.019,0.721,0.476,1.81-0.867,1.972
		c-1.029,0.127-1.745-0.08-2.19-1.276c-0.815-2.2-1.898-4.299-3.558-6.389c0,2.052-0.007,4.104,0.003,6.155
		c0.002,0.808,0.37,1.77-0.766,2.118c-1.331,0.409-1.566-0.73-2.005-1.536c-1.665-3.053-3.18-6.193-5.02-9.133
		c-1.531-2.45-2.12-4.3,1.691-5.107c0.834,1.854,1.727,3.838,2.619,5.821c0.252,0.004,0.507,0.009,0.759,0.014
		c0-1.43-0.073-2.862,0.021-4.285c0.089-1.333-0.394-2.944,1.825-3.295c2.102-0.332,1.941,1.354,2.452,2.391
		c0.721,1.461,1.268,3.006,1.89,4.514C275.873,215.691,276.188,215.625,276.504,215.557z"/>
	<path fill-rule="evenodd" clip-rule="evenodd" fill="#4A54A1" d="M282.389,208.679c3.533-1.037,5.503-0.257,4.971,3.8
		c-0.198,1.493,0.179,2.638,2.129,2.289c1.96-0.349,1.244-1.625,1.051-2.763c-0.193-1.143-0.342-2.29-0.53-3.576
		c1.666-0.073,3.211-0.144,4.809-0.214c0.346,5.867,0.522,11.625,1.912,17.238c-3.352,0.891-5.67,0.659-5.17-3.733
		c0.146-1.284,0.063-3.112-2.208-2.869c-2.349,0.249-1.088,2.012-1.13,3.058c-0.045,1.151,0.438,2.322,0.721,3.635
		c-2.604,0.449-4.438,0.871-4.73-3.124C283.877,217.837,283.722,213.147,282.389,208.679z"/>
	<path fill-rule="evenodd" clip-rule="evenodd" fill="#4A54A1" d="M204.297,178.743c-0.003,1.442,0.166,2.909-0.038,4.323
		c-0.403,2.77-1.449,4.961-4.888,4.935c-3.937-0.028-6.436-1.588-6.624-4.758c-0.184-3.112-0.17-6.252-0.002-9.369
		c0.169-3.173,2.57-4.641,6.65-4.707c3.46-0.057,4.577,2.017,4.876,4.893C204.431,175.605,204.299,177.181,204.297,178.743z
		 M196.761,178.274c0.697,1.776-1.147,4.971,1.762,5.077c2.879,0.106,1.946-3.046,1.866-4.867c-0.076-1.745,1.338-4.833-1.873-4.789
		C195.493,173.734,197.554,176.764,196.761,178.274z"/>
	<path fill-rule="evenodd" clip-rule="evenodd" fill="#4A54A1" d="M179.204,169.198c1.731,0,3.399-0.002,5.069,0
		c4.726,0.012,7.993,4.318,5.651,8.417c-1.667,2.921-0.834,5.083-0.188,7.646c0.229,0.914,1.774,2.273-0.318,2.65
		c-1.298,0.233-3.027,0.714-3.574-1.769c-0.325-1.475,0.264-4.44-2.089-4.156c-1.383,0.165-0.492,2.917-0.497,4.49
		c-0.009,2.487-1.809,1.258-2.85,1.449c-1.748,0.318-1.31-0.669-1.274-1.906C179.296,180.533,179.204,175.037,179.204,169.198z
		 M183.074,175.814c0.478,0.441-0.572,1.934,1.107,1.871c1.39-0.052,2.102-0.907,2.031-2.327c-0.057-1.07-0.523-1.739-1.682-1.866
		C182.674,173.287,183.241,174.656,183.074,175.814z"/>
	<path fill-rule="evenodd" clip-rule="evenodd" fill="#4A54A1" d="M241.259,187.593c0.62-1.983,0.434-4.019,0.45-6.044
		c0.007-1.166-0.749-1.317-1.688-1.338c-0.965-0.019-1.26,0.518-1.271,1.333c-0.019,1.327-0.205,2.688,0.035,3.967
		c0.361,1.913-0.141,2.473-2.144,2.506c-2.415,0.042-1.812-1.032-1.741-2.634c0.21-4.688,0.236-9.404-0.059-14.082
		c-0.104-1.621-0.11-2.186,1.602-2.106c1.478,0.071,3.014-0.208,2.37,2.195c-0.242,0.902-0.063,1.917-0.07,2.879
		c-0.01,0.989,0.329,1.562,1.475,1.505c1.046-0.052,1.54-0.469,1.503-1.528c-0.033-0.961,0.125-1.956-0.063-2.884
		c-0.25-1.22-0.825-2.379,1.296-2.146c1.32,0.144,2.763-0.521,2.567,2.042c-0.327,4.311-0.108,8.667-0.093,13.003
		C245.442,188.217,245.459,188.217,241.259,187.593z"/>
	<path fill-rule="evenodd" clip-rule="evenodd" fill="#4A54A1" d="M218.313,169.521c-0.65,4.292-0.248,8.584-0.309,12.862
		c-0.057,4.038-1.576,5.653-5.526,5.611c-3.472-0.038-5.265-2-5.229-5.616c0.037-3.722,0.266-7.472-0.104-11.156
		c-0.225-2.217,0.756-1.965,2.16-2.049c1.715-0.108,2.244,0.344,2.075,2.19c-0.253,2.742-0.125,5.522-0.05,8.283
		c0.038,1.425-0.666,3.68,1.588,3.666c1.896-0.014,1.423-2.125,1.443-3.494c0.041-2.4,0.27-4.838-0.056-7.196
		C213.804,168.979,215.408,168.581,218.313,169.521z"/>
	<path fill-rule="evenodd" clip-rule="evenodd" fill="#4A54A1" d="M175.314,178.594c0,2.525-0.294,5.098,0.08,7.566
		c0.396,2.608-1.303,1.645-2.384,1.791c-1.621,0.221-2.12-0.288-1.611-2.023c0.36-1.223,0.08-2.629,0.137-3.951
		c0.054-1.171-0.32-1.783-1.625-1.755c-1.27,0.028-1.255,0.827-1.255,1.696c0,1.204-0.172,2.443,0.049,3.604
		c0.431,2.259-0.636,2.499-2.53,2.513c-2.375,0.014-1.451-1.194-1.418-2.506c0.125-4.806,0.229-9.635-0.127-14.421
		c-0.142-1.875,0.363-1.981,1.767-1.924c1.282,0.052,2.846-0.349,2.299,1.91c-0.108,0.455-0.151,0.999-0.012,1.433
		c0.363,1.128-1.107,3.326,1.5,3.166c2.455-0.146,1.444-2.377,1.227-3.383c-0.612-2.832,0.389-3.524,2.971-3.131
		c1.032,0.158,1.159,0.351,1.055,1.482c-0.245,2.624-0.08,5.286-0.08,7.931C175.343,178.592,175.329,178.592,175.314,178.594z"/>
	<path fill-rule="evenodd" clip-rule="evenodd" fill="#4A54A1" d="M227.252,177.464c1.856-0.325,3.376-0.377,5.018,0.014
		c-0.676,1.635-0.678,3.293-0.529,4.924c0.232,2.553-0.623,4.848-3.016,5.408c-2.737,0.639-6.113,0.768-7.194-2.848
		c-1.234-4.13-1.246-8.474-0.005-12.61c1.064-3.552,4.24-3.359,7.149-3.11c3.303,0.285,1.356,3.477,3.493,5.183
		c-2.791-0.377-5.057-1.847-6.461,0.188c-1.501,2.174-0.613,4.891-0.519,7.373c0.035,0.924,0.876,1.616,1.722,1.527
		c0.902-0.097,1.201-0.961,1.159-1.922C228.006,180.206,228.143,178.807,227.252,177.464z"/>
	<path fill-rule="evenodd" clip-rule="evenodd" fill="#4A54A1" d="M151.299,174.467c1.439-5.503,1.441-5.31,7.945-5.366
		c4.01-0.033,2.582,3.119,4.448,5.842c-3.967-2.288-4.745-1.077-4.523,1.87c0.226,2.987-0.137,6.03,0.198,8.999
		c0.264,2.346-0.957,2.139-2.478,2.238c-1.937,0.13-2.035-0.726-1.913-2.36c0.222-2.992-0.049-6.016,0.179-9.003
		C155.374,173.798,154.425,172.932,151.299,174.467z"/>
	<path fill-rule="evenodd" clip-rule="evenodd" fill="#4A54A1" d="M297.563,182.924c-0.294,0.61-0.591,1.221-0.886,1.828
		c-3.663-3.378-4.813-8.167-2.944-12.264c1.788-3.915,5.481-5.988,9.505-5.493c3.089,0.382,4.394,2.591,5.498,5.036
		c0.997,2.21-0.099,3.783-1.585,5.27c-0.354-0.259-0.664-0.365-0.702-0.53c-0.991-4.407-2.734-5.724-6.205-4.66
		c-4.004,1.23-5.552,4.174-4.122,7.974C296.494,181.072,297.078,181.979,297.563,182.924z"/>
	<path fill-rule="evenodd" clip-rule="evenodd" fill="#4A54A1" d="M192.718,58.126c-2.097-0.377-4.221,0.963-5.171-2.078
		c-0.273-0.872-3.185-0.935-3.427,0.026c-0.777,3.069-2.853,1.651-4.822,1.995c1.1-3.839,1.868-7.528,3.249-10.973
		c0.808-2.021,3.143-0.593,4.758-0.888c1.042-0.191,1.922-0.153,2.29,1.416C190.379,50.984,191.541,54.258,192.718,58.126z"/>
	<path fill-rule="evenodd" clip-rule="evenodd" fill="#4A54A1" d="M225.26,382.062c2.861-0.287,1.74-3.352,3.443-4.652
		c1.383,0.057,0.322,2.657,2.132,2.483c0.487,3.802-0.417,7.691,0.763,11.462c0.486,1.546-0.353,2.198-1.887,2.175
		c-1.201-0.021-2.407-0.01-3.604,0.099c-1.513,0.137-2.025-0.594-1.611-1.903C225.502,388.552,224.883,385.272,225.26,382.062z"/>
	<path fill-rule="evenodd" clip-rule="evenodd" fill="#4A54A1" d="M280.193,376.274c0.474,0,0.951-0.05,1.416,0.009
		c2.857,0.368,3.959-0.476,2.631-3.427c-1.189-2.639-0.619-4.073,2.624-3.126c0.052,0.949,0.19,1.903,0.137,2.845
		c-0.142,2.469,1.828,5.671,0.315,7.122c-1.96,1.879-5.347,2.271-8.688,3.512C279.228,380.562,279.71,378.418,280.193,376.274z"/>
	<path fill-rule="evenodd" clip-rule="evenodd" fill="#4A54A1" d="M214.774,55.102c-0.108,3.736-2.888,2.671-5.06,2.984
		c-3.346,0.483-4.78-0.495-4.163-4.068c0.302-1.748,0.155-3.597,0.021-5.385c-0.122-1.642-0.045-2.544,2.108-2.558
		c2.294-0.014,2.567,0.918,2.224,2.737c-0.09,0.461-0.017,0.956-0.019,1.437C209.854,55.243,209.854,55.243,214.774,55.102z"/>
	<path fill-rule="evenodd" clip-rule="evenodd" fill="#4A54A1" d="M204.039,55.028c-0.532,1.218-0.381,2.822-1.91,2.923
		c-2.372,0.156-4.775,0.092-7.149-0.084c-0.697-0.054-0.285-1.008-0.287-1.553c-0.012-2.758,0.221-5.538-0.068-8.266
		c-0.243-2.285,1.081-1.861,2.341-1.873c1.204-0.012,2.533-0.261,2,1.778c-0.205,0.787-0.049,1.668-0.044,2.504
		C198.956,56.303,198.45,55.073,204.039,55.028z"/>
	<path fill-rule="evenodd" clip-rule="evenodd" fill="#4A54A1" d="M189.802,387.127c2.987,0.341,3.614-2.278,4.851-4.015
		c0.426-0.598,0.332-1.578,1.253-1.9c0.888,3.809,1.776,7.62,2.665,11.437C190.933,393.499,190.415,393.169,189.802,387.127z"/>
	<path fill-rule="evenodd" clip-rule="evenodd" fill="#4A54A1" d="M259.249,325.855c1.286-3.168,1.392-7.328,6.278-7.474
		c-0.165,0.683-0.457,1.363-0.474,2.049C264.947,324.229,262.857,325.84,259.249,325.855z"/>
	<path fill-rule="evenodd" clip-rule="evenodd" fill="#4A54A1" d="M311.931,262.861c1.481-1.771,0.997-4.368,2.556-6.106
		c0.931,2.255,1.864,4.509,2.934,7.096C315.328,263.803,313.597,263.567,311.931,262.861z"/>
	<path fill-rule="evenodd" clip-rule="evenodd" fill="#4A54A1" d="M202.623,309.77c-1.385-0.227-3.608-0.316-3.227-1.946
		c0.506-2.167,2.019-4.235,4.709-4.638C204.07,305.484,203.418,307.642,202.623,309.77z"/>
	<path fill-rule="evenodd" clip-rule="evenodd" fill="#4A54A1" d="M180.935,391.731c-0.549-3.003,1.602-4.452,3.486-6.054
		c0.085,0.949,0.153,1.901,0.254,2.848C185.107,392.528,185.109,392.525,180.935,391.731z"/>
	<path fill-rule="evenodd" clip-rule="evenodd" fill="#4A54A1" d="M268.033,307.59c-1.828-0.137-3.736,0.212-5.416-0.859
		c2.125-1.418,4.252-2.834,6.657-4.436C269.232,304.389,268.745,306.015,268.033,307.59z"/>
	<path fill-rule="evenodd" clip-rule="evenodd" fill="#4A54A1" d="M220.682,383.516c-0.895,0.226-1.863,0.306-2.668,0.709
		c-2.323,1.161-2.979,0.075-2.997-2.038c2.17,0.12,4.17-0.396,6.36-2.169C221.064,381.586,220.873,382.55,220.682,383.516z"/>
	<path fill-rule="evenodd" clip-rule="evenodd" fill="#4A54A1" d="M252.646,309.091c-0.045,0.474,0.061,1.039-0.16,1.408
		c-0.789,1.317-1.814,3.282-3.376,2.505c-1.626-0.806,1.076-2.003,0.644-3.289C250.58,308.876,251.588,308.869,252.646,309.091z"/>
	<path fill-rule="evenodd" clip-rule="evenodd" fill="#4A54A1" d="M261.329,377.059c-0.787,0.674-1.646,1.731-2.674,0.751
		c-0.801-0.766-1.55-1.957-0.125-3.018C259.056,376.053,260.1,376.67,261.329,377.059z"/>
	<path fill-rule="evenodd" clip-rule="evenodd" fill="#4A54A1" d="M321.302,219.67c0.784-1.303,1.665-2.474,3.825-2.137
		c-1.211,1.124-2.424,2.25-3.635,3.373C321.429,220.494,321.365,220.082,321.302,219.67z"/>
	<path fill-rule="evenodd" clip-rule="evenodd" fill="#4A54A1" d="M303.34,122.158c0.563-0.563,0.669-2.313,1.701-1.489
		c1.06,0.848-0.085,1.776-1.021,2.33C303.795,122.718,303.566,122.438,303.34,122.158z"/>
	<path fill-rule="evenodd" clip-rule="evenodd" fill="#4A54A1" d="M309.815,141.74c-0.127-1.882,0.657-2.259,2.224-1.354
		C311.602,141.337,310.812,141.705,309.815,141.74z"/>
	<path fill-rule="evenodd" clip-rule="evenodd" fill="#4A54A1" d="M178.841,249.231c-0.728,1.604-1.456,1.615-2.184-0.003
		C177.385,249.229,178.113,249.229,178.841,249.231z"/>
	<path fill-rule="evenodd" clip-rule="evenodd" fill="#4A54A1" d="M238.348,366.805c-1.602-0.148-2.113-0.762-0.896-2.108
		C238.149,365.23,238.366,365.968,238.348,366.805z"/>
	<path fill-rule="evenodd" clip-rule="evenodd" fill="#4A54A1" d="M251.131,379.155c1.272,0.813,0.922,1.55-0.105,2.254
		C250.403,380.627,250.597,379.883,251.131,379.155z"/>
	<path fill-rule="evenodd" clip-rule="evenodd" fill="#4A54A1" d="M313.966,109.022c-0.981,0.16-2.296,1.821-2.701-0.603
		C312.197,108.48,313.175,108.325,313.966,109.022z"/>
	<path fill-rule="evenodd" clip-rule="evenodd" fill="#4A54A1" d="M320.065,185.944c0.569-0.198,1.14-0.396,1.71-0.593
		c-0.37,0.721,0.061,2.084-1.306,1.993C319.742,187.292,319.969,186.491,320.065,185.944z"/>
	<path fill-rule="evenodd" clip-rule="evenodd" fill="#4A54A1" d="M194.777,372.665c-0.323-0.294-0.872-0.559-0.918-0.893
		c-0.09-0.617,0.561-0.507,0.971-0.584C195.7,371.711,195.54,372.199,194.777,372.665z"/>
	<path fill-rule="evenodd" clip-rule="evenodd" fill="#4A54A1" d="M184.567,377.002c-0.551-0.122-1.107-0.227-1.644-0.391
		c-0.057-0.02-0.094-0.493,0.005-0.573c0.73-0.581,1.258,0.217,1.892,0.33C184.822,376.613,184.737,376.823,184.567,377.002z"/>
	<path fill-rule="evenodd" clip-rule="evenodd" fill="#4A54A1" d="M231.059,367.646c-0.391-0.235-0.728-0.521-0.424-1.011
		c0.068-0.11,0.53-0.144,0.554-0.09c0.177,0.377,0.29,0.787,0.422,1.186C231.426,367.702,231.242,367.674,231.059,367.646z"/>
	<path fill-rule="evenodd" clip-rule="evenodd" fill="#4A54A1" d="M144.081,375.449c0.365,0.245,0.732,0.49,1.098,0.733
		c-0.153,0.141-0.309,0.28-0.464,0.419c-0.208-0.389-0.415-0.777-0.622-1.164L144.081,375.449z"/>
	<path fill-rule="evenodd" clip-rule="evenodd" fill="#4A54A1" d="M321.302,219.67c0.063,0.412,0.127,0.824,0.19,1.236
		c-0.426,0.65-1.081,1.97-1.635,1.296C318.711,220.803,320.683,220.478,321.302,219.67z"/>
	<path fill-rule="evenodd" clip-rule="evenodd" fill="#4A54A1" d="M225.127,326.337c1.094,0.973,0.4,1.265-0.556,1.455
		C224.418,327.18,224.689,326.728,225.127,326.337z"/>
	<path fill-rule="evenodd" clip-rule="evenodd" fill="#4A54A1" d="M299.785,289.725c0.492,0.005,1.26-0.596,1.366,0.3
		c0.083,0.694-0.737,0.739-1.296,0.854C299.832,290.493,299.809,290.108,299.785,289.725z"/>
	<path fill-rule="evenodd" clip-rule="evenodd" fill="#4A54A1" d="M311.952,250.359c-0.238-0.315-0.476-0.629-0.716-0.942
		C312.089,249.264,311.924,249.886,311.952,250.359z"/>
	<path fill-rule="evenodd" clip-rule="evenodd" fill="#4A54A1" d="M224.414,329.238c0.598,0.549,0.139,0.639-0.318,0.726
		C224.201,329.722,224.308,329.481,224.414,329.238z"/>
	<path fill-rule="evenodd" clip-rule="evenodd" fill="#4A54A1" d="M101.682,278.94c0.042-0.287,0.082-0.572,0.125-0.857
		c0.153,0.118,0.309,0.235,0.464,0.352C102.072,278.604,101.877,278.771,101.682,278.94z"/>
	<path fill-rule="evenodd" clip-rule="evenodd" fill="#4A54A1" d="M75.675,104.768c-0.372,0.203-0.784,0.424-0.994-0.132
		c-0.047-0.123,0.33-0.405,0.509-0.613C75.353,104.271,75.513,104.519,75.675,104.768z"/>
	<path fill-rule="evenodd" clip-rule="evenodd" fill="#4A54A1" d="M226.154,329.043c0.088,0.031,0.174,0.062,0.26,0.092
		c-0.033,0.1-0.05,0.212-0.116,0.285c-0.021,0.026-0.162-0.05-0.247-0.08C226.086,329.241,226.119,329.142,226.154,329.043z"/>
	<path fill-rule="evenodd" clip-rule="evenodd" fill="#4A54A1" d="M307.71,127.175c-1.099-1.112-0.987-2.13-0.33-3.03
		c0.271-0.375,0.949-0.104,1.206,0.325C309.323,125.708,308.444,126.332,307.71,127.175z"/>
	<path fill-rule="evenodd" clip-rule="evenodd" fill="#4A54A1" d="M305.887,128.591c-0.085,0.195-0.17,0.394-0.255,0.591
		c-0.195-0.085-0.502-0.127-0.559-0.269c-0.054-0.141,0.14-0.382,0.224-0.58C305.493,128.419,305.688,128.504,305.887,128.591z"/>
	<path fill-rule="evenodd" clip-rule="evenodd" fill="#4A54A1" d="M309.545,111.962c-0.085,0.198-0.128,0.504-0.269,0.558
		c-0.142,0.057-0.382-0.139-0.577-0.221c0.085-0.196,0.127-0.502,0.266-0.559C309.108,111.684,309.347,111.877,309.545,111.962z"/>
</g>
</svg>
