<?xml version="1.0" encoding="utf-8"?>
<!-- Generator: Adobe Illustrator 16.0.0, SVG Export Plug-In . SVG Version: 6.00 Build 0)  -->
<!DOCTYPE svg PUBLIC "-//W3C//DTD SVG 1.1//EN" "http://www.w3.org/Graphics/SVG/1.1/DTD/svg11.dtd">
<svg version="1.1" id="Layer_1" xmlns="http://www.w3.org/2000/svg" xmlns:xlink="http://www.w3.org/1999/xlink" x="0px" y="0px"
	 width="400px" height="400px" viewBox="0 0 400 400" enable-background="new 0 0 400 400" xml:space="preserve">
<g>
	<path fill-rule="evenodd" clip-rule="evenodd" fill="#92FE43" d="M170.21,245.8c0,10.002-0.135,20.006,0.068,30.005
		c0.075,3.697-1.212,4.726-4.832,4.801c-14.577,0.306-14.574,0.428-14.574-14.155c0-3.201-0.09-6.404,0.023-9.602
		c0.096-2.669-0.714-3.988-3.692-4.063c-3.27-0.081-4.112,1.31-4.044,4.288c0.141,6.198-0.119,12.408,0.09,18.604
		c0.119,3.5-0.81,4.859-4.645,4.935c-14.952,0.297-14.955,0.444-14.965-14.364c-0.011-16.206,0.106-32.408-0.09-48.611
		c-0.053-4.403,0.775-6.386,5.879-6.311c13.743,0.21,13.746-0.05,13.768,13.928c0.003,2.2,0.078,4.403-0.008,6.601
		c-0.099,2.501,0.911,3.616,3.503,3.626c2.58,0.006,4.24-0.55,4.193-3.592c-0.087-5.4,0.108-10.805-0.06-16.202
		c-0.095-3.035,0.891-4.116,4.059-4.295c15.335-0.875,15.329-0.969,15.329,14.003C170.213,232.197,170.213,238.999,170.21,245.8z"/>
	<path fill-rule="evenodd" clip-rule="evenodd" fill="#91FE42" d="M231.116,371.639c0,6.751-0.175,13.505,0.069,20.247
		c0.137,3.747-1.348,4.694-4.873,4.801c-13.249,0.388-13.246,0.5-13.249-12.608c0-15.975,0.13-31.949-0.085-47.92
		c-0.056-4.163,1.155-5.482,5.383-5.457c11.549,0.063,11.555-0.132,15.603,10.379c2.364,6.142,4.705,12.29,7.074,18.429
		c0.055,0.141,0.299,0.206,0.245,0.172c0-7.867,0.16-15.871-0.068-23.863c-0.113-3.876,1.107-5.098,5.092-5.11
		c12.834-0.034,12.839-0.209,12.842,12.843c0.005,15.975-0.1,31.948,0.076,47.92c0.041,3.794-0.93,5.21-4.977,5.251
		c-12.484,0.119-12.497,0.297-16.865-11.171c-1.763-4.625-3.447-9.279-5.17-13.921C231.848,371.632,231.482,371.636,231.116,371.639
		z M230.617,368.872c0.102-0.105,0.265-0.199,0.293-0.324c0.037-0.176-0.028-0.372-0.049-0.56c-0.148,0.121-0.377,0.222-0.424,0.375
		C230.395,368.501,230.551,368.7,230.617,368.872z"/>
	<path fill-rule="evenodd" clip-rule="evenodd" fill="#92FE44" d="M177.053,246.284c-0.229-7.923,1.026-15.118,4.799-21.719
		c9.914-17.356,33.265-17.753,42.738-0.229c7.451,13.78,7.333,28.438,0.436,42.554c-4.729,9.67-12.844,14.574-23.852,13.486
		c-10.913-1.078-17.687-7.66-21.506-17.465C177.558,257.495,176.791,251.729,177.053,246.284z M209.635,247.31
		c-0.089-5.883-0.061-10.102-1.504-14.128c-0.769-2.144-1.824-4.047-4.529-4.101c-2.407-0.047-3.735,1.563-4.443,3.441
		c-3.446,9.158-3.208,18.381,0.034,27.539c0.622,1.757,1.954,3.231,3.923,3.285c1.984,0.053,3.172-1.457,4.064-3.107
		C209.66,255.645,209.588,250.622,209.635,247.31z"/>
	<path fill-rule="evenodd" clip-rule="evenodd" fill="#93FE46" d="M93.416,396.63c-11.874-0.006-11.874-0.006-11.875-11.898
		c-0.001-16.384,0.112-32.768-0.083-49.151c-0.047-3.941,1.166-5.389,5.099-5.142c5.178,0.321,10.422-0.132,15.557,0.443
		c12.593,1.416,20.771,8.739,23.948,21.02c0.695,2.693,1.269,5.479,1.394,8.245C128.372,380.312,121.486,398.64,93.416,396.63z
		 M100.199,363.615c0,3.973-0.058,7.942,0.031,11.911c0.028,1.254-0.628,3.02,1.247,3.507c1.469,0.382,2.597-0.638,3.616-1.628
		c5.213-5.069,4.672-23.291-0.871-27.861c-0.883-0.728-1.877-1.693-3.171-1.06c-1.05,0.517-0.83,1.682-0.836,2.626
		C100.186,355.279,100.203,359.449,100.199,363.615z"/>
	<path fill-rule="evenodd" clip-rule="evenodd" fill="#92FE43" d="M152.243,375.602c0,4.732,0.001,9.464,0,14.196
		c-0.001,1.197,0.33,2.525-0.067,3.578c-2.512,6.673-8.144,2.048-12.23,3.061c-2.15,0.531-6.088,1.666-6.088-3.157
		c-0.008-19.797,0.006-39.597-0.001-59.396c-0.001-1.882,0.647-3.107,2.739-3.038c8.57,0.294,17.203-0.957,25.708,0.928
		c8.003,1.77,13.146,6.773,14.98,14.634c1.869,8.005,1.188,15.681-6.148,21.047c-2.316,1.694-2.419,3.095-1.211,5.454
		c3.187,6.223,6.052,12.611,9.244,18.831c1.694,3.304,1.869,4.842-2.738,4.961c-14.854,0.378-14.853,0.527-20.189-13.355
		c-0.999-2.598-1.974-5.201-2.96-7.805C152.935,375.558,152.588,375.58,152.243,375.602z M151.852,352.66
		c1.51,2.21-1.864,6.442,2.405,6.789c4.166,0.341,5.332-3.71,5.532-7.104c0.197-3.325-1.086-6.845-5.069-6.626
		C149.622,345.997,153.52,350.501,151.852,352.66z"/>
	<path fill-rule="evenodd" clip-rule="evenodd" fill="#91FE42" d="M285.492,372.045c0,6.792-0.125,13.59,0.055,20.378
		c0.081,3.107-1.005,4.079-4.103,4.254c-14.356,0.822-14.354,0.913-14.354-13.289c-0.004-15.594,0.129-31.187-0.093-46.776
		c-0.062-4.235,0.771-5.973,5.52-5.93c12.978,0.125,12.979-0.109,12.942,12.728c-0.008,2.997,0,5.994,0.905,9.367
		c2.008-5.354,4.356-10.608,5.923-16.087c1.323-4.636,3.605-6.148,8.493-6.017c13.41,0.359,14.354,0.641,7.763,12.171
		c-7.814,13.674-8.653,26.188,0.745,39.037c0.229,0.315,0.349,0.722,0.469,1.1c1.395,4.451,7.073,9.934,4.355,12.608
		c-3.263,3.213-10.222,0.785-15.576,1.007c-2.55,0.104-3.239-1.731-3.991-3.704c-2.679-7.038-5.473-14.033-8.223-21.044
		C286.045,371.913,285.769,371.979,285.492,372.045z"/>
	<path fill-rule="evenodd" clip-rule="evenodd" fill="#92FE44" d="M269.586,175.326c0.002,8.401-0.123,16.806,0.063,25.201
		c0.076,3.428-1.181,4.375-4.516,4.472c-12.499,0.366-12.496,0.485-12.494-12.051c0.002-2.402,0.042-4.803-0.006-7.201
		c-0.046-2.288,0.709-4.909-3.235-4.979c-3.767-0.066-3.544,2.229-3.53,4.719c0.029,5.199-0.092,10.402,0.042,15.599
		c0.071,2.835-1.048,3.704-3.849,3.901c-13.107,0.922-13.101,1.009-13.104-12.012c0-14.4,0.115-28.801-0.078-43.201
		c-0.054-3.954,1.225-5.082,5.155-5.09c11.836-0.025,11.836-0.198,11.843,11.475c0,1.601,0.043,3.201-0.008,4.801
		c-0.082,2.547-0.137,4.745,3.588,4.651c3.427-0.087,3.203-2.165,3.193-4.429c-0.021-4.199,0.104-8.403-0.039-12.599
		c-0.095-2.849,1.087-3.674,3.862-3.869c13.119-0.922,13.112-1.01,13.112,12.011C269.586,162.927,269.586,169.128,269.586,175.326z"
		/>
	<path fill-rule="evenodd" clip-rule="evenodd" fill="#93FE45" d="M231.21,38.144c-0.618,2.929-1.525,5.833-1.788,8.795
		c-0.373,4.182-2.111,5.521-6.469,5.671c-5.209,0.178-7.255-1.596-7.455-6.584c-0.109-2.761-0.846-5.498-1.871-8.317
		c-1.956,2.982-1.602,6.486-1.595,9.728c0.013,3.908-1.372,5.58-5.274,4.984c-0.195-0.029-0.398-0.005-0.599-0.003
		c-9.198,0.108-9.225,0.104-8.136-9.228c1.346-11.505,2.944-22.985,3.998-34.516c0.367-4.013,1.969-4.832,5.598-4.845
		c11.104-0.04,11.102-0.174,14.408,13.521c3.775-1.965,2.91-5.804,3.562-8.785c0.688-3.149,1.622-4.706,5.331-4.757
		c12.365-0.174,12.369-0.355,13.572,11.86c1.02,10.336,1.841,20.696,3.127,30.999c0.559,4.48-0.506,6.025-5.235,5.852
		c-10.04-0.367-8.345,0.405-8.696-8.234c-0.082-1.993-0.24-3.985-0.361-5.978c0-3.129,0-6.258,0-11.157
		C231.982,31.939,230.863,34.904,231.21,38.144z"/>
	<path fill-rule="evenodd" clip-rule="evenodd" fill="#92FE44" d="M130.971,174.24c-0.195,6.212-0.819,12.316-3.723,17.983
		c-4.049,7.897-10.038,12.789-19.301,12.674c-9.364-0.116-16.073-4.745-19.746-13.055c-4.796-10.855-4.971-22.169-0.398-33.146
		c3.772-9.058,10.648-14.179,20.924-13.918c9.161,0.231,15.907,5.267,19.658,14.809C130.238,164.306,130.677,169.256,130.971,174.24
		z M113.313,174.982c0.463-3.645-0.313-7.375-1.337-11.036c-0.539-1.926-1.46-4.051-3.824-4.076
		c-2.261-0.025-3.483,1.834-4.152,3.791c-2.535,7.42-2.441,14.893-0.122,22.344c0.556,1.781,1.541,3.285,3.716,3.375
		c2.5,0.103,3.635-1.669,4.234-3.582C112.897,182.374,113.763,178.861,113.313,174.982z"/>
	<path fill-rule="evenodd" clip-rule="evenodd" fill="#93FE45" d="M310.626,235.477c-4.072-2.369-5.808-5.386-9.078-6.229
		c-2.344-0.606-4.476-0.403-5.862,1.726c-1.482,2.278,0.288,3.766,1.782,5.047c1.966,1.688,4.166,3.101,6.171,4.745
		c8.607,7.063,11.172,16.378,7.273,26.191c-3.701,9.32-12.021,14.184-23.069,13.486c-0.599-0.037-1.197-0.078-1.793-0.146
		c-10.109-1.19-10.133-1.216-10.133-11.271c-0.001-3.907,0-7.811,0-12.524c3.941,2.01,5.719,5.313,9.133,6.107
		c2.637,0.613,5.368,1.141,7.058-1.475c1.898-2.941-0.396-4.813-2.431-6.492c-1.849-1.525-3.861-2.856-5.691-4.4
		c-9.132-7.695-10.909-18.984-4.625-29.077c5.705-9.163,17.559-12.383,28.062-7.635c1.689,0.763,3.233,1.563,3.218,3.813
		C310.598,223.046,310.626,228.75,310.626,235.477z"/>
	<path fill-rule="evenodd" clip-rule="evenodd" fill="#93FE45" d="M115.757,235.379c-3.94-2.15-5.63-5.27-8.886-6.041
		c-2.189-0.519-4.535-0.922-5.958,1.338c-1.544,2.456,0.241,4.163,1.935,5.588c1.983,1.669,4.221,3.035,6.206,4.701
		c8.334,6.991,10.794,16.103,7.056,25.804c-3.589,9.314-12.049,14.394-22.979,13.655c-2.378-0.159-4.728-0.753-7.092-1.125
		c-3.76-0.588-5.39-2.51-5.11-6.545c0.35-5.095,0.084-10.232,0.084-16.249c4.086,1.966,6.02,5.476,9.648,6.21
		c2.447,0.494,4.998,0.9,6.575-1.394c1.781-2.595-0.155-4.511-2.005-6.117c-1.958-1.697-4.115-3.169-6.091-4.851
		c-9.055-7.701-10.971-19.253-4.867-29.083c5.563-8.961,16.934-12.229,27.489-8.026c2.701,1.075,4.22,2.488,4.062,5.707
		C115.571,224.074,115.757,229.219,115.757,235.379z"/>
	<path fill-rule="evenodd" clip-rule="evenodd" fill="#92FE43" d="M117.205,100.462c0.001,11.194-0.116,22.39,0.067,33.582
		c0.061,3.702-0.781,5.208-4.921,5.27c-16.976,0.249-16.97,0.398-16.956-16.54c0.01-12.193-0.059-24.388,0.053-36.58
		c0.031-3.194-0.206-5.64-4.363-5.086c-3.15,0.417-3.985-1.17-4.128-4.193c-0.749-15.544-0.83-15.641,14.346-15.496
		c5.126,0.049,11.68-2.282,14.99,1.155c3.008,3.123,0.784,9.542,0.875,14.502C117.311,84.871,117.205,92.667,117.205,100.462z"/>
	<path fill-rule="evenodd" clip-rule="evenodd" fill="#93FE45" d="M242.36,254.188c-0.001-6.598-0.179-13.199,0.065-19.787
		c0.145-3.866-0.592-6.245-5.124-5.561c-3.878,0.584-5.123-1.047-5.139-5.035c-0.047-12.358-0.225-12.355,12.224-12.353
		c7.795,0.007,15.597,0.129,23.389-0.056c3.294-0.078,4.836,0.943,4.641,4.372c-0.125,2.186-0.063,4.407,0.162,6.586
		c0.478,4.638-0.803,7.398-6.158,6.517c-3.942-0.65-4.552,1.609-4.521,4.954c0.118,13.793-0.105,27.589,0.126,41.378
		c0.07,4.176-1.159,5.43-5.378,5.423c-14.286-0.024-14.286,0.138-14.283-13.843C242.365,262.584,242.363,258.386,242.36,254.188z"/>
	<path fill-rule="evenodd" clip-rule="evenodd" fill="#96FE4A" d="M221.324,57.019c6.791,0,13.588,0.178,20.37-0.06
		c4.923-0.173,7.131,1.95,6.834,6.725c-0.853,13.744-1.737,27.488-2.679,41.226c-0.558,8.156-1.375,16.295-1.831,24.454
		c-0.463,8.269-2.765,10.643-10.971,10.649c-7.802,0.004-15.603,0.114-23.399,0.004c-6.358-0.087-8.443-2.244-8.923-8.646
		c-1.64-21.899-3.29-43.796-4.937-65.695c-0.495-6.585,1.9-8.911,8.766-8.777c5.586,0.109,11.178,0.022,16.77,0.022
		C221.324,56.953,221.324,56.986,221.324,57.019z M240.746,78.929c0.159-3.588-0.107-7.261,0.596-10.739
		c0.756-3.756-0.986-3.92-3.777-3.896c-8.986,0.081-17.975,0.027-26.961,0.035c-8.57,0.009-9.143,0.721-7.423,9.235
		c0.196,0.978,0.497,1.934,0.749,2.901c-1.267,8.907,1.607,17.661,1.001,26.55c-0.094,1.38,0.806,2.141,2.166,2.319
		c1.956,1.428,1.213,3.413,1.091,5.27c-0.942-0.759-2.02-1.806-2.15,0.513c-0.283,4.954-0.084,9.931,1.351,14.673
		c1.399,4.624,5.288,6.696,9.734,7.665c2.455,0.531,1.741-1.369,1.719-2.646c2.276,0.006,4.558,0.011,6.827,0.016
		c0.125,3.568,2.539,2.28,4.079,1.639c4.975-2.066,8.12-5.835,8.489-11.286C239.188,107.103,239.924,93.013,240.746,78.929z"/>
	<path fill-rule="evenodd" clip-rule="evenodd" fill="#97FE4B" d="M157.026,57.42c6.19,0,12.386,0.193,18.565-0.059
		c5.279-0.216,7.804,1.519,7.354,7.225c-1.085,13.708-1.844,27.439-2.783,41.16c-0.572,8.35-1.252,16.693-1.849,25.042
		c-0.499,6.963-2.786,9.188-9.748,9.228c-7.986,0.047-15.972,0.108-23.957,0.023c-6.476-0.069-8.636-2.1-9.148-8.426
		c-1.829-22.628-3.588-45.26-5.448-67.887c-0.376-4.566,2.141-6.178,6.051-6.251c6.986-0.13,13.976-0.037,20.963-0.037
		C157.026,57.433,157.026,57.426,157.026,57.42z M138.88,88.55c0.859,3.9-2.155,8.531,2.216,11.771
		c0.033,1.713,0.065,3.427,0.097,5.14c-2.497,7.586-0.845,14.948,1.646,22.093c0.891,2.558,3.525,4.207,6.23,5.11
		c1.735,0.578,3.23,0.444,2.922-2.06c2.572,0.091,5.145,0.178,7.717,0.269c-0.081,3.763,2.757,2.26,4.079,1.808
		c4.638-1.582,7.889-4.924,8.481-9.844c0.78-6.479,0.983-13.029,1.32-19.553c0.075-1.457,0.589-3.307-1.561-3.986
		c-1.086-1.302-1.119-2.49,0.381-3.509c1.063-0.156,1.984-0.6,2.058-1.769c0.563-8.938,1.045-17.88,1.622-26.818
		c0.208-3.225-2.035-2.852-3.988-2.856c-10.167-0.024-20.337,0.124-30.501-0.085c-3.698-0.077-4.388,1.603-4.14,4.694
		C137.987,75.48,138.413,82.018,138.88,88.55z"/>
	<path fill-rule="evenodd" clip-rule="evenodd" fill="#93FE45" d="M276.889,174.451c0-8.401,0.118-16.806-0.059-25.201
		c-0.068-3.335,0.979-4.627,4.427-4.535c7.396,0.2,14.804,0.166,22.202,0.013c3.057-0.063,4.527,0.931,4.23,4.097
		c-0.092,0.993-0.011,1.999-0.01,2.999c0.013,8.129,0.013,8.103-7.932,8.234c-1.748,0.028-3.762-0.641-5.165,0.725
		c-1.244,1.211-0.86,3.041-0.535,4.574c0.468,2.2,2.431,1.508,3.915,1.733c2.661,0.406,6.818-1.45,7.695,1.324
		c1.206,3.818,1.006,8.401,0.215,12.422c-0.581,2.957-4.117,1.13-6.304,1.548c-2.383,0.458-5.808-1.439-5.804,3.543
		c0.001,4.766,3.167,3.419,5.729,3.774c2.642,0.364,6.743-1.614,7.628,1.308c1.159,3.835,0.44,8.289,0.242,12.461
		c-0.068,1.441-1.703,1.438-2.902,1.438c-7.999,0.016-16.004-0.098-24.002,0.056c-3.683,0.072-3.599-2.156-3.587-4.71
		C276.916,191.653,276.889,183.052,276.889,174.451z"/>
	<path fill-rule="evenodd" clip-rule="evenodd" fill="#94FE46" d="M136.673,174.419c0.003-8.379,0.141-16.762-0.063-25.138
		c-0.088-3.5,0.762-5.034,4.613-4.873c6.771,0.281,13.571,0.276,20.344-0.005c3.83-0.159,4.998,1.346,4.591,4.862
		c-0.16,1.378-0.202,2.816,0.006,4.182c0.776,5.071-0.854,7.442-6.392,6.695c-2.494-0.338-5.943-1.091-5.857,3.583
		c0.078,4.257,3.21,3.565,5.544,3.279c5.046-0.617,6.315,1.739,5.745,6.165c-0.178,1.375-0.172,2.81,0.003,4.185
		c0.487,3.863-1.072,5.66-4.988,5.169c-5.492-0.688-7.067,2.069-6.335,7.007c0.144,0.977,0.021,1.991,0.019,2.991
		c-0.003,13.252,0.002,13.143-13.17,12.483c-3.145-0.156-4.156-1.2-4.109-4.251C136.757,191.979,136.671,183.199,136.673,174.419z"
		/>
	<path fill-rule="evenodd" clip-rule="evenodd" fill="#96FE4A" d="M145.946,25.218c2.938-5.165,1.375-10.806,1.196-16.127
		c-0.199-5.871,3.072-5.445,6.774-5.215c3.413,0.211,7.898-1.677,7.473,5.022c-0.481,7.562-0.241,15.182-0.038,22.77
		c0.072,2.716-1.397,7.481,2.416,7.456c4.216-0.026,2.685-4.912,2.766-7.782c0.216-7.587,0.25-15.189,0.006-22.775
		c-0.117-3.681,1.1-4.778,4.76-4.793c9.249-0.038,9.249-0.217,9.255,9.225c0.003,8.192,0.116,16.388-0.025,24.577
		c-0.163,9.447-5.385,14.474-15.074,14.826c-10.933,0.396-16.997-4.386-18.06-13.96c-0.242-2.182,1.128-4.84-1.45-6.534
		C145.946,29.678,145.946,27.447,145.946,25.218z"/>
	<path fill-rule="evenodd" clip-rule="evenodd" fill="#93FE45" d="M216.613,182.809c-0.006,5.993-0.121,11.989,0.041,17.978
		c0.086,3.098-1.037,4.063-4.147,4.213c-13.086,0.626-13.082,0.731-13.091-12.561c-0.006-8.987-0.111-17.978,0.033-26.963
		c0.055-3.501-0.466-5.96-4.784-5.463c-3.189,0.366-4.288-1.322-4.011-4.307c0.111-1.188,0.2-2.429-0.016-3.588
		c-1.166-6.279,1.616-7.848,7.551-7.473c7.547,0.478,15.157,0.125,22.732-0.1c3.872-0.116,5.464,1.338,4.976,5.229
		c-0.223,1.769-0.188,3.604-0.016,5.385c0.338,3.491-0.795,5.413-4.623,4.879c-3.737-0.522-4.834,1.234-4.7,4.797
		C216.783,170.819,216.619,176.817,216.613,182.809z"/>
	<path fill-rule="evenodd" clip-rule="evenodd" fill="#93FE46" d="M145.946,25.218c0,2.229,0,4.46,0,6.688
		c-0.315,8.799-3.374,16.174-11.972,19.673c-9.876,4.02-20.651-2.149-23.646-13.093c-1.941-7.085-1.785-14.194,0.052-21.257
		c0.267-1.187,0.541-2.401,0.816-3.614c1.283-0.684,2.03-1.583,1.242-3.098l-0.055,0.061c2.943-1.858,5.684-4.212,8.859-5.489
		C134.204-0.122,145.484,9.177,145.946,25.218z M131.904,27.61c-0.263-1.98-0.491-4.758-1.049-7.468
		c-0.314-1.531-1.055-3.175-3.002-3.265c-2.044-0.095-2.701,1.668-3.063,3.129c-0.666,2.686-1.497,5.51-1.272,8.194
		c0.336,4.054-1.038,10.752,4.344,10.733C132.455,38.917,131.356,32.414,131.904,27.61z"/>
	<path fill-rule="evenodd" clip-rule="evenodd" fill="#96FE4A" d="M185.791,363.056c0.004-9.379,0.122-18.762-0.058-28.139
		c-0.064-3.307,0.88-4.444,4.346-4.557c14.427-0.463,14.424-0.585,14.427,13.593c0.003,15.768-0.113,31.539,0.094,47.304
		c0.052,4.054-0.953,5.523-5.287,5.514c-13.526-0.034-13.526,0.153-13.526-13.355C185.787,376.63,185.787,369.845,185.791,363.056z"
		/>
	<path fill-rule="evenodd" clip-rule="evenodd" fill="#94FE46" d="M257.34,312.751c0,1.979-0.27,4.001,0.049,5.923
		c0.968,5.795-2.043,6.548-6.863,6.345c-3.45-0.141-4.445-1.266-4.395-4.566c0.153-9.989-0.001-19.981,0.099-29.974
		c0.019-1.932-1.039-5.129,2.497-4.9c3.223,0.212,7.464-2.288,9.449,2.572c1.578,3.863,3.058,7.77,4.996,12.714
		c0-3.609,0.279-6.173-0.057-8.651c-0.758-5.588,1.49-7.338,6.978-6.926c3.518,0.263,4.353,1.507,4.308,4.707
		c-0.14,9.989-0.02,19.981-0.085,29.974c-0.013,2.013,0.82,5.057-2.675,4.795c-3.209-0.241-7.428,2.24-9.319-2.748
		c-1.185-3.122-2.447-6.213-3.674-9.32C258.211,312.714,257.775,312.732,257.34,312.751z"/>
	<path fill-rule="evenodd" clip-rule="evenodd" fill="#96FE4A" d="M111.196,13.615c-0.275,1.213-0.549,2.428-0.816,3.614
		c-5.159,4.897-6.948,11.36-7.722,18.077c-0.478,4.139-0.293,8.394-0.019,12.572c0.244,3.743-1.211,5.07-4.823,4.693
		c-1.977-0.206-3.998-0.134-5.988-0.015c-2.629,0.155-3.81-1.085-3.413-3.563c2.294-14.358-4.463-26.392-9.83-38.792
		c-2.704-6.248-2.375-5.725,4.338-6.765c8.892-1.377,10.146,4.486,11.749,12.047c1.159-3.089,2.038-4.633,2.297-6.275
		c0.747-4.713,3.473-5.573,7.934-5.767c5.664-0.248,9.025,0.478,7.479,7.136c0,0,0.055-0.061,0.055-0.061
		C110.616,10.984,110.622,12.186,111.196,13.615z"/>
	<path fill-rule="evenodd" clip-rule="evenodd" fill="#94FE46" d="M291.199,14.139c4.332-8.295,9.925-11.394,17.683-9.937
		c4.2,0.79,7.062,2.391,6.3,7.473c-0.38,2.528-0.066,5.161-0.066,7.723c-2.967,1.067-3.838-1.979-5.872-2.455
		c-1.624-0.379-3.269-0.803-4.261,0.917c-0.876,1.523,0.205,2.578,1.34,3.525c2.291,1.917,4.786,3.663,6.765,5.868
		c4.647,5.178,4.374,14.44-0.318,19.83c-4.592,5.271-14.934,7.075-20.427,3.87c-2.941-1.714-0.692-5.606-3.522-7.139
		c1.093-2.727,1.364-5.596,1.471-8.495c1.766,1.247,3.45,2.639,5.321,3.705c2.067,1.179,4.543,2.497,6.226-0.331
		c1.463-2.457-0.433-4.082-2.348-5.258C292.167,28.937,289.879,22.324,291.199,14.139z"/>
	<path fill-rule="evenodd" clip-rule="evenodd" fill="#94FE46" d="M313.962,68.778c-0.734,1.17-1.414,2.379-2.213,3.503
		c-14.793,20.819-29.648,41.594-44.349,62.479c-2.146,3.05-3.6,3.873-6.945,1.264c-3.141-2.449-3.932-3.912-1.367-7.473
		c14.912-20.72,29.544-41.643,44.312-62.468c1.06-1.495,1.884-4.268,4.404-2.807C310.096,64.603,312.887,65.706,313.962,68.778z"/>
	<path fill-rule="evenodd" clip-rule="evenodd" fill="#93FE46" d="M290.29,35.318c-0.106,2.899-0.378,5.768-1.471,8.495
		c-3.677,7.768-13.653,11.156-21.354,7.377c-1.979-0.97-2.397-2.425-2.37-4.354c0.047-3.382,0.012-6.764,0.012-10.138
		c2.96-0.918,3.861,2.025,5.923,2.513c1.971,0.468,4.108,1.442,5.357-0.746c1.114-1.95-0.62-3.281-2.013-4.462
		c-1.975-1.676-4.157-3.166-5.878-5.072c-4.653-5.156-4.655-13.493-0.229-19.383c4.043-5.384,12.146-7.109,18.422-4.27
		c4.352,1.969,2.214,5.89,3.171,8.87c-0.432,1.856-0.864,3.712-1.324,5.688c-0.665-0.376-1.253-0.574-1.659-0.963
		c-2.332-2.226-5.465-4.068-7.617-1.113c-2.08,2.857,1.813,4.018,3.619,5.52C286.718,26.465,290.615,29.583,290.29,35.318z"/>
	<path fill-rule="evenodd" clip-rule="evenodd" fill="#92FE44" d="M212.111,311.885c-3.951,11.043-13.627,16.034-24.768,12.983
		c-2.494-0.681-2.343-2.391-2.351-4.138c-0.039-10.396,0.053-20.794-0.076-31.187c-0.039-3.097,1.051-4.044,4.155-4.188
		c13.765-0.632,18.77,2.138,23.021,13.258C212.098,303.037,212.105,307.463,212.111,311.885z M196.373,305.693
		c0.913,2.329-1.514,7.755,1.422,7.654c3.888-0.131,3.273-5.426,3.296-8.914c0.008-1.359-0.086-2.803-0.549-4.057
		c-0.571-1.534-0.932-4.031-3.188-3.457c-1.845,0.473-0.781,2.713-0.947,4.16C196.251,302.443,196.373,303.837,196.373,305.693z"/>
	<path fill-rule="evenodd" clip-rule="evenodd" fill="#94FE46" d="M138.964,305.81c-0.528,2.854-0.775,5.673-1.592,8.313
		c-2.118,6.854-7.101,10.689-13.507,10.745c-6.357,0.057-11.661-3.713-13.993-10.229c-2.155-6.014-2.216-12.136-0.278-18.243
		c2.249-7.083,7.701-11.146,14.637-10.942c6.69,0.19,11.646,4.325,13.426,11.536C138.367,299.871,138.545,302.884,138.964,305.81z
		 M127.078,305.028c-1.18-2.96,1.329-8.505-3.572-8.57c-3.749-0.05-3.472,5.15-3.532,8.352c-0.063,3.394-0.522,8.816,3.408,8.913
		C127.881,313.836,126.2,308.31,127.078,305.028z"/>
	<path fill-rule="evenodd" clip-rule="evenodd" fill="#93FE46" d="M214.348,298.593c1.186-5.354,3.965-9.602,8.986-11.983
		c6.75-3.2,14.334-0.628,17.909,6.032c3.692,6.879,3.854,14.158,1.548,21.453c-2.129,6.739-6.766,10.427-12.85,10.755
		c-6.426,0.347-11.516-3.028-14.377-9.589c-0.476-1.091-0.78-2.26-1.163-3.392C214.383,307.444,214.367,303.019,214.348,298.593z
		 M232.376,305.321c-0.31-3.438,0.798-9.089-3.057-9.186c-4.46-0.109-3.848,5.558-3.825,9.154c0.02,3.339-0.701,8.602,3.713,8.505
		C233.107,313.711,232.088,308.563,232.376,305.321z"/>
	<path fill-rule="evenodd" clip-rule="evenodd" fill="#93FE45" d="M283.053,82.844c-0.063,10.472-6.243,17.487-15.441,17.532
		c-9.875,0.047-16.039-7.07-15.855-18.306c0.167-10.422,6.35-16.929,16.025-16.871C277.033,65.254,283.118,72.285,283.053,82.844z
		 M269.844,82.01c-0.535-2.173,0.637-5.756-2.236-6.005c-3.206-0.278-2.62,3.214-2.58,5.408c0.046,2.374-0.978,6.132,2.353,6.289
		C270.469,87.847,269.238,84.09,269.844,82.01z"/>
	<path fill-rule="evenodd" clip-rule="evenodd" fill="#93FE45" d="M319.309,118.439c-0.33,10.983-6.789,17.958-16.237,17.534
		c-9.477-0.425-15.468-7.799-15.145-18.642c0.308-10.391,6.854-16.926,16.509-16.486
		C313.469,101.261,319.608,108.523,319.309,118.439z M306.01,119.745c-0.593-2.325,0.555-6.034-2.288-6.21
		c-2.887-0.178-2.645,3.378-2.637,5.688c0.007,2.292-0.631,5.82,2.301,5.998C306.909,125.434,305.18,121.616,306.01,119.745z"/>
	<path fill-rule="evenodd" clip-rule="evenodd" fill="#92FE43" d="M167.791,301.228c0,4.194,0.209,8.401-0.048,12.58
		c-0.41,6.673-5.315,10.852-12.544,11.042c-7.857,0.206-13.761-3.994-14.089-10.789c-0.405-8.373-0.084-16.774-0.182-25.163
		c-0.056-4.854,3.522-3.267,5.97-3.407c2.479-0.141,5.432-0.781,5.335,3.485c-0.141,6.188-0.194,12.393,0.058,18.571
		c0.089,2.216-1.708,6.214,2.232,6.191c3.239-0.021,1.933-3.781,1.997-5.935c0.173-5.989,0.317-11.999-0.017-17.972
		c-0.263-4.732,2.545-4.433,5.698-4.433c3.165-0.003,6.081-0.271,5.688,4.448c-0.313,3.77-0.063,7.585-0.063,11.38
		C167.814,301.228,167.803,301.228,167.791,301.228z"/>
	<path fill-rule="evenodd" clip-rule="evenodd" fill="#92FE44" d="M291.519,289.263c-1.702,4.632-3.184,8.32-4.399,12.096
		c-0.781,2.419-2.054,3.407-4.704,3.598c-4.7,0.344-5.926-0.963-4.635-5.738c3.635-13.434,3.456-13.512,17.045-13.756
		c5.396-0.1,10.795-0.031,16.191-0.016c1.992,0.007,4.551-0.253,4.096,2.775c-0.384,2.557,2.293,6.683-2.369,7.37
		c-3.557,0.522-3.492,2.476-3.484,4.967c0.021,6.397-0.271,12.812,0.102,19.188c0.263,4.497-1.658,5.241-5.586,5.263
		c-4.093,0.025-6.356-0.584-6.062-5.476c0.386-6.373,0.078-12.789,0.089-19.188c0.003-2.275,0.094-4.41-3.147-4.66
		C290.796,295.386,293.026,291.913,291.519,289.263z"/>
	<path fill-rule="evenodd" clip-rule="evenodd" fill="#93FE46" d="M95.138,292.507c1.938-6.142,5.634-7.863,11.529-7.201
		c3.724,0.419,3.812,1.688,2.584,4.529c-4.34,10.052-8.926,19.987-7.557,31.508c0.612,5.151-3.831,3.254-6.403,3.501
		c-2.554,0.247-5.695,0.575-5.079-3.598c1.607-10.88-2.928-20.225-6.973-29.771c-0.724-1.703-4.037-4.819-0.26-5.635
		c3.201-0.691,8.034-2.848,10.439,2.322C94.074,289.575,94.569,291.057,95.138,292.507z"/>
	<path fill-rule="evenodd" clip-rule="evenodd" fill="#91FE42" d="M263.657,28.347c0,6.588-0.24,13.189,0.078,19.761
		c0.236,4.845-2.805,4.702-5.784,4.208c-2.896-0.479-7.836,2.629-7.805-3.957c0.061-13.376,0.094-26.752-0.037-40.128
		c-0.031-3.251,1.346-3.935,4.285-4.041c9.27-0.335,9.265-0.449,9.263,8.586C263.657,17.967,263.657,23.157,263.657,28.347z"/>
	<path fill-rule="evenodd" clip-rule="evenodd" fill="#FEFEFE" d="M230.617,368.872c-0.066-0.172-0.223-0.371-0.18-0.509
		c0.047-0.153,0.275-0.254,0.424-0.375c0.021,0.188,0.086,0.384,0.049,0.56C230.882,368.673,230.719,368.767,230.617,368.872z"/>
	<path fill-rule="evenodd" clip-rule="evenodd" fill="#92FE43" d="M208.188,110.603c0.122-1.856,0.865-3.841-1.088-5.27
		c0.852-9.286-1.531-18.445-1.104-27.715c2.352,0.079,5.299-1.304,6.128,2.499c0.213,4.51-0.876,9.148,0.713,13.522
		c0.608-0.006,1.214-0.011,1.822-0.019c0-5.243,0-10.486,0-15.728c8.097,0.022,16.257-1.622,24.259,0.923
		c-0.957,13.228-1.99,26.455-2.837,39.692c-0.478,7.488-2.833,10.458-10.406,12.319c-2.276-0.008-4.558-0.012-6.831-0.02
		c-7.668-1.844-10.26-4.99-10.391-12.551C208.41,115.704,208.278,113.153,208.188,110.603z"/>
	<path fill-rule="evenodd" clip-rule="evenodd" fill="#92FE44" d="M159.708,130.872c-2.572-0.091-5.145-0.178-7.717-0.269
		c-4.326-0.781-7.514-3.157-8.347-7.492c-1.117-5.826-1.661-11.761-2.452-17.651c-0.031-1.712-0.064-3.427-0.095-5.137
		c0.07-3.974,0.492-7.96-0.358-11.908c-0.197-1.553-0.57-3.108-0.547-4.657c0.033-2.247-1.997-5.338,2.062-6.207
		c4.23-0.905,4.158,2.425,4.777,5.03c-1.758,4.477,0.047,8.666,1.308,12.922c0-4.323,0-8.642,0-12.963
		c0.069-3.614,1.558-5.333,5.515-5.085c5.154,0.321,10.344,0.197,15.512,0.052c2.963-0.083,4.395,0.483,3.924,4
		c-0.63,4.716-0.617,9.517-0.881,14.28c-1.5,1.019-1.468,2.207-0.38,3.509c-0.6,6.843-1.149,13.691-1.822,20.526
		C169.466,127.315,167.325,129.509,159.708,130.872z"/>
</g>
</svg>
