<?xml version="1.0" encoding="utf-8"?>
<!-- Generator: Adobe Illustrator 16.0.0, SVG Export Plug-In . SVG Version: 6.00 Build 0)  -->
<!DOCTYPE svg PUBLIC "-//W3C//DTD SVG 1.1//EN" "http://www.w3.org/Graphics/SVG/1.1/DTD/svg11.dtd">
<svg version="1.1" id="Layer_1" xmlns="http://www.w3.org/2000/svg" xmlns:xlink="http://www.w3.org/1999/xlink" x="0px" y="0px"
	 width="400px" height="400px" viewBox="0 0 400 400" enable-background="new 0 0 400 400" xml:space="preserve">
<g>
	<path fill-rule="evenodd" clip-rule="evenodd" fill="#D7F142" d="M143.023,384.132c2.314,10.479-1.877,12.397-9.142,11.533
		c-3.904-0.468-7.917,0.031-11.872-0.122c-2.683-0.104-6.623,1.306-6.424-3.619c0.132-3.273-1.896-8.024,4.361-8.207
		c3.389-0.102,2.958-2.713,2.962-4.861c0.031-13.616,0.023-27.232-0.021-40.847c-0.006-1.897,0.383-4.185-2.456-4.597
		c-2.98-0.433-3.845,1.17-3.93,3.883c-0.124,3.893-3.26,3.103-5.531,2.989c-2.406-0.122-5.764,1.425-6.478-2.847
		c-1.139-6.8-6.517-3.848-10.103-3.93c-4.903-0.11-3.087,4.205-3.112,6.73c-0.163,16.339-0.41,32.686,0.043,49.013
		c0.178,6.445-3.027,6.315-7.682,6.498c-5.115,0.203-6.877-1.338-6.779-6.62c0.305-16.332,0.172-32.677,0.063-49.016
		c-0.017-2.632,1.39-6.791-3.41-6.611c-3.374,0.128-8.257-2.71-9.591,3.648c-1.105,5.268-5.523,2.894-8.576,3.111
		c-4,0.284-3.793-2.859-3.917-5.668c-0.526-11.928,0.556-13.065,12.675-13.063c22.701,0.006,45.403,0.012,68.104,0.009
		c6.675,0,15.172-2.293,10.176,12.038c8.743-6.423,15.202-11.066,23.411-12.609c9.179-1.728,17.684-0.113,26.059,3.34
		c2.181,0.896,3.147,1.634,5.772-0.905c4.174-4.037,10.726-2.371,16.075-1.086c4.578,1.101,3.721,5.674,3.949,9.368
		c0.426,6.832-3.14,15.778,1.473,19.932c4.465,4.022,13.264,0.851,20.149,1.192c1.729,0.087,3.479-0.136,5.194,0.035
		c4.144,0.412,5.811-1.228,5.608-5.491c-0.27-5.682,0.106-11.391-0.079-17.078c-0.208-6.388,2.809-8.822,9.017-8.779
		c20.284,0.146,40.571,0.056,62.506,0.056c-5.125-2.539-8.831-4.365-12.525-6.211c-0.881-0.44-1.485-0.742-2.471,0.188
		c-3.509,3.314-18.784,5.741-22.577,3.762c-2.873-1.501-3.009-9.034,0.221-9.858c4.326-1.103,3.86-3.735,3.858-6.669
		c-0.001-8.419,0.102-16.838-0.065-25.251c-0.085-4.307,1.824-9.278-4.847-11.417c-2.391-0.769-1.352-4.951-0.866-7.554
		c0.486-2.601,2.938-2.601,4.81-2.252c8.479,1.581,9.909-1.971,9.604-9.986c-0.762-20.024-0.197-40.098-0.335-60.148
		c-0.021-2.998,1.777-8.089-4.127-7.302c-4.289,0.572-11.3-3.998-12.153,4.96c-0.302,3.166-2.155,3.346-4.557,3.438
		c-2.677,0.103-5.441-0.588-8.628,0.956c5.909,16.193,11.143,32.721,18.181,48.436c1.978,4.42,6.553,7.49,5.625,13.469
		c-0.469,3.026-1.267,4.152-4.433,4.396c-11.674,0.908-14.39-0.168-17.636-11.869c-2.374-8.564-6.386-12.74-15.41-10.93
		c-0.238,0.047-0.493,0.003-0.741,0.006c-5.683,0.116-12.123-1.398-16.838,0.795c-5.032,2.343-4.67,9.821-6.809,14.986
		c-1.939,4.685-5.004,7.075-10.173,6.968c-6.929-0.142-13.869-0.214-20.792,0.044c-4.068,0.151-5.072-1.631-5.007-5.293
		c0.154-8.663-0.199-17.337,0.131-25.991c0.188-4.951-1.627-6.437-6.417-6.269c-8.902,0.311-17.833,0.34-26.73-0.018
		c-5.02-0.203-6.373,1.678-6.201,6.423c0.315,8.653-0.06,17.331,0.148,25.99c0.094,3.863-1.26,5.053-5.12,5.184
		c-11.51,0.397-11.506,0.571-11.505-10.634c0.001-19.31,0.019-38.62-0.013-57.931c-0.004-1.936,0.462-3.991-0.785-5.761
		c-0.78-1.107-1.921-1.484-3.239-1.308c-1.528,0.206-2.127,1.36-2.018,2.631c0.54,6.267-3.691,5.842-7.787,5.714
		c-3.59-0.112-6.913,0.829-7.966-4.951c-1.264-6.946-7.734-2.845-11.836-3.446c-4.243-0.621-3.57,3.113-3.576,5.701
		c-0.041,21.043-0.417,42.098,0.155,63.124c0.253,9.31-5.773,6.144-10.299,6.805c-5.372,0.787-7.377-0.917-7.282-6.738
		c0.338-20.787,0.157-41.587,0.097-62.383c-0.009-2.983,1.091-7.355-4.208-6.553c-4.212,0.639-10.595-3.482-12.037,4.411
		c-1.38,7.544-7.043,3.116-10.688,3.858c-3.772,0.769-4.282-2.329-4.184-5.312c0.016-0.494,0.007-0.99-0.002-1.486
		c-0.292-15.322,0.347-15.991,15.509-16.011c9.902-0.013,19.807-0.126,29.706,0.066c4.027,0.079,5.454-0.187,5.275-5.372
		c-0.656-19.041-0.381-38.117-0.194-57.18c0.048-4.929-1.239-9.003-3.928-13.14C86.914,71.841,76.281,54.852,65.574,37.912
		c-2.042-3.229-4.226-6.549-8.527-6.139c-5.225,0.499-6.56-1.917-5.998-6.463c0.09-0.731-0.127-1.515,0.032-2.221
		c1.184-5.229-3.195-12.164,2.544-15.612c6.739-4.046,25.036,0.608,29.5,6.632c3.67,4.952,6.751,10.353,9.928,15.653
		c7.621,12.72,15.144,25.496,22.784,38.378c2.841-0.698,2.884-3.6,4.048-5.548c9.009-15.079,17.849-30.258,26.902-45.309
		c4.949-8.229,23.706-13.859,32.424-10.112c2.451,1.054,2.239,2.986,2.255,4.924c0.042,5.101,0.015,10.203,0.015,16.877
		C204.09,7.43,229.798,0.558,258.412,6.495c29.188,6.056,48.455,24.312,59.789,52.015c0-7.134,0.099-14.27-0.026-21.402
		c-0.146-8.16-0.354-16.326-0.809-24.474c-0.229-4.146,1.222-5.9,5.452-5.772c6.184,0.186,12.381,0.185,18.564,0
		c4.319-0.129,5.412,1.84,5.325,5.871c-0.708,32.908-1.316,65.819-1.782,98.732c-0.068,4.771-1.663,6.827-6.562,6.251
		c-2.686-0.315-5.469-0.312-8.157-0.006c-7.257,0.824-12.726-0.112-9.986-9.983c-4.1,0.713-3.79,3.706-4.572,5.703
		c-9.32,23.817-25.831,40.229-50.353,47.762c-6.338,1.949-8.01,4.15-4.68,9.853c1.45,2.484,1.32,5.738,3.607,7.982
		c0.357-0.383,0.839-0.656,0.852-0.95c0.626-13.72,0.711-13.933,14.689-13.779c19.03,0.212,38.058,0.763,57.088,0.905
		c5.032,0.038,7.424,1.868,7.23,6.933c-0.075,1.979,0.006,3.96,0.007,5.941c0.006,9.042-2.709,11.161-11.484,9.089
		c-1.555-0.365-2.816-0.843-3.217-2.548c-0.475-2.017,0.616-5.116-2.386-5.542c-3.631-0.515-7.456-0.62-11.064-0.057
		c-3.458,0.54-2.281,3.927-2.292,6.17c-0.095,19.803-0.049,39.608-0.076,59.415c-0.016,11.988,0.465,9.638-9.958,9.841
		c-0.981,0.02-1.962,0.104-3.276,0.481c5.19,0.854,6.689,4.327,6.322,9.704c9.08-9.652,18.953-11.857,30.305-7.133
		c4.155,1.729,7.375,4.472,7.918,9.017c0.301,2.514,2.152,6.588-2.339,7.284c-3.103,0.481-7.338,3.027-9.047-2.934
		c-1.259-4.386-5.485-4.644-9.261-4.106c-3.021,0.43-5.814,1.906-6.174,5.467c-0.438,4.336,2.861,5.927,6.028,7.471
		c3.781,1.843,7.648,3.52,11.369,5.481c7.057,3.715,11.729,9.055,11.251,17.622c-0.47,8.404-5.012,13.671-12.717,16.527
		c-0.834,0.31-2.063,0.174-2.253,1.497c12.599,1.991,12.553,1.991,12.326,15.401c-0.179,10.642-0.422,21.292-0.238,31.932
		c0.083,4.742-1.297,6.535-6.281,6.5c-4.752-0.031-5.815-1.9-5.798-6.192c0.031-7.662-0.607-15.326-0.695-22.993
		c-0.042-3.721-1.277-5.552-5.209-5.148c-3.72,0.383-6.045-0.313-7.544-4.826c-1.402-4.223-6.503-2.237-9.986-2.049
		c-3.617,0.194-2.866,3.433-2.875,5.77c-0.062,16.588-0.336,33.182,0.085,49.759c0.153,6.086-2.386,6.628-7.418,6.785
		c-5.635,0.18-6.411-2.183-6.341-6.988c0.239-16.583,0.117-33.174,0.049-49.759c-0.01-2.261,0.981-5.518-2.874-5.639
		c-3.323-0.104-7.268-1.544-9.804,1.535c-5.627,6.837-8.883,7.42-15.492,0.882c0,5.276,0.006,9.595,0,13.91
		c-0.02,13.12-0.289,26.246,0.058,39.357c0.141,5.293-1.602,6.608-6.704,6.707c-5.508,0.104-7.558-1.399-7.064-7.053
		c0.517-5.899,0.091-11.878,0.362-17.807c0.209-4.6-1.135-6.857-6.277-6.544c-6.66,0.406-13.384,0.487-20.039,0.049
		c-5.454-0.359-6.769,1.837-6.484,6.826c0.366,6.416-0.092,12.876,0.146,19.302c0.145,3.932-1.356,5.275-5.188,5.096
		c-4.939-0.232-9.899-0.053-14.851-0.058c-0.741,0-1.917,0.255-2.161-0.102c-4.944-7.259-9.832-1.138-14.544,0.159
		C166.862,399.501,155.19,394.994,143.023,384.132z M290.621,84.538c0.218-37.36-33.811-62.45-67.561-49.813
		c-22.262,8.334-34.688,30.188-32.243,56.702c2.816,30.526,30.845,51.775,60.134,45.588
		C274.085,132.129,290.47,110.452,290.621,84.538z M129.167,165.12c5.214,0,10.626,0.102,16.033-0.028
		c5.967-0.144,8.575,2.74,8.51,8.579c-0.087,7.92,0.142,15.846-0.08,23.761c-0.106,3.812,1.087,5.388,5.043,5.179
		c4.938-0.262,9.903,0.078,14.848-0.107c6.378-0.241,14.636,2.736,18.644-1.199c4.359-4.28,1.342-12.679,1.428-19.261
		c0.222-17.135,0.071-17.205,17.177-16.877c2.762,0.054,7.357-1.735,6.989,3.705c-0.251,3.68,3.131,9.591-4.802,9.902
		c-2.989,0.118-3.056,2.728-3.057,5.029c-0.008,17.082-0.033,34.163,0.018,51.242c0.005,1.566-0.763,3.938,1.625,4.283
		c2.119,0.305,2.569-1.887,3.15-3.485c8.044-22.076,16.041-44.169,24.156-66.22c1.16-3.151,0.656-4.302-2.896-4.695
		c-5.878-0.65-11.889-1.272-17.495-3.021c-53.81-16.794-74.63-77.149-43.142-124.614c1.035-1.559,3.294-3.233,1.32-5.02
		c-1.75-1.584-4.404-0.955-6.136,0.604c-1.804,1.624-3.374,3.602-4.691,5.654c-6.41,9.98-11.883,20.686-19.211,29.927
		c-13.615,17.167-18.976,35.913-16.857,57.748C130.963,138.816,130.846,151.751,129.167,165.12z M204.057,346.144
		c0-2.716,0.043-5.433-0.008-8.146c-0.1-5.268-4.773-6.469-6.724-3.747c-4.642,6.48-8.475,2.757-13.092,0.943
		c-12.353-4.855-24.094-1.306-30.602,8.927c-6.439,10.125-5.079,24.481,3.119,32.903c8.042,8.263,20.911,9.473,31.326,2.952
		c6.154-3.857,6.194-7.45-0.061-11.452c-1.22-0.78-1.59-1.651-1.878-2.864c-1.644-6.927,0.378-9.649,8.908-8.347
		c8.355,1.28,10.314-1.607,9.027-8.949C203.947,347.645,204.056,346.884,204.057,346.144z M299.59,287.795
		c0,5.69,0.09,11.388-0.032,17.078c-0.082,3.796,3.12,6.005,4.798,3.709c5.87-8.033,10.71-2.408,16.084-0.043
		c1.741,0.769,3.857,0.998,5.788,0.948c3.688-0.09,6.939-1.422,8.069-5.319c1.107-3.819-1.396-6.094-4.305-7.729
		c-4.521-2.545-9.266-4.695-13.775-7.258c-6.889-3.915-11.518-9.298-10.82-17.896c0.146-1.814,2.249-4.565-2.026-4.693
		c-3.688-0.11-3.825,2.168-3.796,4.861C299.631,276.9,299.591,282.345,299.59,287.795z M143.24,334.173
		c-7.817-1.138-8.624,0.197-5.667,9.736C139.639,340.36,141.383,337.362,143.24,334.173z M136.873,374.599
		c-1.599,9.449-1.312,9.814,6.211,7.905C140.736,380.177,140.69,376.587,136.873,374.599z"/>
	<path fill-rule="evenodd" clip-rule="evenodd" fill="#FE4C4C" d="M153.294,292.354c0-7.177,0.046-14.354-0.037-21.53
		c-0.018-1.556,0.727-3.712-1.84-4.158c-1.948-0.337-2.74,0.502-3.687,2.464c-2.733,5.667-8.581,2.644-9.972,0.563
		c-4.312-6.448-9.874-2.595-14.564-2.649c-3.395-0.041-1.841,4.435-1.843,6.834c-0.006,11.644-1.516,9.652,9.648,9.861
		c2.226,0.044,4.454,0.05,6.681,0.062c2.811,0.014,3.015,1.921,3.014,4.048c0,2.116-0.15,4.058-2.978,4.08
		c-1.732,0.015-3.464,0.047-5.196,0.05c-11.376,0.035-13.748,3.094-11.262,14.296c0.363,1.637,0.904,3.209,2.641,2.817
		c5.652-1.273,12.55,3.735,17.136-3.764c1.137-1.857,5.119-1.451,6.978-0.272c3.208,2.034,1.288,5.842,1.507,8.877
		c0.181,2.49-1.124,4.565-3.774,4.6c-10.634,0.14-21.281,0.311-31.902-0.09c-3.975-0.147-3.624-4.005-3.625-6.977
		c-0.01-13.117-0.029-26.234,0.012-39.349c0.009-3.082,0.046-5.059-4.241-6.043c-3.674-0.844-5.197-0.658-6.876,2.47
		c-2.769,5.16-5.96,10.1-8.644,15.3c-0.702,1.358-0.909,3.88-0.112,4.954c4.966,6.684,4.934,16.478,13.566,21.002
		c2.489,1.307,1.947,5.883,0.59,7.412c-2.657,2.995-6.805,1.936-10.218,0.563c-2.076-0.833-3.056-3.065-4.034-5.111
		c-2.747-5.746-5.875-11.326-8.339-17.188c-1.813-4.313-5.139-3.843-8.465-3.555c-4.055,0.351-2.384,3.688-2.483,5.789
		c-0.234,4.939-0.243,9.905-0.033,14.845c0.17,4.007-0.375,6.393-5.444,6.369c-4.754-0.022-5.813-1.715-5.716-6.085
		c0.255-11.626,0.276-23.267-0.009-34.892c-0.108-4.395,2.079-9.305-3.843-12.775c-3.084-1.805-0.054-7.836,3.867-8.146
		c10.079-0.808,11.079,0.109,11.101,10.18c0.006,2.969-0.225,5.961,0.074,8.901c0.218,2.139-1.694,5.392,2.095,6.111
		c3.245,0.618,6.525,0.365,8.416-3.053c3.195-5.778,6.622-11.452,9.377-17.436c1.717-3.729,3.923-4.847,7.923-4.817
		c25.233,0.188,50.469-0.006,75.702,0.177c8.3,0.061,15.377,2.554,18.543,11.527c2.633,7.464,0.881,15.393-5.543,21.339
		c-0.854,0.792-2.777,1.233-2.165,2.489c2.744,5.631,5.564,11.258,8.882,16.557c1.079,1.724,3.884,2.2,6.123,1.189
		c2.523-1.143,2.235-3.569,2.235-5.798c-0.001-13.454-0.094-26.908,0.091-40.362c0.033-2.333-1.808-6.179,2.2-6.727
		c3.59-0.493,7.421-1.504,10.347,3.166c6.611,10.549,14.015,20.602,21.131,30.835c0.904,1.297,1.237,3.618,3.581,2.951
		c2.443-0.699,1.046-2.888,1.3-4.396c1.389-8.26-0.289-16.542,0.09-24.802c0.313-6.834,10.067-11.806,15.323-7.548
		c2.661,2.159,3.07,7.206-0.444,8.572c-4.777,1.86-3.979,5.023-3.997,8.306c-0.067,12.128,0.125,24.256-0.143,36.378
		c-0.06,2.696,2.312,6.893-2.706,7.902c-4.25,0.854-7.347-0.606-9.864-4.568c-6.28-9.887-12.932-19.545-19.728-29.084
		c-1.277-1.791-1.975-5.572-4.768-4.769c-2.942,0.848-1.313,4.304-1.365,6.553c-0.194,8.408-0.221,16.829-0.03,25.24
		c0.106,4.678-1.64,7.04-6.47,6.7c-0.493-0.034-0.998-0.061-1.483,0.006c-12.284,1.689-22.478-0.183-26.003-14.467
		c-0.556-2.255-2.564-4.145-3.854-6.23c-2.215-3.578-5.794-3.482-9.165-3.001c-3.799,0.543-2.083,3.871-2.229,6.021
		c-0.251,3.694-0.262,7.43-0.024,11.127c0.277,4.307-0.356,6.794-5.8,6.719c-5.24-0.073-5.376-2.69-5.292-6.516
		C153.401,305.718,153.295,299.034,153.294,292.354z M164.414,276.518c0.416,4.538-2.46,10.767,6.8,9.948
		c8.625-0.764,11.52-2.792,11.415-10.715c-0.088-6.704-2.979-8.416-11.292-9.205C162.147,265.675,164.765,271.859,164.414,276.518z"
		/>
	<path fill-rule="evenodd" clip-rule="evenodd" fill="#D6F13F" d="M332.643,136.62c12.924,0.003,12.924,0.003,12.929,12.912
		c0.006,12.787,0.006,12.787-12.959,12.787c-14.01,0-14.01,0-14.011-13.962c0-0.743,0-1.486,0-2.229
		c0.004-9.51,0.006-9.51,9.585-9.507C329.673,136.62,331.157,136.62,332.643,136.62z"/>
	<path fill-rule="evenodd" clip-rule="evenodd" fill="#D9F24D" d="M338.823,382.57c6.433-1.506,5.873,2.853,6.222,7.392
		c0.547,7.099-3.877,6.295-8.499,6.692c-7.076,0.604-5.496-4.077-5.938-8.123C329.868,381.743,334.178,382.237,338.823,382.57z"/>
	<path fill-rule="evenodd" clip-rule="evenodd" fill="#F9FCE7" d="M136.873,374.599c3.818,1.988,3.863,5.578,6.211,7.905"/>
</g>
</svg>
