<?xml version="1.0" encoding="utf-8"?>
<!-- Generator: Adobe Illustrator 16.0.0, SVG Export Plug-In . SVG Version: 6.00 Build 0)  -->
<!DOCTYPE svg PUBLIC "-//W3C//DTD SVG 1.1//EN" "http://www.w3.org/Graphics/SVG/1.1/DTD/svg11.dtd">
<svg version="1.1" id="Layer_1" xmlns="http://www.w3.org/2000/svg" xmlns:xlink="http://www.w3.org/1999/xlink" x="0px" y="0px"
	 width="400px" height="400px" viewBox="0 0 400 400" enable-background="new 0 0 400 400" xml:space="preserve">
<g>
	<path fill-rule="evenodd" clip-rule="evenodd" fill="#230E1B" d="M337.822,175.033c4.191,0.43,8.317-2.121,12.537-0.27
		c0.612,1.371,1.88,1.105,3.003,1.202c2.229,2.856,3.843,1.169,5.81-0.536c6.908-5.99,14.758-8.55,23.986-6.624
		c3.866,0.808,4.593,4.111,6.52,6.509c-0.581,2.472-0.989,4.938,0.207,7.359c-2.3,5.657-2.255,10.462,0.504,16.717
		c4.166,9.441,2.076,19.511-5.074,27.793c-1.244,0.034-1.969,0.604-1.971,1.916l-0.002,0.004c-0.275,0.384-0.549,0.767-0.825,1.151
		l0.044-0.043c-4.003,0.661-3.69,2.926-2.103,5.662c-0.024,0.64-0.051,1.281-0.075,1.922c-2.962,0.67-1.433,3.12-1.896,4.781
		l-0.034,0.049c-0.302,0.645-0.604,1.289-0.905,1.934l-0.006,0.008c-0.328,0.627-0.659,1.253-0.987,1.879l-0.028,0.039
		c-0.306,0.315-0.613,0.63-0.919,0.946c-1.025,1.311-2.05,2.622-3.074,3.934c-0.246,0.241-0.491,0.482-0.738,0.725
		c-0.35,0.063-0.7,0.126-1.052,0.189c-2.844,0.295-5.318,1.208-6.648,4.014c-1.639,0.581-3.277,1.162-4.915,1.744
		c-0.555-0.252-1.202-0.833-1.651-0.707c-8.129,2.278-16.448,1.655-24.727,1.793c-2.157,0.036-4.498-0.812-6.465,0.847
		c-0.638-0.039-1.273-0.077-1.911-0.117c-1.756-3.157-4.602-1.308-6.997-1.521c-0.561-0.036-1.121-0.072-1.682-0.109
		c-1.864-1.667-3.809-1.502-5.8-0.249c-1.383-0.042-2.813,0.152-4.017-0.796c0.289-0.067,0.653-0.049,0.85-0.222
		c0.459-0.4,0.223-0.734-0.283-0.747c-1.168-0.03-2.419-0.315-3.317,0.798c-1.06,0-2.118,0.005-2.948-0.817
		c-1.425-4.023-5.717-0.538-7.752-2.961c3.863-3.967,7.738-0.138,11.609-0.021c0.325-0.304,0.651-0.606,0.978-0.91
		c0.765-0.021,1.491-0.123,1.918-0.879c1.008-0.326,1.965-0.154,2.894,0.298c-0.191,2.877,2.389,3.19,3.926,3.193
		c4.556,0.011,9.272,1.034,13.513,0.676c9.615-0.812,19.321,0.979,28.844-1.334c3.997-0.972,8.261-1.207,9.665-6.13
		c0.315-0.994,0.713-1.892,2.02-1.726c1.858,1.627,1.719,0.018,1.855-1.146c0.688-0.871,1.379-1.743,2.07-2.614
		c2.004-0.147,4.131-0.222,1.753-2.963c0.221-0.817,0.412-1.622-0.793-1.817c-2.84-1.307-4.112,0.219-4.859,2.691
		c-1.952,1.7-4.345,1.901-6.771,1.982c-1.162-1.118-2.172-1.062-3.005,0.386c-4.782,0.912-9.559,0.862-14.328-0.098
		c-0.529-1.007-1.159-1.271-1.963-0.271c-2.284,0.172-4.534,0.007-6.73-0.674c-0.502-1.021-1.121-1.333-1.961-0.327
		c-1.309,0.157-2.603,0.22-3.764-0.579c-0.506-1.141-1.138-1.526-2.04-0.349c-10.288-1.717-20.667-2.909-30.821-5.396
		c-0.458-1.11-1.045-1.648-2.023-0.457c-1.876-0.346-3.752-0.695-5.628-1.036c-10.656-1.939-21.483-2.855-32.03-5.431
		c-0.5-1.112-1.125-1.4-1.955-0.293c-1.325,0.132-2.646,0.242-3.841-0.546c-0.771-1.569-1.756-1.628-2.922-0.414
		c-1.987,0.028-3.964-0.014-5.826-0.836c-1.032-2.723-2.345-2.774-3.911-0.41c-0.664-0.09-1.33-0.179-1.997-0.269
		c-0.017-0.802-0.003-1.816-0.926-1.969c-3.784-0.631-3.294-2.746-1.96-5.23l-0.045,0.045c2.437,0.351,3.28-0.807,2.928-3.095
		c2.441-4.58,3.195-9.385,1.866-14.444c-1.064-4.052-2.689-7.881-4.494-11.662c-0.613-1.284-2.729-2.95,0-4.381
		c1.072,1.021,2.016,2.481,4.037,1.044c-1.136-1.431-2.585-1.163-3.958-1.133c-3.516,0.43-2.961-2.495-3.188-4.29
		c-0.366-2.902-0.205-6.701,3.195-7.07c3.835-0.415,5.227-3.128,7.503-5.118c3.759,0.753,9.37-1.931,11.586-5.543
		c0.995-0.939,1.991-1.879,2.988-2.819c2.918-0.934,5.365-3.18,8.646-3.103c0.937,1.179,1.499,0.708,1.904-0.435
		c2.228-0.731,4.47-0.744,6.725-0.153c0.338,1.204,0.854,1.805,1.916,0.569c2.493,0.321,4.652,1.437,6.7,2.819
		c-0.73,1.505-3.96-0.442-3.396,1.799c0.574,2.276,2.661,0.051,4.079,0.13c0.476,0.026,0.955-0.021,1.433-0.035
		c0.296,0.295,0.59,0.592,0.887,0.887c-0.051,1.681,0.219,3.092,2.42,2.888c1.449,2.144,2.987,3.681,5.179,0.757
		c1.214,1.37,2.442,2.693,4.618,1.6c-0.476-1.636-2.863-1.345-2.563-3.235c3.576-2.273,7.334-3.542,11.584-2.107
		c0.591,1.453,1.852,1.12,2.986,1.119c3.548,1.281,5.903,3.826,7.551,7.122c0.074,0.915,0.295,2.582,1.117,2.128
		c3.615-1.996,7.997-0.927,11.479-3.144c3.041,0.747,5.677,2.202,7.85,4.469C336.882,174.599,337.148,174.97,337.822,175.033z
		 M314.779,223.351l-0.004,0.003c2.813-1.027,1.229-3.289,1.419-5.053c0.113-0.589,0.227-1.179,0.34-1.768
		c3.078-7.828,5.972-15.756,12.055-21.931c1.58-0.697,3.303-2.054,4.76-0.13c1.446,1.907-0.853,2.909-1.659,3.953
		c-4.212,5.447-7.233,11.407-8.251,18.221c-0.542,3.627-1.25,7.916,2.73,9.95c4.174,2.132,7.295-0.905,9.98-3.768
		c1.823-1.943,3.385-4.13,5.395-6.619c0.797,3.235,1.344,5.898,2.11,8.497c2.269,7.683,10.339,12.593,17.351,10.653
		c9.646-2.668,15.997-8.494,20.742-16.681c2.446-4.221,3.845-8.825,3.437-13.81c-0.148-1.817-0.638-3.622-2.378-4.456
		c-1.931-0.923-3.448,0.468-4.688,1.656c-3.267,3.136-5.353,7.205-2.604,11.194c3.569,5.184,0.129,7.271-3.099,9.742
		c-4.022,3.08-9.171,3.169-12.991,0.384c-3.254-2.375-5.862-10.521-4.571-14.057c0.385-1.056,1.059-1.362,2.08-1.645
		c5.041-1.394,9.405-4.213,13.461-7.331c5.273-4.055,9.633-8.958,11.298-15.724c0.723-2.939,1.077-6.004-1.476-8.004
		c-2.488-1.949-5.504-1.742-8.677-0.896c-6.745,1.796-11.528,6.273-16.05,11.066c-5.459,5.784-8.89,12.866-11.929,20.137
		c-0.97,2.322-2.704,3.903-5.217,3.112c-2.366-0.747-1.933-3.045-1.522-4.962c1.273-5.959,4.284-11.016,8.221-15.577
		c3.049-0.1,4.46-1.767,4.526-4.724c-0.113-0.647-0.225-1.294-0.338-1.94c1.491-2.26-0.999-1.929-1.776-2.483
		c-1.125-0.8-2.344-0.695-2.782,1c-1.545,0.303-3.091,0.606-4.639,0.91c-1.923-2.73-3.143,0.102-4.658,0.591
		c-1.178,0.38-2.593,2.83-3.355-0.388c-1.195-5.01-7.174-6.876-11.802-3.403c-3.909,2.935-7.503,6.292-11.235,9.463
		c-1.548-0.03-2.018-1.047-2.165-2.361c1.044-1.599,2.28-3.106,3.094-4.816c2.194-4.615,0.626-9.262-3.668-11.405
		c-3.845-1.919-11.124-0.001-10.744,2.968c0.99,7.767-4.156,10.501-9.808,13.045c-0.401-1.41,1.807-2.809,0.018-4.226
		c-0.079-0.471-0.166-0.941-0.234-1.414c-1.474-10.238-9.184-17.401-18.245-16.949c-8.104,0.404-12.834,6.661-13.389,17.853
		c-0.061,1.213-0.445,1.917-1.301,2.819c-5.262,5.559-8.88,12.099-10.681,19.548c-2.39,9.888,1.117,15.135,11.026,16.794
		c0.85,1.237,1.498,0.855,2.059-0.254c10.336-3.142,16.692-11.051,22.909-19.125c2.09,0.532,3.626,2.716,6.117,2.046
		c-0.413,1.447-1.61,2.235-2.548,3.295c-5.795,6.546-4.813,13.384,2.334,17.581c1.771,1.854,3.438,2.149,4.921-0.326
		c3.571-7.828,6.542-15.994,12.602-22.422c2.545-2.62,5.087-5.241,7.629-7.86l0.325,0.097c0.221-0.217,0.441-0.433,0.66-0.65
		c1.363-0.456,2.663-2.457,4.162-0.467c1.631,2.164-0.927,2.655-1.814,3.644c-5.189,5.792-9.37,12.179-11.614,19.664
		c-1.635,5.448-0.265,8.151,4.442,9.631c1.631,0.785,3.241,0.92,4.813-0.152c0.606-0.073,1.21-0.147,1.814-0.221
		C313.058,225.043,314.223,224.813,314.779,223.351z M266.891,223.987c3.49,0.585,6.655,0.782,5.271-4.432
		c-0.793-5.015-3.479-1.63-5.543-1.293c-2.289,0.373-5.028,0.873-4.673,3.581C262.178,223.607,264.92,223.896,266.891,223.987z
		 M333.474,234.55c1.317,1.949,3.373,0.987,4.875,1.856c0.787,0.456,2.633,1.166,3.226-0.462c0.549-1.512-1.093-2.48-1.724-3.704
		c-0.764-1.479-1.725-0.837-2.694-0.146C336.018,232.906,334.832,233.648,333.474,234.55z M241.279,187.922
		c0.026-2.564,4.556-3.603,1.997-6.831c-0.691-0.874-2.05-1.359-2.98-0.345C238.119,183.118,239.41,185.478,241.279,187.922z
		 M366.933,217.709c1.106,0,2.511-0.371,1.908-1.388c-0.992-1.675,0.283-4.679-2.22-5.026c-1.202-0.167-3.778,0.948-3.637,2.982
		C363.124,216.303,364.998,217.347,366.933,217.709z M315.413,232.226c2.197,0.408,4.192,0.778,6.649,1.233
		C320.086,229.134,318.066,228.924,315.413,232.226z M238.967,177.259c-0.033-1.307-0.696-2.114-1.436-1.889
		c-1.813,0.552-3.634,1.374-4.545,3.185c-0.305,0.605,0.541,1.339,1.14,1.095C235.84,178.949,237.461,178.021,238.967,177.259z
		 M274.869,212.463c1.16-0.313,1.205-1.234,1.077-2.226c-0.096-0.747-0.604-1.174-1.285-0.942c-0.995,0.341-1.469,1.148-1.249,2.231
		C273.563,212.268,274.131,212.472,274.869,212.463z M274.886,159.013c-1.008-0.086-1.52,0.156-1.523,0.943
		c-0.002,0.666,0.263,1.242,1.021,1.302c0.642,0.052,1.372-0.08,1.261-0.911C275.576,159.824,275.094,159.357,274.886,159.013z
		 M290.915,175.945c-0.332,0.367-0.815,0.672-0.8,0.951c0.013,0.288,0.486,0.739,0.806,0.784c0.605,0.085,1.281-0.14,1.076-0.953
		C291.923,176.428,291.362,176.251,290.915,175.945z"/>
	<path fill-rule="evenodd" clip-rule="evenodd" fill="#281423" d="M66.341,247.443c0.399-1.318,1.233-2.259,2.48-2.836
		c0.183,0.058,0.369,0.098,0.56,0.121c0.379,0.529,0.632,0.331,0.835-0.146l0.061-0.052c0.303-0.304,0.605-0.605,0.908-0.908
		l0.058-0.058c0.308-0.308,0.615-0.615,0.923-0.922l0.025-0.029c2.468-0.202,3.615-2.07,4.843-3.837
		c5.948-3.643,11.895-7.286,17.845-10.927c1.068-0.654,1.463-1.623,1.362-2.834c-0.078-0.525-0.156-1.05-0.234-1.575
		c2.531-2.375,0.54-4.145-1.092-5.447c-1.387-1.105-2.308,0.026-2.431,1.632l-0.359-0.033c-1.236,0.143-1.49,0.994-1.475,2.041
		c-0.916,0.913-1.832,1.824-2.748,2.736c-0.374,0.38-0.746,0.76-1.119,1.139c-0.9,1.544-2.072,2.822-3.634,3.719
		c-0.394,0.388-0.788,0.774-1.182,1.16c0.066,0.253,0.004,0.468-0.187,0.646c-1.527-0.11-2.689,0.499-3.875,1.49
		c-6.12,5.11-12.216,10.279-20.278,12.207c-1.583,0.379-3.041,1.184-2.857,3.263c-0.64,0.134-1.28,0.267-1.92,0.401
		c-0.31-2.165-1.61-1.467-3.123-1.423c-3.155,0.094-6.189,2.922-9.445,0.496c0.322-0.968,0.645-1.934,0.967-2.9
		c2.807-0.43,6.487,1.253,7.641-3.165c0.972-0.302,1.942-0.604,2.914-0.907c0.512,1.019,1.341,2.467,2.402,1.557
		c2.309-1.98,5.264-2.182,7.802-3.48c13.968-7.146,23.821-18.916,34.182-30.128c0.854-0.924,1.175-1.886,0.356-2.995l0.244-0.313
		c2.469,0.763,3.13-1.563,4.366-2.716c1.308-1.222,1.79-3.368,4.08-3.436l-0.061-0.043c0.1,3.682-1.949,6.7-3.104,9.992
		c-2.223,6.334-3.279,12.443,2.985,17.303c-0.219,2.322-1.745,3.413-3.815,3.216c-2.204-0.21-2.803,0.808-2.942,2.623
		c-0.378,0.842-1.146,0.924-1.923,0.982c-3.699-0.806-6.509,1.229-9.357,3.009c-4.462,2.79-8.276,6.384-12.121,9.944
		c-4.625,4.282-9.445,8.394-10.361,15.191c0.034,0.27-0.02,0.521-0.162,0.755c-1.895,0.141-1.875,1.514-1.86,2.885
		c-0.443,2.256-0.886,4.512-1.329,6.768c-3.055,3.536-4.729,15.946-2.594,19.596c0.207,0.355,0.786,0.493,1.191,0.731
		c0.189,0.636,0.379,1.27,0.569,1.904c-3.065,1.956-1.472,2.971,0.779,3.854c0.271,0.229,0.352,0.512,0.241,0.848
		c-0.263,0.225-0.526,0.449-0.789,0.674c0.387,0.119,0.773,0.238,1.16,0.358c4.243,12.599,13.034,20.868,24.929,26.183
		c0.738,2.405,1.629,4.316,4.061,1.259c2.833,0.32,5.666,0.641,8.498,0.961c0.022,1.672,0.599,3.263,2.481,2.167
		c2.592-1.508,5.53-1.389,8.207-2.445c10.301-4.066,16.618-11.825,21.193-21.559c1.119-2.38,0.768-4.38-0.518-5.68
		c-1.448-1.464-3.796-1.517-5.41,0.567c-0.594-0.182-1.188-0.364-1.782-0.546c-0.716-2.479-3.04-3.137-4.92-4.226
		c-8.37-4.844-11.178-12.49-7.893-21.443c0.712-1.941,1.51-3.922,1.213-6.09c1.242-2.469,3.094-4.406,5.071-6.323
		c12.35-11.97,28.4-15.388,44.289-18.496c18.998-3.718,38.382-3.449,57.677-3.275c9.452,0.086,18.929,0.089,28.27,1.944
		c0.004,0.654,0.009,1.308,0.015,1.96c-2.716,2.233-5.976,2.331-9.129,1.829c-7.755-1.234-15.614-1.637-23.381-1.635
		c-13.867,0.004-27.729,1.071-41.527,2.697c-1.602,0.189-2.347,0.775-2.348,2.343c-0.643,0.098-1.285,0.196-1.928,0.295
		c-0.222-1.1-0.887-1.756-2.012-1.574c-4.383,0.709-8.973,0.89-13.079,2.383c-5.414,1.97-12.415,0.938-15.693,7.453l0.067-0.065
		c-0.857-0.011-1.778-0.093-1.414,1.264c-0.081,0.182-0.22,0.287-0.418,0.314c-1.627-0.991-2.888-1.095-3.12,1.288l0.05-0.04
		c-0.896-0.044-1.683,0.103-1.979,1.119c-0.297,0.26-0.595,0.52-0.893,0.778c-1.031-0.055-1.858,0.201-2.091,1.366
		c-0.894,0.842-1.788,1.682-2.682,2.521c-1.514-0.07-3.084-0.225-2.978,2.053l0.058-0.058c-8.339,3.888-9.938,13.572-3.67,19.943
		c1.33,1.352,2.558,4.858,5.552,1.792c1.016,0.113,2.02,0.256,2.743,1.099c-0.174,2.164,0.718,3.53,2.982,3.068
		c2.758-0.563,6.581,0.896,7.537-3.552c0.713-0.358,1.465-0.656,2.131-1.085c2.988-1.923,3.697-0.519,3.216,2.272
		c-1.668,9.692-4.437,18.941-11.115,26.544c-1.129,0.033-2.06,0.192-2.937,1.208c-9.093,10.525-20.244,15.35-34.426,13.405
		c-14.774-2.025-26.146-8.622-33.342-21.89c-0.832-1.534-1.383-3.363-3.646-3.315c-6.313-11.65-8.107-23.861-4.558-36.735
		c1.575-0.086,2.185-1.445,2.641-2.496c2.517-5.794,4.366-11.901,8.496-16.905c0.338-0.409-0.154-1.506-0.261-2.283l0.296,0.202
		c0,0-0.263-0.245-0.263-0.245C65.733,249.978,68.065,250.643,66.341,247.443z"/>
	<path fill-rule="evenodd" clip-rule="evenodd" fill="#2B1624" d="M41.251,244.568c-0.322,0.967-0.645,1.933-0.967,2.9
		c-6.189-0.562-11.076-4.357-16.558-6.675c0,0,0.03,0.053,0.031,0.053c-0.777-3.341,0.116-7.55-4.596-8.847
		c-2.842-8.27-0.842-16.185,1.768-24.054c0.31-1.976-0.654-3.378-2.05-4.596c-4.675-4.079-8.038-8.905-9.671-15.042
		c-3.14-11.8-2.184-22.903,4.384-33.414c2.097-3.355,5.782-5.665,6.51-9.905c2.04-0.167,3.499-1.376,5.026-2.601
		c10.747-8.62,22.72-10.952,36.049-7.319c10.603,2.889,17.5,10.19,23.566,18.667c-0.417,0.772-1.136,0.939-1.928,0.96
		c-0.831-0.729-1.815-1.341-2.47-2.203c-10.553-13.913-27.396-19.246-43.674-12.272c-1.673,0.716-3.371,1.224-3.135,3.544
		c-5.305,4.427-10.31,9.121-14.297,14.84c-9.011,12.923-8.535,32.648,5.4,41.433c2.143,0.039,2.459-1.667,3.057-3.149
		c9.478-23.528,35.531-26.379,53.188-11.285c-2.104,0.184-4.564-0.699-5.841,1.955c-0.83,0.026-1.544,0.26-1.938,1.075
		c-0.305-0.118-0.609-0.236-0.914-0.354c0.196-1.99-0.992-3.232-2.681-3.322c-5.699-0.303-11.613-1.496-17.035,0.741
		c-8.195,3.379-15.126,8.707-20.543,15.817c-1.441,1.892-2.84,3.91-2.181,6.555c-3.34,7.295-5.478,14.79-3.829,22.919
		c-1.469,1.074-1.408,2.546-0.516,3.76C29.355,240.125,33.752,244.88,41.251,244.568z"/>
	<path fill-rule="evenodd" clip-rule="evenodd" fill="#2E1E29" d="M175.654,99.825c1.056-0.89,5.773-0.581,1.089-3.351
		c-2.426-1.433-0.954-2.479,0.378-3.537c5.614-4.455,13.636-3.808,18.555,1.992c1.975,2.33,4.163,3.451,6.89,4.52
		c8.306,3.255,13.125,9.361,13.579,18.521c-1.232,2.47-2.463,4.94-3.848,7.715c4.847,0.518,4.484-4.157,6.822-5.778
		c3.452-0.199,4.217-4.635,7.657-4.851l0.04,0.04c-0.026,1.824-1.56,2.671-2.486,3.931c-2.146,2.916-4.899,5.608-4.226,9.759
		c-0.71,2.244-1.419,4.488-2.146,6.792c-2.724-1.52-5.01-2.972-7.442-4.106c-2.451-1.143-5.035-2.009-7.593-2.914
		c-0.862-0.306-2.112-0.102-2.178-1.366c-0.059-1.143,1.127-1.401,1.915-1.903c1.622-1.033,3.187-2.077,4.255-3.793
		c4.293-6.891,0.77-14.47-8.233-17.216c-2.614-0.798-4.671-1.462-5.936-4.464c-1.517-3.605-5.773-4.028-9.147-1.615
		c-0.124-0.747-0.135-1.575-1.006-1.889c-0.136-0.049-0.407,0.278-0.616,0.431c0.515,0.504,1.03,1.008,1.544,1.512l-0.028-0.342
		l0.318-0.128C182.162,102.728,178.81,100.883,175.654,99.825z"/>
	<path fill-rule="evenodd" clip-rule="evenodd" fill="#291522" d="M252.899,162.685c-2.216,3.613-7.827,6.296-11.586,5.543
		c2.132-4.2,4.695-8.419-0.536-12.316c-0.024-0.019,0.298-0.504,0.456-0.771c1.339,0.208,2.48-0.098,3.304-1.248l0.367,0.008
		l0.236-0.284c1.289-0.091,2.325-0.613,2.991-1.763l-0.024,0.017c1.208-0.295,2.193-0.891,2.772-2.04
		c0.951-0.383,1.618-1.044,1.963-2.017c3.773-3.424,6.196-7.578,5.651-12.771c-0.234-2.231,0.087-6.01-3.276-5.811
		c-2.928,0.173-3.994,3.233-3.864,6.208c0.026,0.624,0.21,1.242,0.319,1.863c-1.447,0.283-3.369-0.8-4.245,1.049
		c-0.646,1.367,0.754,1.878,1.722,2.332c1.781,0.836,2.661,0.02,2.918-1.756c1.689,1.11,1.07,2.673,0.817,4.164
		c-1.599,1.046-3.199,2.091-4.798,3.137c-1.499-0.963-2.38,1.729-3.896,0.657c0.061-1.26,1.142-3.056-1.554-2.841
		c-1.285,0.103-2.186-0.4-2.312-1.825c1.54-0.253,3.622,0.73,4.521-0.667c0.838-1.304-0.354-2.85-1.284-4.317
		c-1.715,1.647-5.11,1.287-3.938,4.777c-1.815,0.387-2.752-1.22-4.132-1.821c-0.17-0.885-0.287-2.009-1.583-1.421
		c-1.11,0.504-1.599,1.394-0.354,2.391c0.472,2.468,4.347,2.644,3.873,5.748c-0.338,0.134-0.674,0.268-1.01,0.402
		c-0.344-0.102-0.685-0.204-1.028-0.306c-0.496-1.264-1.315-2.081-2.776-2.019c-4.28-4.514-5.174-7.15,1.94-9.826
		c0.893-0.335,1.795-0.643,2.693-0.963l0.233,0.278c-0.15,2.448,0.795,3.392,3.126,2.159c2.461-1.301,4.754-2.784,4.535-6.102
		c0.649-0.652,1.299-1.303,1.946-1.955c1.204-0.195,2.967,1.517,3.406,0.24c1.104-3.196,4.614-4.628,5.313-7.961
		c1.638,0.304,3.276,0.607,4.914,0.912l-0.043-0.028c-0.014,0.677-0.026,1.354-0.04,2.032c-0.4,4.303,1.11,8.651,0.504,12.769
		c-0.538,3.661,0.691,3.823,3.351,3.586c0.304,0.027,0.607,0.053,0.913,0.074c-1.161,6.993-5.919,11.636-10.648,16.297
		C250.066,159.099,249.716,160.261,252.899,162.685z"/>
	<path fill-rule="evenodd" clip-rule="evenodd" fill="#2E1E29" d="M158.098,107.658c0,0,0.186,0.01,0.189,0.015
		c2.078,0.503,4.785,1.979,3.716-2.391c1.344-1.413,3.012-2.229,4.891-2.659c0.295,0.461,0.634,1.339,0.877,1.313
		c1.256-0.132,0.936-1.214,0.987-2.047c0,0,0.205,0.126,0.209,0.133c3.336,1.65,7.13-0.007,10.485,1.472
		c-1.637,0.581-3.271,1.169-4.91,1.741c-5.986,2.089-11.463,4.95-15.375,10.171c-5.58,7.448-2.178,17.196,6.394,18.093
		c1,0.104,2.892,1.202,3.128-1.477c0.756-8.557,4.426-13.041,12.256-15.477c0.918-0.286,1.826-0.835,2.663-0.011
		c0.755,0.743,0.045,1.486-0.242,2.168c-1.542,3.663-2.505,7.591-4.932,10.852c-2.451,0.439-3.711,2.142-4.753,4.229
		c-1.414,2.831-3.063,5.526-5.766,7.373c-0.802-1.885,1.594-5.933-2.32-5.469c-4.43,0.523-6.088,0.292-8.904-4.289
		c-2.843-4.627-2.342-8.145-1.847-12.375c0.292-2.493,0.397-4.692-2.363-5.854c0.948-2.094,2.686-3.42,4.525-4.647
		c0.265,0.257,0.53,0.515,0.795,0.773C157.9,108.75,157.999,108.204,158.098,107.658z"/>
	<path fill-rule="evenodd" clip-rule="evenodd" fill="#22151C" d="M170.741,249.767c0.001-1.567,0.747-2.153,2.348-2.343
		c13.797-1.626,27.66-2.693,41.527-2.697c7.767-0.002,15.626,0.4,23.381,1.635c3.153,0.502,6.413,0.404,9.127-1.828
		c0.951,0.335,1.9,0.67,2.851,1.006c0.367,2.503,2.593,2.435,4.29,3.167c3.669,1.584,7.57,0.435,11.369,1.115
		c8.267,1.48,16.652,2.304,24.989,3.396c0.618,0.004,1.237,0.007,1.856,0.011c2.035,2.423,6.327-1.063,7.752,2.961
		c-1.669,0.025-3.337,0.051-5.004,0.076c-0.587-0.051-1.174-0.102-1.761-0.153c-1.032-1.169-2.234-1.008-3.488-0.448
		c-8.812-1.257-17.626-2.514-26.438-3.771c-0.285-0.529-0.615-0.575-0.993-0.091c-0.602-0.107-1.204-0.215-1.808-0.321
		c-0.531-0.996-1.163-1.36-2.018-0.322c-10.617-0.432-21.069-2.417-31.659-3.259c-14.688-1.168-29.242,0.145-43.843,0.895
		C179.055,249.009,174.9,249.437,170.741,249.767z"/>
	<path fill-rule="evenodd" clip-rule="evenodd" fill="#2A1D24" d="M260.723,121.77c-1.638-0.304-3.276-0.608-4.914-0.912
		c-0.006-1.766-0.246-3.569,0.027-5.292c0.765-4.814-2.815-6.415-5.964-8.227c-3.063-1.762-7.642-1.303-10.709,0.977
		c1.608,0,2.877-0.009,4.145,0.001c8.758,0.071,12.354,5.951,8.6,13.716c-1.229,2.541-3.415,4.223-4.818,6.545
		c-0.647,0.652-1.297,1.303-1.946,1.955c-2.406,1.597-4.341,4.116-7.661,3.943l-0.233-0.278c0.737-1.529,2.301-2.166,3.477-3.223
		c3.574-3.212,7.51-6.105,9.601-10.659c2.435-5.302,0.123-9.324-5.644-9.866c-4.408-0.415-8.103,1.253-11.713,3.576
		c-5.743,3.695-9.284,9.225-12.862,14.759c-0.674-4.15,2.08-6.843,4.226-9.759c0.927-1.26,2.46-2.107,2.486-3.932
		c0.775-0.047,1.492-0.211,1.902-0.975c2.641-0.764,4.701-2.23,5.824-4.825c0.413-0.127,0.827-0.255,1.24-0.382
		c-0.081-0.121-0.162-0.241-0.244-0.36c-0.341,0.236-0.683,0.473-1.024,0.708c-2.769,0.404-4.777,2.13-6.765,3.893
		c-0.761,0.411-0.927,1.127-0.974,1.903c-3.44,0.216-4.205,4.652-7.657,4.851c0.117-0.576,0.234-1.153,0.352-1.729
		c4.681-4.917,9.646-9.493,15.956-12.259c5.515-2.418,11.154-3.187,16.686-0.095c3.703,2.071,6,5.05,5.712,9.654
		C257.671,117.96,257.875,120.544,260.723,121.77z"/>
	<path fill-rule="evenodd" clip-rule="evenodd" fill="#2B1624" d="M134.003,130.65c0.777-0.147,1.512-0.138,2.058,0.563
		c-0.217,2.096,1.461,2.597,2.845,3.179c2.739,1.152,4.732,2.951,5.71,5.796c-1.058,0.04-2.19-0.135-2.878,0.988
		c-2.333-1.035-4.618-2.2-7.008-3.077c-4.211-1.547-7.924,0.092-11.809,1.717c-3.992,1.67-0.82,4.253-1.357,6.308
		c-0.281,1.077-0.555,2.159-0.744,3.254c-0.482,2.805-1.825,5.5-1.088,8.461l0.066-0.075c-2.852,0.775-2.085,3.044-2.064,5.005
		c0.112,0.23,0.078,0.435-0.103,0.616c-0.297,0.414-0.595,0.827-0.892,1.24c-0.383,0.558-0.766,1.114-1.149,1.672
		c-1.258,0.963-2.516,1.927-3.774,2.89c1.016-5.574,4.065-10.38,5.922-15.643c1.679-4.758,1.153-10.695-1.415-12.383
		c-0.086-0.646-0.172-1.29-0.258-1.936c1.818-5.897,6.125-7.437,11.746-6.77c1.095,0.13,2.22,0.011,3.332,0.007
		c1.061-0.023,2.198,0.181,2.881-0.966C134.011,131.215,134.003,130.933,134.003,130.65z"/>
	<path fill-rule="evenodd" clip-rule="evenodd" fill="#281423" d="M152.481,113.169c2.76,1.162,2.655,3.361,2.363,5.854
		c-0.495,4.229-0.996,7.748,1.847,12.375c2.816,4.582,4.474,4.813,8.904,4.289c3.914-0.463,1.518,3.584,2.319,5.469
		c0,0-0.078,0.072-0.078,0.072c-0.287,0.305-0.574,0.611-0.861,0.916c-1.787,5.041-6.271,2.96-9.698,3.674
		c-0.633,0.072-1.266,0.144-1.899,0.215c-0.79,0.052-1.555,0.157-1.986,0.955c-0.331-0.008-0.663-0.018-0.993-0.026
		c0.158-2.03,1.463-3.484,2.446-5.13c0.632-1.058,2.199-2.333,0.225-3.66c0.932-1.539-0.313-2.208-1.159-3.14
		C147.386,127.845,146.987,121.469,152.481,113.169z M164.625,140.11c-0.24-1.084-0.916-1.651-1.965-1.658
		c-1.212-0.007-1.568,0.811-1.523,1.859c0.046,1.098,0.599,1.778,1.76,1.616C163.912,141.786,164.576,141.192,164.625,140.11z"/>
	<path fill-rule="evenodd" clip-rule="evenodd" fill="#22151C" d="M57.657,308.354c2.264-0.048,2.815,1.781,3.646,3.315
		c7.196,13.268,18.568,19.864,33.342,21.89c14.182,1.944,25.333-2.88,34.426-13.405c0.877-1.016,1.808-1.175,2.937-1.208
		c-8.775,13.693-24.678,19.603-42.73,16.006C73.831,331.875,63.561,322.732,57.657,308.354z"/>
	<path fill-rule="evenodd" clip-rule="evenodd" fill="#2E1E29" d="M20.101,144.99c-0.728,4.24-4.413,6.549-6.51,9.905
		c-6.568,10.511-7.524,21.614-4.384,33.414c1.633,6.137,4.997,10.963,9.671,15.042c1.396,1.218,2.36,2.62,2.05,4.596
		c-21.018-15.312-20.802-42.833-4.182-60.288c1.089-1.144,2.202-2.266,3.304-3.397C20.07,144.504,20.087,144.747,20.101,144.99z"/>
	<path fill-rule="evenodd" clip-rule="evenodd" fill="#22151C" d="M20.101,144.99c-0.014-0.243-0.031-0.486-0.05-0.729
		c6.738-6.415,14.223-11.788,23.739-12.544c13.982-1.112,26.75,1.922,36.384,13.191c3.422,4.003,7.045,7.852,9.535,12.562
		l-0.195,0.186c-0.945-0.342-1.89-0.685-2.834-1.027c-0.646-0.965-1.292-1.928-1.937-2.892
		c-6.066-8.477-12.963-15.778-23.566-18.667c-13.33-3.633-25.302-1.301-36.049,7.319C23.6,143.614,22.141,144.823,20.101,144.99z"/>
	<path fill-rule="evenodd" clip-rule="evenodd" fill="#4E4043" d="M295.228,256.265c1.667-0.025,3.335-0.051,5.004-0.076
		c0.83,0.822,1.889,0.817,2.948,0.817c0.917,0.058,1.834,0.114,2.751,0.171c1.203,0.948,2.634,0.754,4.017,0.796
		c1.906,0.703,3.857,0.348,5.8,0.249c0.561,0.037,1.121,0.073,1.682,0.108c2.171,1.251,4.515,1.707,6.997,1.522
		c0.638,0.04,1.273,0.078,1.91,0.117c11.1,1.923,22.054,1.376,32.844-1.933c1.638-0.582,3.276-1.163,4.913-1.745
		c2.791-0.387,5.063-1.632,6.65-4.013c0.352-0.063,0.702-0.126,1.052-0.189c-2.489,5.284-7.888,5.84-12.504,7.337
		c-15.375,4.987-30.925,2.926-46.396,0.42C306.971,258.887,300.883,258.604,295.228,256.265z"/>
	<path fill-rule="evenodd" clip-rule="evenodd" fill="#2A1D24" d="M69.381,244.729c-0.191-0.023-0.377-0.063-0.56-0.121
		c-1.093-2.637-2.559-0.766-3.788-0.234c-3.341,1.444-6.582,3.145-10.262,3.621c-0.184-2.079,1.274-2.884,2.857-3.263
		c8.062-1.928,14.158-7.097,20.278-12.207c1.186-0.991,2.348-1.601,3.875-1.49c1.464,2.233,2.899,0.662,4.302-0.062
		c3.492-1.802,6.39-4.62,10.158-5.956c0.101,1.211-0.294,2.18-1.362,2.834c-5.95,3.641-11.896,7.284-17.845,10.927
		c-2.713-0.108-4.438,1.031-4.842,3.837c0,0-0.025,0.029-0.025,0.028c-0.308,0.308-0.615,0.615-0.923,0.923
		c0,0-0.058,0.058-0.057,0.058c-0.302,0.302-0.605,0.604-0.908,0.908c0,0-0.061,0.052-0.06,0.052
		C69.93,244.582,69.651,244.63,69.381,244.729z M68.663,243.46c0.203-0.112,0.413-0.229,0.623-0.345
		c-0.107-0.107-0.238-0.32-0.317-0.302c-0.228,0.05-0.435,0.194-0.649,0.302C68.426,243.223,68.533,243.33,68.663,243.46z"/>
	<path fill-rule="evenodd" clip-rule="evenodd" fill="#22151C" d="M116.323,141.162c2.568,1.688,3.094,7.625,1.415,12.383
		c-1.857,5.262-4.906,10.068-5.922,15.643l-0.01,0.012c-0.783,0.409-0.951,1.124-0.957,1.92l-0.011,0.017
		c-1.84-0.05-2.214,1.677-3.149,2.673c-4.077,4.347-5.736,4.039-8.503-1.681l0.212-0.189c4.014,3.484,6.235,1.443,8.499-2.334
		C113.17,160.811,116.457,151.515,116.323,141.162z"/>
	<path fill-rule="evenodd" clip-rule="evenodd" fill="#281423" d="M148.568,144.069c0,0,0.077,0.35,0.077,0.351
		c-0.113,1.357,0.261,2.376,1.794,2.592c-0.14,2.188,0.829,3.133,3.027,2.699c0.274,0.068,0.551,0.12,0.832,0.157
		c0.101,1.833,0.202,3.666,0.302,5.5c-4.091-1.878-4.6-1.781-4.32-0.32c1.164,6.079-3.72,4.474-6.581,5.455
		c-0.532-2.279,4.597-4.369,0.227-6.777c-0.102-2.245-0.204-4.49-0.306-6.735c0.663-0.033,1.327-0.065,1.99-0.097
		c1.186-0.631,0.936-1.752,0.95-2.783l0.04-0.055C147.256,144.059,147.912,144.064,148.568,144.069z"/>
	<path fill-rule="evenodd" clip-rule="evenodd" fill="#22151C" d="M138.03,258.323c3.278-6.515,10.279-5.483,15.693-7.453
		c4.106-1.493,8.695-1.674,13.079-2.383c1.125-0.182,1.79,0.475,2.012,1.574C158.25,251.692,148.051,254.675,138.03,258.323z"/>
	<path fill-rule="evenodd" clip-rule="evenodd" fill="#2A1D24" d="M23.726,240.794c5.481,2.317,10.368,6.113,16.558,6.675
		c3.256,2.426,6.29-0.402,9.445-0.496c1.512-0.044,2.813-0.742,3.123,1.423C41.215,252.393,30.475,249.59,23.726,240.794z"/>
	<path fill-rule="evenodd" clip-rule="evenodd" fill="#22151C" d="M124.514,290.6c-2.994,3.066-4.223-0.44-5.552-1.792
		c-6.269-6.371-4.669-16.056,3.67-19.943c-0.331,0.691-0.54,1.48-1.01,2.058C115.035,279.016,115.892,284.929,124.514,290.6z"/>
	<path fill-rule="evenodd" clip-rule="evenodd" fill="#22151C" d="M131.143,132.463c-1.111,0.004-2.236,0.124-3.332-0.007
		c-5.621-0.667-9.927,0.873-11.746,6.77c-1.781-5.964-1.641-6.307,4.25-8.058c4.5-1.339,9.057-2.157,13.688-0.518
		c0,0.282,0.008,0.564,0.021,0.848C132.97,131.541,131.833,131.337,131.143,132.463z"/>
	<path fill-rule="evenodd" clip-rule="evenodd" fill="#22151C" d="M63.975,249.935c0.106,0.777,0.599,1.874,0.261,2.283
		c-4.13,5.004-5.979,11.111-8.496,16.905c-0.456,1.051-1.066,2.41-2.641,2.496C54.964,263.508,58.119,256.044,63.975,249.935z"/>
	<path fill-rule="evenodd" clip-rule="evenodd" fill="#2A1D24" d="M260.64,123.773c0.014-0.678,0.026-1.354,0.04-2.032
		c4.849,2.852,7.225,9.086,5.658,14.816c-0.33,1.209-0.621,2.43-0.931,3.645c-0.306-0.021-0.609-0.047-0.915-0.073
		c0.087-1.756,0.322-3.522,0.231-5.27C264.507,130.765,264.845,126.416,260.64,123.773z"/>
	<path fill-rule="evenodd" clip-rule="evenodd" fill="#22151C" d="M148.568,144.069c-0.656-0.005-1.312-0.01-1.968-0.014
		c-0.662-1.288-1.323-2.577-1.984-3.866c-0.978-2.846-2.971-4.644-5.71-5.796c-1.384-0.582-3.063-1.083-2.845-3.179
		C143.168,132.64,146.718,137.528,148.568,144.069z"/>
	<path fill-rule="evenodd" clip-rule="evenodd" fill="#281423" d="M179.453,103.494c-3.355-1.479-7.149,0.178-10.485-1.472
		c0.109-0.363,0.352-0.519,0.723-0.475c1.4-0.178,3.11,0.643,3.982-1.236c0.661-0.163,1.321-0.325,1.982-0.487
		c3.155,1.058,6.507,2.903,8.156-2.038C186.254,102.61,185.802,103.204,179.453,103.494z"/>
	<path fill-rule="evenodd" clip-rule="evenodd" fill="#4E4043" d="M372.533,251.365c1.024-1.312,2.049-2.623,3.074-3.934
		c0.306-0.315,0.613-0.631,0.919-0.946l0.028-0.039c0.33-0.626,0.659-1.252,0.987-1.879l0.006-0.008
		c0.798-0.412,0.808-1.193,0.905-1.934c0,0,0.034-0.049,0.034-0.048c0.542-0.908,1.081-1.816,1.623-2.725
		C379.938,245.24,377.878,249.383,372.533,251.365z"/>
	<path fill-rule="evenodd" clip-rule="evenodd" fill="#35262D" d="M329.153,169.471c-3.482,2.217-7.864,1.147-11.479,3.144
		c-0.822,0.454-1.043-1.213-1.117-2.128c2.104,1.896,3.782-0.495,5.698-0.632C324.554,169.688,326.773,168.371,329.153,169.471z"/>
	<path fill-rule="evenodd" clip-rule="evenodd" fill="#22151C" d="M150.439,147.012c-1.533-0.216-1.907-1.235-1.794-2.592
		c0.976,1.144,1.586,1.028,2.204-0.414c0.96-2.239,1.873-4.574,4.221-5.835c1.974,1.327,0.407,2.602-0.225,3.66
		c-0.983,1.646-2.288,3.1-2.447,5.13C151.746,146.978,151.092,146.995,150.439,147.012z"/>
	<path fill-rule="evenodd" clip-rule="evenodd" fill="#230E1B" d="M137.775,291.215c-0.956,4.447-4.779,2.988-7.537,3.552
		c-2.264,0.462-3.156-0.904-2.982-3.068C130.784,291.988,134.291,291.841,137.775,291.215z"/>
	<path fill-rule="evenodd" clip-rule="evenodd" fill="#22151C" d="M89.709,157.47c3.342,2.845,4.15,7.31,6.785,10.606
		c0,0-0.193,0.204-0.194,0.204c-4.046-1.536-4.501-5.84-6.75-8.762c-0.012-0.62-0.024-1.241-0.036-1.862L89.709,157.47z"/>
	<path fill-rule="evenodd" clip-rule="evenodd" fill="#2A1D24" d="M19.161,232c4.712,1.297,3.819,5.506,4.596,8.847
		C21.399,238.327,19.599,235.518,19.161,232z"/>
	<path fill-rule="evenodd" clip-rule="evenodd" fill="#2D191F" d="M380.458,235.874c-1.588-2.736-1.9-5.001,2.103-5.662
		C380.894,231.741,381.447,234.094,380.458,235.874z"/>
	<path fill-rule="evenodd" clip-rule="evenodd" fill="#4E4043" d="M389.885,182.674c-1.196-2.421-0.788-4.887-0.207-7.359
		C390.868,177.736,390.799,180.193,389.885,182.674z"/>
	<path fill-rule="evenodd" clip-rule="evenodd" fill="#291522" d="M283.895,161.456c-0.478,0.014-0.957,0.062-1.433,0.035
		c-1.418-0.08-3.505,2.146-4.079-0.13c-0.564-2.241,2.665-0.293,3.396-1.799C282.78,159.863,283.488,160.491,283.895,161.456z"/>
	<path fill-rule="evenodd" clip-rule="evenodd" fill="#291522" d="M294.436,164.353c-0.301,1.89,2.087,1.599,2.563,3.235
		c-2.176,1.094-3.404-0.229-4.618-1.6C292.729,165.021,293.374,164.425,294.436,164.353z"/>
	<path fill-rule="evenodd" clip-rule="evenodd" fill="#281423" d="M162.003,105.282c1.069,4.37-1.638,2.895-3.716,2.391
		C159.251,106.448,160.495,105.66,162.003,105.282z"/>
	<path fill-rule="evenodd" clip-rule="evenodd" fill="#22151C" d="M66.341,247.443c1.724,3.199-0.608,2.534-2.333,2.448
		C64.513,248.816,65.24,247.951,66.341,247.443z"/>
	<path fill-rule="evenodd" clip-rule="evenodd" fill="#2D191F" d="M380.11,239.854c-0.542,0.908-1.081,1.816-1.623,2.725
		c0.463-1.662-1.066-4.112,1.896-4.782C380.551,238.516,380.92,239.263,380.11,239.854z"/>
	<path fill-rule="evenodd" clip-rule="evenodd" fill="#2E1E29" d="M173.672,100.312c-0.872,1.878-2.582,1.058-3.982,1.236
		C170.76,100.308,172.197,100.248,173.672,100.312z"/>
	<path fill-rule="evenodd" clip-rule="evenodd" fill="#4E4043" d="M289.979,255.663c1.254-0.56,2.456-0.721,3.488,0.448
		C292.229,256.546,291.04,256.605,289.979,255.663z"/>
	<path fill-rule="evenodd" clip-rule="evenodd" fill="#22151C" d="M122.573,268.922c-0.106-2.277,1.464-2.123,2.978-2.053
		C125.181,268.456,124.055,268.947,122.573,268.922z"/>
	<path fill-rule="evenodd" clip-rule="evenodd" fill="#22151C" d="M133.146,261.124c0.232-2.383,1.493-2.279,3.12-1.288
		C135.193,260.186,134.453,261.344,133.146,261.124z"/>
	<path fill-rule="evenodd" clip-rule="evenodd" fill="#291522" d="M309.006,163.364c-1.135,0.001-2.396,0.334-2.986-1.119
		C307.245,162.006,308.324,162.155,309.006,163.364z"/>
	<path fill-rule="evenodd" clip-rule="evenodd" fill="#291522" d="M287.201,165.231c-2.201,0.205-2.471-1.207-2.42-2.888
		C286.027,162.938,286.676,164.032,287.201,165.231z"/>
	<path fill-rule="evenodd" clip-rule="evenodd" fill="#4E4043" d="M353.362,175.965c-1.123-0.097-2.391,0.169-3.003-1.202
		C351.51,174.792,352.85,174.349,353.362,175.965z"/>
	<path fill-rule="evenodd" clip-rule="evenodd" fill="#22151C" d="M97.26,169.236c0.713,0.901,1.426,1.802,2.139,2.705l-0.212,0.189
		c-1.228-0.575-1.84-1.563-1.941-2.894H97.26z"/>
	<path fill-rule="evenodd" clip-rule="evenodd" fill="#281423" d="M168.758,101.89c-0.052,0.833,0.269,1.915-0.987,2.047
		c-0.243,0.025-0.583-0.852-0.877-1.313C167.515,102.378,168.137,102.134,168.758,101.89z"/>
	<path fill-rule="evenodd" clip-rule="evenodd" fill="#2D191F" d="M383.344,229.1c0.002-1.313,0.727-1.882,1.971-1.916
		C385.374,228.562,383.775,228.229,383.344,229.1z"/>
	<path fill-rule="evenodd" clip-rule="evenodd" fill="#22151C" d="M128.233,264.348c0.233-1.165,1.06-1.421,2.091-1.366
		C130.207,264.325,128.996,263.993,128.233,264.348z"/>
	<path fill-rule="evenodd" clip-rule="evenodd" fill="#291522" d="M266.438,156.327c-0.405,1.143-0.968,1.614-1.904,0.435
		C265.168,156.617,265.804,156.472,266.438,156.327z"/>
	<path fill-rule="evenodd" clip-rule="evenodd" fill="#291522" d="M275.078,156.743c-1.063,1.236-1.578,0.635-1.916-0.569
		C273.923,155.953,274.538,156.223,275.078,156.743z"/>
	<path fill-rule="evenodd" clip-rule="evenodd" fill="#4E4043" d="M258.723,251.158c0.854-1.038,1.486-0.674,2.018,0.322
		C260,251.796,259.334,251.646,258.723,251.158z"/>
	<path fill-rule="evenodd" clip-rule="evenodd" fill="#22151C" d="M136.684,259.521c-0.364-1.356,0.557-1.274,1.414-1.264
		C137.626,258.679,137.155,259.101,136.684,259.521z"/>
	<path fill-rule="evenodd" clip-rule="evenodd" fill="#22151C" d="M131.216,262.203c0.296-1.017,1.083-1.163,1.979-1.119
		C132.963,262.212,132.023,262.09,131.216,262.203z"/>
	<path fill-rule="evenodd" clip-rule="evenodd" fill="#281423" d="M158.098,107.658c-0.099,0.546-0.198,1.091-0.297,1.637
		c-0.265-0.258-0.53-0.516-0.795-0.773C157.37,108.234,157.734,107.946,158.098,107.658z"/>
	<path fill-rule="evenodd" clip-rule="evenodd" fill="#4E4043" d="M337.822,175.033c-0.674-0.063-0.94-0.435-0.819-1.093
		C337.276,174.304,337.55,174.668,337.822,175.033z"/>
	<path fill-rule="evenodd" clip-rule="evenodd" fill="#22151C" d="M96.494,168.076c0.58,0.171,0.873,0.533,0.767,1.159
		c0,0.001-0.015,0.001-0.015,0.001c-0.315-0.319-0.63-0.638-0.945-0.956L96.494,168.076z"/>
	<path fill-rule="evenodd" clip-rule="evenodd" fill="#4E4043" d="M262.548,251.802c0.378-0.484,0.708-0.438,0.993,0.091
		C263.21,251.862,262.88,251.832,262.548,251.802z"/>
	<path fill-rule="evenodd" clip-rule="evenodd" fill="#2D191F" d="M382.517,230.255c0.276-0.385,0.55-0.768,0.825-1.151
		C383.457,229.767,383.099,230.091,382.517,230.255z"/>
	<path fill-rule="evenodd" clip-rule="evenodd" fill="#F9F8F8" d="M179.453,103.494c6.349-0.29,6.802-0.884,4.358-5.708
		c0.003-0.004-0.315,0.125-0.315,0.125s0.028,0.342,0.028,0.341c0-0.001,0.078-0.052,0.078-0.052c3.374-2.414,7.63-1.99,9.147,1.615
		c1.265,3.002,3.322,3.666,5.936,4.464c9.002,2.746,12.526,10.326,8.233,17.216c-1.068,1.716-2.633,2.76-4.255,3.793
		c-0.788,0.502-1.974,0.76-1.915,1.903c0.065,1.265,1.315,1.061,2.178,1.366c2.558,0.905,5.142,1.771,7.593,2.914
		c2.433,1.134,4.719,2.586,7.442,4.106c0.727-2.303,1.436-4.547,2.146-6.792c3.578-5.535,7.119-11.064,12.862-14.759
		c3.61-2.322,7.305-3.991,11.713-3.576c5.767,0.542,8.078,4.564,5.644,9.866c-2.091,4.554-6.026,7.447-9.601,10.659
		c-1.176,1.057-2.739,1.694-3.477,3.223c-0.898,0.321-1.801,0.628-2.693,0.963c-7.114,2.675-6.221,5.312-1.94,9.826
		c0.036,1.896,1.336,2.053,2.776,2.019c0.344,0.102,0.685,0.204,1.028,0.306c3.586,2.763,8.695,2.29,11.668-1.083
		c1.599-1.045,3.199-2.091,4.798-3.137c-0.014,1.574-0.028,3.148-0.042,4.722c-0.345,0.973-1.012,1.634-1.963,2.017
		c-1.421,0.004-2.813,0.048-2.772,2.04c0,0,0.024-0.017,0.024-0.018c-1.402-0.1-2.81-0.209-2.991,1.764l-0.236,0.284l-0.367-0.008
		c-1.311-0.141-2.713-0.519-3.304,1.248c-0.158,0.267-0.48,0.752-0.456,0.771c5.231,3.896,2.668,8.116,0.536,12.316
		c-2.276,1.989-3.668,4.703-7.503,5.118c-3.4,0.369-3.562,4.168-3.195,7.07c0.227,1.795-0.328,4.72,3.195,4.288
		c0.006-0.004-0.087,0.091-0.087,0.091c-2.729,1.432-0.613,3.097,0,4.381c1.805,3.781,3.43,7.61,4.494,11.662
		c1.329,5.06,0.575,9.864-1.866,14.444c-1.178,0.841-2.484,1.56-2.928,3.095l0.045-0.045c-3.089-0.2-5.496,3.339-8.945,1.482
		c-4.604-2.477-9.282-4.803-12.678-8.967l-0.012-0.015c-0.85-1.863-2.08-3.648-2.475-5.603c-1.156-5.718-2.963-3.078-4.884-0.548
		c-2.936,2.21-5.802,4.52-8.825,6.604c-3.221,2.222-6.743,3.417-10.7,2.042c-0.734-0.664-1.469-1.327-2.204-1.99
		c0,0-0.022,0.02-0.023,0.02c0-0.332-0.162-0.534-0.487-0.606c-0.317-1.287-0.635-2.573-0.953-3.86
		c0.013-0.977,0.026-1.953,0.04-2.929c1.005-2.848,1.915-5.732,3.055-8.523c0.577-1.412,1.401-2.526-0.651-3.443
		c-1.73-0.772-2.92-0.607-4.094,1.007c-1.967,2.703-4.133,5.261-6.216,7.88l0.036-0.025c-2.231,2.301-4.462,4.602-6.693,6.902
		l0.042-0.043c-3.781,2.267-8.251,4.989-11.901,1.581c-3.867-3.61-4.978-1.988-6.477,1.445c-0.612,0.68-1.224,1.357-1.836,2.037
		c-1.667-0.738-2.092,0.889-3.021,1.573c-3.556,2.621-7.304,4.563-11.934,3.254c-0.921-1.328-1.842-2.656-2.762-3.985
		c-2.396-4.483-3.748-9.049-1.422-14.04c0.385-0.825-0.448-1.945-1.135-1.526c-2.117,1.293-5.726,1.066-6.357,3.607
		c-1.887,7.594-3.344,15.364,1.511,22.592c8.303-1.421,16.546-3.267,25.012-3.539c9.098-0.057,18.197,0.718,27.294-0.043
		c4.437,0.805,8.922,0.479,13.39,0.581c1.926,0.631,3.862,0.827,5.823,0.155c6.423,0.355,12.845,0.709,19.268,1.063
		c7.904,2.037,16.047,2.199,24.1,3.059c0.667,0.09,1.333,0.179,1.997,0.269c1.305,0.137,2.606,0.273,3.911,0.41
		c1.862,0.822,3.839,0.864,5.826,0.836c0.87,0.862,1.88,0.754,2.922,0.414c1.194,0.788,2.516,0.678,3.841,0.546
		c0.594,0.479,1.232,0.672,1.955,0.293c10.547,2.575,21.374,3.491,32.03,5.431c1.876,0.341,3.752,0.69,5.628,1.036
		c0.566,0.629,1.224,0.868,2.023,0.457c10.154,2.486,20.533,3.679,30.821,5.396c0.604,0.567,1.279,0.702,2.04,0.349
		c1.161,0.799,2.455,0.736,3.764,0.579c0.569,0.61,1.196,0.884,1.961,0.327c2.196,0.681,4.446,0.846,6.73,0.674
		c0.581,0.616,1.229,0.756,1.963,0.271c4.77,0.96,9.546,1.01,14.328,0.098c1.048,0.229,2.078,0.335,3.005-0.386
		c2.426-0.081,4.818-0.282,6.771-1.982c1.295-0.299,2.589-0.596,3.886-0.894c1.865,0.986-0.593,1.99,0.014,2.982
		c-0.691,0.871-1.382,1.743-2.07,2.614c-0.619,0.382-1.236,0.765-1.855,1.146c-1.307-0.166-1.704,0.731-2.02,1.726
		c-8.803,4.225-18.097,5.822-27.831,5.63c-9.416-0.186-18.753-1.238-28.116-2.035c-0.929-0.452-1.886-0.624-2.894-0.298
		c-4.058-1.757-8.457-1.645-12.712-2.338c-15.667-2.556-31.34-5.075-47.161-6.508c-9.341-1.855-18.817-1.858-28.27-1.944
		c-19.294-0.174-38.679-0.442-57.677,3.275c-15.889,3.108-31.939,6.526-44.289,18.496c-1.978,1.917-3.829,3.854-5.071,6.323
		c-2.035,1.649-3.189,3.868-4.053,6.272c-3.981,11.08,2.405,21.478,15.653,25.486c0.594,0.182,1.188,0.364,1.782,0.546
		c1.554,1.219,3.75-0.203,5.448,1.304c-5.855,14.301-15.162,24.186-31.402,25.646c-2.833-0.32-5.666-0.641-8.498-0.961
		c-1.354-0.419-2.707-0.839-4.061-1.259c-11.895-5.314-20.686-13.584-24.929-26.183c-0.124-0.345-0.247-0.688-0.371-1.032
		c0.11-0.336,0.029-0.619-0.242-0.848c-0.26-1.284-0.519-2.568-0.778-3.854c-0.189-0.635-0.379-1.269-0.569-1.904
		c-0.282-6.827-0.391-13.643,1.402-20.327c0.443-2.256,0.886-4.512,1.329-6.768c0.944-0.752,2.075-1.385,1.86-2.885
		c0.142-0.233,0.196-0.485,0.162-0.755c3.144-1.887,4.002-5.542,6.307-8.142c7.316-8.254,16.258-14.313,25.533-20.003
		c0.777-0.059,1.544-0.141,1.923-0.982c3.344-1.014,6.69-2.019,10.03-3.046c0.996-0.307,2.531-0.131,2.473-1.673
		c-0.079-2.049-2.12-0.676-2.992-1.454c-4.866-3.396-5.896-8.142-4.359-13.5c0.966-3.371,2.191-6.737,3.833-9.823
		c1.525-2.868,0.182-3.35-2.107-3.638c0,0,0.061,0.043,0.061,0.043c-1.132-1.023-2.124-2.771-3.709-0.422
		c-1.509,2.238-3.152,4.386-4.736,6.573c0,0-0.244,0.313-0.243,0.313c-3.417,3.592-6.847,7.175-10.251,10.78
		c-9.851,10.432-20.401,19.864-34.492,24.267c-0.972,0.303-1.942,0.605-2.914,0.907c-13.396,1.446-18.037-0.657-22.97-10.413
		c-1.649-8.129,0.489-15.624,3.829-22.919c0.895-1.316,1.779-2.641,2.688-3.946c8.938-12.849,23.417-21.293,39.752-15.845
		c0.305,0.118,0.609,0.236,0.914,0.354c0.523,0.596,1.021,1.219,1.574,1.788c3.979,4.083,3.936,4.292-0.77,7.369
		c-4.985,3.26-9.224,7.213-11.744,12.773c-1.137,2.509-1.419,4.999,0.271,7.254c1.533,2.046,3.758,2.136,6.053,1.319
		c1.209,0.072,2.193-0.436,3.073-1.204c-0.001-0.001,0.016,0.02,0.016,0.02c7.173-2.876,12.323-8.28,17.329-13.863
		c2.166-1.412,3.423-3.55,4.596-5.755c0.552-1.661,6.64-2.278,0.967-5.116c-0.57-0.636-1.141-1.273-1.711-1.909
		c-0.667-1.24-1.721-1.858-3.111-1.938l0.04,0.041c-0.33-0.996-0.686-1.962-2.045-1.767c-0.235-0.144-0.49-0.203-0.764-0.181
		c-3.776-5.051-9.525-7.246-14.822-9.992c-18.945-9.822-42.807,1.596-47.417,22.565c-13.935-8.784-14.411-28.509-5.4-41.433
		c3.987-5.719,8.992-10.413,14.297-14.84c12.493-6.385,26.647-6.327,39.202,4.105c4.633,3.85,7.348,9.165,11.869,12.943
		c1.954,3.367,4.141,6.562,6.883,9.349c2.672,5.023,6.799,8.851,10.601,12.951c1.678,1.81,2.929,1.422,4.183-0.443
		c1.608-2.393,3.447-4.646,4.9-7.128c1.724-2.945,4.77-5.301,4.417-9.246c0.383-0.558,0.766-1.115,1.149-1.672
		c0.632-0.173,1.057-0.495,0.892-1.24c0.181-0.181,0.215-0.386,0.103-0.616c1.603-1.292,1.93-3.108,2.064-5.005l-0.066,0.075
		c3.686-3.33,3.789-7.918,3.478-12.188c-0.296-4.062,1.813-5.036,4.844-5.544c6.665-1.117,11.829,1.306,15.567,6.883
		c0.102,2.245,0.204,4.49,0.306,6.735c-4.567,13.541-15.122,23.867-20.5,37.454c4.314,0.218,6.691-1.233,8.083-4.998
		c2.712-7.335,7.327-13.487,13.205-18.584c4.048-3.511,8.597-6.131,14.354-4.963c2.893,2.444,5.2,4.642-0.345,6.923
		c-2.107,0.867-3.843,2.851-5.497,4.567c-7.102,7.371-12.987,15.471-13.93,26.1c-0.459,5.186,1.587,6.608,6.362,4.822
		c1.314-0.171,2.25-0.891,2.915-2.006l-0.022,0.019c2.411-1.087,2.645-3.295,3.085-5.551c1.536-7.866,4.939-14.835,10.107-21.015
		c2.715-3.246,5.144-4.005,7.981-0.366c-1.634,5.356-3.671,10.515-6.664,15.301c-2.452,3.922-0.802,9.239,2.667,9.284
		c3.913,0.051,12.536-10.233,11.569-14.242c-1.025-4.253-0.292-8.234,0.73-12.278c1.652-4.672,4.468-8.533,8.189-11.764
		c1.47-0.417,2.625,0.42,3.854,0.966c0.755,1.613,1.511,3.227,2.267,4.84c-0.07,0.649-0.14,1.298-0.21,1.947
		c-2.453,4.841-3.853,10.212-7.306,14.547c-0.793,0.996-0.567,1.775,0.416,2.372c1.236,0.751,2.723,0.898,3.357-0.511
		c2.378-5.292,7.021-9.115,9.218-14.498l-0.001,0.002c2.432-1.745,4.925-3.419,6.848-5.768c1.103-0.689,2.95-0.711,2.554-2.807
		c-2.478-0.611-5.201,0.582-7.421-1.226c-2.865-1.313-5.73-2.625-8.595-3.938l0.063,0.058c-0.392-0.277-0.784-0.554-1.177-0.831
		l0.008,0.005c-3.871-3.71-7.234-7.723-7.285-14.632c-3.361,4.306-5.86,7.509-8.359,10.711c-0.937,0.916-1.874,1.832-2.811,2.747
		c-2.278,1.235-4.557,2.47-6.835,3.704c-1.254-0.079-2.523-0.305-3.707,0.354c-0.807-0.039-1.613-0.078-2.419-0.117l-0.091-0.08
		c-0.091-0.647-0.524-0.847-1.109-0.846c-0.355-0.373-0.711-0.745-1.066-1.118l0.059,0.061c-0.33-0.328-0.66-0.656-0.989-0.984
		l0.069,0.063c-0.097-0.788,0.402-1.847-0.938-2.073l-0.008-0.01c-0.101-1.833-0.202-3.666-0.302-5.5
		c0.359-1.279,1.968-2.205,1.08-3.835c0.633-0.071,1.266-0.143,1.899-0.215c2.719,3.827,5.791,2.401,8.56,0.294
		c5.696-4.336,9.516-10.186,12.597-16.557c2.427-3.26,3.39-7.189,4.932-10.852c0.287-0.682,0.997-1.426,0.242-2.168
		c-0.837-0.824-1.745-0.274-2.663,0.011c-7.83,2.436-11.5,6.919-12.256,15.477c-0.237,2.679-2.129,1.582-3.128,1.477
		c-8.572-0.897-11.974-10.645-6.394-18.093c3.912-5.222,9.389-8.082,15.375-10.171C176.182,104.663,177.816,104.075,179.453,103.494
		z M222.739,189.501c-0.13-0.375-0.235-1.059-0.393-1.071c-0.685-0.052-1.172,0.336-1.291,1.07c-0.628,0.78-1.255,1.559-1.882,2.338
		c-1.427,1.256-2.744,2.676-4.311,3.725c-1.803,1.205-2.121,2.691-1.385,4.491c0.915,2.237,2.014,4.413,4.782,4.822
		c2.23,0.329,3.648-0.631,4.158-2.856C223.385,197.869,222.925,193.682,222.739,189.501z M197.803,191.683
		c-2.402-0.271-3.532,0.828-3.761,3.215c-0.247,2.58,0.081,4.899,2.591,6.18c1.871,0.955,3.931,1.771,5.315-0.864
		c0.874-0.341,1.746-0.683,2.619-1.024c4.717-2.022,7.309-6.421,10.777-9.81c2.608-2.549,6.31-5.41,6.715-8.5
		c0.985-7.534,4.651-13.4,8.752-19.277c0.319-0.322,0.638-0.644,0.955-0.965c1.561-1.023,3.122-2.046,4.683-3.069
		c0.732-0.097,1.095-0.571,0.965-1.239c-0.038-0.193-0.663-0.272-1.02-0.403c-3.39,0.075-6.783,0.164-9.852-1.664
		c-4.925-3.396-4.925-3.396-7.845,2.182c-1.479,1.167-2.983,2.304-4.424,3.519c-0.455,0.382-1.028,0.968-1.034,1.466
		c-0.012,1.101,1.006,0.882,1.759,1.033c5.904,1.188,7.754,5.587,4.709,10.824c-2.767,4.762-6.932,8.267-10.62,12.206
		C205.326,187.556,201.565,189.619,197.803,191.683z M192.861,130.518c-4.646,0.038-9.381,4.686-9.332,9.161
		c0.034,3.145,7.991,8.552,12.445,8.459c5.316-0.111,8.703-3.736,8.649-9.261C204.577,133.901,199.736,130.462,192.861,130.518z
		 M129.62,162.501c-0.012-2.29-0.486-4.125-2.156-4.479c-1.881-0.398-1.963,1.791-2.435,2.985c-3.5,8.854-8.685,16.763-13.702,24.77
		c-0.772,1.232-2.619,2.438-0.485,4c2.011,1.471,3.348,0.851,4.606-1.261c4.346-7.291,9.018-14.394,12.77-22.024
		C128.914,165.078,129.277,163.5,129.62,162.501z M187.875,129.607c5.7-1.495,10.088-3.898,13.34-8.098
		c1.134-1.463,1.681-3.042,0.424-4.832c-1.814-2.582-4.462-2.84-7.25-2.844c-1.871-0.002-2.267,1.279-2.68,2.776
		C190.569,120.748,189.291,124.849,187.875,129.607z M197.294,185.699c6.854-1.144,11.692-5.138,15.448-10.683
		c0.709-1.048,1.617-2.292,0.492-3.474c-1.249-1.314-2.755-0.584-3.924,0.231C204.168,175.367,200.159,179.984,197.294,185.699z
		 M239.598,122.257c-0.457-1.988-0.19-5.229-3.45-3.15c-4.569,2.915-6.86,7.539-7.194,12.985c-0.115,1.902,0.824,2.909,2.651,1.653
		C235.704,130.927,238.597,127.214,239.598,122.257z"/>
	<path fill-rule="evenodd" clip-rule="evenodd" fill="#F5F4F3" d="M252.885,220.392c-9.909-1.659-13.416-6.906-11.026-16.794
		c1.801-7.449,5.419-13.989,10.681-19.548c0.855-0.902,1.24-1.606,1.301-2.819c0.555-11.192,5.284-17.449,13.389-17.853
		c9.062-0.452,16.771,6.71,18.245,16.949c0.068,0.473,0.155,0.942,0.234,1.414c-0.382,1.407-2.329,2.808-0.018,4.226
		c5.651-2.544,10.798-5.279,9.808-13.045c-0.38-2.969,6.899-4.887,10.744-2.968c4.294,2.143,5.862,6.791,3.668,11.405
		c-0.813,1.71-2.05,3.217-3.094,4.816c-3.205,2.441-5.344,5.827-7.817,8.906c-0.935,1.16-1.344,2.62-0.327,3.95
		c0.803,1.05,1.679,0.273,2.469-0.229c0.046,0.795,0.093,1.591,0.138,2.386c-6.06,6.428-9.03,14.594-12.602,22.422
		c-1.641,0.108-3.28,0.218-4.921,0.326c-7.147-4.197-8.129-11.035-2.334-17.581c0.938-1.06,2.135-1.848,2.548-3.295
		c0.353-0.408,0.706-0.814,1.059-1.223c1.846-1.875,3.689-3.748,5.536-5.621c3.305-2.504,6.022-5.537,8.142-9.098
		c0.629-1.056,0.716-2.185-0.322-2.999c-1.301-1.021-1.878,0.088-2.588,0.994c-1.748,2.231-3.58,4.394-5.379,6.584
		c-1.896,1.149-3.794,2.298-5.688,3.447c-1.265,0.457-2.529,0.914-3.794,1.371c-1.997-0.159-1.963,1.261-2.028,2.605
		c-0.716,0.428-1.023,1.084-1.054,1.894c-6.217,8.074-12.573,15.983-22.909,19.125C254.206,219.803,253.513,219.844,252.885,220.392
		z M269.171,178.68c-2.574,0.634-3.65,3.02-5.36,4.653c-0.391,0.373-0.785,1.438-0.621,1.592c2.086,1.96,4.688,2.576,7.483,2.751
		c1.946,0.123,3.66,0.531,4.822-1.879c2.888-5.992,0.443-13.527-5.605-16.474c-4.739-2.309-9.665-0.225-11.084,4.822
		c-0.372,1.319-1.307,2.943-0.198,4.144c1.461,1.582,2.419-0.864,3.742-0.862c2.331,0.007,5.366-3.58,6.777,1.283L269.171,178.68z
		 M254.563,200.831c-0.261,3.585,0.2,6.007,3.471,6.676c2.601,0.532,9.861-4.372,10.658-7.946c0.797-3.565-3.646-1.612-4.822-3.511
		c-0.297-0.478-1.101-0.619-1.635-0.971c-4.592-3.028-4.986-2.914-6.808,2.345C254.959,198.778,254.717,200.21,254.563,200.831z"/>
	<path fill-rule="evenodd" clip-rule="evenodd" fill="#F1F0EF" d="M340.032,182.273c1.548-0.303,3.094-0.607,4.639-0.91
		c1.52,0.494,3.039,0.988,4.559,1.482c0.113,0.646,0.225,1.293,0.338,1.94c-2.058,1.049-3.503,2.684-4.526,4.724
		c-3.937,4.561-6.947,9.618-8.221,15.577c-0.41,1.917-0.844,4.215,1.522,4.962c2.513,0.791,4.247-0.79,5.217-3.112
		c3.039-7.271,6.47-14.353,11.929-20.137c4.521-4.793,9.305-9.27,16.05-11.066c3.173-0.846,6.188-1.053,8.677,0.896
		c2.553,2,2.198,5.064,1.476,8.004c-1.665,6.766-6.024,11.669-11.298,15.724c-4.056,3.118-8.42,5.938-13.461,7.331
		c-1.021,0.282-1.695,0.589-2.08,1.645c-1.291,3.535,1.317,11.682,4.571,14.057c3.82,2.785,8.969,2.696,12.991-0.384
		c3.228-2.471,6.668-4.559,3.099-9.742c-2.748-3.989-0.662-8.059,2.604-11.194c1.24-1.188,2.758-2.579,4.688-1.656
		c1.74,0.834,2.229,2.639,2.378,4.456c0.408,4.984-0.99,9.589-3.437,13.81c-4.745,8.187-11.096,14.013-20.742,16.681
		c-7.012,1.939-15.082-2.971-17.351-10.653c-0.767-2.599-1.313-5.262-2.11-8.497c-2.01,2.489-3.571,4.676-5.395,6.619
		c-2.686,2.862-5.807,5.899-9.98,3.768c-3.98-2.034-3.272-6.323-2.73-9.95c1.018-6.813,4.039-12.773,8.251-18.221
		c0.807-1.044,3.105-2.046,1.659-3.953c-1.457-1.924-3.18-0.567-4.76,0.13c-0.519-0.508-1.038-1.016-1.557-1.525
		C330.354,188.259,335.244,185.327,340.032,182.273z M371.621,187.586c0.059-1.275-0.655-2.741-2.172-3.537
		c-1.764-0.926-3.226,0.347-4.247,1.443c-4.452,4.775-7.678,10.276-9.12,16.725c-0.179,0.797-0.511,1.666,0.281,2.195
		c0.983,0.655,1.835-0.114,2.6-0.642c4.404-3.042,8.229-6.688,11.193-11.167C371.044,191.262,371.644,189.75,371.621,187.586z"/>
	<path fill-rule="evenodd" clip-rule="evenodd" fill="#F9F8F8" d="M305.068,225.244c-4.707-1.479-6.077-4.183-4.442-9.631
		c2.244-7.484,6.425-13.872,11.614-19.664c0.888-0.989,3.445-1.479,1.814-3.644c-1.499-1.989-2.799,0.011-4.162,0.467
		c-0.757-0.329-0.832,0.034-0.66,0.65l-0.325-0.097c-1.489,0.208-1.947-0.609-1.912-1.92c0.663-0.957,1.323-1.914,1.986-2.87
		c3.732-3.171,7.326-6.528,11.235-9.463c4.628-3.474,10.606-1.607,11.802,3.403c-4.273,2.488-7.234,6.355-10.458,9.948
		c-1.527,0.024-1.999,0.797-1.566,2.211l-0.079,0.082c-3.369,1.421-3.585,4.265-3.307,7.332c0.209,1.62-0.51,3.673,1.966,4.243
		c0.061,3.562-3.199,6.462-2.04,10.242c-0.113,0.589-0.227,1.179-0.34,1.768c-2.566,1.096-1.125,3.318-1.419,5.053l0.004-0.003
		c-1.34-0.126-2.626-0.141-3.084,1.521c-0.604,0.073-1.208,0.147-1.814,0.221C308.239,223.97,306.635,224.015,305.068,225.244z"/>
	<path fill-rule="evenodd" clip-rule="evenodd" fill="#2D191F" d="M247.111,242.572c15.821,1.433,31.494,3.952,47.161,6.508
		c4.255,0.693,8.654,0.581,12.712,2.338c-0.427,0.756-1.153,0.857-1.918,0.879c-0.326,0.304-0.652,0.606-0.978,0.91
		c-3.871-0.117-7.746-3.946-11.609,0.021c-0.619-0.004-1.238-0.007-1.856-0.01c-0.17-1.36-1.193-1.479-2.271-1.968
		c-6.344-2.887-13.291-2.382-19.91-3.573c-6.055-1.09-12.212-2.341-18.468-2.138c-0.95-0.336-1.899-0.671-2.851-1.006
		C247.12,243.88,247.115,243.227,247.111,242.572z"/>
	<path fill-rule="evenodd" clip-rule="evenodd" fill="#2D191F" d="M309.878,251.716c9.363,0.797,18.7,1.85,28.116,2.035
		c9.734,0.192,19.028-1.405,27.831-5.63c-1.404,4.923-5.668,5.158-9.665,6.13c-9.522,2.313-19.229,0.522-28.844,1.334
		c-4.24,0.358-8.957-0.665-13.513-0.676C312.267,254.906,309.687,254.593,309.878,251.716z"/>
	<path fill-rule="evenodd" clip-rule="evenodd" fill="#22151C" d="M236.354,225.531c-8.053-0.859-16.195-1.021-24.1-3.059
		c0.255-3.623,4.387-0.743,5.374-3.085c-1.811-3.006-6.627-3.843-5.783-8.54c3.396,4.164,8.074,6.49,12.678,8.967
		c3.449,1.856,5.856-1.683,8.945-1.482c-1.334,2.484-1.824,4.6,1.96,5.23C236.352,223.715,236.338,224.729,236.354,225.531z
		 M220.303,220.78c-0.136-0.048-0.271-0.096-0.407-0.143c-0.042,0.118-0.147,0.312-0.113,0.342c0.102,0.087,0.26,0.143,0.395,0.138
		C220.222,221.116,220.262,220.898,220.303,220.78z"/>
	<path fill-rule="evenodd" clip-rule="evenodd" fill="#2A1D24" d="M318.574,206.291c-2.476-0.57-1.757-2.623-1.966-4.244
		c1.102-2.443,2.204-4.888,3.307-7.331l0.079-0.082c1.042-0.369,1.548-1.117,1.566-2.211c3.224-3.593,6.185-7.46,10.458-9.948
		c0.763,3.218,2.178,0.769,3.355,0.388c1.516-0.489,2.735-3.321,4.658-0.591c-4.788,3.054-9.679,5.986-13,10.804
		C322.965,196.683,320.871,201.552,318.574,206.291z"/>
	<path fill-rule="evenodd" clip-rule="evenodd" fill="#2D191F" d="M359.18,258.037c-10.79,3.309-21.744,3.855-32.844,1.933
		c1.968-1.658,4.309-0.811,6.466-0.847c8.278-0.138,16.598,0.485,24.727-1.793C357.978,257.204,358.625,257.785,359.18,258.037z"/>
	<path fill-rule="evenodd" clip-rule="evenodd" fill="#BAB3AE" d="M318.574,206.291c2.297-4.739,4.391-9.608,8.458-13.214
		c0.519,0.509,1.038,1.017,1.557,1.525c-6.083,6.175-8.977,14.103-12.055,21.931C315.375,212.753,318.635,209.853,318.574,206.291z"
		/>
	<path fill-rule="evenodd" clip-rule="evenodd" fill="#35262D" d="M308.981,188.536c-0.663,0.956-1.323,1.913-1.986,2.87
		c-2.372,2.131-4.74,4.267-5.854,7.395c-0.79,0.503-1.666,1.279-2.469,0.229c-1.017-1.33-0.607-2.79,0.327-3.95
		c2.474-3.079,4.612-6.464,7.817-8.906C306.964,187.489,307.434,188.506,308.981,188.536z"/>
	<path fill-rule="evenodd" clip-rule="evenodd" fill="#2B1624" d="M266.891,223.987c-1.971-0.092-4.713-0.38-4.944-2.144
		c-0.355-2.708,2.384-3.208,4.673-3.581c2.064-0.337,4.75-3.722,5.543,1.293C269.61,220.087,267.21,220.8,266.891,223.987z"/>
	<path fill-rule="evenodd" clip-rule="evenodd" fill="#2B1624" d="M280.935,196.514c1.265-0.457,2.529-0.915,3.794-1.371
		c0.1,2.231,0.2,4.462,0.302,6.694c-0.354,0.407-0.708,0.813-1.061,1.222c-2.491,0.67-4.027-1.514-6.117-2.046
		c0.03-0.81,0.338-1.466,1.054-1.894C280.71,199.129,280.92,197.896,280.935,196.514z"/>
	<path fill-rule="evenodd" clip-rule="evenodd" fill="#BAB3AE" d="M301.141,198.801c1.114-3.128,3.482-5.264,5.854-7.395
		c-0.035,1.311,0.423,2.128,1.912,1.92c-2.542,2.62-5.084,5.24-7.629,7.86C301.233,200.392,301.187,199.596,301.141,198.801z"/>
	<path fill-rule="evenodd" clip-rule="evenodd" fill="#291522" d="M238.967,177.259c-1.506,0.762-3.127,1.69-4.841,2.391
		c-0.599,0.244-1.444-0.49-1.14-1.095c0.911-1.811,2.732-2.633,4.545-3.185C238.271,175.145,238.934,175.952,238.967,177.259z"/>
	<path fill-rule="evenodd" clip-rule="evenodd" fill="#2D191F" d="M370.743,252.279c-1.587,2.381-3.859,3.626-6.65,4.013
		C365.425,253.487,367.899,252.574,370.743,252.279z"/>
	<path fill-rule="evenodd" clip-rule="evenodd" fill="#2A1D24" d="M345.041,189.51c1.023-2.04,2.469-3.674,4.526-4.724
		C349.501,187.743,348.09,189.41,345.041,189.51z"/>
	<path fill-rule="evenodd" clip-rule="evenodd" fill="#2D191F" d="M371.757,239.653c-1.297,0.298-2.591,0.595-3.886,0.894
		c0.747-2.473,2.02-3.998,4.859-2.691c-0.113,0.76-1.37,0.899-1.03,1.903L371.757,239.653z"/>
	<path fill-rule="evenodd" clip-rule="evenodd" fill="#2D191F" d="M324.426,259.853c-2.482,0.185-4.826-0.271-6.997-1.522
		C319.824,258.545,322.67,256.695,324.426,259.853z"/>
	<path fill-rule="evenodd" clip-rule="evenodd" fill="#2B1624" d="M274.869,212.463c-0.738,0.009-1.307-0.195-1.457-0.937
		c-0.22-1.083,0.254-1.891,1.249-2.231c0.682-0.231,1.189,0.195,1.285,0.942C276.074,211.229,276.029,212.15,274.869,212.463z"/>
	<path fill-rule="evenodd" clip-rule="evenodd" fill="#2A1D24" d="M349.229,182.846c-1.52-0.495-3.039-0.988-4.559-1.482
		c0.438-1.696,1.657-1.801,2.782-1C348.23,180.917,350.721,180.585,349.229,182.846z"/>
	<path fill-rule="evenodd" clip-rule="evenodd" fill="#BAB3AE" d="M314.775,223.354c0.294-1.734-1.147-3.957,1.419-5.053
		C316.004,220.064,317.588,222.326,314.775,223.354z"/>
	<path fill-rule="evenodd" clip-rule="evenodd" fill="#BAB3AE" d="M305.068,225.244c1.566-1.229,3.171-1.274,4.813-0.152
		C308.31,226.164,306.699,226.029,305.068,225.244z"/>
	<path fill-rule="evenodd" clip-rule="evenodd" fill="#35262D" d="M283.756,223.935c1.641-0.108,3.28-0.218,4.921-0.326
		C287.193,226.084,285.526,225.788,283.756,223.935z"/>
	<path fill-rule="evenodd" clip-rule="evenodd" fill="#2D191F" d="M371.771,242.636c-0.606-0.992,1.852-1.996-0.014-2.982
		l-0.057,0.105c0.653,0.938,1.214-0.099,1.823-0.086C375.901,242.414,373.774,242.488,371.771,242.636z"/>
	<path fill-rule="evenodd" clip-rule="evenodd" fill="#291522" d="M274.886,159.013c0.208,0.345,0.69,0.812,0.759,1.334
		c0.111,0.831-0.619,0.962-1.261,0.911c-0.759-0.061-1.023-0.637-1.021-1.302C273.366,159.168,273.878,158.926,274.886,159.013z"/>
	<path fill-rule="evenodd" clip-rule="evenodd" fill="#35262D" d="M242.263,226.21c-1.305-0.137-2.606-0.273-3.911-0.41
		C239.918,223.436,241.23,223.487,242.263,226.21z"/>
	<path fill-rule="evenodd" clip-rule="evenodd" fill="#22151C" d="M233.424,218.377c0.443-1.535,1.75-2.254,2.928-3.095
		C236.704,217.57,235.86,218.728,233.424,218.377z"/>
	<path fill-rule="evenodd" clip-rule="evenodd" fill="#22151C" d="M315.747,258.222c-1.942,0.099-3.894,0.454-5.8-0.249
		C311.938,256.72,313.883,256.555,315.747,258.222z"/>
	<path fill-rule="evenodd" clip-rule="evenodd" fill="#291522" d="M233.724,184.794c0,0,0.093-0.095,0.087-0.091
		c1.365-0.027,2.814-0.295,3.95,1.136C235.739,187.275,234.796,185.815,233.724,184.794z"/>
	<path fill-rule="evenodd" clip-rule="evenodd" fill="#4E4043" d="M361.101,242.529c-0.927,0.721-1.957,0.615-3.005,0.386
		C358.929,241.468,359.938,241.411,361.101,242.529z"/>
	<path fill-rule="evenodd" clip-rule="evenodd" fill="#291522" d="M285.69,185.966c-2.312-1.417-0.364-2.819,0.018-4.226
		C287.497,183.157,285.289,184.557,285.69,185.966z"/>
	<path fill-rule="evenodd" clip-rule="evenodd" fill="#291522" d="M290.915,175.945c0.447,0.306,1.008,0.482,1.082,0.782
		c0.205,0.813-0.471,1.039-1.076,0.953c-0.319-0.044-0.793-0.496-0.806-0.784C290.1,176.617,290.583,176.313,290.915,175.945z"/>
	<path fill-rule="evenodd" clip-rule="evenodd" fill="#35262D" d="M251.011,227.46c-1.042,0.34-2.052,0.448-2.922-0.414
		C249.255,225.832,250.24,225.891,251.011,227.46z"/>
	<path fill-rule="evenodd" clip-rule="evenodd" fill="#BAB3AE" d="M311.695,224.871c0.458-1.661,1.744-1.646,3.084-1.521
		C314.223,224.813,313.058,225.043,311.695,224.871z"/>
	<path fill-rule="evenodd" clip-rule="evenodd" fill="#22151C" d="M305.931,257.177c-0.917-0.057-1.834-0.113-2.751-0.171
		c0.898-1.113,2.149-0.828,3.317-0.798c0.506,0.013,0.742,0.347,0.283,0.747C306.584,257.128,306.22,257.109,305.931,257.177z"/>
	<path fill-rule="evenodd" clip-rule="evenodd" fill="#4E4043" d="M296.488,235.223c-0.8,0.411-1.457,0.172-2.023-0.457
		C295.443,233.574,296.03,234.112,296.488,235.223z"/>
	<path fill-rule="evenodd" clip-rule="evenodd" fill="#4E4043" d="M252.885,220.392c0.628-0.548,1.321-0.589,2.059-0.254
		C254.383,221.247,253.734,221.629,252.885,220.392z"/>
	<path fill-rule="evenodd" clip-rule="evenodd" fill="#4E4043" d="M329.35,240.967c-0.761,0.354-1.437,0.219-2.04-0.349
		C328.212,239.44,328.844,239.826,329.35,240.967z"/>
	<path fill-rule="evenodd" clip-rule="evenodd" fill="#35262D" d="M256.807,228.299c-0.723,0.379-1.361,0.186-1.955-0.293
		C255.682,226.898,256.307,227.187,256.807,228.299z"/>
	<path fill-rule="evenodd" clip-rule="evenodd" fill="#4E4043" d="M335.074,241.873c-0.765,0.557-1.392,0.283-1.961-0.327
		C333.953,240.54,334.572,240.852,335.074,241.873z"/>
	<path fill-rule="evenodd" clip-rule="evenodd" fill="#4E4043" d="M343.768,242.817c-0.734,0.485-1.382,0.346-1.963-0.271
		C342.608,241.546,343.238,241.811,343.768,242.817z"/>
	<path fill-rule="evenodd" clip-rule="evenodd" fill="#2D191F" d="M367.845,246.396c0.619-0.381,1.236-0.764,1.855-1.146
		C369.563,246.413,369.703,248.022,367.845,246.396z"/>
	<path fill-rule="evenodd" clip-rule="evenodd" fill="#F9F8F8" d="M373.523,239.673c-0.609-0.013-1.17,1.023-1.823,0.086
		c-0.34-1.004,0.917-1.144,1.03-1.903C373.936,238.051,373.744,238.855,373.523,239.673z"/>
	<path fill-rule="evenodd" clip-rule="evenodd" fill="#2D191F" d="M377.542,244.567c-0.328,0.627-0.657,1.253-0.987,1.879
		C376.883,245.82,377.214,245.194,377.542,244.567z"/>
	<path fill-rule="evenodd" clip-rule="evenodd" fill="#2D191F" d="M378.453,242.626c-0.098,0.74-0.107,1.521-0.905,1.934
		C377.85,243.915,378.151,243.271,378.453,242.626z"/>
	<path fill-rule="evenodd" clip-rule="evenodd" fill="#35262D" d="M309.232,193.423c-0.172-0.616-0.097-0.979,0.66-0.65
		C309.674,192.99,309.453,193.207,309.232,193.423z"/>
	<path fill-rule="evenodd" clip-rule="evenodd" fill="#22151C" d="M304.089,253.207c0.325-0.304,0.651-0.606,0.978-0.91
		C304.74,252.601,304.414,252.903,304.089,253.207z"/>
	<path fill-rule="evenodd" clip-rule="evenodd" fill="#2D191F" d="M376.526,246.485c-0.306,0.315-0.613,0.631-0.919,0.946
		C375.913,247.115,376.221,246.801,376.526,246.485z"/>
	<path fill-rule="evenodd" clip-rule="evenodd" fill="#22151C" d="M51.806,240.496c14.09-4.402,24.641-13.835,34.492-24.267
		c3.404-3.605,6.834-7.188,10.251-10.78c0.818,1.109,0.497,2.071-0.357,2.995c-10.36,11.212-20.213,22.981-34.182,30.128
		c-2.538,1.299-5.493,1.5-7.802,3.48C53.147,242.963,52.317,241.515,51.806,240.496z"/>
	<path fill-rule="evenodd" clip-rule="evenodd" fill="#2A1D24" d="M99.232,327.977c16.24-1.46,25.547-11.345,31.402-25.646
		c-1.699-1.507-3.894-0.085-5.448-1.304c1.613-2.084,3.961-2.031,5.41-0.567c1.286,1.3,1.636,3.3,0.518,5.68
		c-4.575,9.733-10.892,17.492-21.193,21.559c-2.677,1.057-5.615,0.938-8.207,2.445C99.831,331.239,99.255,329.648,99.232,327.977z"
		/>
	<path fill-rule="evenodd" clip-rule="evenodd" fill="#2A1D24" d="M96.377,233.058c-9.274,5.689-18.216,11.749-25.533,20.003
		c-2.305,2.6-3.163,6.255-6.307,8.142c0.916-6.798,5.736-10.909,10.361-15.191c3.845-3.561,7.659-7.154,12.121-9.944
		C89.868,234.286,92.678,232.252,96.377,233.058z"/>
	<path fill-rule="evenodd" clip-rule="evenodd" fill="#2A1D24" d="M123.405,300.481c-13.248-4.009-19.634-14.406-15.653-25.486
		c0.864-2.404,2.018-4.623,4.053-6.272c0.296,2.168-0.501,4.148-1.213,6.09c-3.285,8.953-0.477,16.6,7.893,21.443
		C120.365,297.345,122.688,298.002,123.405,300.481z"/>
	<path fill-rule="evenodd" clip-rule="evenodd" fill="#2E1E29" d="M25.922,230.99c4.933,9.756,9.573,11.859,22.97,10.413
		c-1.154,4.418-4.834,2.735-7.641,3.165c-7.499,0.312-11.896-4.443-15.845-9.818C24.514,233.536,24.453,232.064,25.922,230.99z"/>
	<path fill-rule="evenodd" clip-rule="evenodd" fill="#22151C" d="M105.176,198.941c2.29,0.288,3.632,0.77,2.107,3.638
		c-1.641,3.086-2.866,6.452-3.833,9.823c-1.536,5.358-0.506,10.104,4.359,13.5c-0.917,0.111-1.836,0.223-2.753,0.334
		c-6.264-4.859-5.208-10.969-2.985-17.303C103.227,205.642,105.276,202.623,105.176,198.941z"/>
	<path fill-rule="evenodd" clip-rule="evenodd" fill="#2A1D24" d="M61.187,271.609c-1.793,6.685-1.684,13.5-1.402,20.327
		c-0.406-0.238-0.984-0.376-1.191-0.731C56.458,287.556,58.132,275.146,61.187,271.609z"/>
	<path fill-rule="evenodd" clip-rule="evenodd" fill="#2A1D24" d="M105.057,226.236c0.917-0.111,1.836-0.223,2.753-0.334
		c0.873,0.778,2.913-0.595,2.992,1.454c0.059,1.542-1.477,1.366-2.473,1.673c-3.34,1.027-6.686,2.032-10.03,3.046
		c0.139-1.815,0.738-2.833,2.942-2.623C103.313,229.649,104.838,228.559,105.057,226.236z"/>
	<path fill-rule="evenodd" clip-rule="evenodd" fill="#22151C" d="M96.792,205.136c1.584-2.188,3.227-4.335,4.736-6.573
		c1.585-2.35,2.577-0.602,3.709,0.422c-2.289,0.067-2.771,2.214-4.079,3.436C99.922,203.572,99.261,205.898,96.792,205.136z"/>
	<path fill-rule="evenodd" clip-rule="evenodd" fill="#2A1D24" d="M96.006,223.441c-1.869-0.631-0.093-4.626-3.522-3.815
		c0.123-1.605,1.044-2.737,2.431-1.632C96.546,219.297,98.538,221.066,96.006,223.441z"/>
	<path fill-rule="evenodd" clip-rule="evenodd" fill="#22151C" d="M72.19,242.614c0.404-2.806,2.129-3.945,4.842-3.837
		C75.806,240.544,74.658,242.412,72.19,242.614z"/>
	<path fill-rule="evenodd" clip-rule="evenodd" fill="#2A1D24" d="M86.673,325.757c1.354,0.42,2.708,0.84,4.061,1.259
		C88.303,330.073,87.411,328.162,86.673,325.757z"/>
	<path fill-rule="evenodd" clip-rule="evenodd" fill="#2A1D24" d="M60.353,293.841c0.26,1.285,0.519,2.569,0.778,3.854
		C58.881,296.812,57.288,295.797,60.353,293.841z"/>
	<path fill-rule="evenodd" clip-rule="evenodd" fill="#2A1D24" d="M64.376,261.957c0.215,1.5-0.916,2.133-1.86,2.885
		C62.5,263.471,62.481,262.098,64.376,261.957z"/>
	<path fill-rule="evenodd" clip-rule="evenodd" fill="#2A1D24" d="M61.373,298.542c0.124,0.344,0.248,0.688,0.371,1.032
		c-0.387-0.12-0.773-0.239-1.16-0.358C60.847,298.991,61.11,298.767,61.373,298.542z"/>
	<path fill-rule="evenodd" clip-rule="evenodd" fill="#2A1D24" d="M83.149,229.228c-0.394,0.388-0.788,0.774-1.182,1.16
		C82.361,230.002,82.755,229.615,83.149,229.228z"/>
	<path fill-rule="evenodd" clip-rule="evenodd" fill="#2A1D24" d="M87.903,224.37c-0.374,0.38-0.746,0.76-1.119,1.139
		C87.157,225.13,87.529,224.75,87.903,224.37z"/>
	<path fill-rule="evenodd" clip-rule="evenodd" fill="#22151C" d="M71.242,243.565c0.308-0.308,0.615-0.615,0.923-0.923
		C71.857,242.95,71.55,243.258,71.242,243.565z"/>
	<path fill-rule="evenodd" clip-rule="evenodd" fill="#22151C" d="M69.381,244.729c0.27-0.099,0.548-0.146,0.835-0.146
		C70.013,245.06,69.761,245.258,69.381,244.729z"/>
	<path fill-rule="evenodd" clip-rule="evenodd" fill="#22151C" d="M70.277,244.531c0.303-0.304,0.606-0.606,0.908-0.908
		C70.882,243.926,70.58,244.228,70.277,244.531z"/>
	<path fill-rule="evenodd" clip-rule="evenodd" fill="#230E1B" d="M71.563,217.936c-0.882,0.767-1.865,1.274-3.075,1.202
		c-6.219-4.659-6.195-5.316-1.935-12.134c2.047-3.277,5.068-5.206,8.122-7.122c5.557-3.486,6.053-5.899,1.801-10.433
		c-0.538-0.574-0.959-1.257-1.435-1.889c1.277-2.654,3.738-1.771,5.841-1.955c1.999,0.621,3.997,1.241,5.996,1.861
		c0.274-0.022,0.529,0.037,0.764,0.181c0.082,1.284,0.798,1.832,2.045,1.767l-0.04-0.041c0.063,2.21,1.607,2.041,3.111,1.938
		c0.57,0.636,1.141,1.273,1.711,1.909c-0.942,1.588-1.167,3.313-0.967,5.116c-1.173,2.205-2.431,4.343-4.596,5.755
		c-1.441-0.204-2.322,0.744-3.393,1.481c-4.983,3.434-8.648,8.578-14.364,11.048c-0.418,0.096-1.062,0.123-0.784,0.732
		C70.508,217.663,71.148,217.748,71.563,217.936z M69.848,211.993c4.957-2.081,8.083-4.981,10.993-9.27
		C74.137,204.726,71.785,206.658,69.848,211.993z"/>
	<path fill-rule="evenodd" clip-rule="evenodd" fill="#2A1D24" d="M86.879,187.466c-1.999-0.62-3.997-1.24-5.996-1.861
		c-17.656-15.094-43.709-12.243-53.188,11.285c-0.597,1.482-0.914,3.188-3.057,3.149c4.611-20.969,28.472-32.387,47.417-22.565
		C77.354,180.22,83.103,182.415,86.879,187.466z"/>
	<path fill-rule="evenodd" clip-rule="evenodd" fill="#22151C" d="M84.607,160.814c-4.521-3.778-7.236-9.093-11.869-12.943
		c-12.555-10.432-26.709-10.49-39.202-4.105c-0.236-2.32,1.462-2.828,3.135-3.544c16.278-6.974,33.122-1.641,43.674,12.272
		c0.654,0.862,1.639,1.475,2.47,2.203c0.37,0.92,1.016,1.564,1.936,1.934c0.015,0.646,0.029,1.29,0.044,1.935
		C84.732,159.316,84.669,160.065,84.607,160.814z"/>
	<path fill-rule="evenodd" clip-rule="evenodd" fill="#2A1D24" d="M72.191,188.28c-16.335-5.449-30.814,2.996-39.752,15.845
		c-0.909,1.306-1.793,2.63-2.688,3.946c-0.659-2.645,0.74-4.663,2.181-6.555c5.417-7.111,12.348-12.438,20.543-15.817
		c5.422-2.236,11.336-1.043,17.035-0.741C71.199,185.048,72.387,186.29,72.191,188.28z"/>
	<path fill-rule="evenodd" clip-rule="evenodd" fill="#2A1D24" d="M75.042,187.56c0.476,0.632,0.896,1.315,1.435,1.889
		c4.252,4.534,3.755,6.947-1.801,10.433c-3.053,1.916-6.074,3.845-8.122,7.122c-4.26,6.817-4.284,7.475,1.935,12.134
		c-2.295,0.816-4.52,0.727-6.053-1.319c-1.69-2.255-1.407-4.745-0.271-7.254c2.52-5.561,6.759-9.514,11.744-12.773
		c4.706-3.078,4.749-3.286,0.77-7.369c-0.553-0.568-1.051-1.191-1.574-1.788C73.498,187.82,74.212,187.586,75.042,187.56z"/>
	<path fill-rule="evenodd" clip-rule="evenodd" fill="#281423" d="M84.75,156.631c-0.92-0.37-1.566-1.013-1.936-1.934
		c0.792-0.021,1.511-0.188,1.928-0.96c0.646,0.963,1.292,1.927,1.937,2.892C86.037,156.629,85.394,156.63,84.75,156.631z"/>
	<path fill-rule="evenodd" clip-rule="evenodd" fill="#281423" d="M183.602,98.2c0,0-0.078,0.051-0.078,0.052
		c-0.515-0.502-1.029-1.006-1.544-1.51c0.209-0.153,0.48-0.48,0.616-0.431C183.467,96.625,183.478,97.453,183.602,98.2z"/>
	<path fill-rule="evenodd" clip-rule="evenodd" fill="#E2E1DE" d="M252.843,147.815c0.014-1.574,0.028-3.148,0.042-4.722
		c0.253-1.491,0.872-3.054-0.817-4.164c-0.132-0.542-0.263-1.083-0.395-1.625c-0.109-0.621-0.293-1.239-0.319-1.863
		c-0.13-2.976,0.937-6.036,3.864-6.208c3.363-0.199,3.042,3.58,3.276,5.811C259.039,140.237,256.616,144.391,252.843,147.815z"/>
	<path fill-rule="evenodd" clip-rule="evenodd" fill="#2B1624" d="M247.089,128.579c1.403-2.322,3.589-4.005,4.818-6.545
		c3.754-7.765,0.158-13.645-8.6-13.716c-1.268-0.01-2.536-0.001-4.145-0.001c3.067-2.28,7.646-2.739,10.709-0.977
		c3.148,1.812,6.729,3.413,5.964,8.227c-0.273,1.722-0.033,3.526-0.027,5.292c-0.699,3.333-4.209,4.765-5.313,7.961
		C250.056,130.096,248.293,128.384,247.089,128.579z"/>
	<path fill-rule="evenodd" clip-rule="evenodd" fill="#2B1624" d="M260.64,123.773c4.205,2.643,3.867,6.992,4.084,11.086
		c0.091,1.748-0.145,3.513-0.231,5.27c-2.657,0.236-3.887,0.074-3.349-3.587C261.75,132.424,260.239,128.076,260.64,123.773z"/>
	<path fill-rule="evenodd" clip-rule="evenodd" fill="#281423" d="M237.429,146.91c0.474-3.104-3.401-3.28-3.873-5.748
		c0.421-0.771,1.143-0.943,1.937-0.97c1.38,0.601,2.316,2.208,4.132,1.821c0.263-0.026,0.496,0.042,0.702,0.208
		c0.126,1.425,1.026,1.928,2.312,1.825c2.695-0.215,1.614,1.581,1.554,2.841C241.938,146.894,239.683,146.901,237.429,146.91z"/>
	<path fill-rule="evenodd" clip-rule="evenodd" fill="#E2E1DE" d="M237.429,146.91c2.254-0.009,4.509-0.016,6.763-0.023
		c1.516,1.072,2.396-1.621,3.896-0.657c-2.973,3.372-8.082,3.846-11.668,1.083C236.755,147.178,237.091,147.044,237.429,146.91z"/>
	<path fill-rule="evenodd" clip-rule="evenodd" fill="#2B1624" d="M237.481,134.477c3.32,0.173,5.255-2.346,7.661-3.943
		c0.219,3.318-2.074,4.801-4.535,6.102C238.276,137.869,237.331,136.925,237.481,134.477z"/>
	<path fill-rule="evenodd" clip-rule="evenodd" fill="#BAB3AE" d="M240.326,142.221c-0.206-0.165-0.439-0.234-0.702-0.208
		c-1.172-3.49,2.224-3.13,3.938-4.777c0.931,1.467,2.122,3.013,1.284,4.317C243.948,142.951,241.866,141.967,240.326,142.221z"/>
	<path fill-rule="evenodd" clip-rule="evenodd" fill="#281423" d="M251.673,137.304c0.132,0.542,0.263,1.083,0.395,1.625
		c-0.257,1.776-1.137,2.592-2.918,1.756c-0.968-0.454-2.367-0.965-1.722-2.332C248.304,136.504,250.226,137.587,251.673,137.304z"/>
	<path fill-rule="evenodd" clip-rule="evenodd" fill="#2B1624" d="M235.492,140.192c-0.794,0.027-1.516,0.199-1.937,0.97
		c-1.245-0.998-0.757-1.887,0.354-2.391C235.205,138.183,235.322,139.307,235.492,140.192z"/>
	<path fill-rule="evenodd" clip-rule="evenodd" fill="#E2E1DE" d="M235.391,147.006c-1.44,0.034-2.74-0.123-2.776-2.019
		C234.075,144.926,234.895,145.743,235.391,147.006z"/>
	<path fill-rule="evenodd" clip-rule="evenodd" fill="#E2E1DE" d="M248.107,151.872c-0.041-1.992,1.352-2.036,2.772-2.04
		C250.301,150.981,249.315,151.577,248.107,151.872z"/>
	<path fill-rule="evenodd" clip-rule="evenodd" fill="#E2E1DE" d="M245.141,153.618c0.182-1.973,1.589-1.864,2.991-1.764
		C247.466,153.004,246.43,153.526,245.141,153.618z"/>
	<path fill-rule="evenodd" clip-rule="evenodd" fill="#E2E1DE" d="M241.233,155.141c0.591-1.767,1.993-1.388,3.304-1.248
		C243.714,155.043,242.572,155.35,241.233,155.141z"/>
	<path fill-rule="evenodd" clip-rule="evenodd" fill="#35262D" d="M178.434,129.555c-3.081,6.371-6.901,12.221-12.597,16.557
		c-2.769,2.107-5.841,3.532-8.56-0.294c3.426-0.713,7.911,1.367,9.697-3.674c0.287-0.305,0.575-0.61,0.862-0.916
		c0,0,0.077-0.072,0.078-0.072c2.703-1.847,4.353-4.542,5.767-7.373C174.722,131.697,175.982,129.994,178.434,129.555z"/>
	<path fill-rule="evenodd" clip-rule="evenodd" fill="#230E1B" d="M249.975,245.539c6.256-0.203,12.413,1.048,18.468,2.138
		c6.619,1.191,13.566,0.687,19.91,3.573c1.077,0.489,2.101,0.607,2.271,1.968c-8.337-1.093-16.723-1.916-24.989-3.396
		c-3.799-0.681-7.7,0.469-11.369-1.115C252.567,247.974,250.342,248.042,249.975,245.539z"/>
	<path fill-rule="evenodd" clip-rule="evenodd" fill="#2B1624" d="M227.752,113.153c1.987-1.763,3.996-3.489,6.765-3.893l0.03,0.035
		c-1.125,2.594-3.186,4.06-5.826,4.823C228.397,113.797,228.075,113.475,227.752,113.153z"/>
	<path fill-rule="evenodd" clip-rule="evenodd" fill="#2E1E29" d="M227.752,113.153c0.323,0.322,0.646,0.644,0.969,0.966
		c-0.41,0.764-1.127,0.928-1.902,0.976c0,0.001-0.04-0.039-0.04-0.039C226.825,114.28,226.991,113.564,227.752,113.153z"/>
	<path fill-rule="evenodd" clip-rule="evenodd" fill="#2B1624" d="M234.517,109.261c0.342-0.236,0.684-0.473,1.024-0.708
		c0.082,0.12,0.163,0.24,0.244,0.36c-0.413,0.127-0.827,0.255-1.24,0.382C234.547,109.296,234.517,109.261,234.517,109.261z"/>
	<path fill-rule="evenodd" clip-rule="evenodd" fill="#2A1D24" d="M143.621,146.989c-3.738-5.577-8.902-8-15.567-6.883
		c-3.031,0.509-5.14,1.483-4.844,5.544c0.312,4.27,0.208,8.858-3.478,12.188c-0.736-2.96,0.606-5.656,1.088-8.461
		c0.188-1.095,0.463-2.177,0.744-3.254c0.537-2.054-2.635-4.637,1.357-6.308c3.885-1.625,7.598-3.264,11.809-1.717
		c2.39,0.877,4.675,2.042,7.008,3.077c0.944,1.638,2.232,2.933,3.876,3.87c-0.001,0.614-0.003,1.229-0.005,1.845
		C144.947,146.924,144.284,146.957,143.621,146.989z"/>
	<path fill-rule="evenodd" clip-rule="evenodd" fill="#2A1D24" d="M115.59,166.297c0.353,3.945-2.693,6.301-4.417,9.246
		c-1.453,2.482-3.292,4.735-4.9,7.128c-1.253,1.865-2.504,2.253-4.183,0.443c-3.802-4.101-7.929-7.928-10.601-12.951
		c2.38,0.166,3.61,1.917,4.698,3.655c1.64,2.619,4.093,4.435,6.135,6.65c1.231,1.336,2.521,1.45,3.451-0.266
		c1.65-3.044,4.519-5.41,5.064-9.066l0.011-0.017c0.772-0.414,0.939-1.13,0.957-1.92l0.01-0.012
		C113.075,168.224,114.333,167.261,115.59,166.297z"/>
	<path fill-rule="evenodd" clip-rule="evenodd" fill="#281423" d="M145.616,145.046c-1.645-0.937-2.933-2.232-3.877-3.87
		c0.687-1.123,1.819-0.948,2.877-0.988c0.661,1.289,1.322,2.578,1.984,3.866c0,0-0.04,0.055-0.04,0.054
		C146.246,144.421,145.93,144.733,145.616,145.046z"/>
	<path fill-rule="evenodd" clip-rule="evenodd" fill="#2A1D24" d="M119.798,157.764c-0.134,1.896-0.461,3.713-2.064,5.005
		C117.713,160.808,116.946,158.539,119.798,157.764z"/>
	<path fill-rule="evenodd" clip-rule="evenodd" fill="#281423" d="M131.143,132.463c0.691-1.126,1.828-0.922,2.881-0.965
		C133.34,132.645,132.204,132.44,131.143,132.463z"/>
	<path fill-rule="evenodd" clip-rule="evenodd" fill="#2A1D24" d="M117.632,163.385c0.165,0.746-0.26,1.067-0.892,1.24
		C117.037,164.212,117.334,163.798,117.632,163.385z"/>
	<path fill-rule="evenodd" clip-rule="evenodd" fill="#2E1E29" d="M164.625,140.11c-0.049,1.083-0.713,1.676-1.728,1.817
		c-1.161,0.162-1.714-0.518-1.76-1.616c-0.044-1.048,0.311-1.867,1.523-1.859C163.709,138.458,164.385,139.025,164.625,140.11z"/>
	<path fill-rule="evenodd" clip-rule="evenodd" fill="#2B1624" d="M150.439,147.012c0.653-0.017,1.307-0.034,1.959-0.051
		c0.331,0.009,0.663,0.018,0.993,0.025c0.024,0.908,0.05,1.817,0.075,2.725C151.268,150.145,150.299,149.2,150.439,147.012z"/>
	<path fill-rule="evenodd" clip-rule="evenodd" fill="#35262D" d="M153.466,149.711c-0.025-0.908-0.051-1.816-0.075-2.725
		c0.432-0.797,1.196-0.902,1.986-0.954c0.888,1.631-0.721,2.557-1.08,3.835C154.018,149.831,153.74,149.779,153.466,149.711z"/>
	<path fill-rule="evenodd" clip-rule="evenodd" fill="#2E1E29" d="M167.836,141.228c-0.288,0.305-0.575,0.611-0.862,0.916
		C167.262,141.839,167.549,141.533,167.836,141.228z"/>
	<path fill-rule="evenodd" clip-rule="evenodd" fill="#2B1624" d="M84.75,156.631c0.643-0.001,1.286-0.002,1.929-0.002
		c0.945,0.342,1.89,0.685,2.834,1.027c0.012,0.621,0.024,1.242,0.036,1.862c-1.671,0.111-3.293-0.021-4.755-0.952
		C84.78,157.921,84.765,157.276,84.75,156.631z"/>
	<path fill-rule="evenodd" clip-rule="evenodd" fill="#FDFDFD" d="M68.663,243.46c-0.129-0.13-0.236-0.237-0.344-0.345
		c0.214-0.107,0.421-0.252,0.649-0.302c0.079-0.019,0.21,0.194,0.317,0.302C69.075,243.231,68.865,243.348,68.663,243.46z"/>
	<path fill-rule="evenodd" clip-rule="evenodd" fill="#281423" d="M84.795,158.565c1.462,0.931,3.084,1.063,4.755,0.952
		c2.249,2.922,2.703,7.226,6.75,8.762c0.315,0.318,0.631,0.637,0.946,0.956c0.102,1.331,0.713,2.319,1.941,2.894
		c2.767,5.719,4.426,6.027,8.503,1.681c0.935-0.997,1.309-2.724,3.149-2.673c-0.546,3.656-3.414,6.022-5.064,9.066
		c-0.931,1.716-2.22,1.602-3.451,0.266c-2.042-2.216-4.496-4.032-6.135-6.65c-1.088-1.737-2.318-3.489-4.698-3.655
		c-2.742-2.788-4.929-5.982-6.883-9.349C84.669,160.065,84.732,159.316,84.795,158.565z"/>
	<path fill-rule="evenodd" clip-rule="evenodd" fill="#281423" d="M111.806,169.199c-0.017,0.791-0.184,1.507-0.957,1.92
		C110.855,170.323,111.023,169.608,111.806,169.199z"/>
	<path fill-rule="evenodd" clip-rule="evenodd" fill="#2A1D24" d="M158.674,160.355c0.807,0.039,1.613,0.078,2.419,0.117
		c-0.675,0.721-1.35,1.441-2.025,2.162c-5.757-1.168-10.307,1.452-14.354,4.963c-5.877,5.097-10.492,11.249-13.205,18.584
		c-1.392,3.765-3.769,5.216-8.083,4.998c5.378-13.587,15.933-23.913,20.5-37.454c4.37,2.408-0.759,4.499-0.227,6.777
		c-0.756,1.204-1.583,2.372-2.251,3.624c-0.727,1.362-0.066,2.607,1.288,1.892c4.304-2.273,8.404-4.933,12.583-7.443
		c0.382-0.068,0.765-0.135,1.147-0.203l-0.059-0.061c0.355,0.373,0.711,0.746,1.066,1.118c0.585-0.001,1.018,0.199,1.108,0.845
		c-0.447,0.122-0.893,0.244-1.339,0.364c0.099,0.162,0.197,0.323,0.296,0.483C157.916,160.866,158.295,160.61,158.674,160.355z
		 M140.443,167.98c-0.27-0.115-0.597-0.378-0.792-0.302c-0.191,0.075-0.249,0.494-0.365,0.763c0.269,0.114,0.597,0.379,0.789,0.303
		C140.269,168.666,140.327,168.25,140.443,167.98z"/>
	<path fill-rule="evenodd" clip-rule="evenodd" fill="#2B1624" d="M155.318,158.575c-4.179,2.51-8.278,5.169-12.583,7.443
		c-1.354,0.715-2.014-0.53-1.288-1.892c0.668-1.252,1.495-2.42,2.251-3.624c2.861-0.98,7.745,0.624,6.581-5.455
		c-0.28-1.461,0.229-1.559,4.32,0.32l0.008,0.01c-0.209,0.928-0.174,1.744,0.938,2.073c0,0-0.069-0.063-0.069-0.063
		C155.423,157.783,155.371,158.18,155.318,158.575z"/>
	<path fill-rule="evenodd" clip-rule="evenodd" fill="#2B1624" d="M145.615,145.046c0.315-0.313,0.63-0.625,0.945-0.938
		c-0.015,1.031,0.235,2.152-0.95,2.784C145.612,146.276,145.614,145.661,145.615,145.046z"/>
	<path fill-rule="evenodd" clip-rule="evenodd" fill="#281423" d="M159.068,162.634c0.675-0.721,1.35-1.441,2.025-2.162
		c1.184-0.66,2.452-0.433,3.707-0.354c4.201,2.313,5.582-0.578,6.835-3.704c0.938-0.916,1.874-1.832,2.811-2.747
		c1.65,0.158,2.727-0.859,3.61-1.981c2.262-2.874,3.644-2.542,5.242,0.759c1.29,2.664,3.146,5.27,6.792,5.143l-0.008-0.005
		c0.393,0.277,0.785,0.554,1.177,0.831l-0.063-0.058c1.485,3.828,4.564,5.238,8.595,3.938c2.22,1.808,4.943,0.615,7.421,1.226
		c0.396,2.095-1.451,2.118-2.554,2.807c-3.857,0.051-5.731,2.461-6.848,5.768l0.001-0.002c-2.042,0.685-4.633,2.933-4.83-1.699
		c-0.004-0.083-0.557-0.141-0.854-0.211c0.07-0.649,0.141-1.298,0.21-1.947c2.486-3.134,2.135-3.883-2.267-4.84
		c-1.229-0.546-2.384-1.384-3.854-0.966c-5.588,1.146-10.014,7.503-8.189,11.764c-1.022,4.044-1.755,8.024-0.73,12.278
		c0.967,4.009-7.656,14.293-11.569,14.242c-3.469-0.045-5.12-5.362-2.667-9.284c2.993-4.787,5.03-9.945,6.664-15.301
		c0.279-2.149-0.466-3.937-2.488-4.666c-2.062-0.744-3.683,0.667-5.059,1.985c-8.422,8.073-12.265,18.278-13.627,29.613l0.022-0.019
		c-1.46-0.042-2.896-0.047-2.915,2.006c-4.775,1.786-6.822,0.363-6.362-4.822c0.943-10.629,6.829-18.729,13.93-26.1
		c1.654-1.716,3.39-3.7,5.497-4.567C164.268,167.276,161.961,165.078,159.068,162.634z M178.227,162.221
		c2.557,0.166,3.815-1.254,4.041-3.589c0.123-1.266-0.288-2.384-1.854-1.045c-3.811-0.008-5.09,3.838-7.978,5.289
		c-1.042,0.523-3.537,1.004-2.355,2.609c0.927,1.26,1.237,4.42,4.276,3.248c4.234-0.431,3.725-3.695,3.908-6.545L178.227,162.221z"
		/>
	<path fill-rule="evenodd" clip-rule="evenodd" fill="#230E1B" d="M211.846,210.848c-0.844,4.697,3.973,5.534,5.783,8.54
		c-0.987,2.342-5.119-0.538-5.374,3.085c-6.423-0.354-12.845-0.708-19.268-1.063c-1.905-1.396-3.85-1.31-5.823-0.155
		c-4.467-0.102-8.953,0.224-13.39-0.581c-0.803-1.406-2.183-1.071-3.409-1.077c-6.834-0.026-13.668-0.029-20.502-0.014
		c-1.233,0.003-2.606-0.286-3.383,1.134c-8.466,0.272-16.709,2.118-25.012,3.539c0.322-0.962,0.644-1.925,0.966-2.887
		c3.114-0.289,6.617,0.594,8.677-2.877c0.174-0.294,0.348-0.589,0.522-0.884c4.63,1.309,8.378-0.633,11.934-3.254
		c0.929-0.685,1.354-2.312,3.021-1.573c0.159,2.393-2.709,3.041-3.064,5.169c8.121,1.272,46.266,0.774,47.86-0.611
		c-7.154-2.015-7.154-2.015-8.113-3.714c0.56-0.099,1.12-0.197,1.68-0.296c3.958,1.375,7.479,0.18,10.7-2.042
		c3.022-2.084,5.889-4.394,8.825-6.604c0.032,0.407,0.062,0.813,0.094,1.22c0.083,1.952,1.357,3.01,2.899,3.867
		c1.234,1.266,2.52,2.313,4.365,1.063L211.846,210.848z M208.169,215.991c-3.48-5.466-3.48-5.466-7.587-0.378
		C203.062,215.737,205.326,215.85,208.169,215.991z"/>
	<path fill-rule="evenodd" clip-rule="evenodd" fill="#2B1624" d="M183.271,213.624c0.959,1.699,0.959,1.699,8.113,3.714
		c-1.594,1.386-39.739,1.884-47.86,0.611c0.355-2.128,3.224-2.776,3.064-5.169c0.612-0.68,1.224-1.357,1.836-2.037
		c2.001-0.479,3.602-0.597,5.644,0.894c4.47,3.262,11.573,0.806,12.734-3.92c0,0-0.042,0.043-0.042,0.043
		c4.214-0.377,6.618-2.511,6.693-6.902l-0.036,0.025c4.16,0.254,4.563-4.783,7.938-5.632l0.057,0.056
		c-0.836,2.503-1.209,5.067-0.999,7.706c-5.499-2.042-4.246,1.963-4.296,4.798c-3.067,0.768-4.5,3.31-6.926,5.884
		c3.068,0,5.351,0,7.633,0c3.029,1.904,3.196-3.419,5.9-2.336c0,0,0.022-0.02,0.022-0.02
		C182.414,212.216,182.398,213.021,183.271,213.624z"/>
	<path fill-rule="evenodd" clip-rule="evenodd" fill="#2B1624" d="M192.861,130.518c6.875-0.056,11.716,3.383,11.763,8.358
		c0.054,5.525-3.333,9.15-8.649,9.261c-4.454,0.093-12.411-5.314-12.445-8.459C183.48,135.204,188.216,130.556,192.861,130.518z"/>
	<path fill-rule="evenodd" clip-rule="evenodd" fill="#22151C" d="M230.812,161.602c-4.101,5.877-7.767,11.743-8.752,19.277
		c-0.405,3.09-4.106,5.951-6.715,8.5c-3.469,3.389-6.061,7.787-10.777,9.81c-0.031-1.215,0.619-2.075,1.406-2.918
		c4.009-4.296,7.961-8.648,11.998-12.919c2.005-2.12,3.592-4.301,2.588-8.111c-0.725,1.297-1.01,2.275-1.649,2.878
		c-2.992,2.822-4.638,7.474-9.822,7.373c3.688-3.939,7.854-7.444,10.62-12.206c3.045-5.237,1.195-9.636-4.709-10.824
		c-0.753-0.151-1.771,0.067-1.759-1.033c0.006-0.498,0.579-1.084,1.034-1.466c1.44-1.215,2.944-2.352,4.424-3.519
		c1.261,0.439,1.649,2.219,3.262,2.124c0.154,1.188-0.255,2.946,1.772,2.629c1.247-0.196,2.542-1.456,2.39-2.578
		c-0.238-1.748-2.056-0.789-3.19-1.024c0.172-2.229,2.264-2.377,3.611-3.333c3.068,1.828,6.462,1.739,9.852,1.664
		c0.019,0.547,0.038,1.095,0.055,1.642c-1.561,1.023-3.122,2.046-4.683,3.069l-0.179-0.171c-0.095-1.065,0.271-2.492-1.325-2.645
		c-1.429-0.138-1.987,1.202-2.07,2.227c-0.144,1.778,1.445,1.208,2.443,1.373L230.812,161.602z M226.486,163.015
		c-1.635-0.448-2.745,0-3.148,1.658c-0.061,0.248,0.568,0.959,0.85,0.943C225.663,165.536,226.318,164.567,226.486,163.015z"/>
	<path fill-rule="evenodd" clip-rule="evenodd" fill="#2A1D24" d="M129.62,162.501c-0.343,0.999-0.706,2.577-1.401,3.992
		c-3.752,7.63-8.424,14.733-12.77,22.024c-1.258,2.112-2.595,2.731-4.606,1.261c-2.134-1.562-0.288-2.768,0.485-4
		c5.017-8.007,10.201-15.916,13.702-24.77c0.472-1.194,0.553-3.383,2.435-2.985C129.133,158.376,129.608,160.211,129.62,162.501z"/>
	<path fill-rule="evenodd" clip-rule="evenodd" fill="#2B1624" d="M209.088,185.492c5.185,0.101,6.83-4.551,9.822-7.373
		c0.64-0.603,0.925-1.581,1.649-2.878c1.004,3.81-0.583,5.991-2.588,8.111c-4.037,4.271-7.989,8.623-11.998,12.919
		c-0.787,0.843-1.438,1.703-1.406,2.918c-0.873,0.342-1.745,0.684-2.619,1.024c-5.569-0.561-6.106-1.663-4.146-8.53
		C201.565,189.619,205.326,187.556,209.088,185.492z"/>
	<path fill-rule="evenodd" clip-rule="evenodd" fill="#2E1E29" d="M187.875,129.607c1.416-4.759,2.694-8.859,3.834-12.997
		c0.414-1.498,0.81-2.778,2.68-2.776c2.788,0.004,5.436,0.262,7.25,2.844c1.257,1.789,0.71,3.369-0.424,4.832
		C197.963,125.709,193.575,128.113,187.875,129.607z"/>
	<path fill-rule="evenodd" clip-rule="evenodd" fill="#291522" d="M122.434,221.368c-0.322,0.962-0.644,1.925-0.966,2.887
		c-4.855-7.228-3.398-14.998-1.511-22.592c0.631-2.541,4.24-2.314,6.357-3.607c0.687-0.419,1.52,0.701,1.135,1.526
		c-2.325,4.991-0.974,9.557,1.422,14.04c-0.542,0.33-1.084,0.661-1.626,0.991C123.151,215.092,124.472,219.426,122.434,221.368z
		 M125.333,209.136c0-0.623,0.064-1.109-0.012-1.572c-0.208-1.256,0.625-3.408-1.584-3.224c-1.989,0.166-1.007,1.868-0.63,2.981
		c0.44,1.299-0.316,2.033-1.059,2.899c-0.75,0.876-0.499,1.784,0.469,2.384c0.651,0.404,1.451,1.052,2.158,0.426
		C125.919,211.927,125.092,210.341,125.333,209.136z"/>
	<path fill-rule="evenodd" clip-rule="evenodd" fill="#2E1E29" d="M197.294,185.699c2.865-5.715,6.874-10.332,12.017-13.926
		c1.169-0.815,2.675-1.546,3.924-0.231c1.125,1.183,0.217,2.426-0.492,3.474C208.986,180.561,204.148,184.556,197.294,185.699z"/>
	<path fill-rule="evenodd" clip-rule="evenodd" fill="#35262D" d="M239.598,122.257c-1.001,4.957-3.894,8.669-7.993,11.488
		c-1.827,1.255-2.767,0.249-2.651-1.653c0.334-5.446,2.625-10.07,7.194-12.985C239.407,117.028,239.141,120.269,239.598,122.257z"/>
	<path fill-rule="evenodd" clip-rule="evenodd" fill="#22151C" d="M148.551,203.059c1.362-11.334,5.205-21.54,13.627-29.613
		c1.376-1.318,2.997-2.729,5.059-1.985c2.022,0.729,2.767,2.516,2.488,4.666c-2.837-3.639-5.266-2.88-7.981,0.366
		c-5.168,6.18-8.572,13.149-10.107,21.015C151.196,199.764,150.962,201.972,148.551,203.059z"/>
	<path fill-rule="evenodd" clip-rule="evenodd" fill="#2A1D24" d="M192.127,170.182c0.297,0.07,0.851,0.128,0.854,0.211
		c0.196,4.632,2.788,2.384,4.83,1.699c-2.197,5.383-6.84,9.207-9.218,14.498c-0.634,1.41-2.121,1.263-3.357,0.511
		c-0.983-0.597-1.209-1.376-0.416-2.372C188.274,180.394,189.674,175.022,192.127,170.182z"/>
	<path fill-rule="evenodd" clip-rule="evenodd" fill="#2E1E29" d="M222.419,202.021c-0.51,2.226-1.928,3.186-4.158,2.856
		c-2.769-0.409-3.867-2.585-4.782-4.822c-0.736-1.8-0.418-3.286,1.385-4.491c1.566-1.049,2.884-2.469,4.311-3.724
		c2.369,1.292,1.572,3.582,1.821,5.575C221.195,199.013,220.048,201.082,222.419,202.021z"/>
	<path fill-rule="evenodd" clip-rule="evenodd" fill="#2A1D24" d="M180.414,203.012c-0.21-2.639,0.162-5.202,0.998-7.706
		c0.064-0.147,0.129-0.294,0.194-0.442c-0.083,0.129-0.167,0.258-0.25,0.386c-3.375,0.849-3.778,5.886-7.938,5.632
		c2.083-2.619,4.249-5.178,6.216-7.88c1.174-1.614,2.364-1.779,4.094-1.007c2.053,0.917,1.228,2.031,0.651,3.443
		c-1.14,2.791-2.05,5.676-3.055,8.523C181.021,203.645,180.718,203.328,180.414,203.012z"/>
	<path fill-rule="evenodd" clip-rule="evenodd" fill="#230E1B" d="M180.414,203.012c0.304,0.316,0.607,0.633,0.911,0.95
		c-0.014,0.976-0.027,1.952-0.04,2.929c-1.2,1.662-1.606,3.127,0.953,3.86c0.325,0.072,0.487,0.274,0.487,0.606
		c-2.703-1.083-2.87,4.24-5.899,2.336c-0.775-1.896-1.387-3.812-0.707-5.884C176.168,204.975,174.915,200.97,180.414,203.012z"/>
	<path fill-rule="evenodd" clip-rule="evenodd" fill="#2A1D24" d="M190.09,157.587c-3.646,0.126-5.502-2.479-6.792-5.143
		c-1.599-3.301-2.98-3.632-5.242-0.759c-0.883,1.122-1.96,2.139-3.61,1.981c2.499-3.202,4.998-6.405,8.359-10.711
		C182.855,149.864,186.219,153.876,190.09,157.587z"/>
	<path fill-rule="evenodd" clip-rule="evenodd" fill="#4E4043" d="M146.48,220.716c0.777-1.42,2.15-1.131,3.383-1.134
		c6.833-0.016,13.668-0.013,20.502,0.014c1.226,0.006,2.605-0.329,3.409,1.077C164.677,221.434,155.578,220.659,146.48,220.716z"/>
	<path fill-rule="evenodd" clip-rule="evenodd" fill="#2A1D24" d="M166.802,207.717c-1.161,4.726-8.264,7.182-12.734,3.92
		c-2.042-1.49-3.643-1.373-5.644-0.894c1.499-3.434,2.61-5.056,6.477-1.445C158.551,212.706,163.021,209.983,166.802,207.717z"/>
	<path fill-rule="evenodd" clip-rule="evenodd" fill="#22151C" d="M71.15,216.619c5.716-2.47,9.38-7.614,14.364-11.048
		c1.071-0.737,1.952-1.686,3.393-1.481c-5.006,5.583-10.156,10.987-17.331,13.861C71.433,217.507,71.292,217.063,71.15,216.619z"/>
	<path fill-rule="evenodd" clip-rule="evenodd" fill="#22151C" d="M197.803,191.683c-1.96,6.867-1.423,7.97,4.146,8.53
		c-1.384,2.635-3.444,1.819-5.315,0.864c-2.51-1.28-2.838-3.6-2.591-6.18C194.271,192.511,195.401,191.412,197.803,191.683z"/>
	<path fill-rule="evenodd" clip-rule="evenodd" fill="#22151C" d="M211.834,210.833c-1.846,1.25-3.131,0.202-4.365-1.063
		c0.087-2.077-0.425-3.708-2.899-3.867c-0.032-0.406-0.062-0.813-0.094-1.22c1.921-2.53,3.728-5.17,4.884,0.548
		C209.754,207.185,210.984,208.97,211.834,210.833z"/>
	<path fill-rule="evenodd" clip-rule="evenodd" fill="#2E1E29" d="M226.543,154.261c-1.348,0.956-3.439,1.104-3.611,3.333l0,0
		c-0.318,0.319-0.638,0.638-0.957,0.957l-0.017,0.016c-1.61,0.095-1.999-1.685-3.26-2.124
		C221.618,150.865,221.618,150.865,226.543,154.261z"/>
	<path fill-rule="evenodd" clip-rule="evenodd" fill="#2A1D24" d="M178.027,174.192c-1.824-4.261,2.602-10.618,8.189-11.764
		C182.496,165.659,179.679,169.52,178.027,174.192z"/>
	<path fill-rule="evenodd" clip-rule="evenodd" fill="#230E1B" d="M222.419,202.021c-2.371-0.938-1.224-3.008-1.424-4.605
		c-0.249-1.994,0.548-4.283-1.821-5.575c0.627-0.78,1.254-1.56,1.882-2.339c0.561,0,1.123,0,1.684,0.001
		C222.925,193.682,223.385,197.869,222.419,202.021z"/>
	<path fill-rule="evenodd" clip-rule="evenodd" fill="#2A1D24" d="M199.791,162.293c-4.031,1.3-7.11-0.11-8.595-3.938
		C194.061,159.668,196.926,160.98,199.791,162.293z"/>
	<path fill-rule="evenodd" clip-rule="evenodd" fill="#2A1D24" d="M173.454,200.857c-0.075,4.392-2.479,6.525-6.693,6.902
		C168.992,205.459,171.223,203.158,173.454,200.857z"/>
	<path fill-rule="evenodd" clip-rule="evenodd" fill="#2A1D24" d="M197.81,172.093c1.117-3.307,2.991-5.717,6.848-5.768
		C202.735,168.674,200.242,170.349,197.81,172.093z"/>
	<path fill-rule="evenodd" clip-rule="evenodd" fill="#2A1D24" d="M171.635,156.413c-1.253,3.126-2.634,6.017-6.835,3.704
		C167.078,158.883,169.356,157.648,171.635,156.413z"/>
	<path fill-rule="evenodd" clip-rule="evenodd" fill="#2A1D24" d="M190.071,163.395c4.401,0.957,4.752,1.706,2.267,4.84
		C191.582,166.621,190.826,165.007,190.071,163.395z"/>
	<path fill-rule="evenodd" clip-rule="evenodd" fill="#22151C" d="M93.503,198.335c-0.2-1.804,0.024-3.528,0.967-5.116
		C100.143,196.057,94.055,196.674,93.503,198.335z"/>
	<path fill-rule="evenodd" clip-rule="evenodd" fill="#230E1B" d="M127.244,214.613c0.542-0.33,1.084-0.661,1.626-0.991
		c0.92,1.329,1.841,2.657,2.762,3.985c-0.174,0.295-0.349,0.59-0.522,0.884C128.575,218.441,128.194,216.244,127.244,214.613z"/>
	<path fill-rule="evenodd" clip-rule="evenodd" fill="#4E4043" d="M187.164,221.254c1.973-1.154,3.918-1.24,5.823,0.155
		C191.026,222.081,189.089,221.885,187.164,221.254z"/>
	<path fill-rule="evenodd" clip-rule="evenodd" fill="#2A1D24" d="M182.237,210.751c-2.559-0.733-2.153-2.198-0.953-3.86
		C181.602,208.178,181.92,209.464,182.237,210.751z"/>
	<path fill-rule="evenodd" clip-rule="evenodd" fill="#22151C" d="M145.658,205.046c0.02-2.053,1.455-2.048,2.915-2.006
		C147.909,204.155,146.973,204.875,145.658,205.046z"/>
	<path fill-rule="evenodd" clip-rule="evenodd" fill="#22151C" d="M92.758,191.31c-1.503,0.103-3.048,0.273-3.111-1.938
		C91.037,189.452,92.092,190.07,92.758,191.31z"/>
	<path fill-rule="evenodd" clip-rule="evenodd" fill="#22151C" d="M89.688,189.413c-1.247,0.065-1.963-0.482-2.045-1.767
		C89.001,187.451,89.357,188.417,89.688,189.413z"/>
	<path fill-rule="evenodd" clip-rule="evenodd" fill="#2A1D24" d="M183.271,213.624c-0.873-0.603-0.856-1.408-0.524-2.286
		c0.735,0.663,1.47,1.326,2.204,1.99C184.391,213.427,183.831,213.525,183.271,213.624z"/>
	<path fill-rule="evenodd" clip-rule="evenodd" fill="#4E4043" d="M236.449,157.567c-0.017-0.547-0.036-1.095-0.055-1.642
		c0.356,0.131,0.981,0.209,1.02,0.403C237.544,156.996,237.182,157.471,236.449,157.567z"/>
	<path fill-rule="evenodd" clip-rule="evenodd" fill="#2A1D24" d="M71.15,216.619c0.142,0.443,0.283,0.888,0.426,1.332
		c0.001,0.002-0.016-0.019-0.015-0.018c-0.413-0.186-1.053-0.271-1.195-0.582C70.088,216.742,70.732,216.715,71.15,216.619z"/>
	<path fill-rule="evenodd" clip-rule="evenodd" fill="#281423" d="M155.545,157.45c-1.112-0.33-1.147-1.146-0.938-2.073
		C155.947,155.604,155.448,156.662,155.545,157.45z"/>
	<path fill-rule="evenodd" clip-rule="evenodd" fill="#2E1E29" d="M222.739,189.501c-0.561-0.001-1.123-0.001-1.684-0.001
		c0.119-0.734,0.606-1.122,1.291-1.07C222.504,188.443,222.609,189.127,222.739,189.501z"/>
	<path fill-rule="evenodd" clip-rule="evenodd" fill="#22151C" d="M231.767,160.636c-0.317,0.322-0.636,0.644-0.955,0.965
		l-0.176-0.181c0.317-0.318,0.635-0.636,0.952-0.955L231.767,160.636z"/>
	<path fill-rule="evenodd" clip-rule="evenodd" fill="#2A1D24" d="M191.259,158.413c-0.392-0.277-0.784-0.554-1.177-0.831
		C190.475,157.859,190.867,158.135,191.259,158.413z"/>
	<path fill-rule="evenodd" clip-rule="evenodd" fill="#281423" d="M155.318,158.575c0.053-0.396,0.105-0.792,0.158-1.188
		c0.33,0.329,0.66,0.656,0.99,0.984C156.083,158.44,155.701,158.507,155.318,158.575z"/>
	<path fill-rule="evenodd" clip-rule="evenodd" fill="#281423" d="M157.473,159.429c-0.355-0.372-0.711-0.745-1.066-1.118
		C156.762,158.685,157.118,159.056,157.473,159.429z"/>
	<path fill-rule="evenodd" clip-rule="evenodd" fill="#2E1E29" d="M269.127,178.711c-1.411-4.863-4.446-1.276-6.777-1.283
		c-1.323-0.002-2.281,2.443-3.742,0.862c-1.108-1.2-0.174-2.825,0.198-4.144c1.419-5.047,6.345-7.131,11.084-4.822
		c6.049,2.947,8.493,10.481,5.605,16.474c-1.162,2.41-2.876,2.001-4.822,1.879c-2.795-0.175-5.397-0.792-7.483-2.751
		c-0.164-0.155,0.23-1.219,0.621-1.592c1.71-1.633,2.786-4.019,5.36-4.653c-0.2,0.75-0.299,1.551-0.627,2.24
		c-0.514,1.074-2.55,1.94-1.481,3.091c0.937,1.007,2.855,1.283,4.392,1.496c1.44,0.2,2.146-0.915,2.718-2.222
		c2.26-5.168-1.908-12.433-7.621-12.914c-2.174-0.182-4.754,0.606-4.658,2.988c0.119,2.934,2.45,0.226,3.739,0.66
		c1.028,0.345,2.663-0.101,3.184,0.516C269.729,175.617,273.275,177.086,269.127,178.711z"/>
	<path fill-rule="evenodd" clip-rule="evenodd" fill="#2A1D24" d="M254.563,200.831c0.154-0.621,0.396-2.053,0.864-3.407
		c1.821-5.259,2.216-5.374,6.808-2.345c0.534,0.352,1.338,0.494,1.635,0.971c1.176,1.898,5.619-0.055,4.822,3.511
		c-0.797,3.574-8.058,8.479-10.658,7.946C254.763,206.838,254.302,204.416,254.563,200.831z"/>
	<path fill-rule="evenodd" clip-rule="evenodd" fill="#35262D" d="M290.417,191.696c1.799-2.19,3.631-4.354,5.379-6.584
		c0.71-0.906,1.287-2.015,2.588-0.994c1.038,0.814,0.951,1.943,0.322,2.999c-2.119,3.562-4.837,6.594-8.142,9.098
		C290.515,194.708,290.466,193.202,290.417,191.696z"/>
	<path fill-rule="evenodd" clip-rule="evenodd" fill="#230E1B" d="M290.417,191.696c0.049,1.506,0.098,3.012,0.147,4.519
		c-1.847,1.873-3.69,3.746-5.536,5.621c-0.1-2.23-0.2-4.462-0.3-6.693C286.623,193.994,288.521,192.845,290.417,191.696z"/>
	<path fill-rule="evenodd" clip-rule="evenodd" fill="#35262D" d="M280.935,196.514c-0.015,1.382-0.225,2.615-2.028,2.605
		C278.972,197.775,278.938,196.355,280.935,196.514z"/>
	<path fill-rule="evenodd" clip-rule="evenodd" fill="#2B1624" d="M371.621,187.586c0.022,2.164-0.577,3.676-1.465,5.018
		c-2.965,4.479-6.789,8.125-11.193,11.167c-0.765,0.527-1.616,1.297-2.6,0.642c-0.792-0.529-0.46-1.398-0.281-2.195
		c1.442-6.449,4.668-11.95,9.12-16.725c1.021-1.096,2.483-2.369,4.247-1.443C370.966,184.845,371.68,186.311,371.621,187.586z"/>
	<path fill-rule="evenodd" clip-rule="evenodd" fill="#BAB3AE" d="M319.915,194.716c-1.103,2.443-2.205,4.887-3.307,7.331
		C316.33,198.981,316.546,196.138,319.915,194.716z"/>
	<path fill-rule="evenodd" clip-rule="evenodd" fill="#BAB3AE" d="M321.561,192.423c-0.019,1.094-0.524,1.842-1.566,2.211
		C319.562,193.221,320.033,192.448,321.561,192.423z"/>
	<path fill-rule="evenodd" clip-rule="evenodd" fill="#230E1B" d="M220.303,220.78c-0.041,0.118-0.081,0.336-0.126,0.337
		c-0.135,0.005-0.293-0.051-0.395-0.138c-0.034-0.03,0.071-0.224,0.113-0.342C220.031,220.685,220.167,220.732,220.303,220.78z"/>
	<path fill-rule="evenodd" clip-rule="evenodd" fill="#2B1624" d="M140.444,167.981c-0.117,0.269-0.175,0.685-0.368,0.762
		c-0.192,0.077-0.521-0.188-0.789-0.303c0.116-0.269,0.173-0.688,0.365-0.763C139.847,167.602,140.174,167.865,140.444,167.981z"/>
	<path fill-rule="evenodd" clip-rule="evenodd" fill="#2B1624" d="M158.674,160.355c-0.379,0.255-0.758,0.511-1.136,0.767
		c-0.099-0.161-0.197-0.322-0.296-0.483c0.446-0.121,0.892-0.242,1.339-0.364C158.583,160.275,158.674,160.355,158.674,160.355z"/>
	<path fill-rule="evenodd" clip-rule="evenodd" fill="#E2E1DE" d="M174.356,168.733c-3.039,1.172-3.349-1.988-4.276-3.248
		c-1.181-1.605,1.313-2.086,2.355-2.609c2.888-1.451,4.167-5.297,7.978-5.289c1.144,2.428-2.375,2.657-2.187,4.634
		c0,0,0.038-0.033,0.038-0.032C176.441,164.059,174.637,165.941,174.356,168.733z"/>
	<path fill-rule="evenodd" clip-rule="evenodd" fill="#230E1B" d="M174.356,168.733c0.281-2.792,2.084-4.674,3.908-6.544
		C178.081,165.038,178.591,168.302,174.356,168.733z"/>
	<path fill-rule="evenodd" clip-rule="evenodd" fill="#230E1B" d="M178.227,162.221c-0.188-1.977,3.331-2.206,2.187-4.634
		c1.566-1.339,1.976-0.221,1.854,1.045C182.042,160.966,180.783,162.387,178.227,162.221z"/>
	<path fill-rule="evenodd" clip-rule="evenodd" fill="#281423" d="M127.244,214.613c0.95,1.631,1.331,3.828,3.867,3.878
		c-2.06,3.471-5.563,2.588-8.677,2.877C124.472,219.426,123.151,215.092,127.244,214.613z"/>
	<path fill-rule="evenodd" clip-rule="evenodd" fill="#2E1E29" d="M204.569,205.902c2.475,0.159,2.986,1.79,2.899,3.867
		C205.927,208.912,204.652,207.854,204.569,205.902z"/>
	<path fill-rule="evenodd" clip-rule="evenodd" fill="#2E1E29" d="M222.932,157.595c1.135,0.235,2.952-0.724,3.19,1.024
		c0.152,1.123-1.143,2.382-2.39,2.578c-2.027,0.317-1.618-1.441-1.772-2.629c-0.002,0,0.015-0.016,0.015-0.016
		C222.294,158.232,222.613,157.914,222.932,157.595L222.932,157.595z"/>
	<path fill-rule="evenodd" clip-rule="evenodd" fill="#2E1E29" d="M231.588,160.465c-0.317,0.319-0.635,0.637-0.952,0.955
		c-0.998-0.166-2.587,0.405-2.443-1.373c0.083-1.025,0.642-2.365,2.07-2.227C231.859,157.973,231.493,159.4,231.588,160.465z"/>
	<path fill-rule="evenodd" clip-rule="evenodd" fill="#2E1E29" d="M226.486,163.015c-0.168,1.552-0.823,2.521-2.299,2.602
		c-0.281,0.016-0.91-0.695-0.85-0.943C223.741,163.015,224.852,162.567,226.486,163.015z"/>
	<path fill-rule="evenodd" clip-rule="evenodd" fill="#281423" d="M125.333,209.136c-0.241,1.205,0.587,2.791-0.659,3.895
		c-0.707,0.626-1.507-0.021-2.158-0.426c-0.968-0.6-1.219-1.508-0.469-2.384c0.743-0.866,1.5-1.601,1.059-2.899
		c-0.377-1.113-1.359-2.815,0.63-2.981c2.208-0.185,1.375,1.968,1.584,3.224C125.397,208.026,125.333,208.513,125.333,209.136z"/>
	<path fill-rule="evenodd" clip-rule="evenodd" fill="#2B1624" d="M181.355,195.25c0.083-0.128,0.167-0.257,0.25-0.386
		c-0.065,0.147-0.13,0.295-0.194,0.442C181.412,195.306,181.355,195.25,181.355,195.25z"/>
	<path fill-rule="evenodd" clip-rule="evenodd" fill="#22151C" d="M222.932,157.595c-0.318,0.319-0.638,0.638-0.957,0.957
		C222.294,158.232,222.613,157.914,222.932,157.595z"/>
	<path fill-rule="evenodd" clip-rule="evenodd" fill="#281423" d="M269.127,178.711c4.148-1.625,0.603-3.094-0.312-4.177
		c-0.521-0.617-2.155-0.171-3.184-0.516c-1.289-0.434-3.62,2.274-3.739-0.66c-0.096-2.382,2.484-3.17,4.658-2.988
		c5.713,0.48,9.881,7.745,7.621,12.914c-0.571,1.308-1.277,2.422-2.718,2.222c-1.536-0.212-3.455-0.489-4.392-1.496
		c-1.068-1.15,0.968-2.017,1.481-3.091c0.328-0.689,0.427-1.49,0.627-2.24L269.127,178.711z"/>
</g>
</svg>
