<?xml version="1.0" encoding="utf-8"?>
<!-- Generator: Adobe Illustrator 16.0.0, SVG Export Plug-In . SVG Version: 6.00 Build 0)  -->
<!DOCTYPE svg PUBLIC "-//W3C//DTD SVG 1.1//EN" "http://www.w3.org/Graphics/SVG/1.1/DTD/svg11.dtd">
<svg version="1.1" id="Layer_1" xmlns="http://www.w3.org/2000/svg" xmlns:xlink="http://www.w3.org/1999/xlink" x="0px" y="0px"
	 width="400px" height="400px" viewBox="0 0 400 400" enable-background="new 0 0 400 400" xml:space="preserve">
<g>
	<path fill-rule="evenodd" clip-rule="evenodd" d="M106.416,160.827c8.903-12.079,14.592-23.951,11.758-38.217
		c-0.711-3.58,0.686-4.669,3.333-5.686c13.375-5.135,23.82-0.559,31.15,13.936c2-2.987,3.897-5.823,5.778-8.632
		c-10.082-12.113-8.31-23.28,5.335-31.212c5.352-3.112,11.352-5.108,17.369-7.75c-0.534-0.663-1.472-1.826-2.413-2.995
		c4.826-6.686,14.23-6.584,20.38-0.006c1.628,1.741,3.88,3.132,6.108,4.037c5.853,2.375,10.103,6.238,12.662,12.007
		c2.294,5.172,1.067,9.785-2.744,14.025c0.406,0.264,0.813,0.529,1.22,0.793c0.959-0.863,1.949-1.692,2.87-2.592
		c5.278-5.152,10.118-10.868,15.927-15.324c5.55-4.258,12.389-5.681,19.238-2.63c5.028,2.24,7.688,6.185,7.292,11.974
		c-0.079,1.157,0.439,2.859,1.291,3.495c7.311,5.46,9.756,12.702,5.536,21.144c-2.603,5.204-6.962,9.523-10.477,14.279
		c-1.428,1.934-2.711,3.976-3.396,6.627c6.453-4.477,13.074-7.531,20.746-6.794c7.951,0.764,13.606,5.415,17.466,12.262
		c11.826-9.587,19.8-8.585,28.408,3.402c2.174-0.632,4.426-1.363,6.716-1.936c4.605-1.151,8.871-0.049,12.112,3.199
		c1.996,2,3.72,2.043,6.295,2.019c4.756-0.042,9.521,0.896,14.799,1.483c4.131-2.229,9.138-5.491,14.572-7.7
		c5.275-2.144,11.192-2.229,15.431,2.191c4.229,4.413,3.552,10.125,1.684,15.558c-0.675,1.965-1.675,3.818-2.538,5.747
		c7.893,8.23,7.463,24.162-0.265,34.518c-2.733,3.664-4.445,7.275-5.28,11.985c-2.109,11.897-11.044,17.555-21.847,20.851
		c-15.334,4.681-30.699,2.582-46.118,0.449c-29.925-4.139-59.79-9.03-89.846-11.786c-22.697-2.082-45.588,0.122-68.004,4.729
		c-12.525,2.575-23.687,8.492-33.224,17.164c-3.974,3.612-7.167,7.682-5.18,13.559c1.922,5.686,6.888,9.066,13.634,8.766
		c3.764-0.168,7.484-1.308,12.648-2.276c-1.83,6.348-3.019,12.487-5.358,18.152c-4.421,10.708-11.198,19.711-22.056,24.73
		c-16.285,7.529-44.703,4.645-57.519-19.777c-13.408-25.55-9.816-49.95,11.064-70.061c0.8-0.77,1.805-1.326,2.715-1.981
		c-0.29-0.385-0.58-0.77-0.869-1.154c-1.685,1.047-3.334,2.157-5.06,3.133c-8.594,4.853-17.713,8.308-27.693,6.967
		c-13.439-1.804-22.104-12.416-21.718-25.997c0.114-4.003,0.556-8.137,1.751-11.924c0.919-2.911,0.754-4.607-1.618-6.546
		C3.65,177.267,2.57,152.22,17.611,134.646c10.276-12.008,22.591-19.666,39.246-17.89c12.028,1.283,21.266,7.327,28.487,16.608
		c5.353,6.882,10.213,14.145,15.401,21.158C102.243,156.546,104.115,158.292,106.416,160.827z M133.717,287.688
		c-1.787-0.107-2.907-0.116-4.011-0.249c-15.676-1.905-24.731-16.766-17.682-29.365c1.939-3.466,4.591-6.682,7.453-9.459
		c14.324-13.903,33.047-17.556,51.576-19.898c36.451-4.606,72.853-2.453,109.154,3.276c21.034,3.319,42.258,5.647,63.478,7.468
		c6.677,0.572,13.813-1.302,20.383-3.258c5.95-1.771,10.824-5.803,13.59-11.71c-4.952,1.421-9.47,3.604-14.088,3.848
		c-8.173,0.429-16.535,0.507-24.59-0.734c-23.299-3.593-46.463-8.041-69.719-11.921c-30.953-5.162-62.079-8.829-93.496-9.266
		c-16.459-0.23-33.03-1.332-49.148,3.396c-3.082,0.904-4.115-1.058-4.228-3.104c-0.327-5.912-1.005-12.008,0.113-17.708
		c0.533-2.715,4.826-4.692,7.964-7.494c-0.249,4.343-0.693,7.836-0.588,11.312c0.134,4.451,1.834,9.047,6.147,10.068
		c3.005,0.711,7.084-1.059,10.052-2.798c3.241-1.898,5.754-5.039,8.573-7.628c5.701,5.248,9.797,5.428,15.613-0.025
		c4.228-3.961,8.104-8.354,11.731-12.878c2.086-2.602,3.657-3.324,5.453-1.361c-1.055,5.309-2.615,9.975-2.747,14.68
		c-0.146,5.19,4.634,8.052,9.534,6.289c2.088-0.751,4.07-1.98,5.874-3.301c3.696-2.71,7.239-5.63,10.304-8.038
		c2.622,4.049,4.54,8.252,7.557,11.403c5.811,6.063,13.211,7.424,18.392,4.264c5.254-3.204,7.279-10.169,4.676-18.267
		c-1.771-5.509-4.451-10.718-6.463-16.159c-2.188-5.924-0.655-8.912,5.141-10.855c6.109-2.049,8.945-12.053,4.945-16.785
		c2.996-1.808,6.298-3.298,8.985-5.528c5.118-4.25,9.09-9.448,8.224-16.602c-0.215-1.777-2.255-3.335-3.455-4.993
		c-1.249,2.065-2.844,4.016-3.589,6.25c-0.333,1.003,1.238,2.524,1.567,3.9c0.289,1.21,0.585,2.97-0.041,3.759
		c-5.168,6.52-16.767,6.484-21.925,0.037c-2.031-2.54-2.159-4.367,1.163-6.585c5.59-3.732,10.865-8.037,15.793-12.618
		c3.015-2.801,5.051-6.789,2.037-10.863c-2.877-3.889-7.191-3.259-11.092-2.034c-7.098,2.229-12.242,7.126-16.082,13.321
		c-2.155,3.477-3.807,7.266-5.484,10.527c-5.693-2.566-11.201-5.047-16.953-7.639c2.051-1.731,4.33-3.094,5.857-5.045
		c5.256-6.71,1.502-15.161-7.991-18.072c-2.508-0.769-4.438-1.402-5.732-4.259c-1.538-3.395-4.947-4.02-8.874-2.682
		c1.97,4.201,0.886,5.74-3.671,6.489c-8.246,1.357-15.851,4.62-21.233,11.548c-3.29,4.236-3.954,9.793-1.421,13.598
		c2.521,3.787,6.091,5.548,10.741,4.718c-0.14-9.665,7.086-17.454,15.358-16.463c-3.53,10.421-8.377,19.967-16.35,27.685
		c-3.266,3.162-6.821,4.905-11.011,1.503c-2.321,6.013-1.747,10.499,1.454,12.764c3.248,2.296,8.302,1.658,12.559-1.727
		c1.511-1.202,2.923-2.567,4.203-4.014c2.508-2.838,4.893-5.786,7.486-8.876c3.999,14.786,14.531,19.11,29.094,18.511
		c-10.361,5.269-16.192,13.354-21.428,21.992c-1.321,2.18-2.533,4.481-5.084,1.85c2.341-5.211,4.644-10.159,6.792-15.173
		c1.476-3.446,0.712-6.895-2.635-8.221c-1.474-0.584-4.643,1.296-6.131,2.9c-4.469,4.816-7.201,11.054-5.871,17.33
		c1.796,8.471-3.904,12.068-8.625,16.301c-2.914,2.613-6.026,0.777-6.094-3.283c-0.03-1.809,0.64-3.719,1.353-5.433
		c1.672-4.018,3.818-7.857,5.217-11.958c0.464-1.359-0.348-3.693-1.399-4.803c-0.521-0.551-3.374,0.195-4.353,1.173
		c-2.26,2.261-4.529,4.781-5.868,7.631c-2.315,4.93-4.169,10.117-5.756,15.336c-1.267,4.169-5.915,8.861-9.119,7.742
		c-5.049-1.763-3.604-6.508-2.353-9.446c2.813-6.596,6.169-13.117,10.346-18.92c3.088-4.291,7.818-7.4,11.948-11.155
		c-1.898-4.188-5.236-5.188-9.467-3.594c-10.977,4.135-16.967,13.044-21.425,23.154c-1.588,3.601-3.593,5.411-8.382,4.875
		c2.918-5.072,5.541-9.648,8.18-14.214c3.875-6.706,8.115-13.231,11.515-20.17c2.114-4.314,2.245-9.104-1.836-12.972
		c-4.34-4.113-9.457-4.816-14.834-3.042c-1.301,0.429-2.812,2.659-2.852,4.099c-0.458,16.15-10.379,27.613-19.065,40.698
		c-3.125-3.314-5.855-5.809-8.11-8.677c-6.193-7.876-11.889-16.16-18.334-23.817c-7.888-9.372-17.952-14.159-30.623-13.579
		c-15.957,0.73-32.966,19.664-34.574,35.245c-0.979,9.488,3.275,21.909,11.489,25.079c6.738-19.454,24.18-29.824,42.374-24.155
		c11.665,3.634,21.197,11.343,30.954,19.802c-5.505,5.573-10.518,11.061-15.998,16.036c-3.181,2.887-6.883,5.467-10.791,7.184
		c-2.257,0.99-6.774,1.01-7.789-0.365c-1.368-1.855-1.45-6.229-0.12-8.184c2.919-4.29,7.008-7.803,10.761-11.49
		c1.195-1.173,2.839-1.891,4.301-2.833c-2.816-7.448-8.774-8.896-15.065-8.99c-20.887-0.313-35.898,19.384-37.629,34.894
		c-1.768,15.837,9.007,24.146,24.429,19.835c11.719-3.276,21.555-9.58,29.967-18.062c8.135-8.203,15.783-16.888,23.764-25.49
		c1.404,0.795,3.021,1.712,4.05,2.295c-1.612,6.029-3.681,11.503-4.412,17.149c-0.701,5.412,2.013,7.989,7.456,8.738
		c1.662,0.23,3.383,0.037,5.076,0.037c-1.055,1.318-2.28,1.955-3.582,2.246c-16.377,3.659-29.621,12.49-40.778,24.719
		c-15.689,17.196-16.034,45.34-0.473,62.504c8.876,9.79,20.157,15.021,33.439,12.528
		C120.643,310.795,128.498,300.952,133.717,287.688z M345.273,201.957c0.849,3.453,1.376,5.973,2.093,8.438
		c1.792,6.171,7.752,11.22,13.148,11.245c13.945,0.065,29.48-16.282,28.542-30.275c-0.125-1.863-1.56-3.638-2.389-5.454
		c-1.932,0.922-4.382,1.381-5.697,2.854c-4.276,4.786-2.899,9.757,0.623,14.251c-5.752,7.389-10.016,9.351-15.61,7.355
		c-4.813-1.716-7.401-6.354-7.458-12.949c-0.02-2.431,0.76-3.471,3.221-4.434c9.057-3.543,16.811-8.952,21.903-17.555
		c2.857-4.829,3.418-10.988,0.868-13.187c-4.021-3.467-8.208-1.603-12.252,0.184c-1.321,0.584-2.612,1.319-3.763,2.189
		c-7.709,5.825-14.223,12.686-18.354,21.562c-1.159,2.489-1.98,5.213-3.552,7.402c-0.838,1.168-2.949,1.421-4.484,2.087
		c-0.565-1.375-1.769-2.854-1.565-4.105c0.432-2.661,1.171-5.456,2.54-7.743c3.03-5.057,6.526-9.835,10.28-15.388
		c-2.008-0.446-4.081-1.571-5.825-1.189c-13.291,2.904-19.312,13.823-26.288,24.175c-0.454-2.284-0.796-4.73,0.235-6.238
		c3.704-5.419,7.914-10.489,11.832-15.767c0.864-1.164,2.189-3.249,1.776-3.835c-0.87-1.237-2.901-2.631-4.188-2.41
		c-3.2,0.551-6.971,1.171-9.221,3.196c-5.967,5.371-11.234,11.514-16.824,17.306c-0.568,0.589-1.443,0.883-2.176,1.314
		c-0.393-0.258-0.785-0.515-1.179-0.771c0.78-1.698,1.3-3.588,2.39-5.057c3.069-4.141,6.717-7.888,9.474-12.214
		c2.161-3.394,1.778-7.372-1.454-10.166c-3.213-2.777-7.069-3.17-10.819-0.933c-0.938,0.56-1.954,1.874-2.008,2.89
		c-0.349,6.665-3.962,11.133-10.8,12.589c0.086-0.857,0.123-1.614,0.241-2.358c1.534-9.67-6.022-19.411-15.714-20.241
		c-8.966-0.768-15.684,6.447-15.911,16.804c-0.034,1.51-0.896,3.219-1.862,4.455c-5.039,6.449-9.132,13.352-10.434,21.548
		c-0.747,4.707,0.178,9.301,4.213,12.188c4.109,2.94,9.096,3.284,13.283,0.411c5.269-3.615,10.808-7.363,14.748-12.249
		c4.544-5.633,8.627-11.042,15.605-14.079c3.578-1.558,6.241-5.209,10.567-9.015c-1.06,2.762-1.313,4.746-2.401,6.017
		c-3.149,3.677-7.008,6.786-9.888,10.64c-3.526,4.717-7.004,9.688-9.259,15.07c-1.775,4.236,1.19,7.704,5.854,8.835
		c4.269,1.035,6.001-1.16,7.261-4.947c3.522-10.589,10.268-18.955,18.988-25.748c1.046-0.814,2.731-0.807,4.12-1.18
		c0.177,0.512,0.354,1.023,0.531,1.534c-0.642,0.673-1.426,1.258-1.9,2.033c-4.104,6.689-8.681,13.16-12.034,20.21
		c-2.36,4.964-0.149,8.88,3.837,9.72c6.467,1.362,10.484-0.869,11.731-6.213c0.842-3.611,1.551-7.412,3.269-10.62
		c2.56-4.778,5.768-9.253,9.083-13.563c1.445-1.878,3.766-2.463,5.363,0.542c-5.301,6.468-9.844,13.281-10.438,21.623
		c-0.223,3.138,0.703,7.693,2.848,9.355c3.398,2.635,6.917-0.512,9.547-3.258C341.405,206.895,343.009,204.699,345.273,201.957z
		 M81.79,219.914c0.213,0.221,0.425,0.441,0.638,0.661c5.394-3.378,10.788-6.758,16.313-10.22c-0.737-1.875-1.396-3.553-1.913-4.866
		C91.721,210.389,86.755,215.151,81.79,219.914z M176.272,154.939c2.634-4.104,4.998-7.786,7.362-11.468
		c-0.375-0.282-0.749-0.564-1.123-0.846c-3.251,2.5-6.504,5.002-10.077,7.749C173.664,151.838,174.85,153.248,176.272,154.939z
		 M83.1,189.559c-6.326,0.484-9.322,3.035-10.131,8.633C76.858,194.877,79.979,192.218,83.1,189.559z M243.087,173.189
		c0.865,0.035,1.73,0.07,2.597,0.104c0.26-2.259,0.52-4.519,0.78-6.778c-1.009-0.017-2.884-0.147-2.897-0.035
		C243.277,168.699,243.203,170.948,243.087,173.189z M371.16,196.164c-1.977,1.356-3.33,2.284-5.787,3.971
		c2.908,1.492,4.8,2.463,7.765,3.984C372.279,200.664,371.824,198.835,371.16,196.164z"/>
	<path fill-rule="evenodd" clip-rule="evenodd" fill="#FFFFFF" d="M133.717,287.688c-5.219,13.264-13.075,23.106-26.887,25.697
		c-13.282,2.493-24.563-2.738-33.439-12.528c-15.562-17.164-15.216-45.308,0.473-62.504c11.157-12.229,24.4-21.06,40.778-24.719
		c1.302-0.291,2.527-0.928,3.582-2.246c-1.693,0-3.414,0.193-5.076-0.037c-5.443-0.749-8.156-3.326-7.456-8.738
		c0.731-5.646,2.8-11.121,4.412-17.149c-1.029-0.583-2.646-1.5-4.05-2.295c-7.981,8.602-15.629,17.287-23.764,25.49
		c-8.412,8.481-18.248,14.785-29.967,18.062c-15.422,4.311-26.197-3.998-24.429-19.835c1.731-15.51,16.743-35.207,37.629-34.894
		c6.291,0.094,12.249,1.542,15.065,8.99c-1.462,0.941-3.106,1.659-4.301,2.833c-3.753,3.687-7.842,7.2-10.761,11.49
		c-1.331,1.956-1.249,6.329,0.12,8.184c1.014,1.375,5.532,1.355,7.789,0.365c3.908-1.717,7.61-4.296,10.791-7.184
		c5.48-4.975,10.493-10.463,15.998-16.036c-9.757-8.458-19.289-16.167-30.954-19.802c-18.194-5.668-35.636,4.702-42.374,24.155
		c-8.214-3.169-12.468-15.59-11.489-25.079c1.608-15.581,18.618-34.515,34.574-35.245c12.67-0.58,22.734,4.207,30.623,13.579
		c6.446,7.657,12.142,15.941,18.334,23.817c2.255,2.868,4.985,5.363,8.11,8.677c8.686-13.085,18.607-24.547,19.065-40.698
		c0.041-1.44,1.551-3.669,2.852-4.099c5.378-1.774,10.495-1.071,14.834,3.042c4.081,3.869,3.95,8.658,1.836,12.972
		c-3.399,6.939-7.64,13.464-11.515,20.17c-2.639,4.566-5.261,9.142-8.18,14.214c4.789,0.536,6.794-1.274,8.382-4.875
		c4.458-10.11,10.448-19.019,21.425-23.154c4.23-1.593,7.569-0.594,9.467,3.594c-4.129,3.755-8.86,6.864-11.948,11.155
		c-4.176,5.803-7.533,12.325-10.346,18.92c-1.252,2.938-2.697,7.683,2.353,9.446c3.204,1.12,7.852-3.573,9.119-7.742
		c1.586-5.219,3.44-10.406,5.756-15.336c1.338-2.85,3.608-5.37,5.868-7.631c0.979-0.979,3.832-1.724,4.353-1.173
		c1.051,1.11,1.864,3.443,1.399,4.803c-1.399,4.101-3.545,7.94-5.217,11.958c-0.713,1.714-1.383,3.624-1.353,5.433
		c0.068,4.061,3.18,5.896,6.094,3.283c4.721-4.233,10.421-7.831,8.625-16.301c-1.331-6.276,1.401-12.513,5.871-17.33
		c1.489-1.604,4.657-3.484,6.131-2.9c3.347,1.326,4.111,4.775,2.635,8.221c-2.148,5.015-4.45,9.962-6.792,15.173
		c2.552,2.631,3.763,0.331,5.084-1.85c5.235-8.638,11.066-16.723,21.428-21.992c-14.563,0.599-25.096-3.725-29.094-18.511
		c-2.593,3.09-4.978,6.039-7.486,8.876c-1.28,1.447-2.692,2.813-4.203,4.014c-4.257,3.384-9.311,4.023-12.559,1.727
		c-3.2-2.265-3.774-6.75-1.454-12.764c4.19,3.402,7.745,1.659,11.011-1.503c7.972-7.718,12.819-17.263,16.35-27.685
		c-8.272-0.991-15.498,6.798-15.358,16.463c-4.649,0.83-8.22-0.932-10.741-4.718c-2.533-3.805-1.869-9.362,1.421-13.598
		c5.383-6.928,12.987-10.191,21.233-11.548c4.557-0.75,5.641-2.288,3.671-6.489c3.927-1.338,7.336-0.713,8.874,2.682
		c1.294,2.857,3.225,3.49,5.732,4.259c9.493,2.911,13.247,11.362,7.991,18.072c-1.527,1.952-3.807,3.314-5.857,5.045
		c5.752,2.592,11.26,5.073,16.953,7.639c1.678-3.262,3.329-7.05,5.484-10.527c3.84-6.194,8.984-11.092,16.082-13.321
		c3.9-1.225,8.215-1.855,11.092,2.034c3.014,4.074,0.978,8.062-2.037,10.863c-4.928,4.581-10.203,8.886-15.793,12.618
		c-3.322,2.218-3.194,4.046-1.163,6.585c5.158,6.447,16.757,6.482,21.925-0.037c0.626-0.789,0.33-2.549,0.041-3.759
		c-0.329-1.376-1.9-2.897-1.567-3.9c0.745-2.233,2.34-4.184,3.589-6.25c1.2,1.658,3.24,3.215,3.455,4.993
		c0.866,7.154-3.105,12.352-8.224,16.602c-2.688,2.23-5.989,3.721-8.985,5.528c4,4.732,1.164,14.735-4.945,16.785
		c-5.796,1.944-7.329,4.932-5.141,10.855c2.012,5.441,4.692,10.649,6.463,16.159c2.604,8.097,0.578,15.063-4.676,18.267
		c-5.181,3.16-12.581,1.8-18.392-4.264c-3.017-3.15-4.935-7.354-7.557-11.403c-3.064,2.408-6.607,5.328-10.304,8.038
		c-1.803,1.321-3.786,2.55-5.874,3.301c-4.899,1.763-9.679-1.099-9.534-6.289c0.132-4.706,1.692-9.371,2.747-14.68
		c-1.796-1.963-3.367-1.241-5.453,1.361c-3.627,4.524-7.503,8.917-11.731,12.878c-5.816,5.453-9.913,5.272-15.613,0.025
		c-2.819,2.589-5.333,5.73-8.573,7.628c-2.968,1.739-7.047,3.509-10.052,2.798c-4.313-1.021-6.014-5.618-6.147-10.068
		c-0.105-3.476,0.339-6.969,0.588-11.312c-3.139,2.802-7.432,4.779-7.964,7.494c-1.118,5.7-0.44,11.795-0.113,17.708
		c0.113,2.046,1.146,4.008,4.228,3.104c16.119-4.728,32.689-3.626,49.148-3.396c31.417,0.437,62.543,4.104,93.496,9.266
		c23.256,3.88,46.42,8.328,69.719,11.921c8.055,1.241,16.417,1.163,24.59,0.734c4.618-0.244,9.136-2.427,14.088-3.848
		c-2.766,5.907-7.64,9.938-13.59,11.71c-6.569,1.956-13.706,3.83-20.383,3.258c-21.22-1.82-42.443-4.148-63.478-7.468
		c-36.301-5.729-72.703-7.883-109.154-3.276c-18.529,2.343-37.252,5.995-51.576,19.898c-2.862,2.777-5.514,5.993-7.453,9.459
		c-7.049,12.6,2.006,27.46,17.682,29.365C130.811,287.572,131.93,287.581,133.717,287.688z M224.887,137.434
		c-2.411,2.903-5.313,6.391-8.12,9.768c7.951,1.396,9.959,5.983,5.246,13.171c-5.203,7.933-12.31,13.708-21.368,16.565
		c-4.089,1.29-3.952,4.003-3.177,6.763c0.849,3.021,3.428,4.284,6.521,3.267c1.803-0.593,3.763-1.412,5.062-2.717
		c5.226-5.251,10.282-10.678,15.245-16.18c0.872-0.968,1.241-2.575,1.429-3.943c0.813-5.961,3.214-11.114,7.496-15.343
		c2.361-2.331,4.82-4.563,6.746-6.379C235.065,140.79,230.048,139.136,224.887,137.434z M197.609,115.852
		c-6.669-0.032-12.613,6.726-10.26,10.387c2.688,4.183,6.474,7.237,11.912,7.084c4.219-0.12,8.392-3.553,9.043-7.417
		c0.761-4.521-2.063-6.91-5.566-8.569C200.754,116.398,198.471,116.09,197.609,115.852z M112.041,175.699
		c2.458-0.441,4.85-0.19,5.393-1.075c4.955-8.076,9.769-16.256,14.165-24.646c0.89-1.698-0.157-4.409-0.312-6.653
		c-0.451,0.045-0.902,0.09-1.354,0.135C124.285,153.637,118.637,163.814,112.041,175.699z M191.393,113.966
		c0.414,0.453,0.827,0.906,1.24,1.359c3.893-2.921,8.053-5.557,11.586-8.862c2.432-2.275,1.086-5.044-1.594-6.263
		c-2.428-1.104-5.813-2.877-7.405,0.953C193.518,105.247,192.634,109.68,191.393,113.966z M225.946,173.2
		c-3.447,3.484-6.326,5.831-8.39,8.752c-0.855,1.21-0.587,4.062,0.305,5.426c0.944,1.445,3.264,2.755,4.931,2.692
		c1.101-0.041,2.831-2.521,3.012-4.058C226.244,182.258,225.946,178.417,225.946,173.2z M199.705,170.906
		c8.169-0.394,16.839-8.364,16.236-14.801C208.211,158.558,204.582,164.802,199.705,170.906z M241.276,103.792
		c-6.605,3.187-9.952,9.855-7.974,15.409C240.322,116.197,243.905,109.505,241.276,103.792z"/>
	<path fill-rule="evenodd" clip-rule="evenodd" fill="#FFFFFF" d="M345.273,201.957c-2.265,2.742-3.868,4.938-5.731,6.883
		c-2.63,2.746-6.148,5.893-9.547,3.258c-2.145-1.662-3.07-6.218-2.848-9.355c0.595-8.341,5.138-15.154,10.438-21.623
		c-1.598-3.006-3.918-2.421-5.363-0.542c-3.315,4.31-6.523,8.785-9.083,13.563c-1.718,3.208-2.427,7.008-3.269,10.62
		c-1.247,5.344-5.265,7.575-11.731,6.213c-3.986-0.84-6.197-4.756-3.837-9.72c3.354-7.05,7.931-13.521,12.034-20.21
		c0.475-0.774,1.259-1.359,1.9-2.033c-0.178-0.511-0.354-1.021-0.531-1.534c-1.389,0.374-3.074,0.366-4.12,1.18
		c-8.721,6.793-15.466,15.158-18.988,25.748c-1.26,3.787-2.992,5.982-7.261,4.947c-4.664-1.131-7.63-4.599-5.854-8.835
		c2.255-5.382,5.732-10.353,9.259-15.07c2.88-3.854,6.738-6.963,9.888-10.64c1.088-1.271,1.342-3.254,2.401-6.017
		c-4.326,3.805-6.989,7.457-10.567,9.015c-6.979,3.037-11.062,8.446-15.605,14.079c-3.94,4.886-9.479,8.634-14.748,12.249
		c-4.188,2.873-9.174,2.529-13.283-0.411c-4.035-2.888-4.96-7.482-4.213-12.188c1.302-8.196,5.395-15.099,10.434-21.548
		c0.967-1.236,1.828-2.945,1.862-4.455c0.228-10.357,6.945-17.571,15.911-16.804c9.691,0.83,17.248,10.57,15.714,20.241
		c-0.118,0.744-0.155,1.501-0.241,2.358c6.838-1.456,10.451-5.924,10.8-12.589c0.054-1.016,1.069-2.331,2.008-2.89
		c3.75-2.237,7.606-1.844,10.819,0.933c3.232,2.794,3.615,6.772,1.454,10.166c-2.757,4.326-6.404,8.073-9.474,12.214
		c-1.09,1.469-1.609,3.359-2.39,5.057c0.394,0.257,0.786,0.514,1.179,0.771c0.732-0.431,1.607-0.725,2.176-1.314
		c5.59-5.792,10.857-11.935,16.824-17.306c2.25-2.025,6.021-2.646,9.221-3.196c1.287-0.222,3.318,1.172,4.188,2.41
		c0.413,0.586-0.912,2.671-1.776,3.835c-3.918,5.277-8.128,10.348-11.832,15.767c-1.031,1.508-0.689,3.955-0.235,6.238
		c6.977-10.352,12.997-21.271,26.288-24.175c1.744-0.381,3.817,0.743,5.825,1.189c-3.754,5.553-7.25,10.331-10.28,15.388
		c-1.369,2.287-2.108,5.083-2.54,7.743c-0.203,1.251,1,2.73,1.565,4.105c1.535-0.667,3.646-0.919,4.484-2.087
		c1.571-2.188,2.393-4.913,3.552-7.402c4.131-8.875,10.645-15.736,18.354-21.562c1.15-0.87,2.441-1.605,3.763-2.189
		c4.044-1.787,8.23-3.651,12.252-0.184c2.55,2.198,1.989,8.358-0.868,13.187c-5.093,8.603-12.847,14.012-21.903,17.555
		c-2.461,0.962-3.24,2.003-3.221,4.434c0.057,6.596,2.645,11.233,7.458,12.949c5.595,1.995,9.858,0.033,15.61-7.355
		c-3.522-4.494-4.899-9.465-0.623-14.251c1.315-1.472,3.766-1.931,5.697-2.854c0.829,1.815,2.264,3.591,2.389,5.454
		c0.938,13.993-14.597,30.34-28.542,30.275c-5.396-0.025-11.356-5.074-13.148-11.245C346.649,207.93,346.122,205.41,345.273,201.957
		z M265.519,170.762c3.501,0.939,6.019,2.064,8.566,2.139c1.633,0.048,4.164-1.027,4.817-2.335
		c2.894-5.793,0.431-13.12-5.484-15.435c-2.41-0.942-6.029-0.565-8.399,0.615c-2.972,1.48-3.695,4.83-2.816,7.859
		c3.623-0.672,6.951-1.289,10.279-1.906c0.104,0.459,0.209,0.917,0.314,1.377C270.651,165.341,268.507,167.606,265.519,170.762z
		 M360.322,189.984c6.45-3.276,11.907-7.588,14.604-14.397c0.594-1.5-0.733-3.762-1.176-5.673c-1.689,0.473-3.97,0.411-4.969,1.511
		C364.101,176.574,360.646,182.455,360.322,189.984z M260.748,177.519c-0.972,3.931-2.361,7.529-2.632,11.21
		c-0.272,3.705,3.115,5.634,6.209,3.567c3.163-2.113,5.772-5.055,8.609-7.622C268.69,182.181,265.308,180.195,260.748,177.519z"/>
	<path fill-rule="evenodd" clip-rule="evenodd" fill="#FFFFFF" d="M81.79,219.914c4.965-4.763,9.931-9.525,15.038-14.425
		c0.517,1.313,1.176,2.991,1.913,4.866c-5.524,3.462-10.918,6.842-16.313,10.22C82.215,220.355,82.003,220.135,81.79,219.914z"/>
	<path fill-rule="evenodd" clip-rule="evenodd" fill="#FFFFFF" d="M176.272,154.939c-1.422-1.691-2.608-3.102-3.838-4.564
		c3.573-2.747,6.825-5.249,10.077-7.749c0.375,0.281,0.749,0.564,1.123,0.846C181.27,147.153,178.906,150.836,176.272,154.939z"/>
	<path fill-rule="evenodd" clip-rule="evenodd" fill="#FFFFFF" d="M83.1,189.559c-3.12,2.659-6.241,5.319-10.131,8.633
		C73.777,192.593,76.773,190.043,83.1,189.559z"/>
	<path fill-rule="evenodd" clip-rule="evenodd" fill="#FFFFFF" d="M243.087,173.189c0.116-2.242,0.19-4.49,0.479-6.709
		c0.014-0.112,1.889,0.018,2.897,0.035c-0.261,2.26-0.521,4.52-0.78,6.778C244.817,173.259,243.952,173.225,243.087,173.189z"/>
	<path fill-rule="evenodd" clip-rule="evenodd" fill="#FFFFFF" d="M371.16,196.164c0.664,2.671,1.119,4.5,1.978,7.955
		c-2.965-1.521-4.856-2.492-7.765-3.984C367.83,198.448,369.184,197.521,371.16,196.164z"/>
	<path fill-rule="evenodd" clip-rule="evenodd" d="M224.887,137.434c5.161,1.702,10.179,3.356,15.08,4.972
		c-1.926,1.816-4.385,4.049-6.746,6.379c-4.282,4.229-6.683,9.382-7.496,15.343c-0.188,1.369-0.557,2.975-1.429,3.943
		c-4.963,5.501-10.02,10.928-15.245,16.18c-1.299,1.305-3.259,2.124-5.062,2.717c-3.094,1.017-5.672-0.246-6.521-3.267
		c-0.775-2.76-0.912-5.473,3.177-6.763c9.059-2.857,16.165-8.632,21.368-16.565c4.713-7.188,2.705-11.775-5.246-13.171
		C219.574,143.825,222.476,140.337,224.887,137.434z"/>
	<path fill-rule="evenodd" clip-rule="evenodd" d="M197.609,115.852c0.862,0.238,3.145,0.546,5.128,1.484
		c3.504,1.659,6.327,4.049,5.566,8.569c-0.651,3.865-4.824,7.298-9.043,7.417c-5.438,0.153-9.224-2.901-11.912-7.084
		C184.996,122.578,190.94,115.82,197.609,115.852z"/>
	<path fill-rule="evenodd" clip-rule="evenodd" d="M112.041,175.699c6.596-11.885,12.244-22.063,17.892-32.239
		c0.452-0.045,0.903-0.09,1.354-0.135c0.155,2.245,1.201,4.956,0.312,6.653c-4.396,8.391-9.21,16.57-14.165,24.646
		C116.891,175.509,114.499,175.258,112.041,175.699z"/>
	<path fill-rule="evenodd" clip-rule="evenodd" d="M191.393,113.966c1.241-4.286,2.125-8.719,3.828-12.813
		c1.592-3.83,4.977-2.056,7.405-0.953c2.68,1.218,4.025,3.988,1.594,6.263c-3.533,3.306-7.693,5.941-11.586,8.862
		C192.219,114.872,191.806,114.419,191.393,113.966z"/>
	<path fill-rule="evenodd" clip-rule="evenodd" d="M225.946,173.2c0,5.217,0.298,9.058-0.143,12.812
		c-0.181,1.537-1.911,4.017-3.012,4.058c-1.667,0.063-3.986-1.248-4.931-2.692c-0.892-1.364-1.16-4.215-0.305-5.426
		C219.62,179.03,222.499,176.684,225.946,173.2z"/>
	<path fill-rule="evenodd" clip-rule="evenodd" d="M199.705,170.906c4.877-6.104,8.506-12.348,16.236-14.801
		C216.544,162.542,207.874,170.512,199.705,170.906z"/>
	<path fill-rule="evenodd" clip-rule="evenodd" d="M241.276,103.792c2.629,5.713-0.954,12.405-7.974,15.409
		C231.324,113.647,234.671,106.979,241.276,103.792z"/>
	<path fill-rule="evenodd" clip-rule="evenodd" d="M265.519,170.762c2.988-3.156,5.133-5.421,7.277-7.686
		c-0.105-0.46-0.21-0.918-0.314-1.377c-3.328,0.617-6.656,1.234-10.279,1.906c-0.879-3.029-0.155-6.378,2.816-7.859
		c2.37-1.18,5.989-1.558,8.399-0.615c5.915,2.314,8.378,9.641,5.484,15.435c-0.653,1.308-3.185,2.383-4.817,2.335
		C271.537,172.826,269.02,171.701,265.519,170.762z"/>
	<path fill-rule="evenodd" clip-rule="evenodd" d="M360.322,189.984c0.324-7.529,3.778-13.41,8.459-18.559
		c0.999-1.101,3.279-1.038,4.969-1.511c0.442,1.911,1.77,4.173,1.176,5.673C372.229,182.396,366.772,186.708,360.322,189.984z"/>
	<path fill-rule="evenodd" clip-rule="evenodd" d="M260.748,177.519c4.56,2.677,7.942,4.663,12.187,7.155
		c-2.837,2.567-5.446,5.509-8.609,7.622c-3.094,2.067-6.481,0.138-6.209-3.567C258.387,185.048,259.776,181.449,260.748,177.519z"/>
</g>
</svg>
