<?xml version="1.0" encoding="utf-8"?>
<!-- Generator: Adobe Illustrator 16.0.0, SVG Export Plug-In . SVG Version: 6.00 Build 0)  -->
<!DOCTYPE svg PUBLIC "-//W3C//DTD SVG 1.1//EN" "http://www.w3.org/Graphics/SVG/1.1/DTD/svg11.dtd">
<svg version="1.1" id="Layer_1" xmlns="http://www.w3.org/2000/svg" xmlns:xlink="http://www.w3.org/1999/xlink" x="0px" y="0px"
	 width="400px" height="400px" viewBox="0 0 400 400" enable-background="new 0 0 400 400" xml:space="preserve">
<g>
	<path fill-rule="evenodd" clip-rule="evenodd" fill="#040506" d="M343.183,243.085c0.603,2.354,3.024,2.86,3.383,5.065
		c0.995,6.125,4.386,4.577,7.702,2.036c3.57-2.735,8.113-4.036,10.735-8.294c1.16-1.883,3.66-0.074,5.397,0.85
		c6.581,3.506,9.402,10.078,10.916,16.443c2.379,10.007,3.175,20.35-0.417,30.549c-2.837,8.056-7.232,15.223-12.213,21.962
		c-5.251,7.107-13.91,7.164-21.64,8.522c-3.422,0.601-5.372-4.177-3.003-7.108c1.207-1.495,3.003-3.011,4.795-3.453
		c10.761-2.653,7.968-11.102,7.625-18.093c-0.367-7.49-4.204-13.334-11.734-15.298c-10.955-2.857-20.445-9.364-27.301-16.998
		c-6.48-7.217-11.335-17.684-9.162-29.005c0.29-1.513,0.731-3.336,0.175-4.61c-2.474-5.666-0.046-9.644,3.759-13.545
		c1.105-1.133,4.059-2.659,0.634-5.03c-1.029-0.714,0.648-2.369,1.501-3.3c4.538-4.957,9.847-9,15.687-12.255
		c1.826-1.019,3.647-1.208,4.829-3.633c2.373-4.868,5.021,0.696,7.768,0.524c2.424-0.152,1.825,2.382,1.406,4.108
		c-0.652,2.693-2.058,5.064-4.202,6.66c-5.064,3.767-7.953,8.604-6.002,14.75c2.399,7.553,7.284,13.26,15.474,15.089
		c2.159,0.483,4.439,0.42,6.215,1.979c1.568,1.377,4.358,2.03,3.53,4.98c-0.798,2.835-1.906,5.473-5.526,5.798
		C350.196,242.075,346.903,242.604,343.183,243.085z M380.991,275.885c-0.519-1.587,0.604-4.452-2.302-3.766
		c-3.494,0.823-6.44,3.384-7.401,6.789c-0.649,2.295,1.703,4.104,4.215,3.923C379.745,282.525,380.021,278.867,380.991,275.885z"/>
	<path fill-rule="evenodd" clip-rule="evenodd" fill="#040506" d="M258.979,242.821c0.319,0.949,0.38,1.613,0.583,1.662
		c3.959,0.921,1.188,8.784,6.8,7.196c4.595-1.302,9.162-3.756,12.177-7.666c2.859-3.707,5.278-2.805,8.457-0.779
		c6.002,3.825,8.37,9.965,10.081,16.208c4.973,18.144-0.182,34.21-10.353,49.408c-5.998,8.964-15.226,9.989-24.329,11.352
		c-3.425,0.512-4.957-4.454-2.329-7.399c1.288-1.446,3.063-2.929,4.867-3.365c10.627-2.579,7.454-10.953,7.285-17.65
		c-0.188-7.534-4.13-13.475-11.524-15.439c-10.953-2.91-20.559-9.268-27.308-16.939c-6.492-7.384-12.112-17.794-9.284-29.454
		c0.208-0.854,0.483-1.895,0.192-2.637c-2.77-7.047,3.481-11.657,4.502-17.092c2.317-12.337,11.786-14.846,20.117-19.712
		c1.916-1.119,1.542-5.367,5.462-4.166c6.514,1.997,7.273,5.007,3.07,10.851c-2.303,3.202-6.582,4.508-7.673,8.882
		c-2.38,9.544,4.72,20.554,15.213,22.844c4.355,0.95,9.667,1.47,9.601,6.896c-0.079,6.231-6.01,6.007-10.545,6.684
		C262.507,242.731,260.935,242.706,258.979,242.821z M296.631,276.277c-0.346-1.883,0.829-4.916-2.501-4.183
		c-3.396,0.748-6.606,3.246-7.915,6.063c-0.974,2.098,1.925,4.771,4.921,4.678C295.282,282.705,296.461,279.715,296.631,276.277z"/>
	<path fill-rule="evenodd" clip-rule="evenodd" fill="#040506" d="M50.669,205.721c2.635,7.707,2.772,13.89,2.201,20.069
		c-1.11,12.029-1.032,24.001,1.57,35.831c1.877,8.538-0.75,16.679-1.689,24.975c-0.543,4.789-1.135,9.215,1.183,14.179
		c1.931,4.133,1.714,9.67-1.915,13.864c-3.602,4.163-8.573,4.257-12.929,2.702c-7.921-2.828-14.871-3.259-20.952,3.624
		c-0.819,0.927-2.445,2.646-3.903,0.811c-1.342-1.689,0.454-2.893,1.492-3.818c3.647-3.256,7.455-6.333,11.171-9.512
		c1.258-1.078,3.649-2.348,1.404-4.002c-1.314-0.968-1.529-5.681-5.22-2.194c-2.206,2.083-3.607-0.009-4.108-2.129
		c-0.457-1.928-0.938-4.023-0.643-5.926c1.933-12.402,1.011-24.79,0.118-37.185c-0.506-7.033-0.095-14.088-0.265-21.083
		c-0.106-4.326,2.678-6.985,3.172-10.864c0.729-5.724-4.058-9.886-2.907-15.348c1.118-5.301,1.011-9.627-5.723-11.539
		c-3.117-0.886-1.346-3.9,0.626-5.037c6.095-3.513,11.969-6.598,19.889-4.66c5.064,1.238,10.576,2.096,15.878,2.385
		c3.575,0.194,3.638,1.179,3.019,3.807c-0.56,2.373-1.393,4.771-1.411,7.163c-0.024,3.166-1.564,3.492-4.138,3.424
		c-5.564-0.147-11.135,0.006-16.702-0.072c-2.45-0.033-4.406,0.335-4.792,3.267c-0.322,2.437,0.468,3.481,3.109,3.757
		c1.203,0.127,2.598,1.776,3.233,3.066c0.683,1.392,1.548,1.551,2.816,2.067c4.744,1.93,5.001-5.245,9.36-4.198
		C48.069,214.214,50.745,212.14,50.669,205.721z"/>
	<path fill-rule="evenodd" clip-rule="evenodd" fill="#050507" d="M183.449,267.03c5.668,3.873,5.895,6.639-0.726,8.929
		c11.891,3.357,20.493,0.959,27.244-7.783c2.133,8.213-3.939,27.661-10.968,35.277c-8.884,9.629-20.101,15.048-33.059,17.471
		c-0.862-1.659-1.167-3.822,0.656-5.568c11.765-11.259,10.909-25.313,9.13-39.704c-0.926-7.494-4.089-15.029,0.052-22.599
		c0.943-1.726,1.633-5.051,3.044-4.731c9.197,2.083,7.334-6.765,11.309-10.215c-10.775-1.735-10.919-1.682-11.506,4.495
		c-5.233-5.646-3.635-11.896-3.438-18.181c0.308-9.783,0.949-19.859-5.641-28.354c-1.823-2.349-1.716-3.385,1.516-4.552
		c7.595-2.743,12.258-0.709,19.171,4.389c18.224,13.438,19.125,32.884,22.152,51.867c0.832,5.223-1.273,8.965-6.715,13.231
		C198.887,266.321,192.348,266.027,183.449,267.03z"/>
	<path fill-rule="evenodd" clip-rule="evenodd" fill="#050507" d="M83.36,250.306c6.803,1.074,9.761,6.061,14.029,9.835
		c9.315,8.236,7.796,18.828,8.759,28.811c1.684,17.472-12.073,29.55-29.205,26.354c-3.61-0.673-7.081,0.176-10.612,0.56
		c-2.084,0.228-4.333,1.004-5.51-2.072c-1.273-3.326,1.176-4.087,3.076-4.725c3.461-1.16,4.692-3.586,5.372-6.852
		c2.146-10.314,2.651-20.752,2.475-31.232c-0.081-4.836-3.838-7.808-6.407-11.347c-1.815-2.498-4.51-4.333-5.557-7.416
		c-0.586-1.724-1.116-2.964,1.4-4.024c8.663-3.655,12.74-12.778,9.716-21.877c-1.368-4.113-1.911-8.168-1.704-12.43
		c0.46-9.524,4.395-13.33,13.813-14.477c2.742-0.334,8.285,2.674,7.738-4.542c-0.135-1.772,2.348-0.703,3.042,0.077
		c1.754,1.968,3.466,4.082,4.673,6.408c3.291,6.34,5.157,13.24,6.703,20.146c1.903,8.495-3.941,17.446-14.775,23.948
		C88.191,246.769,85.393,247.223,83.36,250.306z M102.632,274.472c0.17-4.604-0.498-7.609-5.258-3.401
		c-0.94,0.83-1.961,0.782-2.992,1.076c-8.404,2.396-13.479,9.166-19.328,14.895c-2.616,2.561-2.717,6.219-0.721,8.484
		c2.638,2.992,4.287-0.727,6.202-2.237c1.818-1.432,3.459-2.949,5.092-4.586c3.507-3.515,6.705-8.429,12.405-8.48
		C102.805,280.179,102.873,277.518,102.632,274.472z"/>
	<path fill-rule="evenodd" clip-rule="evenodd" fill="#08090C" d="M140.736,336.772c-1.82,2.818-2.711,3.814-3.157,4.98
		c-0.625,1.632,0.061,2.949,1.481,4.021c1.858,1.402,2.608,0.065,3.694-1.115c6.157-6.694,13.769-6.972,22.296-6.064
		c5.944,0.633,12.145-1.021,18.217-1.772c1.721-0.213,3.721-1.367,4.496,1.096c1.757,5.596,5.443,4.433,8.932,2.454
		c4.866-2.76,9.917-2.863,15.299-2.755c2.969,0.06,6.607,1.519,9.273-1.845c0.561-0.705,2.859-0.425,4.206-0.053
		c15.464,4.269,31.153-3.028,46.71,1.089c5.79,1.534,11.874-0.79,17.825-1.35c1.658-0.157,3.704-1.294,4.632,1.075
		c0.728,1.857-0.521,3.375-1.484,4.871c-3.488,5.427-7.757,5.987-14.552,6.304c-18.886,0.877-37.83-3.137-56.749,1.141
		c-4.496,1.018-10.468,2.156-15.512-0.668c-4.623-2.589-8.855,1.095-13.531,0.896c-17.139-0.732-34.421-1.675-51.451-0.214
		c-13.455,1.153-26.728-2.583-39.671-0.733c-19.432,2.777-38.782-1.728-58.219,1.438c-6.328,1.032-13.872-1.017-20.904-1.244
		c-3.712-0.122-7.233,1.799-11.139,0.351c-2.374-0.88-3.863-1.487-3.915-4.346c-0.052-2.801,1.255-3.911,3.682-4.646
		c5.848-1.771,11.916-2.026,17.906-2.79c2.023-0.258,4.059-0.092,4.13,2.901c0.13,5.469,3.891,5.224,6.601,2.943
		c4.754-4,11.129-2.906,15.963-6.137c1.063-0.712,2.161-0.319,3.095,0.363c6.39,4.667,13.086,1.998,19.809,1.054
		c7.895-1.11,15.978-1.521,23.717,0.363c4.306,1.047,8.808,0.413,12.254-0.266C122.956,336.483,130.973,338.972,140.736,336.772z"/>
	<path fill-rule="evenodd" clip-rule="evenodd" fill="#040506" d="M154.676,210.164c-0.035,6.925,0.739,13.474-1.565,19.934
		c-0.798,2.233-1.169,4.848-0.911,7.196c1.866,16.938,1.216,33.872-0.062,50.777c-0.498,6.572,0.899,12.154,4.913,17.312
		c1.757,2.257,3.048,4.891,4.444,7.411c1.486,2.682,0.479,5.252-0.957,7.488c-1.907,2.969-4.101,0.262-5.805-0.379
		c-7.284-2.74-14.373-6.059-20.078-11.498c-6.281-5.99-10.934-12.796-8.081-22.194c0.54-1.773-0.554-2.422-1.816-2.973
		c-3.625-1.58-4.571-5.044-6.26-8.182c-5.382-9.992,0.749-20.131-0.779-30.123c-0.059-0.383,0.252-0.847,0.455-1.238
		c2.997-5.813-1.378-15.215,5.973-17.999c6.261-2.37,12.525-5.557,19.275-6.591C148.893,218.267,150.084,213.007,154.676,210.164z"
		/>
	<path fill-rule="evenodd" clip-rule="evenodd" fill="#050507" d="M291.206,136.973c-2.819,0-5.24,0.058-7.658-0.02
		c-1.79-0.056-2.798-1.114-3.113-2.865c-0.279-1.561,0.342-2.641,1.821-3.067c2.97-0.858,5.927-1.936,8.966-2.309
		c2.426-0.298,1.369-2.381,1.21-2.578c-2.871-3.563-1.033-8.171-2.768-11.94c-0.271-0.59-0.788-1.514-0.561-1.826
		c4.921-6.773-0.966-9.66-5.182-13.535c3.126-2.811,6.797-2.324,10.018-1.892c7.444,0.998,14.814,2.471,22.285,0.387
		c1.164-0.325,2.246-0.342,2.838,0.87c0.823,1.686,0.063,3.13-1.226,4.106c-2.346,1.78-4.35,3.437-4.078,6.933
		c1.409,18.065-0.738,36.19,0.795,54.271c0.231,2.716-1.425,5.923,5.39,5.021c-4.959,3.247-8.186,1.813-11.021,1.629
		c-6.752-0.438-13.146,1.809-19.779,1.792c-1.438-0.003-3.521,0.649-3.493-1.755c0.015-1.256-1.059-3.544,2.327-3.314
		c3.544,0.241,1.382-2.909,1.727-4.485c0.881-4.025-2.427-9.422,4.348-11.519c1.211-0.375,2.006-4.847,0.617-5.052
		C288.557,144.918,290.445,141.007,291.206,136.973z"/>
	<path fill-rule="evenodd" clip-rule="evenodd" fill="#060709" d="M9.756,101.253c11.584-3.208,21.771-4.125,32.061-4.248
		c1.818-0.021,2.576,1.552,3.352,2.874c0.718,1.221-0.089,1.653-1.037,2.489c-4.837,4.268-6.904,13.69-4.553,19.892
		c2.266,5.974,1.317,12.141,1.002,18.217c-0.246,4.749-3.235,5.887-7.783,5.284c-2.036-0.269-6.171-1.413-6.324,1.44
		c-0.168,3.134,4.167,1.977,6.42,2.703c1.951,0.629,4.449,0.003,6.184-3c1.204,5.269,3.025,9.497,2.282,14.112
		c-0.386,2.402,0.796,3.756,2.389,5.067c1.924,1.583,1.841,3.3,0.504,5.253c-1.407,2.056-2.977,2.205-5.123,1.1
		c-5.776-2.976-11.93-0.881-17.897-0.947c-2.601-0.028-5.398,1.107-7.823-0.054c-1.524-0.729-6.051-2.3-0.62-4.427
		c2.671-1.045,2.411-3.397,2.928-5.488c1.237-4.995,0.609-10.354,3.219-15.119c0.773-1.413,1.873-3.502-1.232-4.634
		c-2.52-0.919-2.001-3.665-1.998-5.865c0.01-6.662-0.513-13.384,0.214-19.967C16.556,110.198,15.875,105.481,9.756,101.253z"/>
	<path fill-rule="evenodd" clip-rule="evenodd" fill="#050507" d="M325.794,101.358c6.979-3.309,13.887-5.459,20.752-1.79
		c3.341,1.785,7.726-2.373,10.005,2.369c1.76,3.663-1.563,6.801-1.166,10.338c0.025,0.221,0.025,0.445,0.025,0.669
		c-0.037,10.598,0.006,10.769-9.962,13.285c-2.91,0.735-5.219,2.1-7.649,3.617c-1.335,0.834-3.014,1.105-2.201,3.178
		c0.847,2.16,2.642,3.314,4.775,2.438c3.781-1.554,7.313-3.717,11.102-5.254c1.488-0.604,2.272-3.389,3.9-2.146
		c1.65,1.262,2.547,3.574,2.613,5.882c0.019,0.644-0.176,1.344-0.445,1.941c-4.056,9.051-3.037,18.493-2.293,27.947
		c0.573,7.293-4.368,11.375-11.364,8.74c-3.718-1.401-6.868-2.468-10.681-0.836c-1.89,0.81-4.092,0.679-5.432-1.263
		c-1.475-2.138,0.186-3.082,1.456-4.776c1.734-2.311,2.991-5.774,2.78-8.621c-1.146-15.467-0.993-30.929-0.506-46.397
		C331.638,106.417,327.513,105.084,325.794,101.358z"/>
	<path fill-rule="evenodd" clip-rule="evenodd" fill="#08090C" d="M133.793,122.695c-5.056,4.521-8.943,8.437-14.691,10.521
		c-2.224-8.831-0.785-17.555-2.04-26.023c-0.062-0.421,0.039-0.915,0.209-1.312c0.74-1.715,14.042-7.063,15.632-6.134
		c1.688,0.987,3.252,2.04,3.128,4.623c-0.109,2.256,0.099,5.101,3.854,4.169c2.767-0.687,1.473,1.607,1.45,2.327
		c-0.231,7.494,1.381,15.076-1.002,22.479c-0.262,0.813-0.501,1.962-0.134,2.601c3.708,6.45,2.331,11.39-3.91,15.386
		c-0.803,0.515-3.178,1.852-1.807,3.629c1.47,1.905,3.071,0.85,4.396-0.652c0.537-0.607,1.271-1.038,2.128-1.719
		c3.14,5.446,0.396,12.347,5.229,17.087c0.767,0.754-1.735,3.722-3.25,3.195c-9.339-3.253-18.96,2.068-28.206-1.202
		c-1.019-0.359-1.956-0.955-3.905-1.925c12.616-5.483,5.696-16.123,7.308-24.443c0.885-4.564,0.308-8.126,6.21-10.38
		C132.512,131.821,132.54,130.433,133.793,122.695z"/>
	<path fill-rule="evenodd" clip-rule="evenodd" fill="#060709" d="M276.666,103.722c-1.069,3.21-0.982,6.389-0.521,9.766
		c1.213,8.874-1.008,17.742-0.515,26.625c0.157,2.837-0.47,3.719-3.425,3.662c-5.418-0.104-9.27,3.333-13.154,6.595
		c-1.563,1.313-3.814,2.847-2.235,4.636c1.282,1.452,3.946,1.17,5.996-0.469c4.017-3.216,8.555-5.512,13.416-6.91
		c0.454,7.328-3.045,15.154,4.328,20.853c0.803,0.618,1.774,1.67,1.017,2.816c-0.756,1.143-2.072,1.875-3.478,1.444
		c-8.69-2.668-17.432-2.95-26.29-0.938c-1.792,0.407-3.592,0.25-4.562-1.759c-0.845-1.746,0.197-3.133,1.185-4.209
		c1.561-1.701,2.911-3.34,2.438-5.815c-1.88-9.849,3.072-19.024,2.804-28.692c-0.057-2.088,1.621-2.383,2.499-3.508
		c1.094-1.404,2.687-3.298,1.034-4.653c-2.139-1.758-2.577,1.034-3.578,2.209c-0.348,0.409-1.023,0.536-2.153,1.083
		c-0.235-4.859-1.835-9.229,0.073-13.638c0.647-1.497,0.951-2.882,0.661-4.489c-1.953-10.836-1.633-11.198,9.589-11.215
		c0.438,0.773,0.879,1.545,1.318,2.318c-2.908,1.979-5.39,4.086-2.429,7.876c3.101,3.971,4.142-1.14,6.269-1.568
		c2.706-0.542,5.191-2.187,7.771-3.357C275.369,102.83,276.018,103.277,276.666,103.722z"/>
	<path fill-rule="evenodd" clip-rule="evenodd" fill="#060709" d="M106.874,128.018c1.843-3.176,3.136-5.404,4.815-8.298
		c1.952,4.175,4.28,7.753,1.918,11.637c-5.907,9.716-6.322,20.934-9.143,31.49c-0.057,0.212-0.032,0.444-0.059,0.665
		c-0.437,3.454-2.358,7.602-4.904,7.864c-3.282,0.34-3.498-4.478-4.446-7.208c-6.053-17.425-11.913-34.918-17.716-52.429
		c-0.923-2.786-1.575-5.439-4.729-6.65c-1.492-0.573-2.567-1.95-2.029-3.75c0.558-1.866,2.458-1.349,3.749-1.948
		c4.96-2.308,9.541-1.847,14.153,0.741c0.685,0.386,1.799,0.805,2.348,0.515c8.293-4.387,7.527,1.865,9.458,6.941
		C102.695,113.913,105.46,120.052,106.874,128.018z"/>
	<path fill-rule="evenodd" clip-rule="evenodd" fill="#050507" d="M191.491,170.326c3.958-11.076,6.313-21.43,4.298-32.953
		c-0.933-5.338-1.141-11.254-0.773-16.896c0.194-2.962,2.686-4.469,5.386-3.704c6.902,1.956,12.646-1.169,18.992-3.628
		c-0.513,15.797-1.342,31.525-0.345,47.261c0.142,2.229,0.916,3.719,2.583,5.067c1.063,0.859,3.408,1.256,2.398,3.279
		c-0.737,1.479-1.932,3.068-4.045,3.018c-7.392-0.175-14.833,1.515-22.176-0.962C195.805,170.131,193.463,170.451,191.491,170.326z"
		/>
	<path fill-rule="evenodd" clip-rule="evenodd" fill="#131619" d="M369.854,88.823c-25.896,0-51.114-0.002-76.33,0.002
		c-12.665,0.003-25.33,0.153-37.99-0.074c-2.627-0.047-6.532,1.69-7.51-3.125c-0.278-1.356-1.701-0.76-1.989-0.152
		c-2.339,4.931-6.839,3.075-10.45,3.18c-13.742,0.396-27.463,0.569-41.23-0.573c-5.579-0.462-11.437,1.085-17.217,0.384
		c-1.449-0.176-3.36,0.452-3.792-1.734c-0.446-2.26,0.986-2.915,2.919-3.544c2.936-0.958,5.03-1.689,8.262,0.674
		c4.444,3.248,10.184,1.524,15.175,0.038c1.239-0.369,2.516-1.803,4.043-1.474c10.783,2.321,21.492-0.205,32.217-0.187
		c7.655,0.015,15.778-0.414,22.895,3.964c1.639,1.008,3.36,1.154,5.612,0.603c10.2-2.493,20.302-5.66,31.19-3.582
		c3.918,0.747,8.351,0.639,12.447-1.203c1.359-0.61,4.646-0.148,4.963,0.65c2.629,6.649,5.79,2.778,9.104,0.885
		c4.15-2.371,8.581-0.119,12.829-0.102c15.135,0.058,30.179-0.576,45.197-2.433c2.597-0.321,5.318,0.197,7.962,0.499
		c1.647,0.187,2.965,0.992,3.023,2.943c0.051,1.716-0.474,3.264-2.297,3.553c-3.372,0.536-0.345-2.059-1.259-2.815
		c-1.514-1.251-2.9-0.104-4.293,0.231C378.634,86.563,373.953,87.784,369.854,88.823z"/>
	<path fill-rule="evenodd" clip-rule="evenodd" fill="#08090C" d="M331.62,346.798c-10.159,0.493-20.314,1.041-30.476,1.435
		c-1.522,0.06-3.827,1.171-4.379-1.478c-0.47-2.252,0.806-4.381,2.796-4.678c3.209-0.478,4.112-2.098,5.105-4.942
		c1.317-3.775,5.576-2.081,7.74-1.644c6.89,1.392,13.274,3.022,20.542,0.562c5.235-1.772,11.272-1.208,17.021,0.016
		c7.921,1.684,15.875,0.631,23.783-0.668c1.641-0.269,3.725-1.333,4.865,0.615c1.185,2.03-0.426,3.669-1.458,5.395
		c-3.429,5.728-7.83,6.048-14.562,6.303C352.168,348.109,341.943,346.122,331.62,346.798z"/>
	<path fill-rule="evenodd" clip-rule="evenodd" fill="#08090C" d="M222.801,296.377c0-5.547-0.06-11.093,0.038-16.638
		c0.026-1.518,0.2-3.183,0.865-4.498c0.994-1.959,2.438-4.275,4.695-4.338c2.633-0.072,2.864,2.951,3.819,4.793
		c1.953,3.763,1.58,8.1,2.904,12.146c3.011,9.184,8.743,15.848,16.069,21.687c2.459,1.961,5.686,4.864,2.612,8.401
		c-2.613,3.01-5.581,1.32-8.848-0.327c-5.228-2.64-11.003-7.584-16.377,0.473c-1.795,2.692-2.691,0.352-3.213-1.469
		C223.468,309.992,221.86,303.329,222.801,296.377z M233.546,305.599c-0.435-1.125,1.354-4.463-1.495-4.206
		c-3.057,0.275-6.348,2.646-7.381,5.52c-0.622,1.731,1.815,3.874,4.842,4.021C233.386,311.12,234.13,309.312,233.546,305.599z"/>
	<path fill-rule="evenodd" clip-rule="evenodd" fill="#08090C" d="M305.996,297.72c1.072-6.289,1.27-12.275,1.07-18.28
		c-0.07-2.065,0.417-3.925,1.692-5.603c3.227-4.248,5.123-3.974,7.392,0.85c1.911,4.063,1.816,8.546,3.131,12.782
		c3.009,9.691,9.397,16.467,16.805,22.729c2.463,2.083,4.72,4.972,1.809,7.949c-2.431,2.486-5.296,1.289-8.419-0.253
		c-5.157-2.546-10.726-8.171-16.33-0.082c-2.304,3.33-3.096,0.225-3.676-1.544C307.456,310.14,306.792,303.756,305.996,297.72z
		 M317.855,305.229c-0.528-1.166,1.352-4.701-1.996-3.804c-2.819,0.756-6.118,2.725-6.962,5.854
		c-0.339,1.252,1.52,3.649,4.422,3.652C317.338,310.938,318.295,308.986,317.855,305.229z"/>
	<path fill-rule="evenodd" clip-rule="evenodd" fill="#08090C" d="M292.64,185.491c3.482,6.685,3.542,12.599,2.383,18.198
		c-1.269,6.129-0.352,11.873,0.748,17.749c0.243,1.299,0.907,2.778,0.531,3.885c-0.986,2.886-2.002,6.58-5.644,6.576
		c-3.521-0.004-2.555-3.897-2.713-5.863c-1.02-12.748-9.875-19.787-18.807-26.867c-1.809-1.434-5.071-1.923-4.542-5.039
		c0.524-3.086,3.679-3.546,6.095-4.527c2.889-1.173,6.114-0.986,8.294,0.88C285.556,196.111,289.393,193.158,292.64,185.491z"/>
	<path fill-rule="evenodd" clip-rule="evenodd" fill="#060709" d="M377.07,185.72c3.323,6.551,3.432,12.469,2.205,18.05
		c-1.35,6.14-0.339,11.874,0.804,17.719c0.393,2.003,0.835,3.801-0.239,5.775c-1.188,2.18-2.235,4.856-4.986,4.702
		c-3.152-0.176-2.466-3.48-2.588-5.346c-0.85-12.984-9.669-20.313-18.908-27.424c-1.841-1.416-4.972-2.069-4.413-5.156
		c0.558-3.086,3.695-3.541,6.114-4.483c3.407-1.33,7.005-0.599,9.451,1.565c5.594,4.947,8.43,2.022,11.013-2.978
		C375.815,187.581,376.206,187.066,377.07,185.72z"/>
	<path fill-rule="evenodd" clip-rule="evenodd" fill="#131619" d="M134.704,84.561c2.75,2.852,2.729,2.714,8.856,1.745
		c3.167-0.501,6.427-0.418,9.672-0.602c-0.068,2.616-1.66,3.211-4.264,3.2c-24.135-0.111-48.271-0.069-72.407-0.214
		c-1.984-0.013-5.051,1.132-4.866-3.343c0.199-4.833,2.975-2.68,5.368-2.97c9.051-1.095,18.095,2.72,27.158-0.197
		c2.019-0.649,4.723-1.648,5.506,2.45c0.415,2.167,3.261,3.328,5.271,1.604c8.326-7.139,17.975-2.456,26.887-4.11
		C139.833,84.512,136.818,82.574,134.704,84.561z"/>
	<path fill-rule="evenodd" clip-rule="evenodd" fill="#08090C" d="M131.782,214.57c-3.536,0.011-6.777,0.088-7.82-2.563
		c-0.994-2.525,1.961-4.153,3.613-5.775c7.647-7.513,16.833-12.819,26.213-17.794c1.687-0.895,3.943-2.085,5.528-0.484
		c1.751,1.77-0.021,3.991-1.069,5.303c-6.482,8.114-11.333,18.104-22.713,20.875C134.044,214.494,132.466,214.496,131.782,214.57z"
		/>
	<path fill-rule="evenodd" clip-rule="evenodd" fill="#08090C" d="M77.499,129.802c4.091,6.937,5.786,14.599,5.078,22.344
		c-0.582,6.368,1.384,10.711,6.495,13.975c1.333,0.851,3.019,1.566,2.734,3.34c-0.274,1.704-2.175,1.867-3.551,2.531
		c-5.692,2.745-11.215-1.068-16.92-0.428c-1.59,0.179-1.072-2.86,0.204-3.606c8.408-4.913,5.215-13.187,5.851-20.204
		C77.926,141.815,77.499,135.79,77.499,129.802z"/>
	<path fill-rule="evenodd" clip-rule="evenodd" fill="#08090C" d="M365.737,101.552c4.194-5.376,11.443-4.777,14.531-2.701
		c4.683,3.148,1.054,10.487,2.089,15.927c0.467,2.467-1.045,3.662-3.036,4.397c-3.219,1.191-3.846-1.92-4.655-3.492
		c-2.73-5.303-5.01-10.472-12.478-10.377c-2.351,0.029-2.803-3.101-2.428-5.442c0.264-1.646,1.159-2.886,3.02-2.964
		C366.484,96.742,363.545,100.243,365.737,101.552z"/>
	<path fill-rule="evenodd" clip-rule="evenodd" fill="#08090C" d="M181.641,96.721c1.776,0,3.553-0.005,5.329,0.001
		c2.341,0.008,3.433,1.648,4.528,3.373c1.559,2.458-0.776,2.873-1.919,4.038c-4.107,4.187-4.588,9.874-5.972,15.149
		c-0.644,2.456-1.057,5.244-4.234,4.838c-2.599-0.332-2.971-3.05-3.142-5.252c-0.154-1.967-0.238-4.066,0.279-5.931
		c0.999-3.601,1.756-6.536-1.076-10.162C172.265,98.717,174.59,96.596,181.641,96.721z"/>
	<path fill-rule="evenodd" clip-rule="evenodd" fill="#08090C" d="M383.662,157.475c-1.036,3.474-1.279,7.42-1.137,11.409
		c0.118,3.267-1.926,3.476-4.412,3.043c-4.566-0.797-9.109-1.379-13.759-0.329c-1.172,0.264-3.387,1.14-3.595-1.379
		c-0.146-1.769,0.096-3.548,2.596-3.818c6.952-0.75,10.33-5.565,12.854-11.398c0.966-2.232,2.622-5.257,4.851-4.7
		C383.71,150.963,383.442,154.491,383.662,157.475z"/>
	<path fill-rule="evenodd" clip-rule="evenodd" fill="#08090C" d="M206.217,112.432c-3.689-0.879-9.863,0.871-8.547-6.398
		c1.205-6.661,8.274-4.654,12.434-7.027c2.66-1.518,6.809-3.092,9.025,0.226c2.219,3.326,1.006,7.218-2.176,9.921
		C213.952,111.706,210.183,112.109,206.217,112.432z"/>
	<path fill-rule="evenodd" clip-rule="evenodd" fill="#131619" d="M38.033,88.858c-8.994,0-17.989,0.016-26.983-0.017
		c-1.409-0.005-3.192,0.652-3.373-1.9c-0.176-2.499,0.779-3.526,3.264-3.878c6.085-0.865,12.224-0.092,18.36-0.594
		c5.15-0.422,10.813,0.955,16.349,0.554c1.796-0.131,4.107-0.048,3.912,3.107c-0.185,2.989-1.946,2.092-3.687,1.99
		c-2.607-0.153-5.23-0.041-7.845-0.041C38.032,88.338,38.032,88.598,38.033,88.858z"/>
	<path fill-rule="evenodd" clip-rule="evenodd" fill="#131619" d="M369.18,117.904c3.179,9.818,3.255,18.833,4.304,27.685
		c0.203,1.722-0.981,2.935-2.29,3.791c-1.898,1.239-2.93-0.559-3.723-1.629c-2.48-3.35-4.7-6.893-7.045-10.346
		c-0.53-0.785-0.998-1.856-0.224-2.371C365.884,131.254,365.274,123.964,369.18,117.904z"/>
	<path fill-rule="evenodd" clip-rule="evenodd" fill="#08090C" d="M71.732,187.345c3.579,0.085,7.052,0.655,10.491,1.613
		c1.186,0.331,2.13,0.674,2.063,2.046c-0.059,1.208-0.711,1.801-1.979,2.217c-5.348,1.756-10.956,2.55-15.403,6.984
		c-1.377,1.371-7.322,0.713-8.12-2.949c-0.858-3.94,1.136-8.002,5.68-9.305C66.756,187.294,69.302,187.52,71.732,187.345z"/>
	<path fill-rule="evenodd" clip-rule="evenodd" fill="#08090C" d="M57.032,126.757c-2.521-8.078-9.265-15.677-2.432-24.497
		c1.314-1.695,2.732-4.327,4.927-3.765c2.522,0.646,2.85,3.77,3.021,6.091C63.127,112.417,60.348,119.563,57.032,126.757z"/>
	<path fill-rule="evenodd" clip-rule="evenodd" fill="#08090C" d="M232.299,116.023c0.451-2.635-0.81-5.436-2.431-8.157
		c-2.671-4.479-0.474-8.792,4.738-9.79c3.481-0.667,3.792,2.074,4.061,3.955c0.839,5.891-0.122,11.794-0.729,17.665
		c-0.202,1.936-0.645,4.553-3.209,4.285c-2.922-0.306-2.628-3.096-2.664-5.312C232.056,118.007,232.178,117.341,232.299,116.023z"/>
	<path fill-rule="evenodd" clip-rule="evenodd" fill="#131619" d="M60.479,82.117c2.36,2.016,8.711-2.124,8.313,3.928
		c-0.384,5.817-5.587,1.171-8.471,2.027c-1.04,0.308-2.192,0.3-3.295,0.313c-1.713,0.02-3.953,1.568-4.233-2.082
		c-0.219-2.86,1.442-3.382,3.369-3.846C57.429,82.153,58.789,82.234,60.479,82.117z"/>
	<path fill-rule="evenodd" clip-rule="evenodd" fill="#131619" d="M392.353,341.592c0.553,6.234-3.573,6.608-7.763,6.766
		c-1.621,0.063-3.841,0.723-3.653-2.268c0.363-5.801,7.208-4.39,9.673-8.47C391.408,336.297,391.903,340.3,392.353,341.592z"/>
	<path fill-rule="evenodd" clip-rule="evenodd" fill="#131619" d="M263.112,99.434c-0.439-0.773-0.88-1.545-1.318-2.318
		c4.871-0.082,9.742-0.166,14.613-0.245c1.967-0.031,4.434-0.435,4.998,2.003c0.578,2.501-1.407,3.816-3.613,4.562
		c-0.749-0.531-1.5-1.062-2.25-1.593C272.125,97.29,267.296,100.016,263.112,99.434z"/>
	<path fill-rule="evenodd" clip-rule="evenodd" fill="#060709" d="M275.542,101.842c0.75,0.531,1.501,1.062,2.25,1.593
		c-0.349,0.2-0.725,0.295-1.126,0.288c-0.648-0.445-1.297-0.892-1.942-1.337C275.004,102.215,275.276,102.033,275.542,101.842z"/>
</g>
</svg>
