<?xml version="1.0" encoding="utf-8"?>
<!-- Generator: Adobe Illustrator 16.0.0, SVG Export Plug-In . SVG Version: 6.00 Build 0)  -->
<!DOCTYPE svg PUBLIC "-//W3C//DTD SVG 1.1//EN" "http://www.w3.org/Graphics/SVG/1.1/DTD/svg11.dtd">
<svg version="1.1" id="Layer_1" xmlns="http://www.w3.org/2000/svg" xmlns:xlink="http://www.w3.org/1999/xlink" x="0px" y="0px"
	 width="400px" height="400px" viewBox="0 0 400 400" enable-background="new 0 0 400 400" xml:space="preserve">
<g>
	<path fill-rule="evenodd" clip-rule="evenodd" fill="#363535" d="M329.503,195.838c-0.028,1.095-0.081,2.189-0.08,3.283
		c0.006,40.456,0.019,80.911,0.021,121.367c0.001,0.92-0.109,1.842-0.169,2.761c-0.249,0.027-0.531-0.011-0.744,0.093
		c-12.28,5.936-24.552,11.89-36.835,17.816c-0.992,0.478-1.251,1.177-1.248,2.213c0.045,17.105,0.06,34.214,0.081,51.321
		c0.059,1.629-0.728,2.033-2.316,2.032c-58.481-0.043-116.962-0.035-175.443-0.052c-0.759,0-1.756,0.414-2.126-0.766
		c0.081-0.58,0.231-1.16,0.231-1.741c0.013-16.928-0.014-33.855,0.052-50.782c0.007-1.724-0.9-2.307-2.184-2.932
		c-9.535-4.638-19.014-9.391-28.594-13.933c-2.48-1.177-4.824-2.757-7.609-3.25c-0.027-2.019-0.079-4.039-0.08-6.059
		c-0.005-40.297-0.003-80.595-0.006-120.892c0-0.505-0.039-1.01-0.059-1.516c0.225-0.961,0.349-1.962,0.701-2.876
		c0.472-1.226,0.232-2.756,1.503-3.65c0.004,24.75,0.016,49.5,0.01,74.25c-0.004,15.235-0.035,30.472-0.054,45.708
		c-0.039,3.532,0.022,7.069-0.156,10.592c-0.097,1.901,0.654,2.843,2.313,3.638c8.561,4.107,17.063,8.336,25.598,12.5
		c2.263,1.103,4.612,2.034,6.835,3.209c1.637,0.863,1.754,0.19,1.746-1.23c-0.058-9.504-0.061-19.011-0.082-28.516
		c0.94-0.569,1.976-0.277,2.96-0.277c32.443-0.018,64.885-0.021,97.328-0.014c26.292,0.004,52.583,0.023,78.873,0.037
		c0.165,0.192,0.341,0.337,0.598,0.141l0.013,0.196c-0.025,9.596-0.035,19.192-0.093,28.787c-0.009,1.502,0.451,1.749,1.774,1.104
		c11.184-5.456,22.379-10.885,33.584-16.292c1.118-0.54,1.651-1.245,1.616-2.533c-0.102-3.785-0.107-7.572-0.15-11.358
		c-0.006-39.334-0.012-78.669-0.019-118.004C328.768,191.799,328.652,194.009,329.503,195.838z M115.016,352.153
		c0,10.035,0.001,20.068-0.002,30.103c0,1.167-0.294,2.29,1.662,2.277c12.141-0.078,24.283-0.058,36.425-0.013
		c1.313,0.004,1.768-0.368,1.738-1.711c-0.079-3.624-0.117-7.254,0.012-10.876c0.061-1.714-0.529-2.096-2.149-2.075
		c-6.913,0.086-13.828-0.021-20.741,0.076c-1.767,0.023-2.633-0.234-2.413-2.279c0.207-1.916,0.186-3.887,0.005-5.809
		c-0.191-2.04,0.353-2.769,2.553-2.682c4.714,0.187,9.443-0.002,14.163,0.091c1.55,0.03,2.046-0.422,1.998-1.987
		c-0.107-3.538-0.127-7.085,0.006-10.622c0.066-1.742-0.577-2.089-2.173-2.057c-4.889,0.096-9.781-0.011-14.67,0.063
		c-1.375,0.021-1.956-0.287-1.87-1.788c0.125-2.186,0.157-4.393-0.006-6.572c-0.139-1.842,0.342-2.44,2.308-2.402
		c6.996,0.133,13.997,0.009,20.994,0.086c1.526,0.017,2.051-0.352,1.995-1.954c-0.125-3.537-0.137-7.085,0.003-10.621
		c0.07-1.759-0.596-2.074-2.179-2.067c-11.804,0.057-23.609,0.086-35.413-0.021c-2.048-0.019-2.296,0.73-2.284,2.487
		C115.055,331.918,115.016,342.036,115.016,352.153z M190.478,363.992c-0.508-1.295-0.837-2.054-1.107-2.834
		c-4.565-13.186-9.161-26.36-13.641-39.575c-0.587-1.73-1.356-2.351-3.187-2.264c-3.364,0.158-6.742,0.112-10.111,0.015
		c-1.636-0.046-1.823,0.484-1.328,1.905c7.17,20.557,14.321,41.122,21.412,61.706c0.458,1.33,1.137,1.597,2.385,1.573
		c3.623-0.069,7.251-0.104,10.871,0.015c1.522,0.05,2.202-0.448,2.669-1.891c1.503-4.637,3.15-9.227,4.749-13.831
		c5.459-15.723,10.895-31.452,16.416-47.152c0.671-1.908,0.413-2.453-1.681-2.339c-3.109,0.169-6.243,0.188-9.351-0.007
		c-2.035-0.128-2.915,0.553-3.57,2.485C200.287,335.73,195.443,349.619,190.478,363.992z M250.537,351.912
		c0,10.116,0.039,20.231-0.037,30.347c-0.014,1.724,0.387,2.295,2.211,2.278c10.367-0.089,20.737-0.084,31.105-0.002
		c1.729,0.014,2.137-0.554,2.085-2.162c-0.108-3.369-0.138-6.748,0.01-10.114c0.08-1.842-0.366-2.47-2.334-2.416
		c-5.307,0.149-10.623-0.068-15.929,0.11c-2.171,0.071-2.589-0.592-2.576-2.646c0.093-15.089-0.012-30.179,0.115-45.269
		c0.02-2.344-0.674-2.843-2.827-2.721c-3.194,0.18-6.409,0.145-9.606,0.006c-1.771-0.076-2.272,0.457-2.258,2.24
		C250.581,331.68,250.537,341.795,250.537,351.912z M240.996,352.136c0-10.192-0.043-20.385,0.041-30.577
		c0.015-1.787-0.504-2.301-2.262-2.23c-3.364,0.134-6.739,0.113-10.105,0.007c-1.613-0.05-2.186,0.365-2.181,2.101
		c0.061,20.384,0.056,40.77,0.004,61.153c-0.004,1.607,0.541,1.979,2.034,1.934c3.281-0.1,6.576-0.163,9.852,0.018
		c2.068,0.114,2.694-0.444,2.67-2.587C240.931,372.015,240.996,362.074,240.996,352.136z"/>
	<path fill-rule="evenodd" clip-rule="evenodd" fill="#393838" d="M72.246,119.811c0.286-7.407,0.795-14.854-0.518-22.184
		c-2.104-11.742-9.265-19.529-20.003-24.236c-3.012-1.32-5.998-2.661-8.662-4.624c-6.774-4.988-9.048-11.756-6.616-19.812
		c1.818-6.022,5.254-11.115,9.523-15.602c5.694-5.984,11.6-11.769,17.421-17.632c0.474-0.478,0.962-0.957,1.509-1.343
		c0.595-0.42,1.226-1.017,2.029-0.37c0.742,0.599,0.57,1.395,0.26,2.078c-1.077,2.374-2.262,4.698-3.338,7.072
		c-1.812,4-3.183,8.133-3.81,12.507c-0.983,6.852,1.25,11.786,7.237,15.356c6.042,3.603,12.824,4.851,19.617,6.184
		c4.647,0.912,8.605-0.107,12.782-2.166c32.967-16.245,66.025-32.303,99.03-48.473c1.596-0.782,2.826-0.76,4.416,0.018
		c33.313,16.309,66.671,32.518,99.955,48.881c3.642,1.79,7.085,2.523,11.114,1.809c6.235-1.106,12.421-2.249,18.149-5.078
		c8.326-4.111,11.027-9.763,9.05-18.826c-0.791-3.629-1.992-7.123-3.575-10.483c-0.859-1.826-1.787-3.623-2.591-5.475
		c-0.472-1.086-1.651-2.424-0.251-3.384c1.36-0.932,2.18,0.692,3.123,1.4c0.535,0.401,0.988,0.916,1.463,1.395
		c5.163,5.209,10.388,10.361,15.467,15.652c4.711,4.905,8.59,10.376,10.486,17.037c2.105,7.389,0.003,13.906-6.029,18.688
		c-2.864,2.271-6.157,3.752-9.478,5.218c-11.603,5.122-18.755,13.754-20.278,26.53c-0.447,3.747-0.23,7.572-0.305,11.363
		c-0.042,2.19-0.056,4.38-0.082,6.571c-0.723,0.116-1.446,0.232-2.169,0.347c0.259-5.373,0.145-10.517-2.389-15.648
		c-3.107-6.29-3.758-13.418-4.9-20.295c-2.023-12.183-8.143-20.636-19.672-26.08c-32.543-15.366-64.78-31.383-97.107-47.203
		c-1.605-0.785-2.809-0.779-4.411,0.006c-32.772,16.055-65.497,32.212-98.421,47.951c-10.029,4.794-15.633,12.252-17.813,22.862
		c-1.504,7.324-1.924,15.003-5.097,21.816c-2.572,5.523-3.007,11.065-2.749,16.881c0.019,0.421,0.018,0.843,0.025,1.264
		C73.842,119.794,73.044,119.803,72.246,119.811z M55.127,29.746c-6.159,5.607-11.547,11.783-14.21,19.872
		c-1.721,5.223-0.696,9.875,3.555,13.498c3.694,3.147,7.999,5.283,12.676,6.566c1.604,0.44,3.283,0.675,4.997,0.239
		c2.683-0.684,4.272-2.499,4.49-5.385c0.188-2.494-0.854-3.932-3.293-4.93c-5.887-2.409-9.387-6.871-10.373-13.256
		c-0.882-5.708,0.696-11.011,2.466-16.301c0.046-0.208,0.187-0.556,0.123-0.6C55.27,29.253,55.204,29.538,55.127,29.746z
		 M345.805,29.041c0.62,2.722,1.636,5.291,2.151,8.006c1.982,10.442-1.323,18.922-11.111,22.609
		c-2.099,0.791-2.314,2.517-2.245,4.324c0.148,3.853,3.24,6.199,7.381,5.65c3.995-0.531,7.534-2.263,10.959-4.273
		c8.251-4.843,10.173-10.925,6.107-19.58C355.954,39.194,351.125,33.95,345.805,29.041z"/>
	<path fill-rule="evenodd" clip-rule="evenodd" fill="#2A2A2B" d="M327.175,118.232c0.723-0.115,1.446-0.231,2.169-0.347
		c2.971,1.347,3.555,3.927,3.605,6.836c0.146,8.31,0.434,16.619,0.457,24.929c0.015,4.786,1.769,9.212,2.362,13.864
		c0.089,0.707,0.549,1.037,1.123,1.19c1.841,0.49,3.158,1.839,4.719,2.787c1.323,0.902,2.153-0.236,2.98-0.85
		c3.376-2.507,4.933-5.984,5.026-10.137c0.04-1.764,0.43-3.3,2.135-4.191c2.595-0.555,3.598,0.87,4.174,3.133
		c1.654,6.501-1.33,14.179-7.492,18.185c-1.674,1.088-1.521,1.818-0.741,3.26c2.402,4.447,4.071,9.216,5.754,13.963
		c1.097,3.093,1.055,6.297,0.133,9.441c-1.267,4.321-4.165,6.535-8.674,6.691c-1.259,0.044-2.522-0.047-3.784-0.075
		c-0.15-0.271-0.327-0.434-0.604-0.134c-0.249-0.046-0.498-0.09-0.747-0.136c-4.834-3.178-7.075-8.068-8.894-13.281
		c-3.04-8.721-3.725-17.866-4.933-26.914c-0.426-3.187-0.296-3.204-3.094-1.564c-2.196,1.032-4.485,1.832-6.739,2.71
		c-2.552,0.994-1.711,4.447-3.59,6.147c-0.677,0.612-1.109,1.492-1.775,2.12c-5.848,5.522-12.751,7.875-20.768,6.803
		c-0.134-0.255-0.303-0.355-0.546-0.124c-0.261-0.059-0.522-0.117-0.782-0.175c-1.641-1.404-3.746-2.131-5.114-3.983
		c-4.359-5.902-3.862-13.243,1.251-19.21c2.175-2.537,5.07-4.017,7.661-5.947c1.014-0.261,2.027-0.522,3.041-0.783
		c0.249,0.216,0.444,0.116,0.622-0.102c5.935-0.372,11.57,0.166,15.938,4.936c0.525,0.572,1.448,0.779,2.188,1.156
		c0.145,0.254,0.335,0.393,0.637,0.25c0.999-0.091,2-0.181,3-0.271c4.552-0.36,6.826-2.835,6.44-7.18
		c-0.751-8.463-1.653-16.913-2.307-25.382c-0.188-2.445-0.974-5.017,0.409-7.413C324.002,118.365,325.589,118.298,327.175,118.232z
		 M343.229,198.754c0.458,0.79,1.086,1.399,2.026,0.947c0.768-0.37,0.867-1.24,0.776-1.993c-0.573-4.741-0.943-9.536-2.889-13.983
		c-1.202-2.746-3.105-4.971-5.538-7.285c0,1.532-0.02,2.535,0.017,3.537c0.008,0.221,0.209,0.435,0.321,0.652
		C338.639,186.981,339.786,193.203,343.229,198.754z M296.022,173.584c2.634-0.307,5.313-1.15,7.222-3.549
		c0.669-0.841,1.041-1.664-0.381-2.355c-1.307-0.634-2.104-1.888-2.838-3.127c-1.384-2.339-2.561-2.593-4.73-0.979
		c-1.299,0.965-2.363,2.145-2.983,3.666C291.084,170.246,292.896,173.589,296.022,173.584z"/>
	<path fill-rule="evenodd" clip-rule="evenodd" fill="#2A292A" d="M72.246,119.811c0.799-0.008,1.597-0.017,2.395-0.025
		c1.271,0.053,2.541,0.107,3.812,0.16c0.605,0.768,0.768,1.65,0.689,2.603c-0.794,9.602-1.496,19.214-2.417,28.804
		c-0.416,4.318,0.326,6.015,4.368,7.908c3.712,1.181,6.874,0.525,9.456-2.593c0.785-0.948,2.017-1.442,3.198-1.909
		c6.351-2.506,12.442-1.857,18.331,1.44c0.035,0.703,0.579,0.736,1.082,0.821l0.104,0.048c2.002,2.541,4.463,4.695,5.81,7.775
		c3.367,7.704-0.396,16.459-8.085,18.631c-1.21,0.342-2.533-0.017-3.658,0.693c-0.973-0.101-1.947-0.201-2.919-0.303
		c-0.22-0.046-0.44-0.093-0.66-0.139c-8.136-1.823-15.017-5.235-17.581-14.02c-0.238-0.817-0.75-1.042-1.414-1.18
		c-2.397-0.494-4.547-1.608-6.732-2.639c-0.778-0.446-1.556-0.893-2.509-1.44c-0.189,0.941-0.396,1.665-0.474,2.401
		c-0.672,6.357-1.298,12.738-2.671,18.977c-1.839,8.359-3.546,16.892-11.262,22.333c-0.253,0.051-0.506,0.099-0.758,0.148
		c-0.271-0.293-0.445-0.139-0.595,0.129c-10.421,0.706-15.716-6.299-12.228-16.303c1.685-4.833,3.406-9.677,5.907-14.162
		c0.794-1.424,0.389-1.857-0.794-2.64c-6.277-4.157-9.333-11.718-7.674-18.357c0.567-2.266,1.563-3.693,4.159-3.148
		c1.705,0.892,2.098,2.423,2.141,4.191c0.1,4.146,1.636,7.634,5.021,10.137c0.827,0.612,1.652,1.748,2.975,0.859
		c1.569-0.938,2.891-2.292,4.731-2.777c0.848-0.224,1.018-0.9,1.241-1.683c2.439-8.588,2.437-17.402,2.561-26.214
		c0.067-4.869-0.185-9.753,0.429-14.602C68.511,121.427,69.587,119.767,72.246,119.811z M99.934,172.876
		c-0.03,0.864,0.638,0.727,1.155,0.806c0.781,0.288,1.542,0.671,2.348,0.843c1.704,0.364,3.425,0.35,4.524-1.262
		c1.09-1.598,1.378-3.398,0.506-5.225c-0.89-1.866-2.241-3.296-4.153-4.155c-1.617-1.017-2.765-0.658-3.527,1.12
		c-0.497,1.159-1.345,2.077-2.214,2.991c-0.623,0.654-2.243,0.67-1.744,2.047c0.495,1.367,1.199,2.768,3.034,2.803L99.934,172.876z
		 M62.866,182.601c0.888-1.374,0.236-2.799,0.557-4.612c-7.187,5.959-7.785,13.874-8.521,21.716
		c-0.058,0.612,0.183,1.423,0.957,1.612c0.828,0.203,1.443-0.213,1.772-1.009C61.001,194.886,62.217,188.827,62.866,182.601z"/>
	<path fill-rule="evenodd" clip-rule="evenodd" fill="#3A3939" d="M26.96,210.384c6.405,6.55,11.396,14.125,15.804,22.091
		c8.718,15.756,13.617,32.505,12.953,50.678c-0.291,7.97-2.446,15.58-4.175,23.292c-3.301,14.734,0.113,27.904,10.105,39.207
		c10.459,11.832,24.013,18.735,38.726,23.678c0.693,0.233,1.395,0.443,2.611,0.827c-2.166,0.508-3.615-0.172-5.053-0.625
		c-16.587-5.216-31.772-12.864-44.125-25.441c-0.804-0.82-1.893-1.385-2.906-1.968c-6.043-3.472-11.558-7.585-15.738-13.245
		c-5.122-6.935-6.438-14.46-3.303-22.637c6.408-16.71,4.02-33.045-2.167-49.205c-0.36-0.941-0.771-1.864-1.157-2.796
		c0.146-0.109,0.292-0.219,0.439-0.328c5.505,7.42,8.795,15.811,10.478,24.81c1.72,9.193,0.875,18.201-2.406,27.032
		c-4.924,13.247-0.68,25.053,11.835,33.606c0.217,0.085,0.548,0.304,0.63,0.233c0.355-0.307,0.073-0.563-0.174-0.789
		c-5.058-7.412-8.121-15.455-7.763-24.576c0.197-5.009,1.744-9.737,2.955-14.548c4.354-17.284,2.944-34.406-1.729-51.393
		c-3.655-13.289-9.218-25.762-16.303-37.569C26.651,210.607,26.806,210.495,26.96,210.384z"/>
	<path fill-rule="evenodd" clip-rule="evenodd" fill="#3A3939" d="M347.412,336.748c7.432-4.389,13.199-10.132,15.162-18.89
		c0.919-4.1,0.716-8.238-0.389-12.251c-5.358-19.494,0.396-36.246,12.508-51.475c0.14,0.154,0.279,0.308,0.42,0.462
		c-3.978,7.806-7.308,15.845-8.995,24.495c-1.636,8.383-1.917,16.798,0.557,25.011c3.437,11.411-0.265,20.263-8.989,27.582
		c-2.718,2.281-5.625,4.338-8.837,5.814c-4.088,1.882-7.62,4.476-11.146,7.234c-11.257,8.813-23.95,14.854-37.679,18.758
		c-0.643,0.184-1.311,0.296-1.974,0.389c-0.31,0.043-0.637-0.04-1.689-0.127c5.446-1.747,10.167-3.414,14.706-5.542
		c11.334-5.313,21.683-11.957,29.312-22.145c8.6-11.486,11.084-24.424,7.116-38.027c-8.9-30.506-1.14-57.563,15.972-82.929
		c2.404-3.563,5.071-6.934,7.921-10.155c0.206-0.232,0.506-0.383,0.784-0.588c0.688,0.971-0.14,1.496-0.47,2.063
		c-9.165,15.783-15.562,32.575-18.272,50.668c-1.982,13.231-1.539,26.39,2.393,39.256c4.466,14.609,1.505,27.544-8.249,39.101
		c-0.214,0.253-0.372,0.552-0.556,0.83c-0.247,0.167-0.494,0.334-0.741,0.503C346.666,337.099,347.04,336.972,347.412,336.748z"/>
	<path fill-rule="evenodd" clip-rule="evenodd" fill="#6D6D6D" d="M290.528,394.692c-0.021-17.107-0.036-34.216-0.081-51.321
		c-0.003-1.036,0.256-1.735,1.248-2.213c12.283-5.927,24.555-11.881,36.835-17.816c0.213-0.104,0.495-0.065,0.744-0.093
		c0.549,5.965,0.548,5.962-4.624,8.583c-9.002,4.558-17.981,9.16-27.021,13.642c-1.506,0.747-2.04,1.581-2.027,3.262
		c0.081,10.441-0.046,20.884,0.092,31.324c0.044,3.298-0.446,6.3-2.18,9.124C292.424,390.961,291.518,392.852,290.528,394.692z"/>
	<path fill-rule="evenodd" clip-rule="evenodd" fill="#6D6D6D" d="M72.539,323.27c2.785,0.493,5.129,2.073,7.609,3.25
		c9.58,4.542,19.059,9.295,28.594,13.933c1.284,0.625,2.19,1.208,2.184,2.932c-0.066,16.927-0.039,33.854-0.052,50.782
		c0,0.581-0.151,1.161-0.231,1.741c-2.654-4.907-4.531-9.871-4.395-15.727c0.25-10.761-0.224-21.538-0.28-32.31
		c-0.008-1.692-0.567-2.527-2.049-3.246c-9.523-4.625-18.964-9.422-28.525-13.97c-2.28-1.085-3.499-2.295-3.008-4.878
		C72.541,324.962,72.494,324.107,72.539,323.27z"/>
	<path fill-rule="evenodd" clip-rule="evenodd" fill="#9B9B9B" d="M61.104,208.157c7.716-5.44,9.423-13.973,11.262-22.333
		c1.373-6.239,1.999-12.62,2.671-18.977c0.078-0.737,0.285-1.46,0.474-2.401c0.954,0.547,1.731,0.994,2.509,1.44
		c-1.303,0.459-0.939,1.617-1.052,2.557c-0.799,6.61-1.583,13.222-2.371,19.834c-1.271,0.894-1.031,2.425-1.503,3.65
		c-0.352,0.914-0.476,1.915-0.701,2.876c-1.557,3.028-2.535,6.355-4.632,9.1C66.069,206.119,64.187,208.093,61.104,208.157z"/>
	<path fill-rule="evenodd" clip-rule="evenodd" fill="#9B9B9B" d="M322.85,164.881c2.798-1.639,2.668-1.622,3.094,1.564
		c1.208,9.047,1.893,18.192,4.933,26.914c1.818,5.213,4.06,10.104,8.894,13.281c-3.08-0.069-5.064-1.98-6.623-4.276
		c-1.396-2.053-2.443-4.341-3.644-6.526c-0.851-1.83-0.735-4.039-2.211-5.624c-1.122-7.729-2.239-15.458-3.381-23.184
		C323.793,166.222,324.283,165.06,322.85,164.881z"/>
	<path fill-rule="evenodd" clip-rule="evenodd" fill="#9B9B9B" d="M59.257,169.011c-1.323,0.889-2.148-0.247-2.975-0.859
		c-3.384-2.503-4.92-5.991-5.021-10.137c-0.043-1.768-0.437-3.299-2.141-4.191c3.146,0.024,4.162,0.656,4.264,4.154
		C53.524,162.761,55.635,166.22,59.257,169.011z"/>
	<path fill-rule="evenodd" clip-rule="evenodd" fill="#9B9B9B" d="M351.752,152.312c-1.705,0.892-2.095,2.427-2.135,4.191
		c-0.094,4.153-1.65,7.629-5.026,10.137c-0.827,0.614-1.657,1.752-2.98,0.85c4.052-2.87,5.814-6.859,6.067-11.75
		C347.825,152.898,348.724,152.33,351.752,152.312z"/>
	<path fill-rule="evenodd" clip-rule="evenodd" fill="#3A3939" d="M374.693,254.133c0.262-0.208,0.392-0.894,0.837-0.456
		c0.312,0.308-0.098,0.683-0.417,0.918C374.973,254.44,374.833,254.287,374.693,254.133z"/>
	<path fill-rule="evenodd" clip-rule="evenodd" fill="#3A3939" d="M28.536,254.239c-0.141-0.28-0.304-0.572,0.061-0.79
		c0.025-0.015,0.248,0.301,0.378,0.462C28.828,254.021,28.682,254.13,28.536,254.239z"/>
	<path fill-rule="evenodd" clip-rule="evenodd" fill="#9B9B9B" d="M340.517,206.776c0.277-0.3,0.454-0.138,0.604,0.134
		C340.92,206.865,340.719,206.821,340.517,206.776z"/>
	<path fill-rule="evenodd" clip-rule="evenodd" fill="#9B9B9B" d="M59.751,208.435c0.15-0.268,0.324-0.422,0.595-0.129
		C60.147,208.348,59.949,208.392,59.751,208.435z"/>
	<path fill-rule="evenodd" clip-rule="evenodd" fill="#3A3939" d="M26.498,210.718c-0.147-0.253-0.371-0.533,0.034-0.723
		c0.067-0.031,0.282,0.251,0.428,0.389C26.806,210.495,26.651,210.607,26.498,210.718z"/>
	<path fill-rule="evenodd" clip-rule="evenodd" fill="#FCFCFC" d="M322.85,164.881c1.434,0.178,0.943,1.34,1.062,2.149
		c1.142,7.727,2.259,15.456,3.381,23.184c0.007,39.335,0.013,78.67,0.019,118.005c-1.085,0.063-2.169,0.177-3.254,0.182
		c-11.158,0.046-22.318,0.075-33.478,0.109c0,0-0.013-0.196-0.012-0.196c-0.2-0.047-0.398-0.094-0.599-0.141
		c-26.29-0.014-52.581-0.033-78.873-0.037c-32.442-0.007-64.885-0.004-97.328,0.014c-0.985,0-2.02-0.292-2.96,0.277
		c-5.793-0.006-11.586,0.008-17.379-0.024c-6.292-0.034-12.584-0.109-18.875-0.168c0.019-15.236,0.05-30.473,0.054-45.708
		c0.006-24.75-0.006-49.5-0.01-74.25c0.788-6.612,1.572-13.224,2.371-19.834c0.113-0.939-0.25-2.098,1.052-2.557
		c2.185,1.031,4.335,2.145,6.732,2.639c0.664,0.137,1.176,0.363,1.414,1.18c2.564,8.785,9.445,12.197,17.581,14.02
		c0.22,0.046,0.44,0.093,0.66,0.139c0.973,0.102,1.946,0.202,2.919,0.303c3.224,1.273,9.759-0.991,12.277-4.509
		c4.008-5.601,3.786-12.854-1.044-18.352c-1.481-1.687-2.709-3.866-5.299-4.238c0,0-0.104-0.048-0.104-0.048
		c0.091-0.871-0.577-0.738-1.082-0.821c-5.889-3.297-11.979-3.946-18.331-1.44c-1.181,0.466-2.413,0.96-3.198,1.909
		c-2.582,3.118-5.744,3.773-9.456,2.593c-0.814-1.935-2.864-3.166-2.601-5.762c1.032-10.2,1.862-20.42,2.779-30.632
		c0.187-2.087-0.456-3.318-2.817-2.919c-1.271-0.053-2.541-0.107-3.812-0.16c-0.008-0.421-0.007-0.843-0.025-1.264
		c-0.259-5.815,0.177-11.357,2.749-16.881c3.173-6.813,3.593-14.493,5.097-21.816c2.18-10.61,7.785-18.068,17.813-22.862
		c32.924-15.739,65.649-31.896,98.421-47.951c1.603-0.785,2.806-0.791,4.411-0.006c32.327,15.82,64.564,31.837,97.107,47.203
		c11.529,5.444,17.648,13.897,19.672,26.08c1.143,6.877,1.793,14.005,4.9,20.295c2.533,5.131,2.647,10.276,2.389,15.648
		c-1.586,0.066-3.173,0.133-4.759,0.2c-1.968-0.401-3.009,0.554-2.863,2.409c0.649,8.343,1.424,16.675,2.137,25.012
		c0.401,4.688,2.236,9.824-3.816,12.554c-1,0.09-2.001,0.181-3,0.271c-0.213-0.083-0.426-0.167-0.637-0.25
		c-0.739-0.376-1.662-0.583-2.188-1.156c-4.368-4.771-10.004-5.308-15.938-4.936c-0.208,0.034-0.414,0.068-0.622,0.102
		c-1.014,0.261-2.027,0.522-3.041,0.783c-5.653,0.723-12.015,6.902-13.584,13.197c-1.279,5.133,0.257,9.508,3.83,13.174
		c1.568,1.609,3.496,2.871,5.956,2.77c0.26,0.058,0.521,0.116,0.782,0.175c0.182,0.042,0.363,0.082,0.546,0.124
		c8.017,1.071,14.92-1.281,20.768-6.803c0.666-0.628,1.099-1.508,1.775-2.12c1.879-1.7,1.038-5.153,3.59-6.147
		C318.364,166.713,320.653,165.914,322.85,164.881z M296.648,143.01c4.879,0.048,9.757,0.099,14.636,0.139
		c0.664,0.006,1.496,0.097,1.396-0.931c-0.115-1.205,0.497-2.485-0.349-3.617c-9.144-10.798-18.287-21.595-27.431-32.392
		c-0.026-1.044,0.749-1.67,1.323-2.349c8.026-9.47,16.022-18.965,24.169-28.33c1.782-2.049,2.842-4.062,2.313-6.764
		c-0.385-0.886-1.171-0.456-1.758-0.466c-2.782-0.051-5.601,0.263-8.338-0.088c-4.375-0.56-7.328,0.998-10.063,4.447
		c-4.149,5.236-8.861,10.025-13.751,15.467c0-6.438-0.043-12.23,0.03-18.022c0.018-1.414-0.355-1.892-1.82-1.859
		c-4.213,0.093-8.432,0.095-12.645-0.001c-1.479-0.034-1.8,0.475-1.798,1.863c0.022,22.679-0.006,45.357-0.016,68.036
		c0,0.332,0.091,0.664,0.14,0.996c-0.219,4.035-0.219,4.035,3.806,4.035c2.757,0,5.514,0,8.27,0c4.182,0,4.182,0,3.993-4.109
		c0.046-5.031,0.092-10.062,0.138-15.093c1.449,0.901,2.385,2.313,3.519,3.529C287.201,132.63,291.602,138.117,296.648,143.01z
		 M241.113,98.639c-0.193,0.724-0.311,1.438,0.262,2.064c4.033,0.908,8.119,0.263,12.178,0.379c4.328,0.125,4.335,0.027,3.881-4.292
		c-0.025-0.238-0.18-0.463-0.273-0.693c0.252-13.96-10.629-26.242-24.592-27.757c-13.924-1.51-27.146,8.416-29.586,22.566
		c-1.394,8.09-0.59,16.307-0.501,24.472c0.033,0.338,0.066,0.677,0.1,1.015c0.044,0.292,0.088,0.584,0.131,0.876
		c-0.624,1.365,0.02,2.664,0.306,3.937c2.591,11.545,11.209,20.072,22.779,21.772c10.558,1.552,20.56-2.435,27.156-12.693
		c2.406-3.744,4.135-7.833,3.879-12.47c0.038-0.294,0.076-0.587,0.113-0.882c0.335-0.315,0.342-0.674,0.135-1.059
		c0.065-0.925,0.06-1.862,0.211-2.772c0.355-2.13-0.494-2.756-2.605-2.66c-3.702,0.167-7.421,0.133-11.126,0.008
		c-1.772-0.06-2.435,0.375-2.671,2.292c-0.749,6.037-6.031,10.453-11.823,10.198c-5.362-0.235-10.229-5.507-10.452-11.428
		c-0.174-4.633-0.215-9.27,0.077-13.902c0.696-1.325,1.29-2.717,2.105-3.962c4.061-6.193,11.672-6.847,16.855-1.571
		c1.578,1.606,2.104,3.771,3.341,5.541C241.032,97.959,241.073,98.299,241.113,98.639z M181.751,143.088
		c5.131,0.021,10.262,0.05,15.394,0.057c0.714,0.001,1.725,0.216,1.679-0.94c-0.055-1.386,0.48-2.821-0.268-4.162
		c-0.032-0.165-0.046-0.337-0.101-0.495c-7.826-22.629-15.666-45.255-23.456-67.898c-0.424-1.233-1.124-1.401-2.229-1.391
		c-4.633,0.042-9.269,0.101-13.899-0.026c-1.654-0.046-2.315,0.539-2.833,2.043c-7.89,22.946-15.839,45.87-23.775,68.8
		c-0.022,0.836,0.054,1.689-0.087,2.505c-0.222,1.282,0.31,1.599,1.49,1.589c4.792-0.041,9.585-0.031,14.378-0.004
		c0.962,0.005,1.443-0.227,1.74-1.293c2.323-8.331,5.6-16.344,8.243-24.57c0.375-1.169,0.986-1.525,2.177-1.497
		c3.781,0.088,7.565,0.064,11.349,0.083c2.931,8.478,5.848,16.961,8.823,25.424C180.614,141.988,180.466,143.148,181.751,143.088z
		 M129.034,139.094c0.021-4.884-0.018-9.771,0.096-14.653c0.036-1.548-0.745-1.536-1.854-1.529
		c-4.802,0.031-9.61-0.109-14.406,0.069c-2.145,0.08-2.6-0.555-2.59-2.63c0.081-16.598-0.009-33.197,0.066-49.795
		c0.009-1.954-0.553-2.39-2.398-2.323c-3.955,0.144-7.92,0.106-11.878,0.012c-1.474-0.035-2.023,0.253-2.02,1.903
		c0.043,22.58,0.006,45.161-0.004,67.742c0,0.416,0.092,0.832,0.141,1.248c-0.218,4.035-0.218,4.035,3.843,4.035
		c9.149,0,18.298,0,27.447,0c3.717,0,3.717,0,3.584-3.828C129.059,139.261,129.043,139.178,129.034,139.094z M286.152,56.043
		c-0.926-0.577-1.244-0.813-1.593-0.986c-27.276-13.536-54.561-27.055-81.813-40.636c-1.263-0.629-2.149-0.373-3.251,0.154
		c-28.161,13.443-56.332,26.864-84.491,40.31c-0.521,0.248-1.354,0.242-1.399,1.159C170.897,56.043,228.152,56.043,286.152,56.043z
		 M120.199,213.889c-0.521-1.084-0.892-1.819-1.231-2.569c-2.286-5.054-4.53-10.128-6.86-15.163
		c-1.403-3.032-1.893-7.304-4.483-8.743c-2.585-1.436-6.557-0.381-9.92-0.417c-0.084-0.001-0.17,0.011-0.252-0.002
		c-1.486-0.24-1.795,0.478-1.791,1.849c0.045,12.384,0.045,24.77-0.001,37.155c-0.005,1.315,0.342,1.757,1.69,1.712
		c2.862-0.098,5.73-0.1,8.592,0c1.432,0.049,1.894-0.394,1.858-1.844c-0.093-3.744-0.031-7.493-0.031-11.24
		c1.079,1.411,1.778,2.896,2.461,4.388c1.295,2.826,1.868,6.797,4.067,8.176c2.318,1.451,6.193,0.329,9.376,0.529
		c1.86,0.117,2.843-0.428,3.564-2.238c1.392-3.498,3.101-6.87,4.678-10.294c0.492,3.587,0.594,7.02,0.449,10.442
		c-0.073,1.738,0.534,2.15,2.147,2.083c2.775-0.116,5.562-0.095,8.339-0.006c1.349,0.044,1.729-0.45,1.726-1.74
		c-0.034-12.469-0.033-24.938-0.001-37.407c0.003-1.218-0.419-1.615-1.615-1.583c-2.526,0.068-5.072,0.206-7.577-0.033
		c-2.306-0.221-3.383,0.634-4.287,2.721C127.629,197.667,123.957,205.58,120.199,213.889z M149.751,207.278
		c0,0.928,0.042,1.857-0.006,2.78c-0.358,6.738,2.87,11.444,8.521,14.595c6.446,3.595,13.257,4.006,20.216,1.644
		c8.1-2.752,12.256-8.585,12.268-17.077c0.004-1.77-0.007-3.539,0.003-5.309c0.027-5.081-2.12-9.103-6.049-12.196
		c-5.902-4.647-12.668-5.489-19.822-4.209c-4.421,0.791-8.199,2.859-11.328,6.138C149.844,197.532,149.293,202.253,149.751,207.278z
		 M206.946,205.477c0.926,1.356,1.437,2.078,1.921,2.817c3.878,5.913,7.752,11.829,11.626,17.744
		c0.543,0.831,0.935,1.709,2.247,1.672c3.2-0.092,6.406-0.065,9.608-0.012c1.11,0.02,1.438-0.377,1.436-1.466
		c-0.03-12.56-0.033-25.12,0.002-37.68c0.004-1.244-0.457-1.597-1.628-1.575c-2.949,0.056-5.903,0.087-8.851-0.012
		c-1.402-0.047-1.659,0.514-1.647,1.767c0.055,5.815,0.038,11.632,0.006,17.449c-0.004,0.689,0.315,1.472-0.379,2.226
		c-0.563-0.81-1.097-1.537-1.592-2.291c-3.829-5.843-7.684-11.672-11.447-17.558c-0.719-1.124-1.459-1.639-2.822-1.593
		c-2.946,0.099-5.9,0.083-8.849,0.005c-1.277-0.033-1.746,0.303-1.74,1.674c0.049,12.476,0.052,24.951-0.003,37.427
		c-0.006,1.422,0.535,1.669,1.77,1.63c2.441-0.077,4.902-0.187,7.328,0.025c2.365,0.206,3.173-0.407,3.085-2.955
		C206.803,218.592,206.946,212.397,206.946,205.477z M237.29,207.192c0,6.151,0.062,12.304-0.041,18.454
		c-0.027,1.684,0.483,2.089,2.108,2.07c7.751-0.082,15.505-0.023,23.258-0.046c2.26-0.006,5.283,0.751,6.58-0.397
		c1.514-1.339,0.269-4.439,0.516-6.755c0.184-1.725-0.361-2.335-2.188-2.295c-5.39,0.121-10.786,0.062-16.178,0.022
		c-0.712-0.006-1.652,0.459-1.917-0.937c-0.815-4.31-0.087-5.313,4.137-5.313c1.18,0,2.361,0.046,3.539-0.01
		c2.333-0.111,5.612,1.029,6.749-0.44c1.195-1.549,0.32-4.655,0.461-7.075c0.081-1.399-0.332-1.944-1.817-1.892
		c-2.945,0.104-5.896,0.03-8.847,0.03c-4.26,0-4.179-0.001-4.237-4.225c-0.023-1.629,0.386-2.174,2.077-2.115
		c3.704,0.13,7.415,0.061,11.122,0.032c2.261-0.018,5.282,0.75,6.583-0.398c1.516-1.338,0.253-4.441,0.521-6.754
		c0.216-1.868-0.604-2.201-2.286-2.188c-9.353,0.072-18.708,0.097-28.06-0.017c-1.918-0.024-2.14,0.666-2.116,2.299
		C237.344,195.226,237.289,201.21,237.29,207.192z M153.39,281.885c0.023-12.889-10.338-23.307-23.214-23.342
		c-12.815-0.035-23.25,10.262-23.277,22.966c-0.029,13.122,10.089,23.537,22.902,23.578
		C142.937,305.128,153.367,294.869,153.39,281.885z M211.478,288.218c-0.053,0-0.106,0-0.159,0c0,4.385,0,8.77,0,13.154
		c-0.001,3.792,0,3.7,3.68,3.774c1.653,0.031,2.146-0.424,2.113-2.098c-0.105-5.396,0.02-10.794-0.075-16.19
		c-0.028-1.647,0.237-2.372,2.144-2.327c5.73,0.131,11.468,0.104,17.201,0.01c1.652-0.028,2.149,0.438,2.117,2.109
		c-0.104,5.479,0.007,10.962-0.068,16.443c-0.021,1.477,0.284,2.254,1.935,2.028c0.745-0.103,1.521-0.073,2.272-0.005
		c1.19,0.109,1.646-0.333,1.629-1.563c-0.153-10.114,0.333-20.238-0.246-30.342c-0.472-8.226-7.934-14.743-16.438-14.671
		c-8.54,0.072-15.76,6.718-16.07,15.014C211.329,278.437,211.478,283.33,211.478,288.218z M273.601,186.999
		c4.524,6.455,8.77,12.584,13.11,18.647c0.936,1.305,1.309,2.599,1.288,4.183c-0.071,5.388,0.013,10.777-0.056,16.165
		c-0.018,1.317,0.342,1.763,1.69,1.716c2.775-0.097,5.56-0.12,8.333,0.006c1.629,0.075,2.162-0.378,2.127-2.073
		c-0.11-5.304,0.021-10.61-0.076-15.914c-0.031-1.7,0.451-3.044,1.43-4.396c2.955-4.091,5.814-8.25,8.699-12.392
		c1.274-1.831,2.521-3.681,4.068-5.943c-3.351,0-6.195,0.182-9.004-0.055c-2.403-0.202-3.852,0.613-5.1,2.649
		c-1.85,3.018-4.018,5.841-6.157,8.902c-2.523-3.598-4.78-6.841-7.07-10.062c-0.469-0.661-0.851-1.452-1.902-1.443
		C281.314,187.017,277.647,186.999,273.601,186.999z M158.719,281.953c0,6.992,0.145,13.988-0.072,20.973
		c-0.086,2.775,1.532,2.084,3.016,2.189c1.684,0.118,2.777,0.047,2.69-2.281c-0.202-5.384-0.004-10.779-0.101-16.17
		c-0.03-1.656,0.439-2.182,2.125-2.147c5.052,0.104,10.113-0.111,15.158,0.101c2.547,0.108,2.104-1.348,2.152-2.844
		c0.052-1.619,0.169-2.852-2.244-2.748c-5.045,0.214-10.106,0.017-15.159,0.095c-1.519,0.023-2.076-0.401-2.028-1.987
		c0.106-3.534,0.133-7.078-0.008-10.61c-0.073-1.835,0.363-2.454,2.334-2.419c7.242,0.131,14.49-0.063,21.73,0.108
		c2.904,0.069,1.855-1.814,2.001-3.156c0.163-1.502,0.189-2.612-2.078-2.574c-9.095,0.153-18.193,0.107-27.29,0.025
		c-1.734-0.016-2.295,0.416-2.269,2.221C158.781,267.802,158.719,274.878,158.719,281.953z M275.904,281.824
		c0,7.076,0.054,14.153-0.039,21.229c-0.021,1.678,0.474,2.108,2.116,2.088c6.99-0.09,13.985-0.138,20.975,0.01
		c2.722,0.059,1.851-1.717,1.939-3.031c0.094-1.381,0.442-2.792-1.969-2.697c-4.879,0.191-9.776-0.1-14.653,0.122
		c-2.453,0.112-2.843-0.762-2.824-2.954c0.103-11.793-0.021-23.589,0.109-35.382c0.024-2.254-0.563-2.774-2.756-2.751
		c-2.224,0.024-3.028,0.467-2.962,2.896C276.026,268.173,275.906,275,275.904,281.824z M249.086,281.939
		c0,7.077,0.05,14.154-0.037,21.23c-0.02,1.574,0.431,1.987,1.977,1.968c6.487-0.083,12.975-0.035,19.461-0.035
		c3.669,0,3.56-0.003,3.656-3.601c0.047-1.74-0.556-2.087-2.146-2.058c-4.97,0.094-9.946-0.083-14.91,0.091
		c-2.104,0.074-2.462-0.652-2.448-2.555c0.081-12.047-0.03-24.096,0.104-36.142c0.025-2.244-0.896-2.385-2.622-2.328
		c-1.72,0.058-3.186-0.276-3.104,2.454C249.228,267.951,249.087,274.947,249.086,281.939z M191.112,149.053
		c-9.049-0.145-16.111,6.687-16.227,15.695c-0.117,9.069,6.735,16.254,15.609,16.367c9.071,0.115,16.344-6.901,16.456-15.877
		C207.063,156.323,200.089,149.197,191.112,149.053z M210.462,165.042c0,4.72,0.063,9.441-0.035,14.159
		c-0.033,1.549,0.387,2.015,1.964,1.99c1.509-0.023,2.093-0.369,2.04-1.973c-0.109-3.368,0.041-6.744-0.065-10.112
		c-0.051-1.605,0.34-2.242,2.085-2.16c3.111,0.146,6.238-0.05,9.351,0.077c1.646,0.068,1.923-0.577,1.955-2.047
		c0.035-1.608-0.521-2.006-2.038-1.957c-3.199,0.105-6.406-0.021-9.607,0.057c-1.301,0.031-1.802-0.346-1.738-1.702
		c0.1-2.103,0.143-4.221-0.01-6.317c-0.136-1.858,0.63-2.244,2.322-2.207c4.635,0.1,9.271-0.026,13.905,0.068
		c1.513,0.031,1.837-0.533,1.776-1.895c-0.053-1.189,0.026-2.047-1.663-2.021c-6.151,0.096-12.306,0.083-18.457,0.005
		c-1.479-0.019-1.837,0.474-1.813,1.875C210.51,155.602,210.462,160.322,210.462,165.042z M149.053,166.444
		c-6.239,0-12.482,0.116-18.716-0.06c-2.341-0.066-2.091,1.207-2.054,2.655c0.036,1.458-0.444,2.935,2.115,2.909
		c12.393-0.126,24.789-0.13,37.183,0c2.696,0.028,1.896-1.622,1.985-2.966c0.097-1.455,0.28-2.676-2.048-2.603
		C161.368,166.571,155.208,166.444,149.053,166.444z M252.809,171.885c6.148,0,12.302-0.125,18.445,0.059
		c2.596,0.077,2.038-1.476,2.058-2.897c0.02-1.377,0.439-2.691-1.982-2.664c-12.381,0.139-24.766,0.149-37.146-0.005
		c-2.598-0.032-2.028,1.417-2.109,2.846c-0.093,1.658-0.082,2.803,2.29,2.727C240.506,171.754,246.658,171.885,252.809,171.885z
		 M261.682,240.923c-0.017-6.166-4.667-10.798-10.851-10.807c-6.343-0.01-10.946,4.601-10.938,10.956
		c0.007,6.124,4.716,10.848,10.837,10.871C256.948,251.966,261.698,247.186,261.682,240.923z M279.784,230.116
		c-6.261-0.038-10.988,4.493-11.049,10.594c-0.064,6.369,4.521,11.173,10.727,11.238c6.127,0.067,11.006-4.637,11.062-10.663
		C290.584,234.881,286.04,230.154,279.784,230.116z M233.956,251.771c-0.013-0.18,0.024-0.37-0.043-0.509
		c-1.176-2.415-2.29-4.866-3.581-7.219c-0.738-1.347-0.651-2.066,0.721-2.993c2.179-1.476,2.954-4.275,2.12-6.752
		c-0.786-2.333-2.389-3.952-4.919-4.099c-3.021-0.176-6.059-0.041-9.088-0.092c-0.977-0.016-1.278,0.32-1.271,1.315
		c0.043,6.397,0.043,12.796-0.003,19.193c-0.008,1.188,0.53,1.363,1.534,1.382c1.008,0.018,1.304-0.349,1.278-1.317
		c-0.054-2.188,0.04-4.378-0.036-6.564c-0.042-1.224,0.221-1.681,1.616-1.813c2.921-0.279,4.979,0.36,5.889,3.473
		c0.417,1.428,1.449,2.666,1.958,4.078C230.834,251.811,232.014,252.454,233.956,251.771z M111.129,251.904
		c0.757,0,1.53,0.098,2.27-0.019c3.142-0.489,5.086-2.529,5.329-5.496c0.261-3.189-1.262-5.323-4.582-6.257
		c-1.532-0.432-3.11-0.699-4.667-1.04c-1.563-0.344-2.643-1.191-2.604-2.898c0.036-1.599,0.895-2.729,2.471-3.114
		c2.458-0.602,4.871-0.64,6.816,1.335c1.063,1.078,1.602,0.079,2.292-0.436c1.092-0.814,0.144-1.304-0.343-1.758
		c-3.025-2.826-6.66-2.521-10.208-1.612c-2.658,0.682-3.762,2.807-3.704,5.889c0.052,2.743,1.212,4.401,3.892,5.21
		c1.763,0.531,3.605,0.797,5.395,1.25c1.551,0.389,2.537,1.307,2.404,3.048c-0.124,1.624-0.973,2.683-2.587,2.964
		c-2.367,0.412-4.775,0.595-6.606-1.355c-1.094-1.165-1.561-0.091-2.244,0.361c-1.093,0.722-0.262,1.214,0.224,1.732
		C106.433,251.584,108.712,251.978,111.129,251.904z M181.996,240.832c0,3.115,0.037,6.23-0.02,9.346
		c-0.021,1.195,0.154,1.854,1.615,1.822c3.956-0.092,7.915-0.062,11.872-0.012c1.065,0.012,1.476-0.273,1.476-1.411
		c0.001-1.2-0.562-1.376-1.546-1.354c-1.936,0.043-3.873,0.012-5.811,0.012c-4.92,0-4.858,0-4.86-4.902
		c-0.001-1.488,0.286-2.149,1.927-2.003c1.671,0.151,3.368,0.081,5.049,0.015c0.864-0.034,2.08,0.546,2.129-1.235
		c0.047-1.689-1.019-1.394-1.991-1.411c-0.673-0.012-1.348-0.002-2.021-0.002c-5.415,0-5.367,0.002-5.092-5.409
		c0.063-1.238,0.465-1.565,1.629-1.539c2.946,0.063,5.895,0.007,8.842,0.027c0.977,0.007,1.775,0.089,1.754-1.375
		c-0.022-1.533-0.968-1.272-1.853-1.274c-3.79-0.007-7.581,0.068-11.368-0.037c-1.523-0.042-1.802,0.547-1.76,1.901
		C182.059,234.935,181.996,237.884,181.996,240.832z M159.229,240.906c0,3.113,0.017,6.227-0.009,9.34
		c-0.009,1.016,0.021,1.747,1.417,1.764c1.469,0.017,1.316-0.818,1.365-1.776c0.13-2.572-1.151-6.187,0.509-7.438
		c1.734-1.305,5.147-0.381,7.827-0.433c0.084-0.001,0.169,0.01,0.252-0.001c1.102-0.143,1.478,0.345,1.444,1.436
		c-0.064,2.102,0,4.208-0.025,6.311c-0.012,1.049-0.14,1.954,1.475,1.905c1.562-0.048,1.232-1.023,1.234-1.879
		c0.013-6.059,0.011-12.117,0.002-18.175c-0.001-0.88,0.267-1.828-1.261-1.875c-1.639-0.051-1.393,0.924-1.459,1.939
		c-0.162,2.48,1.128,5.795-0.55,7.229c-1.734,1.482-5.001,0.245-7.582,0.473c-1.665,0.147-1.99-0.576-1.908-2.04
		c0.107-1.93,0.009-3.869,0.033-5.805c0.012-0.977,0.081-1.792-1.365-1.795c-1.388-0.004-1.426,0.701-1.413,1.733
		C159.254,234.848,159.229,237.877,159.229,240.906z M143.832,242.396c0,2.607,0.012,5.215-0.006,7.822
		c-0.007,0.964-0.104,1.773,1.352,1.804c1.497,0.031,1.592-0.68,1.58-1.843c-0.044-4.205-0.018-8.411-0.018-12.618
		c0-4.414,0-4.414,4.37-4.785c0.084-0.007,0.169-0.011,0.252-0.003c0.905,0.088,1.136-0.389,1.123-1.208
		c-0.014-0.823-0.028-1.471-1.154-1.461c-4.037,0.037-8.075,0.03-12.113,0.004c-0.9-0.006-1.143,0.4-1.125,1.223
		c0.017,0.814,0.008,1.522,1.15,1.453c0.922-0.057,1.859,0.074,2.773-0.027c1.436-0.158,1.906,0.371,1.847,1.817
		C143.755,237.177,143.831,239.787,143.832,242.396z M302.72,242.27c0,2.691,0.037,5.385-0.019,8.075
		c-0.022,1.109,0.184,1.668,1.492,1.672c1.357,0.004,1.458-0.653,1.448-1.712c-0.034-4.289-0.014-8.58-0.014-12.87
		c0-4.396,0-4.396,4.244-4.659c0.167-0.01,0.337-0.014,0.505-0.003c1.028,0.069,0.979-0.631,0.988-1.334
		c0.008-0.73-0.038-1.331-1.021-1.326c-4.122,0.019-8.244,0.021-12.366,0c-1.015-0.005-0.989,0.637-0.991,1.345
		c-0.003,0.722,0.017,1.358,1.018,1.32c0.924-0.034,1.862,0.092,2.773-0.023c1.563-0.197,2.054,0.382,1.975,1.946
		C302.627,237.219,302.72,239.747,302.72,242.27z M98.015,240.834c0-2.946-0.011-5.891,0.006-8.837
		c0.005-1.022,0.197-1.959-1.437-1.938c-1.722,0.022-1.321,1.112-1.323,2.041c-0.013,5.976-0.007,11.95-0.006,17.926
		c0,0.987-0.259,2.021,1.41,1.986c1.701-0.034,1.331-1.159,1.34-2.089C98.032,246.894,98.014,243.864,98.015,240.834z"/>
	<path fill-rule="evenodd" clip-rule="evenodd" fill="#FAFBFA" d="M115.016,352.153c0-10.117,0.039-20.235-0.038-30.354
		c-0.013-1.757,0.235-2.506,2.284-2.487c11.804,0.106,23.609,0.077,35.413,0.021c1.583-0.007,2.249,0.309,2.179,2.067
		c-0.14,3.536-0.127,7.084-0.003,10.621c0.057,1.603-0.468,1.971-1.995,1.954c-6.997-0.077-13.998,0.047-20.994-0.086
		c-1.966-0.038-2.446,0.561-2.308,2.402c0.164,2.18,0.132,4.387,0.006,6.572c-0.086,1.501,0.494,1.809,1.87,1.788
		c4.89-0.073,9.782,0.033,14.67-0.063c1.596-0.032,2.239,0.314,2.173,2.057c-0.133,3.537-0.113,7.084-0.006,10.622
		c0.048,1.565-0.448,2.018-1.998,1.987c-4.72-0.093-9.449,0.096-14.163-0.091c-2.2-0.087-2.744,0.642-2.553,2.682
		c0.18,1.922,0.201,3.893-0.005,5.809c-0.221,2.045,0.646,2.303,2.413,2.279c6.913-0.097,13.828,0.01,20.741-0.076
		c1.62-0.021,2.21,0.361,2.149,2.075c-0.129,3.622-0.091,7.252-0.012,10.876c0.029,1.343-0.425,1.715-1.738,1.711
		c-12.142-0.045-24.284-0.065-36.425,0.013c-1.957,0.013-1.663-1.11-1.662-2.277C115.017,372.222,115.016,362.188,115.016,352.153z"
		/>
	<path fill-rule="evenodd" clip-rule="evenodd" fill="#FAFBFA" d="M190.478,363.992c4.966-14.373,9.81-28.262,14.525-42.193
		c0.655-1.933,1.535-2.613,3.57-2.485c3.107,0.194,6.241,0.176,9.351,0.007c2.094-0.114,2.352,0.431,1.681,2.339
		c-5.521,15.7-10.957,31.43-16.416,47.152c-1.599,4.604-3.246,9.194-4.749,13.831c-0.467,1.442-1.146,1.94-2.669,1.891
		c-3.62-0.119-7.248-0.084-10.871-0.015c-1.248,0.023-1.927-0.243-2.385-1.573c-7.091-20.584-14.242-41.149-21.412-61.706
		c-0.495-1.421-0.308-1.951,1.328-1.905c3.369,0.098,6.747,0.144,10.111-0.015c1.831-0.087,2.6,0.533,3.187,2.264
		c4.48,13.215,9.076,26.39,13.641,39.575C189.641,361.938,189.97,362.697,190.478,363.992z"/>
	<path fill-rule="evenodd" clip-rule="evenodd" fill="#FAFBFA" d="M250.537,351.912c0-10.117,0.044-20.232-0.041-30.348
		c-0.015-1.783,0.486-2.316,2.258-2.24c3.197,0.139,6.412,0.174,9.606-0.006c2.153-0.122,2.847,0.377,2.827,2.721
		c-0.127,15.09-0.022,30.18-0.115,45.269c-0.013,2.054,0.405,2.717,2.576,2.646c5.306-0.179,10.622,0.039,15.929-0.11
		c1.968-0.054,2.414,0.574,2.334,2.416c-0.147,3.366-0.118,6.745-0.01,10.114c0.052,1.608-0.355,2.176-2.085,2.162
		c-10.368-0.082-20.738-0.087-31.105,0.002c-1.824,0.017-2.225-0.555-2.211-2.278C250.576,372.144,250.537,362.028,250.537,351.912z
		"/>
	<path fill-rule="evenodd" clip-rule="evenodd" fill="#FCFCFC" d="M240.996,352.136c0,9.938-0.065,19.879,0.053,29.817
		c0.024,2.143-0.602,2.701-2.67,2.587c-3.275-0.181-6.57-0.117-9.852-0.018c-1.493,0.046-2.038-0.326-2.034-1.934
		c0.052-20.384,0.057-40.77-0.004-61.153c-0.005-1.735,0.567-2.15,2.181-2.101c3.366,0.106,6.741,0.127,10.105-0.007
		c1.758-0.07,2.276,0.443,2.262,2.23C240.953,331.751,240.996,341.943,240.996,352.136z"/>
	<path fill-rule="evenodd" clip-rule="evenodd" fill="#282828" d="M290.579,308.511c11.159-0.034,22.319-0.063,33.478-0.109
		c1.085-0.005,2.169-0.118,3.254-0.182c0.043,3.785,0.049,7.572,0.15,11.357c0.035,1.288-0.498,1.993-1.616,2.533
		c-11.205,5.407-22.4,10.836-33.584,16.292c-1.323,0.645-1.783,0.397-1.774-1.104C290.544,327.703,290.554,318.106,290.579,308.511z
		"/>
	<path fill-rule="evenodd" clip-rule="evenodd" fill="#282828" d="M74.553,308.235c6.292,0.059,12.583,0.134,18.875,0.168
		c5.792,0.032,11.586,0.019,17.379,0.024c0.021,9.505,0.024,19.012,0.082,28.516c0.008,1.421-0.109,2.094-1.746,1.23
		c-2.224-1.175-4.573-2.106-6.835-3.209c-8.535-4.164-17.037-8.393-25.598-12.5c-1.659-0.795-2.41-1.736-2.313-3.638
		C74.576,315.305,74.515,311.768,74.553,308.235z"/>
	<path fill-rule="evenodd" clip-rule="evenodd" fill="#9B9B9B" d="M289.969,308.174c0.2,0.047,0.398,0.094,0.599,0.141
		C290.31,308.511,290.134,308.366,289.969,308.174z"/>
	<path fill-rule="evenodd" clip-rule="evenodd" fill="#FCFCFC" d="M55.438,30.05c-1.772,5.289-3.35,10.591-2.468,16.3
		c0.986,6.385,4.486,10.847,10.373,13.256c2.439,0.998,3.482,2.437,3.293,4.93c-0.218,2.886-1.807,4.701-4.49,5.385
		c-1.714,0.436-3.393,0.201-4.997-0.239c-4.678-1.283-8.982-3.419-12.676-6.566c-4.251-3.622-5.276-8.274-3.555-13.498
		c2.663-8.089,8.051-14.265,14.21-19.872C55.229,29.85,55.332,29.952,55.438,30.05z"/>
	<path fill-rule="evenodd" clip-rule="evenodd" fill="#FCFCFC" d="M345.805,29.041c5.32,4.91,10.149,10.153,13.242,16.736
		c4.065,8.655,2.144,14.736-6.107,19.58c-3.425,2.01-6.964,3.743-10.959,4.273c-4.141,0.549-7.232-1.797-7.381-5.65
		c-0.069-1.808,0.146-3.533,2.245-4.324c9.788-3.687,13.094-12.167,11.111-22.609C347.44,34.332,346.425,31.763,345.805,29.041z"/>
	<path fill-rule="evenodd" clip-rule="evenodd" fill="#FCFCFC" d="M55.127,29.746c0.077-0.208,0.142-0.493,0.431-0.297
		c0.064,0.044-0.076,0.392-0.122,0.601C55.332,29.952,55.229,29.85,55.127,29.746z"/>
	<path fill-rule="evenodd" clip-rule="evenodd" fill="#FAFBFA" d="M296.022,173.584c-3.126,0.004-4.938-3.338-3.711-6.346
		c0.62-1.521,1.685-2.7,2.983-3.666c2.17-1.613,3.347-1.359,4.73,0.979c0.733,1.24,1.531,2.493,2.838,3.127
		c1.422,0.691,1.05,1.514,0.381,2.355C301.336,172.434,298.656,173.277,296.022,173.584z"/>
	<path fill-rule="evenodd" clip-rule="evenodd" fill="#9B9B9B" d="M317.873,158.407c6.053-2.73,4.218-7.867,3.816-12.554
		c-0.713-8.337-1.487-16.669-2.137-25.012c-0.146-1.855,0.896-2.81,2.863-2.409c-1.383,2.396-0.598,4.967-0.409,7.413
		c0.653,8.47,1.556,16.919,2.307,25.382C324.699,155.572,322.425,158.047,317.873,158.407z"/>
	<path fill-rule="evenodd" clip-rule="evenodd" fill="#9B9B9B" d="M288.649,182.362c-2.46,0.102-4.388-1.161-5.956-2.77
		c-3.573-3.666-5.109-8.041-3.83-13.174c1.569-6.295,7.931-12.475,13.584-13.197c-2.591,1.93-5.486,3.41-7.661,5.947
		c-5.113,5.968-5.61,13.309-1.251,19.21C284.903,180.231,287.009,180.958,288.649,182.362z"/>
	<path fill-rule="evenodd" clip-rule="evenodd" fill="#9B9B9B" d="M337.943,180.629c-0.112-0.217-0.313-0.432-0.321-0.652
		c-0.036-1.001-0.017-2.005-0.017-3.537c2.433,2.313,4.336,4.539,5.538,7.285c1.945,4.447,2.315,9.243,2.889,13.983
		c0.091,0.753-0.009,1.624-0.776,1.993c-0.94,0.452-1.568-0.157-2.026-0.947c0.705-0.228,0.798-0.733,0.702-1.392
		c-0.339-2.314-0.581-4.644-0.983-6.946c-0.605-3.472-1.357-6.915-3.661-9.751C338.925,180.22,338.429,179.001,337.943,180.629z"/>
	<path fill-rule="evenodd" clip-rule="evenodd" fill="#FAFBFA" d="M337.943,180.629c0.485-1.628,0.981-0.409,1.344,0.036
		c2.304,2.836,3.056,6.279,3.661,9.751c0.402,2.302,0.645,4.632,0.983,6.946c0.096,0.658,0.003,1.164-0.702,1.392
		C339.786,193.203,338.639,186.981,337.943,180.629z"/>
	<path fill-rule="evenodd" clip-rule="evenodd" fill="#9B9B9B" d="M289.978,182.661c-0.183-0.042-0.364-0.083-0.546-0.124
		C289.675,182.306,289.844,182.406,289.978,182.661z"/>
	<path fill-rule="evenodd" clip-rule="evenodd" fill="#9B9B9B" d="M314.236,158.428c0.211,0.083,0.424,0.167,0.637,0.25
		C314.571,158.821,314.381,158.682,314.236,158.428z"/>
	<path fill-rule="evenodd" clip-rule="evenodd" fill="#9B9B9B" d="M295.488,152.438c0.208-0.034,0.414-0.068,0.622-0.102
		C295.933,152.555,295.737,152.654,295.488,152.438z"/>
	<path fill-rule="evenodd" clip-rule="evenodd" fill="#9B9B9B" d="M78.452,119.946c2.361-0.399,3.004,0.833,2.817,2.919
		c-0.917,10.212-1.747,20.432-2.779,30.632c-0.263,2.596,1.787,3.827,2.601,5.762c-4.042-1.893-4.784-3.59-4.368-7.908
		c0.922-9.59,1.624-19.202,2.417-28.804C79.22,121.596,79.058,120.714,78.452,119.946z"/>
	<path fill-rule="evenodd" clip-rule="evenodd" fill="#FAFBFA" d="M104.314,163.884c1.912,0.858,3.263,2.289,4.153,4.155
		c0.872,1.827,0.584,3.627-0.506,5.225c-1.099,1.612-2.82,1.626-4.524,1.262c-0.806-0.172-1.567-0.556-2.348-0.843
		c-0.098-0.68-0.583-0.806-1.156-0.806c0,0-0.07-0.032-0.07-0.031c0.154-1.191-1.963-2.345-0.841-3.071
		C101.389,168.243,102.354,165.651,104.314,163.884z"/>
	<path fill-rule="evenodd" clip-rule="evenodd" fill="#9B9B9B" d="M113.262,157.068c2.59,0.372,3.817,2.551,5.299,4.238
		c4.83,5.498,5.052,12.751,1.044,18.352c-2.518,3.519-9.053,5.783-12.277,4.509c1.125-0.71,2.448-0.351,3.658-0.693
		c7.689-2.171,11.453-10.927,8.085-18.631C117.725,161.764,115.264,159.609,113.262,157.068z"/>
	<path fill-rule="evenodd" clip-rule="evenodd" fill="#FAFBFA" d="M62.866,182.601c-0.649,6.226-1.865,12.285-5.234,17.707
		c-0.806-0.332-0.736-0.939-0.62-1.66c0.423-2.625,0.765-5.264,1.175-7.892c0.495-3.167,1.463-6.155,3.5-8.704
		c0.237-0.297,0.501-0.831,0.896-0.598C62.82,181.594,62.781,182.203,62.866,182.601z"/>
	<path fill-rule="evenodd" clip-rule="evenodd" fill="#9B9B9B" d="M62.866,182.601c-0.085-0.398-0.046-1.007-0.284-1.147
		c-0.395-0.232-0.659,0.301-0.896,0.598c-2.036,2.549-3.005,5.537-3.5,8.704c-0.411,2.628-0.752,5.266-1.175,7.892
		c-0.116,0.721-0.186,1.328,0.62,1.66c-0.33,0.797-0.945,1.213-1.773,1.01c-0.773-0.189-1.014-1-0.957-1.612
		c0.736-7.843,1.333-15.757,8.521-21.716C63.103,179.802,63.754,181.227,62.866,182.601z"/>
	<path fill-rule="evenodd" clip-rule="evenodd" fill="#9B9B9B" d="M104.314,163.884c-1.96,1.767-2.926,4.359-5.292,5.89
		c-1.123,0.726,0.995,1.88,0.841,3.071c-1.835-0.036-2.539-1.436-3.034-2.803c-0.499-1.377,1.122-1.393,1.744-2.047
		c0.869-0.914,1.717-1.832,2.214-2.991C101.55,163.226,102.698,162.867,104.314,163.884z"/>
	<path fill-rule="evenodd" clip-rule="evenodd" fill="#9B9B9B" d="M99.934,172.876c0.572,0,1.058,0.125,1.156,0.806
		C100.571,173.603,99.903,173.741,99.934,172.876z"/>
	<path fill-rule="evenodd" clip-rule="evenodd" fill="#9B9B9B" d="M112.076,156.199c0.505,0.083,1.173-0.049,1.082,0.821
		C112.655,156.935,112.111,156.901,112.076,156.199z"/>
	<path fill-rule="evenodd" clip-rule="evenodd" fill="#9B9B9B" d="M104.408,183.864c-0.22-0.046-0.44-0.093-0.66-0.139
		C103.968,183.771,104.188,183.818,104.408,183.864z"/>
	<path fill-rule="evenodd" clip-rule="evenodd" fill="#FEFEFE" d="M49.337,338.804c0.247,0.227,0.53,0.482,0.174,0.789
		c-0.082,0.07-0.414-0.148-0.63-0.233C49.033,339.174,49.186,338.988,49.337,338.804z"/>
	<path fill-rule="evenodd" clip-rule="evenodd" fill="#FEFEFE" d="M347.412,336.748c-0.372,0.224-0.746,0.351-1.136,0.037
		c0.247-0.169,0.494-0.336,0.741-0.503C347.149,336.436,347.28,336.593,347.412,336.748z"/>
	<path fill-rule="evenodd" clip-rule="evenodd" fill="#373636" d="M286.152,56.043c-58,0-115.255,0-172.547,0
		c0.045-0.917,0.878-0.911,1.399-1.159c28.159-13.445,56.33-26.866,84.491-40.31c1.102-0.526,1.988-0.783,3.251-0.154
		c27.253,13.582,54.537,27.1,81.813,40.636C284.908,55.229,285.227,55.466,286.152,56.043z"/>
	<path fill-rule="evenodd" clip-rule="evenodd" fill="#363535" d="M132.264,139.075c7.936-22.93,15.885-45.854,23.775-68.8
		c0.518-1.505,1.179-2.09,2.833-2.043c4.63,0.127,9.266,0.068,13.899,0.026c1.105-0.01,1.804,0.158,2.229,1.391
		c7.79,22.643,15.629,45.269,23.456,67.898c0.055,0.158,0.068,0.33,0.101,0.494c-0.45,0.643-1.133,0.612-1.799,0.608
		c-5.156-0.027-10.313-0.058-15.471-0.087c-2.934-8.54-5.867-17.08-8.8-25.62c-0.244-1.305-1.274-1.126-2.181-1.13
		c-2.694-0.014-5.403,0.165-8.079-0.056c-2.424-0.2-3.566,0.646-4.321,2.981c-2.426,7.505-5.128,14.921-7.624,22.404
		c-0.51,1.529-1.234,2.07-2.863,2.03C142.369,139.043,137.315,139.094,132.264,139.075z"/>
	<path fill-rule="evenodd" clip-rule="evenodd" fill="#363535" d="M202.481,115.379c-0.089-8.165-0.893-16.382,0.501-24.472
		c2.439-14.15,15.662-24.076,29.586-22.566c13.963,1.515,24.844,13.796,24.592,27.756c-0.663,0.763-1.562,0.498-2.373,0.503
		c-3.54,0.025-7.08,0.024-10.62,0.003c-1.076-0.006-2.211,0.244-3.165-0.527c-0.429-6.361-5.226-11.492-10.838-11.594
		c-6.738-0.122-11.856,5.737-11.474,13.129c-0.292,4.632-0.251,9.269-0.077,13.902c0.224,5.92,5.09,11.192,10.452,11.428
		c5.792,0.254,11.074-4.162,11.823-10.198c0.236-1.916,0.898-2.351,2.671-2.292c3.705,0.125,7.424,0.159,11.126-0.008
		c2.111-0.096,2.961,0.53,2.605,2.66c-0.151,0.91-0.146,1.847-0.211,2.771c-0.337,0.315-0.451,0.66-0.135,1.059
		c-0.037,0.294-0.075,0.588-0.113,0.881c-0.695,0.497-0.676,1.32-0.909,2.023c-3.553,10.75-13.224,18.662-23.592,19.29
		c-12.151,0.736-22.132-5.112-27.297-16.062c-0.885-1.879-1.554-3.861-2.322-5.796c-0.043-0.292-0.087-0.584-0.131-0.875
		C203.006,116.011,202.835,115.687,202.481,115.379z"/>
	<path fill-rule="evenodd" clip-rule="evenodd" fill="#353435" d="M278.896,123.97c-0.046,5.031-0.092,10.062-0.137,15.092
		c-5.356,0.024-10.713,0.05-16.069,0.075c-0.049-0.333-0.14-0.664-0.14-0.996c0.01-22.678,0.038-45.357,0.016-68.036
		c-0.002-1.388,0.318-1.896,1.798-1.863c4.213,0.096,8.432,0.094,12.645,0.001c1.465-0.033,1.838,0.446,1.82,1.859
		c-0.073,5.792-0.03,11.584-0.03,18.022c4.89-5.442,9.602-10.231,13.751-15.467c2.734-3.449,5.688-5.007,10.063-4.447
		c2.737,0.351,5.556,0.037,8.338,0.088c0.587,0.011,1.373-0.42,1.758,0.466c-9.232,10.835-18.41,21.717-27.75,32.459
		c-1.666,1.917-2.311,3.287-0.056,4.984c9.144,10.797,18.287,21.594,27.431,32.392c-5.417,0.009-10.835,0.017-16.252,0.025
		c-5.594-6.211-11.186-12.422-17.185-19.083C278.896,121.494,278.896,122.732,278.896,123.97z"/>
	<path fill-rule="evenodd" clip-rule="evenodd" fill="#373637" d="M120.199,213.889c3.758-8.309,7.431-16.222,10.896-24.225
		c0.904-2.087,1.981-2.942,4.287-2.721c2.505,0.239,5.051,0.102,7.577,0.033c1.195-0.032,1.618,0.365,1.615,1.583
		c-0.032,12.469-0.033,24.938,0.001,37.407c0.003,1.29-0.377,1.784-1.726,1.74c-2.777-0.089-5.563-0.11-8.339,0.006
		c-1.613,0.067-2.22-0.345-2.147-2.083c0.145-3.423,0.043-6.855-0.449-10.442c-1.577,3.424-3.286,6.796-4.678,10.294
		c-0.721,1.811-1.704,2.355-3.564,2.238c-3.183-0.2-7.058,0.922-9.376-0.529c-2.2-1.379-2.772-5.35-4.067-8.176
		c-0.683-1.492-1.382-2.977-2.461-4.388c0,3.747-0.062,7.496,0.031,11.24c0.036,1.45-0.427,1.893-1.858,1.844
		c-2.861-0.1-5.73-0.098-8.592,0c-1.348,0.045-1.695-0.396-1.69-1.712c0.046-12.385,0.046-24.771,0.001-37.155
		c-0.005-1.372,0.304-2.089,1.791-1.849c0.083,0.013,0.168,0.001,0.252,0.002c3.364,0.036,7.335-1.019,9.92,0.417
		c2.59,1.439,3.08,5.711,4.483,8.743c2.33,5.035,4.574,10.109,6.86,15.163C119.307,212.069,119.678,212.805,120.199,213.889z"/>
	<path fill-rule="evenodd" clip-rule="evenodd" fill="#353435" d="M94.188,139.138c-0.049-0.416-0.141-0.832-0.141-1.248
		c0.01-22.581,0.047-45.162,0.004-67.742c-0.003-1.65,0.545-1.938,2.02-1.903c3.958,0.094,7.923,0.132,11.878-0.012
		c1.845-0.067,2.407,0.369,2.398,2.323c-0.076,16.599,0.015,33.197-0.066,49.795c-0.01,2.076,0.445,2.71,2.59,2.63
		c4.795-0.178,9.604-0.038,14.406-0.069c1.11-0.007,1.891-0.019,1.854,1.529c-0.114,4.882-0.076,9.769-0.096,14.653
		C117.418,139.108,105.803,139.123,94.188,139.138z"/>
	<path fill-rule="evenodd" clip-rule="evenodd" fill="#353435" d="M149.751,207.278c-0.458-5.025,0.092-9.746,3.804-13.634
		c3.129-3.279,6.907-5.347,11.328-6.138c7.154-1.279,13.92-0.438,19.822,4.209c3.929,3.093,6.076,7.115,6.049,12.196
		c-0.01,1.77,0.001,3.539-0.003,5.309c-0.012,8.492-4.168,14.325-12.268,17.077c-6.959,2.362-13.771,1.951-20.216-1.644
		c-5.652-3.15-8.879-7.856-8.521-14.595C149.794,209.136,149.751,208.206,149.751,207.278z"/>
	<path fill-rule="evenodd" clip-rule="evenodd" fill="#373637" d="M206.946,205.477c0,6.921-0.144,13.115,0.07,19.296
		c0.088,2.548-0.72,3.161-3.085,2.955c-2.426-0.212-4.887-0.103-7.328-0.025c-1.234,0.039-1.775-0.208-1.77-1.63
		c0.055-12.476,0.052-24.951,0.003-37.427c-0.006-1.372,0.463-1.707,1.74-1.674c2.948,0.078,5.902,0.094,8.849-0.005
		c1.363-0.046,2.104,0.469,2.822,1.593c3.764,5.886,7.618,11.715,11.447,17.558c0.495,0.754,1.028,1.481,1.592,2.291
		c0.694-0.754,0.375-1.536,0.379-2.226c0.032-5.816,0.049-11.633-0.006-17.449c-0.012-1.253,0.245-1.814,1.647-1.767
		c2.947,0.099,5.901,0.068,8.851,0.012c1.171-0.022,1.632,0.331,1.628,1.575c-0.035,12.56-0.032,25.12-0.002,37.68
		c0.003,1.089-0.325,1.485-1.436,1.466c-3.202-0.054-6.408-0.08-9.608,0.012c-1.313,0.037-1.704-0.841-2.247-1.672
		c-3.874-5.915-7.748-11.831-11.626-17.744C208.383,207.555,207.872,206.833,206.946,205.477z"/>
	<path fill-rule="evenodd" clip-rule="evenodd" fill="#373637" d="M237.29,207.192c-0.001-5.982,0.054-11.967-0.037-17.948
		c-0.023-1.633,0.198-2.323,2.116-2.299c9.352,0.114,18.707,0.089,28.06,0.017c1.682-0.013,2.502,0.321,2.286,2.188
		c-0.268,2.313,0.995,5.416-0.521,6.754c-1.301,1.148-4.322,0.38-6.583,0.398c-3.707,0.029-7.418,0.098-11.122-0.032
		c-1.691-0.06-2.101,0.485-2.077,2.115c0.059,4.224-0.022,4.225,4.237,4.225c2.95,0,5.901,0.074,8.847-0.03
		c1.485-0.053,1.898,0.492,1.817,1.892c-0.141,2.42,0.734,5.526-0.461,7.075c-1.137,1.47-4.416,0.329-6.749,0.44
		c-1.178,0.056-2.359,0.01-3.539,0.01c-4.224,0-4.952,1.004-4.137,5.313c0.265,1.396,1.205,0.931,1.917,0.937
		c5.392,0.039,10.788,0.099,16.178-0.022c1.827-0.04,2.372,0.57,2.188,2.295c-0.247,2.315,0.998,5.416-0.516,6.755
		c-1.297,1.148-4.32,0.392-6.58,0.397c-7.753,0.022-15.507-0.036-23.258,0.046c-1.625,0.019-2.136-0.387-2.108-2.07
		C237.352,219.496,237.29,213.344,237.29,207.192z"/>
	<path fill-rule="evenodd" clip-rule="evenodd" fill="#393838" d="M153.39,281.885c-0.023,12.984-10.454,23.243-23.589,23.202
		c-12.813-0.041-22.931-10.456-22.902-23.578c0.028-12.704,10.462-23.001,23.277-22.966
		C143.052,258.578,153.413,268.996,153.39,281.885z M147.736,281.929c0.025-9.588-8.112-17.774-17.66-17.768
		c-9.423,0.005-17.506,8.09-17.584,17.588c-0.079,9.481,7.946,17.651,17.405,17.72C139.567,299.538,147.71,291.531,147.736,281.929z
		"/>
	<path fill-rule="evenodd" clip-rule="evenodd" fill="#3A3939" d="M211.478,288.218c0-4.888-0.148-9.781,0.034-14.662
		c0.311-8.296,7.53-14.941,16.07-15.014c8.504-0.072,15.966,6.445,16.438,14.671c0.579,10.104,0.093,20.228,0.246,30.342
		c0.018,1.229-0.438,1.672-1.629,1.563c-0.752-0.068-1.527-0.098-2.272,0.005c-1.65,0.226-1.955-0.552-1.935-2.028
		c0.075-5.481-0.035-10.964,0.068-16.443c0.032-1.672-0.465-2.138-2.117-2.109c-5.733,0.095-11.471,0.121-17.201-0.01
		c-1.906-0.045-2.172,0.68-2.144,2.327c0.095,5.396-0.03,10.795,0.075,16.19c0.033,1.674-0.46,2.129-2.113,2.098
		c-3.68-0.074-3.681,0.018-3.68-3.774c0-4.385,0-8.77,0-13.154C211.371,288.218,211.425,288.218,211.478,288.218z M227.718,279.089
		c2.102,0,4.205,0,6.308,0c4.679,0,4.679,0,4.43-4.771c-0.423-8.055-9.573-12.763-16.332-8.401
		c-4.139,2.672-5.385,6.602-5.101,11.312c0.085,1.402,0.42,1.929,1.863,1.887C221.828,279.027,224.773,279.088,227.718,279.089z"/>
	<path fill-rule="evenodd" clip-rule="evenodd" fill="#373637" d="M273.601,186.999c4.047,0,7.714,0.018,11.381-0.011
		c1.052-0.009,1.434,0.782,1.902,1.443c2.29,3.22,4.547,6.463,7.07,10.062c2.14-3.061,4.308-5.884,6.157-8.902
		c1.248-2.036,2.696-2.851,5.1-2.649c2.809,0.237,5.653,0.055,9.004,0.055c-1.547,2.263-2.794,4.113-4.068,5.943
		c-2.885,4.141-5.744,8.301-8.699,12.392c-0.979,1.353-1.461,2.696-1.43,4.396c0.097,5.304-0.034,10.61,0.076,15.914
		c0.035,1.695-0.498,2.148-2.127,2.073c-2.773-0.126-5.558-0.103-8.333-0.006c-1.349,0.047-1.708-0.398-1.69-1.716
		c0.068-5.388-0.016-10.777,0.056-16.165c0.021-1.584-0.353-2.878-1.288-4.183C282.37,199.583,278.125,193.453,273.601,186.999z"/>
	<path fill-rule="evenodd" clip-rule="evenodd" fill="#373637" d="M158.719,281.953c0-7.075,0.062-14.151-0.042-21.226
		c-0.026-1.805,0.535-2.236,2.269-2.221c9.097,0.082,18.195,0.128,27.29-0.025c2.268-0.038,2.241,1.072,2.078,2.574
		c-0.146,1.342,0.903,3.226-2.001,3.156c-7.24-0.172-14.488,0.022-21.73-0.108c-1.971-0.035-2.407,0.584-2.334,2.419
		c0.141,3.532,0.115,7.076,0.008,10.61c-0.048,1.586,0.509,2.011,2.028,1.987c5.053-0.078,10.114,0.119,15.159-0.095
		c2.413-0.104,2.296,1.129,2.244,2.748c-0.048,1.496,0.395,2.952-2.152,2.844c-5.045-0.212-10.106,0.004-15.158-0.101
		c-1.685-0.034-2.154,0.491-2.125,2.147c0.097,5.391-0.101,10.786,0.101,16.17c0.087,2.328-1.007,2.399-2.69,2.281
		c-1.484-0.105-3.102,0.586-3.016-2.189C158.864,295.941,158.719,288.945,158.719,281.953z"/>
	<path fill-rule="evenodd" clip-rule="evenodd" fill="#3C3735" d="M275.905,281.824c0.001-6.824,0.121-13.651-0.064-20.471
		c-0.066-2.43,0.738-2.872,2.962-2.896c2.193-0.023,2.78,0.497,2.756,2.751c-0.13,11.793-0.007,23.589-0.109,35.382
		c-0.019,2.192,0.371,3.066,2.824,2.954c4.877-0.222,9.774,0.069,14.653-0.122c2.411-0.095,2.063,1.316,1.969,2.697
		c-0.089,1.314,0.782,3.09-1.939,3.031c-6.989-0.147-13.984-0.1-20.975-0.01c-1.643,0.021-2.138-0.41-2.116-2.088
		C275.958,295.978,275.904,288.9,275.905,281.824z"/>
	<path fill-rule="evenodd" clip-rule="evenodd" fill="#3C3735" d="M249.086,281.939c0.001-6.992,0.142-13.988-0.069-20.975
		c-0.082-2.73,1.384-2.396,3.104-2.454c1.727-0.057,2.647,0.084,2.622,2.328c-0.135,12.046-0.023,24.095-0.104,36.142
		c-0.014,1.902,0.345,2.629,2.448,2.555c4.964-0.174,9.94,0.003,14.91-0.091c1.591-0.029,2.193,0.317,2.146,2.058
		c-0.097,3.598,0.013,3.601-3.656,3.601c-6.486,0-12.974-0.048-19.461,0.035c-1.546,0.02-1.996-0.394-1.977-1.968
		C249.136,296.094,249.086,289.017,249.086,281.939z"/>
	<path fill-rule="evenodd" clip-rule="evenodd" fill="#3A3939" d="M191.112,149.053c8.977,0.144,15.95,7.271,15.839,16.185
		c-0.112,8.976-7.385,15.992-16.456,15.877c-8.874-0.113-15.726-7.298-15.609-16.367
		C175.001,155.739,182.063,148.908,191.112,149.053z M190.947,177.094c6.573-0.028,12.031-5.509,12.01-12.059
		c-0.021-6.461-5.621-12.109-12.047-12.149c-6.516-0.042-12.182,5.709-12.13,12.312
		C178.831,171.751,184.325,177.123,190.947,177.094z"/>
	<path fill-rule="evenodd" clip-rule="evenodd" fill="#3D3A3C" d="M210.462,165.042c0-4.72,0.048-9.44-0.029-14.159
		c-0.023-1.4,0.334-1.893,1.813-1.875c6.151,0.079,12.306,0.091,18.457-0.005c1.689-0.026,1.61,0.832,1.663,2.021
		c0.061,1.362-0.264,1.925-1.776,1.895c-4.634-0.094-9.271,0.032-13.905-0.068c-1.692-0.037-2.458,0.349-2.322,2.207
		c0.152,2.096,0.109,4.215,0.01,6.317c-0.063,1.356,0.438,1.733,1.738,1.702c3.201-0.077,6.408,0.048,9.607-0.057
		c1.518-0.05,2.073,0.348,2.038,1.957c-0.032,1.47-0.31,2.115-1.955,2.047c-3.112-0.127-6.239,0.068-9.351-0.077
		c-1.745-0.083-2.136,0.555-2.085,2.16c0.106,3.368-0.044,6.744,0.065,10.112c0.053,1.604-0.531,1.95-2.04,1.973
		c-1.577,0.024-1.997-0.441-1.964-1.99C210.525,174.483,210.462,169.762,210.462,165.042z"/>
	<path fill-rule="evenodd" clip-rule="evenodd" fill="#3D3A3C" d="M149.053,166.444c6.155,0,12.314,0.127,18.464-0.065
		c2.329-0.073,2.146,1.148,2.048,2.603c-0.09,1.344,0.711,2.994-1.985,2.966c-12.394-0.13-24.79-0.126-37.183,0
		c-2.559,0.026-2.079-1.451-2.115-2.909c-0.037-1.448-0.287-2.721,2.054-2.655C136.571,166.56,142.814,166.444,149.053,166.444z"/>
	<path fill-rule="evenodd" clip-rule="evenodd" fill="#3A3939" d="M252.809,171.885c-6.15,0-12.303-0.131-18.445,0.066
		c-2.372,0.076-2.383-1.069-2.29-2.727c0.081-1.429-0.488-2.878,2.109-2.846c12.381,0.154,24.766,0.144,37.146,0.005
		c2.422-0.027,2.002,1.287,1.982,2.664c-0.02,1.421,0.538,2.975-2.058,2.897C265.11,171.76,258.957,171.885,252.809,171.885z"/>
	<path fill-rule="evenodd" clip-rule="evenodd" fill="#9B9B9B" d="M202.712,117.27c0.769,1.935,1.438,3.917,2.322,5.796
		c5.165,10.95,15.146,16.797,27.297,16.062c10.368-0.628,20.039-8.54,23.592-19.29c0.233-0.703,0.214-1.526,0.909-2.023
		c0.256,4.637-1.473,8.727-3.879,12.47c-6.597,10.259-16.599,14.245-27.156,12.693c-11.57-1.7-20.188-10.227-22.779-21.772
		C202.731,119.934,202.088,118.635,202.712,117.27z"/>
	<path fill-rule="evenodd" clip-rule="evenodd" fill="#3D3A3C" d="M261.682,240.923c0.017,6.263-4.733,11.043-10.952,11.021
		c-6.121-0.023-10.83-4.747-10.837-10.871c-0.008-6.355,4.596-10.966,10.938-10.956
		C257.015,230.125,261.665,234.757,261.682,240.923z M250.865,232.777c-4.31-0.059-8.29,3.861-8.323,8.196
		c-0.034,4.245,3.701,8.061,8.029,8.205c4.336,0.144,8.335-3.656,8.46-8.038C259.153,236.898,255.187,232.836,250.865,232.777z"/>
	<path fill-rule="evenodd" clip-rule="evenodd" fill="#3D3A3C" d="M279.784,230.116c6.256,0.038,10.8,4.765,10.739,11.169
		c-0.056,6.026-4.935,10.73-11.062,10.663c-6.206-0.065-10.791-4.869-10.727-11.238
		C268.796,234.609,273.523,230.078,279.784,230.116z M279.517,232.777c-4.325,0.065-8.262,4.126-8.129,8.388
		c0.133,4.282,3.96,8.021,8.217,8.028c4.364,0.008,8.313-3.929,8.272-8.243C287.836,236.643,283.816,232.714,279.517,232.777z"/>
	<path fill-rule="evenodd" clip-rule="evenodd" fill="#393838" d="M233.956,251.771c-1.942,0.684-3.122,0.04-3.825-1.917
		c-0.509-1.412-1.541-2.65-1.958-4.078c-0.91-3.112-2.968-3.752-5.889-3.473c-1.396,0.133-1.658,0.59-1.616,1.813
		c0.076,2.187-0.018,4.377,0.036,6.564c0.025,0.969-0.271,1.335-1.278,1.317c-1.004-0.019-1.542-0.193-1.534-1.382
		c0.046-6.397,0.046-12.796,0.003-19.193c-0.007-0.995,0.295-1.331,1.271-1.315c3.029,0.051,6.067-0.084,9.088,0.092
		c2.53,0.146,4.133,1.766,4.919,4.099c0.834,2.477,0.059,5.276-2.12,6.752c-1.372,0.927-1.459,1.646-0.721,2.993
		c1.291,2.353,2.405,4.804,3.581,7.219C233.98,251.4,233.943,251.591,233.956,251.771z M224.625,232.771
		c-0.924,0-1.85,0.012-2.773-0.004c-0.664-0.013-1.165,0.122-1.16,0.938c0.008,1.68,0.001,3.361,0.004,5.041
		c0.001,0.787,0.496,0.959,1.165,0.952c1.848-0.021,3.716,0.131,5.54-0.082c1.96-0.229,3.347-1.484,3.24-3.529
		c-0.104-1.988-1.465-3.137-3.494-3.303C226.312,232.717,225.466,232.772,224.625,232.771z"/>
	<path fill-rule="evenodd" clip-rule="evenodd" fill="#6D6D6D" d="M132.264,139.075c5.051,0.019,10.105-0.032,15.154,0.096
		c1.629,0.041,2.353-0.501,2.863-2.03c2.496-7.483,5.198-14.899,7.624-22.404c0.755-2.334,1.897-3.181,4.321-2.981
		c2.676,0.221,5.384,0.042,8.079,0.056c0.906,0.004,1.937-0.175,2.181,1.13c-0.88,0.801,0.156,2.21-0.932,2.946
		c-3.783-0.019-7.567,0.005-11.349-0.083c-1.191-0.028-1.802,0.328-2.177,1.497c-2.643,8.226-5.92,16.24-8.243,24.57
		c-0.297,1.066-0.778,1.298-1.74,1.293c-4.792-0.027-9.585-0.036-14.378,0.004c-1.181,0.01-1.712-0.308-1.49-1.589
		C132.318,140.765,132.242,139.912,132.264,139.075z"/>
	<path fill-rule="evenodd" clip-rule="evenodd" fill="#3D3A3C" d="M111.129,251.904c-2.417,0.073-4.697-0.32-6.454-2.196
		c-0.486-0.519-1.317-1.011-0.224-1.732c0.683-0.452,1.15-1.526,2.244-0.361c1.831,1.95,4.239,1.768,6.606,1.355
		c1.614-0.281,2.463-1.34,2.587-2.964c0.133-1.741-0.853-2.659-2.404-3.048c-1.79-0.453-3.632-0.719-5.395-1.25
		c-2.679-0.809-3.839-2.467-3.892-5.21c-0.059-3.082,1.046-5.207,3.704-5.889c3.547-0.909,7.182-1.214,10.208,1.612
		c0.486,0.454,1.435,0.943,0.343,1.758c-0.69,0.515-1.229,1.514-2.292,0.436c-1.945-1.975-4.359-1.937-6.816-1.335
		c-1.576,0.386-2.435,1.516-2.471,3.114c-0.038,1.707,1.041,2.555,2.604,2.898c1.557,0.341,3.135,0.608,4.667,1.04
		c3.319,0.934,4.843,3.067,4.582,6.257c-0.243,2.967-2.188,5.007-5.329,5.496C112.659,252.002,111.887,251.904,111.129,251.904z"/>
	<path fill-rule="evenodd" clip-rule="evenodd" fill="#9B9B9B" d="M94.188,139.138c11.615-0.015,23.231-0.029,34.846-0.043
		c0.01,0.083,0.025,0.167,0.028,0.25c0.133,3.828,0.133,3.828-3.584,3.828c-9.149,0-18.298,0-27.447,0
		C93.97,143.172,93.97,143.172,94.188,139.138z"/>
	<path fill-rule="evenodd" clip-rule="evenodd" fill="#373637" d="M181.996,240.832c0-2.948,0.063-5.897-0.028-8.842
		c-0.042-1.354,0.236-1.943,1.76-1.901c3.787,0.105,7.578,0.03,11.368,0.037c0.885,0.002,1.83-0.259,1.853,1.274
		c0.021,1.464-0.777,1.382-1.754,1.375c-2.947-0.021-5.896,0.035-8.842-0.027c-1.164-0.026-1.565,0.301-1.629,1.539
		c-0.275,5.411-0.323,5.409,5.092,5.409c0.673,0,1.348-0.01,2.021,0.002c0.973,0.018,2.038-0.278,1.991,1.411
		c-0.049,1.781-1.265,1.201-2.129,1.235c-1.681,0.066-3.378,0.137-5.049-0.015c-1.641-0.146-1.928,0.515-1.927,2.003
		c0.002,4.902-0.06,4.902,4.86,4.902c1.938,0,3.875,0.031,5.811-0.012c0.984-0.022,1.547,0.153,1.546,1.354
		c0,1.138-0.41,1.423-1.476,1.411c-3.957-0.05-7.916-0.08-11.872,0.012c-1.461,0.032-1.636-0.627-1.615-1.822
		C182.033,247.063,181.996,243.947,181.996,240.832z"/>
	<path fill-rule="evenodd" clip-rule="evenodd" fill="#353435" d="M159.229,240.906c0-3.029,0.025-6.059-0.013-9.087
		c-0.013-1.032,0.025-1.737,1.413-1.733c1.446,0.003,1.377,0.818,1.365,1.795c-0.024,1.936,0.074,3.875-0.033,5.805
		c-0.082,1.464,0.243,2.188,1.908,2.04c2.581-0.228,5.848,1.01,7.582-0.473c1.678-1.435,0.388-4.749,0.55-7.229
		c0.066-1.016-0.179-1.99,1.459-1.939c1.527,0.047,1.26,0.995,1.261,1.875c0.008,6.058,0.011,12.116-0.002,18.175
		c-0.002,0.855,0.328,1.831-1.234,1.879c-1.615,0.049-1.487-0.856-1.475-1.905c0.025-2.103-0.039-4.209,0.025-6.311
		c0.034-1.091-0.342-1.578-1.444-1.436c-0.083,0.011-0.168,0-0.252,0.001c-2.68,0.052-6.093-0.872-7.827,0.433
		c-1.66,1.252-0.379,4.866-0.509,7.438c-0.049,0.958,0.104,1.793-1.365,1.776c-1.396-0.017-1.426-0.748-1.417-1.764
		C159.245,247.133,159.229,244.02,159.229,240.906z"/>
	<path fill-rule="evenodd" clip-rule="evenodd" fill="#9B9B9B" d="M284.901,106.208c-2.255-1.697-1.61-3.067,0.056-4.984
		c9.34-10.742,18.518-21.624,27.75-32.459c0.528,2.703-0.531,4.716-2.313,6.765c-8.146,9.365-16.143,18.86-24.169,28.33
		C285.65,104.538,284.875,105.164,284.901,106.208z"/>
	<path fill-rule="evenodd" clip-rule="evenodd" fill="#3D3A3C" d="M143.832,242.396c0-2.608-0.077-5.219,0.03-7.822
		c0.059-1.446-0.411-1.976-1.847-1.817c-0.914,0.102-1.851-0.029-2.773,0.027c-1.142,0.069-1.133-0.639-1.15-1.453
		c-0.018-0.822,0.226-1.229,1.125-1.223c4.038,0.026,8.076,0.033,12.113-0.004c1.126-0.01,1.14,0.638,1.154,1.461
		c0.014,0.819-0.218,1.296-1.123,1.208c-0.083-0.008-0.168-0.004-0.252,0.003c-4.37,0.371-4.37,0.371-4.37,4.785
		c0,4.207-0.027,8.413,0.018,12.618c0.012,1.163-0.083,1.874-1.58,1.843c-1.456-0.03-1.359-0.84-1.352-1.804
		C143.844,247.61,143.832,245.003,143.832,242.396z"/>
	<path fill-rule="evenodd" clip-rule="evenodd" fill="#3D3A3C" d="M302.72,242.27c0-2.522-0.093-5.051,0.032-7.569
		c0.079-1.564-0.411-2.144-1.975-1.946c-0.911,0.115-1.85-0.011-2.773,0.023c-1.001,0.038-1.021-0.599-1.018-1.32
		c0.002-0.708-0.023-1.35,0.991-1.345c4.122,0.021,8.244,0.019,12.366,0c0.983-0.005,1.029,0.596,1.021,1.326
		c-0.009,0.703,0.04,1.403-0.988,1.334c-0.168-0.011-0.338-0.007-0.505,0.003c-4.244,0.263-4.244,0.263-4.244,4.659
		c0,4.29-0.021,8.581,0.014,12.87c0.01,1.059-0.091,1.716-1.448,1.712c-1.309-0.004-1.515-0.563-1.492-1.672
		C302.757,247.654,302.72,244.961,302.72,242.27z"/>
	<path fill-rule="evenodd" clip-rule="evenodd" fill="#9B9B9B" d="M218.69,97.612c-0.383-7.393,4.735-13.251,11.474-13.129
		c5.612,0.102,10.409,5.232,10.838,11.594c-0.33,0.512,0.519,1.032-0.01,1.543c-1.237-1.77-1.763-3.935-3.341-5.541
		c-5.184-5.276-12.795-4.622-16.855,1.571C219.98,94.895,219.387,96.287,218.69,97.612z"/>
	<path fill-rule="evenodd" clip-rule="evenodd" fill="#6D6D6D" d="M181.286,138.562c5.157,0.029,10.314,0.06,15.471,0.087
		c0.666,0.004,1.349,0.035,1.799-0.608c0.748,1.342,0.213,2.777,0.268,4.163c0.046,1.156-0.965,0.942-1.679,0.94
		c-5.132-0.007-10.263-0.035-15.394-0.057C181.603,141.579,181.944,140.019,181.286,138.562z"/>
	<path fill-rule="evenodd" clip-rule="evenodd" fill="#6D6D6D" d="M240.992,97.619c0.528-0.511-0.32-1.031,0.01-1.543
		c0.954,0.771,2.089,0.521,3.165,0.527c3.54,0.021,7.08,0.022,10.62-0.003c0.812-0.005,1.71,0.26,2.373-0.503
		c0.094,0.231,0.248,0.456,0.273,0.694c0.454,4.319,0.447,4.416-3.881,4.292c-4.059-0.117-8.145,0.529-12.178-0.379
		c0.063-0.707,0.252-1.43-0.262-2.064C241.073,98.299,241.032,97.959,240.992,97.619z"/>
	<path fill-rule="evenodd" clip-rule="evenodd" fill="#6D6D6D" d="M296.08,138.625c5.417-0.008,10.835-0.017,16.252-0.025
		c0.846,1.132,0.233,2.412,0.349,3.617c0.1,1.028-0.732,0.937-1.396,0.931c-4.879-0.04-9.757-0.091-14.636-0.139
		C296.454,141.55,296.937,140,296.08,138.625z"/>
	<path fill-rule="evenodd" clip-rule="evenodd" fill="#9B9B9B" d="M296.08,138.625c0.856,1.375,0.374,2.924,0.568,4.384
		c-5.047-4.893-9.447-10.379-14.234-15.511c-1.134-1.216-2.069-2.627-3.519-3.529c0-1.238,0-2.477,0-4.428
		C284.895,126.204,290.486,132.415,296.08,138.625z"/>
	<path fill-rule="evenodd" clip-rule="evenodd" fill="#3D3A3C" d="M98.014,240.834c0,3.03,0.018,6.06-0.01,9.089
		c-0.009,0.93,0.361,2.055-1.34,2.089c-1.668,0.035-1.41-0.999-1.41-1.986c0-5.976-0.006-11.95,0.006-17.926
		c0.002-0.929-0.399-2.019,1.323-2.041c1.634-0.021,1.442,0.916,1.437,1.938C98.004,234.943,98.015,237.888,98.014,240.834z"/>
	<path fill-rule="evenodd" clip-rule="evenodd" fill="#9B9B9B" d="M262.689,139.138c5.356-0.025,10.713-0.051,16.069-0.075
		c0.188,4.11,0.188,4.11-3.994,4.11c-2.756,0-5.513,0-8.27,0C262.471,143.172,262.471,143.172,262.689,139.138z"/>
	<path fill-rule="evenodd" clip-rule="evenodd" fill="#9B9B9B" d="M181.286,138.562c0.658,1.457,0.316,3.017,0.465,4.526
		c-1.285,0.06-1.137-1.1-1.374-1.776c-2.975-8.463-5.892-16.946-8.823-25.424c1.088-0.736,0.052-2.145,0.932-2.946
		C175.419,121.482,178.353,130.022,181.286,138.562z"/>
	<path fill-rule="evenodd" clip-rule="evenodd" fill="#9B9B9B" d="M241.113,98.639c0.514,0.634,0.324,1.357,0.262,2.064
		C240.803,100.077,240.92,99.363,241.113,98.639z"/>
	<path fill-rule="evenodd" clip-rule="evenodd" fill="#9B9B9B" d="M256.945,116.934c-0.316-0.399-0.202-0.744,0.135-1.059
		C257.287,116.26,257.28,116.619,256.945,116.934z"/>
	<path fill-rule="evenodd" clip-rule="evenodd" fill="#9B9B9B" d="M202.481,115.379c0.354,0.308,0.524,0.632,0.1,1.016
		C202.548,116.056,202.515,115.717,202.481,115.379z"/>
	<path fill-rule="evenodd" clip-rule="evenodd" fill="#FCFCFC" d="M147.736,281.929c-0.026,9.603-8.169,17.609-17.839,17.54
		c-9.459-0.068-17.484-8.238-17.405-17.72c0.078-9.498,8.161-17.583,17.584-17.588C139.625,264.154,147.762,272.341,147.736,281.929
		z"/>
	<path fill-rule="evenodd" clip-rule="evenodd" fill="#FAFBFA" d="M227.718,279.089c-2.944-0.001-5.89-0.062-8.832,0.025
		c-1.443,0.042-1.778-0.484-1.863-1.887c-0.284-4.71,0.962-8.64,5.101-11.312c6.759-4.361,15.909,0.347,16.332,8.401
		c0.249,4.771,0.249,4.771-4.43,4.771C231.923,279.089,229.819,279.089,227.718,279.089z"/>
	<path fill-rule="evenodd" clip-rule="evenodd" fill="#FCFCFC" d="M190.947,177.094c-6.622,0.029-12.116-5.343-12.167-11.896
		c-0.051-6.603,5.615-12.354,12.13-12.312c6.426,0.041,12.026,5.688,12.047,12.149C202.979,171.585,197.521,177.066,190.947,177.094
		z"/>
	<path fill-rule="evenodd" clip-rule="evenodd" fill="#FAFBFA" d="M250.865,232.777c4.321,0.059,8.288,4.121,8.166,8.363
		c-0.125,4.382-4.124,8.182-8.46,8.038c-4.328-0.145-8.063-3.96-8.029-8.205C242.575,236.639,246.556,232.719,250.865,232.777z"/>
	<path fill-rule="evenodd" clip-rule="evenodd" fill="#FAFBFA" d="M279.517,232.777c4.3-0.063,8.319,3.865,8.36,8.173
		c0.041,4.314-3.908,8.251-8.272,8.243c-4.257-0.007-8.084-3.746-8.217-8.028C271.255,236.903,275.191,232.843,279.517,232.777z"/>
	<path fill-rule="evenodd" clip-rule="evenodd" fill="#FAFBFA" d="M224.625,232.772c0.841,0,1.687-0.056,2.521,0.012
		c2.029,0.166,3.391,1.314,3.494,3.303c0.106,2.045-1.28,3.301-3.24,3.529c-1.824,0.213-3.692,0.061-5.54,0.082
		c-0.669,0.007-1.164-0.165-1.165-0.952c-0.003-1.68,0.004-3.361-0.004-5.041c-0.005-0.815,0.496-0.95,1.16-0.938
		C222.775,232.783,223.701,232.771,224.625,232.772z"/>
</g>
</svg>
