<?xml version="1.0" encoding="utf-8"?>
<!-- Generator: Adobe Illustrator 16.0.0, SVG Export Plug-In . SVG Version: 6.00 Build 0)  -->
<!DOCTYPE svg PUBLIC "-//W3C//DTD SVG 1.1//EN" "http://www.w3.org/Graphics/SVG/1.1/DTD/svg11.dtd">
<svg version="1.1" id="Layer_1" xmlns="http://www.w3.org/2000/svg" xmlns:xlink="http://www.w3.org/1999/xlink" x="0px" y="0px"
	 width="400px" height="400px" viewBox="0 0 400 400" enable-background="new 0 0 400 400" xml:space="preserve">
<g>
	<path fill-rule="evenodd" clip-rule="evenodd" fill="#ADB9C3" d="M361.235,156.77c-0.858,0-1.729-0.102-2.568,0.018
		c-3.579,0.51-4.399-1.198-4.745-4.554c-1.094-10.589-2.708-21.123-4.004-31.693c-0.502-4.088-0.753-8.2-1.716-12.228
		c-0.258-1.084-0.064-2.163-1.706-2.242c-1.801-0.087-2.288,1.061-2.703,2.387c-2.171,6.946-4.363,13.885-6.485,20.846
		c-2.579,8.46-5.097,16.939-7.635,25.413c-0.507,1.693-1.669,2.042-3.337,2.117c-2.02,0.09-3.059-0.516-3.683-2.505
		c-3.92-12.497-7.952-24.959-11.926-37.44c-0.881-2.772-1.679-5.573-2.507-8.363c-0.433-1.464-0.919-2.609-2.918-2.495
		c-2.07,0.118-1.837,1.379-1.989,2.74c-1.438,12.757-2.915,25.509-4.409,38.26c-0.111,0.957-0.508,1.877-0.649,2.833
		c-1.023,6.906-1.014,6.906-7.838,6.906c-6.486,0-12.976-0.063-19.461,0.042c-1.841,0.029-2.938-0.504-3.636-2.246
		c-1.399-3.496-2.975-6.92-4.411-10.401c-0.638-1.55-1.608-2.138-3.345-2.122c-9.055,0.086-18.115,0.082-27.17,0.002
		c-1.638-0.014-2.299,0.551-2.842,2.06c-1.189,3.31-2.833,6.46-3.944,9.793c-0.682,2.042-1.526,3.087-3.817,2.915
		c-2.436-0.184-4.906-0.2-7.338-0.004c-3.172,0.256-3.111-1.158-2.18-3.445c8.183-20.108,16.343-40.225,24.481-60.352
		c1.045-2.585,1.929-5.235,2.872-7.861c0.65-1.81,1.76-2.852,3.842-2.589c0.963,0.122,1.981,0.164,2.93-0.007
		c3.837-0.691,5.473,1.049,6.828,4.621c3.878,10.194,8.331,20.166,12.461,30.266c4.639,11.349,9.188,22.734,13.728,34.123
		c0.646,1.624,0.982,3.421,3.354,2.967c2.091-0.4,1.984-2.282,2.155-3.707c1.792-14.911,3.448-29.838,5.237-44.75
		c0.865-7.208,1.994-14.386,2.856-21.595c0.207-1.726,1.073-1.915,2.43-1.907c4.283,0.026,8.57,0.09,12.851-0.029
		c1.85-0.051,2.605,0.835,3.091,2.4c3.909,12.603,7.868,25.19,11.737,37.806c0.475,1.549,0.536,3.008,2.728,3.22
		c2.309,0.224,2.611-1.386,3.061-2.816c3.988-12.708,7.984-25.414,11.802-38.173c0.535-1.787,1.252-2.43,2.97-2.415
		c4.161,0.04,8.324,0.049,12.485,0.001c1.468-0.017,2.125,0.407,2.313,2.031c0.877,7.573,1.89,15.131,2.897,22.688
		c0.783,5.878,1.664,11.744,2.438,17.624c0.934,7.08,1.817,14.167,2.686,21.255c0.308,2.526,0.151,5.168,0.846,7.573
		c0.883,3.064-0.508,3.254-2.814,3.049C363.445,156.688,362.336,156.769,361.235,156.77z M246.057,130.259
		c2.316,0,4.641-0.104,6.949,0.03c2.262,0.131,2.782-0.938,2.403-2.886c-1.214-6.239-4.066-11.904-6.419-17.722
		c-1.211-2.992-3.823-2.997-5.304-0.042c-2.807,5.597-5.151,11.427-7.009,17.415c-0.668,2.146,0.181,3.464,2.795,3.237
		C241.652,130.1,243.86,130.25,246.057,130.259z"/>
	<path fill-rule="evenodd" clip-rule="evenodd" fill="#194365" d="M182.873,399.03c-4.895,0.001-9.791,0.003-14.685,0.004
		c0-23.707,0.012-47.412-0.047-71.116c-0.002-0.933,0.839-2.266-0.719-2.88c-2.134-0.344-1.763,1.556-2.151,2.576
		c-7.884,20.711-15.701,41.446-23.562,62.165c-1.026,2.708-2.214,5.355-3.327,8.03c-5.076-0.011-10.151-0.021-15.226-0.029
		c-5.578-14.693-11.158-29.386-16.73-44.08c-3.433-9.055-6.854-18.112-10.28-27.17c-1.257-3.096-0.163-4.059,3.059-3.86
		c4.138,0.252,8.301,0.083,12.454,0.094c5.395,14.124,10.783,28.25,16.194,42.366c0.8,2.089,1.708,4.137,2.937,7.096
		c6.615-17.044,12.903-33.239,19.189-49.436c10.954,0,21.908,0,32.861,0C182.852,348.203,182.863,373.617,182.873,399.03z"/>
	<path fill-rule="evenodd" clip-rule="evenodd" fill="#ADB9C3" d="M112.357,46.826c0,8.935-0.076,17.871,0.049,26.804
		c0.034,2.416-0.72,3.275-3.127,3.11c-2.558-0.174-5.151-0.199-7.705,0.005c-3.109,0.249-3.984-1.03-3.964-4.034
		c0.111-17.256-0.083-34.516,0.158-51.771c0.054-3.874-1.12-4.885-4.72-4.534c-3.031,0.295-6.113,0.082-9.173,0.054
		c-3.582-0.032-4.429-0.966-3.708-4.4c0.278-1.323,1.16-2.693-0.608-3.43c-1.415-0.589-2.877-0.392-3.992,0.917
		c-1.575,1.851-3.206,3.655-4.761,5.522c-1.208,1.45-2.246,1.935-4.307,1.01c-3.157-1.417-6.366-2.944-10.123-2.615
		c-4.093,0.358-6.329,2.302-6.455,6.318c-0.205,6.548,1.555,8.645,7.561,11.606c6.016,2.967,12.57,4.873,17.425,10.229
		c5.563,6.138,7.292,16.499,1.49,24.035c-5.743,7.459-12.911,12.213-22.654,11.742c-7.362-0.355-13.377-3.939-18.806-8.677
		c-1.416-1.235-1.098-2.188,0.139-3.276c1.098-0.965,1.934-2.155,2.796-3.35c1.059-1.469,2.333-3.042,3.889-3.832
		c2.05-1.04,2.756,1.615,4.157,2.45c4.313,2.571,8.866,3.867,13.581,2.208c3.462-1.218,5.505-4.161,5.876-8.101
		c0.423-4.493-2.159-7.068-5.543-9.065c-3.779-2.23-7.977-3.563-12.07-5.095c-11.955-4.474-16.138-19.748-8.701-29.992
		C46.843-0.053,62.186-1.284,72.715,5.142c1.447,0.883,2.898,2.003,4.49,2.334c1.561,0.324,4.329,1.236,3.054-2.629
		c-0.61-1.852,0.641-3.103,2.904-3.094c14.442,0.049,28.884,0.027,43.327,0.021c2.594-0.001,3.536,1.172,3.553,3.846
		c0.072,10.85,0.152,10.849-10.689,10.849c-7.003,0-7.001,0-6.999,6.857C112.359,31.159,112.357,38.992,112.357,46.826z"/>
	<path fill-rule="evenodd" clip-rule="evenodd" fill="#194466" d="M241.022,359.517c0-0.499,0-0.997,0-1.495
		c1.04-1.152,0.592-2.563,0.598-3.858c0.042-7.813,0.021-15.624,0.021-23.437c0-7.949,0-7.899,7.781-7.977
		c2.531-0.024,5.11,0.495,7.595-0.422c0.914,0.756,0.598,1.802,0.598,2.739c0.003,23.31-0.07,46.617,0.037,69.925
		c0.016,3.286-0.948,3.939-4.244,4.341c-8.664,1.056-14.148-1.8-18.919-9.469c-7.879-12.667-17.161-24.462-25.936-36.564
		c-0.4-0.553-0.456-2.979-2.269-1.13c-0.086,0.069-0.257,0.162-0.245,0.204c0.052,0.181,0.156,0.346,0.243,0.517
		c-0.008,0.98-0.016,1.959-0.022,2.938c-0.869,0.122-1.063,0.544-1.107,1.475c-0.577,11.845-0.087,23.695-0.231,35.542
		c-0.061,4.859-0.013,4.859-5.035,4.856c-9.664-0.004-9.666-0.004-9.666-9.907c0-20.179,0.08-40.357-0.074-60.533
		c-0.026-3.419,0.719-4.981,4.385-4.529c2.168,0.267,4.398,0.117,6.598,0.032c2.398-0.093,4.624-0.2,5.318,2.94
		c0.314,1.424,1.717,1.56,3.018,1.43c8.925,12.383,17.847,24.766,26.774,37.146c1.066,1.479,2.117,2.975,3.252,4.397
		c0.649,0.815,1.22,0.577,1.522-0.379C242.029,365.372,242.004,362.444,241.022,359.517z"/>
	<path fill-rule="evenodd" clip-rule="evenodd" fill="#194465" d="M291.621,399.703c-17.395-3.587-27.741-14.296-31.202-31.529
		c-5.375-26.772,16.209-49.038,40.359-47.11c11.759,0.938,20.445,6.206,27.199,15.467c1.246,1.709,1.305,2.835-0.431,4.262
		c-2.633,2.166-5.12,4.525-7.537,6.936c-1.419,1.415-2.092,1.2-3.221-0.416c-5.383-7.699-12.696-11.337-22.101-9.31
		c-8.933,1.925-14.695,7.787-16.876,16.438c-2.466,9.785,0.173,18.4,8.495,24.634c9.766,7.314,21.961,5.88,28.049-3.13
		c0.721-1.065,2.057-2.261,1.244-3.574c-0.677-1.093-2.256-0.339-3.428-0.44c-4.461-0.385-8.983,0.664-13.412-0.579
		c1.263-0.194,1.276-0.814,1.17-2.039c-0.369-4.213-0.792-8.469,0.478-12.636c4.898-0.001,9.797-0.003,14.696-0.004
		c0.238,0.378,0.475,0.378,0.713,0.001c5.388,0.004,10.775,0.007,16.165,0.012c0.089,1.353,1.073,1.354,2.055,1.36
		c1.501,13.876-2.468,25.661-13.554,34.538c-5.191,4.157-11.373,6.179-17.896,7.191
		C298.939,398.752,295.283,398.855,291.621,399.703z"/>
	<path fill-rule="evenodd" clip-rule="evenodd" fill="#ADB9C3" d="M58.734,199.613c0-11.137,0.071-22.274-0.054-33.41
		c-0.028-2.576,0.529-3.324,3.339-3.7c7.883-1.055,12.679,1.712,17.057,8.623c8.165,12.886,17.659,24.929,26.577,37.339
		c0.891,1.24,1.741,2.442,3.508,1.794c1.639-0.601,0.956-2.083,0.96-3.171c0.05-13.217,0.03-26.434,0.034-39.651
		c0.002-4.782,0.011-4.783,4.939-4.792c1.591-0.003,3.221,0.225,4.765-0.046c3.614-0.632,4.957,1.401,4.904,4.375
		c-0.118,6.696,0,13.384-0.366,20.099c-0.474,8.688-0.597,17.447,0.182,26.219c0.654,7.36,0.911,14.86-0.403,22.275
		c-0.284,1.599-0.882,2.043-2.339,2.016c-2.813-0.054-5.631-0.069-8.443,0.008c-1.618,0.045-2.55-0.525-3.543-1.93
		c-10.008-14.16-20.145-28.23-30.241-42.329c-0.423-0.591-0.761-1.245-1.21-1.813c-0.963-1.22-2.16-2.063-3.797-1.618
		c-1.964,0.534-1.129,2.227-1.135,3.391c-0.064,13.217-0.177,26.437,0.042,39.649c0.063,3.796-1.157,5.092-4.82,4.671
		c-2.053-0.236-4.167-0.182-6.233-0.007c-2.948,0.249-3.797-1.023-3.769-3.85C58.804,222.376,58.735,210.994,58.734,199.613z"/>
	<path fill-rule="evenodd" clip-rule="evenodd" fill="#194365" d="M245.416,244.878c9.958,4.828,13.863,15.928,9.982,28.066
		c-1.761,5.5-5.119,9.658-10.186,12.295c-2.267,1.18-2.19,2.051-0.918,4.104c4.09,6.597,9.099,12.586,12.762,19.454
		c0.092,1.868-0.392,3.923,1.725,5.117c3.045,1.715,1.93,3.178-0.29,4.564c-0.438-0.023-0.875-0.046-1.313-0.07
		c-0.312-0.003-0.623-0.008-0.935-0.012c-3.639,0-7.277,0-10.917,0.001c-0.258-3.72-2.813-5.67-5.685-7.378
		c-3.034-4.571-6.069-9.142-9.103-13.713c-0.029-3.626-2.192-6.279-4.285-8.863c-1.063-1.312-2.555-1.715-2.884,0.811
		c-0.079,0.4-0.157,0.801-0.235,1.201c-1.894,2.148-1.887,5.962,0.014,8.092c0,1.227-0.002,2.453-0.002,3.68
		c-0.663,0.482-0.654,0.963,0,1.442c0.002,0.981,0.002,1.962,0.002,2.943c-2.715,1.957-1.191,3.915,0,5.872
		c-0.002,0.736-0.002,1.473-0.002,2.209c-1.608,0.741-2.131,2.3-2.816,3.737c-2.689,0.303-5.377,0.305-8.065,0
		c-1.002-2.761-4.462-0.811-5.76-3.005c0.001-0.484,0.001-0.968,0.001-1.453c2.07-1.964,2.072-3.927-0.001-5.89
		c0-1.958-0.001-3.912-0.001-5.869c1.457-0.209,2.013-0.933,1.91-2.504c-1.027-15.848-0.714-31.705-0.201-47.563
		c0.05-1.56,0.34-3.464-1.713-4.301c0.005-0.938,0.008-1.878,0.011-2.816c1.657-1.425,3.596-1.647,5.716-1.614
		C223.306,243.591,234.423,242.77,245.416,244.878z M238.667,269.835l-0.019,0.028c2.87-1.558,1.467-3.759,0.88-5.838
		c-0.55-1.384-1.099-2.767-1.648-4.148c0.563-0.178,1.361-0.515,1.071-1.08c-0.506-0.986-1.364-0.449-2.074-0.027
		c-0.152-0.021-0.272-0.095-0.364-0.218c0.924-1.199,0.087-1.451-0.846-2.048c-2.823-1.812-6.283-1.06-9.253-2.58
		c-1.443-0.738-3.288,0.474-3.12,2.792c0.012,5.117-0.01,10.232,0.06,15.348c0.017,1.365-0.342,3.019,2.016,3.094
		c4.605,0.148,9.005-0.168,12.383-3.868C238.527,271.101,238.666,270.511,238.667,269.835z"/>
	<path fill-rule="evenodd" clip-rule="evenodd" fill="#ADB9C3" d="M169.146,77.434c-21.517,0.06-37.907-17.149-37.474-38.692
		c0.427-21.201,16.77-37.208,36.849-37.361c21.156-0.162,37.782,15.541,38.135,37.475C207.006,60.655,190.139,77.5,169.146,77.434z
		 M169.526,64.14c6.838,0.777,12.666-1.701,16.925-7.297c4.289-5.638,5.647-12.163,5.252-19.248
		c-0.498-8.882-5.586-19.583-15.105-22.178c-9.079-2.476-22.394-0.255-27.24,10.628c-2.294,5.153-2.227,10.324-2.469,15.653
		C146.379,52.852,155.191,65.619,169.526,64.14z"/>
	<path fill-rule="evenodd" clip-rule="evenodd" fill="#ADB9C3" d="M184.773,197.176c4.65-0.001,9.303,0.065,13.951-0.033
		c1.924-0.04,2.459,0.672,2.551,2.555c0.849,17.583-9.695,33.066-27.641,37.618c-13.003,3.298-26.527-1.801-35.254-12.783
		c-6.278-7.899-9.522-16.507-9.135-26.542c0.442-11.438,5.771-20.479,14.227-27.669c7.191-6.116,15.684-9.191,25.278-8.393
		c10.239,0.851,18.449,5.384,24.69,13.621c1.494,1.97,1.164,3.128-0.478,4.593c-1.914,1.708-3.407,4.531-5.573,5.141
		c-2.295,0.647-3.195-2.883-4.905-4.39c-9.832-8.655-28.312-6.901-35.289,5.533c-7.309,13.024-3.289,33.313,14.586,37.515
		c7.694,1.808,18.061,0.135,22.535-8.046c0.52-0.948,0.975-1.955,1.283-2.987c0.685-2.286,0.001-3.397-2.629-3.294
		c-4.032,0.159-8.078-0.05-12.113,0.076c-2.113,0.066-2.652-0.748-2.722-2.771c-0.335-9.747-0.394-9.745,9.293-9.742
		C179.878,197.178,182.326,197.178,184.773,197.176z"/>
	<path fill-rule="evenodd" clip-rule="evenodd" fill="#194465" d="M151.374,303.911c-1.709,4.401-3.51,8.771-5.081,13.22
		c-0.587,1.663-1.743,1.439-2.908,1.455c-3.908,0.05-7.818-0.019-11.723,0.102c-2.197,0.066-2.735-0.438-1.82-2.654
		c3.555-8.613,6.918-17.306,10.386-25.955c6.073-15.146,12.238-30.257,18.183-45.454c0.895-2.288,2.056-2.788,4.268-2.764
		c9.942,0.111,9.951,0.053,13.746,9.304c8.684,21.164,17.361,42.332,26.029,63.502c1.602,3.91,1.561,3.951-2.633,3.966
		c-1.342,0.004-2.686-0.051-4.028-0.055c-9.335-0.03-9.335-0.027-12.339-8.946c1.193-3.402-1.076-7.362-4.395-7.393
		c-8.375-0.077-16.751-0.027-25.126-0.021C152.719,302.219,151.37,302.054,151.374,303.911z M173.389,289.339
		c0.473-0.331,1.505-0.106,0.915-1.366c-0.968-2.07-1.639-4.277-2.516-6.394c-1.754-4.235-3.563-8.45-5.695-13.489
		c-2.821,7.067-5.207,13.226-7.76,19.313c-0.596,1.42-0.006,1.676,1.058,1.925c0.107,0.214,0.179,0.583,0.327,0.617
		c4.732,1.092,9.521,0.36,14.285,0.33C174.305,290.273,173.564,289.696,173.389,289.339z"/>
	<path fill-rule="evenodd" clip-rule="evenodd" fill="#ADBAC3" d="M37.432,119.563c0.001-11.138,0.112-22.277-0.071-33.413
		c-0.05-3.005,0.939-3.696,3.749-3.63c7.462,0.174,14.937-0.146,22.395,0.101c15.243,0.506,28.268,9.569,32.9,25.156
		c3.809,12.816,1.919,24.68-5.665,35.28c-4.407,6.161-10.972,10.212-18.514,12.229c-10.829,2.896-21.874,0.905-32.805,1.469
		c-2.369,0.123-1.98-1.638-1.983-3.044C37.423,142.328,37.43,130.945,37.432,119.563z M51.472,118.899
		c0,7.094,0.054,14.188-0.027,21.282c-0.034,2.914,1.007,4.311,4.104,4.051c2.307-0.194,4.663,0.149,6.965-0.074
		c8.249-0.799,15.668-3.378,18.897-11.852c2.73-7.166,3.415-14.813,1.109-22.19c-1.793-5.742-4.731-10.759-11.172-13.229
		c-5.533-2.122-11.031-1.405-16.572-1.773c-2.505-0.167-3.433,0.595-3.368,3.238C51.579,105.198,51.466,112.05,51.472,118.899z"/>
	<path fill-rule="evenodd" clip-rule="evenodd" fill="#ADBAC3" d="M157.804,156.768c-4.751,0-8.788-0.067-12.82,0.029
		c-1.96,0.047-3.046-0.796-4.092-2.413c-5.458-8.442-11.123-16.75-16.545-25.214c-1.092-1.706-2.359-1.947-3.987-1.721
		c-2.122,0.295-1.344,2.043-1.354,3.208c-0.068,7.464-0.136,14.932,0.019,22.393c0.058,2.731-0.493,4.144-3.584,3.754
		c-3.592-0.453-8.273,1.54-10.552-0.863c-2.088-2.201-0.578-6.776-0.587-10.299c-0.051-19.825,0.038-39.649-0.093-59.473
		c-0.019-2.958,0.875-3.726,3.725-3.653c7.338,0.186,14.687-0.076,22.024,0.091c15.349,0.35,26.241,13.712,20.82,28.578
		c-1.86,5.1-4.562,8.959-9.039,11.829c-3.725,2.387-3.963,3.923-1.443,7.686c5.46,8.154,10.954,16.287,16.433,24.428
		C156.979,155.505,157.224,155.886,157.804,156.768z M119.046,105.021c0,1.224,0,2.448,0,3.673c-0.005,7.16-0.003,7.191,7.198,6.888
		c2.158-0.09,4.309,0.182,6.423-0.969c4.769-2.599,4.646-6.92,4.612-11.406c-0.029-3.879-1.723-6.672-5.237-7.948
		c-3.058-1.111-6.337-1.639-9.654-1.589c-2.413,0.037-3.532,1.113-3.383,3.642C119.156,99.872,119.038,102.449,119.046,105.021z"/>
	<path fill-rule="evenodd" clip-rule="evenodd" fill="#194465" d="M74.112,254.632c-0.193,0.302-0.354,0.632-0.583,0.901
		c-4.021,4.731-4.006,4.694-9.483,2.104c-1.522-0.72-3.158-1.215-4.772-1.72c-3.32-1.039-5.771,0.38-7.438,3.101
		c-1.747,2.851-1.192,5.627,1.154,7.943c1.913,1.89,4.152,3.336,6.63,4.435c3.104,1.375,6.186,2.804,9.235,4.297
		c15.047,7.367,17.253,26.506,4.331,37.231c-13.396,11.119-29.126,7.849-40.86-3.073c-1.193-1.11-1.107-1.797-0.087-2.933
		c2.767-3.081,5.523-6.185,8.065-9.45c1.403-1.803,2.252-1.442,3.692-0.082c3.215,3.039,6.771,5.565,11.495,5.549
		c3.449-0.013,6.808-2.437,8-5.788c1.235-3.478-0.526-5.875-3.042-7.868c-3.383-2.677-7.351-4.177-11.424-5.464
		c-8.704-2.75-14.157-8.66-15.125-17.699c-0.939-8.772,1.972-16.309,9.797-21.318c1.263,0.251,2.346-0.266,3.499-0.689
		c5.688-2.085,11.25-3.145,17.437-1.053c2.696,0.911,5.709,2.694,8.964,1.71l-0.042-0.031c1.96,2.793,2.418,5.815,1.388,9.066
		l0.032-0.04C74.686,254.051,74.399,254.341,74.112,254.632z"/>
	<path fill-rule="evenodd" clip-rule="evenodd" fill="#ADB9C3" d="M165.98,119.599c0-11.26,0.074-22.521-0.055-33.779
		c-0.029-2.593,0.778-3.32,3.329-3.292c11.257,0.123,22.52,0.112,33.778,0.003c2.443-0.024,3.646,0.507,3.391,3.214
		c-0.207,2.183-0.188,4.413-0.016,6.602c0.253,3.223-1.508,3.674-4.102,3.413c-6.898-0.694-13.799,0.466-20.703,0.071
		c-1.289-0.074-1.658,0.742-1.656,1.876c0.007,4.284,0.064,8.569-0.03,12.85c-0.05,2.3,1.421,2.14,2.93,2.138
		c6.364-0.009,12.73,0.072,19.093-0.037c3.164-0.054,4.582,0.914,4.517,4.419c-0.165,8.837-0.011,8.839-8.778,8.839
		c-5.018,0-10.039,0.084-15.053-0.032c-2.1-0.049-2.779,0.704-2.721,2.757c0.117,4.158,0.113,8.323,0.006,12.481
		c-0.063,2.422,0.985,3.214,3.303,3.183c6.363-0.087,12.729-0.032,19.092-0.024c3.809,0.003,5.422,1.797,4.708,5.549
		c-0.296,1.558-0.774,3.068-0.62,4.671c0.176,1.819-0.763,2.286-2.408,2.281c-11.871-0.037-23.744-0.068-35.615,0.018
		c-2.432,0.017-2.407-1.345-2.403-3.057C165.992,142.364,165.979,130.981,165.98,119.599z"/>
	<path fill-rule="evenodd" clip-rule="evenodd" fill="#ADB9C3" d="M214.461,39.273c0-11.246,0.094-22.494-0.071-33.737
		c-0.036-2.442,1.125-3.568,3.012-3.604c9.597-0.182,19.26-0.923,28.725,1.288c13.125,3.066,20.565,19.478,11.796,32.613
		c-4.91,7.353-12.062,10.372-20.428,10.678c-9.067,0.331-9.076,0.085-9.074,9.143c0,6.112-0.066,12.225,0.034,18.335
		c0.033,2.061-0.651,2.849-2.735,2.744c-2.682-0.132-5.389-0.195-8.063,0.015c-2.668,0.208-3.268-0.894-3.244-3.37
		C214.523,62.01,214.461,50.642,214.461,39.273z M228.49,24.91c0,2.681-0.029,5.362,0.017,8.042
		c0.015,0.906-0.316,2.375,1.011,2.365c4.412-0.031,9.063,1.404,13.102-1.551c3.83-2.802,5.517-8.474,3.904-13.725
		c-1.335-4.34-5.259-5.658-9.086-6.332c-8.21-1.446-8.953-0.668-8.947,7.545C228.491,22.474,228.49,23.691,228.49,24.91z"/>
	<path fill-rule="evenodd" clip-rule="evenodd" fill="#1A4567" d="M79.383,251.536c-0.091-0.211-0.128-0.432-0.11-0.66
		c-0.018-1.08-0.036-2.159-0.055-3.238c-0.065-0.199-0.027-0.375,0.116-0.528c0.396-3.44,2.56-3.779,5.569-3.735
		c11.747,0.176,23.499,0.072,35.249,0.072c10.285,0,10.285,0,9.833,10.341c-0.006,0.123-0.015,0.246-0.003,0.367
		c0.197,1.943-0.761,2.579-2.605,2.534c-3.303-0.08-6.609-0.03-9.914-0.018c-3.314,0.015-6.369,3.087-5.697,6.325
		c1.111,5.362,0.479,10.725,0.547,16.076c0.144,11.504,0.062,23.01,0.02,34.515c-0.004,1.215,0.614,2.994-1.414,3.227
		c-3.257,0.375-6.538,0.653-9.812,0.709c-1.047,0.018-3.243-0.327-2.881-1.458c1.201-3.749-0.834-7.092-0.727-10.742
		c0.41-13.94,0.165-27.899,0.167-41.853c0-1.586,0.168-3.197-0.778-4.623c1.416-1.834-0.684-1.739-1.298-1.936
		c-1.18-0.378-2.718-0.795-3.083,1.231c-4.152,0.003-8.304,0.005-12.456,0.008c-0.225-0.25-0.45-0.499-0.674-0.749
		c0.008-0.496,0.017-0.991,0.024-1.486c0.839-0.73,0.836-1.453-0.015-2.171c-0.01-0.498-0.02-0.995-0.03-1.492
		c0.093-0.066,0.275-0.156,0.265-0.193C79.57,251.878,79.467,251.71,79.383,251.536z"/>
	<path fill-rule="evenodd" clip-rule="evenodd" fill="#184366" d="M279.942,259.61c-0.472-1.611-1.973-1.082-3.039-1.457
		c-0.133-0.773-0.454-1.419-1.346-1.426c-3.024-0.023-6.051-0.021-9.075,0.001c-0.893,0.008-1.211,0.657-1.345,1.43
		c-0.483-0.001-0.969-0.003-1.452-0.005c-1.441-3.458,0.678-7-0.116-10.37c-0.879-3.725,0.568-4.409,3.876-4.385
		c14.661,0.108,29.322,0.038,43.984,0.033c1.3,0.135,1.618,1.058,1.44,2.1c-0.554,3.239-1.03,6.415-0.107,9.723
		c0.373,1.339-0.816,2.413-2.302,1.92c-2.531-0.841-5.088-0.452-7.626-0.474c-6.585-0.056-7.743,1.612-7.654,7.775
		c0.238,16.359,0.087,32.725,0.067,49.087c-0.002,2.392-1.157,3.48-3.673,3.381c-3.657-0.146-7.325-0.039-10.988-0.041
		c-0.004-17.813,0.002-35.629-0.034-53.444C280.551,262.167,281.009,260.752,279.942,259.61z"/>
	<path fill-rule="evenodd" clip-rule="evenodd" fill="#184366" d="M71.209,382.38c0.737,0,1.474,0.002,2.211,0.002
		c-0.005,0.219-0.003,0.438,0.004,0.657c-0.306,1.722,0.49,3.073,1.468,4.363c-0.011,3.434-0.023,6.867-0.034,10.301
		c-11.12,0.001-22.242-0.11-33.359,0.076c-3.165,0.053-4.177-0.727-4.15-4.044c0.158-20.039,0.033-40.08,0.12-60.119
		c0.015-3.482-1.58-7.935,0.799-10.198c2.186-2.079,6.559-0.271,9.926-0.683c3.398-0.415,4.028,1.062,4.003,4.157
		c-0.141,16.86-0.073,33.725-0.063,50.587c0.001,1.216,0.083,2.433,0.202,3.643c0.221,2.267,1.312,3.036,3.433,1.887
		C60.911,382.667,66.111,383.771,71.209,382.38z"/>
	<path fill-rule="evenodd" clip-rule="evenodd" fill="#184366" d="M94.555,327.954c-0.019,0.707-0.037,1.415-0.055,2.124
		c-2.367,1.483-0.679,2.971-0.005,4.458c-0.02,1.93-0.039,3.861-0.058,5.791c-2.522-1.082-1.099,1.212-1.101,1.565
		c-0.094,18.599-0.089,37.197-0.094,55.795c-4.881,0.003-9.762,0.005-14.644,0.007c0.042-25.004,0.083-50.01,0.125-75.015
		c3.417,0.017,6.834,0.099,10.25,0.027c2.16-0.046,3.976,0.004,3.639,2.996C92.469,326.967,93.313,327.715,94.555,327.954z"/>
	<path fill-rule="evenodd" clip-rule="evenodd" fill="#ADB9C3" d="M36.694,199.775c0.004-11.247,0.098-22.495-0.061-33.739
		c-0.04-2.813,0.854-3.731,3.544-3.414c3.355,0.396,7.678-1.463,9.856,0.787c1.994,2.061,0.584,6.294,0.593,9.564
		c0.052,20.17-0.035,40.34,0.094,60.51c0.02,3.066-0.543,4.244-3.957,4.176c-10.049-0.203-10.06-0.038-10.072-10.015
		C36.681,218.355,36.689,209.065,36.694,199.775z"/>
	<path fill-rule="evenodd" clip-rule="evenodd" fill="#22425B" d="M96.888,258.847c0.947,1.426,0.778,3.037,0.778,4.623
		c-0.001,13.953,0.244,27.912-0.167,41.853c-0.108,3.65,1.928,6.993,0.727,10.742c-0.362,1.131,1.834,1.476,2.881,1.458
		c3.274-0.056,6.554-0.334,9.812-0.709c2.028-0.232,1.41-2.012,1.414-3.227c0.042-11.505,0.124-23.011-0.02-34.515
		c-0.068-5.352,0.564-10.714-0.547-16.076c-0.671-3.238,2.383-6.311,5.697-6.325c3.304-0.013,6.611-0.063,9.914,0.018
		c1.844,0.045,2.802-0.591,2.605-2.534c-0.012-0.121-0.003-0.244,0.003-0.367c0.452-10.341,0.452-10.341-9.833-10.341
		c-11.75,0-23.502,0.104-35.249-0.072c-3.009-0.044-5.173,0.295-5.569,3.735c-0.032-0.853-0.003-1.713-0.106-2.559
		c-0.24-1.971,0.343-2.69,2.555-2.677c15.541,0.1,31.083,0.056,46.624-0.015c1.937-0.009,2.956,0.386,2.886,2.603
		c-0.121,3.788-0.073,7.586,0.03,11.376c0.051,1.877-0.54,2.578-2.525,2.506c-4.032-0.147-8.082,0.113-12.11-0.075
		c-2.359-0.11-3.256,0.564-3.199,2.994c0.125,5.255,0.019,10.515,0.026,15.772c0.014,12.603-0.056,25.208,0.127,37.809
		c0.044,3.067-0.885,4.063-3.899,3.831c-3.285-0.25-6.608-0.214-9.901-0.055c-2.489,0.121-3.277-0.554-3.26-3.251
		c0.116-18.84,0.013-37.679-0.02-56.519L96.888,258.847z"/>
	<path fill-rule="evenodd" clip-rule="evenodd" fill="#194465" d="M345.162,399.93c-5.25-0.017-9.517-4.297-9.48-9.513
		c0.034-5.048,4.715-9.663,9.676-9.541c5.145,0.127,9.438,4.569,9.397,9.726C354.714,395.931,350.583,399.945,345.162,399.93z"/>
	<path fill-rule="evenodd" clip-rule="evenodd" fill="#2B485E" d="M55.77,383.009c-2.121,1.149-3.212,0.38-3.433-1.887
		c-0.119-1.21-0.2-2.427-0.202-3.643c-0.011-16.862-0.078-33.727,0.063-50.587c0.025-3.096-0.605-4.572-4.003-4.157
		c-3.368,0.412-7.74-1.396-9.926,0.683c-2.378,2.264-0.784,6.716-0.799,10.198c-0.087,20.039,0.038,40.08-0.12,60.119
		c-0.027,3.317,0.985,4.097,4.15,4.044c11.117-0.187,22.239-0.075,33.359-0.076c0.254,0.244,0.508,0.489,0.762,0.733
		c-0.678,1.354-1.928,0.697-2.885,0.701c-11.014,0.058-22.029-0.019-33.042,0.088c-2.285,0.022-3.106-0.455-3.095-2.965
		c0.103-23.741,0.093-47.482,0.012-71.224c-0.008-2.338,0.519-3.225,2.999-3.069c3.536,0.221,7.108,0.244,10.64,0.003
		c2.727-0.187,3.242,0.908,3.231,3.362c-0.077,17.865-0.026,35.732-0.029,53.599c0,1.715-0.324,3.588,2.354,3.445
		C55.789,382.587,55.777,382.798,55.77,383.009z"/>
	<path fill-rule="evenodd" clip-rule="evenodd" fill="#ADB9C3" d="M205.646,229.67c0.069-4.125,3.617-7.56,7.776-7.528
		c3.908,0.028,8.408,4.558,8.219,8.271c-0.16,3.148-5.218,7.828-8.501,7.864C209.966,238.313,205.585,233.281,205.646,229.67z"/>
	<path fill-rule="evenodd" clip-rule="evenodd" fill="#2B485E" d="M280.587,316.902c3.663,0.002,7.331-0.105,10.988,0.041
		c2.516,0.1,3.671-0.989,3.673-3.381c0.02-16.362,0.171-32.728-0.067-49.087c-0.089-6.163,1.069-7.831,7.654-7.775
		c2.538,0.021,5.095-0.367,7.626,0.474c1.485,0.493,2.675-0.581,2.302-1.92c-0.923-3.308-0.446-6.483,0.107-9.723
		c0.178-1.042-0.141-1.965-1.44-2.1c-0.003-0.463-0.006-0.927-0.009-1.391c1.495-0.297,2.656-0.25,2.635,1.81
		c-0.045,4.147-0.032,8.297,0.075,12.443c0.052,1.966-1.043,2.11-2.552,2.089c-3.782-0.056-7.576,0.142-11.348-0.092
		c-2.795-0.174-3.627,0.662-3.603,3.542c0.147,17.695-0.004,35.395,0.19,53.091c0.036,3.179-0.992,3.998-3.866,3.836
		c-4.126-0.234-8.261-0.247-12.394-0.354C280.57,317.904,280.578,317.403,280.587,316.902z"/>
	<path fill-rule="evenodd" clip-rule="evenodd" fill="#22425B" d="M209.465,327.134c-1.301,0.13-2.703-0.006-3.018-1.43
		c-0.694-3.141-2.92-3.033-5.318-2.94c-2.199,0.085-4.43,0.234-6.598-0.032c-3.666-0.452-4.411,1.11-4.385,4.529
		c0.154,20.176,0.074,40.354,0.074,60.533c0,9.903,0.002,9.903,9.666,9.907c5.022,0.003,4.975,0.003,5.035-4.856
		c0.145-11.847-0.346-23.697,0.231-35.542c0.044-0.931,0.238-1.353,1.107-1.475c0.04,13.68,0.058,27.361,0.149,41.041
		c0.012,1.715-0.479,2.372-2.27,2.326c-4.151-0.107-8.31-0.115-12.461,0.009c-1.813,0.053-2.235-0.603-2.232-2.308
		c0.046-24.191,0.045-48.385-0.002-72.577c-0.002-1.683,0.371-2.376,2.209-2.32c4.149,0.128,8.307,0.052,12.461,0.038
		C207.543,322.025,208.03,325.07,209.465,327.134z"/>
	<path fill-rule="evenodd" clip-rule="evenodd" fill="#22425B" d="M311.421,242.041c0.003,0.464,0.006,0.928,0.009,1.391
		c-14.662,0.005-29.323,0.075-43.984-0.033c-3.308-0.024-4.755,0.66-3.876,4.385c0.794,3.37-1.325,6.912,0.116,10.37
		c-1.898,0.256-1.459-1.155-1.466-2.144c-0.033-3.897,0.1-7.801-0.06-11.692c-0.081-1.991,0.642-2.477,2.488-2.465
		C280.24,241.957,295.831,241.987,311.421,242.041z"/>
	<path fill-rule="evenodd" clip-rule="evenodd" fill="#22425B" d="M93.242,397.688c0.005-18.598,0-37.196,0.094-55.795
		c0.001-0.354-1.421-2.647,1.101-1.565c0.002,19.107,0.004,38.218,0.006,57.325c-0.361,0.061-0.722,0.121-1.082,0.181
		L93.242,397.688z"/>
	<path fill-rule="evenodd" clip-rule="evenodd" fill="#22425B" d="M206.5,247.847c2.053,0.837,1.763,2.741,1.713,4.301
		c-0.513,15.857-0.826,31.715,0.201,47.563c0.103,1.571-0.453,2.295-1.91,2.504C206.504,284.092,206.502,265.97,206.5,247.847z"/>
	<path fill-rule="evenodd" clip-rule="evenodd" fill="#22425B" d="M245.416,244.878c-10.993-2.108-22.11-1.287-33.189-1.462
		c-2.12-0.033-4.059,0.189-5.716,1.614c-0.557-2.259,0.021-3.247,2.647-3.194c8.649,0.176,17.307,0.008,25.958,0.18
		C238.728,242.087,242.301,242.785,245.416,244.878z"/>
	<path fill-rule="evenodd" clip-rule="evenodd" fill="#16364F" d="M78.723,322.68c-0.042,25.005-0.083,50.011-0.125,75.015
		c0.223,0.437,0.447,0.871,0.67,1.308c-2.653,0.212-1.403-1.852-1.409-2.788c-0.085-12.848-0.045-25.697-0.042-38.547
		c0.003-10.769-0.028-21.537,0.038-32.305c0.007-1.068-0.781-2.441,0.692-3.245C78.614,322.302,78.671,322.49,78.723,322.68z"/>
	<path fill-rule="evenodd" clip-rule="evenodd" fill="#16364F" d="M182.873,399.03c-0.01-25.413-0.021-50.827-0.033-76.242
		c0.268-0.004,0.535-0.01,0.803-0.016c0.075,7.313,0.2,14.624,0.215,21.937c0.033,16.959,0.033,33.919-0.035,50.879
		C183.818,396.728,184.68,398.31,182.873,399.03z"/>
	<path fill-rule="evenodd" clip-rule="evenodd" fill="#16364F" d="M167.422,325.038c1.558,0.614,0.717,1.947,0.719,2.88
		c0.059,23.704,0.047,47.409,0.047,71.116c-1.279-0.295-0.804-1.371-0.805-2.086C167.371,372.979,167.399,349.01,167.422,325.038z"
		/>
	<path fill-rule="evenodd" clip-rule="evenodd" fill="#22425B" d="M151.374,303.911c-0.004-1.857,1.346-1.692,2.559-1.694
		c8.375-0.006,16.751-0.056,25.126,0.021c3.318,0.03,5.588,3.99,4.395,7.393c-1.225-5.955-5.35-6.358-10.457-6.035
		C165.811,304.051,158.583,303.838,151.374,303.911z"/>
	<path fill-rule="evenodd" clip-rule="evenodd" fill="#2B485E" d="M73.595,244.765c-3.255,0.984-6.269-0.799-8.964-1.71
		c-6.186-2.092-11.748-1.032-17.437,1.053c-1.153,0.424-2.236,0.94-3.499,0.689C51.194,239.26,64.926,239.244,73.595,244.765z"/>
	<path fill-rule="evenodd" clip-rule="evenodd" fill="#16364F" d="M280.587,316.902c-0.009,0.501-0.017,1.002-0.027,1.503
		c-1.006-0.293-0.713-1.143-0.713-1.803c0.021-18.997,0.061-37.995,0.096-56.992c1.066,1.142,0.608,2.557,0.61,3.848
		C280.589,281.273,280.583,299.089,280.587,316.902z"/>
	<path fill-rule="evenodd" clip-rule="evenodd" fill="#455D71" d="M78.723,322.68c-0.052-0.189-0.109-0.378-0.174-0.563
		c10.444-0.042,20.889-0.089,31.333-0.115c0.667-0.003,1.51-0.242,1.776,0.762c-4.153-0.011-8.316,0.158-12.454-0.094
		c-3.222-0.198-4.316,0.765-3.059,3.86c-1.674-0.805-1.243,0.745-1.591,1.424c-1.242-0.239-2.086-0.987-1.943-2.251
		c0.337-2.992-1.479-3.042-3.639-2.996C85.558,322.778,82.14,322.696,78.723,322.68z"/>
	<path fill-rule="evenodd" clip-rule="evenodd" fill="#22425B" d="M257.018,322.328c-2.484,0.917-5.063,0.397-7.595,0.422
		c-7.781,0.077-7.781,0.027-7.781,7.977c0,7.813,0.021,15.624-0.021,23.437c-0.006,1.296,0.442,2.706-0.598,3.858
		c-0.041-11.228-0.073-22.454-0.131-33.681c-0.007-1.352,0.089-2.398,1.896-2.314C247.527,322.25,252.286,321.678,257.018,322.328z"
		/>
	<path fill-rule="evenodd" clip-rule="evenodd" fill="#22425B" d="M183.643,322.772c-0.268,0.006-0.535,0.012-0.803,0.016
		c-10.954,0.002-21.907,0.002-32.861,0.002c0.319-0.953,1.139-0.743,1.827-0.743c10.137-0.013,20.275-0.013,30.414-0.009
		C182.809,322.038,183.464,321.958,183.643,322.772z"/>
	<path fill-rule="evenodd" clip-rule="evenodd" fill="#22425B" d="M258.491,318.479c2.22-1.387,3.335-2.85,0.29-4.564
		c-2.116-1.194-1.633-3.249-1.725-5.117c2.224,3.108,4.449,6.218,6.929,9.682C261.798,318.479,260.145,318.479,258.491,318.479z"/>
	<path fill-rule="evenodd" clip-rule="evenodd" fill="#16364F" d="M300.408,356.676c-1.27,4.167-0.847,8.423-0.478,12.636
		c0.106,1.225,0.093,1.845-1.17,2.039c-1.188-4.521-0.248-9.12-0.475-13.678C298.204,356.025,299.555,356.715,300.408,356.676z"/>
	<path fill-rule="evenodd" clip-rule="evenodd" fill="#22425B" d="M79.218,247.638c0.019,1.079,0.037,2.158,0.055,3.238
		c-2.354-0.373-2.684,2.251-4.332,2.924c1.031-3.251,0.573-6.273-1.388-9.066C75.861,244.883,76.979,247.354,79.218,247.638z"/>
	<path fill-rule="evenodd" clip-rule="evenodd" fill="#22425B" d="M123.156,397.78c5.075,0.009,10.15,0.019,15.226,0.029
		C136.334,399.81,125.006,399.788,123.156,397.78z"/>
	<path fill-rule="evenodd" clip-rule="evenodd" fill="#22425B" d="M79.269,399.002c-0.224-0.437-0.447-0.871-0.67-1.308
		c4.881-0.002,9.763-0.004,14.644-0.007c0,0,0.119,0.146,0.117,0.145c-0.282,0.412-0.563,0.825-0.843,1.238
		C88.1,399.048,83.685,399.024,79.269,399.002z"/>
	<path fill-rule="evenodd" clip-rule="evenodd" fill="#22425B" d="M223.37,289.254c0.329-2.525,1.821-2.122,2.884-0.811
		c2.093,2.584,4.256,5.237,4.285,8.863c-1.421-2.018-2.813-4.055-4.273-6.044C225.547,290.283,225.119,288.788,223.37,289.254z"/>
	<path fill-rule="evenodd" clip-rule="evenodd" fill="#22425B" d="M265.138,258.158c0.134-0.772,0.452-1.422,1.345-1.43
		c3.024-0.022,6.051-0.024,9.075-0.001c0.892,0.007,1.213,0.652,1.346,1.426C272.982,258.155,269.061,258.157,265.138,258.158z"/>
	<path fill-rule="evenodd" clip-rule="evenodd" fill="#22425B" d="M239.642,311.02c2.871,1.708,5.427,3.658,5.685,7.378
		C242.385,316.745,241.341,313.631,239.642,311.02z"/>
	<path fill-rule="evenodd" clip-rule="evenodd" fill="#22425B" d="M223.148,298.547c-1.9-2.13-1.907-5.943-0.014-8.092
		C223.14,293.152,223.144,295.849,223.148,298.547z"/>
	<path fill-rule="evenodd" clip-rule="evenodd" fill="#16364F" d="M55.77,383.009c0.007-0.211,0.019-0.422,0.036-0.632
		c5.134,0.002,10.269,0.002,15.402,0.003C66.111,383.771,60.911,382.667,55.77,383.009z"/>
	<path fill-rule="evenodd" clip-rule="evenodd" fill="#22425B" d="M206.505,315.426c1.298,2.194,4.758,0.244,5.76,3.005
		c-1.071,0.059-2.149,0.052-3.208,0.191C206.385,318.977,206.02,317.556,206.505,315.426z"/>
	<path fill-rule="evenodd" clip-rule="evenodd" fill="#2B485E" d="M74.892,387.402c-0.979-1.29-1.774-2.642-1.468-4.363
		c0.747,0.239,1.495,0.478,2.243,0.717c0.34,1.226,0.412,2.451,0.013,3.679C75.417,387.424,75.155,387.412,74.892,387.402z"/>
	<path fill-rule="evenodd" clip-rule="evenodd" fill="#22425B" d="M206.505,308.083c2.073,1.963,2.071,3.926,0.001,5.89
		C206.506,312.01,206.505,310.046,206.505,308.083z"/>
	<path fill-rule="evenodd" clip-rule="evenodd" fill="#16364F" d="M291.621,399.703c3.662-0.848,7.318-0.951,10.967,0.071
		C298.931,400.073,295.274,400.101,291.621,399.703z"/>
	<path fill-rule="evenodd" clip-rule="evenodd" fill="#16364F" d="M74.892,387.402c0.263,0.01,0.525,0.021,0.788,0.032
		c0.286,3.668,0.313,7.337-0.06,11.002c-0.254-0.244-0.508-0.489-0.762-0.733C74.869,394.27,74.881,390.836,74.892,387.402z"/>
	<path fill-rule="evenodd" clip-rule="evenodd" fill="#16364F" d="M96.888,258.847l-0.326,0.004
		c-1.22-0.988-2.727-0.337-4.055-0.708c0.365-2.026,1.903-1.609,3.083-1.231C96.204,257.107,98.304,257.013,96.888,258.847z"/>
	<path fill-rule="evenodd" clip-rule="evenodd" fill="#22425B" d="M223.148,312.484c-1.191-1.957-2.715-3.915,0-5.872
		C223.148,308.569,223.148,310.527,223.148,312.484z"/>
	<path fill-rule="evenodd" clip-rule="evenodd" fill="#22425B" d="M220.33,318.431c0.686-1.438,1.208-2.996,2.816-3.737
		C223.272,316.74,224.148,319.354,220.33,318.431z"/>
	<path fill-rule="evenodd" clip-rule="evenodd" fill="#22425B" d="M241.022,359.517c0.981,2.928,1.007,5.855-0.009,8.781
		C241.017,365.371,241.02,362.444,241.022,359.517z"/>
	<path fill-rule="evenodd" clip-rule="evenodd" fill="#455D71" d="M94.495,334.536c-0.674-1.487-2.362-2.975,0.005-4.458
		C94.498,331.563,94.497,333.049,94.495,334.536z"/>
	<path fill-rule="evenodd" clip-rule="evenodd" fill="#16364F" d="M334.037,358.045c-0.981-0.006-1.966-0.008-2.055-1.36
		C332.952,356.707,334.482,355.887,334.037,358.045z"/>
	<path fill-rule="evenodd" clip-rule="evenodd" fill="#455D71" d="M92.516,399.07c0.28-0.413,0.562-0.826,0.843-1.238
		c0.362-0.059,0.723-0.119,1.083-0.18C94.688,399.331,93.682,399.31,92.516,399.07z"/>
	<path fill-rule="evenodd" clip-rule="evenodd" fill="#16364F" d="M75.667,383.756c-0.748-0.239-1.496-0.478-2.243-0.717
		c-0.007-0.22-0.009-0.438-0.004-0.657C74.386,382.484,76.052,381.444,75.667,383.756z"/>
	<path fill-rule="evenodd" clip-rule="evenodd" fill="#16364F" d="M79.387,253.744c0.852,0.718,0.854,1.44,0.015,2.171
		C79.397,255.19,79.392,254.468,79.387,253.744z"/>
	<path fill-rule="evenodd" clip-rule="evenodd" fill="#22425B" d="M223.146,303.669c-0.654-0.479-0.663-0.96,0-1.442
		C223.146,302.708,223.146,303.188,223.146,303.669z"/>
	<path fill-rule="evenodd" clip-rule="evenodd" fill="#22425B" d="M74.112,254.632c0.288-0.291,0.574-0.581,0.861-0.872
		C74.686,254.051,74.399,254.341,74.112,254.632z"/>
	<path fill-rule="evenodd" clip-rule="evenodd" fill="#16364F" d="M79.383,251.536c0.084,0.174,0.187,0.342,0.239,0.522
		c0.01,0.037-0.172,0.127-0.265,0.193C79.365,252.014,79.374,251.775,79.383,251.536z"/>
	<path fill-rule="evenodd" clip-rule="evenodd" fill="#22425B" d="M206.283,352.891c-0.087-0.171-0.191-0.336-0.243-0.517
		c-0.012-0.042,0.159-0.135,0.245-0.204C206.284,352.41,206.283,352.651,206.283,352.891z"/>
	<path fill-rule="evenodd" clip-rule="evenodd" fill="#16364F" d="M315.817,356.673c-0.238,0.377-0.475,0.377-0.713-0.001
		C315.343,356.56,315.579,356.56,315.817,356.673z"/>
	<path fill-rule="evenodd" clip-rule="evenodd" fill="#22425B" d="M256.243,318.396c0.312,0.004,0.623,0.009,0.935,0.012
		C256.866,318.405,256.555,318.4,256.243,318.396z"/>
	<path fill-rule="evenodd" clip-rule="evenodd" fill="#16364F" d="M79.377,257.401c0.225,0.25,0.45,0.499,0.674,0.749
		C79.48,258.213,79.288,257.934,79.377,257.401z"/>
	<path fill-rule="evenodd" clip-rule="evenodd" fill="#22425B" d="M236.513,258.552c-4.169-2.321-8.45-3.835-13.219-1.836
		c-0.168-2.318,1.677-3.53,3.12-2.792c2.97,1.521,6.43,0.769,9.253,2.58C236.6,257.101,237.437,257.353,236.513,258.552z"/>
	<path fill-rule="evenodd" clip-rule="evenodd" fill="#22425B" d="M238.648,269.863c0.293-1.945,0.587-3.892,0.88-5.838
		C240.115,266.104,241.519,268.306,238.648,269.863z"/>
	<path fill-rule="evenodd" clip-rule="evenodd" fill="#22425B" d="M237.88,259.877c-0.335-0.369-0.669-0.738-1.003-1.107
		c0.71-0.422,1.568-0.959,2.074,0.027C239.241,259.362,238.443,259.699,237.88,259.877z"/>
	<path fill-rule="evenodd" clip-rule="evenodd" fill="#22425B" d="M237.752,271.289c0.306-0.484,0.611-0.97,0.915-1.453
		C238.666,270.511,238.527,271.101,237.752,271.289z"/>
	<path fill-rule="evenodd" clip-rule="evenodd" fill="#16364F" d="M159.39,289.327c4.666,0.005,9.332,0.009,13.999,0.012
		c0.176,0.357,0.916,0.935,0.613,0.936c-4.764,0.03-9.553,0.762-14.285-0.33C159.569,289.91,159.498,289.541,159.39,289.327z"/>
</g>
</svg>
