<?xml version="1.0" encoding="utf-8"?>
<!-- Generator: Adobe Illustrator 16.0.0, SVG Export Plug-In . SVG Version: 6.00 Build 0)  -->
<!DOCTYPE svg PUBLIC "-//W3C//DTD SVG 1.1//EN" "http://www.w3.org/Graphics/SVG/1.1/DTD/svg11.dtd">
<svg version="1.1" id="Layer_1" xmlns="http://www.w3.org/2000/svg" xmlns:xlink="http://www.w3.org/1999/xlink" x="0px" y="0px"
	 width="400px" height="400px" viewBox="0 0 400 400" enable-background="new 0 0 400 400" xml:space="preserve">
<g>
	<path fill-rule="evenodd" clip-rule="evenodd" fill="#CF1E3E" d="M2.877,84.791c18.81,0,37.621,0.023,56.431-0.042
		c1.664-0.005,2.042,0.415,2.042,2.058c-0.045,72.46-0.045,144.919,0,217.38c0,1.642-0.377,2.062-2.042,2.057
		c-18.81-0.065-37.621-0.042-56.431-0.042C2.877,232.397,2.877,158.594,2.877,84.791z M12.434,276.587
		c0,6.224,0.039,12.446-0.027,18.668c-0.017,1.526,0.429,2.166,2.025,2.105c2.512-0.095,5.033-0.095,7.545,0.002
		c1.566,0.061,2.079-0.509,2.049-2.069c-0.084-4.367,0.012-8.738-0.055-13.105c-0.019-1.219,0.349-1.596,1.565-1.571
		c3.573,0.069,7.15,0.085,10.723-0.006c1.333-0.034,1.654,0.406,1.634,1.675c-0.071,4.367,0.021,8.738-0.054,13.105
		c-0.025,1.479,0.489,2.01,1.953,1.966c2.579-0.076,5.163-0.063,7.744-0.002c1.318,0.031,1.905-0.365,1.9-1.803
		c-0.04-12.643-0.04-25.286,0-37.93c0.004-1.438-0.583-1.832-1.901-1.801c-2.58,0.06-5.165,0.073-7.744-0.004
		c-1.463-0.043-1.98,0.488-1.952,1.967c0.078,4.036-0.007,8.075,0.048,12.112c0.016,1.098-0.282,1.49-1.43,1.469
		c-3.64-0.066-7.282-0.068-10.921,0.001c-1.216,0.022-1.586-0.354-1.564-1.572c0.069-4.036-0.016-8.075,0.048-12.112
		c0.022-1.38-0.467-1.896-1.844-1.861c-2.58,0.067-5.165,0.088-7.743-0.006c-1.596-0.059-2.041,0.579-2.024,2.106
		C12.473,264.143,12.434,270.365,12.434,276.587z M12.423,162.092c0.019,0,0.038,0,0.056,0c0,4.104-0.13,8.215,0.028,12.313
		c0.298,7.752,4.224,12.859,11.228,14.765c1.52,0.414,3.115,0.646,4.69,0.754c10.688,0.733,20.416-5.323,20.158-18.054
		c-0.147-7.281-0.066-14.567,0.009-21.85c0.018-1.685-0.418-2.423-2.221-2.332c-2.444,0.122-4.901,0.101-7.347,0.005
		c-1.55-0.06-2.085,0.477-2.068,2.053c0.07,6.354,0.055,12.711,0.013,19.067c-0.012,1.782-0.092,3.585-0.373,5.342
		c-0.532,3.33-2.766,4.999-6.347,4.95c-3.38-0.046-5.53-1.839-6.034-5.1c-0.15-0.977-0.208-1.976-0.212-2.964
		c-0.025-7.085-0.062-14.17-0.005-21.254c0.012-1.526-0.417-2.159-2.018-2.097c-2.578,0.101-5.164,0.072-7.745,0.01
		c-1.383-0.034-1.855,0.507-1.835,1.878C12.464,153.749,12.423,157.92,12.423,162.092z M12.018,112.324
		c0,6.289,0.033,12.578-0.026,18.867c-0.013,1.434,0.398,2.049,1.909,1.999c2.579-0.085,5.164-0.083,7.744-0.001
		c1.498,0.047,1.993-0.55,1.919-1.997c-0.092-1.783-0.041-3.574-0.017-5.361c0.024-1.842-0.611-4.287,0.32-5.368
		c1.079-1.253,3.597-0.37,5.484-0.397c8.789-0.125,13.355-4.238,14.245-12.92c0.845-8.237-4.014-14.434-12.241-15.263
		c-5.733-0.579-11.51-0.067-17.264-0.245c-1.728-0.053-2.121,0.626-2.101,2.216C12.062,100.011,12.018,106.167,12.018,112.324z
		 M26.81,243.659c1.283-0.028,3.256-0.251,5.186-0.737c6.535-1.649,10.39-6.456,10.586-13.15c0.184-6.279-2.667-9.906-9.517-12.147
		c-1.82-0.596-3.649-1.175-5.426-1.881c-1.411-0.562-2.693-1.469-2.354-3.227c0.352-1.829,1.816-2.479,3.539-2.6
		c2.248-0.159,4.187,0.683,5.825,2.1c1.394,1.205,2.096,0.813,2.789-0.687c0.97-2.099,2.028-4.162,3.143-6.189
		c0.551-1.001,0.339-1.428-0.664-1.919c-3.742-1.834-7.672-2.896-11.829-3.014c-8.49-0.24-14.665,5.747-14.748,14.232
		c-0.054,5.638,2.387,9.13,7.691,10.93c1.5,0.51,3.041,0.9,4.548,1.39c1.256,0.409,2.533,0.791,3.643,1.538
		c2.131,1.434,2.002,3.863-0.253,5.08c-0.777,0.419-1.615,0.552-2.487,0.582c-3.182,0.109-5.785-1.29-8.079-3.275
		c-1.374-1.189-2.073-0.908-2.81,0.607c-1.011,2.081-2.109,4.125-3.295,6.109c-0.607,1.017-0.52,1.517,0.511,2.173
		C16.879,242.164,21.291,243.539,26.81,243.659z"/>
	<path fill-rule="evenodd" clip-rule="evenodd" fill="#020202" d="M148.172,221.062c2.124-5.307,4.114-10.313,6.132-15.311
		c0.664-1.645,0.978-3.892,2.215-4.718c1.251-0.834,3.449-0.249,5.233-0.283c0.331-0.007,0.662-0.001,0.993-0.001
		c4.9,0,4.814,0.013,5.528,4.931c1.615,11.124,3.309,22.237,5.007,33.35c0.442,2.893,0.5,2.889-2.408,2.89
		c-2.252,0-4.514-0.123-6.754,0.041c-1.572,0.116-2.023-0.517-2.187-1.92c-0.66-5.65-1.391-11.292-2.105-16.936
		c-0.081-0.642-0.219-1.276-0.422-2.437c-2.084,4.941-3.977,9.422-5.865,13.904c-0.846,2.008-1.727,4.002-2.507,6.035
		c-0.352,0.917-0.797,1.328-1.857,1.343c-3.576,0.049-3.58,0.101-4.917-3.224c-2.118-5.266-4.219-10.538-6.359-15.796
		c-0.239-0.588-0.299-1.301-1.062-1.827c-0.663,4.454-1.315,8.808-1.958,13.162c-0.309,2.093-0.631,4.186-0.886,6.285
		c-0.127,1.046-0.569,1.426-1.663,1.395c-2.713-0.081-5.433-0.086-8.146-0.003c-1.439,0.045-1.886-0.449-1.645-1.861
		c2.147-12.575,4.27-25.155,6.378-37.738c0.188-1.122,0.545-1.695,1.879-1.632c2.709,0.129,5.433,0.114,8.144,0.004
		c1.245-0.05,1.711,0.445,2.107,1.528c2.013,5.519,4.104,11.007,6.173,16.505C147.477,219.419,147.767,220.076,148.172,221.062z"/>
	<path fill-rule="evenodd" clip-rule="evenodd" fill="#010101" d="M82.785,164.081c0,7.479-0.046,14.431,0.034,21.381
		c0.019,1.589-0.465,2.095-2.038,2.029c-2.644-0.112-5.296-0.061-7.944-0.018c-1.095,0.019-1.542-0.377-1.541-1.502
		c0.021-12.715,0.025-25.429-0.004-38.144c-0.002-1.267,0.555-1.575,1.695-1.554c2.648,0.052,5.299,0.078,7.945-0.012
		c1.19-0.04,1.906,0.375,2.627,1.308c5.14,6.648,10.343,13.25,15.529,19.863c0.484,0.617,0.988,1.22,1.492,1.838
		c0.654-0.433,0.349-1.01,0.351-1.47c0.025-6.423,0.097-12.849-0.032-19.269c-0.039-1.926,0.599-2.379,2.374-2.277
		c2.442,0.14,4.899,0.072,7.348,0.019c1.128-0.024,1.685,0.241,1.681,1.531c-0.035,12.715-0.03,25.429-0.005,38.144
		c0.002,1.092-0.34,1.549-1.479,1.528c-2.847-0.053-5.697-0.082-8.541,0.015c-1.154,0.038-1.624-0.65-2.193-1.379
		c-5.257-6.726-10.52-13.447-15.784-20.168C83.906,165.443,83.496,164.954,82.785,164.081z"/>
	<path fill-rule="evenodd" clip-rule="evenodd" fill="#010101" d="M337.465,224.203c0-7.498,0.054-14.369-0.038-21.237
		c-0.022-1.706,0.378-2.367,2.19-2.255c2.506,0.154,5.03,0.079,7.545,0.021c1.155-0.026,1.66,0.292,1.657,1.557
		c-0.035,12.714-0.03,25.428-0.005,38.142c0.002,1.116-0.388,1.525-1.504,1.506c-2.847-0.05-5.696-0.081-8.541,0.015
		c-1.162,0.04-1.619-0.676-2.184-1.396c-5.259-6.725-10.521-13.446-15.783-20.168c-0.391-0.499-0.798-0.984-1.501-1.851
		c0,1.081-0.001,1.711-0.001,2.34c0.001,6.292-0.065,12.583,0.042,18.873c0.03,1.797-0.561,2.291-2.271,2.203
		c-2.509-0.127-5.031-0.085-7.546-0.01c-1.31,0.038-1.724-0.45-1.72-1.736c0.033-12.582,0.033-25.163,0-37.745
		c-0.004-1.287,0.415-1.768,1.723-1.732c2.713,0.072,5.431,0.077,8.144-0.006c1.062-0.032,1.671,0.376,2.291,1.173
		c5.155,6.638,10.352,13.243,15.537,19.857C336.025,222.42,336.563,223.077,337.465,224.203z"/>
	<path fill-rule="evenodd" clip-rule="evenodd" fill="#020202" d="M94.629,243.508c-12.941,0.019-22.587-9.253-22.614-21.737
		c-0.029-12.899,9.426-22.207,22.562-22.214c13.052-0.005,22.575,9.24,22.608,21.95C117.219,234.167,107.661,243.489,94.629,243.508
		z M105.551,221.449c-0.055-6.084-4.991-10.975-11.032-10.931c-6.001,0.043-10.935,5.069-10.903,11.108
		c0.031,6.006,5.091,10.988,11.076,10.908C100.809,232.452,105.606,227.555,105.551,221.449z"/>
	<path fill-rule="evenodd" clip-rule="evenodd" fill="#020202" d="M388.165,218.637c3.112,0.001,6.226,0.015,9.337-0.008
		c0.918-0.007,1.522,0.156,1.497,1.29c-0.099,4.328-0.529,8.575-2.533,12.52c-3.279,6.454-8.671,9.804-15.729,10.551
		c-3.502,0.371-7.01,0.163-10.414-0.906c-7.908-2.487-13.604-9.93-14.077-18.367c-0.316-5.63,0.617-10.93,3.98-15.621
		c3.709-5.177,8.852-7.837,15.085-8.419c4.605-0.43,9.116-0.038,13.279,2.291c3.603,2.017,6.026,5.074,7.899,8.666
		c0.52,0.998,0.148,1.445-0.732,1.807c-2.745,1.131-5.488,2.268-8.22,3.428c-0.718,0.306-1.198,0.313-1.559-0.526
		c-1.84-4.276-6.182-6.025-10.962-4.823c-3.845,0.966-6.874,5.231-7.179,9.994c-0.211,3.293,0.556,6.301,2.673,8.894
		c2.819,3.454,8.326,4.586,12.244,2.479c0.688-0.368,1.327-0.88,1.872-1.438c0.652-0.666,1.382-1.633,1.082-2.434
		c-0.329-0.878-1.523-0.344-2.329-0.383c-1.52-0.073-3.046-0.059-4.568-0.009c-1.112,0.036-1.54-0.414-1.507-1.525
		c0.055-1.92,0.077-3.845-0.006-5.761c-0.059-1.315,0.441-1.746,1.729-1.719C382.071,218.681,385.118,218.637,388.165,218.637z"/>
	<path fill-rule="evenodd" clip-rule="evenodd" fill="#010101" d="M236.394,271.446c0,7.199-0.071,14.399,0.047,21.598
		c0.031,1.915-0.321,2.688-2.413,2.475c-2.162-0.22-4.368-0.11-6.551-0.023c-1.089,0.043-1.295-0.35-1.292-1.352
		c0.031-12.519,0.034-25.038-0.004-37.556c-0.004-1.082,0.348-1.321,1.349-1.296c2.449,0.064,4.902,0.073,7.351-0.004
		c1.097-0.033,1.789,0.313,2.471,1.192c5.964,7.684,11.98,15.328,18.002,23.01c0.609-0.512,0.313-1.146,0.314-1.681
		c0.024-6.955,0.044-13.909-0.01-20.864c-0.01-1.225,0.203-1.737,1.583-1.669c2.51,0.125,5.033,0.075,7.549,0.017
		c0.95-0.022,1.229,0.268,1.227,1.225c-0.029,12.586-0.031,25.171,0,37.756c0.003,0.973-0.3,1.234-1.235,1.215
		c-2.648-0.055-5.301-0.08-7.948,0.011c-1.053,0.036-1.515-0.534-2.057-1.229c-5.66-7.254-11.338-14.493-17.012-21.737
		c-0.321-0.41-0.644-0.82-0.965-1.23C236.664,271.352,236.528,271.398,236.394,271.446z"/>
	<path fill-rule="evenodd" clip-rule="evenodd" fill="#010101" d="M278.756,221.375c0,6.157-0.064,12.315,0.041,18.472
		c0.029,1.727-0.564,2.172-2.169,2.101c-2.444-0.108-4.901-0.107-7.347-0.001c-1.54,0.067-2.103-0.393-2.065-2.007
		c0.101-4.367-0.021-8.74,0.068-13.107c0.027-1.341-0.386-1.668-1.667-1.638c-3.507,0.083-7.021,0.123-10.524-0.015
		c-1.594-0.062-1.828,0.516-1.8,1.919c0.088,4.301-0.021,8.606,0.062,12.908c0.027,1.469-0.416,1.999-1.913,1.939
		c-2.578-0.102-5.165-0.082-7.744-0.005c-1.335,0.039-1.887-0.337-1.882-1.778c0.044-12.579,0.04-25.159,0.003-37.737
		c-0.004-1.328,0.497-1.728,1.76-1.696c2.646,0.065,5.298,0.078,7.944-0.004c1.378-0.043,1.856,0.412,1.83,1.816
		c-0.078,4.038,0.034,8.079-0.062,12.115c-0.033,1.365,0.432,1.648,1.684,1.621c3.507-0.075,7.02-0.088,10.526,0.005
		c1.353,0.036,1.822-0.283,1.785-1.722c-0.103-3.969,0.021-7.945-0.066-11.915c-0.032-1.498,0.478-1.978,1.945-1.923
		c2.579,0.095,5.167,0.103,7.744-0.004c1.545-0.063,1.888,0.567,1.873,1.985C278.721,208.928,278.756,215.151,278.756,221.375z"/>
	<path fill-rule="evenodd" clip-rule="evenodd" fill="#010101" d="M108.102,295.836c-1.913,0-4.256,0.672-5.613-0.196
		c-1.248-0.799-1.568-3.22-2.049-4.993c-0.408-1.499-1.147-1.915-2.654-1.86c-3.374,0.123-6.758,0.098-10.134,0.006
		c-1.142-0.031-1.65,0.38-2.017,1.387c-0.695,1.912-0.994,4.57-2.39,5.467c-1.514,0.974-4.091,0.301-6.205,0.331
		c-1.193,0.017-2.39-0.063-3.577,0.02c-1.728,0.119-2.079-0.45-1.444-2.078c3.288-8.424,6.498-16.878,9.735-25.321
		c1.583-4.13,3.192-8.25,4.72-12.4c0.373-1.012,0.833-1.45,1.982-1.417c3.112,0.091,6.229,0.097,9.34-0.002
		c1.182-0.038,1.585,0.475,1.95,1.455c4.677,12.557,9.392,25.098,14.086,37.646c0.722,1.929,0.591,2.084-1.558,2.099
		c-1.391,0.009-2.782,0.002-4.173,0.002C108.102,295.931,108.102,295.884,108.102,295.836z M93.023,269.353
		c-1.179,3.468-2.152,6.411-3.188,9.333c-0.278,0.784-0.378,1.227,0.704,1.192c1.654-0.052,3.311-0.028,4.966-0.007
		c0.659,0.008,1.044-0.133,0.783-0.9C95.251,275.928,94.221,272.881,93.023,269.353z"/>
	<path fill-rule="evenodd" clip-rule="evenodd" fill="#010101" d="M123.147,116.332c4.114,5.32,8.179,10.577,12.501,16.167
		c-4.259,0-8.128-0.021-11.997,0.015c-0.969,0.009-1.165-0.749-1.547-1.315c-2.989-4.428-5.96-8.868-9.077-13.513
		c-0.521,1.263-0.27,2.356-0.283,3.403c-0.041,3.31-0.078,6.621,0.017,9.928c0.036,1.256-0.347,1.559-1.549,1.512
		c-2.445-0.095-4.898-0.054-7.346-0.015c-0.91,0.014-1.432-0.046-1.427-1.24c0.047-12.577,0.032-25.153,0.02-37.73
		c0-0.75,0.05-1.248,1.033-1.215c6.08,0.2,12.183-0.42,18.243,0.351c5.464,0.695,9.438,4.889,9.956,10.254
		c0.653,6.771-1.848,10.953-7.76,12.986C123.692,116.001,123.477,116.156,123.147,116.332z M112.718,105.157
		c0,1.322,0.017,2.643-0.007,3.964c-0.012,0.669,0.06,1.154,0.928,1.126c1.514-0.048,3.043,0.089,4.503-0.466
		c3.234-1.229,4.199-5.336,1.813-7.82c-1.869-1.945-4.432-2.111-6.644-1.496c-1.453,0.405-0.274,2.566-0.584,3.9
		C112.668,104.617,112.718,104.893,112.718,105.157z"/>
	<path fill-rule="evenodd" clip-rule="evenodd" fill="#010101" d="M157.109,275.397c0-6.223,0.04-12.446-0.029-18.669
		c-0.016-1.47,0.431-1.967,1.919-1.945c5.163,0.074,10.328,0.09,15.491,0.022c9.37-0.123,15.611,6.463,13.871,17.227
		c-1.125,6.958-5.494,10.549-12.586,10.793c-1.918,0.066-3.842,0.094-5.758,0.011c-1.15-0.05-1.458,0.342-1.435,1.458
		c0.068,3.243-0.032,6.489,0.05,9.73c0.036,1.422-0.342,2.046-1.883,1.983c-2.577-0.104-5.165-0.099-7.743-0.002
		c-1.485,0.056-1.942-0.462-1.926-1.938C157.149,287.845,157.109,281.621,157.109,275.397z M168.601,268.67
		c0,5.432,0,5.432,4.508,4.678c3.397-0.567,5.021-3.965,3.351-7.011c-0.913-1.666-4.693-2.962-7.134-2.098
		c-1.655,0.586-0.345,2.302-0.71,3.447C168.52,267.986,168.601,268.34,168.601,268.67z"/>
	<path fill-rule="evenodd" clip-rule="evenodd" fill="#010101" d="M119.346,275.332c0-6.157,0.044-12.315-0.032-18.471
		c-0.019-1.527,0.354-2.115,1.988-2.084c5.162,0.095,10.328,0.094,15.491,0.03c9.312-0.113,15.581,6.508,13.788,17.288
		c-1.145,6.89-5.47,10.468-12.438,10.724c-1.917,0.069-3.843,0.106-5.757,0.016c-1.206-0.059-1.608,0.271-1.573,1.526
		c0.088,3.242-0.038,6.489,0.059,9.73c0.045,1.511-0.497,1.968-1.953,1.913c-2.512-0.093-5.033-0.103-7.545,0.003
		c-1.54,0.064-2.085-0.392-2.063-2.007C119.397,287.778,119.346,281.555,119.346,275.332z M130.838,268.839
		c0,5.249,0,5.249,4.48,4.512c3.408-0.56,5.044-3.932,3.393-6.99c-0.914-1.693-4.582-3.004-7.116-2.109
		c-1.627,0.574-0.425,2.392-0.745,3.604C130.769,268.162,130.838,268.51,130.838,268.839z"/>
	<path fill-rule="evenodd" clip-rule="evenodd" fill="#020202" d="M288.11,296.765c-4.84,0.048-9.213-1.417-13.277-3.989
		c-0.93-0.589-1.11-1.037-0.532-2.018c1.239-2.103,2.395-4.26,3.484-6.444c0.669-1.342,1.298-1.378,2.384-0.415
		c2.009,1.782,4.305,3.071,7.031,3.389c0.647,0.075,1.329,0.084,1.967-0.031c1.69-0.308,3.255-0.86,3.524-2.896
		c0.265-1.999-1.133-2.87-2.64-3.473c-1.834-0.73-3.741-1.281-5.625-1.88c-6.668-2.116-9.003-5.049-8.967-11.288
		c0.038-6.521,3.599-11.85,9.389-13.442c6.11-1.68,11.892-0.243,17.438,2.514c0.887,0.44,0.5,0.908,0.244,1.416
		c-1.131,2.239-2.319,4.45-3.408,6.709c-0.584,1.213-1.172,1.42-2.228,0.482c-1.407-1.251-3.071-2.033-4.956-2.319
		c-1.165-0.179-2.251,0.046-3.246,0.618c-2.063,1.187-2.153,3.438-0.174,4.812c1.43,0.991,3.133,1.365,4.757,1.906
		c0.501,0.167,1.007,0.317,1.509,0.48c6.979,2.264,9.956,5.959,9.668,11.996c-0.347,7.257-4.265,11.911-11.22,13.396
		C291.536,296.65,289.832,296.765,288.11,296.765z"/>
	<path fill-rule="evenodd" clip-rule="evenodd" fill="#010101" d="M180.625,221.406c0-6.161,0.042-12.323-0.029-18.482
		c-0.019-1.564,0.31-2.238,2.064-2.213c6.624,0.095,13.25,0.092,19.874,0.001c1.637-0.022,2.077,0.519,1.98,2.06
		c-0.12,1.914-0.085,3.843-0.01,5.761c0.049,1.224-0.41,1.629-1.613,1.605c-3.113-0.061-6.228,0.023-9.34-0.043
		c-1.105-0.024-1.451,0.271-1.474,1.427c-0.103,5.129-0.144,5.128,4.903,5.128c1.722,0,3.447,0.048,5.166-0.017
		c1.15-0.043,1.715,0.281,1.673,1.549c-0.072,2.118-0.056,4.24-0.005,6.358c0.026,1.119-0.414,1.515-1.522,1.495
		c-2.914-0.051-5.831,0.027-8.744-0.039c-1.102-0.026-1.447,0.281-1.47,1.428c-0.103,5.127-0.143,5.126,4.905,5.126
		c1.921,0,3.845,0.057,5.763-0.021c1.245-0.05,1.825,0.291,1.764,1.659c-0.095,2.05-0.081,4.109-0.005,6.159
		c0.045,1.238-0.443,1.596-1.628,1.59c-6.824-0.039-13.647-0.05-20.47,0.008c-1.417,0.011-1.817-0.5-1.806-1.857
		C180.654,233.86,180.625,227.634,180.625,221.406z"/>
	<path fill-rule="evenodd" clip-rule="evenodd" fill="#010101" d="M194.537,275.389c0-6.227,0.04-12.454-0.029-18.68
		c-0.016-1.491,0.472-1.941,1.943-1.927c6.69,0.064,13.382,0.069,20.071-0.003c1.498-0.016,1.986,0.458,1.902,1.932
		c-0.11,1.914-0.089,3.843-0.006,5.76c0.056,1.284-0.366,1.766-1.69,1.732c-3.046-0.077-6.096,0.023-9.142-0.049
		c-1.16-0.027-1.592,0.212-1.603,1.505c-0.042,5.052-0.096,5.051,4.986,5.051c1.723,0,3.447,0.061,5.166-0.019
		c1.24-0.058,1.628,0.449,1.593,1.629c-0.062,2.052-0.064,4.108,0,6.16c0.037,1.195-0.38,1.646-1.604,1.619
		c-2.913-0.065-5.829,0.016-8.743-0.04c-0.996-0.019-1.353,0.22-1.392,1.306c-0.187,5.247-0.224,5.246,4.986,5.246
		c1.922,0,3.844,0.043,5.763-0.016c1.134-0.035,1.727,0.246,1.68,1.536c-0.079,2.117-0.063,4.239-0.006,6.358
		c0.03,1.119-0.389,1.51-1.505,1.504c-6.955-0.032-13.911-0.042-20.866,0.006c-1.509,0.012-1.517-0.848-1.513-1.93
		C194.547,287.843,194.537,281.616,194.537,275.389z"/>
	<path fill-rule="evenodd" clip-rule="evenodd" fill="#020202" d="M161.77,102.581c-2.135-1.678-4.198-3.092-6.893-3.076
		c-2.369,0.015-4.192,1.188-4.594,2.996c-0.411,1.848,0.531,3.261,3.001,4.251c1.713,0.688,3.476,1.258,5.231,1.833
		c6.569,2.152,9.084,5.326,8.97,11.364c-0.12,6.353-3.491,10.822-9.632,12.491c-6.62,1.799-12.837,0.655-18.652-2.903
		c-0.631-0.386-1.225-0.659-0.659-1.635c1.357-2.339,2.601-4.744,3.953-7.236c2.188,1.755,4.33,3.378,7.028,4
		c1.717,0.397,3.42,0.454,5.061-0.258c1.356-0.588,2.301-1.591,2.428-3.13c0.13-1.573-0.744-2.633-2.017-3.382
		c-2.075-1.221-4.428-1.71-6.689-2.42c-6.593-2.07-9.122-5.433-8.653-11.636c0.493-6.523,4.688-11.376,10.625-12.376
		c5.172-0.871,9.964,0.369,14.623,2.476c0.666,0.301,1.053,0.571,0.593,1.418C164.233,97.679,163.067,100.046,161.77,102.581z"/>
	<path fill-rule="evenodd" clip-rule="evenodd" fill="#020202" d="M215.042,102.582c-2.175-1.704-4.292-3.148-7.065-3.078
		c-2.338,0.059-4.136,1.309-4.461,3.152c-0.313,1.769,0.625,3.125,2.992,4.079c1.711,0.688,3.47,1.263,5.225,1.836
		c6.445,2.106,9.063,5.257,9.03,10.911c-0.041,6.616-3.176,11.049-9.373,12.861c-6.731,1.968-13.068,0.799-18.994-2.858
		c-0.566-0.35-1.14-0.593-0.637-1.48c1.366-2.407,2.657-4.856,4.01-7.35c2.884,2.37,5.785,4.402,9.638,4.281
		c0.811-0.025,1.581-0.166,2.313-0.475c1.438-0.605,2.443-1.614,2.559-3.237c0.11-1.571-0.788-2.615-2.063-3.352
		c-2.081-1.2-4.426-1.702-6.687-2.406c-6.493-2.02-8.992-5.306-8.619-11.451c0.398-6.576,4.633-11.541,10.635-12.551
		c5.166-0.869,9.96,0.356,14.602,2.488c0.449,0.207,1.192,0.271,0.687,1.209C217.525,97.585,216.32,100.063,215.042,102.582z"/>
	<path fill-rule="evenodd" clip-rule="evenodd" d="M73.165,112.395c0-6.154,0.041-12.309-0.032-18.463
		c-0.015-1.31,0.351-1.632,1.634-1.619c6.485,0.066,12.971,0.06,19.456,0.004c1.23-0.01,1.801,0.21,1.662,1.592
		c-0.221,2.214,0.931,5.197-0.442,6.45c-1.206,1.1-4.143,0.301-6.316,0.339c-1.849,0.033-4.329-0.649-5.382,0.282
		c-1.223,1.083-0.208,3.622-0.408,5.513c-0.142,1.339,0.235,1.85,1.691,1.787c2.841-0.123,5.693,0.044,8.534-0.071
		c1.358-0.055,1.66,0.41,1.592,1.658c-0.101,1.848-0.081,3.707-0.004,5.557c0.041,0.989-0.318,1.21-1.241,1.195
		c-3.043-0.052-6.089,0.03-9.131-0.045c-1.127-0.027-1.514,0.3-1.445,1.437c0.119,1.969-0.597,4.488,0.371,5.764
		c0.922,1.215,3.582,0.288,5.475,0.356c1.851,0.066,3.707,0.048,5.558-0.001c0.833-0.022,1.173,0.198,1.146,1.1
		c-0.061,2.049-0.057,4.103-0.001,6.153c0.023,0.862-0.237,1.138-1.112,1.134c-6.816-0.031-13.633-0.057-20.449,0.018
		c-1.307,0.014-1.157-0.67-1.157-1.477C73.167,124.836,73.165,118.615,73.165,112.395z"/>
	<path fill-rule="evenodd" clip-rule="evenodd" fill="#010101" d="M126.086,171.281c0-4.701-0.043-9.403,0.029-14.104
		c0.019-1.234-0.331-1.615-1.558-1.545c-1.782,0.104-3.575-0.012-5.362,0.041c-1.053,0.03-1.603-0.251-1.569-1.438
		c0.062-2.183,0.048-4.37,0.004-6.554c-0.021-1.024,0.366-1.407,1.396-1.404c8.608,0.023,17.217,0.023,25.825,0.001
		c1.069-0.003,1.372,0.498,1.36,1.459c-0.026,2.185-0.03,4.37,0.001,6.555c0.015,1.031-0.438,1.403-1.442,1.379
		c-1.853-0.045-3.713,0.073-5.561-0.041c-1.332-0.083-1.647,0.369-1.639,1.661c0.056,9.204,0.031,18.408,0.029,27.613
		c0,2.554-0.001,2.555-2.644,2.555c-2.318,0.001-4.638-0.071-6.952,0.026c-1.454,0.062-1.978-0.387-1.95-1.903
		C126.14,180.817,126.086,176.049,126.086,171.281z"/>
	<path fill-rule="evenodd" clip-rule="evenodd" fill="#010101" d="M227.835,226.104c0.001,4.634-0.049,9.27,0.029,13.904
		c0.025,1.479-0.441,1.994-1.93,1.938c-2.578-0.098-5.167-0.102-7.745,0.002c-1.513,0.061-1.906-0.503-1.898-1.953
		c0.057-9.271-0.01-18.542,0.066-27.812c0.014-1.586-0.271-2.277-2.015-2.1c-1.639,0.165-3.31-0.009-4.963,0.051
		c-1.102,0.039-1.55-0.354-1.519-1.488c0.059-2.117,0.053-4.238,0.001-6.355c-0.025-1.065,0.279-1.563,1.45-1.559
		c8.541,0.033,17.084,0.031,25.626,0.002c1.119-0.004,1.537,0.412,1.514,1.514c-0.046,2.118-0.061,4.239,0.005,6.356
		c0.039,1.278-0.57,1.57-1.699,1.53c-1.72-0.061-3.455,0.11-5.161-0.052c-1.616-0.153-1.815,0.531-1.792,1.916
		C227.884,216.699,227.835,221.4,227.835,226.104z"/>
	<path fill-rule="evenodd" clip-rule="evenodd" fill="#020202" d="M171.451,166.765c0-6.153,0.047-12.309-0.033-18.462
		c-0.02-1.569,0.443-2.115,2.03-2.043c2.51,0.115,5.033,0.12,7.542-0.001c1.604-0.077,2.022,0.485,2.01,2.047
		c-0.067,9.265,0.012,18.529-0.075,27.793c-0.015,1.679,0.456,2.111,2.086,2.032c2.905-0.141,5.823,0.006,8.733-0.061
		c1.245-0.028,1.824,0.318,1.772,1.664c-0.079,2.049-0.066,4.104-0.004,6.154c0.037,1.219-0.45,1.598-1.639,1.591
		c-6.882-0.04-13.765-0.05-20.646,0.006c-1.417,0.012-1.812-0.502-1.799-1.859C171.481,179.339,171.451,173.052,171.451,166.765z"/>
	<path fill-rule="evenodd" clip-rule="evenodd" d="M242.288,116.673c0,4.767-0.039,9.535,0.027,14.301
		c0.018,1.179-0.224,1.618-1.5,1.558c-2.378-0.113-4.769-0.105-7.148-0.003c-1.284,0.055-1.646-0.307-1.639-1.62
		c0.06-9.401-0.015-18.804,0.074-28.205c0.017-1.673-0.415-2.183-2.069-2.039c-1.773,0.154-3.574-0.021-5.358,0.056
		c-0.98,0.043-1.232-0.298-1.201-1.232c0.065-1.984,0.07-3.974-0.002-5.957c-0.035-0.97,0.283-1.211,1.225-1.207
		c8.343,0.034,16.686,0.043,25.027-0.007c1.131-0.007,1.289,0.424,1.256,1.381c-0.063,1.852-0.119,3.715,0.016,5.559
		c0.098,1.34-0.459,1.519-1.587,1.464c-1.717-0.084-3.454,0.11-5.159-0.058c-1.756-0.173-2.035,0.535-1.999,2.108
		C242.356,107.402,242.288,112.038,242.288,116.673z"/>
	<path fill-rule="evenodd" clip-rule="evenodd" fill="#010101" d="M151.178,166.877c0-6.225,0.039-12.45-0.029-18.674
		c-0.016-1.476,0.439-1.995,1.928-1.939c2.645,0.098,5.298,0.08,7.945,0.005c1.312-0.037,1.707,0.445,1.703,1.732
		c-0.037,12.582-0.037,25.164,0,37.746c0.004,1.283-0.387,1.772-1.701,1.735c-2.646-0.075-5.299-0.093-7.945,0.005
		c-1.485,0.055-1.947-0.457-1.931-1.937C151.217,179.327,151.178,173.102,151.178,166.877z"/>
	<path fill-rule="evenodd" clip-rule="evenodd" fill="#010101" d="M299.049,221.46c0,6.158-0.052,12.318,0.035,18.475
		c0.023,1.601-0.474,2.085-2.04,2.015c-2.577-0.114-5.164-0.07-7.746-0.014c-1.216,0.026-1.802-0.28-1.798-1.656
		c0.039-12.648,0.034-25.296,0.006-37.944c-0.004-1.228,0.47-1.624,1.646-1.602c2.714,0.052,5.433,0.083,8.144-0.011
		c1.443-0.051,1.79,0.52,1.778,1.864C299.018,208.878,299.049,215.169,299.049,221.46z"/>
	<path fill-rule="evenodd" clip-rule="evenodd" fill="#040404" d="M174.483,112.37c0-6.086,0.06-12.174-0.042-18.258
		c-0.025-1.533,0.418-1.886,1.866-1.806c2.308,0.128,4.631,0.093,6.944,0.01c1.163-0.042,1.593,0.21,1.587,1.499
		c-0.051,12.437-0.047,24.874-0.004,37.311c0.004,1.188-0.411,1.43-1.484,1.398c-2.379-0.069-4.766-0.102-7.142,0.01
		c-1.355,0.063-1.779-0.29-1.76-1.707C174.53,124.675,174.483,118.522,174.483,112.37z"/>
	<path fill-rule="evenodd" clip-rule="evenodd" fill="#FDFBFC" d="M12.434,276.587c0-6.222,0.039-12.444-0.027-18.666
		c-0.017-1.527,0.429-2.165,2.024-2.106c2.578,0.094,5.164,0.073,7.743,0.006c1.377-0.035,1.867,0.481,1.844,1.861
		c-0.064,4.037,0.021,8.076-0.048,12.112c-0.021,1.218,0.348,1.595,1.564,1.572c3.64-0.069,7.282-0.067,10.921-0.001
		c1.147,0.021,1.445-0.371,1.43-1.469c-0.056-4.037,0.029-8.076-0.048-12.112c-0.028-1.479,0.489-2.01,1.952-1.967
		c2.579,0.077,5.164,0.063,7.744,0.004c1.318-0.031,1.905,0.363,1.901,1.801c-0.04,12.644-0.04,25.287,0,37.93
		c0.005,1.438-0.582,1.834-1.9,1.803c-2.581-0.061-5.165-0.074-7.744,0.002c-1.463,0.044-1.978-0.487-1.953-1.966
		c0.074-4.367-0.018-8.738,0.054-13.105c0.021-1.269-0.3-1.709-1.634-1.675c-3.572,0.091-7.149,0.075-10.723,0.006
		c-1.216-0.024-1.583,0.353-1.565,1.571c0.067,4.367-0.029,8.738,0.055,13.105c0.03,1.561-0.482,2.13-2.049,2.069
		c-2.512-0.097-5.033-0.097-7.545-0.002c-1.596,0.061-2.042-0.579-2.025-2.105C12.472,289.033,12.434,282.811,12.434,276.587z"/>
	<path fill-rule="evenodd" clip-rule="evenodd" fill="#FDFCFC" d="M12.423,162.092c0-4.172,0.041-8.343-0.023-12.514
		c-0.021-1.371,0.452-1.912,1.835-1.878c2.581,0.063,5.167,0.091,7.745-0.01c1.602-0.063,2.03,0.57,2.018,2.097
		c-0.056,7.084-0.02,14.169,0.005,21.254c0.004,0.988,0.062,1.987,0.212,2.964c0.504,3.261,2.654,5.054,6.034,5.1
		c3.581,0.049,5.815-1.62,6.347-4.95c0.281-1.757,0.361-3.56,0.373-5.342c0.042-6.356,0.058-12.713-0.013-19.067
		c-0.018-1.576,0.518-2.112,2.068-2.053c2.446,0.096,4.903,0.117,7.347-0.005c1.802-0.091,2.238,0.647,2.221,2.332
		c-0.076,7.282-0.157,14.568-0.009,21.85c0.258,12.73-9.47,18.787-20.158,18.054c-1.575-0.107-3.17-0.34-4.69-0.754
		c-7.004-1.905-10.93-7.013-11.228-14.765c-0.158-4.098-0.028-8.208-0.028-12.313C12.461,162.092,12.442,162.092,12.423,162.092z"/>
	<path fill-rule="evenodd" clip-rule="evenodd" fill="#FDFBFC" d="M12.018,112.324c0-6.156,0.043-12.313-0.03-18.469
		c-0.02-1.59,0.374-2.27,2.101-2.216c5.754,0.178,11.531-0.334,17.264,0.245c8.227,0.829,13.086,7.026,12.241,15.263
		c-0.89,8.683-5.456,12.795-14.245,12.92c-1.887,0.027-4.405-0.856-5.484,0.397c-0.931,1.081-0.296,3.525-0.32,5.368
		c-0.023,1.787-0.075,3.579,0.017,5.361c0.074,1.446-0.421,2.043-1.919,1.997c-2.58-0.082-5.165-0.084-7.744,0.001
		c-1.51,0.05-1.921-0.565-1.909-1.999C12.051,124.902,12.018,118.612,12.018,112.324z M23.541,105.768c0,0.264,0,0.528,0,0.792
		c0,4.078,0,4.076,4.205,3.733c1.359-0.11,2.605-0.427,3.389-1.693c1.042-1.684,0.992-4.418-0.252-5.788
		c-1.87-2.058-4.503-1.752-6.683-1.268c-1.458,0.324-0.371,2.511-0.655,3.828C23.518,105.499,23.541,105.636,23.541,105.768z"/>
	<path fill-rule="evenodd" clip-rule="evenodd" fill="#FDFBFC" d="M26.81,243.659c-5.52-0.12-9.931-1.495-14-4.085
		c-1.031-0.656-1.118-1.156-0.511-2.173c1.186-1.984,2.284-4.028,3.295-6.109c0.737-1.516,1.436-1.797,2.81-0.607
		c2.293,1.985,4.897,3.385,8.079,3.275c0.872-0.03,1.71-0.163,2.487-0.582c2.255-1.217,2.384-3.646,0.253-5.08
		c-1.11-0.747-2.386-1.129-3.643-1.538c-1.508-0.489-3.048-0.88-4.548-1.39c-5.304-1.8-7.745-5.292-7.691-10.93
		c0.083-8.485,6.257-14.473,14.748-14.232c4.157,0.118,8.086,1.18,11.829,3.014c1.003,0.491,1.215,0.918,0.664,1.919
		c-1.115,2.027-2.172,4.091-3.143,6.189c-0.693,1.5-1.395,1.892-2.789,0.687c-1.639-1.417-3.578-2.259-5.825-2.1
		c-1.722,0.121-3.187,0.771-3.539,2.6c-0.339,1.758,0.943,2.665,2.354,3.227c1.777,0.706,3.606,1.285,5.426,1.881
		c6.85,2.241,9.7,5.868,9.517,12.147c-0.196,6.694-4.051,11.501-10.586,13.15C30.066,243.408,28.093,243.631,26.81,243.659z"/>
	<path fill-rule="evenodd" clip-rule="evenodd" fill="#CF1E3E" d="M23.541,105.768c0-0.132-0.023-0.269,0.004-0.395
		c0.284-1.317-0.804-3.503,0.655-3.828c2.179-0.484,4.813-0.79,6.683,1.268c1.244,1.369,1.293,4.104,0.252,5.788
		c-0.784,1.267-2.03,1.583-3.389,1.693c-4.205,0.342-4.205,0.344-4.205-3.733C23.541,106.296,23.541,106.032,23.541,105.768z"/>
</g>
</svg>
