<?xml version="1.0" encoding="utf-8"?>
<!-- Generator: Adobe Illustrator 16.0.0, SVG Export Plug-In . SVG Version: 6.00 Build 0)  -->
<!DOCTYPE svg PUBLIC "-//W3C//DTD SVG 1.1//EN" "http://www.w3.org/Graphics/SVG/1.1/DTD/svg11.dtd">
<svg version="1.1" id="Layer_1" xmlns="http://www.w3.org/2000/svg" xmlns:xlink="http://www.w3.org/1999/xlink" x="0px" y="0px"
	 width="400px" height="400px" viewBox="0 0 400 400" enable-background="new 0 0 400 400" xml:space="preserve">
<g>
	<path fill-rule="evenodd" clip-rule="evenodd" d="M296.239,166.564c0-15.938,0-31.326,0-47.368
		c9.223,1.427,8.053-4.728,8.021-10.268c-0.079-11.993-0.028-23.986-0.028-36.875c-5.433-0.56-10.283-1.446-15.108-1.325
		c-1.381,0.033-3.283,2.761-3.95,4.611c-10.1,27.974-20.261,55.934-29.815,84.099c-2.056,6.062-4.915,7.941-10.973,7.741
		c-11.484-0.383-11.322-0.149-14.963-11.313c-9.299-28.481-18.76-56.908-28.193-85.343c-0.578-1.744-1.479-3.385-3.259-4.877
		c0.289,6.5,0.694,12.991,0.849,19.496c0.387,16.484-0.532,32.852-5.498,48.729c-7.573,24.202-26.757,37.766-50.254,35.491
		c-12.115-1.175-21.553-7.442-29.088-16.563c-4.467-5.404-8.239-11.383-13.057-18.121c-0.521,3.833-1.025,6.878-1.338,9.941
		c-0.443,4.37-0.704,8.758-1.114,13.127c-0.872,9.195-0.891,9.298-10.077,9.513c-23.657,0.555-47.312,1.012-70.973,1.497
		c-2.261,0.046-4.527,0.004-8.09,0.004c0-7.41-0.005-14.376,0-21.343c0.004-6.1,0.251-12.218-0.08-18.303
		c-0.191-3.483,1.198-5.158,4.332-5.325c4.332-0.233,5.087-2.327,4.919-6.375c-0.392-9.452-0.126-18.932-0.126-29.167
		c-3.567,1.646-6.206,2.868-9.644,4.463c0-12.32-0.074-23.879,0.023-35.435c0.08-9.61,0.117-9.746,9.103-13.015
		c11.098-4.033,22.191-8.151,33.485-11.574c6.892-2.084,8.193-0.802,8.091,6.375c-0.182,12.017-0.802,24.029-0.998,36.041
		c-0.065,4.075-1.445,6.304-5.596,7.223c-1.511,0.331-3.74,2.369-3.773,3.679c-0.298,11.424-0.172,22.868-0.172,35.365
		c3.329,0,6.491-0.01,9.652,0c15.117,0.074,18.414-3.236,17.127-18.242c-0.368-4.318,1.054-5.754,5.032-6.309
		c5.414-0.76,12.534-0.34,15.611-3.581c2.826-2.976,1.25-10.124,1.642-15.43c1.334-18.28,7.009-34.563,20.48-47.782
		c20.881-20.49,47.457-19.786,66.683,2.182c0.727,0.825,1.496,1.608,3.11,3.343c0-5.74,0.177-10.361-0.057-14.968
		c-0.181-3.591,1.259-5.484,4.766-5.522c12.94-0.13,25.886-0.279,38.819-0.061c1.301,0.023,3.451,2.364,3.67,3.856
		c0.583,3.936,0.257,7.993,0.406,11.994c0.293,8.169-0.201,16.498,1.246,24.462c1.403,7.759,4.82,15.146,7.907,24.337
		c3.787-10.031,9.313-17.781,9.248-27.648c-0.07-11.033-0.016-22.066-0.016-33.709c3.289,0,7.219-0.256,11.104,0.042
		c34.39,2.611,67.824,10.352,101.15,18.773c8.227,2.075,12.818,5.805,14.093,15.062c1.817,13.168,5.843,26.025,8.547,39.091
		c3.595,17.351,0.462,34.614-1.395,51.853c-0.731,6.827-2.126,13.583-2.745,20.42c-0.351,3.8-2.075,4.831-5.499,4.719
		c-4.005-0.126-8.021,0.13-12.021,0.061c-21.749-0.396-43.497-0.835-65.247-1.282C300.521,166.994,298.832,166.77,296.239,166.564z
		 M102.392,88.31c0.046,14.087,1.627,27.274,9.732,38.703c16.656,23.502,50.939,32.445,70.701-1.026
		c15.467-26.197,15.15-55.705,1.818-83.692c-7.032-14.768-19.683-22.989-36.321-22.513c-15.919,0.453-26.761,10.245-34.814,22.942
		C104.634,56.712,102.854,72.697,102.392,88.31z M369.721,103.59c-1.143,5.031-1.898,9.526-3.218,13.854
		c-1.353,4.412-4.104,8.356-9.103,8.272c-8.85-0.14-17.683-1.101-26.911-1.749c0.402-9.07,0.756-17.137,1.129-25.614
		c5.068,0.75,10.753-1.623,10.416,6.234c-0.03,0.732,1.727,2.057,2.799,2.233c4.406,0.742,8.865,1.147,13.859,1.735
		c0-11.005,0.068-21.077-0.099-31.15c-0.019-1.174-1.18-3.17-2.112-3.366c-4.532-0.952-9.163-1.418-13.673-2.043
		c-0.545,2.938-0.908,4.901-1.558,8.422c-3.79-1.917-8.934-3.049-9.218-4.924c-1.017-6.761-0.4-13.766-0.4-21.375
		c7.647,1.86,14.031,3.889,20.577,4.892c9.145,1.399,13.15,6.589,13.654,15.435c0.092,1.582,1.264,4.118,2.42,4.435
		c4.099,1.105,8.407,1.436,13.807,2.239c-2.331-11.239-4.309-21.292-6.612-31.267c-0.297-1.295-2.098-2.765-3.502-3.203
		c-16.377-5.087-32.748-10.216-49.265-14.829c-6.831-1.912-13.999-2.602-21.763-3.982c0,5.377,0.261,9.55-0.079,13.682
		c-0.327,3.991,0.563,6.407,4.9,7.47c1.576,0.392,3.735,2.895,3.754,4.462c0.275,19.636,0.266,39.276,0.19,58.917
		c-0.021,5.848,0.648,12.46-9.088,11.714c0,6.071-0.237,11.592,0.173,17.072c0.098,1.31,2.317,3.52,3.586,3.539
		c21.921,0.298,43.856,0.177,65.781,0.508c6.053,0.089,8.86-1.828,9.542-8.118c1.133-10.506,3.063-20.928,4.719-31.789
		C378.654,104.63,374.191,104.107,369.721,103.59z M228.057,42.537c1.277-1.744,3.081-3.078,3.139-4.477
		c0.209-5.325-0.006-10.688-0.407-16.003c-0.079-1.073-1.654-2.891-2.569-2.905c-11.891-0.2-23.781-0.131-36.077-0.131
		c0,5.657,0.075,10.395-0.023,15.132c-0.089,4.332,1.203,6.919,6.239,6.406c2.751-0.279,4.7,0.593,5.773,4.029
		c9.941,31.835,20.32,63.534,30.164,95.397c1.801,5.819,6.03,4.84,9.867,5.409c3.731,0.55,4.557-2.317,5.564-5.204
		c9.744-27.871,19.645-55.691,29.404-83.562c2.07-5.904,3.068-12.726,12.688-9.485c0-6.977,0.127-13.043-0.121-19.09
		c-0.042-1.027-1.585-2.733-2.593-2.859c-10.146-1.264-20.325-2.262-30.972-3.38c0,7.675,0,14.371,0,20.974
		c2.304,0.457,4.118,0.812,6.715,1.319c-6.631,17.552-13.108,34.689-19.58,51.821c-0.61-0.07-1.227-0.14-1.837-0.205
		C238.306,77.995,233.18,60.266,228.057,42.537z M14.139,145.319c2.63,0.154,4.299,0.374,5.959,0.336
		c19.636-0.475,39.272-0.867,58.899-1.529c13.308-0.458,13.35-0.625,15.271-13.952c0.849-5.856,1.511-11.737,2.187-17.616
		c0.443-3.88,0.756-7.774,1.18-12.176c-3.287,0.42-5.735,1.063-8.156,0.979c-6.933-0.238-9.955,2.393-9.75,9.816
		c0.159,5.586-2.005,12.067-8.034,13.271c-8.915,1.776-18.219,1.613-27.633,2.293c0-22.28-0.084-43.021,0.158-63.762
		c0.019-1.576,2.196-3.273,3.624-4.653c1.534-1.493,4.635-2.5,4.835-4.021c0.638-4.747,0.238-9.633,0.238-14.902
		c-14.512,1.547-26.197,7.292-38.121,12.259c-0.76,0.313-1.412,1.814-1.445,2.779c-0.149,4.51-0.065,9.027-0.065,14.115
		c3.446-0.882,6.132-1.567,9.476-2.425c0,19.305-0.028,38.153,0.023,57.001c0.009,3.171-1.077,4.738-4.453,5.354
		c-1.595,0.298-3.782,2.527-4.006,4.117C13.756,136.669,14.139,140.871,14.139,145.319z"/>
	<path fill-rule="evenodd" clip-rule="evenodd" d="M38.363,351.339c0.191,6.994,2.369,13.503-2.606,19.024
		c-0.229,0.257-0.061,0.952,0.042,1.413c1.464,6.427,1.03,7.186-5.418,6.935c-5.899-0.232-11.77-1.082-17.663-1.456
		c-3.409-0.218-4.804-2.102-4.71-5.157c0.145-4.942-0.564-10.286,1.068-14.727c3.315-9.013,1.921-18.319,3.353-27.381
		c0.694-4.434,3.548-9.232,2.518-13.089c-2.322-8.683,1.431-16.806,0.606-25.189c-0.126-1.288,0.187-2.616,0.303-4.042
		c3.31,0.312,6.421,0.604,9.532,0.903c0.134-0.429,0.274-0.857,0.41-1.286c-1.581-0.691-3.129-1.47-4.748-2.053
		c-5.535-2-6.705-4.229-4.033-9.476c2.005-3.936,2.397-7.172,0.918-11.722c-2.159-6.636-0.494-13.538,3.372-19.665
		c0.788-1.254,1.455-2.85,1.464-4.294c0.047-5.974-0.657-11.989-0.149-17.911c0.392-4.588,3.087-5.396,6.677-2.396
		c1.81,1.511,3.04,3.255,5.549,1.272c0.419-0.331,1.501-0.009,2.206,0.219c6.626,2.173,13.303,4.23,19.818,6.711
		c1.711,0.647,3.492,2.406,4.224,4.1c1.66,3.822,2.686,7.917,4.085,12.263c-3.013,1.595-5.778,3.06-8.538,4.528
		c0.083,0.299,0.167,0.597,0.251,0.895c2.429-0.535,4.863-1.076,8.836-1.958c0.667,6.873,1.315,13.499,1.949,20.12
		c0.103,1.046-0.298,2.594,0.252,3.074c5.838,5.049,3.646,11.899,5.022,18.512c-2.938-0.335-5.106-0.583-7.502-0.853
		c0.368,0.648,0.489,1.184,0.731,1.245c13.737,3.474,11.34,15.103,12.749,24.914c1.194,8.31,2.583,16.601,4.234,24.831
		c2.135,10.655,4.887,21.193,6.835,31.882c1.031,5.632-1.403,6.942-6.85,5.861c-4.308-0.854-8.873-0.448-13.327-0.55
		c-7.023-0.174-9.014-2.701-9.834-9.845c-0.62-5.432-2.22-10.851-4.183-15.97c-0.629-1.642-3.963-3.424-5.81-3.186
		C45.963,348.363,42.094,350.14,38.363,351.339z M46.337,289.874c-0.434,0.08-0.863,0.163-1.292,0.243
		c-0.834,10.888-1.664,21.776-2.541,33.229c3.189,0.467,6.239,0.904,10.417,1.515C50.581,312.416,48.458,301.145,46.337,289.874z"/>
	<path fill-rule="evenodd" clip-rule="evenodd" d="M246.67,271.992c-0.931-7.563-1.8-14.614-2.861-23.26
		c3.143,2.267,4.731,3.413,7.582,5.47c-1.76-3.721-2.919-6.183-4.038-8.562c0.392-0.461,0.694-1.026,0.87-0.988
		c10.434,2.178,19.675-6.426,30.283-3.325c1.809,0.532,4.239-0.065,6.094-0.834c8.745-3.624,17.254-3.06,24.044,3.376
		c7.125,6.757,5.908,15.979,4.594,24.789c-0.183,1.217-0.858,2.489-0.646,3.613c2.854,14.856,0.421,27.955-12.607,38.13
		c12.944,9.723,19.142,21.776,12.771,37.137c1.315,1.66,2.976,2.802,3.129,4.118c0.547,4.728,0.849,9.517,0.756,14.273
		c-0.225,11.061-4.449,14.082-15.327,11.619c-2.646-0.601-5.484-0.844-8.171-0.596c-4.107,0.372-6.207-1.045-6.262-5.242
		c-0.009-0.568-0.211-1.133-0.205-1.701c0.093-8.24,0.098-16.479,0.41-24.709c0.056-1.429,1.449-2.799,2.206-4.16
		c-0.891-2.322-2.299-5.041-2.952-7.928c-1.035-4.593-2.873-8.318-7.727-9.68c-4.672-1.311-7.014,0.182-7.13,5.059
		c-0.2,8.39,0.028,16.787,0.028,25.176c0,5.147,0.074,10.3-0.178,15.435c-0.434,8.776-4.364,11.443-12.898,9.252
		c-1.701-0.438-3.619-0.456-5.377-0.224c-6.462,0.849-8.38-0.589-9.209-7.336c-0.652-5.302-0.434-10.281,4.373-13.961
		c1.176-0.899,1.797-2.522,1.824-4.452c-1.753,1.221-3.506,2.447-6.141,4.289c-0.457-3.753-1.684-6.888-1.012-9.546
		c2.354-9.339,0.592-18.688,0.933-28.01c0.131-3.548,1.413-7.05,2.447-11.868C243.78,296.286,242.204,283.761,246.67,271.992z
		 M276.852,300.059c1.063-0.019,2.125-0.037,3.188-0.051c1.974-3.884,5.093-7.61,5.667-11.691c0.951-6.724,0.596-13.704,0.06-20.517
		c-0.172-2.206-2.979-6.16-4-5.982c-3.702,0.643-9.555-0.704-9.182,6.341c0.4,7.605,0.283,15.254,0.988,22.826
		C273.861,294.085,275.708,297.037,276.852,300.059z"/>
	<path fill-rule="evenodd" clip-rule="evenodd" d="M193.214,249.185c5.353-4.505,12.092-5.157,15.225-1.726
		c4.449,4.873,4.206,10.036-1.398,15.571c2.149-0.57,3.534-0.938,6.43-1.708c1.277,7.359,2.48,14.526,3.791,21.674
		c0.388,2.126,1.054,4.202,1.637,6.286c1.087,3.885,3.834,8.197-2.82,9.928c8.427,7.061,10.431,16.521,10.846,26.673
		c0.079,1.935,0.709,3.843,1.012,5.772c0.876,5.602,1.638,11.225,2.616,16.807c0.326,1.873,1.301,3.628,1.777,5.488
		c1.967,7.693,3.854,15.406,5.772,23.114c-11.868,2.704-19.701,1.669-21.104-2.388c-2.42,0.896-5.405,3.082-7.098,2.336
		c-1.754-0.779-2.49-4.317-3.255-6.779c-1.362-4.37-1.963-9.028-3.768-13.183c-0.951-2.201-3.764-3.595-5.735-5.354
		c-2.677,3.027-9.714-0.392-9.723,6.575c0,0.19-0.004,0.388-0.046,0.569c-1.539,6.37-3.087,12.738-4.631,19.104
		c-9.797,0.195-19.654,2.728-29.713-0.43c0.406-1.628,0.728-2.891,1.031-4.16c1.459-6.048,4.234-11.446,4.178-18.282
		c-0.065-7.998,2.859-16.233,5.661-23.936c0.942-2.598,5.475-3.89,9.065-6.235c-2.7,0.196-4.785,0.346-7.741,0.556
		c0.121-2.049-0.107-3.899,0.377-5.54c6.468-21.856,9.35-44.573,16.008-66.384C183.906,246.005,186.546,244.904,193.214,249.185z
		 M195.905,308.154c-0.416,0.073-0.826,0.148-1.241,0.223c-1.008,5.615-1.954,11.238-3.045,16.834
		c-1.609,8.239-0.163,9.63,8.43,7.35C198.675,324.451,197.29,316.305,195.905,308.154z"/>
	<path fill-rule="evenodd" clip-rule="evenodd" d="M122.503,343.771c-3.087-1.483-5.064-2.43-7.042-3.377
		c12.227,7.214,6.576,18.727,6.44,28.459c-0.033,2.341,3.88,8.397-3.19,8.852c-3.572,0.224-7.171,0.036-11.373,0.036
		c0.732-1.604,1.296-2.848,2.093-4.603c-1.272,0.392-2.999,0.654-3.012,0.976c-0.135,4.033-2.667,4.01-5.577,3.566
		c-3.101-0.467-5.615-1.608-5.563-5.274c0.163-11.386,0.485-22.773,0.555-34.161c0.019-3.161-0.895-6.338-0.815-9.494
		c0.037-1.571,1.356-3.109,1.827-4.094c-0.848-2.625-2.723-5.521-2.49-8.239c0.75-8.813,0.728-17.557-0.107-26.338
		c-0.14-1.482,0.145-3.008,0.285-5.334c2.69,0.783,5.031,1.459,7.372,2.135c0.145-0.227,0.293-0.456,0.438-0.688
		c-1.25-1.017-2.364-2.304-3.772-2.995c-4.02-1.977-5.05-5.306-5.059-9.437c-0.014-9.662-0.196-19.33-0.313-28.996
		c-0.084-6.499,1.53-7.643,7.801-5.727c1.022,0.313,2.234,0.033,3.353-0.046c7.517-0.526,14.6,0.35,21.562,3.903
		c4.37,2.229,9.746,2.383,14.535,3.897c10.268,3.26,21.17,12.045,20.975,24.104c-0.038,2.281,0.475,4.561,0.56,6.846
		c0.223,6.253,0.312,12.491-8.515,16.073c3.423,0,4.844,0,6.216,0c4.542,16.718-1.235,28.982-12.082,27.056
		c-6.524,8.79-16.586,4.78-25.101,7.503C122.503,333.114,122.503,337.975,122.503,343.771z M121.249,261.972
		c-0.172,2.601-0.313,4.094-0.368,5.586c-0.335,8.85-0.602,17.705-0.984,26.556c-0.261,5.94,2.77,9.983,7.419,9.667
		c5.026-0.341,8.263-4.705,8.44-11.705c0.159-6.444-0.224-12.921,0.293-19.328c0.392-4.901-1.436-7.614-5.935-8.799
		C127.4,263.234,124.635,262.717,121.249,261.972z"/>
	<path fill-rule="evenodd" clip-rule="evenodd" d="M341.839,251.693c-7.978,1.777-14.007,3.115-20.409,4.542
		c-0.332-6.767-0.979-12.954-0.83-19.119c0.106-4.43,2.563-6.263,7.418-4.928c2.006,0.545,4.607-0.821,6.874-1.531
		c8.836-2.745,17.523-6.136,26.528-8.042c2.709-0.574,6.271,2.904,10.464,3.59c-2.154-1.185-4.309-2.363-6.464-3.549
		c0.279-0.779,0.561-1.563,0.841-2.341c7.675-2.374,15.351-4.747,24.322-7.521c0.331,8.837,1.24,16.61,0.467,24.215
		c-0.191,1.848-5.871,4.249-9.146,4.439c-8.276,0.495-12.156,3.018-12.445,11.146c-0.373,10.449,0.047,20.933,0.028,31.396
		c-0.006,1.8-0.485,3.601-0.802,5.773c-2.183-0.63-3.769-1.087-5.35-1.543c12.25,9.35,4.971,21.161,4.771,32.034
		c0.64,2.178,1.898,4.38,1.814,6.524c-0.439,11.121-1.371,22.22-1.768,33.336c-0.098,2.672,1.865,5.441,1.669,8.076
		c-0.247,3.302-0.801,8.264-2.895,9.383c-3.796,2.023-8.908,1.991-11.379-3.909c-1.221,1.34-2.004,2.999-2.994,3.135
		c-3.045,0.405-6.331,0.816-9.181,0.009c-1.277-0.362-2.396-3.604-2.448-5.567c-0.309-11.984-0.288-23.974-0.368-35.957
		c-0.019-2.63-0.005-5.255-0.005-9.736c4.168,3.581,7.25,6.23,10.333,8.878c0.322-0.358,0.64-0.722,0.961-1.086
		c-1.437-1.133-2.878-2.267-4.318-3.399c0.074-0.471,0.149-0.941,0.224-1.408c3.722,0,7.438,0,11.158,0
		c-0.013-0.466-0.026-0.928-0.042-1.395c-4.14,0-8.275,0.066-12.411-0.019c-4.109-0.08-7.117-4.946-5.303-8.649
		c0.634-1.301,1.781-2.355,2.393-3.139c-7.741-17.977-0.178-31.279,12.963-43.086c-0.573-0.258-1.144-0.509-1.716-0.76
		c-3.955,4.253-7.909,8.509-12.955,13.941C341.839,273.781,341.839,263.897,341.839,251.693z"/>
	<path fill-rule="evenodd" clip-rule="evenodd" d="M299.811,223.165c-6.462,3.753-8.724,2.714-9.801-4.351
		c-0.56-3.66-1.334-7.288-2.01-10.931c-0.835,0.107-1.665,0.215-2.5,0.316c0,5.625,0,11.243,0,17.795
		c-2.256,0.35-5.082,0.783-8.337,1.288c0-15.58,0-30.45,0-45.712c0.746-0.117,2.206-0.396,3.675-0.564
		c12.146-1.385,17.407,5.037,13.751,16.769C292.872,203.291,296.137,219.174,299.811,223.165z M284.195,201.337
		c5.218-2.211,4.812-5.819,4.19-9.078c-0.274-1.438-2.042-2.585-3.128-3.857c-0.354,0.298-0.709,0.598-1.063,0.896
		C284.195,193.014,284.195,196.734,284.195,201.337z"/>
	<path fill-rule="evenodd" clip-rule="evenodd" d="M263.542,228.732c-3.269,0.253-7.11,0.541-10.226,0.779c0-3.969,0-7.372,0-10.782
		c-1.837,0.15-5.261,0.249-5.27,0.458c-0.103,3.119,0.247,6.258,0.579,10.52c-2.16,0.43-5.476,1.096-9.332,1.87
		c3.88-16.861,8.15-32.712,5.955-50.142c2.862-0.163,5.735-0.331,7.358-0.424C256.3,197.126,259.798,212.402,263.542,228.732z
		 M254.425,211.152c-1.271-4.662-2.34-8.594-3.412-12.52c-0.4,0.084-0.808,0.173-1.208,0.261c-0.56,4.183-1.115,8.361-1.74,13.048
		C250.588,211.628,252.047,211.446,254.425,211.152z"/>
	<path fill-rule="evenodd" clip-rule="evenodd" d="M208.178,180.274c4.374,0,9.121-0.205,13.826,0.149
		c1.133,0.083,2.816,1.884,3.045,3.115c0.476,2.561,0.145,5.27,0.145,7.424c-3.139-0.97-6.248-1.94-9.363-2.905
		c-0.355,3.661-1.493,7.484-0.77,10.916c0.438,2.084,3.749,3.563,6.233,4.999c0.999,2.598,1.982,5.539-3.128,5.819
		c-1.287,0.07-2.616,2.34-3.586,3.823c-0.42,0.645,0.009,1.852,0.074,2.799c0.69,10.557,1.981,11.215,11.686,5.297
		c0,3.566,0,6.817,0,10.818c-6.51,0-13.037,0-19.506,0C211.47,215.518,209.101,198.353,208.178,180.274z"/>
	<path fill-rule="evenodd" clip-rule="evenodd" d="M38.638,199.328c0.774-6.072,1.553-12.135,2.397-18.747
		c1.949,0.094,4.719,0.224,6.911,0.332c-2.001,9.862-3.978,19.612-6.31,31.121c-3.315-2.849-6.804-4.761-8.617-7.708
		c-2.019-3.278-2.513-7.493-4.146-12.861c-1.986,4.98-3.45,8.665-4.919,12.344c-7.68-0.066-9.606-1.66-10.366-8.594
		c-0.271-2.463-0.382-4.943-0.83-7.367c-0.416-2.221-1.18-4.375-1.898-6.935c2.565,0,4.952,0,6.66,0
		c0.503,5.171,1.007,10.319,1.511,15.467c0.573,0.112,1.151,0.224,1.729,0.332c1.986-4.935,3.973-9.868,6.067-15.058
		c3.543-1.119,5.395-0.223,5.992,4.351c0.602,4.57,2.57,8.958,3.941,13.43C37.384,199.397,38.013,199.359,38.638,199.328z"/>
	<path fill-rule="evenodd" clip-rule="evenodd" d="M191.573,192.184c-2.057-1.763-3.703-3.171-6.099-5.223
		c0,15.653,0,30.227,0,45.739c-1.735,0.131-4.748,0.359-7.065,0.531c0-15.635,0-30.416,0-45.198
		c-0.508-0.467-1.017-0.934-1.525-1.398c-0.975,2.028-1.944,4.052-3.12,6.5c-3.991-8.547-2.355-11.602,5.354-12.17
		c1.521-0.112,3.044-0.196,4.569-0.214C192.939,180.638,194.03,182.121,191.573,192.184z"/>
	<path fill-rule="evenodd" clip-rule="evenodd" d="M342.655,179.709c0.522,10.358-3.697,19.841,2.438,28.566
		c6.24-8.5,3.959-17.658,2.126-27.386c2.724-0.262,5.401-0.522,8.096-0.783c0,5.371,0.126,10.048-0.037,14.717
		c-0.14,3.973-0.209,8.021-1.049,11.871c-1.151,5.316-5.009,7.232-10.319,6.733c-5.279-0.489-7.116-3.884-7.4-8.523
		c-0.177-2.844,0.247-5.735-0.015-8.566c-0.456-4.961-1.23-9.89-1.981-15.705C336.281,180.433,339.261,180.097,342.655,179.709z"/>
	<path fill-rule="evenodd" clip-rule="evenodd" d="M134.595,219.616c0,2.938,0,5.181,0,8.445c-5.428-0.504-10.674-0.812-15.827-1.66
		c-0.755-0.122-1.799-2.976-1.506-4.295c2.993-13.383,2.14-26.789,0.956-40.974c2.01-0.131,4.341-0.28,7.544-0.485
		c-0.289,3.399-0.625,6.314-0.774,9.243c-0.419,8.379-0.783,16.763-1.137,25.143c-0.308,7.341,0.718,8.026,7.852,5.372
		C132.384,220.152,133.112,220.018,134.595,219.616z"/>
	<path fill-rule="evenodd" clip-rule="evenodd" d="M102.596,215.382c-0.242,2.817-0.438,5.125-0.723,8.44
		c-6.131-0.955-11.765-1.832-16.423-2.555c0-13.748,0-26.464,0-40.033c2.149,0,5.078,0,6.835,0
		c-0.153,10.875-0.419,21.562-0.275,32.245c0.019,1.161,2.317,3.026,3.768,3.259C97.645,217.042,99.724,216.03,102.596,215.382z"/>
	<path fill-rule="evenodd" clip-rule="evenodd" d="M385.015,188.062c-1.353-1.549-2.374-3.307-3.902-4.229
		c-0.854-0.513-2.547,0.369-3.861,0.62c0.302,1.273,0.191,3.041,0.993,3.702c1.25,1.03,3.17,1.203,4.714,1.936
		c5.102,2.42,6.229,7.597,1.707,10.827c-3.199,2.28-7.578,3.842-11.485,3.974c-5.265,0.177-2.746-4.412-3.375-7.765
		c2.284,0.989,3.981,2.28,5.679,2.285c1.493,0.004,2.988-1.436,4.48-2.238c-0.769-1.286-1.379-2.719-2.368-3.805
		c-0.563-0.616-1.726-0.761-2.647-0.947c-4.575-0.928-5.979-3.791-4.678-8.002c1.259-4.089,6.719-6.611,11.396-5.199
		c3.949,1.198,6.267,3.618,4.397,8.123C386.003,187.493,385.762,187.563,385.015,188.062z"/>
	<path fill-rule="evenodd" clip-rule="evenodd" d="M67.638,217.141c-1.534-0.5-4.108-1.344-5.354-1.753c0-11.588,0-22.141,0-33.277
		c3.11-0.27,5.801-0.503,7.377-0.643C68.98,193.442,68.328,204.923,67.638,217.141z"/>
	<path fill-rule="evenodd" clip-rule="evenodd" fill="#FFFFFF" d="M102.392,88.31c0.462-15.612,2.243-31.597,11.117-45.587
		c8.053-12.697,18.895-22.489,34.814-22.942c16.638-0.476,29.289,7.746,36.321,22.513c13.332,27.988,13.649,57.496-1.818,83.692
		c-19.762,33.471-54.045,24.528-70.701,1.026C104.019,115.583,102.438,102.396,102.392,88.31z M170.743,83.236
		c-0.5-0.131-0.998-0.257-1.497-0.382c-0.191-10.968-1.156-21.828-6.892-31.518c-6.636-11.219-18.629-12.026-26.995-2.01
		c-1.217,1.459-2.43,3.021-3.194,4.737c-8.664,19.314-8.883,38.853-0.476,58.205c2.943,6.766,8.361,11.429,16.456,11.368
		c8.058-0.064,12.973-5.185,15.271-11.857C166.602,102.522,168.369,92.776,170.743,83.236z M187.385,107.521
		c-0.542-0.252-1.078-0.504-1.618-0.755c-0.625,1.734-1.204,3.488-1.893,5.195c-6.496,16.087-24.173,26.164-38.913,21.907
		c-15.794-4.556-27.969-13.635-34.801-29.037c-0.611-1.375-1.375-2.681-2.066-4.015c2.098,11.774,6.389,22.588,15.183,30.716
		c10.66,9.844,23.021,15.243,37.677,9.657C176.586,135.238,183.048,122.098,187.385,107.521z"/>
	<path fill-rule="evenodd" clip-rule="evenodd" fill="#FFFFFF" d="M369.721,103.59c4.471,0.517,8.934,1.04,14.707,1.706
		c-1.656,10.86-3.586,21.283-4.719,31.789c-0.682,6.291-3.489,8.207-9.542,8.118c-21.925-0.331-43.86-0.21-65.781-0.508
		c-1.269-0.019-3.488-2.229-3.586-3.539c-0.41-5.479-0.173-11.001-0.173-17.072c9.736,0.746,9.066-5.866,9.088-11.714
		c0.075-19.641,0.085-39.282-0.19-58.917c-0.019-1.567-2.178-4.071-3.754-4.462c-4.337-1.063-5.228-3.479-4.9-7.47
		c0.34-4.131,0.079-8.305,0.079-13.682c7.764,1.38,14.932,2.07,21.763,3.982c16.517,4.612,32.888,9.742,49.265,14.829
		c1.404,0.438,3.205,1.908,3.502,3.203c2.304,9.975,4.281,20.028,6.612,31.267c-5.399-0.803-9.708-1.133-13.807-2.239
		c-1.156-0.317-2.328-2.853-2.42-4.435c-0.504-8.845-4.51-14.035-13.654-15.435c-6.546-1.002-12.93-3.031-20.577-4.892
		c0,7.61-0.616,14.614,0.4,21.375c0.284,1.875,5.428,3.008,9.218,4.924c0.649-3.521,1.013-5.483,1.558-8.422
		c4.51,0.625,9.141,1.091,13.673,2.043c0.933,0.196,2.094,2.191,2.112,3.366c0.167,10.073,0.099,20.145,0.099,31.15
		c-4.994-0.588-9.453-0.993-13.859-1.735c-1.072-0.177-2.829-1.501-2.799-2.233c0.337-7.857-5.348-5.484-10.416-6.234
		c-0.373,8.478-0.727,16.544-1.129,25.614c9.229,0.648,18.062,1.608,26.911,1.749c4.999,0.084,7.75-3.861,9.103-8.272
		C367.822,113.117,368.578,108.622,369.721,103.59z M313.143,125.287c-1.65,1.157-4.504,2.131-5.419,4.039
		c-1.291,2.69-1.589,6.099-1.397,9.148c0.065,1.087,2.797,2.891,4.299,2.882c19.459-0.149,38.913-0.518,58.367-1.012
		c1.608-0.042,4.233-1.087,4.603-2.238c1.979-6.165,3.391-12.511,4.864-18.289c-5.004,4.761-9.032,11.401-14.746,13.518
		C345.785,139.985,328.63,136.879,313.143,125.287z M344.297,103.669c3.884,0.284,7.601,1.501,10.348,0.363
		c1.422-0.587,1.119-5.339,1.622-8.355C352.056,98.493,348.727,100.713,344.297,103.669z"/>
	<path fill-rule="evenodd" clip-rule="evenodd" fill="#FFFFFF" d="M228.057,42.537c5.123,17.729,10.249,35.458,15.374,53.187
		c0.61,0.065,1.227,0.135,1.837,0.205c6.472-17.132,12.949-34.269,19.58-51.821c-2.597-0.508-4.411-0.863-6.715-1.319
		c0-6.603,0-13.299,0-20.974c10.646,1.118,20.826,2.117,30.972,3.38c1.008,0.126,2.551,1.832,2.593,2.859
		c0.248,6.047,0.121,12.114,0.121,19.09c-9.619-3.241-10.617,3.581-12.688,9.485c-9.76,27.871-19.66,55.69-29.404,83.562
		c-1.008,2.886-1.833,5.754-5.564,5.204c-3.837-0.568-8.066,0.411-9.867-5.409c-9.844-31.863-20.223-63.562-30.164-95.397
		c-1.073-3.437-3.022-4.309-5.773-4.029c-5.036,0.513-6.328-2.075-6.239-6.406c0.098-4.738,0.023-9.475,0.023-15.132
		c12.296,0,24.187-0.069,36.077,0.131c0.915,0.014,2.49,1.833,2.569,2.905c0.401,5.316,0.616,10.678,0.407,16.003
		C231.138,39.459,229.334,40.792,228.057,42.537z M258.939,105.208c-0.358-0.243-0.723-0.485-1.082-0.728
		c-1.59,3.012-2.746,6.379-4.883,8.935c-2.424,2.9-5.828,7.162-8.616,7.018c-3.287-0.172-6.766-4.062-9.41-7.009
		c-1.944-2.164-2.615-5.446-3.978-8.161c-1.054-2.107-2.299-4.113-3.461-6.155c3.107,12.86,7.043,25.315,11.201,37.691
		c0.364,1.077,2.369,2.467,3.32,2.276c1.58-0.322,3.66-1.493,4.247-2.859C250.677,125.958,254.762,115.565,258.939,105.208z"/>
	<path fill-rule="evenodd" clip-rule="evenodd" fill="#FFFFFF" d="M14.139,145.319c0-4.448-0.383-8.65,0.186-12.716
		c0.224-1.59,2.411-3.819,4.006-4.117c3.376-0.616,4.462-2.183,4.453-5.354c-0.051-18.848-0.023-37.696-0.023-57.001
		c-3.344,0.858-6.029,1.543-9.476,2.425c0-5.088-0.084-9.605,0.065-14.115c0.033-0.965,0.685-2.467,1.445-2.779
		c11.924-4.966,23.609-10.711,38.121-12.259c0,5.269,0.4,10.156-0.238,14.902c-0.201,1.521-3.302,2.528-4.835,4.021
		c-1.427,1.38-3.604,3.078-3.624,4.653c-0.243,20.741-0.158,41.482-0.158,63.762c9.414-0.681,18.718-0.517,27.633-2.293
		c6.029-1.204,8.193-7.685,8.034-13.271c-0.205-7.424,2.817-10.054,9.75-9.816c2.421,0.084,4.869-0.559,8.156-0.979
		c-0.424,4.402-0.736,8.296-1.18,12.176c-0.676,5.879-1.337,11.76-2.187,17.616c-1.922,13.327-1.963,13.495-15.271,13.952
		c-19.627,0.662-39.263,1.054-58.899,1.529C18.438,145.693,16.769,145.474,14.139,145.319z M91.708,118.908
		c-0.503-0.083-1.007-0.167-1.511-0.251c-0.452,0.793-0.984,1.557-1.356,2.388c-4.523,10.021-12.124,15.136-23.246,15.658
		c-13.957,0.648-27.247-1.338-39.114-8.132c-4.36,3.702-10.562,6.062-6.468,13.406c0.354,0.116,1.077,0.573,1.786,0.554
		c21.152-0.587,42.298-1.203,63.44-1.958c0.942-0.033,2.443-1.306,2.649-2.229C89.316,131.899,90.468,125.395,91.708,118.908z"/>
	<path fill-rule="evenodd" clip-rule="evenodd" fill="#FFFFFF" d="M46.337,289.874c2.122,11.271,4.244,22.542,6.584,34.987
		c-4.178-0.61-7.228-1.048-10.417-1.515c0.877-11.453,1.707-22.342,2.541-33.229C45.474,290.037,45.903,289.954,46.337,289.874z"/>
	<path fill-rule="evenodd" clip-rule="evenodd" fill="#FFFFFF" d="M276.852,300.059c-1.144-3.021-2.99-5.974-3.279-9.074
		c-0.705-7.572-0.588-15.221-0.988-22.826c-0.373-7.045,5.479-5.698,9.182-6.341c1.021-0.178,3.828,3.776,4,5.982
		c0.536,6.813,0.892,13.793-0.06,20.517c-0.574,4.081-3.693,7.808-5.667,11.691C278.977,300.021,277.914,300.04,276.852,300.059z"/>
	<path fill-rule="evenodd" clip-rule="evenodd" fill="#FFFFFF" d="M195.905,308.154c1.385,8.15,2.77,16.297,4.144,24.406
		c-8.592,2.28-10.039,0.89-8.43-7.35c1.091-5.596,2.037-11.219,3.045-16.834C195.079,308.303,195.489,308.228,195.905,308.154z"/>
	<path fill-rule="evenodd" clip-rule="evenodd" fill="#FFFFFF" d="M121.249,261.972c3.386,0.745,6.151,1.263,8.865,1.977
		c4.5,1.185,6.327,3.897,5.935,8.799c-0.517,6.407-0.135,12.884-0.293,19.328c-0.177,7-3.414,11.364-8.44,11.705
		c-4.649,0.316-7.68-3.727-7.419-9.667c0.382-8.851,0.648-17.706,0.984-26.556C120.936,266.065,121.076,264.572,121.249,261.972z"/>
	<path fill-rule="evenodd" clip-rule="evenodd" fill="#FFFFFF" d="M284.195,201.337c0-4.603,0-8.323,0-12.04
		c0.354-0.298,0.709-0.598,1.063-0.896c1.086,1.272,2.854,2.42,3.128,3.857C289.007,195.518,289.413,199.126,284.195,201.337z"/>
	<path fill-rule="evenodd" clip-rule="evenodd" fill="#FFFFFF" d="M254.425,211.152c-2.378,0.294-3.837,0.476-6.36,0.789
		c0.625-4.687,1.181-8.865,1.74-13.048c0.4-0.088,0.808-0.177,1.208-0.261C252.085,202.559,253.153,206.49,254.425,211.152z"/>
	<path fill-rule="evenodd" clip-rule="evenodd" d="M170.743,83.236c-2.374,9.541-4.141,19.287-7.326,28.543
		c-2.299,6.673-7.214,11.793-15.271,11.857c-8.095,0.061-13.513-4.602-16.456-11.368c-8.408-19.352-8.188-38.89,0.476-58.205
		c0.765-1.716,1.977-3.278,3.194-4.737c8.366-10.017,20.358-9.209,26.995,2.01c5.735,9.689,6.7,20.55,6.892,31.518
		C169.745,82.979,170.243,83.105,170.743,83.236z M165.641,92.002c-2.461-6.915-4.005-13.686-7.176-19.584
		c-4.285-7.965-12.333-8.631-18.391-1.8c-10.319,11.639-11.56,29.573-1.516,42.602c5.652,7.33,14.861,7.05,19.38-1.003
		C161.388,106.066,163.081,98.932,165.641,92.002z"/>
	<path fill-rule="evenodd" clip-rule="evenodd" d="M187.385,107.521c-4.337,14.577-10.799,27.717-26.431,33.667
		c-14.656,5.586-27.018,0.187-37.677-9.657c-8.794-8.128-13.085-18.941-15.183-30.716c0.69,1.334,1.455,2.64,2.066,4.015
		c6.832,15.402,19.007,24.481,34.801,29.037c14.74,4.257,32.417-5.82,38.913-21.907c0.689-1.707,1.268-3.46,1.893-5.195
		C186.308,107.017,186.844,107.269,187.385,107.521z"/>
	<path fill-rule="evenodd" clip-rule="evenodd" d="M313.143,125.287c15.487,11.592,32.643,14.698,50.57,8.048
		c5.714-2.117,9.742-8.757,14.746-13.518c-1.474,5.777-2.886,12.124-4.864,18.289c-0.369,1.151-2.994,2.197-4.603,2.238
		c-19.454,0.494-38.908,0.863-58.367,1.012c-1.502,0.009-4.233-1.795-4.299-2.882c-0.191-3.049,0.106-6.458,1.397-9.148
		C308.639,127.418,311.492,126.444,313.143,125.287z"/>
	<path fill-rule="evenodd" clip-rule="evenodd" d="M344.297,103.669c4.43-2.957,7.759-5.176,11.97-7.992
		c-0.503,3.016-0.2,7.768-1.622,8.355C351.897,105.171,348.181,103.954,344.297,103.669z"/>
	<path fill-rule="evenodd" clip-rule="evenodd" d="M258.939,105.208c-4.178,10.356-8.263,20.75-12.661,31.009
		c-0.587,1.366-2.667,2.537-4.247,2.859c-0.951,0.191-2.956-1.199-3.32-2.276c-4.158-12.376-8.094-24.831-11.201-37.691
		c1.162,2.042,2.407,4.047,3.461,6.155c1.362,2.714,2.033,5.997,3.978,8.161c2.645,2.947,6.123,6.836,9.41,7.009
		c2.788,0.145,6.192-4.118,8.616-7.018c2.137-2.555,3.293-5.922,4.883-8.935C258.217,104.724,258.581,104.966,258.939,105.208z"/>
	<path fill-rule="evenodd" clip-rule="evenodd" d="M91.708,118.908c-1.241,6.487-2.392,12.992-3.819,19.436
		c-0.206,0.924-1.708,2.196-2.649,2.229c-21.142,0.755-42.289,1.371-63.44,1.958c-0.709,0.019-1.432-0.438-1.786-0.554
		c-4.094-7.344,2.108-9.704,6.468-13.406c11.867,6.794,25.157,8.78,39.114,8.132c11.122-0.522,18.722-5.637,23.246-15.658
		c0.373-0.831,0.904-1.595,1.356-2.388C90.701,118.741,91.205,118.824,91.708,118.908z"/>
	<path fill-rule="evenodd" clip-rule="evenodd" fill="#FFFFFF" d="M165.641,92.002c-2.56,6.93-4.252,14.064-7.703,20.215
		c-4.519,8.053-13.728,8.333-19.38,1.003c-10.044-13.029-8.804-30.963,1.516-42.602c6.058-6.831,14.105-6.165,18.391,1.8
		C161.636,78.316,163.179,85.087,165.641,92.002z"/>
</g>
</svg>
