<?xml version="1.0" encoding="utf-8"?>
<!-- Generator: Adobe Illustrator 16.0.0, SVG Export Plug-In . SVG Version: 6.00 Build 0)  -->
<!DOCTYPE svg PUBLIC "-//W3C//DTD SVG 1.1//EN" "http://www.w3.org/Graphics/SVG/1.1/DTD/svg11.dtd">
<svg version="1.1" id="Layer_1" xmlns="http://www.w3.org/2000/svg" xmlns:xlink="http://www.w3.org/1999/xlink" x="0px" y="0px"
	 width="400px" height="400px" viewBox="0 0 400 400" enable-background="new 0 0 400 400" xml:space="preserve">
<g>
	<path fill-rule="evenodd" clip-rule="evenodd" fill="#29324E" d="M50.383,94.011c22.696-8.43,45.368-16.922,68.094-25.272
		c29.621-10.885,59.283-21.657,88.929-32.474c0.752-0.274,1.523-0.496,2.334-0.758c1.014,1.899,0.533,3.739,0.537,5.489
		c0.045,20.994-0.078,41.99,0.145,62.982c0.039,3.547-1.229,4.917-4.285,6.03c-48.544,17.681-97.055,35.453-145.575,53.201
		c-3.861,1.413-7.729,2.809-11.947,4.34c0-20.104,0-39.7,0-59.296c2.352-0.554,1.674-2.467,1.709-3.978
		C50.403,100.856,50.371,97.433,50.383,94.011z M155.321,105.271c-2.116,3.665,5.204,8.249-2.011,11.985
		c3.188-0.362,3.957,2.39,6.961,2.866c-1.639-3.128,1.477-3.98,2.154-6.06c2.25-0.587,3.609,2.359,6.057,1.396
		c4.49-1.769,9.938-2.308,13.389-5.239c5.221-4.434,10.945-9.29,10.922-17.417c-0.029-10.161,0.096-20.323,0.184-30.485
		c0.014-1.45-0.568-3.554,1.043-4.078c4.33-1.41,3.15-4.772,3.314-7.773c0.145-2.636-1.125-2.67-3.07-1.942
		c-4.523,1.69-9.074,3.31-13.602,4.991c-4.213,1.566-1.962,5.166-2.153,7.797c-0.216,2.955,1.79,1.616,3.378,1.148
		c1.383-0.408,1.545,0.813,1.487,1.877c-0.108,1.989-0.241,3.977-0.364,5.965c-2.385,2.978-2.42,11.825-0.061,14.947
		c0,0.685,0,1.368,0.001,2.053c-2.867,3.55-1.968,7.269-0.494,11.014c-2.61,4.371-9.414,7.3-13.54,5.829
		c-0.122-3.007,2.33-6.42-1.399-8.857c0.003-0.675,0.007-1.35,0.011-2.024c1.584-1.719,2.646-10.154,1.514-12.009
		c-0.49,0.333-0.98,0.666-1.47,0.998c-0.406-1.334-0.425-2.667,0.009-3.999c3.748-3.151,1.039-7.192,1.488-10.799
		c4.139-1.325,3.045-4.79,3.239-7.778c0.157-2.406-0.761-2.956-2.927-2.124c-4.807,1.846-9.678,3.527-14.447,5.462
		c-3.256,1.32-3.521,6.666-0.592,9.308c-0.002,1.317-0.005,2.635-0.007,3.953c-2.339,0.163-3.088,1.609-2.972,3.722
		c0.138,2.51,1.472,3.932,3.959,4.275c-0.001,2.003-0.002,4.005-0.004,6.008c-1.972-0.048-3.803,0.293-3.879,2.729
		c-0.079,2.534,1.414,3.901,3.875,4.262c0.001,0.67,0.003,1.34,0.004,2.01c-1.726,0.116-2.816,0.952-2.909,2.748
		C152.305,104.033,153.309,105.125,155.321,105.271z M149.318,94.107c0.04,0,0.08,0,0.119,0c0-5.488-0.001-10.978,0.002-16.466
		c0-1.642,0.291-3.296-1.521-4.403c-4.459-2.724-8.494-6.263-14.379-2.633c-3.186,1.966-7.396,2.247-10.643,4.146
		c-6.311,3.689-11.439,9.29-12.106,16.508c-1.007,10.889-0.351,21.932-0.392,32.909c-0.005,1.478-0.199,2.993,1.366,3.999
		c4.401,2.832,8.442,6.475,14.343,2.897c2.789-1.691,6.156-2.487,9.328-3.473c2.998-0.933,4.957-2.918,7.058-5.17
		c5.435-5.83,7.96-12.36,6.881-20.338C149.021,99.471,149.318,96.769,149.318,94.107z M75.578,101.508
		c0.824-0.381,1.776-0.675,2.566-1.209c3.217-2.171,2.062-5.73,1.416-8.151c-0.742-2.783-3.304-0.292-4.936,0.181
		c-3.188,0.923-6.207,2.467-9.416,3.265c-3.709,0.923-3.689,3.423-3.799,6.416c-0.106,2.905,0.458,4.278,3.672,3.572
		c0.478-0.105,1.288,0.93,1.826,1.541c3.734,4.242,7.469,8.486,11.138,12.785c1.465,1.717,2.313,16.684,1.11,18.377
		c-0.271,0.384-0.721,0.789-1.154,0.888c-5.354,1.222-2.918,5.507-3.303,8.588c-0.229,1.828,1.137,1.57,2.359,1.12
		c4.99-1.84,9.996-3.636,14.981-5.487c4.167-1.548,2.04-5.134,2.225-7.778c0.226-3.256-2.106-1.304-3.459-1.157
		c-2.339,0.253-1.708-1.516-1.755-2.673c-0.324-8.008-0.318-15.855,4.857-22.824c2.551-3.436,4.178-7.552,6.272-11.332
		c1.203-2.172,2.016-5.392,3.86-6.21c4.332-1.922,3.119-5.231,3.358-8.348c0.171-2.23-0.692-2.6-2.638-1.844
		c-4.184,1.625-8.321,3.47-12.64,4.617c-4.595,1.221-2.436,4.686-3.009,7.255c-0.855,3.834,2.895,1.498,4.168,2.762
		c-1.115,2.099-2.11,3.997-3.129,5.884c-6.5,12.042-6.502,12.041-14.435,0.477C75.63,102.095,75.65,101.898,75.578,101.508z"/>
	<path fill-rule="evenodd" clip-rule="evenodd" fill="#26304B" d="M306.407,86.128c2.873,0.715,5.842,1.173,8.604,2.192
		c8.516,3.143,14.225,8.752,15.133,18.266c-2.535,0.392-3.096-0.618-2.543-3.041c0.469-2.062-1.146-3.308-2.879-2.992
		c-2.236,0.406-0.68,2.239-0.354,3.186c0.773,2.254,1.953,4.368,2.969,6.539c-1.84,1.495-2.533,3.325-1.641,5.619
		c0.543,1.398,1.059,2.805-0.135,4.138c-0.564,0.632-1.201,1.378-0.131,1.923c0.824,0.419,1.537-0.138,1.836-1.058
		c1.152-3.534,1.189-7.075,0.074-10.625c0.559-1.27,1.639-1.932,2.842-2.454c0.91,8.872-0.59,17.642-1.117,26.452
		c-4.994,0.168-1.037-5.192-4.787-6.428c2.25,4.453-0.504,8.404-0.357,12.803c0.125,3.748,0.297,7.567,0.539,11.314
		c0.238,3.668,0.713,7.922,6.35,7.16c0.184,1.049,0.367,2.099,0.553,3.148c-0.334,0.009-0.67,0.018-1.004,0.026
		c-1.639,0.164-3.813-0.675-3.943,2.226c-0.162,3.613,3.064,8.407,5.936,8.742c1.445,1.249,1.15,4.267,4.078,4.008
		c0.588,1.476,1.176,2.95,1.762,4.426c-7.389-1.201,0.266,3.646-1.838,4.57c-0.988,2.326-0.58,4.096,1.998,4.998
		c1.719,0.408,1.764,2.865,3.691,3.021c0.201,1.303,0.373,2.612,0.609,3.909c2.303,12.677-4.664,20.717-13.838,27.636
		c-1.699,1.283-3.494,2.439-5.244,3.652l-0.287-0.273c0.6-2.705,2.482-4.039,4.877-5.172c0.895-0.424,1.58-2.092,1.643-3.23
		c0.055-0.996-1.33-1.712-2.271-1.039c-3.771,2.691-8.496,1.98-12.564,3.725c-2.75,1.18-5.154,2.932-7.492,4.197
		c-3.922,2.121-4.334,3.822-3.674,7.432c0.234,1.277,0.361,3.734-2.098,3.617c-7.193-0.348-9.424,0.328-14.402,3.104
		c-1.807,1.006-4.465,1.283-6.299-1.117c-0.822-1.078-1.188-2.809-4.18-3.029c4.457,4.893,0.139,5.348-2.506,7.119
		c-2.844,1.904-3.133,4.346-0.039,6.662c1.352,1.012,2.91,1.455,4.32,2.201c1.869,0.99,3.979,3.229,1.313,4.949
		c-1.988,1.283-5.133,2.729-7.504,1.197c-2.043-1.32,1.611-2.883,0.889-4.715c-0.117-0.295-0.229-0.594-0.342-0.891
		c-2.439,0.586-3.545,2.674-4.846,5.092c-1.352-6.578-1.352-6.578-4.426-7.41c2.189,5.307-6.527,6.5-3.631,12.168
		c-2.992-1.168-2.199-3.73-3.313-5.256c-2.746,2.25-3.133,2.305-3.609-1.082c-0.643-4.545-3.654-5.814-7.831-7.02
		c0.939,3.291,1.447,6.348,2.391,8.818c2.11,5.529-1.42,4.615-4.084,4.238c-2.381-0.336-3.01,0.58-3.264,2.504
		c-2.158-0.027-4.316-0.023-6.475-0.096c-1.346-0.043-2.201-0.908-2.332-2.145c-0.188-1.791,1.348-1.502,2.42-1.662
		c2.207-0.326,4.787,0.551,6.287-1.996c0.117-0.061,0.248-0.104,0.346-0.188c0.059-0.051,0.063-0.164,0.092-0.25
		c-0.146,0.146-0.291,0.291-0.438,0.436c-1.584-0.088-3.168-0.174-4.752-0.262c0.148-1.947-1.094-3.295-2.055-4.764
		c1.383-0.438,3.156,0.416,5.408-2.158c-4.889,0-8.576,0.01-12.264-0.006c-1.426-0.004-2.051,0.795-2.232,2.092
		c-2.818,2.607-2.842,5.047-0.059,6.088c1.414,7.063,1.414,7.061,9.604,6.955c0.488-0.008,0.977,0.055,1.465,0.084
		c-0.002,0.568-0.004,1.135-0.008,1.703c-1.49,0.074-3.006,0.363-4.465,0.182c-3.779-0.469-8.682,2.027-11.139-1.371
		c-3.076-4.252,0.361-16.959,4.701-20.168c2.244-1.658,3.52-2.527,1.658-5.646c-1.209-2.027-0.721-5.162-0.711-7.799
		c0.016-4.408-1.707-7.359-5.705-9.611c-6.488-3.65-11.896-8.501-13.32-16.413c0.313-0.011,0.625-0.021,0.939-0.027
		c2.113,1.641,4.234,4.115,6.289-0.063c2.854,5.696,7.637,9.004,13.621,10.575c5.912,1.553,11.941,2.506,18.094,2.346
		c6.226,0,12.454,0,18.681,0c0.006-0.582,0.012-1.166,0.018-1.748c-6.234,0-12.467,0-18.7,0c-0.609-1.657,0.779-2.396,1.598-3.352
		c1.538-1.797,3.806-7.762,3.604-9.717c0.469-0.35,0.938-0.7,1.406-1.051c-0.465-0.358-0.93-0.716-1.393-1.074
		c0.002-0.549,0.002-1.098,0.004-1.646c1.369-0.279,2.928-0.046,3.885-1.438c1.502,0.008,3.006,0.016,4.51,0.023
		c0.775,0.079,1.707,0.33,1.998-0.673c0.211-0.73-0.453-1.05-1.107-1.19c-0.307-0.171-0.492-0.43-0.553-0.776
		c-0.43-0.345-0.861-0.688-1.293-1.033c-3.762-3.426-3.521-7.724-2.146-11.935c1.734-5.308,3.943-10.46,6.141-16.184
		c3.221,5.304,4.248,2.65,4.965-0.966c0.449-2.271,0.871-4.548,1.305-6.822c0.045-0.684,0.09-1.367,0.133-2.05
		c1.941-0.204,4.113-1.057,4.043,2.41c-0.129,6.359-0.059,12.723-0.063,19.085c-0.004,4.831,0,9.662,0.016,14.494
		c0.004,1.344-0.064,2.881,1.895,2.79c1.512-0.07,1.721-1.329,1.746-2.549c0.025-1.166-0.021-2.333-0.01-3.499
		c0.1-9.982,0.207-19.966,0.313-29.949c0.332,0.006,0.664,0.012,0.996,0.018c0.191,1.894,1.1,3.584,1.348,5.551
		c0.26,2.054-2.387,4.747-0.08,5.591c2.465,0.901,2.264-3.13,4.035-4.564c2.389,3.228,2.166,6.45,1.506,9.719
		c-0.141,0.699-1.049,1.553,0.396,1.739c0.547,0.07,1.404-0.204,1.689-0.618c0.635-0.918,0.998-2.023,1.488-3.092
		c7.732,8.84,8.102,12.188,2.424,22.01c-0.482,0.835-0.584,1.495,0.207,2.14c1.119,1.849,2.309,3.168,4.469,1.111
		c1.031-0.982,2.445-0.525,3.711-0.538c-0.283,1.971-0.566,3.941-0.85,5.911c-1.566,0.574-1.264,1.907-1.268,3.116
		c0.111,3.478,5.229,3.228,5.115,6.872c-0.705,0.019-1.41,0.037-2.115,0.055c-3.744-0.002-7.488-0.028-11.232,0.004
		c-1.561,0.014-3.42-0.439-3.816,1.93c-0.391,2.379,1.27,2.244,2.768,2.217c5.428-0.104,10.855-0.238,16.283-0.359
		c6.854,0.447,13.477-0.98,19.877-3.09c8.881-2.926,12.301-8.309,12.139-17.733c-0.127-7.312-2.543-14.043-5.355-20.624
		c-6.949-16.255-9.652-33.127-8.053-50.739c0.602-6.626,1.148-13.29,1.109-19.934c-0.045-7.985-5.4-13.888-13.076-15.361
		c-1.701-0.326-3.391-0.757-3.854,1.686C302.931,92.813,304.915,89.476,306.407,86.128z M231.299,242.492
		c4.68-0.197,9.357-0.393,14.037-0.59c-0.969,4.461-6.457,8.666-9.449,6.658c-3.738-2.508-4.33,0.311-6.428,2.531
		c4.209,0.342,7.738,0.863,11.258,0.793c1.357-0.027,3.32-0.408,3.676-2.664c0.387-2.441,2.623-2.541,3.671-1.314
		c2.08,2.438,8.158,0.895,6.783,6.727c-0.049,0.199,0.686,0.646,1.109,0.885c0.869,0.488,2.004,1.121,2.705,0.199
		c1.375-1.801-0.006-3.658-0.842-5c-2.771-4.447-7.623-6.516-11.724-9.438c-0.744-1.172-2.063-0.869-3.125-1.232
		c-1.242-0.424-2.721-0.711-2.582-2.5c0.131-1.715,1.432-2.006,2.844-2.164c0.709-0.078,1.596,0.178,2.189-1.006
		c-1.715-0.318-3.311-0.76-4.93-0.889c-9.457-0.762-9.459-0.738-10.756,8.541c-0.678,0.438-1.631,1.109-0.658,1.752
		C230.078,244.439,230.746,243.285,231.299,242.492z M282.823,227.096c-0.012-5.473-3.678-9.6-8.559-9.64
		c-4.785-0.039-8.924,4.159-8.828,8.952c0.092,4.604,4.086,8.605,8.637,8.654C278.427,235.107,282.831,231.096,282.823,227.096z
		 M263.948,243.979c-0.393-2.262-3.777-2.924-2.043-4.975c1.426-1.686,3.365,0.303,5.066,0.537c0.93,0.129,1.611,1.557,2.566,2.133
		c1.846,1.113,3.549,0.619,4.807-1.047c1.639-2.17-0.617-3.182-1.727-3.797c-1.967-1.094-4.297-2.088-6.48-2.102
		c-3.037-0.018-7.959,2.451-2.551-3.547c1.193-1.322,0.051-3.063-1.07-4.336c-1.947,2.191-5.035-0.219-7.107,1.826
		c-1.729,1.707-3.225,10.971-1.777,13.705c1.773,3.348,4.518,1.447,7.004,1.078C261.536,243.32,262.517,243.732,263.948,243.979z
		 M264.817,183.209c-0.814,3.29-5.484,3.869-4.852,8.252c0.631,4.366,3.297,5.9,8.164,7.108
		C265.353,193.239,266.767,188.114,264.817,183.209z M279.573,199.122c7.549-0.076,9.781-4.131,7.439-13.167
		C285.776,191.367,284.724,195.885,279.573,199.122z M308.294,91.209c3.902,1.74,7.219,3.224,10.541,4.697
		c0.832,0.37,1.693,0.328,2.154-0.49c0.43-0.764,0.275-1.765-0.479-2.21C316.933,91.09,313.306,89.007,308.294,91.209z
		 M341.39,204.926c-0.154-2.266,0.348-4.086-1.416-5.101c-0.48-0.278-1.479-0.384-1.803-0.088c-1.406,1.281-0.557,3.077-0.83,4.636
		c-0.217,1.239,2.109,1.881,0.602,3.42c-0.727,0.741-0.027,1.64,0.766,1.919c1.422,0.5,1.537-0.756,1.811-1.65
		C340.897,206.822,341.214,205.564,341.39,204.926z M291.399,232.752c3.064-5.58-3.949-4.635-4.012-8.629
		C281.862,231.275,291.204,229.346,291.399,232.752z M220.434,222.293c-0.063,2.76,2.213,2.846,3.99,3.461
		c1.295,0.447,1.865-0.283,1.824-1.447c-0.08-2.281-1.412-3.598-3.596-3.924C221.344,220.188,220.455,220.83,220.434,222.293z
		 M273.433,215.063c-3.934-1.604-5.77-0.623-6.834,3.181C268.956,217.146,270.763,216.305,273.433,215.063z M227.924,222.697
		c4.297,2.523,4.297,2.523,7.203,1.217C232.926,223.268,231.131,222.34,227.924,222.697z M284.228,231.863
		c0.018,2.061-1.395,3.939-1.137,6.514C286.181,236.225,285.382,234.023,284.228,231.863z M337.011,211.453
		c-0.988,0.021-1.547,0.533-1.432,1.509c0.119,1.005,0.926,1.247,1.801,1.228c0.887-0.019,1.703-0.298,1.459-1.386
		C338.646,211.945,337.901,211.521,337.011,211.453z M216.498,217.627c-0.314,0.285-0.828,0.524-0.922,0.876
		c-0.305,1.131,0.322,1.927,1.303,2.345c0.236,0.1,1.016-0.357,1.043-0.612C218.035,219.177,217.428,218.385,216.498,217.627z
		 M250.345,234.852c-0.891,0.096-0.916,0.781-0.92,1.418c-0.004,0.641,0.02,1.414,0.893,1.42c0.865,0.008,0.918-0.758,0.918-1.398
		C251.237,235.652,251.208,234.971,250.345,234.852z M239.816,245.275c-0.113-0.881-0.793-0.914-1.438-0.91
		c-0.639,0.004-1.41,0.035-1.414,0.904c-0.006,0.879,0.773,0.904,1.41,0.908C239.02,246.182,239.691,246.135,239.816,245.275z
		 M247.234,224.02c-0.758,0.572-1.094,0.826-1.43,1.078c0.246,0.324,0.434,0.834,0.748,0.928c0.609,0.186,1.305,0.053,1.266-0.807
		C247.799,224.826,247.453,224.447,247.234,224.02z M214.598,215.17c-0.574-0.761-0.826-1.096-1.08-1.431
		c-0.322,0.245-0.832,0.434-0.928,0.748c-0.184,0.609-0.053,1.305,0.807,1.266C213.791,215.734,214.17,215.389,214.598,215.17z
		 M232.223,244.541c-0.371,0.262-0.908,0.445-1.068,0.801c-0.297,0.648,0.275,0.912,0.768,0.775
		c0.373-0.104,0.668-0.537,0.939-0.871C232.889,245.215,232.504,244.848,232.223,244.541z M323.954,98.005
		c-0.275-0.12-0.613-0.395-0.809-0.316c-0.199,0.079-0.26,0.507-0.379,0.782c0.273,0.12,0.609,0.396,0.805,0.317
		C323.771,98.708,323.833,98.282,323.954,98.005z M326.954,125.005c-0.275-0.12-0.611-0.394-0.809-0.316
		c-0.199,0.079-0.26,0.507-0.379,0.782c0.273,0.12,0.609,0.395,0.805,0.316C326.771,125.708,326.833,125.282,326.954,125.005z
		 M258.065,224.701c-0.117,0.275-0.236,0.549-0.355,0.824c0.275,0.117,0.609,0.389,0.809,0.311c0.197-0.076,0.256-0.506,0.375-0.779
		C258.618,224.938,258.343,224.818,258.065,224.701z M299.915,225.002c-0.275-0.117-0.549-0.236-0.824-0.355
		c-0.117,0.275-0.389,0.609-0.311,0.809c0.076,0.197,0.506,0.256,0.779,0.373C299.679,225.555,299.798,225.279,299.915,225.002z
		 M303.962,225.551c-0.111-0.279-0.154-0.709-0.348-0.795c-0.195-0.086-0.541,0.174-0.82,0.281c0.109,0.279,0.15,0.709,0.346,0.795
		C303.333,225.92,303.681,225.66,303.962,225.551z M265.915,247c-0.275-0.117-0.549-0.236-0.824-0.355
		c-0.117,0.275-0.389,0.609-0.311,0.811c0.076,0.195,0.506,0.254,0.779,0.373C265.679,247.553,265.798,247.277,265.915,247z
		 M235.309,231.025c0.131-0.072,0.264-0.143,0.395-0.215c-0.113-0.094-0.223-0.252-0.344-0.264c-0.123-0.01-0.26,0.125-0.391,0.197
		C235.082,230.838,235.195,230.932,235.309,231.025z"/>
	<path fill-rule="evenodd" clip-rule="evenodd" fill="#27314D" d="M306.407,86.128c-1.492,3.348-3.477,6.685-0.242,10.146
		c0.01,0.675,0.021,1.351,0.031,2.025c-1.445,1.455-0.641,3.299-0.854,4.966c-1.623,5.454-7.098,1.434-10.125,3.941
		c0.418,0.715,0.715,1.284,1.068,1.816c1.086,1.639,2.623,3.155,1.6,5.394c-1.164,2.547-3.506,2.082-5.621,2.084
		c-12.285,0.015-24.57,0.028-36.854-0.017c-1.742-0.006-3.863,0.565-4.879-1.535c-1.068-2.21-0.355-4.179,1.324-5.855
		c0.836-0.833,1.799-1.66,0.486-2.865c-0.154-2.221-2.143-1.345-3.26-1.786c-1.127-0.445-2.583-0.151-2.716-1.928
		c4.151-0.175,8.304-0.351,12.456-0.525c1.168,0.051,2.979,0.942,3.006-1.018c0.023-1.494-1.631-1.7-3.018-1.413
		c-2.484-0.116-4.969-0.232-7.453-0.35c-0.029-0.372-0.057-0.745-0.086-1.117c0.574-0.45,1.146-0.901,1.719-1.352
		c-0.545-0.198-1.092-0.396-1.639-0.595c-0.008-0.295-0.012-0.59-0.012-0.885c0.273-0.102,0.553-0.176,0.84-0.222
		c2.404,0.285,4.83,0.527,7.162-0.297c2.166-0.765,1.596-1.602-0.082-2.317c0.314-1.494,2.656-0.679,2.773-2.896
		c0.24-4.582-1.137-5.324-6.895-3.16c-1.924-0.054-3.846-0.107-5.768-0.161c-0.42-0.942-1.209-0.894-2.03-0.755
		c-0.334-0.022-0.668-0.044-1.002-0.065c-0.33-0.107-0.662-0.216-0.992-0.323c-0.957-3.541,3.819-1.995,4.009-4.519
		c0.15-0.283,0.387-0.413,0.707-0.389c1.172,0.049,2.406,0.335,3.266-0.838c0.992,0.1,1.984,0.198,2.977,0.298
		c2.139,2.707,4.154,2.639,6.045-0.27c1.865-0.093,3.732-0.185,5.6-0.276c0.797,0.034,1.848,0.34,1.92-0.865
		c0.045-0.757-0.816-0.88-1.479-0.957l-0.035-0.013c0.326-0.662,0.65-1.324,0.977-1.986c-3.064-3.584-7.367-1.234-10.959-2.284
		c-2.656-2.693-5.664,0.234-8.441-0.53l-0.355,0.002l-0.229-0.271c-1.952-2.954-3.962-2.87-6.019-0.111
		c-0.992,0-1.982,0-2.975,0.001c-0.955-1.616-4.063-3.073-0.301-5.068c0.32-0.17-0.002-1.547-0.025-2.363
		c0.412-0.13,0.824-0.259,1.236-0.389c0.824-0.066,1.85-0.046,1.734-1.2c-0.053-0.526-0.67-1.264-1.178-1.421
		c-1.064-0.326-1.377,0.551-1.523,1.427c-5.529,0.373-6.242,1.242-4.813,5.873c-0.34,0.949-1.086,1.278-2.02,1.314
		c-2.475-5.275-1.586-7.687,3.586-9.146c2.355-0.664,4.814-0.961,7.229-1.424c0.432,1.596-0.123,4.291,3.098,2.78
		c3.435-0.375,6.845-0.873,10.093-2.132c2.691,0.271,5.271-0.274,7.822-1.051c4.705-1.254,9.234-2.509,14.377-1.356
		c2.615,0.586,5.834,2.455,8.752,0.176c2.639,0.438,5.275,0.875,7.914,1.313c1.924,3.122,4.014,2.608,6.184,0.282
		c3.09,0.532,6.238,0.85,9.254,1.658c3.035,0.813,4.861,3.034,4.387,6.296c-0.479,3.281-2.762,4.694-6.029,4.632
		c-2.15-0.041-4.35-0.269-6.441,0.086c-1.891,0.321-5.125-1.895-5.389,2.172c-0.189,2.928-1.195,6.336,4.051,6.321
		C305.028,80.828,306.579,83.179,306.407,86.128z M262.739,96.995c-2.373-0.632-3.76-1.324-5.178,0.322
		C259.122,98.672,260.429,98.53,262.739,96.995z"/>
	<path fill-rule="evenodd" clip-rule="evenodd" fill="#26304B" d="M203.141,322.281c0.008,6.996,0.014,13.992,0.021,20.988
		c-0.393,0.166-0.783,0.332-1.174,0.498c0.387,0.17,0.773,0.342,1.16,0.514c0.004,0.662,0.008,1.324,0.014,1.986
		c-4.702-0.025-9.491,0.551-13.831-1.988c-7.912,4.475-16.313,6.49-25.325,4.525c-18.437-4.02-27.009-21.207-25.185-37.721
		c3.326-30.096,35.469-37.189,55.711-25.105c3.115,1.859,4.356,3.527,1.168,6.578c-2.26,2.16-3.543,5.756-6.104,7.074
		c-2.605,1.34-5.117-2.104-7.887-2.996c-11.136-3.594-21.209,1.051-25.524,11.389c-1.209,2.895,0.452,5.543-0.624,8.172
		c-1.641,1.648-2.158,3.119,0.641,4.07c5.914,13.387,17.09,17.838,28.898,11.475c1.715-0.924,3.605-1.631,3.449-4.289
		c-0.172-2.912-2.01-3.037-4.131-3.006c-1.577,0.025-1.938-0.979-1.94-2.287c0-0.166,0.011-0.334-0.005-0.5
		c-1.112-10.813-1.111-10.871,9.782-10.766c3.058,0.031,6.358-0.914,9.037,1.533C202.188,315.658,199.507,319.563,203.141,322.281z"
		/>
	<path fill-rule="evenodd" clip-rule="evenodd" fill="#27314E" d="M271.378,312.277c-0.029,4.67-0.059,9.338-0.088,14.008
		c-0.125,0.096-0.373,0.232-0.355,0.279c0.086,0.248,0.236,0.473,0.365,0.705c0.002,6.002,0.004,12.004,0.006,18.008
		c-0.734,0.137-1.707,0.156-1.471,1.223c0.076,0.352,0.963,0.523,1.48,0.777c-4.805,2.441-9.9,0.641-14.848,0.918
		c-1.924,0.109-1.254-2.025-1.26-3.188c-0.041-7.49,0.023-14.98,0.055-22.469c-0.047-2.084-1.445-2.281-3.076-2.275
		c-5.636,0.023-11.272,0.021-16.909-0.006c-1.439-0.008-2.664,0.195-2.967,1.902c-0.236,1.67-0.473,3.34-0.709,5.01
		c-2.668,3.74-0.949,7.961-1.154,11.936c-0.176,3.424,0.021,6.711-3.098,9.014c-3.338,0.01-6.676,0.021-10.014,0.031
		c0.006-14.936,0.035-29.871-0.014-44.807c-0.006-1.865,0.766-4.107-1.641-5.283c-0.426-1.057-0.662-2.174-1.916-2.738
		c-1.449-0.652-4.184,1.363-4.369-1.654c-0.232-3.791,0.023-7.617,0.248-11.416c0.02-0.318,1.389-0.785,2.135-0.793
		c4.814-0.055,9.639-0.156,14.445,0.064c4.426,0.203,5.813,3.281,5.834,7.191c0.027,4.814,0.121,9.639-0.148,14.439
		c-0.221,3.932,0.855,5.752,5.207,5.307c3.943-0.404,8.02-0.502,11.935,0.023c5.213,0.701,6.891-1.418,6.332-6.211
		c0.125-0.096,0.369-0.232,0.354-0.281c-0.084-0.252-0.236-0.482-0.363-0.721c0.01-1.33,0.02-2.66,0.029-3.99
		c0.41-0.172,0.818-0.344,1.229-0.516c-0.416-0.166-0.832-0.33-1.248-0.496c-0.004-0.664-0.008-1.326-0.012-1.99
		c2.107-0.326,2.242-1.848,1.643-3.311c-0.914-2.236-0.531-4.531-0.75-6.795l-0.023,0.037c4.521-0.932,9.137-1.494,13.676-0.828
		c2.592,0.381,7.262-0.551,5.592,5.141c-0.389,1.32,0.611,2.84,1.91,3.775c-0.023,0.658-0.049,1.314-0.072,1.973
		c-2.529-0.244-6.338-1.254-6.656,1.855C270.147,301.426,269.255,306.99,271.378,312.277z"/>
	<path fill-rule="evenodd" clip-rule="evenodd" fill="#29324E" d="M304.608,296.828c-4.18-2.879-7.176-2.207-8.166,2.072
		c-0.396,1.707-1.133,2.025-2.633,2.211c-11.145,1.383-11.604,1.004-11.572-10.189c0.023-8.896,0.656-9.508,9.754-9.506
		c13.977,0.004,27.955-0.008,41.932,0.006c8.242,0.01,9.006,0.811,9.018,9.242c0,0.166-0.002,0.332-0.002,0.5
		c0.014,10.99,0.016,10.965-11.25,9.959c-1.852-0.164-3.197-0.381-3.105-2.783c0.143-3.691-2.674-2.936-4.932-3.086
		c-3.17-0.211-2.91,2.004-2.906,3.979c0.025,13.643,0.113,27.287,0.127,40.93c0.008,8.545-0.033,8.545-8.545,7.969
		c-0.17-0.85-0.523-1.834-1.455-1.719c-5.055,0.617-4.553-2.748-4.541-5.984c0.045-13.57,0.021-27.143,0.004-40.713
		c-0.002-1.316,0.332-2.969-0.318-3.865C305.196,294.715,305.05,296.377,304.608,296.828z"/>
	<path fill-rule="evenodd" clip-rule="evenodd" fill="#2A334F" d="M54.8,336.053c-0.008-0.576-0.016-1.152-0.022-1.727
		c1.833-0.098,2.476-0.779,2.216-2.842c-1.067-8.514-0.971-17.041-0.074-25.588c0.275-2.629,0.176-5.477-2.135-7.525
		c-0.391-0.883-0.771-2.527-1.172-2.531c-7.759-0.088-4.885-5.611-5.01-9.586c4.386-2.494,9.115-3.346,14.12-3.148
		c0.604,0.023,1.247-0.904,1.872-1.393c0.567,0.096,1.135,0.191,1.703,0.285c0.07,2.639,1.683,3.396,4.006,3.287
		c1.332,1.578,0.873,3.482,0.879,5.264c0.042,12.955,0.165,25.912-0.047,38.863c-0.063,3.818,0.895,5.813,4.934,5.139
		c3.352-0.561,8.664,2.361,8.582-4.695c-0.008-0.709,1.302-0.736,2.141-0.848c11.801-1.57,12.51-0.969,12.459,10.744
		c-0.031,7.148-1.502,8.625-8.781,8.59c-8.96-0.045-17.919-0.158-26.879-0.244c-5.6-1.783-7.258-6.299-8.008-11.473
		C55.552,336.402,55.072,336.242,54.8,336.053z"/>
	<path fill-rule="evenodd" clip-rule="evenodd" fill="#2A334F" d="M125.762,322.479c0.38,1.537,0.398,3.07-0.04,4.602
		c-1.711,1.373-2.188,2.758-0.031,4.16c0.137,2.711,1.514,3.832,4.215,3.355c2.742-0.484,3.282,0.922,3.369,3.412
		c0.359,10.344,0.438,10.342-9.953,10.348c-5.497,0.004-10.998-0.109-16.492,0.051c-2.512,0.074-3.744-0.535-3.476-3.285
		c0.192-1.98,0.216-4.014,0.011-5.99c-0.334-3.217,0.391-5.234,4.178-4.67c2.68,0.398,2.877-1.23,2.865-3.32
		c-0.063-10.828-0.107-21.658,0.016-32.486c0.028-2.57-0.667-3.834-3.335-3.381c-3.341,0.566-3.747-1.191-3.765-4.01
		c-0.063-9.822-0.158-9.826,9.521-9.844c5.664-0.012,11.332,0.113,16.992-0.059c2.676-0.08,3.666,0.904,3.4,3.475
		c-0.102,0.988-0.125,2.01-0.006,2.994c0.582,4.781,0.126,8.629-6.305,7.648c-0.342-0.053-0.782,0.539-1.177,0.832
		c-1.151,0.359-1.423,1.234-1.421,2.322c0.012,6.967,0.011,13.936,0.005,20.902C124.333,320.758,124.574,321.844,125.762,322.479z"
		/>
	<path fill-rule="evenodd" clip-rule="evenodd" fill="#2A334F" d="M132.242,229.73c0.729-0.002,1.457-0.004,2.186-0.004
		c1.625,1.783,3.245,5.209,4.895,0.016c1.698-0.098,4.248-1.365,4.654,1.025c0.432,2.539,1.609,5.73-0.933,7.932
		c-2.546,2.205-2.486,5.732-0.896,6.914c2.341,1.738,6.376,1.619,8.9,0.002c1.551-0.994,1.451-4.688-0.268-6.307
		c-2.629-2.477-1.167-5.281-1.479-7.91c-0.23-1.947,1.438-1.859,2.773-1.873c4.164-0.039,8.328-0.113,12.49-0.063
		c1.516,0.02,3.905-0.578,3.578,2.055c-0.293,2.359,1.988,5.715-1.605,6.961c-2.934,1.018-3.119,2.838-3.029,5.326
		c0.131,3.66-0.012,7.328,0.044,10.992c0.043,2.824-0.866,5.699,3.479,7.012c2.61,0.789,1.028,4.455,1.134,6.803
		c0.106,2.375-2.023,1.672-3.364,1.695c-4.163,0.068-8.338-0.164-12.487,0.072c-2.954,0.168-3.563-1.256-2.934-3.553
		c0.645-2.359,0.234-4.838,1.92-7.189c0.984-1.371,1.813-5.244-0.691-6.127c-2.582-0.91-6.474-1.576-8.535,0.486
		c-1.479,1.48-1.807,5.047,0.756,7.088c1.232,0.98,1.308,2.104,1.457,3.465c0.451,4.121-0.34,6.656-5.422,5.854
		c-2.926-0.461-5.993,0.061-8.977-0.15c-1.576-0.111-4.425,1.254-4.441-1.395c-0.015-2.512-2.395-6.281,2.082-7.615
		c2.26-0.672,2.027-2.346,2.033-3.971c0.02-4.994-0.023-9.988-0.029-14.98c-0.002-1.332,0.201-2.697-1.557-3.217
		c-4.955-1.461-2.447-5.502-2.506-8.355c-0.041-1.984,2.234-1.193,3.648-0.963C130.173,231.357,131.22,232.016,132.242,229.73z"/>
	<path fill-rule="evenodd" clip-rule="evenodd" fill="#27314D" d="M95.695,188.086c-4.364-0.622-4.675-3.622-4.5-7.2
		c0.1-2.04,0.552-3.059,2.768-3.045c8.653,0.055,17.313-0.183,25.957,0.102c4.564,0.149,9.39,6.213,9.412,10.946
		c0.019,4.253,0.74,8.576-4.047,11.335c-1.947,1.122,0.217,7.106,3.67,8.684c4.461,2.036,1.994,5.524,2.031,8.159
		c0.033,2.465-2.866,1.107-4.473,1.411c-4.711,0.891-7.814-0.772-9.612-5.416c-1.063-2.748-3.011-5.146-4.478-7.749
		c-0.844-1.501-1.654-3.021-3.693-2.675c-0.827,0.14-1.451,0.888-1.327,1.854c0.218,1.691-0.823,4.161,1.63,4.7
		c5.115,1.123,2.55,4.993,2.934,7.69c0.291,2.051-1.65,1.574-2.873,1.585c-4.66,0.038-9.322,0.094-13.979-0.015
		c-1.42-0.033-3.893,0.98-3.752-1.726c0.125-2.407-1.711-5.543,1.608-7.116c1.235-0.586,2.497-0.835,2.856-2.357
		c3.407-5.211,0.679-10.978,1.471-16.43C97.476,189.601,96.917,188.596,95.695,188.086z M111.57,194.872
		c3.125,0.075,5.889,0.544,6.03-3.581c0.144-4.148-2.614-3.915-5.301-3.847c-2.295,0.059-4.962-0.891-5.071,3.306
		C107.126,194.678,108.91,195.271,111.57,194.872z"/>
	<path fill-rule="evenodd" clip-rule="evenodd" fill="#27314D" d="M54.316,180.225c1.233-1.866,3.023-2.37,5.167-2.32
		c3.652,0.086,7.309,0.04,10.963,0.024c7.03-0.031,12.046,4.879,12.019,11.764c-0.018,4.154-0.065,8.311,0.019,12.464
		c0.063,3.093-1.118,6.393,3.622,7.961c2.429,0.804,0.971,4.492,0.852,6.838c-0.117,2.268-2.309,1.653-3.554,1.455
		c-3.685-0.585-7.952,2.025-11.057-1.972c-0.468-0.603-1.172,0.057-1.77,0.322c-7.935,3.525-15.267,2.286-20.915-4.007
		c-2.818-3.14-1.807-7.583-0.938-10.882c0.925-3.508,4.668-5.806,8.57-6.61c3.727-0.769,7.532-1.163,11.259-1.937
		c3.387-0.703,2.608-3.144,1.3-4.891c-1.694-2.263-8.434-0.703-10.012,2.084c-3.6-0.051-7.199-0.102-10.799-0.152
		c0.047-1.349,0.093-2.697,0.139-4.046c1.389-0.743,2.202-1.808,1.94-3.474c0.317-0.235,0.636-0.471,0.954-0.707
		C53.427,182.209,54.208,181.611,54.316,180.225z M65.513,209.176c2.107-0.213,4.658,0.633,5.429-2.265
		c0.366-1.38,0.808-3.231-0.441-4.206c-1.812-1.413-3.761,0.205-5.637,0.522c-2.013,0.341-4.791,0.159-4.606,3.256
		C60.47,210.032,63.462,208.933,65.513,209.176z"/>
	<path fill-rule="evenodd" clip-rule="evenodd" fill="#29324E" d="M160.337,218.276c-1.332-0.011-2.665-0.022-3.998-0.033
		c-2.697-2.818-6.359-2.807-8.998,0.028c-0.667,0.004-1.334,0.008-2,0.012c-0.381-2.149-1.332-2.629-2.996-1.024
		c-5.491-2.598-7.493-6.899-6.875-12.902c0.408-3.954,0.105-7.983,0.077-11.979c-0.071-10.235,4.321-14.636,14.729-14.479
		c5.5,0.083,10.874-0.913,15.951,3.501c4.672,4.064,3.99,8.688,3.221,13.099c-0.676,3.875-4.697,5.772-8.475,6.713
		c-3.543,0.881-7.189,1.368-10.81,1.902c-1.651,0.244-2.869,0.592-2.846,2.644c0.024,2.121,1.247,3.348,3.053,3.106
		c3.034-0.407,7.257,2.069,8.609-3.264c0.31-1.223,9.21-1.81,9.81-0.599c1.354,2.73,1.791,5.774-0.821,8.103
		c-1.528,1.361-2.717,3.506-5.282,3.283C161.299,216.266,160.42,216.776,160.337,218.276z M150.719,193.322
		c2.187-0.947,6.733,0.994,7.118-3.495c0.225-2.622-2.974-2.426-5.141-2.428c-2.746-0.004-5.496-0.22-5.411,3.891
		C147.333,193.593,148.603,193.595,150.719,193.322z"/>
	<path fill-rule="evenodd" clip-rule="evenodd" fill="#2A334F" d="M177.06,266.383c-2.969-1.398-3.722-3.787-3.625-6.939
		c0.194-6.324,0.047-12.656,0.069-18.984c0.017-4.844,5.778-10.742,10.759-10.93c3.16-0.119,6.339,0.119,9.489-0.092
		c9.564-0.639,16.169,7.053,13.779,16.785c-0.979,3.984-4.955,6.02-8.99,6.869c-3.411,0.719-6.905,1.039-10.35,1.611
		c-1.464,0.242-2.973,0.453-2.907,2.621c0.063,2.064,1.043,3.4,2.977,3.119c3.004-0.436,6.69,2.113,8.766-3.068
		c1.08-2.695,5.438-0.713,8.309-0.895c0.316,3.023-0.131,5.697-2.809,7.709c-1.43,1.076-2.586,2.537-1.346,4.549
		c-0.082,0.17-0.215,0.281-0.395,0.336C193.007,267.035,184.669,269.924,177.06,266.383z M190.453,239.027
		c-1.647,0.404-4.26-1.15-5.129,2.021c-1.044,3.813,0.352,4.729,5.693,3.584c1.943-0.416,4.912,0.123,4.69-3.102
		C195.493,238.4,192.792,239.076,190.453,239.027z"/>
	<path fill-rule="evenodd" clip-rule="evenodd" fill="#2A334F" d="M105.956,246.531c-0.003,0.49-0.005,0.98-0.008,1.471
		c-3.101,3.713-1.444,7.947-1.12,11.967c0.053,0.652,0.723-0.559,1.154-0.838c0.572,0.959,0.914,2.307,1.758,2.809
		c4.213,2.508,4.569,3.383,2.585,8.115c-0.519-2.408-2.463-1.746-3.989-1.762c-5.604-0.051-11.209-0.014-16.814-0.01
		c-0.057-3.086-1.775-6.891,3.621-7.465c1.387-0.148,1.225-1.775,1.227-2.93c0.008-5.33-0.004-10.662,0.008-15.99
		c0.003-1.545,0.096-3.068-2.105-3.203c-2.098-0.129-2.947,0.811-3.154,2.875c-0.266,2.65-0.559,4.938-4.564,4.838
		c-3.77-0.094-4.666-1.094-4.629-4.775c0.117-11.982-0.045-12.023,11.688-12.125c8.495-0.072,16.991,0.055,25.484-0.088
		c2.592-0.043,3.614,0.725,3.414,3.385c-0.199,2.65,0.228,5.367-0.146,7.98c-0.279,1.947,2.1,5.33-2.578,5.498
		c-3.438,0.123-6.314,0.119-6.354-4.482c-0.036-4.15-2.741-3.277-5.266-2.563C103.018,241.58,103.718,244.033,105.956,246.531z"/>
	<path fill-rule="evenodd" clip-rule="evenodd" fill="#26304B" d="M323.569,229.484c-0.646,2.113-1.119,4.145-0.951,6.488
		c0.23,3.25,0.928,6.889-2.184,9.482c-0.725-1.184-1.816-1.338-2.984-0.908c-0.254,0.094-0.537,0.98-0.404,1.117
		c0.904,0.941,2.143,0.494,3.252,0.611c9.906,4.686,8.828,13.428,8.137,22.027c-0.699-0.021-1.398-0.043-2.098-0.064
		c-0.01-2.652,0.271-5.348-0.105-7.947c-0.439-3.027-0.955-7.807-4.184-7.473c-3.84,0.396-6.041-1.775-9.008-2.607
		c-0.463-0.129-0.971-0.285-1.324-0.586c-1.568-1.336-2.021-0.197-2.256,1.055c-0.186,0.979-0.109,2.348,1.232,2.17
		c5.902-0.771,3.951,4.209,3.387,5.879c-1.51,4.465,1.355,3.268,3.461,3.52c1.957,0.236,2.375-2.605,4.711-2.346
		c-0.684,2.996-1.297,5.68-1.91,8.363c-0.668-0.002-1.336-0.002-2.004-0.004c-0.16-1.641-0.797-2.99-2.682-2.764
		c-1.578,0.191-1.205,1.672-1.313,2.762c-4.336,0-8.67,0.002-13.006,0.002c-0.143-1.016-0.404-1.957-1.729-1.795
		c-1.025,0.127-1.133,0.984-1.264,1.785c-1.336,0.002-2.672,0.004-4.008,0.006c-0.137-1.348-0.494-2.732-2.123-2.629
		c-1.461,0.094-2.762,0.828-2.871,2.629c-3.154,0.006-6.313-0.08-9.463,0.055c-1.641,0.07-3.844-0.932-4.525,1.752
		c-1.01,0.004-2.018,0.008-3.025,0.012c0.004-0.607,0.01-1.215,0.014-1.822c1.381-2.873-4.861-3.025-2.311-6.369
		c4.063,2.92,11.824,3.955,16.26,2.223c1.43-0.559,1.99-1.615,2.02-3.086c0.029-1.5-0.334-2.602-2.107-2.725
		c-0.926-0.064-2.191,0.186-2.387-1.152c-0.129-0.891,0.674-1.463,1.453-1.793c0.984-0.414,1.947-1.406,2.984,0.096
		c2.379,3.449,4.125,2.479,5.563-0.855c0.426-0.99,1.48-1.252,2.521-1.314c0.619,2.979,1.902,1.355,4.443,0.244
		c-2.367-0.133-3.402-0.189-4.439-0.248c-0.342-2.578,3.297-1.213,3.439-3.438c-2.447-1.244-4.154,0.264-5.908,1.461
		c-0.928,0.635-2.115,2.338-2.83,1.506c-3.543-4.119-8.1-2.07-12.449-2.123c0.414-1.779,0.744-3.199,1.082-4.65
		c1.213,0.404,2.277,1.072,3.334,1.063c7.402-0.066,14.807-0.135,22.172,0.654c1.701,0.184,2.168-0.23,1.922-1.762
		c-0.143-0.891-1.082-1.979,0.449-2.449c1.268-0.391,1.652,0.764,2.199,1.574c0.602,0.895,0.979,2.5,2.514,1.449
		c1.33-0.91,1.371-2.398,0.244-3.459c-3.172-2.988-1.162-4.473,1.547-5.762c3.514-1.67,3.311-2.949-0.27-4.215
		c-1.166-0.412-2.775-2.08-0.908-2.549c3.336-0.836,6.623-3.631,10.402-1.363L323.569,229.484z M308.616,255.779
		c-4.539-1.844-6.719,0.459-7.982,5.018c2.102-0.045,4.176-0.615,5.883,1.164c0.734,0.766,2.273,0.318,3.049-0.727
		c0.598-0.805,0.363-1.625-0.699-1.818C303.708,258.473,309.694,257.049,308.616,255.779z"/>
	<path fill-rule="evenodd" clip-rule="evenodd" fill="#2E354E" d="M224.328,379.963c-0.658,0.008-1.316,0.014-1.975,0.02
		c-0.9-1.979-1.662-4.037-3.232-5.631c-1.215-0.766-0.23-2.709-1.85-3.342c-1.568,0.469-1.703,2.035-1.736,3.168
		c-0.184,6.311-4.346,6.307-8.953,6.064c-2.004-0.105-2.984-0.732-3.422-2.738c-0.848-3.895-1.91-7.742-2.934-11.596
		c-0.423-1.594-0.51-3.688-1.571-4.609c-1.891-1.646-2.881-3.416-1.994-5.584c1.02-2.488,3.534-1.193,5.346-1.238
		c6.85-0.174,6.854-0.086,5.387,6.59c-0.271,1.24,0.791,4.877,3.26,10.508c0.379-4.934,3.924-7.941,1.197-12.482
		c-1.252-2.086-0.881-5.156,3.186-4.717c0.494,0.053,1-0.002,1.5,0.018c2.473,0.1,5.586-0.68,7.26,0.531
		c2.174,1.57-0.24,4.473-0.271,6.729c-0.039,2.754,0.695,5.793,3.029,9.141c1.189-4.531,3.279-7.82,1.5-11.887
		c-0.645-1.473-0.375-3.949,1.111-4.258c2.482-0.518,5.617-1.287,7.664,0.486c1.18,1.023,1.018,3.398-0.68,5.279
		c-3.477,3.852-2.746,9.412-4.936,13.854C229.682,377.09,226.666,378.115,224.328,379.963z"/>
	<path fill-rule="evenodd" clip-rule="evenodd" fill="#2E354E" d="M231.617,61.207c-5.195,1.896-10.066,3.457-14.748,5.46
		c-3.355,1.436-3.162-0.358-3.154-2.643c0.045-10.947,0.021-21.895,0.021-33.044c-2.158-0.758-4.215,1.508-6.357-0.336
		c7.791-3.294,15.428-6.523,24.207-10.236c-3.65,8.207-6.736,15.39-10.051,22.465c-1.111,2.371-1.178,4.057,0.678,6.185
		C225.451,52.771,228.279,56.844,231.617,61.207z"/>
	<path fill-rule="evenodd" clip-rule="evenodd" fill="#2E354E" d="M155.238,380.182c-6.754,0.008-6.723,0.018-4.307-6.779
		c0.433-1.217,0.869-2.844-0.448-3.656c-1.593-0.982-3.702-0.922-5.253-0.131c-1.541,0.787-1.198,2.842-0.393,3.986
		c1.476,2.098,2.598,5,0.441,6.023c-2.994,1.424-6.949,1.26-10.131-0.066c-1.551-0.646-1.184-3.271-0.044-4.85
		c2.995-4.15,3.036-10.588-0.095-14.813c-1.017-1.375-0.771-2.861-0.453-4.279c0.346-1.539,1.77-1.178,2.892-1.209
		c0.997-0.027,1.995-0.012,2.993-0.016c6.682-0.027,6.928,0.34,4.421,6.521c-0.577,1.422-1.112,3.268,0.462,3.951
		c1.377,0.598,3.441,0.551,4.824-0.063c1.497-0.662,1.248-2.389,0.563-3.932c-2.578-5.799-2.155-6.447,3.939-6.48
		c7.931-0.045,7.931-0.045,4.09,6.789c-1.227,2.184-0.203,11.537,1.646,13.295c1.501,1.428,1.07,3.07,0.773,4.6
		c-0.301,1.555-1.85,1.01-2.93,1.092C157.238,380.242,156.236,380.182,155.238,380.182z"/>
	<path fill-rule="evenodd" clip-rule="evenodd" fill="#2E354E" d="M275.819,354.381c1.332,0,2.689,0.168,3.99-0.031
		c4.146-0.641,7.752,1.076,9.141,4.477c1.168,2.857,1.66,6.662-1.719,9.58c-2.486,2.15,0.414,4.318,1.652,5.297
		c2.482,1.961,2.434,4.795,0.961,5.838c-1.877,1.33-5.104,1.688-6.988-1.186c-1.363-2.078-2.631-4.221-3.984-6.305
		c-0.543-0.838-1.322-1.881-2.348-1.117c-0.803,0.596-0.586,1.754-0.041,2.721c3.451,6.121,3.205,6.543-3.713,6.537
		c-1.164-0.002-2.33,0-3.494-0.039c-1.426-0.049-3.314,0.531-3.703-1.502c-0.291-1.533-0.281-3.037,1.389-4.396
		c2.297-1.873,2.191-11.92-0.1-13.91c-1.604-1.391-1.576-2.912-1.258-4.459c0.422-2.049,2.318-1.43,3.725-1.471
		c2.162-0.061,4.326-0.016,6.49-0.016C275.819,354.393,275.819,354.387,275.819,354.381z M278.761,365.309
		c1.689,0.031,3.477,0.131,3.607-2.227c0.146-2.602-1.629-2.775-3.602-2.75c-1.785,0.021-3.287,0.188-3.287,2.539
		C275.478,365.252,276.97,365.455,278.761,365.309z"/>
	<path fill-rule="evenodd" clip-rule="evenodd" fill="#383E52" d="M255.14,86.369c5.758-2.164,7.135-1.422,6.895,3.16
		c-0.117,2.217-2.459,1.401-2.773,2.894c-2.365,0.027-4.73,0.057-7.096,0.086c-1.322-0.097-2.656-0.112-3.963-0.305
		c-3.599-0.529-4.47,1.108-3.526,4.28c1.359,3.985,4.427,0.949,6.597,1.607c0.029,0.372,0.057,0.745,0.086,1.118
		c-1.639-0.046-3.277-0.119-4.915-0.129c-1.084-0.006-1.967,0.422-2.023,1.632c-0.061,1.276,0.994,1.523,1.947,1.802
		c0.133,1.776,1.589,1.482,2.716,1.928c1.117,0.441,3.105-0.435,3.26,1.786c-7.964,0.727-11.146-0.169-10.603-8.886
		c0.182-2.94-1.223-3.283-3.627-2.719c-6.055,1.423-10.092,5.195-12.736,10.663c-0.613,0.001-1.229,0.002-1.844,0.003
		c-0.268-2.467,2.277-4.329,1.688-7.2c-2.676,1.152-3.393,3.383-4.109,5.513c-1.725,5.124-1.541,10.403-1.258,15.723
		c0.508,9.538,2.479,19.053,0.611,28.646c-0.316,1.628,0.305,2.57,2.123,2.356c1.598,1.959-1.865,2.313-1.256,3.959
		c-2.219,0.202-1.992,1.753-1.811,3.279c-0.16,0.913-0.318,1.826-0.479,2.739c-0.574-0.009-1.148-0.018-1.725-0.026
		c2.945-15.224,1.396-30.436,0.314-45.716c-1.02-14.389,4.154-24.125,20.828-27.552c1.473-0.303,2.979-0.48,3.463-2.319
		c1.033-3.929,4.023-4.432,7.433-4.147c-0.189,2.524-4.966,0.979-4.009,4.52c-1.242,5.292-0.686,5.72,6.187,4.753
		c-2.34-0.761-2.34-0.761-2.211-2.663C251.298,87.165,253.368,87.876,255.14,86.369z"/>
	<path fill-rule="evenodd" clip-rule="evenodd" fill="#2E354E" d="M288.423,58.076c-2.918,2.279-6.137,0.41-8.752-0.176
		c-5.143-1.152-9.672,0.103-14.377,1.356c-1.877-2.205-4.953,0.145-6.896-1.811c3.396-0.654,6.801-1.279,10.189-1.977
		c1.324-0.272,3.379,0.345,3.389-1.913c0.006-1.728-1.773-1.661-2.953-2.129c-6.715-2.659-10.627-8.013-10.748-14.694
		c-0.133-7.289,5.234-14.579,11.461-15.568c10.119-1.608,17.053,2.128,19.699,10.611c2.354,7.549-1.367,15.737-8.525,19.165
		c-1.611,0.771-4.832,0.2-4.41,2.931c0.365,2.373,3.408,1.26,5.164,1.994C283.845,56.779,286.716,55.628,288.423,58.076z
		 M285.474,36.274c-0.006-6.436-4.92-11.281-11.395-11.238c-6.303,0.041-11.443,5.195-11.422,11.452
		c0.02,6.034,5.582,11.49,11.605,11.386C280.565,47.766,285.479,42.682,285.474,36.274z"/>
	<path fill-rule="evenodd" clip-rule="evenodd" fill="#29324E" d="M50.312,172.139c-7.176,3.16-14.352,6.32-22.795,10.039
		c3.385-7.716,5.854-14.336,9.15-20.515c2.27-4.254,1.826-7.324-1.416-10.568c-1.746-1.745-3.094-3.884-4.658-5.814
		c-2.104-2.597-2.332-4.618,1.441-5.818c3.152-1.003,6.361-1.957,9.329-3.383c4.127-1.982,4.521-0.21,3.755,3.213
		c-1.441,0.255-1.78,1.245-1.777,2.543c0.014,7.972,0.014,15.942-0.002,23.914c-0.003,1.311,0.377,2.274,1.814,2.511
		c-0.189,4.846,2.737,2.981,5.086,2.362C50.264,171.128,50.289,171.633,50.312,172.139z"/>
	<path fill-rule="evenodd" clip-rule="evenodd" fill="#2E354E" d="M240.4,367.035c0.258-3.738-1.234-8.246,3.621-11.119
		c4.278-2.529,8.835-2.195,12.899-0.84c3.902,1.303,6.121,4.826,5.285,9.57c-0.369,2.1-0.326,4.359,0,6.475
		c0.705,4.58-2.307,6.814-5.486,8.578c-3.854,2.137-12.089,0.111-15.085-3.227C240.416,375.115,240.416,375.115,240.4,367.035z
		 M254.917,367.186c-0.084-0.977-0.264-1.65-0.178-2.289c0.367-2.709-0.121-4.48-3.473-4.547c-3.311-0.064-3.894,1.699-3.772,4.393
		c0.09,1.984,0.068,3.977,0.025,5.963c-0.064,2.873,1.491,3.826,4.097,3.518C256.819,373.607,253.849,369.35,254.917,367.186z"/>
	<path fill-rule="evenodd" clip-rule="evenodd" fill="#29324E" d="M183.314,377.975c-0.096,0.307-0.307,0.455-0.629,0.441
		c-4.859-0.014-9.719-0.029-14.578-0.043c-2.548-0.963-3.398-2.863-3.305-5.492c0.127-3.488,0.037-6.982,0.064-10.475
		c0.034-4.494,3.091-7.934,7.561-7.928c3.084,0.004,6.354-1.004,9.272,0.674c6.468,3.721,6.306,9.287-0.335,14.234
		c-2.303,0.301-4.607,0.572-6.904,0.91c-1.205,0.178-2.389,0.549-2.138,2.145c0.188,1.193,1.248,1.291,2.209,1.641
		c3.253,1.188,4.415-2.295,6.831-2.912c0.986,0.123,1.972,0.244,2.958,0.367C185.625,373.939,182.507,375.65,183.314,377.975z
		 M174.171,360.26c-1.396-0.455-2.312,0.58-2.498,2.336c-0.18,1.697,0.719,2.609,2.415,2.068c1.618-0.518,4.265,0.053,4.428-2.336
		C178.689,359.803,176.25,360.615,174.171,360.26z"/>
	<path fill-rule="evenodd" clip-rule="evenodd" fill="#2E354E" d="M56.371,379.906c-5.025-0.477-7.955-3.355-7.994-7.891
		c-0.025-2.994-0.026-5.99-0.014-8.986c0.023-5.094,3.397-8.502,8.568-8.631c1.828-0.045,3.666-0.096,5.489,0.023
		c4.134,0.271,7.578,3.992,7.61,8.133c0.025,3.326-0.033,6.656,0.041,9.982c0.049,2.182-0.473,3.943-2.703,4.793
		C63.531,377.459,59.654,377.414,56.371,379.906z M55.458,366.895c0,1.412,0.057,2.58-0.012,3.74
		c-0.141,2.441,0.721,3.635,3.41,3.666c2.672,0.031,4.129-0.691,4.034-3.594c-0.075-2.324,0.022-4.654,0.05-6.982
		c0.025-2.195-0.861-3.221-3.242-3.4C53.675,359.873,55.982,364.33,55.458,366.895z"/>
	<path fill-rule="evenodd" clip-rule="evenodd" fill="#2E354E" d="M84.976,354.393c1.996,0.002,4.035,0.268,5.979-0.051
		c4.684-0.762,5.914,1.396,5.24,5.566c-0.199,1.23,0.494,2.949-1.359,3.256c-1.376,0.227-3.302,0.773-4.066-0.881
		c-1.072-2.324-2.946-1.697-4.67-1.801c-1.602-0.094-2.541,0.668-2.557,2.316c-0.014,1.615,0.828,2.322,2.469,2.439
		c1.571,0.113,4.102-1.045,3.904,2.158c-0.164,2.648-2.325,1.73-3.823,1.85c-1.208,0.096-2.45,0.117-2.546,1.697
		c-0.08,1.293-0.313,2.932,1.438,3.268c2.658,0.512,2.436,2.441,2.217,4.219c-0.317,2.582-2.457,1.613-3.951,1.688
		c-2.157,0.107-4.322,0.039-6.484,0.061c-1.285,0.012-2.915,0.543-3.31-1.254c-0.302-1.373-0.528-2.846,0.668-4.186
		c3.124-3.498,3.162-10.928,0.259-14.754c-0.939-1.24-1.274-2.57-0.684-4.18c0.655-1.783,2.029-1.393,3.295-1.408
		C79.654,354.367,82.316,354.389,84.976,354.393z"/>
	<path fill-rule="evenodd" clip-rule="evenodd" fill="#2E354E" d="M304.698,380.164c-2.496,0.002-4.996,0.064-7.49-0.023
		c-1.229-0.043-2.936,0.613-3.422-1.148c-0.385-1.387-0.473-2.896,0.559-4.256c2.965-3.898,2.957-10.744-0.012-14.875
		c-1.008-1.402-0.719-2.859-0.379-4.283c0.375-1.566,1.789-1.166,2.893-1.184c2.33-0.037,4.662-0.027,6.992-0.012
		c1.303,0.01,2.912-0.279,3.176,1.543c0.205,1.41,0.508,2.988-0.957,4.117c-4.668,3.594-1.721,8.527-1.959,12.811
		c-0.109,1.947,5.008,2.082,6.32-0.254c1.182-2.098,2.969-2.744,4.465-1.873c2.867,1.67,0.988,4.809,1.324,7.281
		c0.299,2.201-1.443,2.18-3.02,2.164C310.358,380.141,307.528,380.162,304.698,380.164z"/>
	<path fill-rule="evenodd" clip-rule="evenodd" fill="#2E354E" d="M340.62,358.158c0.301,0.24,0.6,0.48,0.898,0.721
		c0.027,5.08,0.055,10.16,0.082,15.24c-5.055,4.926-11.395,4.256-17.668,4.24c-2.941-0.01-3.916-1.164-3.58-3.871
		c1.969-4.803,1.805-9.605,0-14.41c-1.389-3.811,3.285-3.213,3.998-5.496c1.326,0,2.652,0,3.979,0
		C332.077,356.979,336.438,357.26,340.62,358.158z M328.997,366.475c0,1.605-0.016,2.762,0.004,3.916
		c0.031,1.957-0.365,4.033,2.865,3.877c2.832-0.137,3.773-1.438,3.672-4.049c-0.084-2.143-0.033-4.291-0.004-6.438
		c0.033-2.283-1.146-3.281-3.342-3.328C326.552,360.334,330.073,364.789,328.997,366.475z"/>
	<path fill-rule="evenodd" clip-rule="evenodd" fill="#2E354E" d="M112.267,379.416c-1.337-1.504-1.188-3.479,0.115-4.377
		c5.281-3.645,1.547-8.793,2.477-13.123c0.172-0.803-0.523-1.578-1.503-1.613c-1.171-0.041-1.927,0.611-1.918,1.771
		c0.021,2.541-1.452,3.096-3.568,2.842c-2.44-0.291-2.164-2.4-1.931-3.768c0.419-2.447-2.291-6.818,3.434-6.51
		c0.838,2.584,3.076,1.738,4.656,1.57c5.486-0.582,11.213,1.736,16.484-1.324c1.699,2.59,0.444,5.465,0.762,8.191
		c0.18,1.549-1.039,1.84-2.312,1.928c-1.456,0.1-2.616-0.111-3.03-1.816c-0.334-1.377-0.424-3.434-2.595-2.74
		c-1.886,0.602-1.112,2.604-0.99,3.91c0.315,3.375-1.188,6.949,1.011,10.127c0.248,2.621-0.638,3.861-3.575,3.867
		C117.289,378.355,114.49,377.193,112.267,379.416z"/>
	<path fill-rule="evenodd" clip-rule="evenodd" fill="#2E354E" d="M336.353,186.269c2.104-0.924-5.551-5.771,1.838-4.57
		c0.957,2.215,1.912,4.43,3.064,7.102c2.848-2.552,3.084-6.303,5.365-9.408c5.021,5.543,9.879,10.906,14.74,16.269
		c0.563,0.621,1.148,1.228,0.82,2.9c-6.855-3.132-13.611-6.217-20.344-9.292c-1.191,1.907,0.596,3.389,0.205,5.018
		c-1.928-0.154-1.973-2.611-3.691-3.02C338.333,189.341,338.649,187.283,336.353,186.269z"/>
	<path fill-rule="evenodd" clip-rule="evenodd" fill="#2E354E" d="M175.791,159.882c7.008-1.59,14.019-3.163,21.019-4.784
		c1.603-0.371,2.28-0.151,2.515,1.787c1.077,8.929,0.601,9.445-7.939,7.489c-2.584-0.592-5.178-1.147-7.764-1.736
		c-2.572-0.585-5.141-1.19-7.711-1.787C175.871,160.528,175.831,160.205,175.791,159.882z"/>
	<path fill-rule="evenodd" clip-rule="evenodd" fill="#2E354E" d="M346.536,141.073c-4.719-9.739-4.725-9.754,4.078-13.942
		c3.441-1.639,6.918-3.204,10.395-4.77c0.25-0.111,0.621,0.048,2.234,0.218C357.442,129,352.147,134.862,346.536,141.073z"/>
	<path fill-rule="evenodd" clip-rule="evenodd" fill="#2E354E" d="M201.811,141.349c-4.364-4.678-8.411-9.068-12.528-13.392
		c-1.047-1.099-1.557-2.423-0.814-3.57c0.816-1.262,2.167-0.224,3.155,0.168c2.151,0.853,4.228,1.895,6.322,2.887
		C206.775,131.623,206.775,131.627,201.811,141.349z"/>
	<path fill-rule="evenodd" clip-rule="evenodd" fill="#2E354E" d="M349.298,165.986c0-4.015,0-7.475,0-11.518
		c6.289,1.454,12.338,2.839,18.377,4.268c0.775,0.184,1.654,0.441,1.652,1.531c-0.004,1.187-0.984,1.142-1.744,1.325
		C361.618,163.034,355.649,164.462,349.298,165.986z"/>
	<path fill-rule="evenodd" clip-rule="evenodd" fill="#1D243D" d="M304.608,296.828c0.441-0.451,0.588-2.113,1.408-0.979
		c0.65,0.896,0.316,2.549,0.318,3.865c0.018,13.57,0.041,27.143-0.004,40.713c-0.012,3.236-0.514,6.602,4.541,5.984
		c0.932-0.115,1.285,0.869,1.455,1.719c-2.326-0.006-4.652-0.012-6.979-0.018c-0.023-0.996,0.199-2.057-0.732-2.816
		C304.614,329.141,304.612,312.984,304.608,296.828z"/>
	<path fill-rule="evenodd" clip-rule="evenodd" fill="#2E354E" d="M205.326,189.889c-6.732,2.947-13.192,6.567-20.263,8.68
		c-0.369-0.438-0.739-0.876-1.108-1.313c2.607-2.274,5.215-4.549,7.822-6.823c0.19,0.282,0.381,0.565,0.57,0.848
		c3.803,2.432,6.245-1.342,9.286-2.22c0.979-0.283,1.092-2.324-0.102-3.459c-1.164-1.106-1.952-0.12-3.001,0.404
		c-1.655,0.828-2.018,3.199-4.176,3.284c-0.296-0.202-0.592-0.404-0.888-0.606c2.609-3.143,5.133-6.366,8.674-9.222
		c1.186,2.954,2.277,5.676,3.369,8.396C205.449,188.535,205.389,189.212,205.326,189.889z"/>
	<path fill-rule="evenodd" clip-rule="evenodd" fill="#1D243D" d="M275.354,270.064c0.682-2.684,2.885-1.682,4.525-1.752
		c3.15-0.135,6.309-0.049,9.463-0.055c1.666,0,3.33,0,4.994,0c1.336-0.002,2.672-0.004,4.008-0.004
		c0.998,0.002,1.994,0.006,2.992,0.008c4.336,0,8.67-0.002,13.006-0.002c1.332,0,2.662,0,3.994,0.002
		c0.668,0.002,1.336,0.002,2.004,0.004c1.998-0.008,3.996-0.018,5.996-0.027c0.699,0.021,1.398,0.043,2.098,0.064
		c0.652,2.314-1.025,1.951-2.293,1.947C309.212,270.199,292.282,270.129,275.354,270.064z"/>
	<path fill-rule="evenodd" clip-rule="evenodd" fill="#27314D" d="M330.81,159.122c-5.637,0.762-6.111-3.492-6.35-7.16
		c-0.242-3.747-0.414-7.566-0.539-11.314c-0.146-4.398,2.607-8.35,0.357-12.803c3.75,1.235-0.207,6.596,4.787,6.428
		c-0.02,1.668-0.041,3.336-0.061,5.004c-2.73,1.132-2.83,3.253-2.299,5.745c0.545,2.548,1.635,5.291,1.139,7.67
		c-0.613,2.955,0.301,4.377,2.572,5.596C330.778,158.456,330.909,158.734,330.81,159.122z"/>
	<path fill-rule="evenodd" clip-rule="evenodd" fill="#1D243D" d="M215.682,298.061c2.406,1.176,1.635,3.418,1.641,5.283
		c0.049,14.936,0.02,29.871,0.014,44.807c-2.188,0.295-1.873-1.293-1.867-2.555C215.527,329.75,215.607,313.906,215.682,298.061z"/>
	<path fill-rule="evenodd" clip-rule="evenodd" fill="#27314E" d="M213.596,209.188c-2.055,4.178-4.176,1.703-6.289,0.063
		c-0.863-2.941,1.896-6.578-1.723-8.993c0.021-0.653,0.043-1.307,0.064-1.961c3.209-0.736,1.816-5.039,4.682-6.044
		c0.818,3.027,1.412,5.98,0.566,9.209c-0.457,1.738-0.301,4.008,2.172,4.816C213.244,207.248,213.42,208.218,213.596,209.188z"/>
	<path fill-rule="evenodd" clip-rule="evenodd" fill="#1D243D" d="M272.343,268.254c-0.004,0.607-0.01,1.215-0.014,1.822
		c-12.328,0.01-24.653,0.02-36.981,0.029c0.004-0.568,0.006-1.135,0.01-1.703c1.832-0.361,3.666-0.725,5.5-1.086
		c1.367,1.318,3.09,0.943,4.711,0.945C254.491,268.275,263.417,268.26,272.343,268.254z"/>
	<path fill-rule="evenodd" clip-rule="evenodd" fill="#383E52" d="M277.419,292.299c-1.299-0.936-2.299-2.455-1.91-3.775
		c1.67-5.691-3-4.76-5.592-5.141c-4.539-0.666-9.154-0.104-13.676,0.828c0.939-2.512,3.223-2.605,5.326-2.791
		c1.973-0.176,3.973-0.045,5.959-0.049C278.411,281.352,278.411,281.352,277.419,292.299z"/>
	<path fill-rule="evenodd" clip-rule="evenodd" fill="#383E52" d="M253.329,79.319c-0.859,1.173-2.094,0.887-3.266,0.838
		c-0.045-2.573-0.088-5.147-0.131-7.722c2.777,0.765,5.785-2.163,8.441,0.53c-0.758,0.194-1.836,0.165-1.889,1.157
		c-0.076,1.434,1.182,1.295,2.102,1.29c3.582-0.021,7.164-0.104,10.746-0.163c-0.326,0.662-0.65,1.324-0.977,1.987
		c-3.734-0.571-7.537,0.904-11.326-0.933C255.126,75.381,253.216,76.633,253.329,79.319z"/>
	<path fill-rule="evenodd" clip-rule="evenodd" fill="#383E52" d="M320.353,374.488c-0.336,2.707,0.639,3.861,3.58,3.871
		c6.273,0.016,12.613,0.686,17.666-4.24c0.34,0.078,0.684,0.154,1.027,0.23c-2.973,4.211-6.711,6.641-12.182,5.902
		c-2.617-0.354-5.324-0.002-7.986-0.076c-1.234-0.033-3.01,0.631-3.418-1.119C318.669,377.471,317.8,375.383,320.353,374.488z"/>
	<path fill-rule="evenodd" clip-rule="evenodd" fill="#1D243D" d="M45.154,168.26c-1.438-0.236-1.817-1.2-1.814-2.511
		c0.016-7.972,0.016-15.942,0.002-23.914c-0.003-1.298,0.336-2.288,1.777-2.543C45.13,148.947,45.142,158.604,45.154,168.26z"/>
	<path fill-rule="evenodd" clip-rule="evenodd" fill="#1D243D" d="M125.762,322.479c-1.188-0.635-1.429-1.721-1.428-2.943
		c0.006-6.967,0.007-13.936-0.005-20.902c-0.002-1.088,0.27-1.963,1.421-2.322C125.754,305.033,125.758,313.756,125.762,322.479z"/>
	<path fill-rule="evenodd" clip-rule="evenodd" fill="#1D243D" d="M54.785,298.371c2.311,2.049,2.41,4.896,2.135,7.525
		c-0.896,8.547-0.993,17.074,0.074,25.588c0.26,2.063-0.383,2.744-2.216,2.842C54.78,322.34,54.782,310.355,54.785,298.371z"/>
	<path fill-rule="evenodd" clip-rule="evenodd" fill="#29324E" d="M217.318,160.279c0.576,0.009,1.15,0.018,1.725,0.026
		c-0.58,2.662-1.162,5.325-1.744,7.987c-1.551,1.382-2.082,3.133-1.869,5.154c-0.889,3.478-2.406,6.691-4.102,9.833
		c-0.645,0.003-1.289,0.006-1.934,0.009C212.037,175.619,214.678,167.949,217.318,160.279z"/>
	<path fill-rule="evenodd" clip-rule="evenodd" fill="#2E354E" d="M177.06,266.383c7.609,3.541,15.947,0.652,23.727,2.691
		C194.594,272.059,181.25,270.545,177.06,266.383z"/>
	<path fill-rule="evenodd" clip-rule="evenodd" fill="#383E52" d="M358.644,144.623c-2.328,1.455-4.604,3.006-7.012,4.316
		c-0.902,0.491-2.096,1.934-2.941,0.938c-0.863-1.016-1.27-2.746-1.213-4.137c0.078-1.929,1.924-1.296,3.115-1.397
		c2.6-0.223,5.209-0.341,7.814-0.502C358.485,144.102,358.565,144.362,358.644,144.623z"/>
	<path fill-rule="evenodd" clip-rule="evenodd" fill="#1D243D" d="M232.311,322.16c0.303-1.707,1.527-1.91,2.967-1.902
		c5.637,0.027,11.273,0.029,16.909,0.006c1.631-0.006,3.029,0.191,3.076,2.275C247.627,321.553,239.961,322.293,232.311,322.16z"/>
	<path fill-rule="evenodd" clip-rule="evenodd" fill="#383E52" d="M199.68,150.777c-3.543-1.94-6.981-3.824-10.533-5.77
		C198.035,142.538,201.258,144.187,199.68,150.777z"/>
	<path fill-rule="evenodd" clip-rule="evenodd" fill="#383E52" d="M348.372,169.897c3.953,2.319,7.021,4.121,10.744,6.307
		c-4.201,2.188-7.664,0.121-10.838-0.372C346.38,175.537,348.702,172.58,348.372,169.897z"/>
	<path fill-rule="evenodd" clip-rule="evenodd" fill="#2E354E" d="M188.481,176.468c3.235-1.8,5.743-3.214,8.271-4.592
		c0.969-0.528,2.193-1.721,3.04-0.539c0.677,0.945,0.623,2.518,0.632,3.813c0.012,1.489-1.313,1.155-2.213,1.245
		C195.323,176.684,192.496,178.13,188.481,176.468z"/>
	<path fill-rule="evenodd" clip-rule="evenodd" fill="#1D243D" d="M64.595,281.713c-0.625,0.488-1.268,1.416-1.872,1.393
		c-5.005-0.197-9.734,0.654-14.12,3.148c-0.832-3.521,0.166-5.221,4.162-4.85C56.685,281.768,60.65,281.631,64.595,281.713z"/>
	<path fill-rule="evenodd" clip-rule="evenodd" fill="#383E52" d="M209.395,183.289c0.645-0.003,1.289-0.006,1.934-0.009
		c-0.191,2.376-3.279,4.354-0.973,7.073c-0.01,0.634-0.018,1.267-0.025,1.899c-2.865,1.005-1.473,5.308-4.682,6.044
		c-0.77-2.777,2.338-5.702-0.322-8.408c0.063-0.677,0.123-1.354,0.184-2.031C209.873,188.943,207.328,184.155,209.395,183.289z"/>
	<path fill-rule="evenodd" clip-rule="evenodd" fill="#26304B" d="M330.417,158.287c-2.271-1.219-3.186-2.641-2.572-5.596
		c0.496-2.379-0.594-5.122-1.139-7.67c-0.531-2.492-0.432-4.613,2.299-5.745C329.476,145.613,329.946,151.95,330.417,158.287z"/>
	<path fill-rule="evenodd" clip-rule="evenodd" fill="#474D5F" d="M258.397,57.446c1.943,1.955,5.02-0.395,6.896,1.811
		c-2.551,0.776-5.131,1.322-7.822,1.051c-3.537-1.829-6.889,0.537-10.353,0.532c-0.541-0.001-0.174,1.089,0.26,1.6
		c-3.221,1.511-2.666-1.185-3.098-2.78C248.985,58.921,253.692,58.184,258.397,57.446z"/>
	<path fill-rule="evenodd" clip-rule="evenodd" fill="#1D243D" d="M89.521,268.283c5.605-0.004,11.211-0.041,16.814,0.01
		c1.526,0.016,3.471-0.646,3.989,1.762c-6.665,0.01-13.331,0.018-19.996,0.027c-0.265-0.266-0.53-0.531-0.796-0.797
		C89.529,268.951,89.525,268.617,89.521,268.283z"/>
	<path fill-rule="evenodd" clip-rule="evenodd" fill="#383E52" d="M271.378,312.277c-2.123-5.287-1.23-10.852-0.688-16.15
		c0.318-3.109,4.127-2.1,6.656-1.855c-6.104,0.725-6.164,4.951-5.797,9.656C271.765,306.689,271.452,309.492,271.378,312.277z"/>
	<path fill-rule="evenodd" clip-rule="evenodd" fill="#1D243D" d="M227.35,348.119c3.119-2.303,2.922-5.59,3.098-9.014
		c0.205-3.975-1.514-8.195,1.154-11.936c0.104,5.604,0.027,11.221,0.375,16.809C232.207,347.68,231.078,349.176,227.35,348.119z"/>
	<path fill-rule="evenodd" clip-rule="evenodd" fill="#1D243D" d="M130.513,354.885c-5.271,3.061-10.998,0.742-16.484,1.324
		c-1.58,0.168-3.818,1.014-4.656-1.57C116.423,354.471,123.476,354.029,130.513,354.885z"/>
	<path fill-rule="evenodd" clip-rule="evenodd" fill="#2E354E" d="M189.332,344.279c4.34,2.539,9.129,1.963,13.831,1.988
		c0.475,2.055-0.865,2.125-2.299,2.115c-2.493-0.016-5.012-0.258-7.471,0.027C190.031,348.797,188.873,347.439,189.332,344.279z"/>
	<path fill-rule="evenodd" clip-rule="evenodd" fill="#2E354E" d="M201.182,268.738c-1.241-2.012-0.084-3.473,1.346-4.549
		c2.678-2.012,3.125-4.686,2.809-7.709c2.734,1.432,3.281,5.826,0.865,8.195C204.67,266.176,202.865,267.395,201.182,268.738z"/>
	<path fill-rule="evenodd" clip-rule="evenodd" fill="#1D243D" d="M95.695,188.086c1.223,0.51,1.781,1.515,1.604,2.737
		c-0.792,5.452,1.937,11.219-1.471,16.43C95.783,200.863,95.739,194.475,95.695,188.086z"/>
	<path fill-rule="evenodd" clip-rule="evenodd" fill="#1D243D" d="M54.8,336.053c0.271,0.189,0.752,0.35,0.783,0.572
		c0.75,5.174,2.408,9.689,8.008,11.473C55.323,348.551,54.019,346.766,54.8,336.053z"/>
	<path fill-rule="evenodd" clip-rule="evenodd" fill="#2E354E" d="M330.358,162.297c0.334-0.009,0.67-0.018,1.004-0.026
		c1.688,5.001,3.377,10.001,5.066,15.002c-2.928,0.259-2.633-2.759-4.078-4.008C331.687,169.609,331.022,165.953,330.358,162.297z"
		/>
	<path fill-rule="evenodd" clip-rule="evenodd" fill="#474D5F" d="M342.626,374.35c-0.344-0.076-0.688-0.152-1.027-0.23
		c-0.025-5.08-0.053-10.16-0.08-15.24C344.614,363.84,342.886,369.148,342.626,374.35z"/>
	<path fill-rule="evenodd" clip-rule="evenodd" fill="#27314D" d="M327.337,110.277c-1.016-2.171-2.195-4.285-2.969-6.539
		c-0.326-0.946-1.883-2.779,0.354-3.186c1.732-0.315,3.348,0.931,2.879,2.992c-0.553,2.423,0.008,3.433,2.543,3.041
		c0.014,0.411,0.025,0.823,0.039,1.235c-1.203,0.521-2.283,1.184-2.842,2.453L327.337,110.277z"/>
	<path fill-rule="evenodd" clip-rule="evenodd" fill="#1D243D" d="M112.267,379.416c2.223-2.223,5.021-1.061,7.517-1.064
		c2.938-0.006,3.823-1.246,3.575-3.867c3.086,0.301,1.863,2.664,1.82,4.211c-0.043,1.566-1.569,1.482-2.707,1.387
		C119.074,379.793,115.588,380.834,112.267,379.416z"/>
	<path fill-rule="evenodd" clip-rule="evenodd" fill="#383E52" d="M168.107,378.373c4.859,0.014,9.719,0.029,14.578,0.043
		C179.023,380.951,171.62,380.93,168.107,378.373z"/>
	<path fill-rule="evenodd" clip-rule="evenodd" fill="#383E52" d="M340.62,358.158c-4.182-0.898-8.543-1.18-12.291-3.576
		C332.897,354.156,337.538,353.482,340.62,358.158z"/>
	<path fill-rule="evenodd" clip-rule="evenodd" fill="#1D243D" d="M56.371,379.906c3.283-2.492,7.16-2.447,10.998-2.576
		C64.47,381.469,60.25,379.959,56.371,379.906z"/>
	<path fill-rule="evenodd" clip-rule="evenodd" fill="#383E52" d="M240.029,64.625c0.023,0.816,0.346,2.193,0.025,2.363
		c-3.762,1.995-0.654,3.452,0.301,5.068c-2.545,0.327-5.141,0.847-6.889-1.827c0.934-0.036,1.68-0.365,2.02-1.314
		C237.02,67.505,237.514,64.993,240.029,64.625z"/>
	<path fill-rule="evenodd" clip-rule="evenodd" fill="#1D243D" d="M50.383,94.011c-0.013,3.422,0.02,6.846-0.06,10.266
		c-0.035,1.511,0.643,3.424-1.709,3.978c-0.061-3.826-0.105-7.653-0.191-11.479C48.391,95.333,48.511,94.069,50.383,94.011z"/>
	<path fill-rule="evenodd" clip-rule="evenodd" fill="#474D5F" d="M50.312,172.139c-0.023-0.506-0.048-1.011-0.072-1.517
		c3.058-1.417,6.1-2.882,9.852-2.484C56.832,169.472,53.572,170.806,50.312,172.139z"/>
	<path fill-rule="evenodd" clip-rule="evenodd" fill="#474D5F" d="M49.042,190.366c3.6,0.051,7.199,0.102,10.799,0.152
		C56.685,192.878,51.298,192.802,49.042,190.366z"/>
	<path fill-rule="evenodd" clip-rule="evenodd" fill="#383E52" d="M224.328,379.963c2.338-1.848,5.354-2.873,6.887-5.695
		C231.111,378.816,229.352,381.365,224.328,379.963z"/>
	<path fill-rule="evenodd" clip-rule="evenodd" fill="#1D243D" d="M147.341,218.271c2.639-2.835,6.301-2.847,8.998-0.028
		C153.34,218.253,150.34,218.262,147.341,218.271z"/>
	<path fill-rule="evenodd" clip-rule="evenodd" fill="#383E52" d="M324.351,354.582c-0.713,2.283-5.387,1.686-3.998,5.496
		c-2.557-0.875-1.883-3.098-1.266-4.486C320.146,353.215,322.519,354.674,324.351,354.582z"/>
	<path fill-rule="evenodd" clip-rule="evenodd" fill="#2E354E" d="M203.141,322.281c-3.633-2.719-0.953-6.623-1.848-9.855
		C204.58,315.211,203.094,318.889,203.141,322.281z"/>
	<path fill-rule="evenodd" clip-rule="evenodd" fill="#383E52" d="M205.584,200.258c3.619,2.415,0.859,6.052,1.723,8.993
		c-0.314,0.007-0.627,0.017-0.939,0.027C205.045,206.363,205.109,203.328,205.584,200.258z"/>
	<path fill-rule="evenodd" clip-rule="evenodd" fill="#383E52" d="M183.314,377.975c-0.807-2.324,2.312-4.035,1.007-6.438
		C187.207,373.861,187.065,374.77,183.314,377.975z"/>
	<path fill-rule="evenodd" clip-rule="evenodd" fill="#2E354E" d="M302.521,59.671c-2.17,2.326-4.26,2.84-6.184-0.282
		C298.433,58.735,300.483,59.042,302.521,59.671z"/>
	<path fill-rule="evenodd" clip-rule="evenodd" fill="#383E52" d="M256.265,284.174c0.219,2.264-0.164,4.559,0.75,6.795
		c0.6,1.463,0.465,2.984-1.643,3.311C255.302,290.879,254.313,287.396,256.265,284.174z"/>
	<path fill-rule="evenodd" clip-rule="evenodd" fill="#1D243D" d="M105.956,246.531c-2.237-2.498-2.938-4.951,0.211-7.293
		C106.096,241.67,106.026,244.1,105.956,246.531z"/>
	<path fill-rule="evenodd" clip-rule="evenodd" fill="#1D243D" d="M105.982,259.131c-0.432,0.279-1.102,1.49-1.154,0.838
		c-0.324-4.02-1.98-8.254,1.12-11.967C105.959,251.711,105.97,255.422,105.982,259.131z"/>
	<path fill-rule="evenodd" clip-rule="evenodd" fill="#383E52" d="M243.33,72.056c2.057-2.759,4.066-2.843,6.019,0.111
		C247.342,72.13,245.336,72.093,243.33,72.056z"/>
	<path fill-rule="evenodd" clip-rule="evenodd" fill="#1D243D" d="M139.322,229.742c-1.649,5.193-3.27,1.768-4.895-0.016
		C136.058,229.732,137.691,229.738,139.322,229.742z"/>
	<path fill-rule="evenodd" clip-rule="evenodd" fill="#1D243D" d="M70.304,285.285c-2.323,0.109-3.936-0.648-4.006-3.287
		C68.408,282.15,70.097,282.813,70.304,285.285z"/>
	<path fill-rule="evenodd" clip-rule="evenodd" fill="#383E52" d="M219.121,374.352c1.57,1.594,2.332,3.652,3.232,5.631
		C218.283,379.822,219.867,376.418,219.121,374.352z"/>
	<path fill-rule="evenodd" clip-rule="evenodd" fill="#1D243D" d="M125.691,331.24c-2.156-1.402-1.68-2.787,0.031-4.16
		C126.146,328.471,126.064,329.857,125.691,331.24z"/>
	<path fill-rule="evenodd" clip-rule="evenodd" fill="#27314E" d="M320.298,246.275c-1.109-0.117-2.348,0.33-3.252-0.611
		c-0.133-0.137,0.15-1.023,0.404-1.117c1.168-0.43,2.26-0.275,2.984,0.908C320.521,245.75,320.474,246.023,320.298,246.275z"/>
	<path fill-rule="evenodd" clip-rule="evenodd" fill="#474D5F" d="M51.122,182.847c0.262,1.666-0.552,2.73-1.94,3.474
		C48.481,184.41,49.533,183.479,51.122,182.847z"/>
	<path fill-rule="evenodd" clip-rule="evenodd" fill="#1D243D" d="M142.345,217.259c1.664-1.604,2.615-1.125,2.996,1.024
		C144.13,218.563,143.027,218.526,142.345,217.259z"/>
	<path fill-rule="evenodd" clip-rule="evenodd" fill="#1D243D" d="M156.203,320.266c-2.799-0.951-2.281-2.422-0.641-4.07
		C155.775,317.551,155.989,318.908,156.203,320.266z"/>
	<path fill-rule="evenodd" clip-rule="evenodd" fill="#1D243D" d="M271.315,347.277c-0.518-0.254-1.404-0.426-1.48-0.777
		c-0.236-1.066,0.736-1.086,1.471-1.223C271.31,345.943,271.312,346.611,271.315,347.277z"/>
	<path fill-rule="evenodd" clip-rule="evenodd" fill="#1D243D" d="M160.337,218.276c0.083-1.5,0.962-2.011,2.35-1.891
		C162.565,217.838,161.914,218.632,160.337,218.276z"/>
	<path fill-rule="evenodd" clip-rule="evenodd" fill="#2E354E" d="M191.777,190.432c0.563-0.583,1.127-1.166,1.689-1.749
		c0.296,0.202,0.592,0.404,0.887,0.606c-0.061,1.275-0.723,1.945-2.006,1.99C192.158,190.997,191.967,190.714,191.777,190.432z"/>
	<path fill-rule="evenodd" clip-rule="evenodd" fill="#474D5F" d="M54.316,180.225c-0.107,1.387-0.889,1.984-2.24,1.915
		C52.554,181.188,53.281,180.526,54.316,180.225z"/>
	<path fill-rule="evenodd" clip-rule="evenodd" fill="#29324E" d="M304.616,345.297c0.932,0.76,0.709,1.82,0.732,2.816
		C303.569,347.574,304.509,346.328,304.616,345.297z"/>
	<path fill-rule="evenodd" clip-rule="evenodd" fill="#1D243D" d="M132.242,229.73c-1.021,2.285-2.068,1.627-3.123,0.025
		C130.159,229.746,131.201,229.738,132.242,229.73z"/>
	<path fill-rule="evenodd" clip-rule="evenodd" fill="#383E52" d="M255.384,296.27c0.416,0.166,0.832,0.33,1.248,0.496
		c-0.41,0.172-0.818,0.344-1.229,0.516C255.397,296.945,255.392,296.607,255.384,296.27z"/>
	<path fill-rule="evenodd" clip-rule="evenodd" fill="#2E354E" d="M203.148,344.281c-0.387-0.172-0.773-0.344-1.16-0.514
		c0.391-0.166,0.781-0.332,1.174-0.498C203.156,343.607,203.152,343.943,203.148,344.281z"/>
	<path fill-rule="evenodd" clip-rule="evenodd" fill="#2A334F" d="M89.533,269.285c0.266,0.266,0.531,0.531,0.796,0.797
		C89.625,270.254,89.416,269.934,89.533,269.285z"/>
	<path fill-rule="evenodd" clip-rule="evenodd" fill="#383E52" d="M255.374,301.271c0.127,0.238,0.279,0.469,0.363,0.721
		c0.016,0.049-0.229,0.186-0.354,0.281C255.38,301.939,255.376,301.605,255.374,301.271z"/>
	<path fill-rule="evenodd" clip-rule="evenodd" fill="#1D243D" d="M271.3,327.27c-0.129-0.232-0.279-0.457-0.365-0.705
		c-0.018-0.047,0.23-0.184,0.355-0.279C271.292,326.613,271.296,326.941,271.3,327.27z"/>
	<path fill-rule="evenodd" clip-rule="evenodd" fill="#F0F1F2" d="M183.009,70.302c0.123-1.988,0.256-3.976,0.364-5.965
		c0.058-1.064-0.104-2.285-1.487-1.877c-1.588,0.468-3.594,1.807-3.378-1.148c0.191-2.631-2.06-6.23,2.153-7.797
		c4.527-1.682,9.078-3.301,13.602-4.991c1.945-0.728,3.215-0.693,3.07,1.942c-0.164,3.001,1.016,6.363-3.314,7.773
		c-1.611,0.524-1.029,2.628-1.043,4.078c-0.088,10.162-0.213,20.324-0.184,30.485c0.023,8.127-5.701,12.983-10.922,17.417
		c-3.451,2.932-8.898,3.471-13.389,5.239c-2.447,0.964-3.807-1.982-6.057-1.396c-4.205-1.995-5.154-5.313-4.969-9.828
		c0.402-9.75,0.117-19.525,0.291-29.288c0.051-2.798-0.769-3.692-3.406-2.626c-2.93-2.642-2.664-7.987,0.592-9.308
		c4.77-1.935,9.641-3.616,14.447-5.462c2.166-0.832,3.084-0.282,2.927,2.124c-0.194,2.988,0.899,6.453-3.237,7.781
		c-3.59,3.173-1.022,7.193-1.49,10.796c-0.434,1.332-0.415,2.665-0.009,3.999c-0.015,3.671-0.029,7.341-0.044,11.011
		c-0.004,0.675-0.008,1.35-0.011,2.024c0.319,2.976-1.927,6.356,1.399,8.857c4.126,1.471,10.93-1.458,13.54-5.829
		c1.325-3.619,0.636-7.329,0.494-11.014c-0.001-0.685-0.001-1.368-0.001-2.053C183.386,80.269,183.43,75.286,183.009,70.302z"/>
	<path fill-rule="evenodd" clip-rule="evenodd" fill="#F0F1F2" d="M149.318,94.107c0,2.661-0.297,5.363,0.056,7.977
		c1.079,7.978-1.446,14.508-6.881,20.338c-2.101,2.252-4.06,4.237-7.058,5.17c-3.172,0.985-6.539,1.781-9.328,3.473
		c-5.9,3.577-9.941-0.065-14.343-2.897c-1.565-1.006-1.371-2.521-1.366-3.999c0.041-10.978-0.615-22.021,0.392-32.909
		c0.667-7.218,5.796-12.818,12.106-16.508c3.247-1.898,7.457-2.18,10.643-4.146c5.885-3.63,9.92-0.091,14.379,2.633
		c1.813,1.107,1.521,2.762,1.521,4.403c-0.003,5.488-0.002,10.978-0.002,16.466C149.398,94.107,149.358,94.107,149.318,94.107z
		 M139.599,97.349c0.023,0,0.046,0,0.069,0c0-2.827-0.017-5.655,0.003-8.482c0.076-10.933-0.559-11.494-10.629-7.481
		c-3.766,1.5-8.678,2.363-8.744,8.018c-0.115,9.812-0.133,19.625-0.145,29.438c-0.004,3.148,1.69,4.163,4.57,3.189
		c3.146-1.063,6.234-2.307,9.383-3.368c3.793-1.279,5.619-3.785,5.518-7.841C139.511,106.332,139.599,101.839,139.599,97.349z"/>
	<path fill-rule="evenodd" clip-rule="evenodd" fill="#F0F1F2" d="M75.578,101.508c0.072,0.391,0.053,0.587,0.14,0.713
		c7.933,11.564,7.935,11.565,14.435-0.477c1.019-1.887,2.014-3.785,3.129-5.884c-1.273-1.264-5.023,1.072-4.168-2.762
		c0.573-2.569-1.586-6.034,3.009-7.255c4.318-1.147,8.456-2.992,12.64-4.617c1.945-0.756,2.809-0.387,2.638,1.844
		c-0.239,3.116,0.974,6.426-3.358,8.348c-1.845,0.818-2.657,4.038-3.86,6.21c-2.095,3.78-3.722,7.896-6.272,11.332
		c-5.176,6.969-5.182,14.816-4.857,22.824c0.047,1.157-0.584,2.926,1.755,2.673c1.353-0.146,3.685-2.099,3.459,1.157
		c-0.185,2.645,1.942,6.23-2.225,7.778c-4.985,1.852-9.991,3.647-14.981,5.487c-1.223,0.45-2.588,0.708-2.359-1.12
		c0.385-3.081-2.051-7.366,3.303-8.588c0.434-0.099,0.883-0.504,1.154-0.888c1.203-1.693,0.354-16.66-1.11-18.377
		c-3.669-4.299-7.403-8.543-11.138-12.785c-0.538-0.611-1.349-1.646-1.826-1.541c-3.214,0.706-3.778-0.667-3.672-3.572
		c0.109-2.993,0.09-5.493,3.799-6.416c3.209-0.798,6.229-2.342,9.416-3.265c1.632-0.473,4.193-2.964,4.936-0.181
		c0.646,2.421,1.801,5.98-1.416,8.151C77.354,100.833,76.402,101.127,75.578,101.508z"/>
	<path fill-rule="evenodd" clip-rule="evenodd" fill="#26304B" d="M154.341,72.321c2.638-1.066,3.457-0.172,3.406,2.626
		c-0.174,9.763,0.111,19.538-0.291,29.288c-0.186,4.515,0.764,7.833,4.969,9.828c-0.678,2.079-3.793,2.932-2.154,6.06
		c-3.004-0.477-3.773-3.229-6.961-2.866c7.215-3.736-0.105-8.32,2.011-11.985c-0.001-1.997-0.001-3.994-0.003-5.991
		c-0.001-0.67-0.003-1.34-0.004-2.01c0.002-2.331,0.002-4.661,0.004-6.991c0.002-2.003,0.003-4.005,0.004-6.008
		c-0.41-2.655,1.008-5.537-0.987-7.997C154.336,74.956,154.339,73.639,154.341,72.321z"/>
	<path fill-rule="evenodd" clip-rule="evenodd" fill="#1D243D" d="M183.009,70.302c0.421,4.984,0.377,9.967-0.061,14.947
		C180.589,82.127,180.625,73.279,183.009,70.302z"/>
	<path fill-rule="evenodd" clip-rule="evenodd" fill="#2A334F" d="M154.334,76.274c1.995,2.46,0.577,5.342,0.987,7.997
		c-2.487-0.344-3.821-1.766-3.959-4.275C151.247,77.884,151.996,76.438,154.334,76.274z"/>
	<path fill-rule="evenodd" clip-rule="evenodd" fill="#2A334F" d="M155.318,90.279c-0.002,2.33-0.002,4.66-0.004,6.991
		c-2.461-0.36-3.954-1.728-3.875-4.262C151.515,90.572,153.346,90.231,155.318,90.279z"/>
	<path fill-rule="evenodd" clip-rule="evenodd" fill="#1D243D" d="M167.527,93.263c0.015-3.67,0.029-7.34,0.044-11.011
		c0.489-0.332,0.979-0.665,1.47-0.998C170.173,83.108,169.111,91.544,167.527,93.263z"/>
	<path fill-rule="evenodd" clip-rule="evenodd" fill="#1D243D" d="M167.58,78.253c0.468-3.603-2.1-7.623,1.49-10.796
		C168.619,71.061,171.328,75.102,167.58,78.253z"/>
	<path fill-rule="evenodd" clip-rule="evenodd" fill="#2A334F" d="M155.318,99.28c0.002,1.997,0.002,3.994,0.003,5.991
		c-2.012-0.146-3.016-1.238-2.912-3.243C152.501,100.232,153.592,99.396,155.318,99.28z"/>
	<path fill-rule="evenodd" clip-rule="evenodd" fill="#1D243D" d="M168.916,104.145c-3.326-2.501-1.08-5.882-1.399-8.857
		C171.246,97.725,168.793,101.138,168.916,104.145z"/>
	<path fill-rule="evenodd" clip-rule="evenodd" fill="#1D243D" d="M182.95,87.302c0.142,3.685,0.831,7.395-0.494,11.014
		C180.982,94.57,180.083,90.852,182.95,87.302z"/>
	<path fill-rule="evenodd" clip-rule="evenodd" fill="#27314E" d="M272.343,268.254c-8.926,0.006-17.852,0.021-26.774,0.008
		c-1.621-0.002-3.344,0.373-4.713-0.945c-0.172-0.348-0.344-0.695-0.516-1.043c0.254-1.924,0.883-2.84,3.264-2.504
		c2.664,0.377,6.194,1.291,4.084-4.238c-0.943-2.471-1.451-5.527-2.391-8.818c4.177,1.205,7.188,2.475,7.831,7.02
		c0.477,3.387,0.863,3.332,3.609,1.082c1.113,1.525,0.32,4.088,3.313,5.256c-2.896-5.668,5.82-6.861,3.631-12.168
		c3.074,0.832,3.074,0.832,4.426,7.41c1.301-2.418,2.406-4.506,4.846-5.092c0.113,0.297,0.225,0.596,0.342,0.891
		c0.723,1.832-2.932,3.395-0.889,4.715c2.371,1.531,5.516,0.086,7.504-1.197c2.666-1.721,0.557-3.959-1.313-4.949
		c-1.41-0.746-2.969-1.189-4.32-2.201c-3.094-2.316-2.805-4.758,0.039-6.662c2.645-1.771,6.963-2.227,2.506-7.119
		c2.992,0.221,3.357,1.951,4.18,3.029c1.834,2.4,4.492,2.123,6.299,1.117c4.979-2.775,7.209-3.451,14.402-3.104
		c2.459,0.117,2.332-2.34,2.098-3.617c-0.66-3.609-0.248-5.311,3.674-7.432c2.338-1.266,4.742-3.018,7.492-4.197
		c4.068-1.744,8.793-1.033,12.564-3.725c0.941-0.673,2.326,0.043,2.271,1.039c-0.063,1.139-0.748,2.807-1.643,3.23
		c-2.395,1.133-4.277,2.467-4.877,5.172c-3.779-2.268-7.066,0.527-10.402,1.363c-1.867,0.469-0.258,2.137,0.908,2.549
		c3.58,1.266,3.783,2.545,0.27,4.215c-2.709,1.289-4.719,2.773-1.547,5.762c1.127,1.061,1.086,2.549-0.244,3.459
		c-1.535,1.051-1.912-0.555-2.514-1.449c-0.547-0.811-0.932-1.965-2.199-1.574c-1.531,0.471-0.592,1.559-0.449,2.449
		c0.246,1.531-0.221,1.945-1.922,1.762c-7.365-0.789-14.77-0.721-22.172-0.654c-1.057,0.01-2.121-0.658-3.334-1.063
		c-0.338,1.451-0.668,2.871-1.082,4.65c4.35,0.053,8.906-1.996,12.449,2.123c0.715,0.832,1.902-0.871,2.83-1.506
		c1.754-1.197,3.461-2.705,5.908-1.461c-0.143,2.225-3.781,0.859-3.439,3.438l-0.004,0.004c-1.041,0.063-2.096,0.324-2.521,1.314
		c-1.438,3.334-3.184,4.305-5.563,0.855c-1.037-1.502-2-0.51-2.984-0.096c-0.779,0.33-1.582,0.902-1.453,1.793
		c0.195,1.338,1.461,1.088,2.387,1.152c1.773,0.123,2.137,1.225,2.107,2.725c-0.029,1.471-0.59,2.527-2.02,3.086
		c-4.436,1.732-12.197,0.697-16.26-2.223C267.481,265.229,273.724,265.381,272.343,268.254z M276.962,247.549
		c-0.109-0.279-0.152-0.709-0.348-0.795s-0.541,0.174-0.822,0.281c0.109,0.279,0.152,0.709,0.348,0.797
		C276.333,247.918,276.681,247.66,276.962,247.549z"/>
	<path fill-rule="evenodd" clip-rule="evenodd" fill="#DBDDE3" d="M276.304,163.26c-0.105,9.983-0.213,19.967-0.313,29.949
		c-0.012,1.166,0.035,2.333,0.01,3.499c-0.025,1.22-0.234,2.479-1.746,2.549c-1.959,0.091-1.891-1.446-1.895-2.79
		c-0.016-4.832-0.02-9.663-0.016-14.494c0.004-6.362-0.066-12.726,0.063-19.085c0.07-3.467-2.102-2.614-4.043-2.41
		c-4.27-0.104-8.537-0.211-12.807-0.312c-1.211-0.029-2.48-0.2-2.523-1.687c-0.045-1.585,1.307-1.614,2.475-1.67
		c3.275-0.153,6.551-0.301,9.828-0.451c7.104,0.693,7.01,0.691,7.131-6.565c0.035-2.167-0.965-4.566,0.861-6.528
		c1.617,0.118,2.324,0.966,2.277,2.603c-0.057,1.996,0.23,4.024-0.02,5.988c-0.549,4.292,1.334,5.564,5.381,5.219
		c3.473-0.296,6.992-0.129,10.486-0.022c1.344,0.04,3.551-0.748,3.66,1.376c0.119,2.277-2.15,1.527-3.459,1.56
		c-4.16,0.104-8.33,0.14-12.488-0.018C276.614,159.873,275.964,161.036,276.304,163.26z"/>
	<path fill-rule="evenodd" clip-rule="evenodd" fill="#383E52" d="M249.884,130.32c-4.126,1.377-5.583,4.65-5.444,8.552
		c0.445,12.461-2.416,24.257-6.082,36.06c-4.117,13.258,0.398,21.151,13.636,25.71c0.893,0.308,2.033,0.259,2.42,1.441
		c-0.957,1.393-2.516,1.159-3.885,1.438c-0.785-0.581-1.502-1.309-2.367-1.721c-11.8-5.611-16.429-14.023-12.563-26.148
		c3.92-12.296,6.502-24.626,6.477-37.517c-0.006-3.93,1.748-7.018,4.984-9.244C248.835,127.668,250.114,127.524,249.884,130.32z"/>
	<path fill-rule="evenodd" clip-rule="evenodd" fill="#27314E" d="M263.948,243.979c-1.432-0.246-2.412-0.658-3.313-0.523
		c-2.486,0.369-5.23,2.27-7.004-1.078c-1.447-2.734,0.049-11.998,1.777-13.705c2.072-2.045,5.16,0.365,7.107-1.826
		c1.121,1.273,2.264,3.014,1.07,4.336c-5.408,5.998-0.486,3.529,2.551,3.547c2.184,0.014,4.514,1.008,6.48,2.102
		c1.109,0.615,3.365,1.627,1.727,3.797c-1.258,1.666-2.961,2.16-4.807,1.047c-0.955-0.576-1.637-2.004-2.566-2.133
		c-1.701-0.234-3.641-2.223-5.066-0.537C260.171,241.055,263.556,241.717,263.948,243.979z"/>
	<path fill-rule="evenodd" clip-rule="evenodd" fill="#383E52" d="M290.313,201.752c2.412-0.504,4.889-0.81,7.227-1.547
		c11.154-3.517,16.002-12.275,12.988-23.519c-1.568-5.844-3.389-11.619-5.096-17.426c0.697-0.013,1.393-0.025,2.09-0.037
		c1.705,5.357,3.617,10.66,5.074,16.085c3.57,13.305-1.215,22.308-14.104,27.017c-1.266,0.013-2.68-0.444-3.711,0.538
		C292.622,204.92,291.433,203.601,290.313,201.752z"/>
	<path fill-rule="evenodd" clip-rule="evenodd" fill="#8A90A0" d="M240.34,266.273c0.172,0.348,0.344,0.695,0.516,1.043
		c-1.832,0.361-3.666,0.725-5.5,1.086c-0.488-0.029-0.977-0.092-1.465-0.084c-8.189,0.105-8.189,0.107-9.604-6.955
		c1.289-2.018,0.135-4.059,0.059-6.088c0.182-1.297,0.807-2.096,2.232-2.092c3.688,0.016,7.375,0.006,12.264,0.006
		c-2.252,2.574-4.025,1.721-5.408,2.156c-2.891-1.141-2.842,2.781-5.025,2.916c-0.859,0.055-1.654,0.346-1.17,1.533
		c0.363,0.893,1.049,1.373,1.922,0.977c2.057-0.936,4.242-0.246,6.328-0.66c1.584,0.088,3.168,0.174,4.752,0.262v0.002
		c-1.5,2.547-4.08,1.67-6.287,1.996c-1.072,0.16-2.607-0.129-2.42,1.662c0.131,1.236,0.986,2.102,2.332,2.145
		C236.023,266.25,238.182,266.246,240.34,266.273z"/>
	<path fill-rule="evenodd" clip-rule="evenodd" fill="#27314E" d="M246.096,241.279c4.101,2.922,8.952,4.99,11.724,9.438
		c0.836,1.342,2.217,3.199,0.842,5c-0.701,0.922-1.836,0.289-2.705-0.199c-0.424-0.238-1.158-0.686-1.109-0.885
		c1.375-5.832-4.703-4.289-6.783-6.727c-1.048-1.227-3.284-1.127-3.671,1.314c-0.355,2.256-2.318,2.637-3.676,2.664
		c-3.52,0.07-7.049-0.451-11.258-0.793c2.098-2.221,2.689-5.039,6.428-2.531c2.992,2.008,8.48-2.197,9.449-6.654
		C245.627,241.746,245.881,241.535,246.096,241.279z"/>
	<path fill-rule="evenodd" clip-rule="evenodd" fill="#656772" d="M276.304,163.26c-0.34-2.224,0.311-3.387,2.863-3.29
		c4.158,0.157,8.328,0.121,12.488,0.018c1.309-0.032,3.578,0.718,3.459-1.56c-0.109-2.124-2.316-1.336-3.66-1.376
		c-3.494-0.106-7.014-0.273-10.486,0.022c-4.047,0.346-5.93-0.927-5.381-5.219c0.25-1.964-0.037-3.992,0.02-5.988
		c0.047-1.637-0.66-2.484-2.277-2.603c-0.021-0.466-0.045-0.932-0.066-1.397c3.563-1.188,4.283,0.712,4.365,3.76
		c0.256,9.471,0.311,9.47,9.686,9.464c2.154-0.001,4.314,0.078,6.461-0.041c2.504-0.138,3.672,0.858,3.68,3.427
		c0.008,2.538-1.146,3.594-3.629,3.562c-3.977-0.053-7.953-0.008-11.932,0.008c-1.635,0.007-3.357-0.278-4.594,1.231
		C276.968,163.271,276.636,163.266,276.304,163.26z"/>
	<path fill-rule="evenodd" clip-rule="evenodd" fill="#8A90A0" d="M246.096,241.279c-0.215,0.256-0.469,0.467-0.76,0.627
		c-4.68,0.193-9.357,0.389-14.037,0.586c-0.521-0.154-1.043-0.309-1.563-0.463c1.297-9.279,1.299-9.303,10.756-8.541
		c1.619,0.129,3.215,0.57,4.93,0.889c-0.594,1.184-1.48,0.928-2.189,1.006c-1.412,0.158-2.713,0.449-2.844,2.164
		c-0.139,1.789,1.34,2.076,2.582,2.5C244.033,240.41,245.352,240.107,246.096,241.279z M239.066,235
		c-0.398-0.105-0.771-0.273-1.137-0.262c-0.121,0.004-0.225,0.475-0.336,0.73c0.365,0.156,0.732,0.311,1.1,0.465
		C238.797,235.678,238.898,235.42,239.066,235z"/>
	<path fill-rule="evenodd" clip-rule="evenodd" fill="#DBDDE3" d="M264.817,183.209c1.949,4.905,0.535,10.03,3.313,15.36
		c-4.867-1.208-7.533-2.742-8.164-7.108C259.333,187.078,264.003,186.499,264.817,183.209z"/>
	<path fill-rule="evenodd" clip-rule="evenodd" fill="#383E52" d="M265.337,156.358c-3.277,0.15-6.553,0.298-9.828,0.451
		c-1.168,0.056-2.52,0.085-2.475,1.67c0.043,1.486,1.313,1.657,2.523,1.687c4.27,0.101,8.537,0.207,12.807,0.312
		c-0.043,0.683-0.088,1.366-0.133,2.05c-4.387-1.513-8.922-0.335-13.375-0.71c-2.18-0.185-3.811-0.384-3.705-3.323
		c0.1-2.718,1.289-3.437,3.721-3.321c3.488,0.166,6.984,0.171,10.477,0.245C265.353,155.731,265.349,156.045,265.337,156.358z"/>
	<path fill-rule="evenodd" clip-rule="evenodd" fill="#27314D" d="M330.358,162.297c0.664,3.656,1.328,7.313,1.992,10.968
		c-2.871-0.335-6.098-5.129-5.936-8.742C326.546,161.622,328.72,162.461,330.358,162.297z"/>
	<path fill-rule="evenodd" clip-rule="evenodd" fill="#DBDDE3" d="M279.573,199.122c5.15-3.237,6.203-7.755,7.439-13.167
		C289.354,194.991,287.122,199.046,279.573,199.122z"/>
	<path fill-rule="evenodd" clip-rule="evenodd" fill="#27314D" d="M308.294,91.209c5.012-2.202,8.639-0.119,12.217,1.997
		c0.754,0.445,0.908,1.446,0.479,2.21c-0.461,0.818-1.322,0.86-2.154,0.49C315.513,94.433,312.196,92.949,308.294,91.209z"/>
	<path fill-rule="evenodd" clip-rule="evenodd" fill="#DBDDE3" d="M245.311,222.109c0-0.582-0.002-1.166-0.002-1.748
		c6.233,0,12.466,0,18.7,0c-0.006,0.582-0.012,1.166-0.018,1.748C257.765,222.109,251.536,222.109,245.311,222.109z"/>
	<path fill-rule="evenodd" clip-rule="evenodd" fill="#DBDDE3" d="M303.333,220.259c0.014,0.604,0.029,1.208,0.045,1.812
		c-5.428,0.121-10.855,0.256-16.283,0.359c-1.498,0.027-3.158,0.162-2.768-2.217c4.994-0.044,9.986-0.088,14.98-0.132
		C300.649,220.141,301.991,220.199,303.333,220.259z"/>
	<path fill-rule="evenodd" clip-rule="evenodd" fill="#27314D" d="M341.39,204.926c-0.176,0.639-0.492,1.896-0.871,3.136
		c-0.273,0.895-0.389,2.15-1.811,1.65c-0.793-0.279-1.492-1.178-0.766-1.919c1.508-1.539-0.818-2.181-0.602-3.42
		c0.273-1.559-0.576-3.354,0.83-4.636c0.324-0.296,1.322-0.19,1.803,0.088C341.737,200.84,341.235,202.66,341.39,204.926z"/>
	<path fill-rule="evenodd" clip-rule="evenodd" fill="#27314E" d="M291.399,232.752c-0.195-3.406-9.537-1.477-4.012-8.629
		C287.45,228.117,294.464,227.172,291.399,232.752z"/>
	<path fill-rule="evenodd" clip-rule="evenodd" fill="#656772" d="M235.488,260.111c-2.086,0.414-4.271-0.275-6.328,0.66
		c-0.873,0.396-1.559-0.084-1.922-0.977c-0.484-1.188,0.311-1.479,1.17-1.533c2.184-0.135,2.135-4.057,5.025-2.916
		C234.395,256.816,235.637,258.164,235.488,260.111z"/>
	<path fill-rule="evenodd" clip-rule="evenodd" fill="#1D243D" d="M299.308,220.081c-4.994,0.044-9.986,0.088-14.98,0.132
		c0.396-2.369,2.256-1.916,3.816-1.93c3.744-0.032,7.488-0.006,11.23-0.004C299.353,218.88,299.329,219.48,299.308,220.081z"/>
	<path fill-rule="evenodd" clip-rule="evenodd" fill="#27314E" d="M220.432,222.297c0.023-1.467,0.912-2.109,2.221-1.914
		c2.184,0.326,3.516,1.643,3.596,3.924c0.041,1.164-0.529,1.895-1.824,1.447C222.646,225.139,220.371,225.053,220.432,222.297z"/>
	<path fill-rule="evenodd" clip-rule="evenodd" fill="#27314D" d="M327.341,110.274c1.115,3.55,1.078,7.091-0.074,10.625
		c-0.299,0.92-1.012,1.477-1.836,1.058c-1.07-0.545-0.434-1.291,0.131-1.923c1.193-1.333,0.678-2.739,0.135-4.138
		c-0.893-2.294-0.199-4.124,1.641-5.619L327.341,110.274z"/>
	<path fill-rule="evenodd" clip-rule="evenodd" fill="#27314E" d="M224.346,255.275c0.076,2.029,1.23,4.07-0.059,6.088
		C221.504,260.322,221.527,257.883,224.346,255.275z"/>
	<path fill-rule="evenodd" clip-rule="evenodd" fill="#27314E" d="M273.433,215.063c-2.67,1.242-4.477,2.083-6.834,3.181
		C267.663,214.439,269.499,213.458,273.433,215.063z"/>
	<path fill-rule="evenodd" clip-rule="evenodd" fill="#27314E" d="M227.924,222.697c3.207-0.357,5.002,0.57,7.203,1.217
		C232.221,225.221,232.221,225.221,227.924,222.697z"/>
	<path fill-rule="evenodd" clip-rule="evenodd" fill="#27314E" d="M284.228,231.863c1.154,2.16,1.953,4.361-1.137,6.514
		C282.833,235.803,284.245,233.924,284.228,231.863z"/>
	<path fill-rule="evenodd" clip-rule="evenodd" fill="#27314D" d="M336.353,186.269c2.297,1.015,1.98,3.072,1.998,4.998
		C335.772,190.364,335.364,188.595,336.353,186.269z"/>
	<path fill-rule="evenodd" clip-rule="evenodd" fill="#27314D" d="M337.013,211.447c0.889,0.073,1.633,0.498,1.826,1.356
		c0.244,1.088-0.572,1.367-1.459,1.386c-0.875,0.02-1.682-0.223-1.801-1.228C335.464,211.986,336.022,211.474,337.013,211.447z"/>
	<path fill-rule="evenodd" clip-rule="evenodd" fill="#27314E" d="M216.498,217.627c0.93,0.758,1.537,1.55,1.424,2.608
		c-0.027,0.255-0.807,0.712-1.043,0.612c-0.98-0.418-1.607-1.214-1.303-2.345C215.67,218.151,216.184,217.912,216.498,217.627z"/>
	<path fill-rule="evenodd" clip-rule="evenodd" fill="#27314E" d="M250.341,234.85c0.867,0.121,0.896,0.803,0.895,1.441
		c0,0.641-0.053,1.406-0.918,1.398c-0.873-0.006-0.896-0.779-0.893-1.42C249.429,235.633,249.454,234.947,250.341,234.85z"/>
	<path fill-rule="evenodd" clip-rule="evenodd" fill="#27314E" d="M239.816,245.271c-0.125,0.863-0.797,0.91-1.441,0.906
		c-0.637-0.004-1.416-0.029-1.41-0.908c0.004-0.869,0.775-0.9,1.414-0.904C239.023,244.361,239.703,244.395,239.816,245.271z"/>
	<path fill-rule="evenodd" clip-rule="evenodd" fill="#383E52" d="M299.308,220.081c0.021-0.601,0.045-1.201,0.066-1.802
		c0.707-0.018,1.412-0.036,2.117-0.055c1.344,0.018,1.99,0.666,1.842,2.034C301.991,220.199,300.649,220.141,299.308,220.081z"/>
	<path fill-rule="evenodd" clip-rule="evenodd" fill="#27314E" d="M247.234,224.02c0.219,0.428,0.564,0.807,0.584,1.199
		c0.039,0.859-0.656,0.992-1.266,0.807c-0.314-0.094-0.502-0.604-0.748-0.928C246.141,224.846,246.477,224.592,247.234,224.02z"/>
	<path fill-rule="evenodd" clip-rule="evenodd" fill="#27314E" d="M214.598,215.17c-0.428,0.219-0.807,0.564-1.201,0.583
		c-0.859,0.039-0.99-0.656-0.807-1.266c0.096-0.314,0.605-0.503,0.928-0.748C213.771,214.074,214.023,214.409,214.598,215.17z"/>
	<path fill-rule="evenodd" clip-rule="evenodd" fill="#27314E" d="M229.736,242.029c0.52,0.154,1.041,0.309,1.563,0.463
		c-0.553,0.793-1.221,1.947-2.221,1.289C228.105,243.139,229.059,242.467,229.736,242.029z"/>
	<path fill-rule="evenodd" clip-rule="evenodd" fill="#27314E" d="M232.223,244.541c0.281,0.307,0.666,0.674,0.639,0.705
		c-0.271,0.334-0.566,0.768-0.939,0.871c-0.492,0.137-1.064-0.127-0.768-0.775C231.314,244.986,231.852,244.803,232.223,244.541z"/>
	<path fill-rule="evenodd" clip-rule="evenodd" fill="#383E52" d="M297.644,208.236c0.502,1.415-0.135,2.366-1.268,3.116
		C296.38,210.144,296.077,208.811,297.644,208.236z"/>
	<path fill-rule="evenodd" clip-rule="evenodd" fill="#383E52" d="M258.923,202.106c0.297-0.621,0.594-1.242,0.891-1.863
		c0.654,0.141,1.318,0.46,1.107,1.19C260.63,202.437,259.698,202.186,258.923,202.106z"/>
	<path fill-rule="evenodd" clip-rule="evenodd" fill="#383E52" d="M250.511,207.293c0.004-0.708,0.01-1.416,0.014-2.125
		c0.463,0.358,0.928,0.716,1.393,1.074C251.448,206.593,250.979,206.943,250.511,207.293z"/>
	<path fill-rule="evenodd" clip-rule="evenodd" fill="#27314D" d="M323.954,98.006c-0.121,0.276-0.184,0.702-0.383,0.782
		c-0.195,0.078-0.531-0.197-0.805-0.317c0.119-0.275,0.18-0.703,0.379-0.782C323.341,97.61,323.679,97.885,323.954,98.006z"/>
	<path fill-rule="evenodd" clip-rule="evenodd" fill="#27314D" d="M326.954,125.006c-0.121,0.276-0.184,0.702-0.383,0.781
		c-0.195,0.078-0.531-0.196-0.805-0.316c0.119-0.275,0.18-0.703,0.379-0.782C326.343,124.611,326.679,124.885,326.954,125.006z"/>
	<path fill-rule="evenodd" clip-rule="evenodd" fill="#27314E" d="M258.067,224.701c0.275,0.117,0.551,0.236,0.826,0.355
		c-0.119,0.273-0.178,0.703-0.375,0.779c-0.199,0.078-0.533-0.193-0.809-0.311C257.829,225.25,257.948,224.977,258.067,224.701z"/>
	<path fill-rule="evenodd" clip-rule="evenodd" fill="#27314E" d="M299.915,225.004c-0.117,0.275-0.236,0.551-0.355,0.824
		c-0.273-0.117-0.703-0.176-0.779-0.373c-0.078-0.199,0.193-0.533,0.311-0.809C299.366,224.766,299.64,224.885,299.915,225.004z"/>
	<path fill-rule="evenodd" clip-rule="evenodd" fill="#27314E" d="M303.96,225.553c-0.279,0.107-0.627,0.367-0.82,0.279
		c-0.195-0.086-0.236-0.516-0.346-0.795c0.279-0.107,0.625-0.367,0.82-0.281C303.808,224.842,303.851,225.271,303.96,225.553z"/>
	<path fill-rule="evenodd" clip-rule="evenodd" fill="#27314E" d="M265.915,247.002c-0.117,0.275-0.236,0.551-0.355,0.826
		c-0.273-0.119-0.703-0.178-0.779-0.373c-0.078-0.201,0.193-0.535,0.311-0.811C265.366,246.764,265.64,246.883,265.915,247.002z"/>
	<path fill-rule="evenodd" clip-rule="evenodd" fill="#27314E" d="M235.309,231.025c-0.113-0.094-0.227-0.188-0.34-0.281
		c0.131-0.072,0.268-0.207,0.391-0.197c0.121,0.012,0.23,0.17,0.344,0.264C235.572,230.883,235.439,230.953,235.309,231.025z"/>
	<path fill-rule="evenodd" clip-rule="evenodd" fill="#383E52" d="M259.261,199.467c-0.43-0.345-0.861-0.688-1.293-1.033
		C258.399,198.778,258.831,199.122,259.261,199.467z"/>
	<path fill-rule="evenodd" clip-rule="evenodd" fill="#27314E" d="M240.24,260.373c0.146-0.145,0.291-0.289,0.438-0.436
		c-0.029,0.086-0.033,0.199-0.092,0.25c-0.098,0.084-0.229,0.127-0.346,0.188V260.373z"/>
	<path fill-rule="evenodd" clip-rule="evenodd" fill="#8A90A0" d="M246.367,102.515c-0.953-0.278-2.008-0.525-1.947-1.802
		c0.057-1.21,0.939-1.638,2.023-1.632c1.638,0.01,3.276,0.083,4.915,0.129c2.484,0.116,4.969,0.232,7.455,0.347
		c0.479,0.809,0.578,1.62,0.01,2.433C254.671,102.164,250.519,102.34,246.367,102.515z"/>
	<path fill-rule="evenodd" clip-rule="evenodd" fill="#8A90A0" d="M253.329,79.319c-0.113-2.687,1.797-3.938,3.701-3.015
		c3.789,1.837,7.592,0.361,11.326,0.933c0-0.001,0.035,0.012,0.035,0.013c-0.146,0.606-0.295,1.214-0.441,1.821
		c-1.867,0.092-3.734,0.184-5.6,0.275c-2.016,0.091-4.031,0.181-6.045,0.271C255.313,79.518,254.321,79.419,253.329,79.319z"/>
	<path fill-rule="evenodd" clip-rule="evenodd" fill="#8A90A0" d="M244.676,96.484c-0.943-3.172-0.072-4.81,3.526-4.28
		c1.307,0.192,2.641,0.208,3.963,0.304c0.006,0.844,0.012,1.688,0.016,2.531c-0.287,0.046-0.566,0.12-0.84,0.223
		c-0.986,0.005-1.975,0.009-2.961,0.014C247.145,95.679,245.91,96.081,244.676,96.484z"/>
	<path fill-rule="evenodd" clip-rule="evenodd" fill="#8A90A0" d="M269.333,75.25c-3.582,0.06-7.164,0.142-10.746,0.163
		c-0.92,0.005-2.178,0.144-2.102-1.29c0.053-0.992,1.131-0.963,1.889-1.157C261.966,74.016,266.269,71.666,269.333,75.25z"/>
	<path fill-rule="evenodd" clip-rule="evenodd" fill="#656772" d="M252.181,95.039c-0.004-0.844-0.01-1.688-0.016-2.531
		c2.365-0.028,4.73-0.058,7.096-0.085c1.678,0.718,2.248,1.555,0.082,2.319C257.011,95.566,254.585,95.324,252.181,95.039z"/>
	<path fill-rule="evenodd" clip-rule="evenodd" fill="#F0F1F2" d="M249.323,87.154c-0.129,1.902-0.129,1.902,2.211,2.663
		c-6.872,0.967-7.429,0.539-6.187-4.753c0.33,0.107,0.662,0.216,0.992,0.323c0.303,0.499,0.635,0.557,1.002,0.065
		c0.821-0.139,1.61-0.188,2.03,0.755C249.341,86.522,249.323,86.838,249.323,87.154z"/>
	<path fill-rule="evenodd" clip-rule="evenodd" fill="#DBDDE3" d="M240.029,64.625c-2.516,0.368-3.01,2.88-4.543,4.29
		c-1.43-4.631-0.717-5.5,4.813-5.873c0.58,0.19,1.084,0.441,0.967,1.194C240.854,64.366,240.441,64.495,240.029,64.625z"/>
	<path fill-rule="evenodd" clip-rule="evenodd" fill="#8A90A0" d="M247.379,62.439c-0.434-0.511-0.801-1.601-0.26-1.6
		c3.464,0.005,6.815-2.361,10.353-0.532C254.224,61.566,250.813,62.064,247.379,62.439z"/>
	<path fill-rule="evenodd" clip-rule="evenodd" fill="#DBDDE3" d="M244.676,96.484c1.234-0.403,2.469-0.806,3.704-1.209
		c0.6,1.627,1.895,0.877,2.973,0.87c0.547,0.198,1.094,0.396,1.639,0.595c-0.572,0.45-1.145,0.901-1.719,1.352
		C249.103,97.434,246.035,100.47,244.676,96.484z"/>
	<path fill-rule="evenodd" clip-rule="evenodd" fill="#383E52" d="M256.306,79.617c2.014-0.09,4.029-0.18,6.045-0.271
		C260.46,82.256,258.444,82.324,256.306,79.617z"/>
	<path fill-rule="evenodd" clip-rule="evenodd" fill="#383E52" d="M262.739,96.995c-2.311,1.535-3.617,1.677-5.178,0.322
		C258.979,95.671,260.366,96.363,262.739,96.995z"/>
	<path fill-rule="evenodd" clip-rule="evenodd" fill="#383E52" d="M258.823,101.989c0.568-0.813,0.469-1.624-0.01-2.433
		c1.385-0.285,3.039-0.079,3.016,1.415C261.802,102.932,259.991,102.04,258.823,101.989z"/>
	<path fill-rule="evenodd" clip-rule="evenodd" fill="#474D5F" d="M241.266,64.236c0.117-0.753-0.387-1.004-0.967-1.194
		c0.146-0.876,0.459-1.753,1.523-1.427c0.508,0.157,1.125,0.895,1.178,1.421C243.115,64.19,242.09,64.17,241.266,64.236z"/>
	<path fill-rule="evenodd" clip-rule="evenodd" fill="#DBDDE3" d="M249.323,87.154c0-0.316,0.018-0.632,0.049-0.946
		c1.922,0.054,3.844,0.107,5.768,0.161C253.368,87.876,251.298,87.165,249.323,87.154z"/>
	<path fill-rule="evenodd" clip-rule="evenodd" fill="#26304B" d="M306.196,98.3c0.025,1.709,1.049,3.59-0.854,4.966
		C305.556,101.599,304.751,99.755,306.196,98.3z"/>
	<path fill-rule="evenodd" clip-rule="evenodd" fill="#383E52" d="M267.95,79.071c0.146-0.607,0.295-1.215,0.441-1.821
		c0.662,0.076,1.523,0.199,1.479,0.956C269.798,79.411,268.747,79.105,267.95,79.071z"/>
	<path fill-rule="evenodd" clip-rule="evenodd" fill="#383E52" d="M251.353,96.146c-1.078,0.007-2.373,0.757-2.973-0.87
		c0.986-0.005,1.975-0.009,2.961-0.014C251.341,95.556,251.345,95.851,251.353,96.146z"/>
	<path fill-rule="evenodd" clip-rule="evenodd" fill="#DBDDE3" d="M247.342,85.453c-0.367,0.491-0.699,0.434-1.002-0.065
		C246.674,85.409,247.008,85.431,247.342,85.453z"/>
	<path fill-rule="evenodd" clip-rule="evenodd" fill="#27314E" d="M326.337,268.238c-2,0.01-3.998,0.02-5.996,0.027
		c0.613-2.684,1.227-5.367,1.91-8.363c-2.336-0.26-2.754,2.582-4.711,2.346c-2.105-0.252-4.971,0.945-3.461-3.52
		c0.564-1.67,2.516-6.65-3.387-5.879c-1.342,0.178-1.418-1.191-1.232-2.17c0.234-1.252,0.688-2.391,2.256-1.055
		c0.354,0.301,0.861,0.457,1.324,0.586c2.967,0.832,5.168,3.004,9.008,2.607c3.229-0.334,3.744,4.445,4.184,7.473
		C326.608,262.891,326.327,265.586,326.337,268.238z"/>
	<path fill-rule="evenodd" clip-rule="evenodd" fill="#27314E" d="M308.616,255.779c1.078,1.27-4.908,2.693,0.25,3.637
		c1.063,0.193,1.297,1.014,0.699,1.818c-0.775,1.045-2.314,1.492-3.049,0.727c-1.707-1.779-3.781-1.209-5.883-1.164
		C301.897,256.238,304.077,253.936,308.616,255.779z"/>
	<path fill-rule="evenodd" clip-rule="evenodd" fill="#27314E" d="M294.337,268.258c-1.664,0-3.328,0-4.994,0
		c0.109-1.801,1.41-2.535,2.871-2.629C293.843,265.525,294.2,266.91,294.337,268.258z"/>
	<path fill-rule="evenodd" clip-rule="evenodd" fill="#27314E" d="M318.337,268.262c-1.332-0.002-2.662-0.002-3.994-0.002
		c0.107-1.09-0.266-2.57,1.313-2.762C317.54,265.271,318.177,266.621,318.337,268.262z"/>
	<path fill-rule="evenodd" clip-rule="evenodd" fill="#27314E" d="M301.337,268.262c-0.998-0.002-1.994-0.006-2.992-0.008
		c0.131-0.803,0.238-1.66,1.264-1.787C300.933,266.305,301.194,267.246,301.337,268.262z"/>
	<path fill-rule="evenodd" clip-rule="evenodd" fill="#27314E" d="M296.343,253.273c1.037,0.059,2.072,0.115,4.439,0.248
		c-2.541,1.111-3.824,2.734-4.443-0.244L296.343,253.273z"/>
	<path fill-rule="evenodd" clip-rule="evenodd" fill="#29324E" d="M225.377,105.287c-0.195,7.304,0.115,14.57,0.814,21.86
		c1.857,19.39-1.096,38.028-8.986,55.938c-3.213,7.294-5.104,15.045-4.137,23.192c-2.473-0.809-2.629-3.078-2.172-4.816
		c0.846-3.229,0.252-6.182-0.566-9.209c0.008-0.633,0.016-1.266,0.025-1.899c2.279-5.602,4.561-11.202,6.84-16.804
		c0.391-1.681,0.779-3.362,1.168-5.043c2.615-3.322,3.268-7.164,2.988-11.254c-0.008-0.988-0.014-1.978-0.02-2.966
		c-0.609-1.646,2.854-2,1.254-3.959c0.42-7.947,0.525-15.886-0.023-23.84c-0.49-7.088-1.346-14.226,0.971-21.198
		C224.148,105.289,224.764,105.288,225.377,105.287z"/>
	<path fill-rule="evenodd" clip-rule="evenodd" fill="#DBDDE3" d="M223.533,105.29c-2.316,6.973-1.461,14.11-0.971,21.198
		c0.549,7.954,0.443,15.893,0.023,23.84c-1.816,0.214-2.438-0.729-2.121-2.356c1.867-9.594-0.104-19.108-0.611-28.646
		c-0.283-5.319-0.467-10.599,1.258-15.723c0.717-2.13,1.434-4.36,4.109-5.513C225.811,100.961,223.266,102.823,223.533,105.29z"/>
	<path fill-rule="evenodd" clip-rule="evenodd" fill="#8A90A0" d="M221.352,157.253c0.279,4.09-0.373,7.932-2.988,11.253
		c-0.354-0.07-0.709-0.142-1.064-0.213c0.582-2.662,1.164-5.325,1.744-7.987c0.16-0.913,0.318-1.826,0.479-2.74
		C220.131,157.46,220.74,157.356,221.352,157.253z"/>
	<path fill-rule="evenodd" clip-rule="evenodd" fill="#474D5F" d="M221.352,157.253c-0.611,0.104-1.221,0.207-1.83,0.313
		c-0.182-1.525-0.408-3.076,1.811-3.278C221.338,155.275,221.344,156.265,221.352,157.253z"/>
	<path fill-rule="evenodd" clip-rule="evenodd" fill="#27314E" d="M192.347,191.279c1.283-0.045,1.945-0.715,2.006-1.99
		c2.159-0.085,2.521-2.456,4.177-3.284c1.05-0.524,1.837-1.511,3.001-0.404c1.193,1.135,1.08,3.176,0.102,3.459
		C198.592,189.938,196.15,193.711,192.347,191.279z"/>
	<path fill-rule="evenodd" clip-rule="evenodd" fill="#8A90A0" d="M217.195,173.55c-2.279,5.602-4.561,11.202-6.84,16.804
		c-2.307-2.72,0.781-4.697,0.973-7.073c1.695-3.142,3.213-6.355,4.102-9.833C216.018,173.48,216.607,173.516,217.195,173.55z"/>
	<path fill-rule="evenodd" clip-rule="evenodd" fill="#383E52" d="M217.195,173.55c-0.588-0.034-1.178-0.069-1.766-0.103
		c-0.213-2.021,0.318-3.772,1.869-5.154c0.355,0.071,0.711,0.143,1.064,0.213C217.975,170.188,217.586,171.869,217.195,173.55z"/>
	<path fill-rule="evenodd" clip-rule="evenodd" fill="#26304B" d="M139.599,97.349c0,4.49-0.088,8.983,0.025,13.472
		c0.102,4.056-1.725,6.562-5.518,7.841c-3.148,1.062-6.236,2.305-9.383,3.368c-2.88,0.974-4.574-0.041-4.57-3.189
		c0.012-9.813,0.029-19.626,0.145-29.438c0.066-5.654,4.979-6.518,8.744-8.018c10.07-4.013,10.705-3.451,10.629,7.481
		c-0.02,2.827-0.003,5.655-0.003,8.482C139.645,97.349,139.623,97.349,139.599,97.349z"/>
	<path fill-rule="evenodd" clip-rule="evenodd" fill="#26304B" d="M298.415,130.422c-0.43,3.888-2.582,5.1-6.443,5.03
		c-11.787-0.21-23.582-0.205-35.367,0.019c-3.994,0.076-6.352-1.069-6.738-5.219c-1.477-2.799,1.506-5.194,0.717-7.931
		c3.061-0.751,6.113-1.276,9.316-1.206c7.145,0.158,14.297,0.09,21.443,0.026c1.742-0.016,3.723,0.646,5.08-1.173
		c1.613-0.027,3.227-0.055,4.838-0.082c2.326,1.61,5.025,2.781,6.438,5.466c0.141,0.661,0.279,1.322,0.42,1.982
		C296.897,128.491,298.302,129.395,298.415,130.422z"/>
	<path fill-rule="evenodd" clip-rule="evenodd" fill="#474D5F" d="M286.423,119.969c-1.357,1.819-3.338,1.157-5.08,1.173
		c-7.146,0.063-14.299,0.132-21.443-0.026c-3.203-0.07-6.256,0.455-9.316,1.206c0.451-2.273,2.195-2.803,4.094-2.758
		C265.259,119.815,275.853,118.975,286.423,119.969z"/>
	<path fill-rule="evenodd" clip-rule="evenodd" fill="#1D243D" d="M307.522,159.224c-0.697,0.012-1.393,0.024-2.09,0.037
		c-1.822-5.458-0.904-11.108-1.137-16.675c-0.09-2.136-0.074-4.262-0.842-6.296c0.109-0.103,0.322-0.229,0.307-0.305
		c-0.055-0.252-0.193-0.487-0.301-0.729c-0.109-0.25-0.191-0.511-0.24-0.78c0.076-0.851,0.152-1.701,0.229-2.552
		c3.469,2.516,2.375,6.486,2.813,9.807c0.535,4.055,0.33,8.25,0.025,12.354C306.14,156.068,307.495,157.434,307.522,159.224z"/>
	<path fill-rule="evenodd" clip-rule="evenodd" fill="#474D5F" d="M297.698,125.353c-1.412-2.685-4.111-3.855-6.438-5.466
		C297.091,119.309,297.979,120.063,297.698,125.353z"/>
	<path fill-rule="evenodd" clip-rule="evenodd" fill="#474D5F" d="M303.448,131.925c-0.076,0.851-0.152,1.701-0.229,2.552
		c-1.443-1.538-2.328-3.739-4.805-4.055c-0.113-1.027-1.518-1.931-0.297-3.087C300.196,128.515,302.624,129.287,303.448,131.925z"/>
	<path fill-rule="evenodd" clip-rule="evenodd" fill="#2E354E" d="M265.337,156.358c0.012-0.313,0.016-0.627,0.012-0.94
		c1.775-0.191,1.906-1.332,1.578-2.736c0.186-0.18,0.369-0.363,0.547-0.552c1.939,1.075,3.326,1.96,3.602-1.658
		c0.219-2.869-2.25-6.736,2.188-8.604c0.021,0.466,0.045,0.932,0.066,1.397c-1.826,1.962-0.826,4.361-0.861,6.528
		C272.347,157.05,272.44,157.052,265.337,156.358z"/>
	<path fill-rule="evenodd" clip-rule="evenodd" fill="#474D5F" d="M303.46,135.257c0.107,0.241,0.246,0.477,0.301,0.729
		c0.016,0.075-0.197,0.202-0.307,0.305C303.456,135.945,303.458,135.602,303.46,135.257z"/>
	<path fill-rule="evenodd" clip-rule="evenodd" fill="#2E354E" d="M266.927,152.682c-0.354-0.36-0.541-0.746-0.035-1.102
		c0.043-0.031,0.381,0.357,0.582,0.551C267.296,152.318,267.112,152.502,266.927,152.682z"/>
	<path fill-rule="evenodd" clip-rule="evenodd" fill="#26304B" d="M276.962,247.551c-0.281,0.109-0.629,0.367-0.822,0.281
		c-0.195-0.088-0.238-0.518-0.348-0.797c0.281-0.107,0.627-0.367,0.822-0.281S276.853,247.27,276.962,247.551z"/>
	<path fill-rule="evenodd" clip-rule="evenodd" fill="#26304B" d="M239.066,235c-0.168,0.42-0.27,0.678-0.373,0.934
		c-0.367-0.154-0.734-0.309-1.1-0.465c0.111-0.256,0.215-0.727,0.336-0.73C238.295,234.727,238.668,234.895,239.066,235z"/>
</g>
</svg>
