<?xml version="1.0" encoding="utf-8"?>
<!-- Generator: Adobe Illustrator 16.0.0, SVG Export Plug-In . SVG Version: 6.00 Build 0)  -->
<!DOCTYPE svg PUBLIC "-//W3C//DTD SVG 1.1//EN" "http://www.w3.org/Graphics/SVG/1.1/DTD/svg11.dtd">
<svg version="1.1" id="Layer_1" xmlns="http://www.w3.org/2000/svg" xmlns:xlink="http://www.w3.org/1999/xlink" x="0px" y="0px"
	 width="400px" height="400px" viewBox="0 0 400 400" enable-background="new 0 0 400 400" xml:space="preserve">
<g>
	<path fill-rule="evenodd" clip-rule="evenodd" d="M168.921,385.461c-26.453,3.197-52.479,6.347-78.885,9.539
		c0-4.342,0-8.112,0-12.454c12.33-1.639,24.604-3.323,36.889-4.892c8.94-1.141,17.884-2.333,26.857-3.099
		c4.009-0.343,4.993-1.952,4.971-5.77c-0.143-26.523-0.155-53.046,0.059-79.565c0.023-2.971,1.563-5.985,2.667-8.877
		c1.882-4.934,3.974-9.787,6.046-14.839c5.523,23.829,11.034,47.61,16.543,71.388c0.521,0.023,1.04,0.052,1.559,0.075
		c6.603-43.071,13.203-86.146,19.86-129.603c-5.42,0.676-10.173,0.93-14.722,2.027c-1.441,0.353-3.303,2.939-3.333,4.535
		c-0.314,16.66-0.31,33.325-0.359,49.99c-0.024,8.051,0.012,8.042-7.802,8.77c-1.519,0.141-3.028,0.385-5.272,0.676
		c0-20.57,0-40.935,0-61.464c-2.57,0-4.427,0-6.936,0c0.375-4.934,0.73-9.567,1.094-14.341c18.815-2.085,37.401-4.136,56.535-6.253
		c3.808,25.223,7.521,49.864,11.318,75.044c-4.601,0.587-8.849,1.132-13.374,1.709c-0.699-3.76-1.287-6.919-1.869-10.041
		c-8.984-1.863-9.998-1.226-11.426,7.103c-5.356,31.176-10.755,62.347-16.06,93.531c-1.308,7.689-7.3,3.976-11.825,5.544
		c-3.824-18.275-7.549-36.067-11.271-53.858c-0.42,0.065-0.842,0.131-1.263,0.192C168.921,335.329,168.921,360.125,168.921,385.461z
		 M209.87,208.534c-0.657-0.142-1.314-0.282-1.967-0.423c-6.081,40.757-12.161,81.509-18.242,122.266
		c0.371,0.057,0.741,0.112,1.11,0.164C197.139,289.874,203.505,249.206,209.87,208.534z M167.787,277.25
		c-0.417-0.169-0.835-0.338-1.255-0.507c-1.779,3.45-5.025,6.878-5.103,10.37c-0.472,21.853-0.239,43.724-0.239,65.59
		c0.652,0,1.305,0,1.958-0.004c0-18.994,0-37.992,0-56.99c-0.002-5.131-0.683-10.365,3.486-14.581
		C167.468,280.278,167.426,278.564,167.787,277.25z M219.17,241.695c-1.037-10.258-2.014-19.975-2.995-29.688
		c-0.343,0.005-0.681,0.01-1.019,0.01c-0.93,10.013-1.854,20.021-2.859,30.823C214.917,242.404,216.837,242.085,219.17,241.695z
		 M214.49,246.662c8.801,0.525,9.393,0.009,8.688-8.441c-0.328-3.952-0.99-7.882-1.497-11.82c-0.535,3.146-0.508,6.206-0.188,9.239
		C222.418,244.46,222.465,244.455,214.49,246.662z M185.882,199.089c-10.781-1.062-15.015,0.953-15.226,7.812
		C172.73,197.549,181.821,203.511,185.882,199.089z"/>
	<path fill-rule="evenodd" clip-rule="evenodd" d="M259.725,272.054c-4.168-2.276-8.22-4.483-13.2-7.206
		c0-0.328-0.159-2.037,0.023-3.713c2.361-21.426-4.868-41.043-11.356-60.816c-2.436-7.421-4.633-14.923-6.934-22.392
		c-2.389-7.765-2.385-7.765-11.486-6.042c0,2.85-0.268,5.892,0.065,8.872c0.517,4.643-1.146,6.826-5.948,6.558
		c-1.84-0.103-3.708,0.244-6.267,0.441c0-5.77,0.005-11.102-0.005-16.43c-0.019-17.684,0.08-35.373-0.154-53.047
		c-0.057-4.455,1.323-6.075,5.84-6.154c5.158-0.094,10.295-1.164,15.453-1.643c10.614-0.986,17.285,3.953,18.257,14.458
		c1.179,12.727,3.149,25.735-5.216,37.246c-0.647,0.892-0.656,2.647-0.301,3.802c4.605,14.919,9.333,29.8,15.206,44.747
		c1.948-7.619,3.892-15.242,5.882-23.035c5.512-0.911,10.98-1.709,16.402-2.732c8.445-1.596,10.929-4.638,10.961-13.355
		c0.052-13.839,0.033-27.678,0.015-41.517c-0.015-11.792-3.395-14.135-15.342-10.215c0,13.844,0.01,27.848-0.005,41.846
		c-0.004,4.807,0.085,9.619-0.196,14.407c-0.085,1.38-1.142,3.728-2.042,3.878c-6.568,1.084-13.206,1.723-20.055,2.53
		c-1.037-3.591-1.972-6.831-3.089-10.708c4.22-0.686,8.098-1.314,12.811-2.075c0-10.535,0-21.026,0-31.514
		c0-10.365,0-20.726,0-32.283c8.45-0.662,16.74-1.84,25.026-1.798c6.643,0.038,12.811,6.633,14.252,13.881
		c0.592,3,0.915,6.098,0.934,9.154c0.09,15.182,0.108,30.368,0.02,45.55c-0.075,13.543-3.681,23.566-21.172,25.293
		c-5.418,0.53-9.877,2.614-10.708,9.534c-0.718,6.014-3.46,11.75-4.634,17.745c-1.389,7.084-2.507,14.285-2.924,21.481
		C259.345,255.342,259.725,263.933,259.725,272.054z M217.16,126.227c0,10.567,0,20.608,0,30.617
		c11.746,0.901,15.417-2.422,15.432-13.6c0.004-3.249,0.041-6.502-0.01-9.75c-0.122-7.37-2.704-9.511-10.064-8.36
		C220.841,125.392,219.188,125.805,217.16,126.227z M255.124,216.008c0.371,0.141,0.742,0.286,1.113,0.427
		c0.863-2.507,2.206-4.953,2.507-7.525c1.408-12.06,5.347-21.242,20.077-19.754c1.39,0.141,2.948-0.784,4.338-1.417
		c5.201-2.366,8.173-6.497,8.225-12.168c0.155-16.05,0.057-32.11,0.057-48.165c-0.488-0.005-0.977-0.005-1.46-0.005
		c0,11.891,0.08,23.777-0.02,35.664c-0.178,21.81-1.755,23.735-23.298,26.392c-4.328,0.535-5.863,2.525-6.689,6.276
		C258.48,202.516,256.753,209.252,255.124,216.008z M277.057,108.229c-0.062-0.319-0.117-0.643-0.179-0.967
		c-5.014,0.587-10.032,1.173-14.825,1.732c0,13.811,0,26.753,0,39.691c0.456,0,0.906,0,1.357,0c0-12.75,0-25.509,0-38.457
		C268.489,109.487,272.775,108.857,277.057,108.229z M207.363,115.571c0,10.018,0,19.256,0,28.504c0.404,0,0.808,0.004,1.216,0.009
		c0-8.948,0-17.89,0-26.937c7.77-1.117,14.731-2.122,21.688-3.117c-0.028-0.272-0.052-0.54-0.08-0.807
		C222.7,113.993,215.213,114.763,207.363,115.571z M225.188,160.233c10.403,0.723,13.183-8.91,11.098-24.406
		C234.042,155.839,233.774,156.436,225.188,160.233z"/>
	<path fill-rule="evenodd" clip-rule="evenodd" d="M178.152,116.557c0.451,1.422,0.866,2.319,1.007,3.249
		c3.413,22.561,6.795,45.123,10.294,68.444c-7.436,1.263-14.656,2.662-21.93,3.652c-3.147,0.432-4.884,1.366-5.049,4.854
		c-0.141,3.009-1.437,5.999-1.361,8.98c0.155,6.098-3.178,7.717-8.44,7.971c-3.173,0.15-6.492,0.521-9.434,1.629
		c-5.105,1.925-7.088,6.159-4.408,10.867c2.488,4.366,6.019,8.37,9.814,11.713c10.985,9.666,15.264,21.993,11.285,33.856
		c-2.678,7.984-7.814,12.966-16.273,14.379c-8.133,1.361-13.569-2.667-18.071-8.736c-0.554-0.751-1.178-1.451-2.45-3.005
		c-0.207,2.427-0.453,3.995-0.456,5.563c-0.023,23.054,0,46.112-0.03,69.167c-0.005,4.605-0.075,9.347,6.088,9.82
		c4.385,0.338,7.748-4.183,7.791-10.337c0.12-17.684,0.084-35.367,0.11-53.056c0.002-1.301,0-2.605,0-4.277c3.58,0,6.769,0,10.372,0
		c0.157,1.005,0.528,2.268,0.531,3.53c0.035,18.069,0.378,36.147-0.211,54.197c-0.165,5.037-2.255,10.516-4.974,14.839
		c-4.331,6.887-12.424,9.3-19.111,7.141c-6.821-2.197-11.457-8.507-11.668-16.839c-0.263-10.37-0.101-20.745-0.105-31.119
		c-0.01-19.609-0.012-39.218,0.009-58.821c0-1.31,0.223-2.615,0.354-4.056c5.495-0.817,10.771-1.601,16.447-2.441
		c1.96,3.281,3.443,7.248,6.194,9.905c2.263,2.188,7.206,4.718,8.854,3.694c2.559-1.587,4.408-6.027,4.516-9.323
		c0.089-2.736-2.349-5.938-4.408-8.285c-4.168-4.751-9.185-8.774-13.231-13.619c-7.941-9.506-7.483-20.443-2.711-30.842
		c3.056-6.656,10.161-9.919,17.201-10.717c4.415-0.498,5.548-2.117,6.058-5.774c3.002-21.641,6.124-43.259,9.103-64.9
		c1.352-9.82,1.242-9.863,11.103-10.942C173.224,116.669,175.512,116.679,178.152,116.557z M170.381,143.751
		c-0.403-0.038-0.805-0.08-1.208-0.112c-1.305,11.304-2.608,22.613-3.995,34.635c3.767-0.61,6.471-1.052,9.487-1.54
		C173.179,165.303,171.78,154.525,170.381,143.751z M166.992,120.434c-0.113-0.235-0.228-0.465-0.34-0.695
		c-1.192,1.54-3.134,2.948-3.45,4.652c-1.575,8.482-2.796,17.041-4,25.589c-2.185,15.492-4.267,30.997-6.394,46.493
		c4.77-22.753,8.152-45.709,11.685-68.637C164.882,125.297,166.137,122.894,166.992,120.434z M117.897,262.515
		c-0.112-0.328-0.225-0.662-0.335-0.99c-1.059,1.413-3.023,2.816-3.037,4.239c-0.197,21.326-0.136,42.657-0.136,63.989
		c0.556,0,1.112,0,1.669,0c0-20.374-0.052-40.743,0.08-61.116C116.151,266.594,117.285,264.557,117.897,262.515z M175.629,151.375
		c-0.207,0.014-0.411,0.023-0.617,0.037c0,0.906-0.078,1.826,0.014,2.723c0.474,4.746,0.852,9.516,1.523,14.233
		c1.462,10.281,1.526,10.267-8.149,12.872c-0.5,0.141-0.941,0.488-2.394,1.267c2.749-0.225,4.436-0.272,6.098-0.507
		c7.619-1.051,7.64-1.099,6.607-8.534C177.69,166.101,176.657,158.74,175.629,151.375z M139.276,345.615
		c0.298,0.047,0.599,0.089,0.897,0.131c0-16.965,0-33.931,0-50.896c-0.298,0-0.599,0-0.897,0
		C139.276,311.773,139.276,328.696,139.276,345.615z"/>
	<path fill-rule="evenodd" clip-rule="evenodd" d="M222.738,320.627c-10.977,0.681-10.977,0.681-10.977,10.651
		c-0.004,11.703,0,23.401,0,36.222c39.32-4.868,78.176-9.685,117.539-14.557c0,4.365,0,8.28,0,12.754
		c-42.456,5.202-84.988,10.412-127.435,15.614c-3.398-11.9,0.552-52.272,9.887-96.461c0,8.014,0,16.026,0,24.65
		c10.355-1.239,20.05-2.08,29.616-3.671c5.268-0.873,8.033-9.487,6.047-16.825c-1.328-4.905-4.577-6.103-12.571-4.412
		c0,5.633,0,11.36,0,17.604c-4.126,0.563-7.943,1.085-12.342,1.681c0-9.741-0.08-18.744,0.094-27.739
		c0.023-1.159,1.276-3.206,2.122-3.3c7.027-0.751,14.111-1.667,21.148-1.479c6.126,0.169,10.351,4.178,11.971,10.069
		c2.873,10.436,2.84,20.523-5.465,28.88c10.44,9.464,12.178,28.692,2.836,39.16c-3.15,3.53-8.356,5.868-13.061,7.192
		c-6.008,1.689-12.459,1.793-19.41,2.671C222.738,346.244,222.738,333.682,222.738,320.627z M234.821,344.841
		c12.06-0.93,18.068-12.999,12.126-22.754c-2.324-3.821-6.037-4.343-9.525-2.963c-1.413,0.555-2.385,3.761-2.483,5.813
		C234.624,331.429,234.821,337.939,234.821,344.841z M236.605,309.956c8.698,1.493,13.332-1.816,14.158-11.098
		C247.984,306.342,243.355,309.637,236.605,309.956z M213.24,370.34c0.076,0.517,0.15,1.028,0.227,1.545
		c6.473-0.938,12.946-1.873,19.42-2.812c-0.042-0.329-0.084-0.662-0.131-0.991C226.254,368.833,219.747,369.589,213.24,370.34z"/>
	<path fill-rule="evenodd" clip-rule="evenodd" d="M274.268,207.322c8.567-0.873,8.906-0.601,8.868,5.709
		c-0.188,29.584-0.361,59.163-0.497,88.747c-0.057,12.276-0.01,24.557-0.01,37.776c9.628-1.197,18.787-2.333,28.5-3.54
		c0-24.646,0-48.985,0-73.768c10.891-1.328,21.256-2.596,31.945-3.905c0,4.474,0,8.22,0,12.439
		c-5.535,0.644-10.826,1.395-16.14,1.817c-3.258,0.263-4.756,1.375-4.614,4.938c0.253,6.487,0.07,12.994,0.07,19.923
		c5.243-0.535,9.909-1.01,14.971-1.525c0,4.178,0,8.106,0,12.439c-4.005,0.475-7.85,0.662-11.544,1.517
		c-1.333,0.31-3.221,2.169-3.276,3.394c-0.319,6.85-0.155,13.722-0.155,21.097c7.168-0.704,13.755-1.352,20.055-1.972
		c0.437,0.583,0.634,0.724,0.652,0.893c1.234,10.665,1.286,11.069-9.074,12.454c-20.505,2.736-41.071,4.976-62.271,7.502
		c0-2.23,0-4.108,0-5.985c-0.052-42.476-0.183-84.95-0.037-127.425C271.724,215.59,273.409,211.341,274.268,207.322z
		 M276.709,209.473c-0.774,3.089-2.197,6.164-2.221,9.258c-0.188,24.283-0.103,48.572-0.103,72.861
		C275.465,264.327,274.686,237.006,276.709,209.473z M314.283,319.467c0.455,0,0.91,0,1.366,0c0-17.791,0-35.583,0-53.168
		c3.39-0.846,6.084-1.521,8.778-2.192c-0.037-0.226-0.08-0.451-0.117-0.677c-3.348,0.484-6.689,0.968-10.027,1.451
		C314.283,283.235,314.283,301.352,314.283,319.467z"/>
	<path fill-rule="evenodd" clip-rule="evenodd" d="M239.957,108.121c-4.216-1.188-7.689-2.164-11.559-3.249
		c-1.75-7.286-3.563-14.834-5.402-22.505c-2.596,0.446-4.643,0.793-7.422,1.272c0,5.019-0.01,9.952,0,14.881
		c0.023,9.281-0.376,9.624-10.816,8.713c0-7.14,0-14.351,0-22.354c-3.218,0.366-5.786,0.657-8.914,1.019
		c-0.941,8.868,1.664,18.463-5.099,25.908c-1.877,2.065-4.194,3.737-6.957,6.159c-0.882-2.77-1.485-4.662-2.211-6.938
		c-4.009,0.413-8.021,0.582-11.931,1.3c-4.04,0.747-5.704-1.145-6.34-4.671c-0.373-2.065-0.927-4.145-0.941-6.22
		c-0.099-14.022-0.075-28.049-0.091-42.076c-0.007-6.45,2.173-12.107,6.678-16.651c4.469-4.507,9.905-6.736,16.238-4.511
		c6.464,2.267,9.823,7.257,10.257,13.923c0.359,5.53,0.073,11.098,0.073,17.088c-3.359,0.554-6.483,1.075-10.309,1.708
		c0-5.262,0.002-10.018-0.003-14.778c-0.004-3.938-1.567-7.126-5.762-7.164c-4.199-0.033-6.812,2.906-6.863,7.056
		c-0.176,14.984-0.242,29.974,0.117,44.949c0.049,2.047,2.45,5.267,4.286,5.689c1.915,0.446,4.828-1.427,6.603-3.056
		c1.178-1.075,1.427-3.479,1.551-5.328c0.23-3.441,0.066-6.911,0.066-10.37c0-12.52,0.009-12.436,12.705-13.778
		c7.805-0.826,15.573-2.014,23.371-2.934c5.141-0.606,7.296-3.789,7.567-8.544c0.188-3.253,0.137-6.53,0.07-9.797
		c-0.131-6.586-1.957-8.027-8.417-7.722c-3.624,0.174-5.149,1.356-4.962,5.15c0.264,5.352,0.066,10.722,0.066,16.515
		c-3.592,0.544-6.893,1.047-10.85,1.652c0-10.417-0.094-20.369,0.137-30.312c0.027-1.075,1.83-2.817,3.032-3.037
		c5.263-0.967,10.595-1.634,15.933-2.141c7.873-0.737,14.051,4.451,14.257,13.116c0.239,9.962,2.568,20.378-4.3,29.533
		c-1.019,1.356-0.113,4.394,0.343,6.558C235.971,90.742,237.961,99.267,239.957,108.121z M165.328,88.935c0.498,0,0.998,0,1.495,0
		c0-9.558-0.146-19.116,0.038-28.668c0.207-10.765,5.567-16.989,16.02-19.125c-9.426-1.207-17.222,5.549-17.489,15.684
		C165.109,67.519,165.328,78.231,165.328,88.935z"/>
	<path fill-rule="evenodd" clip-rule="evenodd" d="M144.698,36.329c0.293-3.324,0.051-5.76,0.84-7.802
		c0.604-1.568,2.383-3.601,3.845-3.784c26.251-3.314,52.533-6.356,78.805-9.511c10.45-1.253,20.886-2.647,32.194-4.084
		c0,14.478,0,28.495,0,42.522c0.53,0.113,1.062,0.225,1.592,0.338c2.774-6.159,6.149-12.13,8.168-18.529
		c2.253-7.122,6.196-10.473,14.205-9.304c-4.103,9.666-8.398,19.167-12.093,28.898c-1.032,2.718-1.159,6.403-0.225,9.14
		c3.83,11.22,8.229,22.242,12.359,33.18c-0.676,0.568-0.934,0.967-1.238,1.014c-9.98,1.456-9.985,1.446-13.487-8.018
		c-1.723-4.638-3.441-9.286-5.418-14.614c-6.469,8.037-2.656,17.12-4.417,25.655c-2.813,0.235-5.596,0.465-9.201,0.76
		c0-26.223,0-52.216,0-78.875C215.034,27.691,180.303,31.954,144.698,36.329z M267.273,50.093c0.375,0.103,0.751,0.207,1.127,0.31
		c3.154-6.839,6.313-13.679,9.469-20.514c-0.63-0.277-1.259-0.554-1.888-0.826C273.08,36.071,270.175,43.08,267.273,50.093z
		 M148.536,27.813c0.028,0.488,0.054,0.986,0.082,1.474c6.901-0.986,13.799-1.972,20.7-2.958c-0.038-0.3-0.075-0.596-0.113-0.892
		C162.313,26.227,155.425,27.02,148.536,27.813z"/>
	<path fill-rule="evenodd" clip-rule="evenodd" d="M139.907,116.097c-2.394,0.206-4.258,0.366-6.755,0.582
		c-1.554-10.666-3.073-21.106-4.594-31.542c-0.584-0.004-1.169-0.004-1.751-0.014c-1.401,10.835-2.8,21.665-4.244,32.842
		c-3.673,0.498-7.197,0.981-11.252,1.535c-3.657-23.853-7.22-47.09-10.922-71.228c3.57-0.404,6.845-0.779,10.586-1.202
		c1.674,12.694,3.293,24.965,4.911,37.231c0.538,0.033,1.077,0.061,1.615,0.099c1.514-12.736,3.03-25.472,4.601-38.672
		c3.366-0.517,6.83-1.042,10.638-1.625c1.688,12.816,3.3,25.087,4.915,37.358c0.544,0.01,1.086,0.019,1.629,0.028
		c1.563-12.727,3.124-25.453,4.741-38.621c3.284-0.399,6.405-0.775,10.513-1.268c-4.859,36.058-9.603,71.251-14.346,106.445
		c-0.094-0.019-0.19-0.042-0.284-0.065C139.907,137.531,139.907,127.081,139.907,116.097z M122.599,75.011
		c1.34-8.995,2.683-17.989,4.023-26.983c-0.514-0.084-1.028-0.169-1.542-0.254C122.764,56.661,122.742,65.913,122.599,75.011z
		 M148.338,45.586c-0.638-0.084-1.274-0.169-1.911-0.253c-0.993,9.079-1.985,18.167-2.979,27.256
		c0.34,0.047,0.681,0.094,1.019,0.141C145.759,63.679,147.047,54.633,148.338,45.586z M107.485,72.894
		c-0.699-7.497-1.399-14.999-2.098-22.5C103.643,58.102,106.244,65.439,107.485,72.894z"/>
	<path fill-rule="evenodd" clip-rule="evenodd" d="M123.05,205.449c0-8.727,0-17.449,0-27.006c-5.678,0.695-10.691,1.305-16.348,2
		c0,13.68,0,27.045,0,40.851c-4.282,0.639-7.955,1.188-12.142,1.813c0-32.49,0-64.431,0-96.625c3.88-0.54,7.614-1.061,12.114-1.69
		c0,13.914,0,27.434,0,41.438c5.805-0.775,10.828-1.441,16.205-2.155c0-13.83,0-27.223,0-41.029
		c4.044-0.554,7.736-1.061,11.971-1.638c0.176,2.277,0.439,4.117,0.441,5.957c0.021,21.51-0.042,43.015,0.054,64.525
		c0.014,2.967-0.73,4.666-3.422,6.44c-2.95,1.943-4.969,5.3-7.391,8.037C124.038,206.06,123.545,205.755,123.05,205.449z
		 M97.557,159.116c0.533-10.093,1.066-20.186,1.61-30.523C96.355,131.55,95.97,137.85,97.557,159.116z M127.77,124.565
		c-4.255,3.756-1.878,8.535-2.223,12.539c-0.368,4.295-0.082,8.647-0.082,12.97c0.768-0.037,1.538-0.075,2.305-0.112
		C127.77,141.761,127.77,133.56,127.77,124.565z"/>
	<path fill-rule="evenodd" clip-rule="evenodd" d="M64.494,378.706c0-28.866,0-57.216,0-86.119c3.22-0.521,6.511-1.052,10.715-1.732
		c0,12.454,0,24.416,0,36.907c5.326-0.671,9.746-1.225,14.71-1.85c0-12.562,0-24.584,0-36.691c3.789-0.497,6.98-0.92,10.624-1.398
		c0,28.589,0,57.061,0,86.119c-3.27,0.469-6.71,0.967-10.659,1.534c0-12.431,0-24.082,0-36.499
		c-4.152,0.362-8.027,0.179-11.511,1.254c-1.453,0.451-2.885,3.559-2.938,5.497c-0.289,10.332-0.136,20.674-0.136,31.33
		C71.533,377.631,68.222,378.138,64.494,378.706z M67.224,331.682c0.636-12.299,1.27-24.599,1.906-36.902
		c-0.538-0.028-1.075-0.057-1.615-0.084C65.733,306.999,67.313,319.486,67.224,331.682z M93.076,325.171c0.317,0,0.631,0,0.948,0
		c0-11.041,0-22.083,0-33.124c-0.317-0.004-0.631-0.004-0.948-0.009C93.076,303.084,93.076,314.125,93.076,325.171z"/>
	<path fill-rule="evenodd" clip-rule="evenodd" fill="#FFFFFF" d="M209.87,208.534c-6.365,40.672-12.731,81.34-19.099,122.007
		c-0.369-0.052-0.739-0.107-1.11-0.164c6.082-40.757,12.161-81.509,18.242-122.266C208.556,208.252,209.213,208.393,209.87,208.534z
		"/>
	<path fill-rule="evenodd" clip-rule="evenodd" fill="#FFFFFF" d="M167.787,277.25c-0.361,1.314-0.319,3.028-1.154,3.878
		c-4.169,4.216-3.488,9.45-3.486,14.581c0,18.998,0,37.996,0,56.99c-0.653,0.004-1.305,0.004-1.958,0.004
		c0-21.866-0.232-43.737,0.239-65.59c0.078-3.492,3.324-6.92,5.103-10.37C166.952,276.912,167.37,277.081,167.787,277.25z"/>
	<path fill-rule="evenodd" clip-rule="evenodd" fill="#FFFFFF" d="M214.49,246.662c7.975-2.207,7.928-2.202,7.004-11.022
		c-0.32-3.033-0.348-6.094,0.188-9.239c0.507,3.938,1.169,7.868,1.497,11.82C223.883,246.671,223.291,247.188,214.49,246.662z"/>
	<path fill-rule="evenodd" clip-rule="evenodd" fill="#FFFFFF" d="M185.882,199.089c-4.061,4.422-13.151-1.54-15.226,7.812
		C170.867,200.042,175.101,198.027,185.882,199.089z"/>
	<path fill-rule="evenodd" clip-rule="evenodd" fill="#FFFFFF" d="M255.124,216.008c1.629-6.756,3.356-13.492,4.85-20.275
		c0.826-3.751,2.361-5.741,6.689-6.276c21.543-2.657,23.12-4.582,23.298-26.392c0.1-11.886,0.02-23.772,0.02-35.664
		c0.483,0,0.972,0,1.46,0.005c0,16.055,0.099,32.114-0.057,48.165c-0.052,5.671-3.023,9.802-8.225,12.168
		c-1.39,0.634-2.948,1.559-4.338,1.417c-14.73-1.488-18.669,7.694-20.077,19.754c-0.301,2.572-1.644,5.019-2.507,7.525
		C255.866,216.294,255.495,216.148,255.124,216.008z"/>
	<path fill-rule="evenodd" clip-rule="evenodd" fill="#FFFFFF" d="M277.057,108.229c-4.281,0.629-8.567,1.258-13.646,2
		c0,12.947,0,25.707,0,38.457c-0.451,0-0.901,0-1.357,0c0-12.938,0-25.88,0-39.691c4.793-0.559,9.812-1.145,14.825-1.732
		C276.939,107.585,276.995,107.909,277.057,108.229z"/>
	<path fill-rule="evenodd" clip-rule="evenodd" fill="#FFFFFF" d="M207.363,115.571c7.85-0.808,15.337-1.578,22.824-2.347
		c0.028,0.268,0.052,0.535,0.08,0.807c-6.957,0.996-13.919,2-21.688,3.117c0,9.046,0,17.989,0,26.937
		c-0.408-0.005-0.812-0.009-1.216-0.009C207.363,134.827,207.363,125.588,207.363,115.571z"/>
	<path fill-rule="evenodd" clip-rule="evenodd" fill="#FFFFFF" d="M225.188,160.233c8.587-3.798,8.854-4.394,11.098-24.406
		C238.37,151.323,235.591,160.956,225.188,160.233z"/>
	<path fill-rule="evenodd" clip-rule="evenodd" fill="#FFFFFF" d="M166.992,120.434c-0.854,2.46-2.11,4.863-2.5,7.403
		c-3.533,22.928-6.915,45.883-11.685,68.637c2.126-15.496,4.208-31.001,6.394-46.493c1.204-8.548,2.425-17.106,4-25.589
		c0.316-1.704,2.258-3.112,3.45-4.652C166.764,119.969,166.879,120.199,166.992,120.434z"/>
	<path fill-rule="evenodd" clip-rule="evenodd" fill="#FFFFFF" d="M117.897,262.515c-0.612,2.042-1.746,4.079-1.76,6.122
		c-0.131,20.373-0.08,40.742-0.08,61.116c-0.557,0-1.113,0-1.669,0c0-21.332-0.061-42.663,0.136-63.989
		c0.014-1.423,1.979-2.826,3.037-4.239C117.672,261.853,117.785,262.187,117.897,262.515z"/>
	<path fill-rule="evenodd" clip-rule="evenodd" fill="#FFFFFF" d="M175.629,151.375c1.028,7.365,2.061,14.726,3.082,22.092
		c1.033,7.436,1.012,7.483-6.607,8.534c-1.662,0.235-3.35,0.282-6.098,0.507c1.453-0.779,1.894-1.126,2.394-1.267
		c9.675-2.605,9.612-2.591,8.149-12.872c-0.671-4.718-1.049-9.487-1.523-14.233c-0.092-0.897-0.014-1.817-0.014-2.723
		C175.219,151.398,175.423,151.389,175.629,151.375z"/>
	<path fill-rule="evenodd" clip-rule="evenodd" fill="#FFFFFF" d="M139.276,345.615c0-16.919,0-33.842,0-50.766
		c0.298,0,0.599,0,0.897,0c0,16.966,0,33.932,0,50.896C139.875,345.704,139.574,345.662,139.276,345.615z"/>
	<path fill-rule="evenodd" clip-rule="evenodd" fill="#FFFFFF" d="M236.605,309.956c6.75-0.319,11.379-3.614,14.158-11.098
		C249.938,308.14,245.304,311.449,236.605,309.956z"/>
	<path fill-rule="evenodd" clip-rule="evenodd" fill="#FFFFFF" d="M213.24,370.34c6.507-0.751,13.014-1.507,19.516-2.258
		c0.047,0.329,0.089,0.662,0.131,0.991c-6.474,0.938-12.947,1.873-19.42,2.812C213.391,371.368,213.316,370.856,213.24,370.34z"/>
	<path fill-rule="evenodd" clip-rule="evenodd" fill="#FFFFFF" d="M276.709,209.473c-2.023,27.533-1.244,54.854-2.323,82.119
		c0-24.289-0.085-48.578,0.103-72.861C274.512,215.637,275.935,212.562,276.709,209.473z"/>
	<path fill-rule="evenodd" clip-rule="evenodd" fill="#FFFFFF" d="M314.283,319.467c0-18.115,0-36.231,0-54.586
		c3.338-0.483,6.68-0.967,10.027-1.451c0.037,0.226,0.08,0.451,0.117,0.677c-2.694,0.671-5.389,1.347-8.778,2.192
		c0,17.585,0,35.377,0,53.168C315.193,319.467,314.738,319.467,314.283,319.467z"/>
	<path fill-rule="evenodd" clip-rule="evenodd" fill="#FFFFFF" d="M165.328,88.935c0-10.703-0.218-21.416,0.063-32.11
		c0.268-10.135,8.063-16.89,17.489-15.684c-10.452,2.136-15.813,8.36-16.02,19.125c-0.183,9.553-0.038,19.111-0.038,28.668
		C166.325,88.935,165.825,88.935,165.328,88.935z"/>
	<path fill-rule="evenodd" clip-rule="evenodd" fill="#FFFFFF" d="M267.273,50.093c2.901-7.014,5.807-14.022,8.708-21.031
		c0.629,0.272,1.258,0.549,1.888,0.826c-3.155,6.835-6.314,13.675-9.469,20.514C268.024,50.3,267.648,50.196,267.273,50.093z"/>
	<path fill-rule="evenodd" clip-rule="evenodd" fill="#FFFFFF" d="M148.536,27.813c6.889-0.793,13.778-1.586,20.669-2.375
		c0.038,0.296,0.075,0.592,0.113,0.892c-6.901,0.986-13.799,1.972-20.7,2.958C148.59,28.799,148.564,28.302,148.536,27.813z"/>
	<path fill-rule="evenodd" clip-rule="evenodd" fill="#FFFFFF" d="M122.599,75.011c0.143-9.098,0.165-18.351,2.481-27.237
		c0.514,0.085,1.028,0.169,1.542,0.254C125.282,57.022,123.939,66.017,122.599,75.011z"/>
	<path fill-rule="evenodd" clip-rule="evenodd" fill="#FFFFFF" d="M148.338,45.586c-1.291,9.046-2.58,18.092-3.871,27.143
		c-0.338-0.047-0.678-0.094-1.019-0.141c0.993-9.088,1.986-18.177,2.979-27.256C147.064,45.417,147.7,45.502,148.338,45.586z"/>
	<path fill-rule="evenodd" clip-rule="evenodd" fill="#FFFFFF" d="M107.485,72.894c-1.242-7.455-3.842-14.792-2.098-22.5
		C106.086,57.896,106.786,65.397,107.485,72.894z"/>
	<path fill-rule="evenodd" clip-rule="evenodd" fill="#FFFFFF" d="M97.557,159.116c-1.586-21.266-1.202-27.565,1.61-30.523
		C98.623,138.93,98.09,149.023,97.557,159.116z"/>
	<path fill-rule="evenodd" clip-rule="evenodd" fill="#FFFFFF" d="M127.77,124.565c0,8.995,0,17.196,0,25.397
		c-0.768,0.038-1.538,0.075-2.305,0.112c0-4.323-0.286-8.675,0.082-12.97C125.892,133.1,123.515,128.321,127.77,124.565z"/>
	<path fill-rule="evenodd" clip-rule="evenodd" fill="#FFFFFF" d="M67.224,331.682c0.089-12.195-1.491-24.683,0.291-36.986
		c0.54,0.027,1.077,0.056,1.615,0.084C68.494,307.083,67.86,319.383,67.224,331.682z"/>
	<path fill-rule="evenodd" clip-rule="evenodd" fill="#FFFFFF" d="M93.076,325.171c0-11.046,0-22.087,0-33.133
		c0.317,0.005,0.631,0.005,0.948,0.009c0,11.041,0,22.083,0,33.124C93.708,325.171,93.393,325.171,93.076,325.171z"/>
</g>
</svg>
