<?xml version="1.0" encoding="utf-8"?>
<!-- Generator: Adobe Illustrator 16.0.0, SVG Export Plug-In . SVG Version: 6.00 Build 0)  -->
<!DOCTYPE svg PUBLIC "-//W3C//DTD SVG 1.1//EN" "http://www.w3.org/Graphics/SVG/1.1/DTD/svg11.dtd">
<svg version="1.1" id="Layer_1" xmlns="http://www.w3.org/2000/svg" xmlns:xlink="http://www.w3.org/1999/xlink" x="0px" y="0px"
	 width="400px" height="400px" viewBox="0 0 400 400" enable-background="new 0 0 400 400" xml:space="preserve">
<g>
	<path fill-rule="evenodd" clip-rule="evenodd" fill="#292929" d="M315.933,190.396c-44.553,1.721-89.105,3.414-133.658,5.168
		c-41.55,1.637-83.099,3.334-124.648,5.018c-6.146,0.248-12.306,0.381-18.428,0.922c-3.362,0.295-4.572-0.873-5.167-4.107
		c-4.949-26.964-10.056-53.897-15.113-80.841c-2.698-14.37-5.318-28.754-8.148-43.097c-0.561-2.841-0.622-3.991,2.964-4.201
		c42.656-2.494,85.295-5.263,127.948-7.815c36.017-2.155,72.046-4.082,108.068-6.185c20.746-1.212,41.469-3.022,62.229-3.719
		c14.66-0.493,28.955,3.68,43.465,5.374c6.6,0.77,13.148,1.956,19.74,2.794c2.984,0.38,4.121,1.187,3.338,4.652
		c-8.473,37.448-16.754,74.939-25.088,112.418c-0.326,1.46-0.668,2.917-0.982,4.379c-1.619,7.506-1.617,7.507-9.461,8.267
		c-0.91,0.05-2.363-0.282-2.459,0.744c-0.164,1.75,1.512,0.995,2.459,1.199c7.119,2.446,11.695,9.201,11.367,16.301
		c-0.09,1.896-1.131,1.924-2.188,1.689c-1.85-0.41-4.521,1.684-5.463-1.543c-0.508-1.746-0.578-3.617-1.035-5.383
		c-0.836-3.232-3.049-4.631-6.336-4.273c-3.639,0.398-4.092,3.021-3.688,5.855c1.57,11.016,3.242,22.016,4.926,33.014
		c0.576,3.771,2.93,5.48,6.666,5.076c4.055-0.441,3.85-3.547,3.6-6.404c-0.26-2.975-0.791-5.926-1.256-8.879
		c-0.211-1.342-0.514-2.695-2.404-2.422c-1.643,0.238-2.139-0.514-2.555-2.121c-1.004-3.877-0.621-5.957,4.23-5.982
		c6.836-0.033,7.029-0.172,8.047,6.662c0.662,4.436,1.502,8.852,1.992,13.307c0.725,6.59-1.504,10.869-6.33,12.773
		c-6.074,2.396-13.639,0.438-17.139-4.391c-1.898-2.619-3.023-5.531-3.465-8.705c-1.465-10.531-2.967-21.057-4.322-31.6
		c-0.863-6.717,1.115-10.008,7.361-12.92c0.967-0.226,2.131,0.472,3.324-1.033c-1.338,0-2.262,0-3.188,0
		c-5.164-1.973-10.346,0.24-15.518-0.063C318.392,190.348,317.161,190.373,315.933,190.396z M288.817,143.033
		c-0.178,0.1-0.355,0.198-0.533,0.298c-0.367-1.408-0.826-2.799-1.092-4.226c-3.773-20.27-7.568-40.536-11.254-60.823
		c-1.746-9.603-1.646-9.621-11.508-9.213c-6.748,0.278-6.777,0.276-7.139,6.989c-0.188,3.492-0.229,6.991-0.371,10.486
		c-1.182,29.122-2.324,58.245-3.59,87.362c-0.369,8.511-0.535,8.267,7.957,8.319c4.219,0.027,5.586-1.057,5.744-5.538
		c0.742-20.756,1.949-41.495,2.988-62.239c0.912,1.296,1.396,2.654,1.697,4.052c3.781,17.55,7.559,35.099,11.291,52.659
		c2.246,10.572,2.205,10.461,13.107,10.179c2.998-0.078,3.832-0.962,4.051-3.955c2.447-33.542,5.098-67.071,7.621-100.607
		c0.689-9.174,0.578-8.878-8.568-8.877c-4.523,0.001-5.814,1.557-6.057,5.838C291.854,96.844,290.292,119.936,288.817,143.033z
		 M50.806,121.917c0.334-0.016,0.668-0.031,1.003-0.047c0.41,1.041,0.837,2.075,1.229,3.123
		c6.57,17.574,13.144,35.146,19.701,52.724c3.334,8.938,3.323,8.724,13.105,8.838c3.931,0.047,4.562-1.135,4.249-4.787
		c-2.771-32.34-5.359-64.696-7.975-97.049c-0.852-10.538-0.811-10.38-10.971-10.181c-3.588,0.071-4.396,1.169-4.033,4.642
		c1.697,16.222,3.287,32.458,4.589,48.715c0.496,6.182,1.88,12.361,0.937,20.16c-0.907-2.537-1.338-3.702-1.741-4.876
		c-6.672-19.477-13.345-38.955-20.011-58.435c-3.22-9.41-3.213-9.413-13.077-9.124c-6.427,0.188-6.45,0.19-5.693,6.751
		c3.679,31.902,7.351,63.806,11.072,95.703c1.197,10.262,1.258,10.199,11.661,9.298c2.079-0.18,2.888-0.576,2.57-2.933
		c-0.822-6.099-1.321-12.242-1.964-18.366C53.911,151.355,52.357,136.636,50.806,121.917z M342.761,117.055
		c-3.461,0.206-8.045-0.839-10.49,0.983c-2.615,1.952-1.076,6.881-1.643,10.474c-0.076,0.493-0.094,1.002-0.227,1.479
		c-0.92,3.262-0.268,5.163,3.668,4.438c3.102-0.57,3.98,0.515,3.455,3.773c-0.873,5.409-1.186,10.91-1.674,16.378
		c-0.307,3.439-1.354,6.503-4.059,8.812c-2.17,1.854-4.693,2.713-7.404,1.651c-2.865-1.123-4.408-3.449-4.561-6.564
		c-0.064-1.326-0.033-2.667,0.08-3.991c1.715-19.892,3.385-39.788,5.217-59.669c0.613-6.659,5.25-11.496,10.063-11.04
		c4.824,0.456,7.303,5.262,6.506,12.612c-1.305,12.027-1.305,12.026,10.859,10.968c0.332-0.029,0.666-0.036,1-0.024
		c1.502,0.052,2.049-0.861,2.135-2.168c0.441-6.629,2.133-13.233,1.102-19.89c-1.289-8.31-4.922-15.441-13.242-18.536
		c-8.559-3.185-16.025-0.186-22.311,5.926c-6.34,6.167-9.639,13.805-10.33,22.608c-0.875,11.114-1.836,22.222-2.68,33.338
		c-0.807,10.618-1.98,21.237-2.113,31.866c-0.109,8.888,3.695,16.429,12.4,19.888c8.689,3.454,16.291,0.487,22.695-5.882
		c4.877-4.851,7.818-10.756,8.654-17.563c1.176-9.575,2.154-19.174,3.135-28.772c0.369-3.602,2.607-8.146,0.432-10.568
		C351.247,115.154,346.544,117.497,342.761,117.055z M186.831,127.477c0.278,0,0.558,0,0.837,0c0,15.65-0.034,31.301,0.012,46.95
		c0.029,9.654,0.08,9.495,9.751,9.252c3.212-0.08,3.765-1.237,3.718-4.109c-0.158-9.654-0.055-19.314-0.035-28.971
		c0.027-12.997,0.035-12.866,13.163-13.083c3.248-0.054,3.836,0.964,3.77,3.912c-0.281,12.484-0.201,24.977-0.553,37.458
		c-0.1,3.601,0.98,4.867,4.471,4.26c1.137-0.198,2.346-0.25,3.486-0.103c4.563,0.59,5.615-1.403,5.693-5.828
		c0.566-32.129,1.393-64.252,2.254-96.375c0.291-10.901,0.447-10.772-10.652-10.56c-3.033,0.059-3.902,0.833-3.881,3.92
		c0.072,11.154-0.143,22.311-0.34,33.463c-0.074,4.131,1.143,9.693-1.014,12.011c-2.502,2.688-8.199,0.638-12.457,1.26
		c-3.054,0.446-4.011-0.615-3.958-3.769c0.203-11.984,0.125-23.975,0.141-35.964c0.016-10.243,0.012-10.068-10.492-9.961
		c-3.433,0.034-4.009,1.192-3.983,4.288C186.905,92.844,186.831,110.161,186.831,127.477z M136.014,132.19
		c-0.408,0-0.815,0.001-1.223,0.002c-0.587-11.306-1.116-22.616-1.782-33.918c-0.448-7.61-3.483-14.151-8.826-19.569
		c-9.712-9.848-23.483-8.555-31.275,2.835c-4.573,6.685-5.428,14.125-4.788,21.945c1.628,19.907,3.164,39.821,4.818,59.726
		c0.667,8.023,4.149,14.676,10.557,19.606c8.431,6.484,19.417,5.302,26.4-2.726c4.222-4.853,6.153-10.541,6.129-16.957
		C135.987,152.82,136.014,142.505,136.014,132.19z M169.001,137.398c-0.43,0-0.86,0-1.29,0c0-7.163,0.083-14.327-0.023-21.488
		c-0.109-7.328-0.362-14.655-0.647-21.98c-0.086-2.222-0.043-3.769,2.962-3.792c3.934-0.029,9.188,1.421,11.457-1.229
		c2.416-2.825,0.404-7.975,0.621-12.103c0.026-0.498-0.074-1.01,0-1.497c0.469-3.072-0.736-3.965-3.859-3.823
		c-11.312,0.519-22.637,0.751-33.958,1.073c-7.521,0.214-7.521,0.199-7.333,7.899c0.257,10.579,0.267,10.752,10.905,10.167
		c3.868-0.213,5.042,0.687,5.136,4.741c0.623,26.646,1.494,53.286,2.402,79.924c0.321,9.424,0.474,9.271,9.639,9.236
		c3.217-0.013,4.125-0.857,4.077-4.162C168.882,166.046,169.001,151.722,169.001,137.398z M250.89,125.965
		c-0.027-0.002-0.057-0.003-0.084-0.004c0.639-15.804,1.283-31.606,1.912-47.41c0.365-9.213,0.348-8.909-8.693-9.061
		c-4.83-0.082-5.998,1.447-6.086,6.171c-0.604,32.294-1.504,64.583-2.398,96.872c-0.287,10.362-0.416,10.257,9.75,9.972
		c2.729-0.076,3.617-0.798,3.701-3.63C249.509,161.234,250.233,143.601,250.89,125.965z"/>
	<path fill-rule="evenodd" clip-rule="evenodd" fill="#2E2E2E" d="M281.138,331.213c10.35,1.467,15.711-3.529,15.215-13.672
		c-0.443-9.061-5.568-15.779-11.475-22.004c-2.455-2.588-2.949,0.305-3.676,1.684c-3.658,6.938-7.719,13.537-13.621,18.881
		c-2.26,2.047-4.744,3.641-7.447,4.881c-5.844,2.682-9.828,1.832-14.469-2.682c-3.15-3.064-5.217-6.828-7.275-10.627
		c-0.658-1.217-0.604-3.279-2.525-3.244c-1.861,0.035-1.865,2.096-2.623,3.287c-2.225,3.498-4.363,7.025-7.344,9.994
		c-9.621,9.594-21.543,6.699-25.958-6.232c-0.703-2.063,0.219-6.311-5.264-4.412c6.297-8.17,4.938-18.395,10.371-26.428
		c7.244-10.711,15.93-18.275,29.555-17.885c3.289,0.094,6.912,0.289,9.248,3.738c-2.059,0.992-3.402-0.461-4.938-0.717
		c-4.922-0.82-9.477-0.414-13.807,2.463c-10.232,6.797-15.766,21.902-11.914,33.43c1.471,4.404,3.695,8.473,8.955,8.914
		c5.545,0.465,8.232-3.377,10.334-7.797c3.115-6.555,3.518-13.805,5.398-20.674c0.469-1.713,0.393-4.316,2.316-4.637
		c2.371-0.396,2.977,2.271,3.707,4.006c2.83,6.721,5.164,13.67,8.309,20.232c6.535,13.635,14.365,14.07,22.688,1.561
		c0.643-0.965,1.244-1.959,1.91-2.908c3.574-5.08,5.816-9.98-0.326-15.02c-1.535-1.26-2.334-3.613-3.076-5.611
		c-4.902-13.217,1.836-22.412,16.076-22.057c5.549,0.139,7.672,2.857,6.779,8.391c-0.566,3.498-1.891,6.74-3.307,9.898
		c-1.285,2.869-0.799,4.895,1.271,7.119c4.977,5.35,10.188,10.559,14.186,16.693c9.055,13.887,5.039,30.047-8.816,36.426
		C293.159,339.17,286.218,337.443,281.138,331.213z M288.095,259.979c-1.092,0.029-2.723,0.592-3.713,2.404
		c-1.688,3.08,0.707,11.791,3.725,13.57c1.117,0.66,1.777,0.344,2.299-0.779c1.592-3.439,3.17-6.922,3.242-10.764
		C293.704,261.441,291.911,259.939,288.095,259.979z"/>
	<path fill-rule="evenodd" clip-rule="evenodd" fill="#2B2C2B" d="M329.173,309.822c-13.607-6.68-17.488-14.328-14.813-29.641
		c1.232-7.057,3.369-13.846,7.088-20.049c0.703-1.176,1.619-2.428,3.102-2.021c1.49,0.408,1.727,2.027,1.605,3.326
		c-0.336,3.633-0.893,7.246-1.332,10.871c-0.727,5.959,0.125,11.615,3.465,16.723c2.959,4.529,7.193,6.852,12.6,6.594
		c5.309-0.254,7.588-4.176,9.363-8.443c3.047-7.324,2.982-15.281,4.533-22.91c0.199-0.977,0.229-2.002,0.537-2.938
		c0.447-1.357,0.414-3.32,2.23-3.525c1.801-0.203,2.354,1.584,2.975,2.91c4.271,9.115,6.381,18.895,8.377,28.652
		c2.588,12.662,6.926,25.076,6.041,38.295c-0.867,12.936-4.547,24.223-17.619,29.99c-11.479,5.064-29.9,0.914-38.199-8.52
		c-4.104-4.666-5.133-9.975-3.484-15.811c2.162-7.652,6.455-14.148,11.404-20.258C327.862,312.061,329.104,311.322,329.173,309.822z
		 M354.7,289.602c-1.643-0.037-1.729,0.699-2.004,1.279c-3.617,7.656-8.676,13.803-16.063,18.428
		c-8.564,5.363-14.361,13.25-16.189,23.5c-1.139,6.391,1.961,11.053,8.186,12.77c13.727,3.785,25.074-3.91,27.334-18.463
		C357.923,314.508,356.386,302.061,354.7,289.602z"/>
	<path fill-rule="evenodd" clip-rule="evenodd" fill="#292929" d="M385.001,274.979c-5.57-7.566-7.521-15.371-9.129-23.246
		c-3.762-18.404-6.266-36.971-6.625-55.783c-0.033-1.814,0.299-3.633,0.379-5.453c0.205-4.661,2.184-8.038,6.959-9.064
		c4.244-0.912,9.053,2.017,11.113,6.628c2.307,5.158,2.129,10.637,1.912,16.122C388.69,227.486,384.429,250.551,385.001,274.979z"/>
	<path fill-rule="evenodd" clip-rule="evenodd" fill="#2D2E2D" d="M315.933,190.396c1.229-0.023,2.459-0.049,3.688-0.072
		c3.762,8.17,3.365,17.143,4.854,25.742c1.672,9.654,2.848,19.4,4.002,29.135c0.182,1.523,2.111,4.445-1.391,4.691
		c-2.779,0.197-6.174,1.754-7.826-2.729c-3.732-10.121-7.834-20.109-11.82-30.139c-0.838-2.107-1.82-4.158-3.234-7.361
		c-0.949,6.582,0.607,11.813,1.055,17.07c0.549,6.453,1.666,12.855,2.293,19.305c0.145,1.492,2.184,4.186-1.646,4.42
		c-2.898,0.178-5.281,0.443-5.676-3.848c-1.203-13.072-2.877-26.1-4.361-39.145c-0.357-3.137-0.93-6.277-0.936-9.416
		c-0.002-1.496-2.375-4.567,1.342-4.454c3.189,0.097,7.436-2.775,9.479,2.38c3.297,8.328,6.641,16.637,9.99,24.943
		c0.463,1.15,1.07,2.242,2.479,3.09c-1.053-7.707-2.219-15.4-3.102-23.127C314.722,197.391,313.552,193.722,315.933,190.396z"/>
	<path fill-rule="evenodd" clip-rule="evenodd" fill="#2D2C2C" d="M54.225,240.041c3.487-0.502,3.258-2.686,3.533-4.35
		c1.432-8.682,2.962-17.354,4.001-26.084c0.387-3.254,1.308-5.297,4.667-4.545c3.389,0.758,0.841,3.225,0.62,4.695
		c-2.198,14.609-4.874,29.152-6.802,43.795c-0.733,5.57-4.334,3.693-7.22,4.027c-4.076,0.469-2.889-2.902-2.993-4.779
		c-0.276-4.979-0.102-9.982-0.166-14.975c-0.011-0.869,0.414-2.215-1.083-2.279c-1.441-0.063-1.275,1.367-1.423,2.207
		c-0.982,5.557-2.059,11.109-2.708,16.709c-0.616,5.309-4.593,3.527-7.5,3.9c-3.77,0.482-2.741-2.564-2.771-4.398
		c-0.235-14.801-0.272-29.605-0.553-44.406c-0.053-2.762,0.95-3.211,3.412-3.303c2.826-0.104,2.77,1.361,2.778,3.363
		c0.039,9.32,0.143,18.641,0.294,27.961c0.025,1.566-0.346,3.285,1.553,5.705c1.103-6.355,2.069-11.779,2.981-17.211
		c0.962-5.73,2.177-11.441,2.697-17.213c0.322-3.572,2.585-3.254,4.769-3.391c3.011-0.189,1.834,2.285,1.849,3.574
		C54.275,219.326,54.225,229.611,54.225,240.041z"/>
	<path fill-rule="evenodd" clip-rule="evenodd" fill="#303030" d="M70.232,297.875c0-10.887-0.043-21.01,0.043-31.129
		c0.014-1.662-1.124-4.686,2.418-3.959c2.562,0.527,6.568-1.771,7.051,3.711c1.283,14.547,2.944,29.063,4.506,43.586
		c0.178,1.658,1.013,3.264-1.859,3.377c-2.397,0.096-3.133-0.828-3.368-3.07c-0.83-7.922-1.828-15.826-2.776-23.736
		c-0.09-0.748,0.236-1.699-0.871-2.074c-1.745,0.346-1.09,1.783-1.104,2.758c-0.111,7.488-0.11,14.977-0.218,22.463
		c-0.019,1.324,0.672,3.166-1.81,3.301c-1.998,0.109-3.436-0.096-4.046-2.51c-1.707-6.754-3.624-13.457-5.532-20.158
		c-0.597-2.098-1.427-4.129-2.263-6.51c-2.042,1.713-1.702,3.455-1.299,4.605c2.383,6.809,2.232,14.016,3.571,20.979
		c0.24,1.248,1.255,3.031-1.502,3.146c-2.124,0.086-2.962-0.777-3.24-2.762c-1.219-8.711-2.495-17.414-3.777-26.115
		c-0.821-5.584-1.843-11.141-2.43-16.748c-0.151-1.439-2.839-4.34,0.931-4.514c2.76-0.127,6.699-2.172,7.933,3.15
		c2.134,9.203,4.738,18.301,7.213,27.426C68.197,294.537,68.207,296.27,70.232,297.875z"/>
	<path fill-rule="evenodd" clip-rule="evenodd" fill="#2D2C2C" d="M173.878,268.418c-7.509-1.914-10.604-0.354-13.098,7.125
		c-3.035,9.102-2.333,18.246,0.349,27.311c0.15,0.51,0.904,0.84,1.377,1.254c0.841,0.096,1.682,0.193,2.522,0.291
		c-2.397,4.512,0.188,9.361,6.152,11.326c4.924,1.621,9.457,0.275,13.843-2.043c1.382-0.73,2.432-2.334,4.403-1.906
		c-2.563,5.299-14.715,12.09-22.24,12.727c-8.004,0.674-13.852-2.988-18.142-9.207c-9.983-14.477-5.465-37.834,9.307-47.357
		c5.466-3.523,11.602-4.977,17.646-0.652C175.589,268.217,174.731,268.313,173.878,268.418z"/>
	<path fill-rule="evenodd" clip-rule="evenodd" fill="#2B2C2B" d="M210.874,208.928c0-2.32,0.305-4.691-0.068-6.953
		c-0.619-3.74,1.297-4.26,4.354-4.596c3.885-0.428,2.9,2.27,3.016,4.125c0.982,15.752,1.846,31.512,2.836,47.264
		c0.182,2.902-0.135,4.33-3.795,4.512c-3.65,0.18-4.041-1.076-4.096-4.066c-0.107-5.979-0.758-11.949-0.809-17.926
		c-0.027-3.232-1.947-3.17-3.885-2.697c-2.279,0.559-6.407-2.059-6.403,2.889c0.006,6.311,0.355,12.631,0.859,18.924
		c0.201,2.539-0.574,3.379-2.929,3.053c-2.013-0.277-4.929,1.316-5.052-2.744c-0.501-16.455-1.041-32.908-1.713-49.355
		c-0.128-3.113,1.568-3.012,3.72-3.012c2.134,0,3.847-0.141,3.794,2.971c-0.088,5.313,0.547,10.643,0.354,15.947
		c-0.254,6.941,4.716,3.531,7.581,4.057c3.906,0.717,3.197-2.162,3.049-4.428c-0.174-2.654-0.404-5.303-0.609-7.955
		C211.009,208.934,210.94,208.932,210.874,208.928z"/>
	<path fill-rule="evenodd" clip-rule="evenodd" fill="#313131" d="M170.252,227.768c0,7.826-0.149,15.656,0.078,23.477
		c0.083,2.834-0.958,3.438-3.417,3.246c-2.057-0.158-4.33,0.695-4.132-3.01c0.283-5.311-0.162-10.66,0.019-15.98
		c0.121-3.549-0.358-5.51-4.769-5.178c-3.594,0.271-5.889,0.305-5.478,5.004c0.477,5.455-0.081,10.992,0.184,16.475
		c0.155,3.215-1.392,3.316-3.87,3.387c-2.699,0.078-3.746-0.508-3.717-3.502c0.15-15.652,0.205-31.311-0.029-46.963
		c-0.058-3.844,2.033-3.854,4.627-4.055c3.548-0.275,2.46,2.379,2.526,4.088c0.18,4.658,0.148,9.324,0.243,13.984
		c0.051,2.51-0.821,5.328,3.822,4.779c3.64-0.43,6.837,0.369,6.071-5.285c-0.666-4.908,0.114-10-0.311-14.961
		c-0.33-3.846,2.208-2.773,4.113-3.18c2.344-0.502,3.334,0.217,3.309,2.725c-0.086,8.314-0.033,16.633-0.033,24.949
		C169.743,227.768,169.998,227.768,170.252,227.768z"/>
	<path fill-rule="evenodd" clip-rule="evenodd" fill="#2D2E2D" d="M253.61,251.877c-7.604,0.727-8.059,0.797-9.174-6.346
		c-0.846-5.412-4.232-3.771-7.275-3.793c-3.166-0.025-5.893,0.139-5.445,4.684c0.352,3.561,0.158,7.156-5.359,6.35
		c-1.908-0.277-2.076-0.76-1.928-2.406c1.539-16.855,3.037-33.715,4.449-50.582c0.193-2.305,1.08-3.549,3.365-3.055
		c3.184,0.689,7.854-3.272,9.297,3.043C245.493,217.068,249.542,234.344,253.61,251.877z M235.878,207.572
		c-0.34,0.035-0.682,0.07-1.021,0.105c-0.629,8.086-1.32,16.168-1.859,24.26c-0.322,4.854,3.422,2.037,5.295,2.494
		c1.346,0.328,3.553,0.799,2.871-2.244C239.327,223.998,237.63,215.779,235.878,207.572z"/>
	<path fill-rule="evenodd" clip-rule="evenodd" fill="#2D2E2D" d="M250.126,196.158c7.234-1.039,7.266-1.047,8.842,5.627
		c2.592,10.984,5.129,21.98,7.719,32.967c0.363,1.537,0.895,3.035,1.746,5.879c1.994-8.521,1.197-15.787,1.75-22.939
		c0.514-6.623,1-13.275,0.924-19.908c-0.051-4.514,3.129-2.92,5.107-3.238c3.068-0.49,1.865,2.074,1.814,3.381
		c-0.641,16.436-1.443,32.865-2.041,49.301c-0.125,3.424-1.436,4.363-4.785,4.322c-8.184-0.1-8.215,0.084-10.072-7.9
		C257.446,227.83,253.796,212.004,250.126,196.158z"/>
	<path fill-rule="evenodd" clip-rule="evenodd" fill="#2D2C2C" d="M95.92,230.059c0-7.801,0.086-15.602-0.047-23.4
		c-0.046-2.715,1.087-3.531,3.564-3.348c1.32,0.098,2.658-0.053,3.989-0.092c4.753-0.141,10.458-1.598,12.771,4
		c2.661,6.441,2.778,13.436-1.506,19.469c-1.581,2.227-2.078,3.377,0.107,5.277c2.018,1.756,2.213,4.377,2.224,6.906
		c0.018,4.656-0.13,9.316,0.022,13.969c0.069,2.121,0.028,3.545-2.716,3.289c-2.1-0.195-4.488,0.504-4.425-2.947
		c0.085-4.656,0.004-9.314,0.038-13.973c0.016-2.287-0.325-4.275-2.831-5.234c-3.525-1.35-5.271-0.299-5.448,3.502
		c-0.248,5.313-0.697,10.637-0.553,15.945c0.111,4.113-2.616,2.773-4.64,3.039c-3.04,0.398-2.582-1.707-2.492-3.498
		c0.385-7.631,0.793-15.26,1.192-22.891C95.42,230.068,95.67,230.063,95.92,230.059z M102.298,218.691c-0.047,0-0.095,0-0.143,0
		c0,1.156-0.173,2.346,0.042,3.461c0.292,1.508-1.446,3.908,1.511,4.338c2.555,0.371,5.3,0.137,6.18-2.779
		c1.1-3.645,1.314-7.482,0.474-11.262c-0.605-2.725-2.775-2.809-5.039-2.873c-2.846-0.08-2.558,1.871-2.655,3.676
		C102.571,215.066,102.424,216.879,102.298,218.691z"/>
	<path fill-rule="evenodd" clip-rule="evenodd" fill="#2D2E2D" d="M68.097,242.211c0.58-8.771,1.177-17.541,1.731-26.313
		c0.24-3.801,1.498-7.26,4.423-9.646c3.409-2.783,7.443-3.406,11.696-1.848c4.309,1.582,5.687,5.445,5.536,9.174
		c-0.457,11.264,0.104,22.604-1.674,33.781c-1.122,7.055-6.099,10.684-13.058,10.115c-5.511-0.449-8.752-4.779-8.822-11.793
		c-0.011-1.156-0.001-2.314-0.001-3.473C67.985,242.209,68.041,242.211,68.097,242.211z M75.159,240.043
		c-0.063-0.002-0.126-0.004-0.189-0.004c0,1.99-0.014,3.982,0.003,5.975c0.021,2.461,0.917,4.24,3.686,4.314
		c2.583,0.07,4.229-1.377,4.384-3.813c0.684-10.758,1.254-21.527,1.697-32.297c0.089-2.156-1.075-3.822-3.646-3.813
		c-2.303,0.006-3.799,1.064-4.272,3.334c-0.304,1.457-0.545,2.943-0.623,4.428C75.817,225.457,75.5,232.75,75.159,240.043z"/>
	<path fill-rule="evenodd" clip-rule="evenodd" fill="#313131" d="M52.308,304.156c-0.214,3.42-1.074,6.49-4.278,8.023
		c-3.435,1.645-6.866,0.822-9.84-1.387c-3.076-2.281-4.64-5.553-5.341-9.264c-1.754-9.273-3.558-18.539-5.247-27.824
		c-1.172-6.451,0.374-10.342,4.491-11.84c4.236-1.543,9.865,0.801,12.772,5.42c0.7,1.111,1.394,2.352,1.622,3.615
		C48.487,281.975,50.381,293.068,52.308,304.156z M33.663,274.053c0.829,4.684,1.763,10.066,2.738,15.441
		c0.828,4.561,1.604,9.135,2.596,13.658c0.514,2.344,2.085,3.779,4.69,3.461c2.191-0.27,2.644-1.922,2.355-3.68
		c-1.692-10.287-3.388-20.576-5.301-30.824c-0.416-2.225-2.174-3.895-4.734-3.473C33.32,269.078,33.558,271.318,33.663,274.053z"/>
	<path fill-rule="evenodd" clip-rule="evenodd" fill="#343434" d="M23.186,301.857c-0.261-1.24-0.663-2.689-0.843-4.164
		c-0.138-1.129-1.223-2.834,1.12-2.994c1.584-0.109,3.538-0.586,3.977,1.799c0.539,2.93,1.362,5.887,1.321,8.822
		c-0.091,6.477-6.521,9.369-12.341,5.672c-3.049-1.936-5.227-4.734-6.059-8.254c-2.482-10.494-4.841-21.018-7.149-31.553
		c-0.846-3.857-0.255-7.705,3.566-9.482c3.658-1.703,7.47-0.789,10.674,1.914c4.113,3.469,5.209,8.338,6.179,13.254
		c0.248,1.256,0.042,2.41-1.688,2.225c-1.359-0.146-3.173,0.693-3.676-1.5c-0.444-1.939-0.67-3.941-1.265-5.828
		c-0.839-2.662-2.619-4.381-5.609-3.592c-2.949,0.775-2.332,3.152-1.88,5.271c2.038,9.572,4.108,19.139,6.163,28.707
		c0.606,2.824,2.186,4.469,5.229,4.111C23.522,305.957,23.241,303.926,23.186,301.857z"/>
	<path fill-rule="evenodd" clip-rule="evenodd" fill="#313131" d="M117.467,263.275c6.951-0.109,10.046,6.861,10.328,12.979
		c0.077,1.676-1.017,1.404-1.935,1.344c-1.392-0.094-3.173,0.611-3.79-1.424c-0.236-0.777-0.13-1.652-0.263-2.469
		c-0.382-2.346-1.742-3.367-4.162-3.32c-2.884,0.055-3.163,2.094-3.211,4.105c-0.091,3.789,1.217,7.066,3.701,10.037
		c4.427,5.289,9.875,9.932,10.692,17.539c0.811,7.541-2.816,12.666-9.205,12.398c-5.518-0.232-11.121-7.801-9.715-12.959
		c0.391-1.434,1.292-1.287,2.24-1.213c1.2,0.094,2.819-0.553,3.08,1.516c0.167,1.318,0.242,2.668,0.591,3.939
		c0.58,2.115,2.189,2.754,4.25,2.592c2.11-0.166,2.7-1.471,2.861-3.367c0.382-4.51-1.463-7.988-4.549-11.104
		c-5.093-5.139-9.552-10.635-10.015-18.373C107.92,268.041,111.41,263.219,117.467,263.275z"/>
	<path fill-rule="evenodd" clip-rule="evenodd" fill="#2E2E2E" d="M127.851,232.375c0-6.482-0.171-12.973,0.071-19.447
		c0.125-3.344-0.557-5.057-4.293-4.352c-1.931,0.363-3.982,0.869-3.846-2.551c0.1-2.514,0.278-3.871,3.395-3.867
		c5.634,0.008,11.273-0.48,16.903-0.857c2.018-0.135,3.161,0.26,2.923,2.641c-0.192,1.924,0.458,4.564-2.682,4.061
		c-5.62-0.902-5.635,2.648-5.67,6.443c-0.117,12.301-0.413,24.605-0.292,36.904c0.037,3.742-1.401,4.209-4.613,4.227
		c-3.88,0.021-2.575-2.248-2.555-4.252c0.065-6.314,0.024-12.631,0.024-18.947C127.427,232.377,127.639,232.375,127.851,232.375z"/>
	<path fill-rule="evenodd" clip-rule="evenodd" fill="#2B2C2B" d="M94.345,263.361c1.831,0,3.688,0.203,5.485-0.041
		c3.951-0.537,3.557,2.117,3.871,4.637c0.477,3.83-2.296,2.361-3.829,2.396c-8.042,0.18-8.042,0.119-7.183,8.143
		c0.105,0.99,0.391,2.012,0.248,2.967c-0.55,3.684,1.478,4.342,4.547,4.479c1.656,0.074,3.943-0.967,4.936,1.137
		c0.596,1.264,0.728,3.014,0.395,4.379c-0.427,1.752-2.295,1.031-3.399,0.877c-4.707-0.658-6.44,1.055-5.052,5.691
		c0.142,0.473,0.184,0.98,0.236,1.477c0.833,7.889,0.832,8.088,8.651,8.078c3.073-0.002,3.416,1.314,3.605,3.758
		c0.277,3.592-2.273,1.813-3.693,2.158c-0.471,0.113-0.994,0.02-1.493,0.014c-11.632-0.139-11.625-0.139-12.685-11.559
		c-1.044-11.236-1.833-22.51-3.293-33.691c-0.577-4.422,0.542-5.641,4.666-4.984c1.298,0.207,2.657,0.031,3.988,0.031
		C94.345,263.326,94.345,263.344,94.345,263.361z"/>
	<path fill-rule="evenodd" clip-rule="evenodd" fill="#2D2C2C" d="M281.845,198.922c0.576-1.59-2.133-4.641,2.453-4.736
		c3.324-0.069,5.061,0.249,5.441,4.182c1.58,16.357,3.447,32.689,5.336,49.016c0.283,2.455-0.043,3.838-2.832,3.643
		c-2.221-0.154-4.928,1.27-5.322-2.926C285.38,231.734,283.569,215.396,281.845,198.922z"/>
	<path fill-rule="evenodd" clip-rule="evenodd" fill="#2E2E2E" d="M390.429,294.404c5.025-0.02,9.633,4.867,9.57,10.148
		c-0.063,5.258-4.17,9.41-9.43,9.531c-5.404,0.125-9.904-4.275-9.832-9.617C380.808,299.113,385.323,294.424,390.429,294.404z"/>
	<path fill-rule="evenodd" clip-rule="evenodd" fill="#535454" d="M173.878,268.418c0.853-0.105,1.711-0.201,2.121-1.133
		c6.434,4.443,6.465,15.729,0.057,20.926l0.047,0.043C177.672,281.383,180.59,274.359,173.878,268.418z"/>
	<path fill-rule="evenodd" clip-rule="evenodd" fill="#2E2E2E" d="M279.204,329.131c-0.033,0.182-0.059,0.326-0.084,0.471
		c-0.031-0.037-0.082-0.07-0.092-0.115c-0.07-0.283-0.148-0.568-0.186-0.857c-0.01-0.068,0.123-0.154,0.189-0.234
		C279.093,328.652,279.151,328.908,279.204,329.131z"/>
	<path fill-rule="evenodd" clip-rule="evenodd" fill="#2E2E2E" d="M342.991,191.365c-0.947-0.204-2.623,0.551-2.459-1.199
		c0.096-1.026,1.549-0.694,2.459-0.744C342.991,190.07,342.991,190.719,342.991,191.365z"/>
	<path fill-rule="evenodd" clip-rule="evenodd" fill="#2E2E2E" d="M335.138,190.387c0.926,0,1.85,0,3.188,0
		c-1.193,1.505-2.357,0.808-3.324,1.033C335.048,191.075,335.093,190.73,335.138,190.387z"/>
	<path fill-rule="evenodd" clip-rule="evenodd" fill="#FAFAFA" d="M288.817,143.033c1.475-23.097,3.037-46.188,4.346-69.295
		c0.242-4.282,1.533-5.837,6.057-5.838c9.146-0.001,9.258-0.297,8.568,8.877c-2.523,33.537-5.174,67.065-7.621,100.607
		c-0.219,2.993-1.053,3.876-4.051,3.955c-10.902,0.282-10.861,0.393-13.107-10.179c-3.732-17.56-7.51-35.109-11.291-52.659
		c-0.301-1.398-0.785-2.756-1.697-4.052c-1.039,20.745-2.246,41.483-2.988,62.239c-0.158,4.481-1.525,5.565-5.744,5.538
		c-8.492-0.053-8.326,0.191-7.957-8.319c1.266-29.118,2.408-58.241,3.59-87.362c0.143-3.495,0.184-6.994,0.371-10.486
		c0.361-6.713,0.391-6.711,7.139-6.989c9.861-0.407,9.762-0.39,11.508,9.213c3.686,20.287,7.48,40.553,11.254,60.823
		c0.266,1.427,0.725,2.818,1.092,4.226C288.462,143.231,288.64,143.132,288.817,143.033z"/>
	<path fill-rule="evenodd" clip-rule="evenodd" fill="#FAFAFA" d="M50.806,121.917c1.551,14.719,3.105,29.438,4.65,44.157
		c0.643,6.124,1.142,12.267,1.964,18.366c0.318,2.357-0.491,2.753-2.57,2.933c-10.402,0.9-10.463,0.964-11.661-9.298
		c-3.721-31.897-7.393-63.801-11.072-95.703c-0.757-6.561-0.734-6.563,5.693-6.751c9.864-0.289,9.857-0.286,13.077,9.124
		c6.666,19.48,13.338,38.958,20.011,58.435c0.403,1.174,0.834,2.339,1.741,4.876c0.943-7.799-0.441-13.979-0.937-20.16
		c-1.302-16.257-2.893-32.493-4.589-48.715c-0.363-3.473,0.444-4.571,4.033-4.642c10.161-0.2,10.12-0.357,10.971,10.181
		c2.615,32.353,5.204,64.709,7.975,97.049c0.313,3.652-0.317,4.833-4.249,4.787c-9.782-0.114-9.771,0.101-13.105-8.838
		c-6.557-17.578-13.13-35.15-19.701-52.724c-0.392-1.047-0.819-2.082-1.229-3.123C51.475,121.886,51.141,121.901,50.806,121.917z"/>
	<path fill-rule="evenodd" clip-rule="evenodd" fill="#FAFAFA" d="M342.761,117.055c3.783,0.441,8.486-1.901,10.668,0.524
		c2.176,2.422-0.063,6.966-0.432,10.568c-0.98,9.598-1.959,19.198-3.135,28.772c-0.836,6.808-3.777,12.712-8.654,17.563
		c-6.404,6.369-14.006,9.335-22.695,5.882c-8.705-3.459-12.51-11-12.4-19.888c0.133-10.628,1.307-21.248,2.113-31.866
		c0.844-11.116,1.805-22.224,2.68-33.338c0.691-8.804,3.99-16.441,10.33-22.608c6.285-6.111,13.752-9.11,22.311-5.926
		c8.32,3.094,11.953,10.226,13.242,18.536c1.031,6.657-0.66,13.261-1.102,19.89c-0.086,1.307-0.633,2.22-2.135,2.168
		c-0.334-0.012-0.668-0.005-1,0.024c-12.164,1.058-12.164,1.059-10.859-10.968c0.797-7.35-1.682-12.156-6.506-12.612
		c-4.813-0.456-9.449,4.38-10.063,11.04c-1.832,19.881-3.502,39.777-5.217,59.669c-0.113,1.324-0.145,2.665-0.08,3.991
		c0.152,3.116,1.695,5.441,4.561,6.564c2.711,1.063,5.234,0.203,7.404-1.651c2.705-2.309,3.752-5.373,4.059-8.812
		c0.488-5.468,0.801-10.969,1.674-16.378c0.525-3.258-0.354-4.343-3.455-3.773c-3.936,0.725-4.588-1.176-3.668-4.438
		c0.133-0.477,0.15-0.986,0.227-1.479c0.566-3.593-0.973-8.521,1.643-10.474C334.716,116.216,339.3,117.261,342.761,117.055z"/>
	<path fill-rule="evenodd" clip-rule="evenodd" fill="#FBFCFC" d="M186.831,127.477c0-17.316,0.074-34.633-0.069-51.949
		c-0.025-3.095,0.551-4.253,3.983-4.288c10.503-0.107,10.507-0.282,10.492,9.961c-0.016,11.989,0.063,23.979-0.141,35.964
		c-0.053,3.153,0.904,4.214,3.958,3.769c4.258-0.622,9.955,1.428,12.457-1.26c2.156-2.318,0.939-7.88,1.014-12.011
		c0.197-11.153,0.412-22.31,0.34-33.463c-0.021-3.087,0.848-3.862,3.881-3.92c11.1-0.212,10.943-0.341,10.652,10.56
		c-0.861,32.123-1.688,64.247-2.254,96.375c-0.078,4.425-1.131,6.418-5.693,5.828c-1.141-0.147-2.35-0.095-3.486,0.103
		c-3.49,0.607-4.57-0.659-4.471-4.26c0.352-12.481,0.271-24.974,0.553-37.458c0.066-2.948-0.521-3.965-3.77-3.912
		c-13.128,0.218-13.136,0.087-13.163,13.083c-0.02,9.657-0.123,19.317,0.035,28.971c0.047,2.872-0.506,4.029-3.718,4.109
		c-9.671,0.242-9.722,0.401-9.751-9.252c-0.046-15.649-0.012-31.3-0.012-46.95C187.388,127.477,187.109,127.477,186.831,127.477z"/>
	<path fill-rule="evenodd" clip-rule="evenodd" fill="#FAFAFA" d="M136.014,132.19c0,10.315-0.027,20.63,0.01,30.945
		c0.023,6.416-1.907,12.104-6.129,16.957c-6.983,8.027-17.969,9.21-26.4,2.726c-6.408-4.93-9.89-11.583-10.557-19.606
		c-1.654-19.905-3.189-39.819-4.818-59.726c-0.64-7.82,0.214-15.261,4.788-21.945c7.792-11.39,21.563-12.683,31.275-2.835
		c5.342,5.417,8.377,11.958,8.826,19.569c0.667,11.302,1.195,22.612,1.782,33.918C135.199,132.191,135.606,132.19,136.014,132.19z
		 M102.03,102.477c0.291,3.809,0.613,7.617,0.868,11.43c1.053,15.746,2.046,31.497,3.145,47.241
		c0.414,5.919,4.076,9.771,8.761,9.524c4.502-0.237,7.324-4.165,6.989-10.256c-1.085-19.741-2.194-39.481-3.484-59.209
		c-0.476-7.283-3.997-11.198-9.046-10.898C104.353,90.601,101.699,95.066,102.03,102.477z"/>
	<path fill-rule="evenodd" clip-rule="evenodd" fill="#FAFAFA" d="M169.001,137.398c0,14.324-0.119,28.648,0.089,42.967
		c0.048,3.304-0.86,4.149-4.077,4.162c-9.166,0.035-9.318,0.188-9.639-9.236c-0.909-26.638-1.78-53.278-2.402-79.924
		c-0.095-4.054-1.268-4.954-5.136-4.741c-10.638,0.585-10.647,0.411-10.905-10.167c-0.188-7.7-0.187-7.686,7.333-7.899
		c11.321-0.322,22.646-0.555,33.958-1.073c3.123-0.143,4.328,0.751,3.859,3.823c-0.074,0.487,0.026,0.999,0,1.497
		c-0.217,4.128,1.795,9.278-0.621,12.103c-2.269,2.65-7.523,1.2-11.457,1.229c-3.006,0.023-3.049,1.57-2.962,3.792
		c0.286,7.325,0.538,14.652,0.647,21.98c0.107,7.161,0.023,14.325,0.023,21.488C168.142,137.398,168.572,137.398,169.001,137.398z"
		/>
	<path fill-rule="evenodd" clip-rule="evenodd" fill="#FAFAFA" d="M250.89,125.965c-0.656,17.636-1.381,35.269-1.898,52.909
		c-0.084,2.833-0.973,3.554-3.701,3.63c-10.166,0.285-10.037,0.391-9.75-9.972c0.895-32.288,1.795-64.578,2.398-96.872
		c0.088-4.724,1.256-6.253,6.086-6.171c9.041,0.152,9.059-0.152,8.693,9.061c-0.629,15.804-1.273,31.606-1.912,47.41
		C250.833,125.962,250.862,125.963,250.89,125.965z"/>
	<path fill-rule="evenodd" clip-rule="evenodd" fill="#282828" d="M102.031,102.476c-0.332-7.41,2.322-11.875,7.231-12.167
		c5.05-0.299,8.57,3.616,9.046,10.898c1.29,19.728,2.399,39.468,3.484,59.209c0.335,6.091-2.487,10.019-6.989,10.256
		c-4.686,0.247-8.348-3.605-8.761-9.524c-1.099-15.744-2.092-31.495-3.145-47.241C102.643,110.094,102.321,106.286,102.031,102.476z
		"/>
</g>
<rect x="164.5" y="88" fill-rule="evenodd" clip-rule="evenodd" fill="#FAFAFA" width="4.501" height="50.333"/>
<polygon fill-rule="evenodd" clip-rule="evenodd" fill="#FAFAFA" points="124.167,99.167 133.009,98.274 136.014,132.19 
	124.167,132.19 "/>
<g>
	<g>
		<path fill="#535454" d="M162.583,306.643c3.971-0.901,6.938-5.974,8.992-9.116c3.694-5.652,7.436-11,8.881-17.694
			c0.339-1.571-2.071-2.24-2.411-0.664c-1.07,4.959-3.397,8.962-6.19,13.131c-2.352,3.511-5.298,10.88-9.937,11.934
			C160.346,304.589,161.013,306.999,162.583,306.643L162.583,306.643z"/>
	</g>
</g>
</svg>
