<?xml version="1.0" encoding="utf-8"?>
<!-- Generator: Adobe Illustrator 16.0.0, SVG Export Plug-In . SVG Version: 6.00 Build 0)  -->
<!DOCTYPE svg PUBLIC "-//W3C//DTD SVG 1.1//EN" "http://www.w3.org/Graphics/SVG/1.1/DTD/svg11.dtd">
<svg version="1.1" id="Layer_1" xmlns="http://www.w3.org/2000/svg" xmlns:xlink="http://www.w3.org/1999/xlink" x="0px" y="0px"
	 width="400px" height="400px" viewBox="0 0 400 400" enable-background="new 0 0 400 400" xml:space="preserve">
<g>
	<path fill-rule="evenodd" clip-rule="evenodd" d="M216.461,136.989c-5.303,0-10.039,0-15.188,0c0-12.271,0-24.317,0-36.767
		c-3.706,0-7.007,0-10.537,0c0-4.671,0-8.94,0-13.524c16.916,0,33.878,0,51.355,0c0,5.423,0,10.967,0,16.666
		c4.551,0,8.592,0,13.045,0c0-5.435,0-10.89,0-16.644c5.23,0,10.061,0,15.35,0c0,14.608,0,29.127,0,43.645
		c0.332,0.073,0.664,0.146,0.994,0.219c0.445-1.12,0.959-2.217,1.328-3.361c4.088-12.648,8.191-25.29,12.189-37.967
		c0.625-1.985,1.402-2.977,3.703-2.844c3.586,0.208,7.205,0.179,10.789-0.064c2.523-0.171,3.49,0.807,4.215,3.145
		c3.873,12.468,7.934,24.879,11.943,37.305c0.352,1.089,0.818,2.141,2.084,3.063c0-14.259,0-28.517,0-43.407
		c5.535,0,10.635-0.11,15.719,0.113c0.805,0.035,1.752,1.461,2.283,2.436c4.402,8.081,8.721,16.207,13.072,24.314
		c0.27,0.501,0.605,0.965,1.107,1.755c0-9.677,0-18.96,0-28.476c4.801,0,9.537,0,14.529,0c0,16.773,0,33.382,0,50.507
		c-4.955,0-9.828,0.093-14.691-0.098c-0.744-0.03-1.629-1.258-2.127-2.118c-5.094-8.769-10.121-17.576-14.871-25.856
		c0,8.672,0,18.079,0,28.13c-1.633,0-3.482,0-5.332,0c-6.838,0.001-13.68-0.114-20.514,0.067c-2.484,0.066-3.922-0.521-4.107-3.137
		c-0.289-4.07-2.518-5.513-6.424-4.819c-0.93,0.166-1.914,0.021-2.873,0.022c-6.162,0.006-6.115,0.022-8.119,5.902
		c-0.271,0.798-1.297,1.902-1.986,1.912c-9.209,0.127-18.418,0.085-27.934,0.085c0-6.672,0-12.986,0-19.618
		c-4.408,0-8.521,0-13.063,0c0,6.326,0,12.73,0,19.384c-5.273,0-10.135,0-15.381,0c0-12.081,0-24.248,0-36.627
		c-3.668,0-6.959,0-10.561,0C216.461,112.513,216.461,124.574,216.461,136.989z M298.41,118.293
		c-1.287-5.333-2.514-10.424-3.742-15.515c-0.23-0.004-0.459-0.009-0.689-0.013c-1.303,5.077-2.604,10.154-3.982,15.528
		C292.934,118.293,295.494,118.293,298.41,118.293z"/>
	<path fill-rule="evenodd" clip-rule="evenodd" d="M233.215,41.391c-3.951,0-7.24,0-10.811,0c0,12.241,0,24.205,0,36.483
		c-5.092,0-9.91,0-15.096,0c0-12.144,0-24.208,0-36.52c-6.174,0-11.982,0-18.183,0c0,12.25,0,24.3,0,36.589
		c-5.123,0-9.861,0-14.987,0c0-12.101,0-24.152,0-35.913c-0.573-0.431-0.751-0.679-0.953-0.701
		c-8.401-0.913-16.804-1.807-25.55-2.739c0,3.033,0,5.229,0,7.862c4.453,0,8.827,0,13.433,0c0,4.062,0,7.697,0,11.715
		c-4.554,0-8.931,0-13.484,0c0,2.828,0,5.272,0,7.967c5.318,0,10.441,0,15.872,0c0,3.992,0,7.75,0,11.786
		c-10.153,0-20.396,0-31.073,0c0-16.718,0-33.403,0-50.331c43.827,0,87.443,0,131.361,0c0,3.682,0,7.32,0,11.524
		c-4.947,0-10.002,0-15.262,0c0,2.65,0,4.747,0,7.24c4.506,0,8.893,0,13.598,0c0,4.013,0,7.646,0,11.731c-4.449,0-8.922,0-13.598,0
		c0,2.789,0,5.138,0,8.075c5.287,0,10.584,0,16.049,0c0,4.238,0,7.893,0,11.784c-10.42,0-20.678,0-31.316,0
		C233.215,65.792,233.215,53.729,233.215,41.391z"/>
	<path fill-rule="evenodd" clip-rule="evenodd" d="M207.459,344.748c-6.318,0-12.039,0-18.204,0c0,11.951,0,23.984,0,36.286
		c-5.267,0-10.095,0-15.28,0c0-12.096,0-24.037,0-36.195c-1.125-0.11-1.922-0.224-2.723-0.261c-3.372-0.158-6.525-0.511-9.914-1.668
		c-4.064-1.388-8.965-0.327-13.749-0.327c0,2.341,0,4.536,0,7.03c4.407,0,8.683,0,13.26,0c0,3.918,0,7.555,0,11.597
		c-4.312,0-8.682,0-13.273,0c0,2.84,0,5.285,0,8.151c5.283,0,10.493,0,15.905,0c0,4.074,0,7.736,0,11.671
		c-10.302,0-20.541,0-31.058,0c0-16.52,0-33.012,0-49.836c43.714,0,87.524,0,131.809,0c0,3.097,0.195,6.192-0.131,9.231
		c-0.088,0.805-1.758,1.992-2.754,2.047c-4.164,0.23-8.346,0.098-12.547,0.098c0,2.445,0,4.675,0,7.136c4.535,0,8.83,0,13.439,0
		c0,3.848,0,7.471,0,11.52c-4.422,0-8.793,0-13.402,0c0,2.863,0,5.312,0,8.144c5.148,0,10.252,0,15.633,0c0,4.021,0,7.671,0,11.635
		c-10.158,0-20.41,0-31.127,0c0-11.882,0-23.913,0-36.212c-3.754,0-7.051,0-10.824,0c0,12.036,0,24.069,0,36.304
		c-5.219,0-9.967,0-15.061,0C207.459,369.087,207.459,357.143,207.459,344.748z"/>
	<path fill-rule="evenodd" clip-rule="evenodd" d="M255.982,195.306c-10.225,0-20.357,0-30.975,0c0-14.344,0-28.513,0-42.681
		c-0.334-0.091-0.668-0.181-1-0.271c-0.598,1.287-1.297,2.536-1.775,3.865c-4.387,12.171-8.77,24.346-13.059,36.552
		c-0.684,1.948-1.553,2.79-3.791,2.799c-9.875,0.041-9.898,0.135-13.287-9.23c-3.788-10.473-7.523-20.964-11.286-31.446
		c-0.383-1.067-0.792-2.125-2.02-3.087c-0.195,1.44-0.39,2.879-0.646,4.759c-4.979,0-9.959,0-15.127,0c0,2.56,0,4.673,0,7.18
		c4.478,0,8.852,0,13.54,0c0,4.022,0,7.657,0,11.64c-4.53,0-8.916,0-13.542,0c0,2.792,0,5.248,0,8.141c5.14,0,10.342,0,15.783,0
		c0,4.081,0,7.737,0,11.991c-5.075,0-10.186,0-15.295,0c-5.146,0-10.291,0-15.724,0c0-16.937,0-33.64,0-50.749
		c1.622,0,3.145,0,4.667,0c12.598-0.008,25.196,0.086,37.791-0.102c2.881-0.043,3.884,0.973,4.557,3.599
		c2.213,8.636,4.689,17.204,6.972,25.463c2.271-8.273,4.721-16.878,6.957-25.539c0.678-2.628,1.82-3.56,4.646-3.527
		c14.02,0.165,28.041,0.075,42.338,0.075c0,3.992,0,7.734,0,11.84c-5.088,0-10.07,0-15.258,0c0,2.464,0,4.576,0,7.133
		c4.318,0,8.684,0,13.275,0c0,4.079,0,7.717,0,11.684c-4.404,0-8.674,0-13.217,0c0,2.762,0,5.208,0,8.071c4.977,0,10.061,0,15.475,0
		C255.982,187.601,255.982,191.333,255.982,195.306z"/>
	<path fill-rule="evenodd" clip-rule="evenodd" d="M246.547,244.765c-4.594,0-8.871,0-13.322,0c0,2.726,0,5.174,0,7.937
		c5.289,0,10.398,0,15.816,0c0,4.058,0,7.805,0,11.729c-10.375,0-20.617,0-31.041,0c0-16.75,0-33.248,0-50.176
		c3.734,0,7.297,0,10.859,0c10.439,0.002,20.881,0.133,31.314-0.077c2.953-0.06,4.254,0.788,4.955,3.647
		c1.908,7.793,4.082,15.52,6.17,23.269c0.082,0.303,0.363,0.551,0.783,1.158c2.088-7.343,4.086-14.368,6.08-21.396
		c1.873-6.604,1.871-6.606,8.703-6.607c12.947-0.002,25.896-0.001,39.18-0.001c0,3.855,0,7.476,0,11.487c-4.959,0-9.926,0-15.152,0
		c0,2.566,0,4.757,0,7.335c4.455,0,8.832,0,13.393,0c0,3.925,0,7.47,0,11.442c-4.424,0-8.795,0-13.43,0c0,2.861,0,5.305,0,8.17
		c5.127,0,10.225,0,15.641,0c0,4.144,0,7.875,0,11.811c-10.363,0-20.619,0-31.236,0c0-14.547,0-28.883,0-43.219
		c-0.299-0.078-0.598-0.157-0.896-0.235c-0.871,2.212-1.797,4.403-2.607,6.639c-4.041,11.149-8.113,22.289-12.027,33.482
		c-0.863,2.47-1.965,3.616-4.807,3.581c-9.291-0.115-9.291,0.008-12.477-8.854c-3.686-10.254-7.367-20.511-11.08-30.755
		c-0.42-1.16-1.025-2.251-2.256-3.197c-0.137,1.111-0.273,2.223-0.465,3.778c-5.029,0-10.105,0-15.387,0c0,2.546,0,4.655,0,7.196
		c4.303,0,8.668,0,13.289,0C246.547,236.968,246.547,240.605,246.547,244.765z"/>
	<path fill-rule="evenodd" clip-rule="evenodd" d="M96.915,214.408c17.478,0,34.464,0,51.666,0c0,4.426,0,8.689,0,13.387
		c-3.41,0-6.813,0-10.51,0c0,12.375,0,24.328,0,36.577c-5.128,0-9.959,0-15.126,0c0-12.007,0-23.946,0-36.204
		c-3.7,0-7.077,0-10.861,0c0,5.924,0.006,11.766-0.002,17.609c-0.009,6.924-1.511,13.127-8.271,16.698
		c-7.934,4.191-16.188,4.348-24.271,0.939c-4.969-2.095-8.637-6.507-8.876-11.823c-0.553-12.292-0.175-24.625-0.175-37.145
		c4.915,0,9.751,0,14.948,0c0,10.238,0.041,20.281-0.025,30.324c-0.019,2.935,0.724,5.171,3.839,6.057
		c4.499,1.278,7.542-1.084,7.61-6.246c0.114-8.635,0.046-17.271,0.055-25.906C96.917,217.376,96.915,216.075,96.915,214.408z"/>
	<path fill-rule="evenodd" clip-rule="evenodd" d="M166.351,322.82c-5.056,0-9.933,0-14.981,0c-0.719-2.434-1.426-4.82-2.213-7.484
		c-4.637,0-9.373,0-14.347,0c-0.723,2.395-1.472,4.877-2.262,7.492c-13.839,0-27.596,0-41.646,0c0-16.695,0-33.275,0-50.074
		c5.009,0,9.876,0,15.148,0c0,12.037,0,23.981,0,36.55c5.023,0,9.665,0.128,14.286-0.124c0.775-0.041,1.79-1.61,2.139-2.658
		c3.405-10.219,6.783-20.447,9.947-30.742c0.78-2.539,1.963-3.429,4.555-3.283c3.587,0.203,7.208-0.131,10.785,0.154
		c1.18,0.094,2.951,1.166,3.287,2.176c5.136,15.445,10.08,30.953,15.058,46.449C166.242,321.703,166.251,322.172,166.351,322.82z
		 M146.083,304.201c-1.365-5.76-2.662-11.231-4.105-17.322c-1.493,6.136-2.825,11.607-4.215,17.322
		C140.63,304.201,142.994,304.201,146.083,304.201z"/>
	<path fill-rule="evenodd" clip-rule="evenodd" d="M47.06,86.582c0,12.29,0,24.251,0,36.559c5.187,0,10.145,0,15.62,0
		c1.661-5.044,3.47-10.451,5.22-15.878c1.908-5.92,3.838-11.833,5.601-17.797c0.69-2.337,1.861-3.254,4.359-3.103
		c3.704,0.224,7.439-0.065,11.144,0.157c0.996,0.061,2.519,0.99,2.801,1.849c5.29,16.123,10.428,32.294,15.677,48.698
		c-5.217,0-10.081,0-15.082,0c-0.18-0.44-0.383-0.851-0.518-1.282c-2.018-6.474-2.016-6.474-8.675-6.472c-2.39,0-4.779,0-7.057,0
		c-0.289,0.307-0.53,0.449-0.59,0.646c-2.227,7.274-2.224,7.274-9.968,7.275c-9.954,0-19.906,0.002-29.859,0.003
		c-1.172,0-2.345,0-3.659,0c0-17.049,0-33.762,0-50.655C37.05,86.582,41.805,86.582,47.06,86.582z M82.905,101.142
		c-1.485,6.076-2.815,11.522-4.199,17.188c3.004,0,5.459,0,7.925,0c0.082-0.534,0.248-0.908,0.171-1.224
		C85.583,112.031,84.333,106.964,82.905,101.142z"/>
	<path fill-rule="evenodd" clip-rule="evenodd" d="M140.144,136.932c0-12.272,0-24.258,0-36.796c-3.137,0-6.109-0.205-9.014,0.148
		c-0.694,0.085-1.645,2.023-1.659,3.119c-0.128,9.838-0.074,19.678-0.074,29.518c0,1.292,0,2.584,0,4.082c-5.098,0-9.835,0-14.934,0
		c0-12.166,0-24.223,0-36.786c-3.723,0-7.106,0-10.68,0c0-4.773,0-9.039,0-13.568c22.336,0,44.581,0,67.087,0
		c0,3.718,0,7.373,0,11.523c-4.999,0-10.073,0-15.345,0c0,2.59,0,4.696,0,7.281c4.521,0,9.012,0,13.607,0c0,4.151,0,7.822,0,11.808
		c-4.625,0-9.019,0-13.608,0c0,2.663,0,5.016,0,7.799c5.138,0,10.344,0,15.882,0c0,4.167,0,7.915,0,11.874
		C161.018,136.932,150.682,136.932,140.144,136.932z"/>
	<path fill-rule="evenodd" clip-rule="evenodd" d="M230.678,322.816c-10.457,0-20.602,0-31.13,0c0-12.082,0-24.01,0-36.26
		c-3.758,0-7.145,0-10.908,0c0,11.959,0,23.903,0,36.133c-5.095,0-9.832,0-15.021,0c0-11.885,0-23.909,0-36.287
		c-3.732,0-7.036,0-10.662,0c0-4.687,0-9.023,0-13.615c22.296,0,44.538,0,67.09,0c0,3.591,0,7.224,0,11.275
		c-5.008,0-9.996,0-15.164,0c0,2.613,0,4.813,0,7.363c4.598,0,8.977,0,13.59,0c0,3.882,0,7.415,0,11.405c-4.488,0-8.969,0-13.631,0
		c0,2.915,0,5.381,0,8.236c5.199,0,10.412,0,15.836,0C230.678,315.11,230.678,318.77,230.678,322.816z"/>
	<path fill-rule="evenodd" clip-rule="evenodd" d="M112.82,166.994c0,9.167,0,18.58,0,28.269c-4.614,0-9.464,0-14.578,0
		c0-16.68,0-33.375,0-50.49c5.063,0,9.944-0.11,14.811,0.103c0.861,0.038,1.938,1.273,2.448,2.21
		c4.51,8.289,8.913,16.636,13.351,24.964c0.207,0.387,0.446,0.758,0.912,1.542c0-9.835,0-19.141,0-28.652c4.708,0,9.45,0,14.463,0
		c0,16.726,0,33.332,0,50.575c-4.762,0-9.62,0.112-14.462-0.109c-0.824-0.038-1.802-1.385-2.336-2.337
		c-4.625-8.232-9.161-16.514-13.737-24.774C113.35,167.678,112.905,167.12,112.82,166.994z"/>
	<path fill-rule="evenodd" clip-rule="evenodd" d="M214.262,264.645c-4.871,0-9.414,0.102-13.945-0.089
		c-0.883-0.038-2.038-1.038-2.523-1.899c-4.864-8.64-9.611-17.346-14.409-26.021c-0.21-0.381-0.603-0.661-0.641-0.702
		c0,9.313,0,18.796,0,28.513c-4.508,0-9.252,0-14.314,0c0-16.63,0-33.199,0-50.162c4.939,0,9.824-0.131,14.69,0.111
		c0.952,0.048,2.137,1.379,2.696,2.401c4.477,8.175,8.826,16.418,13.222,24.636c0.261,0.487,0.595,0.936,0.876,1.374
		c0-9.404,0-18.724,0-28.308c4.521,0,9.263,0,14.349,0C214.262,230.999,214.262,247.578,214.262,264.645z"/>
	<path fill-rule="evenodd" clip-rule="evenodd" d="M120.358,50.784c4.543,1.544,8.007,3.478,9.575,7.714
		c3.465,9.367-1.777,17.557-12.303,19.051c-2.251,0.32-4.53,0.576-6.799,0.602c-6.82,0.078-13.642,0.028-20.769,0.028
		c0-16.958,0-33.648,0-51.147c9.665,0.369,19.335,0.409,28.935,1.259c4.138,0.366,7.044,3.686,7.961,7.865
		c1.015,4.63,0.587,9.115-3.49,12.426C122.646,49.25,121.738,49.813,120.358,50.784z M105.29,57.813c0,2.848,0,5.503,0,8.305
		c3.408-0.153,6.996,1.167,9.065-2.27c0.622-1.034,0.431-3.317-0.331-4.282C111.784,56.736,108.51,57.547,105.29,57.813z
		 M105.179,46.781c2.928-1.174,5.182-1.914,7.224-3.038c0.392-0.215,0.26-2.671-0.154-2.846c-2.138-0.898-4.446-1.391-7.069-2.13
		C105.179,41.625,105.179,43.484,105.179,46.781z"/>
	<path fill-rule="evenodd" clip-rule="evenodd" d="M89.803,380.972c0-16.691,0-33.19,0-49.765c9.523,0,18.856-0.371,28.14,0.153
		c4.789,0.271,7.969,3.886,8.971,8.632c0.961,4.55,0.338,8.875-3.845,11.904c-0.764,0.554-1.512,1.128-2.517,1.879
		c0.602,0.425,0.989,0.837,1.463,1.012c5.621,2.063,8.424,5.746,8.647,11.426c0.243,6.198-2.24,10.58-7.801,12.796
		c-2.623,1.046-5.535,1.791-8.34,1.876C106.405,381.131,98.276,380.972,89.803,380.972z M105.006,369.416
		c3.396-0.528,7.06,1.197,9.045-2.371c0.623-1.12,0.38-3.59-0.471-4.495c-2.344-2.49-5.533-1.755-8.574-1.51
		C105.006,363.919,105.006,366.387,105.006,369.416z M105.177,341.713c0,3.281,0,5.221,0,8.307c2.803-1.187,5.001-1.986,7.028-3.099
		c0.361-0.198,0.311-2.308-0.063-2.493C110.065,343.403,107.83,342.702,105.177,341.713z"/>
	<path fill-rule="evenodd" clip-rule="evenodd" d="M27.82,214.5c9.374,0,18.466-0.281,27.529,0.115
		c4.83,0.211,8.062,3.436,9.392,8.148c1.34,4.747,0.545,9.028-3.411,12.359c-0.799,0.672-1.697,1.227-2.517,1.813
		c0.152,0.371,0.183,0.71,0.333,0.777c7.197,3.18,10.074,7.207,9.54,13.396c-0.624,7.221-4.263,11.686-12.354,12.612
		c-9.338,1.068-18.817,0.896-28.512,1.271C27.82,247.809,27.82,231.328,27.82,214.5z M43.01,252.619
		c3.478-0.125,7.055,1.198,9.117-2.153c0.659-1.071,0.376-3.642-0.495-4.556c-2.345-2.461-5.54-1.797-8.622-1.521
		C43.01,247.271,43.01,249.74,43.01,252.619z M43.081,233.133c2.697-0.955,4.975-1.585,7.032-2.643
		c0.396-0.205,0.263-2.863-0.198-3.063c-2.102-0.904-4.408-1.337-6.834-1.99C43.081,228.313,43.081,230.184,43.081,233.133z"/>
	<path fill-rule="evenodd" clip-rule="evenodd" d="M282.52,77.973c-5.383,0-10.232,0-15.275,0c0-16.777,0-33.389,0-50.606
		c2.324,0,4.664-0.042,7.002,0.008c6.699,0.142,13.418,0.049,20.09,0.559c7.07,0.541,11.746,5.068,12.789,11.556
		c1.258,7.806-1.744,13.492-8.73,16.563c-0.211,0.092-0.383,0.275-1.102,0.81c4.037,6.832,8.117,13.736,12.578,21.283
		c-5.754,0-10.832,0.099-15.896-0.099c-0.834-0.033-1.898-1.226-2.377-2.135c-2.818-5.349-5.496-10.772-9.078-16.026
		C282.52,65.853,282.52,71.821,282.52,77.973z M282.717,49.875c3.195-0.302,6.625,0.655,7.846-2.809
		c0.629-1.785,0.563-4.504-0.412-6.012c-1.707-2.638-4.75-1.847-7.434-1.392C282.717,43.086,282.717,46.279,282.717,49.875z"/>
	<path fill-rule="evenodd" clip-rule="evenodd" d="M301.674,195.521c-5.746,0-10.75,0.099-15.744-0.093
		c-0.883-0.034-2.037-1.111-2.518-2.002c-2.33-4.322-4.459-8.751-6.691-13.126c-0.488-0.959-1.107-1.851-1.666-2.774
		c-0.301,0.096-0.602,0.191-0.9,0.287c0,5.773,0,11.546,0,17.516c-5.174,0-9.916,0-14.938,0c0-16.747,0-33.431,0-50.917
		c9.902,0.378,19.715,0.312,29.422,1.29c5.709,0.576,9.934,6.578,10.479,12.625c0.596,6.619-2.383,12.12-7.967,14.708
		c-0.619,0.287-1.242,0.564-2.256,1.024C293.098,181.12,297.172,187.962,301.674,195.521z M274.125,167.007
		c3.342,0.176,6.607,0.825,8.063-2.339c0.77-1.671,0.695-4.447-0.215-6.018c-1.715-2.96-4.855-2.045-7.848-1.565
		c0,2.36,0,4.501,0,6.642C274.125,164.667,274.125,165.606,274.125,167.007z"/>
	<path fill-rule="evenodd" clip-rule="evenodd" d="M344.838,264.5c-5.566,0-10.32,0-15.311,0c0-16.697,0-33.193,0-50.252
		c4.162,0,8.188-0.017,12.211,0.004c4.559,0.024,9.119,0.012,13.674,0.142c7.568,0.218,12.588,4.471,14.127,11.831
		c1.459,6.976-1.598,13.148-8.068,16.313c-0.418,0.203-0.805,0.468-1.666,0.977c4.053,6.928,8.053,13.766,12.375,21.158
		c-5.74,0-10.957,0.102-16.164-0.102c-0.842-0.032-1.902-1.268-2.4-2.195c-2.098-3.904-4.004-7.908-6.012-11.86
		c-0.576-1.132-1.254-2.21-2.766-3.143C344.838,252.996,344.838,258.621,344.838,264.5z M344.674,226.317
		c0,1.104-0.002,2.268,0.002,3.431c0.002,1.673-0.074,3.353,0.061,5.016c0.047,0.579,0.49,1.4,0.977,1.625
		c2.91,1.346,7.25-1.212,7.666-4.421C353.992,227.229,351.322,225.398,344.674,226.317z"/>
	<path fill-rule="evenodd" clip-rule="evenodd" d="M282.715,363.809c0,2.852,0,5.702,0,8.553c0,2.755,0,5.509,0,8.608
		c-4.986,0-9.813,0-14.957,0c0-16.525,0-33.098,0-49.792c9.396,0,18.742-0.439,28.021,0.148c6.559,0.416,10.99,5.956,11.939,12.98
		c0.846,6.26-2.457,12.015-8.469,14.764c-0.424,0.194-0.83,0.426-1.768,0.908c4.133,6.938,8.199,13.764,12.65,21.234
		c-5.813,0-11.139,0.085-16.453-0.102c-0.705-0.024-1.553-1.325-2.012-2.204c-2.221-4.24-4.318-8.543-6.486-12.811
		c-0.459-0.903-1.033-1.75-1.553-2.622C283.324,363.586,283.02,363.697,282.715,363.809z M283.018,341.78c0,4.444,0,7.795,0,12.412
		c3.033-1.323,5.984-1.813,7.51-3.553c1.055-1.202,0.998-5.006-0.1-6.085C288.797,342.948,285.807,342.722,283.018,341.78z"/>
	<path fill-rule="evenodd" clip-rule="evenodd" d="M305.498,275.449c-1.508,3.888-2.932,7.556-4.248,10.951
		c-3.436-1.028-6.668-2.215-10-2.914c-2.041-0.429-4.623,0.083-4.586,2.646c0.018,1.303,1.951,2.992,3.41,3.76
		c1.967,1.033,4.363,1.21,6.488,1.99c11.178,4.104,13.762,19.355,4.68,27.167c-8.363,7.193-22.547,6.173-31.021-0.495
		c-0.586-0.461-0.855-1.904-0.633-2.715c0.918-3.337,2.082-6.606,3.234-10.146c2.096,1.449,3.922,3.297,6.129,4.093
		c2.93,1.058,6.143,1.58,9.264,1.722c0.988,0.045,2.74-1.77,2.904-2.911c0.15-1.053-1.104-2.769-2.199-3.431
		c-1.59-0.959-3.58-1.279-5.422-1.791c-8.301-2.307-13.162-7.881-13.002-14.953c0.172-7.561,6.031-14.385,13.926-16.217
		C291.451,270.575,298.572,271.632,305.498,275.449z"/>
	<path fill-rule="evenodd" clip-rule="evenodd" d="M267.916,322.736c-5.098,0-9.955,0-15.01,0c0-16.691,0-33.168,0-49.934
		c5.008,0,9.842,0,15.01,0C267.916,289.356,267.916,305.838,267.916,322.736z"/>
</g>
</svg>
