<?xml version="1.0" encoding="utf-8"?>
<!-- Generator: Adobe Illustrator 16.0.0, SVG Export Plug-In . SVG Version: 6.00 Build 0)  -->
<!DOCTYPE svg PUBLIC "-//W3C//DTD SVG 1.1//EN" "http://www.w3.org/Graphics/SVG/1.1/DTD/svg11.dtd">
<svg version="1.1" id="Layer_1" xmlns="http://www.w3.org/2000/svg" xmlns:xlink="http://www.w3.org/1999/xlink" x="0px" y="0px"
	 width="400px" height="400px" viewBox="0 0 400 400" enable-background="new 0 0 400 400" xml:space="preserve">
<g>
	<g>
		<path fill-rule="evenodd" clip-rule="evenodd" fill="none" d="M1.702,201.702c0-64.681,0.074-129.362-0.143-194.042
			C1.542,2.582,2.583,1.555,7.66,1.563c129.362,0.177,258.723,0.177,388.085,0c5.074-0.007,6.104,1.021,6.097,6.097
			c-0.178,129.362-0.178,258.723,0,388.085c0.007,5.074-1.021,6.104-6.097,6.097c-129.362-0.178-258.724-0.178-388.084,0
			c-5.076,0.007-6.119-1.018-6.102-6.097C1.776,331.064,1.702,266.383,1.702,201.702z M154.25,287.009
			c8.422,0.114,17.159-1.146,25.186,0.695c9.606,2.204,15.934-1.339,21.71-7.629c2.539-2.767,6.522-6.088,3.821-10.234
			c-2.39-3.671-6.652-4.674-11.312-3.08c-2.07,0.707-5.491,2.266-6.287-1.51c-0.958-4.542,2.153-7.676,5.754-9.446
			c2.397-1.18,6.6-2.632,7.344,1.919c0.481,2.943,2.224,4.657,3.922,3.975c2.726-1.098,2.121-4.594,1.216-6.673
			c-1.637-3.751-5.1-5.266-9.143-4.212c-5.392,1.405-9.764,4.535-12.914,9.122c-2.331,3.395-5.726,6.986-3.029,11.379
			c3.235,5.27,7.526,1.655,11.274,0.322c3.026-1.076,6.958-2.608,8.677-0.069c2.551,3.769-1.97,5.88-4.301,7.986
			c-2.044,1.846-4.618,3.25-7.176,4.333c-1.8,0.762-4.827,0.629-4.564-1.927c0.558-5.459-2.997-2.688-3.643-1.674
			c-2.86,4.49-6.886,2.43-10.475,2.302c-2.773-0.1-7.114,1.289-6.671-3.859c0.311-3.619-2.74-9.165,4.392-9.903
			c1.395-0.145,2.938-0.187,3.076-2.109c0.125-1.744-0.908-2.679-2.521-2.646c-2.903,0.06-5.15-0.316-4.613-4.113
			c0.546-3.856,3.578-2.665,5.898-3.163c3.55-0.763,8.649,2.148,10.578-4.235c-6.552-1.462-12.797,0.142-18.939-1.475
			c-2.859-0.752-5.188,0.729-4.241,6.104c1.759,9.978,3.77,20.728-3.12,30.125c1.78-9.893,0.433-19.719-0.873-29.505
			c-0.279-2.092,1.305-5.665-2.717-6.074c-3.738-0.381-5.073,1.995-6.442,5.266c-2.613,6.241-3.417,13.281-8.202,20.431
			c-2.004-7.102-3.301-12.811-5.285-18.27c-1.035-2.846-0.978-6.77-5.844-7.238c-5.426-0.522-3.828,4.702-6.613,6.955
			c-5.22-13.162-18.139-3.998-26.3-9.224c-0.326-0.209-1.51,0.671-2.137,1.223c-8.592,7.559-14.353,16.616-14.842,28.41
			c-0.137,3.287,0.61,6.453,3.697,7.982c3.432,1.701,6.559-0.102,9.486-1.987c3.072-1.979,3.687-6.398,7.184-7.62
			c1.874,0.315,1.64,1.663,2.023,2.636c1.58,4.008,3.125,8.34,8.444,8.166c4.591-0.15,6.54-3.813,8.341-7.476
			c1.342-2.729,1.753-6.019,4.891-8.287c-0.328,4.031-0.509,7.695-0.958,11.326c-0.332,2.685,0.944,3.313,3.288,3.641
			c3.548,0.498,2.691-1.905,2.669-3.685c-0.071-5.944-0.529-11.917,1.626-17.794c2.761,5.119,4.832,10.283,6.659,15.532
			c0.865,2.485,1.532,5.318,4.68,5.082c2.831-0.213,2.429-3.413,3.432-5.313c2.816-5.333,2.581-12.366,9.424-17.277
			c0,7.105,0.054,12.751-0.021,18.396C149.717,285.714,149.723,288.554,154.25,287.009z M268.062,286.828
			c5.866-0.259,11.729-0.601,17.6-0.754c5.357-0.14,11.51,1.713,12.882-6.549c0.284-1.71,2.665-1.567,4.301-2.033
			c8.703-2.48,6.162,6.691,9.874,9.67c3.881-3.325,0.781-8.461,3.524-11.796c-7.043-5.525-5.946-14.761-9.839-21.744
			c-0.792-1.421-0.638-3.516-2.916-3.368c-2.14,0.137-2.803,2.105-2.828,3.686c-0.167,9.938-7.957,17.604-8.112,27.531
			c-0.011,0.631-1.062,1.833-1.5,1.776c-4.119-0.531-8.677-0.388-12.17-2.223c-3.248-1.707-1.188-6.178-1.465-9.42
			c-0.4-4.711,6.122-2.246,6.721-6.531c-1.78-2.324-8.194,0-6.664-6.097c1.415-5.64,5.904-2.808,9.061-3.556
			c2.517-0.597,5.92,1.178,7.221-3.474c-6.398-0.983-12.943,0.522-19.171-1.486c-1.105-0.356-4.165,1.384-4.148,2.106
			c0.202,9.098-4.428,2.402-6.075,1.609c-20.542-9.891-34.541-3.777-40.349,17.867c-2.701,10.063,0.563,14.312,10.95,13.786
			c-0.166,1.411-0.081,2.855-0.54,4.099c-0.789,2.134-2.366,4.723,0.837,5.552c2.439,0.631,2.483-2.346,3.077-4.122
			c1.518-4.542,3.143-9.05,4.597-13.611c0.638-2,1.239-3.825,3.833-3.658c3.086,0.199,2.037,2.795,2.601,4.477
			c0.969,2.899-1.269,8.414,3.195,8.238c5.575-0.22,1.307-5.91,2.741-8.804c0.2-0.402,0.499-0.758,0.882-1.325
			c2.53,4.452,4.993,8.771,7.441,13.099c1.494,2.641,3.887,2.471,5.674,1c1.724-1.418-0.47-2.695-1.206-3.95L268.062,286.828z
			 M184.688,154.425c8.438-0.39,16.882-1.168,25.31-1.024c5.022,0.085,8.604-0.23,9.542-6.185c0.843-5.362,5.54-3.573,8.913-4.088
			c3.787-0.579,4.796,1.741,5.371,4.879c0.42,2.292,1.374,4.487,2.198,7.066c4.85-5.705,4.966-12.639,1.224-17.725
			c-1.272-1.73-1.578-4.177-2.307-6.303c-2.011-5.859-3.976-11.735-6.044-17.575c-0.447-1.261-0.901-2.745-2.776-2.666
			c-1.579,0.066-2.601,0.7-3.02,2.336c-1.606,6.272-5.024,12.696-4.448,18.748c0.631,6.638-12.939,6.892-5.604,15.24
			c0.811,0.922-1.099,3.842-3.754,1.936c-2.05-1.471-4.405-0.549-6.561-0.994c-2.835-0.587-8.032,2.083-7.483-3.692
			c0.409-4.3-3.201-10.729,4.693-12.479c1.79-0.396,4.117-0.541,3.743-3.526c-0.313-2.499-2.223-2.362-3.756-2.161
			c-4.381,0.573-4.306-2.072-4.31-5.168c-0.006-4.021,2.756-3.552,5.259-3.61c2.831-0.065,5.665-0.051,8.497-0.082
			c2.409-0.026,5.041-0.667,4.898-3.351c-0.15-2.832-3.085-1.616-4.816-1.696c-3.957-0.183-8.021,0.469-11.864-0.22
			c-3.308-0.592-6.221-2.089-9.616,0.002c-4.594,2.832,2.772,5.617-0.143,8.202c-2.964-1.695-5.816-3.557-8.856-5.03
			c-21.459-10.391-37.229-4.829-45.39,15.984c-0.922,2.353-1.691,4.809-2.166,7.287c-2.086,10.902,2.856,15.807,14.313,13.565
			c-0.607,2.311-0.888,4.483-1.749,6.393c-1.242,2.752-1.286,5.633,1.653,6.328c3.046,0.721,2.722-3.103,3.413-4.879
			c2.236-5.758,4.127-11.673,5.745-17.638c0.9-3.316,3.756-3.936,5.794-3.685c2.266,0.278,0.985,3.257,1.191,5.038
			c0.26,2.242,0.14,4.526,0.274,6.787c0.159,2.657,1.443,4.182,4.303,4.064c3.29-0.134,2.178-2.593,2.324-4.353
			c0.215-2.618-0.859-5.416,0.996-8.396c6.193,6.051,4.632,19.528,18.793,17.699c-1.55-2.063-2.669-3.552-3.788-5.042
			L184.688,154.425z M67.53,167.994c-0.84-9.75-3.865-11.712-12.319-8.203c-11.209,4.653-15.096,12.703-11.331,24.569
			c8.755,27.589,29.161,42.723,56.133,48.354c33.044,6.899,66.257,6.377,98.814-4.244c2.033-0.664,4.69-0.864,6.63-0.139
			c23.353,8.737,47.757,7.396,72.033,8.639c18.304,0.937,34.309-3.44,49.837-12.334c16.686-9.555,28.813-22.567,33.941-41.419
			c3.17-11.655-2.073-21.071-13.416-24.378c-6.952-2.025-9.864,0.346-9.991,8.466c4.137-6.387,7.314-4.097,9.93,0.93
			c2.55,4.903,2.661,9.999-1.029,14.275c-4.069,4.716-8.709,9.679-15.761,7.969c-23.481-5.697-47.667-8.228-70.213-18.179
			c-17.995-7.944-36.817-8.498-54.646,1.886c-3.308,1.927-5.745,0.789-8.637-0.71c-12.778-6.622-26.317-8.883-40.261-4.994
			c-21.703,6.052-42.693,14.263-63.32,23.238c-4.771,2.076-9.181,2.681-13.885,2.277c-11.235-0.964-22.74-9.003-24.564-16.705
			c-1.341-5.652,1.09-10.308,5.204-13.373C64.079,161.383,65.317,166.2,67.53,167.994z M175.693,327.225
			c5.186,3.387,6.698,7.735,7.603,11.471c1.54,6.356,6.817,7.531,11.164,9.988c1.858,1.051,4.603,0.776,6.4-0.939
			c6.134-5.854,10.295-12.776,10.053-21.545c-0.122-4.435-2.761-6.654-7.336-6.049c-2.354,0.311-5.924,3.625-5.992-1.898
			c-0.063-5.16,0.8-11.09,6.095-12.986c4.908-1.759,3.555,3.271,4.074,6.063c0.226,1.213,1.451,2.239,2.726,4.074
			c0.357-2.368,0.627-3.966,0.832-5.573c0.146-1.142,0.274-2.382,1.769-2.291c1.373,0.082,3.312,0.271,3.355,1.921
			c0.29,10.686,1.723,21.452-0.886,31.988c-0.428,1.729-4.127,3.286-1.539,5.254c1.679,1.276,4.857,2.024,7.282,0.616
			c3.014-1.748,1.301-4.102,0.704-6.572c-2.792-11.557-2.975-23.207,1.475-34.354c1.618-4.051,1.061-5.2-2.93-5.078
			c-3.333,0.102-7.759,1.915-9.785,0.403c-6.403-4.776-9.339-0.599-12.324,3.614c-3.469,4.896-5.323,10.563-6.135,16.499
			c-0.382,2.798-0.717,5.908,2.111,7.722c2.764,1.772,4.625-0.724,6.765-1.951c1.796-1.029,3.815-3.432,5.858-1.136
			c1.601,1.802,0.829,4.323-0.349,6.383c-1.121,1.965-2.207,3.977-3.575,5.764c-1.502,1.963-3.121,4.775-6.088,3.325
			c-3.658-1.789,2.302-4.038,0.346-6.076c-3.676-1.351-4.194,3.459-7.906,3.404c0.247-12.725-0.885-25.288-1.031-38.056
			c-4.031,8.964-1.847,18.688-3.436,29.497c-6.708-10.373-11.316-19.611-9.803-30.978c-4.012,1.054-2.542,3.944-4.448,5.484
			c-2.572-2.175-4.338-6.176-8.717-5.497c-4.648,0.72-3.877,6.358-7.252,8.534c-2.192-1.73-3.97-4.197-6.181-4.678
			c-6.564-1.428-13.387-7.77-19.948-0.435c-4.826,5.395-7.288,12.021-7.747,19.272c-0.159,2.515-0.394,5.325,2.125,6.949
			c2.516,1.621,4.086-0.838,5.943-1.854c2.132-1.165,4.292-3.784,6.706-1.504c2.104,1.989,0.965,4.882-0.195,7.148
			c-1.148,2.246-2.628,4.362-4.22,6.327c-1.37,1.688-2.775,4.001-5.409,3.315c-3.667-0.954,0.132-4.419-1.688-6.274
			c-0.867,0.404-2.122,0.592-2.301,1.134c-1.976,5.979-6.551,4.079-10.361,3.197c-4.6-1.064-2.352-5.158-2.433-7.853
			c-0.115-3.878-1.776-8.614,4.175-10.498c1.781-0.563,1.202-3.168,0.335-4.529c-5.189-8.149-5.244-8.107,4.665-11.243
			c2.24-0.709,4.952-3.127,2.428-4.208c-4.368-1.871-9.874-2.802-14.485-1.927c-5.18,0.982,0.116,6.095-1.47,9.14
			c-2.47-2.221-4.629-4.491-7.116-6.318c-3.37-2.475-7.813-3.828-11.109-1.489c-3.577,2.538,0.638,5.012,1.768,7.554
			c0.747,1.68,0.345,3.897,0.358,5.876c0.059,8.787,0.011,17.576,0.159,26.362c0.047,2.803-0.623,6.383,4.623,6.591
			c0-3.838,0-7.406,0-10.974c2.538,4.198,3.929,8.597,5.377,12.979c0.597,1.806,0.841,4.02,3.572,3.873
			c3.975-0.211,1.309-2.588,1.254-4.034c-0.109-2.909,2.225-2.01,3.603-2.269c4.729-0.885,9.543-1.543,14.164,0.351
			c4.773,1.954,8.243,0.234,11.068-3.499c3.271-4.324,5.701-9.163,6.892-14.411c1.624-7.16-1.917-11.128-8.973-9.501
			c-4.026,0.928-4.549-0.415-4.374-3.479c0.23-4.028,1.343-7.823,4.09-10.894c1.77-1.978,4.681-2.738,5.462,0.077
			c1.953,7.042,8.506,12.55,5.936,21.278c-1.372,4.659-0.064,10.118,0.098,15.216c0.07,2.199-0.257,4.733,3.412,5.114
			c0-4.737-0.019-9.412,0.006-14.087c0.021-4.115,2.78-6.272,6.203-6.921c4.356-0.825,3.709,3.516,4.477,5.804
			c1.154,3.437,1.419,7.162,2.251,10.722c0.583,2.488,1.312,5.214,4.621,5.173c2.832-0.037,3.583-2.511,4.254-4.635
			c1.517-4.802,2.837-9.667,4.56-15.615c1.966,6.565,0.575,12.593,4.348,19.593C175.693,340.264,175.693,334.412,175.693,327.225z
			 M155.797,86.213c-0.984-6.329-1.878-12.674-3.009-18.975c-0.315-1.752-0.254-4.653-2.651-4.532
			c-2.919,0.148-2.903,2.552-2.401,5.129c1.563,8.021,2.569,16.162,4.426,24.108c0.502,2.148-0.728,6.222,3.783,6.395
			c3.783,0.146,4.444-2.821,5.562-5.375c2.728-6.236,3.558-13.291,8.076-19.521c2.5,6.748,4.794,12.797,6.97,18.887
			c0.887,2.481,1.554,4.91,5.062,4.401c3.073-0.446,3.051-3.038,3.558-5.068c1.774-7.1,3.283-14.267,5.069-21.364
			c0.292-1.16-0.352-3.91,2.633-2.752c1.657,0.643,4.776-0.202,4.358,2.768c-1.227,8.731,4.48,18.655-4.782,26.36
			c4.542-0.593,8.893,3.641,12.976-1.016c-7.716-6.375-3.382-14.58-3.206-22.103c0.055-2.34-1.86-7.396,4.059-5.801
			c4.03,1.084,11.064-2.833,10.572,6.441c-0.313,5.907,0.491,11.875,0.828,17.813c0.142,2.475-0.287,5.806,3.465,5.485
			c3.392-0.29,1.725-3.469,1.744-5.291c0.072-6.794-0.166-13.593-0.346-20.388c-0.061-2.286,0.504-3.944,3.188-3.835
			c2.161,0.086,5.49-0.545,5.217,2.601c-0.336,3.85,2.952,7.989-2.597,11.929c-2.838,2.016,5.813,6.944,3.436,12.419
			c-0.453,1.046,0.981,1.779,2.231,1.857c1.879,0.117,2.428-1.043,2.478-2.601c0.062-1.98,0.009-3.964,0.053-5.946
			c0.076-3.481,2.688-2.923,4.89-3.053c2.303-0.136,3.879,0.496,3.813,3.198c-0.046,1.981,0.011,3.964,0.004,5.947
			c-0.006,1.85,0.53,3.635,2.514,3.834c2.504,0.252,2.274-1.988,2.348-3.57c0.436-9.342,0.798-18.688,1.186-28.032
			c0.058-1.382,0.366-2.909-1.615-3.257c-2.133-0.375-3.232,0.762-3.407,2.715c-0.354,3.948-0.716,7.908-0.77,11.867
			c-0.051,3.719-2.312,3.81-5.096,3.878c-2.906,0.071-4.071-1.1-4.128-3.946c-0.062-3.111-0.713-6.233-0.549-9.319
			c0.259-4.856-1.459-5.906-6.384-5.719c-13.289,0.505-26.623,0.386-39.915-0.112c-3.136-0.117-3.559,0.375-4.046,3.077
			c-1.062,5.888-2.598,11.691-3.941,17.529c-4.016-4.824-6.108-9.893-8.333-14.902c-0.779-1.753-1.493-3.788-4.122-3.534
			c-2.508,0.243-3.048,2.127-3.601,4.082C163.632,75.141,161.066,80.995,155.797,86.213z M297.486,347.926
			c0-9.987-0.229-19.77,0.123-29.53c0.124-3.454-2.606-9.205,2.492-9.922c4.607-0.647,3.611,5.43,4.492,8.538
			c2.528,8.918,5.73,17.768,5.07,27.327c-0.126,1.828-0.209,4.227,2.742,4.312c2.519,0.073,2.619-1.903,2.426-3.511
			c-1.638-13.658,3.25-26.143,6.645-38.927c0.335-1.263,3.064-3.727-0.468-4.746c-2.753-0.794-3.912,0.506-4.433,3.396
			c-1.004,5.578-2.55,11.059-3.871,16.579c-3.184-6.438-3.134-14.667-7.223-18.741c-4.446-4.428-12.934-1.206-19.611-1.182
			c-4.665,0.017-16.811-4.062-7.005,8.606c0.557,0.719,0.132,2.21,0.134,3.343c0.02,7.366-0.152,14.739,0.113,22.097
			c0.156,4.311-2.03,8.886-5.362,7.563c-3.738-1.484-11.99,2.177-11.176-7.336c0.82-9.581,0.771-19.237,1.073-28.861
			c0.099-3.126,0.604-6.591-4.098-6.344c0,12.174,0.058,24.34-0.046,36.505c-0.022,2.656,0.692,6.525-3.073,6.667
			c-1.244,0.046-4.396-3.379-4.112-6.343c1.028-10.766-1.76-21.973,3.622-32.245c0.668-1.272,1.366-3.089-0.493-3.429
			c-2.729-0.498-5.643-0.468-8.408-0.118c-2.306,0.293-1.134,2.415-0.579,3.213c6.949,9.984,1.991,21.213,3.427,31.753
			c0.226,1.652,0.084,3.388-1.329,4.709c-1.386,1.298-4.013,2.586-2.737,4.619c1.382,2.204,4.62,2.171,6.962,1.923
			c9.015-0.959,18.029-1.008,26.985-0.005c4.296,0.48,5.687-1.371,4.264-4.555c-5.306-11.853,0.085-23.797-1.699-35.399
			c8.935-1.501,11.485,2.123,10.995,9.973c-0.475,7.604,0.127,15.292,0.581,22.924C294.057,343.25,292.784,346.742,297.486,347.926z
			 M242.067,317.832c-0.314-6.639-0.478-13.775-8.751-16.929c-2.064-0.786-4.451-2.29-6.239-0.509
			c-1.672,1.665-0.828,3.886,0.243,6.147c2.077,4.389,2.428,9.088,0.444,13.794c-0.726,1.722-2.084,3.615-0.537,5.535
			c3.793,4.707,2.081,9.325,0.072,14.071c-1.882,4.444-1.645,7.38,4.572,7.432c9.329,0.078,14.597-5.897,12.746-15.238
			C243.706,327.539,240.523,323.39,242.067,317.832z M239.542,112.267c-0.079,4.712,1.773,7.095,6.095,6.043
			c6.714-1.634,7.623,2.059,7.614,7.33c-0.016,7.896,0.353,15.791,0.321,23.686c-0.014,3.288,1.542,4.707,4.491,4.752
			c3.925,0.062,2.273-3.1,2.274-4.818c0-6.764-0.229-13.534-0.584-20.291c-0.317-6.052-2.883-13.356,8.121-11.547
			c1.897,0.312,4.073-1.2,3.764-3.529c-0.297-2.239-2.652-1.573-4.175-1.586C258.192,112.228,248.92,112.267,239.542,112.267z
			 M328.767,251.595c0,0.064,0,0.129,0,0.193c-3.116,0-6.245-0.165-9.344,0.068c-1.585,0.12-4.557-1.39-4.256,2.108
			c0.2,2.333,2.247,3.253,4.44,2.859c6.954-1.248,7.158,3.071,7.064,8.063c-0.11,5.949,0.226,11.906,0.142,17.857
			c-0.043,3.073,1.909,4.239,4.193,4.172c3.603-0.106,1.436-2.852,1.41-4.441c-0.109-6.799-0.282-13.6-0.604-20.393
			c-0.183-3.879,0.171-7.058,5.309-6.017c2.366,0.479,4.455-0.41,4.575-2.498c0.188-3.261-2.792-1.791-4.438-1.915
			C334.443,251.44,331.599,251.595,328.767,251.595z"/>
		<path fill-rule="evenodd" clip-rule="evenodd" d="M67.53,167.994c-2.213-1.793-3.451-6.611-6.853-4.076
			c-4.113,3.065-6.544,7.72-5.204,13.373c1.825,7.701,13.329,15.741,24.564,16.705c4.704,0.404,9.114-0.202,13.885-2.277
			c20.627-8.975,41.617-17.186,63.32-23.238c13.944-3.889,27.483-1.627,40.261,4.994c2.892,1.5,5.33,2.637,8.637,0.71
			c17.829-10.384,36.651-9.83,54.646-1.886c22.546,9.952,46.731,12.482,70.213,18.179c7.052,1.71,11.691-3.252,15.761-7.969
			c3.69-4.277,3.579-9.373,1.029-14.275c-2.615-5.027-5.793-7.317-9.93-0.93c0.127-8.12,3.039-10.491,9.991-8.466
			c11.343,3.307,16.586,12.723,13.416,24.378c-5.128,18.852-17.256,31.864-33.941,41.419c-15.528,8.894-31.533,13.271-49.837,12.334
			c-24.276-1.242-48.681,0.099-72.033-8.639c-1.939-0.726-4.597-0.525-6.63,0.139c-32.557,10.621-65.77,11.144-98.814,4.244
			c-26.972-5.631-47.378-20.765-56.133-48.354c-3.766-11.866,0.122-19.916,11.331-24.569
			C63.665,156.282,66.689,158.243,67.53,167.994z M132.736,211.186c2.625,2.558,2.631,6.116,3.706,9.297
			c1.316,3.891,2.187,9.063,7.571,8.938c4.652-0.107,6.109-4.577,7.345-8.346c1.365-4.166,2.321-8.467,3.455-12.71
			c1.212,4.445,2.536,8.211,3.868,11.912c1.035,2.875,2.202,6.3,5.883,6.556c3.966,0.274,6.123-2.744,7.425-5.974
			c1.997-4.95,3.596-10.062,5.5-15.496c3.35,3.918,6.764,3.492,10.632,1.162c2.751-1.659,6.512-4.622,8.999-1.039
			c2.227,3.206-1.346,6.226-3.494,8.78c-1.449,1.723-2.988,3.609-4.906,4.642c-2.535,1.364-6.633,4.204-5.307-2.716
			c0.681-3.555-1.944-1.861-2.843-1.41c-3.036,1.526-4.818,4.417-4.291,7.624c0.615,3.735,3.956,4.363,7.313,4.263
			c6.701-0.2,14.729-8.122,17.76-17.551c2.223-6.915-1.909-11.616-9.104-10.64c-2.167,0.293-4.879,3.461-6.56-0.065
			c-1.248-2.62-0.003-5.54,1.409-8.099c1.568-2.838,3.48-5.421,7.055-5.304c4.02,0.131,2.749,3.064,2.888,5.568
			c0.065,1.163,2.005,2.804,3.375,3.164c1.765,0.463,1.925-1.54,2.144-2.881c0.604-3.718,3.555-3.165,5.959-3.077
			c3.666,0.136,2.502,3.203,2.527,5.172c0.106,8.508-0.053,17.019,0.002,25.529c0.02,2.91-1.05,7.271,3.729,6.804
			c3.408-0.333,1.544-4.116,1.6-6.282c0.212-8.22,0.106-16.448,0.082-24.674c-0.012-3.858-0.21-7.598,5.621-6.923
			c2.536,0.293,4.524-1.497,4.255-4.101c-0.342-3.303-3.312-2.313-5.415-2.389c-6.795-0.246-13.945,0.848-20.295-0.935
			c-7.281-2.044-11.361,0.978-15.45,5.543c-1.992,2.225-3.586,4.806-5.693,7.679c-0.369-7.266-0.369-7.266-7.575-11.357
			c0.083,10.327-0.626,20.48-3.417,30.375c-0.594,2.104-0.992,5.209-3.595,5.019c-3.197-0.233-3.125-3.544-3.146-6.021
			c-0.086-9.875-0.036-19.752-0.036-29.484c-6.151-0.978-7.18,2.551-7.221,7.467c-3.999-4.672-7.726-8.861-13.467-6.557
			c-4.976,1.998-6.126,6.992-6.728,11.953c-0.678,5.586-2.545,11.062-1.456,16.79c-2.833-7.261-1.536-15.146-3.405-22.554
			c-0.382-1.513,0.281-3.9-2.169-3.787c-1.78,0.083-4.13,0.152-4.78,2.673c-0.563,2.189-1.183,4.37-1.619,6.585
			c-1.46,7.41-2.849,14.834-4.265,22.253c-3.48-6.906-5.402-13.65-7.418-20.367c-0.671-2.238-0.619-5.53-4.475-4.453
			c-2.653,0.74-5.737,1.264-5.681,5.142c0.144,9.926,0.287,19.851,0.387,29.777c0.025,2.551,1.61,3.787,3.742,3.621
			c3.226-0.252,1.948-2.95,1.708-4.617c-0.912-6.321-1.2-12.611,0.09-19.087c2.969,6.396,5.194,12.958,7.475,19.504
			c0.73,2.096,1.241,4.903,4.023,4.744c2.906-0.166,2.602-2.958,3.118-5.176c1.769-7.603,2.471-15.518,5.888-23.403
			c3.761,9.458,0.307,19.398,4.761,29.738C134.833,224.022,131.511,217.381,132.736,211.186z M264.933,214.469
			c0.656,1.272,0.955,1.708,1.118,2.189c1.289,3.789-4.156,10.378,2.543,11.138c3.988,0.453,1.671-6.265,2.648-9.638
			c0.783-2.698,1.812-3.773,4.614-3.564c3.167,0.236,3.617,2.082,3.371,4.643c-0.273,2.82-0.493,5.646-0.735,8.469
			c-0.126,1.48,0.009,2.991,1.661,3.441c2.545,0.692,2.521-1.435,2.932-3.004c3.173-12.129,3.118-24.658,4.573-37
			c0.186-1.573,0.537-3.59-2.036-3.748c-2.208-0.134-2.831,1.309-3.042,3.202c-0.535,4.786-1.317,9.551-1.648,14.349
			c-0.209,3.042-0.983,4.65-4.462,4.553c-3.452-0.098-4.425-1.654-4.119-4.754c0.388-3.948-0.104-8.177,1.163-11.8
			c2.482-7.095-2.304-9.044-6.871-11.412c-4.97-2.576-6.368,2.187-8.572,4.594c-5.035,5.5-8.125,12.202-10.753,19.128
			c-0.727,1.914-0.07,5.364-3.255,5.051c-2.973-0.294-3.402-3.393-3.865-5.94c-1.214-6.676-2.447-13.349-3.621-20.032
			c-0.289-1.643-0.033-3.796-2.196-4.047c-2.694-0.313-2.864,2.024-3.316,3.966c-1.28,5.505-3.778,11.015-3.674,16.483
			c0.129,6.769-10.565,9.385-5.732,17.514c1.058,1.78-3.212,5.947,1.473,6.72c3.229,0.531,2.934-3.386,3.631-5.621
			c0.954-3.052,2.516-4.634,6.095-4.395c3.729,0.248,4.67,2.256,5.217,5.395c0.383,2.198-0.854,4.958,1.432,6.68
			c5.314-2.596,2.05-7.827,3.761-11.391c2.318,0.805,1.684,2.442,1.775,3.709c0.251,3.473,0.579,7.396,4.249,8.521
			c4.349,1.331,7.434-1.72,9.866-5.07C261.058,220.176,262.852,217.478,264.933,214.469z M291.641,188.374
			c2.347,13.76-0.595,26.346-4.138,38.789c-0.796,2.794-1.905,5.487,1.875,5.406c5.026-0.11,10.413,0.361,15.096-2.009
			c-0.509-2.318-1.757-2.157-2.751-2.572c-2.767-1.158-8.149-0.029-6.915-5.136c1.006-4.158-2.178-10.623,5.747-12.081
			c4.058-0.747,3.786-4.697,0.614-5.806c-4.699-1.641-3.691-4.75-2.778-7.36c1.139-3.252,4.343-1.628,6.69-1.345
			c4.989,0.602,4.978,0.697,8.581-2.252C306.339,191.528,299.45,188.636,291.641,188.374z"/>
		<path fill-rule="evenodd" clip-rule="evenodd" d="M175.693,327.225c0,7.188,0,13.039,0,20.943c-3.772-7-2.381-13.027-4.348-19.593
			c-1.722,5.948-3.043,10.813-4.56,15.615c-0.671,2.124-1.422,4.598-4.254,4.635c-3.309,0.041-4.038-2.685-4.621-5.173
			c-0.832-3.56-1.097-7.285-2.251-10.722c-0.768-2.288-0.121-6.629-4.477-5.804c-3.423,0.648-6.181,2.806-6.203,6.921
			c-0.025,4.675-0.006,9.35-0.006,14.087c-3.668-0.381-3.341-2.915-3.412-5.114c-0.162-5.098-1.47-10.557-0.098-15.216
			c2.57-8.729-3.983-14.236-5.936-21.278c-0.781-2.815-3.692-2.055-5.462-0.077c-2.747,3.07-3.86,6.865-4.09,10.894
			c-0.175,3.064,0.348,4.407,4.374,3.479c7.056-1.627,10.597,2.341,8.973,9.501c-1.191,5.248-3.621,10.087-6.892,14.411
			c-2.825,3.733-6.295,5.453-11.068,3.499c-4.621-1.894-9.436-1.235-14.164-0.351c-1.378,0.259-3.711-0.641-3.603,2.269
			c0.055,1.446,2.72,3.823-1.254,4.034c-2.731,0.146-2.976-2.067-3.572-3.873c-1.448-4.382-2.839-8.78-5.377-12.979
			c0,3.567,0,7.136,0,10.974c-5.246-0.208-4.576-3.788-4.623-6.591c-0.148-8.786-0.1-17.575-0.159-26.362
			c-0.013-1.979,0.389-4.196-0.358-5.876c-1.13-2.542-5.345-5.016-1.768-7.554c3.296-2.339,7.739-0.985,11.109,1.489
			c2.487,1.827,4.646,4.098,7.116,6.318c1.586-3.045-3.71-8.157,1.47-9.14c4.611-0.875,10.117,0.056,14.485,1.927
			c2.523,1.081-0.188,3.499-2.428,4.208c-9.908,3.136-9.854,3.094-4.665,11.243c0.867,1.361,1.446,3.966-0.335,4.529
			c-5.952,1.884-4.29,6.62-4.175,10.498c0.081,2.694-2.167,6.788,2.433,7.853c3.811,0.882,8.386,2.781,10.361-3.197
			c0.18-0.542,1.435-0.729,2.301-1.134c1.82,1.855-1.979,5.32,1.688,6.274c2.634,0.686,4.04-1.628,5.409-3.315
			c1.592-1.965,3.072-4.081,4.22-6.327c1.16-2.267,2.298-5.159,0.195-7.148c-2.413-2.28-4.574,0.339-6.706,1.504
			c-1.857,1.016-3.428,3.475-5.943,1.854c-2.518-1.624-2.283-4.435-2.125-6.949c0.459-7.252,2.921-13.878,7.747-19.272
			c6.562-7.335,13.384-0.993,19.948,0.435c2.211,0.48,3.989,2.947,6.181,4.678c3.375-2.176,2.604-7.814,7.252-8.534
			c4.379-0.679,6.145,3.322,8.717,5.497c1.906-1.54,0.436-4.431,4.448-5.484c-1.514,11.366,3.095,20.604,9.803,30.978
			c1.589-10.81-0.595-20.533,3.436-29.497c0.146,12.768,1.278,25.331,1.031,38.056c3.712,0.055,4.23-4.755,7.906-3.404
			c1.957,2.038-4.004,4.287-0.346,6.076c2.967,1.45,4.586-1.362,6.088-3.325c1.368-1.787,2.454-3.799,3.575-5.764
			c1.178-2.06,1.949-4.581,0.349-6.383c-2.043-2.296-4.063,0.106-5.858,1.136c-2.14,1.228-4.001,3.724-6.765,1.951
			c-2.828-1.813-2.493-4.924-2.111-7.722c0.813-5.936,2.666-11.604,6.135-16.499c2.985-4.213,5.92-8.391,12.324-3.614
			c2.026,1.512,6.452-0.302,9.785-0.403c3.99-0.122,4.548,1.027,2.93,5.078c-4.449,11.146-4.267,22.797-1.475,34.354
			c0.597,2.471,2.31,4.824-0.704,6.572c-2.425,1.408-5.604,0.66-7.282-0.616c-2.588-1.968,1.111-3.524,1.539-5.254
			c2.608-10.536,1.176-21.303,0.886-31.988c-0.044-1.649-1.982-1.839-3.355-1.921c-1.494-0.091-1.623,1.149-1.769,2.291
			c-0.205,1.607-0.475,3.205-0.832,5.573c-1.274-1.835-2.5-2.861-2.726-4.074c-0.52-2.792,0.834-7.822-4.074-6.063
			c-5.295,1.896-6.158,7.826-6.095,12.986c0.067,5.523,3.638,2.209,5.992,1.898c4.575-0.605,7.214,1.614,7.336,6.049
			c0.242,8.769-3.919,15.691-10.053,21.545c-1.797,1.716-4.542,1.99-6.4,0.939c-4.347-2.457-9.624-3.632-11.164-9.988
			C182.391,334.96,180.879,330.611,175.693,327.225z M168.683,317.628c-0.286-2.01,0.742-5.756-1.17-9.166
			c-0.851-1.517-2.021-2.862-3.813-2.966c-2.1-0.121-3.039,1.854-3.264,3.296c-1.565,10.063-1.374,20.166,0.15,30.224
			c0.188,1.244,0.867,2.772,2.561,2.911c1.958,0.16,2.167-1.616,2.508-2.82C167.49,332.609,168.7,325.999,168.683,317.628z
			 M105.135,324.811c-8.131,5.221-8.454,9.978-2.022,19.96C105.93,338.555,105.188,332.097,105.135,324.811z M91.905,314.564
			c1.189,2.37-2.026,7.147,3.501,6.896c3.204-0.146,6.29-2.248,6.202-5.849c-0.1-4.06-3.115-7.227-6.882-7.455
			C89.98,307.87,92.92,312.341,91.905,314.564z M144.744,307.845c0,3.2-0.227,5.715,0.07,8.166c0.248,2.045-1.318,5.911,3.31,4.829
			c3.22-0.752,5.723-2.617,5.081-6.509C152.561,310.431,149.639,309.009,144.744,307.845z"/>
		<path fill-rule="evenodd" clip-rule="evenodd" d="M184.684,154.411c1.119,1.489,2.238,2.978,3.788,5.042
			c-14.162,1.829-12.601-11.648-18.793-17.699c-1.855,2.98-0.78,5.778-0.996,8.396c-0.146,1.759,0.966,4.219-2.324,4.353
			c-2.86,0.117-4.144-1.407-4.303-4.064c-0.135-2.26-0.014-4.544-0.274-6.787c-0.206-1.78,1.074-4.759-1.191-5.038
			c-2.038-0.251-4.894,0.369-5.794,3.685c-1.617,5.965-3.509,11.88-5.745,17.638c-0.691,1.777-0.367,5.6-3.413,4.879
			c-2.939-0.695-2.895-3.576-1.653-6.328c0.861-1.91,1.142-4.083,1.749-6.393c-11.457,2.242-16.399-2.664-14.313-13.565
			c0.475-2.478,1.244-4.934,2.166-7.287c8.161-20.813,23.93-26.375,45.39-15.984c3.041,1.473,5.893,3.334,8.856,5.03
			c2.916-2.585-4.451-5.37,0.143-8.202c3.395-2.092,6.308-0.595,9.616-0.002c3.842,0.689,7.907,0.038,11.864,0.22
			c1.731,0.08,4.666-1.136,4.816,1.696c0.143,2.684-2.489,3.325-4.898,3.351c-2.832,0.031-5.666,0.017-8.497,0.082
			c-2.503,0.058-5.265-0.411-5.259,3.61c0.004,3.096-0.071,5.741,4.31,5.168c1.534-0.201,3.444-0.337,3.756,2.161
			c0.374,2.986-1.953,3.13-3.743,3.526c-7.894,1.75-4.284,8.179-4.693,12.479c-0.548,5.775,4.648,3.105,7.483,3.692
			c2.155,0.445,4.511-0.477,6.561,0.994c2.655,1.906,4.564-1.014,3.754-1.936c-7.336-8.348,6.234-8.602,5.604-15.24
			c-0.576-6.052,2.842-12.475,4.448-18.748c0.419-1.637,1.44-2.27,3.02-2.336c1.875-0.079,2.329,1.405,2.776,2.666
			c2.068,5.84,4.033,11.716,6.044,17.575c0.729,2.126,1.034,4.573,2.307,6.303c3.742,5.086,3.626,12.02-1.224,17.725
			c-0.824-2.579-1.778-4.774-2.198-7.066c-0.575-3.138-1.584-5.458-5.371-4.879c-3.373,0.515-8.07-1.273-8.913,4.088
			c-0.938,5.955-4.52,6.271-9.542,6.185c-8.428-0.145-16.872,0.634-25.312,1.022c3.372-6.869,4.707-14.06,3.672-21.754
			c-13.229,5.195-13.523,6.111-6.117,17.656C183.095,151.656,185.097,152.324,184.684,154.411z M152.435,113.191
			c-7.835,5.817-15.262,24.738-13.639,35.898c6.884-3.817,10.788-8.294,6.287-16.926c5.003,0.631,8.926,0.938,12.77,1.663
			c4.23,0.798,4.149-2.037,3.792-4.512c-0.563-3.883,2.012-8.375-2.033-11.553c-0.35-0.275-1.654,0.292-2.261,0.784
			c-2.131,1.721-2.313,7.542-6.142,4.975c-3.797-2.547,2.43-5.479,1.802-8.772C152.906,114.211,152.641,113.706,152.435,113.191z
			 M167.974,124.067c2.083,1.617-2.415,7.736,4.146,6.495c3.637-0.688,9.931,0.183,9.792-5.773
			c-0.134-5.742-6.341-5.965-10.344-6.963C166.496,116.562,168.953,121.321,167.974,124.067z M226.805,126.656
			c-1.731,4.034-5.517,7.667-2.46,12.158c0.512,0.75,4.883,0.338,5.369-0.612C231.861,134.01,228.492,130.491,226.805,126.656z"/>
		<path fill-rule="evenodd" clip-rule="evenodd" d="M268.089,286.823c0.736,1.255,2.93,2.532,1.206,3.95
			c-1.787,1.471-4.18,1.641-5.674-1c-2.448-4.327-4.911-8.646-7.441-13.099c-0.383,0.567-0.682,0.923-0.882,1.325
			c-1.435,2.894,2.834,8.584-2.741,8.804c-4.464,0.176-2.227-5.339-3.195-8.238c-0.563-1.682,0.485-4.277-2.601-4.477
			c-2.594-0.167-3.195,1.658-3.833,3.658c-1.454,4.562-3.079,9.069-4.597,13.611c-0.594,1.776-0.638,4.753-3.077,4.122
			c-3.203-0.829-1.626-3.418-0.837-5.552c0.459-1.243,0.374-2.688,0.54-4.099c-10.388,0.525-13.651-3.724-10.95-13.786
			c5.808-21.645,19.807-27.758,40.349-17.867c1.647,0.793,6.277,7.488,6.075-1.609c-0.017-0.723,3.043-2.463,4.148-2.106
			c6.228,2.009,12.772,0.503,19.171,1.486c-1.301,4.651-4.704,2.877-7.221,3.474c-3.156,0.748-7.646-2.084-9.061,3.556
			c-1.53,6.097,4.884,3.772,6.664,6.097c-0.599,4.285-7.121,1.82-6.721,6.531c0.276,3.242-1.783,7.713,1.465,9.42
			c3.493,1.835,8.051,1.691,12.17,2.223c0.438,0.057,1.489-1.146,1.5-1.776c0.155-9.928,7.945-17.593,8.112-27.531
			c0.025-1.58,0.688-3.549,2.828-3.686c2.278-0.147,2.124,1.947,2.916,3.368c3.893,6.983,2.796,16.219,9.839,21.744
			c-2.743,3.335,0.356,8.471-3.524,11.796c-3.712-2.979-1.171-12.15-9.874-9.67c-1.636,0.466-4.017,0.323-4.301,2.033
			c-1.372,8.262-7.524,6.409-12.882,6.549c-5.87,0.153-11.733,0.495-17.598,0.754c3.588-5.431,4.007-11.356,3.259-17.739
			c-10.767,4.036-10.766,4.035-5.643,13.309C266.492,283.868,267.286,285.349,268.089,286.823z M240.28,252.526
			c-8.056,8.208-9.587,18.242-11.317,29.706c6.64-3.29,8.717-7.044,5.998-12.531c4.641-2.371,10.41,2.032,13.007-1.281
			c2.28-2.909,1.455-8.33-0.237-12.307c-4.136,0.201-3.799,6.581-7.243,5.008C236.506,259.301,242.423,256.103,240.28,252.526z
			 M254.003,260.846c0.173,3.314-0.384,7.237,4.609,6.105c3.057-0.692,7.97-0.585,7.725-4.927c-0.273-4.801-5.631-5.082-9.154-5.986
			C252.815,254.917,254.467,258.979,254.003,260.846z"/>
		<path fill-rule="evenodd" clip-rule="evenodd" d="M155.797,86.213c5.27-5.219,7.835-11.072,9.597-17.293
			c0.553-1.955,1.093-3.839,3.601-4.082c2.629-0.254,3.343,1.781,4.122,3.534c2.225,5.009,4.317,10.078,8.333,14.902
			c1.343-5.837,2.879-11.641,3.941-17.529c0.487-2.701,0.91-3.194,4.046-3.077c13.292,0.498,26.626,0.617,39.915,0.112
			c4.925-0.187,6.643,0.863,6.384,5.719c-0.164,3.086,0.487,6.208,0.549,9.319c0.057,2.846,1.222,4.017,4.128,3.946
			c2.784-0.068,5.045-0.159,5.096-3.878c0.054-3.959,0.416-7.919,0.77-11.867c0.175-1.953,1.274-3.09,3.407-2.715
			c1.981,0.349,1.673,1.875,1.615,3.257c-0.388,9.344-0.75,18.69-1.186,28.032c-0.073,1.582,0.156,3.822-2.348,3.57
			c-1.983-0.199-2.52-1.984-2.514-3.834c0.007-1.983-0.05-3.966-0.004-5.947c0.065-2.702-1.511-3.334-3.813-3.198
			c-2.201,0.129-4.813-0.429-4.89,3.053c-0.044,1.981,0.009,3.965-0.053,5.946c-0.05,1.558-0.599,2.718-2.478,2.601
			c-1.25-0.078-2.685-0.812-2.231-1.857c2.377-5.475-6.273-10.404-3.436-12.419c5.549-3.939,2.261-8.079,2.597-11.929
			c0.273-3.146-3.056-2.514-5.217-2.601c-2.684-0.108-3.248,1.55-3.188,3.835c0.18,6.795,0.418,13.594,0.346,20.388
			c-0.02,1.822,1.647,5.001-1.744,5.291c-3.752,0.321-3.323-3.01-3.465-5.485c-0.337-5.938-1.142-11.906-0.828-17.813
			c0.492-9.273-6.542-5.356-10.572-6.441c-5.919-1.594-4.004,3.461-4.059,5.801c-0.176,7.522-4.51,15.727,3.206,22.103
			c-4.083,4.657-8.434,0.423-12.976,1.016c9.262-7.705,3.555-17.629,4.782-26.36c0.418-2.969-2.701-2.125-4.358-2.768
			c-2.984-1.158-2.341,1.592-2.633,2.752c-1.786,7.097-3.294,14.264-5.069,21.364c-0.507,2.031-0.485,4.622-3.558,5.068
			c-3.507,0.509-4.175-1.92-5.062-4.401c-2.176-6.09-4.47-12.139-6.97-18.887c-4.518,6.23-5.348,13.285-8.076,19.521
			c-1.118,2.555-1.778,5.521-5.562,5.375c-4.511-0.173-3.281-4.247-3.783-6.395c-1.857-7.946-2.863-16.087-4.426-24.108
			c-0.502-2.577-0.519-4.981,2.401-5.129c2.397-0.121,2.336,2.78,2.651,4.532C153.919,73.54,154.813,79.884,155.797,86.213z"/>
		<path fill-rule="evenodd" clip-rule="evenodd" d="M154.195,287.107c-4.473,1.446-4.479-1.394-4.437-4.498
			c0.076-5.645,0.021-11.29,0.021-18.396c-6.843,4.911-6.607,11.944-9.424,17.277c-1.003,1.899-0.601,5.1-3.432,5.313
			c-3.147,0.236-3.814-2.597-4.68-5.082c-1.827-5.249-3.898-10.413-6.659-15.532c-2.156,5.877-1.698,11.85-1.626,17.794
			c0.022,1.779,0.878,4.183-2.669,3.685c-2.344-0.328-3.62-0.956-3.288-3.641c0.45-3.631,0.631-7.295,0.958-11.326
			c-3.138,2.269-3.549,5.559-4.891,8.287c-1.802,3.663-3.75,7.325-8.341,7.476c-5.319,0.174-6.864-4.158-8.444-8.166
			c-0.383-0.973-0.149-2.32-2.023-2.636c-3.498,1.222-4.112,5.642-7.184,7.62c-2.927,1.886-6.054,3.688-9.486,1.987
			c-3.086-1.529-3.834-4.695-3.697-7.982c0.49-11.794,6.25-20.852,14.842-28.41c0.626-0.552,1.811-1.432,2.137-1.223
			c8.161,5.226,21.08-3.938,26.3,9.224c2.785-2.253,1.188-7.478,6.613-6.955c4.866,0.469,4.81,4.393,5.844,7.238
			c1.984,5.459,3.281,11.168,5.285,18.27c4.785-7.149,5.589-14.189,8.202-20.431c1.369-3.271,2.705-5.646,6.442-5.266
			c4.021,0.409,2.438,3.982,2.717,6.074c1.306,9.786,2.653,19.612,0.873,29.505L154.195,287.107z M101.41,267.464
			c0,0.809-0.059,1.104,0.009,1.367c1.31,5.065-1.708,13.595,5.23,14.138c5.707,0.447,5.539-8.079,6.88-12.898
			c1.218-4.375,2.297-9.462-2.125-13.294c-1.898-1.646-4.341-2.293-6.243-1.081C100.619,258.586,102.328,263.77,101.41,267.464z
			 M92.945,254.364c-8,5.573-13.7,21.819-11.195,29.886c5.931-3.176,7.1-10.118,11.385-14.21
			C99.191,264.255,84.958,259.782,92.945,254.364z"/>
		<path fill-rule="evenodd" clip-rule="evenodd" d="M297.486,347.926c-4.702-1.184-3.43-4.676-3.577-7.147
			c-0.454-7.632-1.056-15.32-0.581-22.924c0.49-7.85-2.061-11.474-10.995-9.973c1.784,11.603-3.606,23.547,1.699,35.399
			c1.423,3.184,0.032,5.035-4.264,4.555c-8.956-1.003-17.971-0.954-26.985,0.005c-2.342,0.248-5.58,0.281-6.962-1.923
			c-1.275-2.033,1.352-3.321,2.737-4.619c1.413-1.321,1.555-3.057,1.329-4.709c-1.436-10.54,3.522-21.769-3.427-31.753
			c-0.555-0.798-1.727-2.92,0.579-3.213c2.766-0.35,5.68-0.38,8.408,0.118c1.859,0.34,1.161,2.156,0.493,3.429
			c-5.382,10.272-2.594,21.479-3.622,32.245c-0.283,2.964,2.868,6.389,4.112,6.343c3.766-0.142,3.051-4.011,3.073-6.667
			c0.104-12.165,0.046-24.331,0.046-36.505c4.702-0.247,4.196,3.218,4.098,6.344c-0.303,9.624-0.253,19.28-1.073,28.861
			c-0.814,9.513,7.438,5.852,11.176,7.336c3.332,1.323,5.519-3.252,5.362-7.563c-0.266-7.357-0.094-14.73-0.113-22.097
			c-0.002-1.133,0.423-2.624-0.134-3.343c-9.806-12.668,2.34-8.59,7.005-8.606c6.678-0.024,15.165-3.246,19.611,1.182
			c4.089,4.074,4.039,12.303,7.223,18.741c1.321-5.521,2.867-11.001,3.871-16.579c0.521-2.891,1.68-4.19,4.433-3.396
			c3.532,1.02,0.803,3.483,0.468,4.746c-3.395,12.784-8.282,25.269-6.645,38.927c0.193,1.607,0.093,3.584-2.426,3.511
			c-2.951-0.085-2.868-2.483-2.742-4.312c0.66-9.56-2.542-18.409-5.07-27.327c-0.881-3.108,0.115-9.186-4.492-8.538
			c-5.099,0.717-2.368,6.468-2.492,9.922C297.257,328.156,297.486,337.938,297.486,347.926z"/>
		<path fill-rule="evenodd" clip-rule="evenodd" d="M154.149,287.313c6.89-9.397,4.879-20.147,3.12-30.125
			c-0.947-5.375,1.382-6.856,4.241-6.104c6.143,1.616,12.388,0.013,18.939,1.475c-1.928,6.384-7.027,3.473-10.578,4.235
			c-2.32,0.498-5.353-0.693-5.898,3.163c-0.538,3.797,1.709,4.173,4.613,4.113c1.614-0.033,2.647,0.901,2.521,2.646
			c-0.138,1.923-1.681,1.965-3.076,2.109c-7.132,0.738-4.082,6.284-4.392,9.903c-0.442,5.148,3.898,3.76,6.671,3.859
			c3.589,0.128,7.615,2.188,10.475-2.302c0.646-1.015,4.201-3.785,3.643,1.674c-0.262,2.556,2.764,2.688,4.564,1.927
			c2.558-1.083,5.132-2.487,7.176-4.333c2.331-2.106,6.852-4.218,4.301-7.986c-1.719-2.539-5.65-1.007-8.677,0.069
			c-3.748,1.333-8.039,4.947-11.274-0.322c-2.696-4.393,0.699-7.984,3.029-11.379c3.15-4.587,7.522-7.717,12.914-9.122
			c4.042-1.054,7.506,0.461,9.143,4.212c0.905,2.079,1.51,5.575-1.216,6.673c-1.698,0.683-3.441-1.031-3.922-3.975
			c-0.744-4.551-4.946-3.099-7.344-1.919c-3.601,1.771-6.712,4.904-5.754,9.446c0.796,3.775,4.217,2.217,6.287,1.51
			c4.659-1.594,8.922-0.591,11.312,3.08c2.701,4.146-1.282,7.468-3.821,10.234c-5.776,6.29-12.104,9.833-21.71,7.629
			c-8.027-1.841-16.764-0.581-25.213-0.646C154.195,287.107,154.149,287.313,154.149,287.313z"/>
		<path fill-rule="evenodd" clip-rule="evenodd" d="M242.067,317.832c-1.544,5.558,1.639,9.707,2.551,14.304
			c1.851,9.341-3.417,15.316-12.746,15.238c-6.217-0.052-6.454-2.987-4.572-7.432c2.009-4.746,3.721-9.364-0.072-14.071
			c-1.547-1.92-0.188-3.813,0.537-5.535c1.983-4.706,1.633-9.405-0.444-13.794c-1.071-2.262-1.915-4.482-0.243-6.147
			c1.788-1.781,4.175-0.277,6.239,0.509C241.59,304.057,241.753,311.193,242.067,317.832z M232.313,333.906
			c1.242,2.865-2.21,8.164,4.069,8.395c4.118,0.151,4-3.307,3.768-6.155c-0.309-3.776,0.229-8.916-4.991-9.119
			C231.034,326.866,233.166,331.401,232.313,333.906z M238.523,316.849c-0.172-3.323-0.201-7.841-4.148-8.827
			c-3.186-0.795-2.443,3.268-2.057,5.012c0.698,3.144-2.148,8.125,3.3,9.039C238.726,322.594,238.467,319.406,238.523,316.849z"/>
		<path fill-rule="evenodd" clip-rule="evenodd" d="M239.542,112.267c9.378,0,18.65-0.04,27.922,0.04
			c1.522,0.013,3.878-0.653,4.175,1.586c0.31,2.329-1.866,3.84-3.764,3.529c-11.004-1.809-8.438,5.495-8.121,11.547
			c0.354,6.757,0.584,13.527,0.584,20.291c-0.001,1.718,1.65,4.879-2.274,4.818c-2.949-0.045-4.505-1.464-4.491-4.752
			c0.031-7.895-0.337-15.791-0.321-23.686c0.009-5.271-0.9-8.964-7.614-7.33C241.315,119.362,239.463,116.979,239.542,112.267z"/>
		<path fill-rule="evenodd" clip-rule="evenodd" d="M328.767,251.595c2.832,0,5.677-0.154,8.492,0.059
			c1.646,0.124,4.626-1.346,4.438,1.915c-0.12,2.088-2.209,2.978-4.575,2.498c-5.138-1.041-5.491,2.138-5.309,6.017
			c0.322,6.793,0.495,13.594,0.604,20.393c0.025,1.59,2.192,4.335-1.41,4.441c-2.284,0.067-4.236-1.099-4.193-4.172
			c0.084-5.951-0.252-11.908-0.142-17.857c0.094-4.992-0.11-9.312-7.064-8.063c-2.193,0.394-4.24-0.526-4.44-2.859
			c-0.301-3.498,2.671-1.988,4.256-2.108c3.099-0.233,6.228-0.068,9.344-0.068C328.767,251.724,328.767,251.659,328.767,251.595z"/>
		<path fill-rule="evenodd" clip-rule="evenodd" fill="none" d="M132.841,211.4c-1.09-5.738,0.777-11.214,1.455-16.8
			c0.602-4.961,1.752-9.955,6.728-11.953c5.741-2.305,9.468,1.884,13.467,6.557c0.041-4.916,1.069-8.445,7.221-7.467
			c0,9.732-0.051,19.609,0.036,29.484c0.021,2.478-0.052,5.788,3.146,6.021c2.603,0.19,3-2.914,3.595-5.019
			c2.791-9.895,3.5-20.048,3.417-30.375c7.206,4.092,7.206,4.092,7.575,11.357c2.107-2.873,3.701-5.454,5.693-7.679
			c4.088-4.565,8.169-7.587,15.45-5.543c6.35,1.783,13.5,0.689,20.295,0.935c2.104,0.076,5.073-0.914,5.415,2.389
			c0.27,2.604-1.719,4.394-4.255,4.101c-5.831-0.675-5.633,3.064-5.621,6.923c0.024,8.226,0.13,16.454-0.082,24.674
			c-0.056,2.166,1.809,5.949-1.6,6.282c-4.778,0.468-3.709-3.894-3.729-6.804c-0.055-8.51,0.104-17.021-0.002-25.529
			c-0.025-1.969,1.139-5.037-2.527-5.172c-2.404-0.088-5.355-0.641-5.959,3.077c-0.219,1.341-0.379,3.344-2.144,2.881
			c-1.37-0.36-3.31-2.001-3.375-3.164c-0.14-2.503,1.131-5.437-2.888-5.568c-3.575-0.117-5.487,2.466-7.055,5.304
			c-1.412,2.559-2.657,5.479-1.409,8.099c1.681,3.526,4.393,0.358,6.56,0.065c7.196-0.976,11.327,3.725,9.104,10.64
			c-3.031,9.429-11.059,17.351-17.76,17.551c-3.357,0.101-6.698-0.527-7.313-4.263c-0.527-3.207,1.255-6.098,4.291-7.624
			c0.898-0.451,3.524-2.145,2.843,1.41c-1.327,6.92,2.771,4.08,5.307,2.716c1.918-1.032,3.457-2.919,4.906-4.642
			c2.148-2.555,5.721-5.574,3.494-8.78c-2.487-3.583-6.248-0.62-8.999,1.039c-3.868,2.33-7.282,2.756-10.632-1.162
			c-1.905,5.435-3.503,10.546-5.5,15.496c-1.302,3.229-3.459,6.248-7.425,5.974c-3.682-0.256-4.849-3.681-5.883-6.556
			c-1.332-3.701-2.656-7.467-3.868-11.912c-1.133,4.243-2.089,8.544-3.455,12.71c-1.235,3.769-2.693,8.238-7.345,8.346
			c-5.384,0.125-6.255-5.047-7.571-8.938c-1.075-3.181-1.081-6.739-3.706-9.297L132.841,211.4z M139.338,202.854
			c0.058,5.718,1.043,11.267,2.78,16.614c0.557,1.714,1.729,4.887,4.723,1.896c3.346-3.344,5.262-26.424,2.497-30.228
			c-1.398-1.924-3.293-3.316-5.686-2.886c-2.277,0.41-2.768,2.726-3.105,4.604C139.954,196.153,139.722,199.516,139.338,202.854z"/>
		<path fill-rule="evenodd" clip-rule="evenodd" fill="none" d="M264.933,214.469c-2.081,3.009-3.875,5.707-5.777,8.326
			c-2.433,3.351-5.518,6.401-9.866,5.07c-3.67-1.125-3.998-5.048-4.249-8.521c-0.092-1.267,0.543-2.904-1.775-3.709
			c-1.711,3.563,1.554,8.795-3.761,11.391c-2.285-1.722-1.049-4.481-1.432-6.68c-0.547-3.139-1.487-5.146-5.217-5.395
			c-3.579-0.239-5.141,1.343-6.095,4.395c-0.697,2.235-0.402,6.152-3.631,5.621c-4.685-0.772-0.415-4.939-1.473-6.72
			c-4.833-8.129,5.861-10.745,5.732-17.514c-0.104-5.468,2.394-10.978,3.674-16.483c0.452-1.942,0.622-4.279,3.316-3.966
			c2.163,0.251,1.907,2.404,2.196,4.047c1.174,6.683,2.407,13.355,3.621,20.032c0.463,2.548,0.893,5.646,3.865,5.94
			c3.185,0.313,2.528-3.137,3.255-5.051c2.628-6.926,5.718-13.627,10.753-19.128c2.204-2.408,3.603-7.17,8.572-4.594
			c4.567,2.368,9.354,4.317,6.871,11.412c-1.268,3.624-0.775,7.853-1.163,11.8c-0.306,3.1,0.667,4.656,4.119,4.754
			c3.479,0.098,4.253-1.511,4.462-4.553c0.331-4.797,1.113-9.563,1.648-14.349c0.211-1.893,0.834-3.336,3.042-3.202
			c2.573,0.157,2.222,2.174,2.036,3.748c-1.455,12.342-1.4,24.872-4.573,37c-0.41,1.569-0.387,3.696-2.932,3.004
			c-1.652-0.45-1.787-1.961-1.661-3.441c0.242-2.823,0.462-5.648,0.735-8.469c0.246-2.561-0.204-4.406-3.371-4.643
			c-2.803-0.209-3.831,0.866-4.614,3.564c-0.978,3.373,1.34,10.091-2.648,9.638c-6.699-0.76-1.254-7.349-2.543-11.138
			C265.888,216.177,265.589,215.741,264.933,214.469z M262.821,185.632c-6.792,11.83-10.966,23.714-11.549,37.002
			c4.395-9.975,18.444-14.043,16.373-28.186c-2.484,0.123-2.719,5.03-5.05,3.062C258.447,194.007,265.656,190.708,262.821,185.632z"
			/>
		<path fill-rule="evenodd" clip-rule="evenodd" fill="none" d="M132.736,211.186c-1.225,6.195,2.097,12.837-2.516,20.798
			c-4.454-10.34-1-20.28-4.761-29.738c-3.417,7.886-4.119,15.801-5.888,23.403c-0.516,2.218-0.212,5.01-3.118,5.176
			c-2.783,0.159-3.293-2.648-4.023-4.744c-2.281-6.546-4.506-13.108-7.475-19.504c-1.29,6.476-1.001,12.766-0.09,19.087
			c0.24,1.667,1.518,4.365-1.708,4.617c-2.132,0.166-3.717-1.07-3.742-3.621c-0.101-9.927-0.244-19.852-0.387-29.777
			c-0.057-3.878,3.027-4.402,5.681-5.142c3.855-1.077,3.803,2.215,4.475,4.453c2.016,6.716,3.938,13.46,7.418,20.367
			c1.416-7.419,2.805-14.843,4.265-22.253c0.437-2.215,1.056-4.396,1.619-6.585c0.65-2.521,3-2.589,4.78-2.673
			c2.45-0.114,1.787,2.274,2.169,3.787c1.869,7.409,0.572,15.293,3.406,22.56C132.841,211.4,132.736,211.186,132.736,211.186z"/>
		<path fill-rule="evenodd" clip-rule="evenodd" fill="none" d="M291.641,188.374c7.81,0.263,14.698,3.155,22.021,5.634
			c-3.604,2.949-3.592,2.854-8.581,2.252c-2.348-0.283-5.552-1.907-6.69,1.345c-0.913,2.611-1.921,5.72,2.778,7.36
			c3.172,1.108,3.443,5.059-0.614,5.806c-7.925,1.458-4.741,7.923-5.747,12.081c-1.234,5.106,4.148,3.978,6.915,5.136
			c0.994,0.415,2.242,0.254,2.751,2.572c-4.683,2.37-10.069,1.898-15.096,2.009c-3.78,0.081-2.671-2.612-1.875-5.406
			C291.046,214.72,293.987,202.134,291.641,188.374z"/>
		<path fill-rule="evenodd" clip-rule="evenodd" fill="none" d="M168.683,317.628c0.018,8.371-1.192,14.981-3.028,21.479
			c-0.341,1.204-0.55,2.98-2.508,2.82c-1.694-0.139-2.372-1.667-2.561-2.911c-1.524-10.058-1.715-20.16-0.15-30.224
			c0.225-1.442,1.164-3.417,3.264-3.296c1.792,0.104,2.963,1.449,3.813,2.966C169.425,311.872,168.397,315.618,168.683,317.628z"/>
		<path fill-rule="evenodd" clip-rule="evenodd" fill="none" d="M105.135,324.811c0.053,7.286,0.795,13.744-2.022,19.96
			C96.681,334.788,97.004,330.031,105.135,324.811z"/>
		<path fill-rule="evenodd" clip-rule="evenodd" fill="none" d="M91.905,314.564c1.016-2.224-1.925-6.694,2.82-6.407
			c3.767,0.229,6.783,3.396,6.882,7.455c0.088,3.601-2.998,5.703-6.202,5.849C89.879,321.712,93.094,316.935,91.905,314.564z"/>
		<path fill-rule="evenodd" clip-rule="evenodd" fill="none" d="M144.744,307.845c4.895,1.164,7.816,2.586,8.46,6.486
			c0.642,3.892-1.861,5.757-5.081,6.509c-4.628,1.082-3.062-2.784-3.31-4.829C144.517,313.56,144.744,311.045,144.744,307.845z"/>
		<path fill-rule="evenodd" clip-rule="evenodd" fill="none" d="M152.443,113.189c0.198,0.517,0.463,1.022,0.566,1.559
			c0.628,3.293-5.599,6.225-1.802,8.772c3.829,2.568,4.011-3.253,6.142-4.975c0.607-0.491,1.912-1.059,2.261-0.784
			c4.045,3.178,1.47,7.67,2.033,11.553c0.358,2.475,0.439,5.31-3.792,4.512c-3.844-0.725-7.767-1.032-12.77-1.663
			c4.501,8.632,0.597,13.109-6.287,16.926C137.173,137.93,144.6,119.008,152.443,113.189z"/>
		<path fill-rule="evenodd" clip-rule="evenodd" fill="none" d="M184.684,154.411c0.414-2.087-1.588-2.755-2.442-4.085
			c-7.406-11.545-7.112-12.461,6.117-17.656c1.035,7.694-0.3,14.885-3.672,21.754C184.688,154.425,184.684,154.411,184.684,154.411z
			"/>
		<path fill-rule="evenodd" clip-rule="evenodd" fill="none" d="M167.974,124.067c0.979-2.746-1.478-7.505,3.595-6.241
			c4.003,0.999,10.21,1.222,10.344,6.963c0.139,5.956-6.155,5.085-9.792,5.773C165.559,131.803,170.057,125.684,167.974,124.067z"/>
		<path fill-rule="evenodd" clip-rule="evenodd" fill="none" d="M226.805,126.656c1.688,3.835,5.057,7.354,2.909,11.546
			c-0.486,0.95-4.857,1.362-5.369,0.612C221.288,134.323,225.073,130.69,226.805,126.656z"/>
		<path fill-rule="evenodd" clip-rule="evenodd" fill="none" d="M240.28,252.526c2.143,3.576-3.774,6.774,0.207,8.595
			c3.444,1.573,3.107-4.807,7.243-5.008c1.692,3.977,2.518,9.397,0.237,12.307c-2.597,3.313-8.366-1.09-13.007,1.281
			c2.719,5.487,0.642,9.241-5.998,12.531C230.693,270.769,232.225,260.734,240.28,252.526z"/>
		<path fill-rule="evenodd" clip-rule="evenodd" fill="none" d="M254.003,260.846c0.464-1.866-1.188-5.929,3.18-4.808
			c3.523,0.904,8.881,1.186,9.154,5.986c0.245,4.342-4.668,4.234-7.725,4.927C253.619,268.083,254.176,264.16,254.003,260.846z"/>
		<path fill-rule="evenodd" clip-rule="evenodd" fill="none" d="M268.089,286.823c-0.803-1.475-1.597-2.955-2.409-4.426
			c-5.123-9.273-5.124-9.272,5.643-13.309c0.748,6.383,0.329,12.309-3.259,17.739C268.062,286.828,268.089,286.823,268.089,286.823z
			"/>
		<path fill-rule="evenodd" clip-rule="evenodd" fill="none" d="M101.41,267.464c0.918-3.694-0.791-8.878,3.751-11.769
			c1.902-1.212,4.345-0.564,6.243,1.081c4.422,3.832,3.343,8.919,2.125,13.294c-1.341,4.819-1.173,13.346-6.88,12.898
			c-6.938-0.543-3.92-9.072-5.23-14.138C101.351,268.568,101.41,268.272,101.41,267.464z"/>
		<path fill-rule="evenodd" clip-rule="evenodd" fill="none" d="M92.945,254.364c-7.987,5.418,6.247,9.891,0.189,15.676
			c-4.285,4.092-5.454,11.034-11.385,14.21C79.245,276.184,84.944,259.938,92.945,254.364z"/>
		<path fill-rule="evenodd" clip-rule="evenodd" fill="none" d="M232.313,333.906c0.853-2.505-1.279-7.04,2.846-6.88
			c5.221,0.203,4.683,5.343,4.991,9.119c0.232,2.849,0.351,6.307-3.768,6.155C230.104,342.07,233.556,336.771,232.313,333.906z"/>
		<path fill-rule="evenodd" clip-rule="evenodd" fill="none" d="M238.523,316.849c-0.057,2.558,0.202,5.745-2.905,5.224
			c-5.448-0.914-2.602-5.896-3.3-9.039c-0.387-1.744-1.129-5.807,2.057-5.012C238.322,309.008,238.352,313.525,238.523,316.849z"/>
		<path fill-rule="evenodd" clip-rule="evenodd" d="M139.338,202.854c0.383-3.337,0.616-6.701,1.209-10
			c0.337-1.877,0.828-4.194,3.105-4.604c2.393-0.431,4.288,0.961,5.686,2.886c2.765,3.804,0.85,26.884-2.497,30.228
			c-2.994,2.99-4.167-0.183-4.723-1.896C140.381,214.12,139.396,208.571,139.338,202.854z"/>
		<path fill-rule="evenodd" clip-rule="evenodd" d="M262.821,185.632c2.835,5.076-4.374,8.375-0.226,11.878
			c2.331,1.968,2.565-2.939,5.05-3.062c2.071,14.143-11.979,18.211-16.373,28.186C251.855,209.347,256.029,197.462,262.821,185.632z
			"/>
	</g>
</g>
</svg>
