<?xml version="1.0" encoding="utf-8"?>
<!-- Generator: Adobe Illustrator 16.0.0, SVG Export Plug-In . SVG Version: 6.00 Build 0)  -->
<!DOCTYPE svg PUBLIC "-//W3C//DTD SVG 1.1//EN" "http://www.w3.org/Graphics/SVG/1.1/DTD/svg11.dtd">
<svg version="1.1" id="Layer_1" xmlns="http://www.w3.org/2000/svg" xmlns:xlink="http://www.w3.org/1999/xlink" x="0px" y="0px"
	 width="400px" height="400px" viewBox="0 0 400 400" enable-background="new 0 0 400 400" xml:space="preserve">
<g>
	<path fill-rule="evenodd" clip-rule="evenodd" fill="#A34040" d="M85.38,181.978c-0.345-5.073-0.345-5.065,4.781-5.082
		c11.453-0.038,22.906-0.049,34.358-0.155c2.51-0.024,5.016-0.398,7.525-0.611c0.931,1.156,2.237,0.707,3.408,0.771
		c4.459,0.243,8.906-0.222,13.382-0.087c9.81,0.297,19.66,0.541,29.442-0.046c8.102-0.487,16.187-0.479,24.274-0.511
		c31.696-0.124,63.394-0.058,95.091-0.062c2.764-0.514,3.748,0.982,4.359,3.433c6.724,26.961,13.496,53.912,20.344,80.842
		c0.706,2.776,0.418,4.037-2.832,3.726c-1.902-0.182-3.865,0.263-5.8,0.425c-1.724-0.93-3.595-0.49-5.388-0.492
		c-65.401-0.036-130.803-0.038-196.206-0.027c-1.175,0-2.464-0.409-3.484,0.598c-2.024-0.71-2.768-2.494-3.563-4.238
		c0.926-0.783,0.614-1.732,0.375-2.688c-3.376-13.511-6.762-27.02-10.112-40.539c-2.914-11.76-5.779-23.533-8.682-35.296
		C86.22,180.187,85.81,182.048,85.38,181.978z M117.764,226.607c-0.13,0.028-0.261,0.057-0.391,0.084
		c-1.145-10.648-2.314-21.293-3.428-31.943c-0.814-7.8-0.79-7.604-8.854-7.906c-3.635-0.136-4.203,1.039-3.699,4.315
		c2.687,17.477,5.182,34.982,7.772,52.474c1.24,8.373,1.269,8.264,9.729,8.308c2.531,0.013,3.296-0.887,3.667-3.257
		c1.722-10.981,3.636-21.934,5.537-33.233c0.384,1.326,0.799,2.335,0.958,3.383c1.263,8.32,2.529,16.643,3.692,24.979
		c1.189,8.513,1.141,8.43,9.723,8.507c2.469,0.022,3.261-0.736,3.655-3.198c2.983-18.661,6.148-37.293,9.269-55.931
		c0.987-5.898,1.007-5.895-5.146-5.923c-5.275-0.024-5.146-0.008-5.781,5.171c-1.412,11.512-2.441,23.079-4.662,35.102
		c-1.687-11.631-3.321-22.605-4.855-33.592c-0.994-7.117-0.927-7.059-8.107-6.876c-1.801,0.045-2.546,0.52-2.848,2.379
		C121.988,201.846,119.856,214.223,117.764,226.607z M238.572,221.521c0.331,7.67,0.352,15.393,3.356,22.661
		c2.564,6.208,6.988,9.83,13.951,9.901c6.947,0.068,11.656-2.985,14.498-9.622c0.717-1.675,1.348-3.42,1.735-5.195
		c2.697-12.323,2.853-24.716,0.258-37.041c-1.32-6.272-4.096-11.941-10.831-14.112c-8.285-2.67-15.53,0.854-19.138,8.988
		C238.947,204.898,239.032,213.248,238.572,221.521z M185.875,252.498c0.732,0,1.48-0.095,2.195,0.016
		c3.315,0.515,4.296-0.291,3.567-4.015c-3.354-17.109-6.323-34.293-9.473-51.44c-0.569-3.098,0.053-7.239-2.195-8.981
		c-2.36-1.829-6.367-0.353-9.617-0.711c-2.886-0.319-3.969,0.72-4.523,3.583c-3.501,18.076-7.2,36.116-10.84,54.165
		c-1.46,7.241-1.463,7.082,5.953,7.33c3.216,0.108,5.122-0.403,5.017-4.126c-0.047-1.676,0.51-3.367,0.77-5.054
		c0.193-1.255,0.757-1.965,2.168-1.859c1.337,0.098,2.711,0.217,4.022,0.018c3.917-0.596,5.48,0.765,5.82,4.932
		C179.238,252.496,179.611,252.465,185.875,252.498z M209.254,211.096c-0.509-0.217-0.668-0.24-0.681-0.298
		c-1.015-4.387-1.994-8.783-3.028-13.165c-0.751-3.173-0.302-7.439-2.607-9.216c-2.46-1.896-6.596-0.324-9.974-0.66
		c-2.879-0.285-2.825,0.898-2.063,3.097c1.832,5.294,3.243,10.74,5.225,15.971c4.504,11.878,6.751,23.973,5.854,36.778
		c-0.687,9.792-0.202,9.767,9.781,9.361c1.94-0.08,2.509-0.712,2.496-2.56c-0.04-5.853,0.229-11.711,0.039-17.557
		c-0.154-4.729,0.746-9.155,2.313-13.571c2.727-7.689,5.274-15.443,7.87-23.178c0.85-2.528,3.218-5.769,2.062-7.43
		c-1.378-1.977-5.17-0.369-7.871-0.771c-2.861-0.424-3.976,0.677-4.571,3.521C212.721,198.007,210.907,204.503,209.254,211.096z
		 M277.084,220.746c-0.196,0.001-0.393,0.001-0.589,0.001c0,7.81,0.03,15.619-0.007,23.429c-0.045,9.665-0.069,9.584,9.601,9.446
		c2.28-0.032,2.92-0.719,2.889-2.924c-0.086-6.099,0.032-12.201,0.077-18.302c0.05-6.788,0.053-6.864,6.833-6.937
		c1.983-0.021,2.71-0.474,2.813-2.617c0.347-7.315,0.45-7.38-6.854-7.617c-1.857-0.062-2.615-0.48-2.508-2.471
		c0.178-3.285,0.308-6.601,0.072-9.876c-0.225-3.11,0.567-4.205,3.958-4.048c7.238,0.337,7.116,0.116,7.209-7.24
		c0.032-2.572-0.917-3.029-3.16-2.992c-5.733,0.093-11.477,0.131-17.203-0.102c-2.697-0.11-3.212,0.892-3.181,3.336
		C277.156,201.469,277.084,211.108,277.084,220.746z"/>
	<path fill-rule="evenodd" clip-rule="evenodd" fill="#368F53" d="M79.539,93.458c1.413-4.999,2.667-10.05,4.299-14.976
		c1.008-3.047,1.608-6.059,1.391-9.244c2.242-0.679,1.993-2.864,2.486-4.448c3.028-9.721,5.963-19.473,8.802-29.251
		c1.816-6.256,4.161-12.387,4.801-18.945c0.765-0.704,1.675-0.862,2.692-0.858c16.697,0.064,33.392,0.105,50.088,0.151
		c3.86,1.593,7.893,0.431,11.792,0.463c29.978,0.243,59.955,0.154,89.932,0.806c16.094,0.35,32.2,0.068,48.302,0.082
		c1.698,0.001,3.402,0.362,5.054,0.431c6.151,0.253,12.339,0.944,18.47-0.331c1.725,0.99,0.655,2.316,0.319,3.44
		c-7.161,23.928-14.412,47.827-21.475,71.783c-0.86,2.919-2.246,3.6-5.088,3.568c-64.057-0.708-128.115-1.324-192.173-1.968
		c-1.708-0.017-3.398-0.01-5.018,0.625c-6.055-1.035-12.167-0.474-18.249-0.67C83.814,94.046,81.575,94.667,79.539,93.458z
		 M270.445,49.282c0.789,1.604,1.142,2.188,1.377,2.817c3.946,10.493,7.852,21.001,11.824,31.484
		c2.254,5.947,2.299,5.868,8.506,5.676c1.797-0.056,2.565-0.467,2.579-2.464c0.134-19.892,0.369-39.784,0.548-59.676
		c0.01-1.11,0.483-2.638-1.52-2.649c-2.44-0.014-4.882-0.028-7.323-0.014c-2.206,0.012-1.637,1.707-1.653,2.921
		c-0.113,8.787-0.182,17.574-0.256,26.361c-0.016,1.708-0.003,3.417-0.003,5.125c-4.097-9.573-7.696-19.124-11.32-28.667
		c-2.344-6.169-2.368-5.947-8.919-6.239c-3.423-0.152-3.95,1.103-3.95,4.156c0.003,18.185-0.201,36.369-0.342,54.553
		c-0.05,6.386-0.048,6.18,6.535,6.484c3.343,0.155,4.044-0.924,3.992-4.076C270.331,73.514,270.445,61.947,270.445,49.282z
		 M115.974,55.058c-0.186,0-0.371,0-0.557,0c0,9.155,0.073,18.312-0.053,27.465c-0.03,2.163,0.57,3.502,2.624,4.154
		c14.469,4.588,25.779,1.68,29.995-14.188c2.992-11.262,3.042-22.734,0.479-34.086c-1.689-7.475-5.324-13.768-13.452-15.836
		c-5.456-1.388-10.862-0.717-16.188,1.149c-2.21,0.775-2.935,1.925-2.901,4.244C116.051,36.99,115.974,46.025,115.974,55.058z
		 M256.579,68.998c0.081,0,0.162,0,0.243,0c0-5.366-0.057-10.734,0.032-16.099c0.03-1.858-0.532-2.627-2.486-2.571
		c-3.534,0.103-7.085,0.157-10.606-0.075c-2.552-0.168-3.255,0.886-3.014,3.163c0.09,0.843-0.015,1.706,0.008,2.56
		c0.055,2.15-0.906,4.878,3.09,4.518c1.392-0.125,0.968,1.426,0.972,2.301c0.022,3.903,0.108,7.813-0.116,11.706
		c-0.083,1.43,1.247,3.689-1.403,4.212c-2.382,0.472-3.969-0.915-4.975-2.903c-0.653-1.293-1.228-2.679-1.533-4.09
		c-2.014-9.302-2.137-18.654-0.002-27.93c1.942-8.437,6.679-11.196,15.099-9.236c0.798,0.186,1.998,0.845,2.313-0.05
		c0.923-2.617,2.053-5.365,2.002-8.041c-0.032-1.653-2.767-2.072-4.489-2.577c-12.132-3.563-22.849,2.665-26.591,15.68
		c-3.199,11.129-3.161,22.439-0.528,33.651c3.738,15.927,16.109,19.001,28.622,15.081c2.335-0.732,3.607-1.846,3.444-4.666
		C256.375,78.768,256.579,73.876,256.579,68.998z M153.154,55.461c-0.198,0-0.397,0-0.597,0c0,9.757,0.114,19.516-0.07,29.269
		c-0.053,2.837,0.851,3.541,3.523,3.418c4.137-0.19,8.291-0.002,12.436,0.028c8.395,0.063,8.342,0.068,7.647-8.384
		c-0.133-1.615-0.739-1.989-2.204-2.082c-2.863-0.181-6.862,1.278-8.288-0.865c-1.418-2.131-0.421-5.871-0.477-8.905
		c-0.011-0.609,0.003-1.22,0.004-1.83c0.016-6.125,0.019-6.224,6.179-6.092c2.364,0.052,3.454-0.324,3.449-3.082
		c-0.012-6.866,0.137-6.959-6.641-7.114c-2.232-0.05-3.009-0.728-2.851-2.97c0.224-3.158,0.424-6.357,0.165-9.5
		c-0.271-3.289,0.853-4.116,4.07-3.986c7.153,0.289,7.048,0.107,7.164-6.995c0.04-2.42-0.692-3.211-3.062-3.182
		c-5.608,0.069-11.226,0.081-16.827-0.167c-2.783-0.123-3.754,0.567-3.694,3.542C153.276,36.193,153.154,45.828,153.154,55.461z
		 M187.852,89.17c9.098,0.079,15.327-5.175,16.841-13.642c1.573-8.796-1.541-16.026-7.196-22.478
		c-2.411-2.75-4.901-5.461-6.284-8.921c-1.219-3.056-1.818-6.186,0.567-8.975c2.371-2.772,5.443-2.383,8.427-1.321
		c1.979,0.703,2.922,0.323,3.232-1.824c0.207-1.437,0.736-2.828,1.126-4.238c0.364-1.316,0.159-2.344-1.2-3.041
		c-9.592-4.916-23.851-2.047-25.269,12.398c-0.764,7.793,1.928,14.355,6.877,20.163c2.375,2.788,4.888,5.499,6.33,8.913
		c1.38,3.27,1.893,6.667-0.584,9.681c-2.481,3.02-5.628,2.235-8.729,1.129c-0.995-0.355-1.749-1.008-2.542,0.643
		c-3.557,7.404-1.884,10.557,6.301,11.383C186.598,89.128,187.454,89.147,187.852,89.17z M219.871,56.166c0.138,0,0.274,0,0.412,0
		c0-7.798-0.063-15.598,0.017-23.395c0.095-9.14,0.147-9.034-8.893-9.162c-2.791-0.04-3.71,0.626-3.706,3.59
		c0.028,17.305-0.176,34.609-0.291,51.914c-0.063,9.629-0.055,9.531,9.479,9.453c2.487-0.021,3.054-0.835,3.027-3.153
		C219.809,75.665,219.871,65.915,219.871,56.166z"/>
	<path fill-rule="evenodd" clip-rule="evenodd" fill="#DFB028" d="M84.057,153.576c-1.965,0.017-3.835-0.002-5.297-1.763
		c-8.776-10.576-17.609-21.104-26.872-32.188c12.262-1.198,23.501-5.151,35.506-4.438c11.438,0.678,22.917,0.641,34.378,0.945
		c19.019,0.504,38.05,0.733,57.052,1.603c48.901,2.238,97.813,1.132,146.724,0.905c1.46-0.007,2.938-0.166,4.314,0.52
		c0.315,0.637,0.518,1.37,0.962,1.899c6.213,7.401,12.46,14.774,18.699,22.154c1.591,3.178,4.514,5.345,6.588,8.708
		c-15.461,1.091-30.712,0.802-45.95,0.965c-1.585-1.125-3.128-1.69-4.479,0.33c-0.718,0.014-1.438,0.027-2.156,0.041
		c-1.167-2.3-3.336-1.341-4.841-1.035c-2.438,0.494-4.836,0.5-7.262,0.51c-7.202,0.026-14.405-0.034-21.606,0.018
		c-57.955,0.415-115.916-0.873-173.866,0.728C91.987,153.587,88.008,152.038,84.057,153.576z M265.752,139.901
		c0.523,1.212,1.118,2.372,1.532,3.594c0.847,2.494,2.555,3.912,5.149,3.787c2.563-0.124,4.378-1.686,4.976-4.146
		c1.161-4.781,1.336-9.625-0.149-14.391c-0.807-2.587-2.601-4.117-5.417-3.974c-2.698,0.137-4.044,1.977-4.819,4.316
		c-0.383,1.156-0.166,2.542-1.497,3.73c-0.119-2.055-0.608-3.675-1.511-5.134c-1.837-2.964-4.626-3.242-7.685-2.6
		c-3.075,0.646-2.071,3.156-2.116,5.031c-0.107,4.621,0.047,9.248-0.054,13.87c-0.041,1.963,0.731,2.788,2.613,3.18
		C261.245,148.098,263.603,146.27,265.752,139.901z M177.503,136.823c-0.006,0-0.011,0-0.017,0c0-2.558,0.09-5.119-0.035-7.671
		c-0.071-1.479,0.895-3.618-2.043-3.709c-2.96-0.092-2.086,1.986-2.173,3.523c-0.062,1.093-0.007,2.191-0.008,3.288
		c0,1.007,0.003,1.994-1.411,2.064c-1.505,0.075-1.43-0.977-1.448-1.961c-0.029-1.583-0.026-3.166-0.053-4.749
		c-0.017-0.996-0.019-2.083-1.412-2.092c-3.887-0.024-7.774-0.005-11.661,0.024c-0.757,0.006-1.512,0.213-1.567,1.147
		c-0.049,0.814-0.304,2.119,0.695,2.194c3.071,0.231,2.092,2.44,2.137,4.047c0.108,4.016,0.118,8.038,0.074,12.056
		c-0.017,1.561,0.226,2.498,2.141,2.521c1.991,0.023,2.141-1.067,2.125-2.548c-0.032-2.801-0.342-5.652,0.074-8.39
		c0.38-2.495-1.843-7.048,1.443-7.09c3.603-0.046,1.195,4.478,1.616,6.912c0.495,2.842,0.18,5.825,0.201,8.748
		c0.012,1.599,0.568,2.444,2.392,2.351c1.855-0.094,1.784-1.281,1.794-2.518c0.013-1.827-0.023-3.654-0.003-5.481
		c0.013-1.05,0.585-1.503,1.638-1.445c0.976,0.054,1.205,0.691,1.217,1.473c0.031,1.95,0.066,3.899,0.019,5.846
		c-0.039,1.611,0.745,2.043,2.248,2.083c1.699,0.045,2.063-0.749,2.033-2.218C177.459,142.427,177.503,139.625,177.503,136.823z
		 M293.246,137.456c0-2.194-0.085-4.393,0.043-6.58c0.05-0.859-0.938-2.349,0.954-2.489c1.802-0.133,2.169,0.968,2.152,2.553
		c-0.045,4.509,0.061,9.02,0.027,13.529c-0.011,1.563,0.229,2.496,2.164,2.489c1.965-0.007,2.143-1.028,2.13-2.541
		c-0.035-4.388-0.04-8.776,0.02-13.163c0.014-1.075-0.621-2.645,1.386-2.755c1.74-0.096,1.404-1.374,1.357-2.409
		c-0.069-1.542-1.329-1.145-2.206-1.156c-3.408-0.042-6.818,0.048-10.223-0.031c-1.859-0.044-2.197,0.865-2.177,2.483
		c0.073,5.728,0.082,11.458,0.012,17.187c-0.02,1.711,0.532,2.347,2.295,2.375c1.995,0.032,2.124-1.037,2.083-2.544
		C293.202,142.089,293.247,139.771,293.246,137.456z M187.823,135.984c0.239-0.014,0.478-0.027,0.716-0.041
		c1.237,3.172,2.481,6.342,3.71,9.517c0.407,1.054,0.785,2.038,2.253,1.915c1.726-0.146,1.396-1.429,1.399-2.44
		c0.015-5.732-0.012-11.464-0.051-17.196c-0.009-1.151,0.381-2.563-1.646-2.506c-2.018,0.056-1.938,1.388-1.926,2.783
		c0.019,2.4,0.005,4.801,0.005,7.202c-1.776-2.81-2.881-5.628-3.885-8.481c-0.454-1.295-1.285-1.608-2.536-1.479
		c-1.432,0.148-1.738,0.987-1.728,2.255c0.048,5.854,0.044,11.709,0.062,17.563c0.005,1.269-0.01,2.467,1.858,2.406
		c1.82-0.059,1.79-1.204,1.779-2.496C187.805,141.986,187.823,138.985,187.823,135.984z M108.762,135.236
		c-0.244,0.012-0.487,0.025-0.729,0.037c-1.014-2.583-2.136-5.132-3.002-7.764c-0.541-1.641-1.562-2.005-3.053-1.866
		c-1.695,0.159-1.345,1.467-1.351,2.486c-0.024,5.615,0.009,11.23-0.007,16.845c-0.004,1.426-0.057,2.706,1.997,2.652
		c2.254-0.059,1.653-1.646,1.671-2.872c0.04-2.91,0.013-5.821,0.013-8.731c1.875,3.248,3.199,6.506,4.426,9.802
		c0.436,1.172,0.999,1.842,2.367,1.747c1.265-0.088,1.254-0.908,1.254-1.769c0.008-6.103-0.007-12.205,0.015-18.308
		c0.004-1.164-0.355-1.836-1.641-1.884c-1.427-0.053-1.978,0.612-1.966,1.969C108.778,130.133,108.762,132.685,108.762,135.236z
		 M237.604,134.561c0.018,0,0.035,0,0.054,0c0,2.438-0.085,4.882,0.021,7.316c0.143,3.316,2.434,5.568,5.524,5.608
		c2.987,0.039,5.324-2.292,5.394-5.688c0.098-4.754,0.01-9.512-0.002-14.269c-0.004-1.219,0.19-2.434-1.729-2.507
		c-2.009-0.076-2.131,1.044-2.117,2.533c0.038,4.024,0.098,8.051-0.007,12.072c-0.033,1.293,0.804,3.551-1.283,3.576
		c-2.422,0.028-1.418-2.378-1.472-3.732c-0.15-3.774-0.069-7.56-0.063-11.34c0.004-1.605,0.257-3.18-2.278-3.124
		c-2.346,0.051-2.051,1.506-2.045,2.969C237.611,130.171,237.604,132.366,237.604,134.561z M236.794,136.092
		c0.112-2.298-0.151-4.453-0.72-6.6c-0.699-2.637-2.195-4.372-4.99-4.573c-2.86-0.207-4.606,1.385-5.364,4.001
		c-1.418,4.906-1.385,9.851,0.124,14.728c0.765,2.473,2.654,3.872,5.216,3.817c2.64-0.055,4.208-1.811,4.896-4.231
		C236.623,140.886,237.021,138.472,236.794,136.092z M125.348,136.373c0.127-2.365-0.252-4.75-1.008-7.095
		c-0.806-2.495-2.459-3.935-5.083-3.943c-2.665-0.01-4.291,1.586-5.061,4.002c-1.556,4.875-1.669,9.757,0.145,14.623
		c0.899,2.415,2.405,3.895,5.133,3.822c2.735-0.072,4.28-1.701,4.966-4.097C125.107,141.352,125.514,138.933,125.348,136.373z
		 M208.349,140.86c-0.01,0-0.02,0-0.028,0c0-1.582,0.009-3.164-0.004-4.746c-0.009-0.893-0.117-1.807-1.282-1.814
		c-1.187-0.007-2.521-0.512-3.524,0.36c-0.833,0.724-0.751,1.913-0.042,2.625c1.462,1.469,0.803,3.193,0.854,4.829
		c0.019,0.587-0.206,1.392-0.856,1.389c-0.462-0.002-1.126-0.553-1.345-1.023c-0.827-1.785-1.044-3.729-1.09-5.679
		c-0.127-5.531,0.357-6.257,5.614-8.096c1.041-0.365,1.144-1.191,1.302-1.978c0.185-0.922-0.563-1.173-1.277-1.451
		c-2.521-0.983-6.429,0.074-7.752,2.492c-3.011,5.499-3.012,11.243-0.286,16.794c1.499,3.054,4.546,3.399,7.627,2.792
		c3.13-0.617,1.817-3.181,2.08-5.036C208.407,141.842,208.349,141.347,208.349,140.86z M151.854,145.52
		c-1.229-6.193-2.471-12.382-3.677-18.579c-0.351-1.8-1.729-1.326-2.87-1.402c-1.379-0.092-2.186,0.318-2.465,1.914
		c-1.045,5.975-2.25,11.923-3.396,17.881c-0.198,1.03-0.262,2.062,1.153,2.126c0.998,0.046,2.258,0.48,2.575-1.19
		c0.25-1.315,0.509-2.637,2.423-2.542c1.721,0.086,1.812,1.177,1.981,2.456c0.248,1.868,1.78,1.215,2.886,1.281
		C151.882,147.546,151.994,146.601,151.854,145.52z M335.712,145.414c-1.314-6.668-2.531-12.989-3.821-19.294
		c-0.355-1.731-1.874-1.107-3.002-1.265c-1.609-0.225-2.193,0.744-2.436,2.057c-1.108,5.975-2.177,11.956-3.289,17.929
		c-0.195,1.042-0.407,2.044,1.126,1.991c0.994-0.035,2.391,0.501,2.63-1.135c0.204-1.395,0.26-2.618,2.214-2.64
		c1.965-0.021,1.967,1.266,2.278,2.604c0.399,1.715,1.912,1.128,3.033,1.156C335.609,146.845,335.783,146.007,335.712,145.414z
		 M218.959,132.958c-0.672-2.525-1.212-4.353-1.638-6.206c-0.487-2.131-2.178-1.777-3.512-1.555
		c-1.893,0.315-0.798,1.696-0.502,2.558c1.935,5.65,4.099,11.239,3.323,17.413c-0.156,1.243,0.281,2.211,1.791,2.111
		c1.252-0.083,2.625-0.2,2.437-1.962c-0.663-6.17,1.463-11.771,3.369-17.44c0.281-0.838,1.323-2.251-0.47-2.68
		c-1.46-0.349-2.92-0.284-3.271,1.831C220.19,128.806,219.598,130.536,218.959,132.958z M92.378,125.521
		c-5.182-0.091-7.583,4.643-4.953,9.442c0.929,1.691,2.454,3.074,3.268,4.805c0.922,1.96,1.446,4.279-2.065,4.157
		c-1.527-0.053-1.86,0.679-1.981,1.925c-0.13,1.343,0.721,1.598,1.742,1.837c2.143,0.5,4.157,0.427,5.693-1.365
		c1.821-2.124,2.133-4.589,1.188-7.174c-0.762-2.092-2.428-3.614-3.61-5.437c-1.073-1.655-2.036-3.932,1.043-4.445
		c1.601-0.266,2.707-0.572,2.571-2.154C95.115,125.249,93.347,125.727,92.378,125.521z M312.982,147.004
		c4.232-0.042,6.627-3.401,5.715-7.589c-0.574-2.64-2.507-4.397-3.952-6.484c-1.775-2.563-1.207-4.235,1.729-4.444
		c1.629-0.117,1.795-0.94,1.929-1.994c0.173-1.354-0.996-1.524-1.907-1.725c-2.159-0.474-4.187-0.182-5.617,1.678
		c-1.844,2.397-1.778,5.04-0.386,7.568c0.994,1.803,2.489,3.334,3.446,5.152c0.824,1.563,1.243,3.634-1.329,3.903
		c-1.72,0.18-3.023,0.467-2.858,2.295C309.942,147.483,311.899,146.759,312.982,147.004z M130.504,125.563
		c-0.852,0-1.708-0.062-2.553,0.016c-0.985,0.091-2.341-0.401-2.446,1.347c-0.074,1.205,0.087,2.104,1.619,2.271
		c1.635,0.177,1.17,1.593,1.181,2.594c0.051,4.378,0.051,8.757,0.045,13.136c-0.001,1.426,0.015,2.619,2.038,2.645
		c2.163,0.027,2.266-1.143,2.236-2.796c-0.078-4.256-0.063-8.514-0.032-12.771c0.008-1.123-0.515-2.617,1.295-2.912
		c1.507-0.247,1.658-1.26,1.483-2.416c-0.212-1.409-1.403-1.056-2.314-1.106C132.209,125.523,131.356,125.561,130.504,125.563z
		 M183.113,136.608c-0.012,0-0.026,0-0.039,0c0-3.046-0.012-6.092,0.004-9.138c0.005-1.378-0.241-2.324-2.018-2.265
		c-1.549,0.05-2.196,0.57-2.186,2.134c0.037,5.969,0.037,11.94,0,17.909c-0.008,1.48,0.413,2.214,2.074,2.214
		c1.817,0,2.269-0.763,2.196-2.448C183.024,142.217,183.113,139.412,183.113,136.608z M85.839,136.671
		c-0.041,0.001-0.082,0.001-0.122,0.001c0-2.914-0.086-5.83,0.032-8.739c0.072-1.799-0.664-2.288-2.346-2.292
		c-1.727-0.004-1.985,0.888-1.973,2.284c0.046,5.829,0.107,11.659,0.041,17.488c-0.021,1.811,0.695,2.308,2.374,2.242
		c1.572-0.062,2.088-0.674,2.027-2.24C85.758,142.504,85.839,139.586,85.839,136.671z M304.085,131.103
		c-0.297,1.292-0.367,2.687,0.67,2.275c2.873-1.14,2.951-4.309,4.034-6.715c0.563-1.251-0.409-2.012-1.425-1.824
		C303.417,125.57,305.163,129.328,304.085,131.103z M283.751,144.854c-0.087-1.603-0.852-2.544-2.435-2.533
		c-1.372,0.01-2.319,0.823-2.442,2.172c-0.141,1.551,0.855,2.513,2.304,2.682C282.789,147.363,283.484,146.246,283.751,144.854z"/>
	<path fill-rule="evenodd" clip-rule="evenodd" fill="#349384" d="M269.054,380.961c-5.797,0.104-11.594,0.23-17.393,0.292
		c-2.056,0.023-4.103,0.027-6.11,0.541c-1.479-0.863-3.101-0.467-4.654-0.469c-30.068-0.007-60.138,0.017-90.207,0.032
		c-3.125-2.043-1.875-5.521-2.298-8.222c-3.819-24.384-7.275-48.823-10.909-73.235c-0.24-1.612-0.069-2.278,1.69-2.132
		c1.571,0.134,2.96-1.141,4.601-0.717c8.624,1.035,17.294,0.601,25.936,0.66c26.777,0.187,53.557,0.085,80.336,0.057
		c2.213-0.004,4.5,0.324,6.606-0.75c2.337,0.914,0.811,3.626,2.298,4.938c0.335,12.273,3.208,24.232,4.659,36.372
		c1.308,10.922,3.066,21.82,4.712,32.718c0.147,0.979,0.015,1.999,1.299,2.279c0.01,1.938,0.021,3.874,0.03,5.813
		C269.046,379.612,269.092,380.301,269.054,380.961z M222.395,338.479c-0.138,0-0.274,0-0.411,0c0,9.758,0.102,19.519-0.068,29.276
		c-0.045,2.644,0.785,3.367,3.292,3.282c4.143-0.141,8.294,0.021,12.441,0.051c8.337,0.058,8.264,0.06,7.822-8.189
		c-0.1-1.845-0.786-2.203-2.404-2.279c-2.764-0.133-6.619,1.283-7.999-0.714c-1.387-2.007-0.433-5.634-0.497-8.55
		c-0.014-0.61,0.004-1.22,0.008-1.83c0.042-6.429,0.043-6.518,6.485-6.412c2.297,0.038,3.153-0.494,3.155-3
		c0.005-7.147,0.134-7.258-6.807-7.307c-2.335-0.018-2.907-0.78-2.771-2.969c0.196-3.159,0.288-6.357,0.034-9.506
		c-0.257-3.157,0.641-4.243,3.991-4.116c7.331,0.278,7.236,0.088,7.203-7.266c-0.01-2.318-0.801-2.897-2.96-2.869
		c-5.731,0.08-11.47,0.074-17.196-0.13c-2.527-0.089-3.402,0.655-3.369,3.253C222.47,318.96,222.395,328.72,222.395,338.479z
		 M196.448,337.95c-0.192,0-0.384-0.002-0.575-0.002c0,7.805,0.021,15.608-0.007,23.413c-0.035,9.654-0.054,9.559,9.508,9.515
		c2.552-0.011,3.016-0.954,2.977-3.215c-0.103-5.976,0.008-11.954,0.057-17.932c0.058-6.906,0.068-7.021,6.781-7.025
		c2.301,0,2.835-0.753,2.895-2.915c0.194-7.049,0.283-7.14-6.711-7.328c-2.119-0.058-2.748-0.762-2.655-2.775
		c0.151-3.287,0.335-6.604,0.072-9.873c-0.259-3.21,1.023-3.813,3.944-3.72c7.325,0.231,7.197,0.096,7.255-7.253
		c0.02-2.594-0.991-3.009-3.203-2.979c-5.73,0.078-11.472,0.106-17.196-0.129c-2.668-0.11-3.228,0.839-3.193,3.308
		C196.525,318.674,196.448,328.312,196.448,337.95z M155.5,337.514c-0.192,0-0.385,0-0.576,0c0,9.758,0.095,19.518-0.063,29.272
		c-0.043,2.612,0.426,3.704,3.326,3.604c5.482-0.189,10.98-0.074,16.467,0.107c2.288,0.077,3.127-0.505,3.224-2.969
		c0.293-7.476,0.416-7.597-6.878-7.488c-2.833,0.044-3.755-0.664-3.682-3.658c0.34-13.903,0.444-27.812,0.588-41.717
		c0.098-9.378,0.063-9.26-9.3-9.405c-2.732-0.041-3.182,0.937-3.153,3.341C155.566,318.237,155.5,327.878,155.5,337.514z
		 M192.13,338.317c0.179,0.002,0.357,0.002,0.536,0.002c0-8.051-0.03-16.103,0.009-24.153c0.043-8.479,0.07-8.348-8.572-8.528
		c-2.973-0.062-3.928,0.651-3.932,3.77c-0.026,17.201-0.31,34.401-0.466,51.603c-0.09,9.87-0.059,9.783,9.655,9.59
		c2.351-0.048,2.83-0.875,2.81-3C192.08,357.84,192.13,348.079,192.13,338.317z M254.742,371.984
		c4.111-0.044,7.472-3.469,7.342-7.48c-0.122-3.757-3.638-7.203-7.366-7.222c-3.709-0.018-7.281,3.516-7.337,7.254
		C247.321,368.643,250.668,372.029,254.742,371.984z"/>
	<path fill-rule="evenodd" clip-rule="evenodd" fill="#6D2929" d="M108.636,264.699c1.02-1.007,2.309-0.598,3.484-0.598
		c65.402-0.011,130.804-0.009,196.206,0.027c1.793,0.002,3.664-0.438,5.388,0.492c-21.397,1.32-42.795,2.62-64.19,3.969
		c-22.855,1.442-45.708,2.927-68.562,4.398c-15.074,0.971-30.182,1.609-45.203,3.112c-5.189,0.52-9.167-0.869-13.271-3.34
		C117.91,270.007,113.256,267.38,108.636,264.699z"/>
	<path fill-rule="evenodd" clip-rule="evenodd" fill="#267040" d="M327.646,17.337c-6.131,1.274-12.318,0.583-18.47,0.331
		c-1.651-0.068-3.355-0.429-5.054-0.431c-16.102-0.014-32.208,0.269-48.302-0.082c-29.977-0.652-59.954-0.563-89.932-0.806
		c-3.898-0.032-7.932,1.13-11.792-0.463c20.888-1.533,41.775-3.054,62.661-4.603c21.858-1.621,43.714-3.275,65.571-4.903
		c7.286-0.542,14.573-1.067,21.863-1.549c1.428-0.095,2.832-0.2,4.216,0.669C314.784,9.503,321.228,13.402,327.646,17.337z"/>
	<path fill-rule="evenodd" clip-rule="evenodd" fill="#C25655" d="M297.642,176.195c-31.697,0.004-63.395-0.062-95.091,0.062
		c-8.087,0.031-16.172,0.023-24.274,0.511c-9.782,0.587-19.633,0.343-29.442,0.046c-4.476-0.135-8.923,0.331-13.382,0.087
		c-1.171-0.064-2.477,0.385-3.408-0.771c5.318-1.36,10.807-1.435,16.214-2.076c16.569-1.966,33.163-3.712,49.746-5.555
		c11.984-1.332,23.959-2.747,35.952-4.001c7.295-0.763,14.196,1.763,21.219,3.044c13.866,2.527,27.666,5.422,41.489,8.179
		C297.008,175.79,297.316,176.034,297.642,176.195z"/>
	<path fill-rule="evenodd" clip-rule="evenodd" fill="#43B9A6" d="M256.652,297.019c-2.106,1.074-4.394,0.746-6.606,0.75
		c-26.779,0.028-53.56,0.13-80.336-0.057c-8.642-0.06-17.312,0.375-25.936-0.66c5.651-0.723,11.293-1.51,16.954-2.156
		c14.63-1.671,29.264-3.295,43.899-4.913c13.062-1.443,26.129-2.841,39.188-4.304c1.107-0.125,1.9,0.209,2.616,0.937
		C249.842,290.08,253.246,293.551,256.652,297.019z"/>
	<path fill-rule="evenodd" clip-rule="evenodd" fill="#EFCB25" d="M84.057,153.576c3.951-1.538,7.93,0.011,11.894-0.098
		c57.95-1.601,115.911-0.313,173.866-0.728c7.201-0.052,14.404,0.009,21.606-0.018c2.426-0.009,4.824-0.016,7.262-0.51
		c1.505-0.306,3.674-1.265,4.841,1.035c-8.646,0.255-17.291,0.571-25.938,0.754c-28.515,0.6-57.029,1.097-85.542,1.739
		c-27.291,0.614-54.578,1.433-81.871,2C101.261,157.936,92.684,155.472,84.057,153.576z"/>
	<path fill-rule="evenodd" clip-rule="evenodd" fill="#256B60" d="M150.689,381.357c30.069-0.016,60.139-0.039,90.207-0.032
		c1.554,0.002,3.176-0.395,4.654,0.469c-19.021,3.615-38.046,7.201-57.051,10.882c-2.34,0.454-4.478,0.498-6.766-0.308
		c-9.242-3.248-18.533-6.361-27.805-9.529C152.8,382.455,151.578,382.269,150.689,381.357z"/>
	<path fill-rule="evenodd" clip-rule="evenodd" fill="#6D2929" d="M85.38,181.978c0.429,0.07,0.839-1.792,1.272-0.04
		c2.903,11.763,5.769,23.536,8.682,35.296c3.35,13.52,6.736,27.028,10.112,40.539c0.239,0.955,0.551,1.904-0.375,2.688
		c-6.345-10.496-12.687-20.997-19.043-31.488c-0.582-0.961-0.862-1.938-0.855-3.086C85.266,211.252,85.318,196.614,85.38,181.978z"
		/>
	<path fill-rule="evenodd" clip-rule="evenodd" fill="#42AB64" d="M101.317,16.593c-0.64,6.558-2.984,12.688-4.801,18.945
		c-2.838,9.779-5.774,19.53-8.802,29.251c-0.493,1.583-0.244,3.769-2.486,4.448c-1.594-5.887-1.886-11.986-2.869-17.973
		c-1.104-6.717-1.714-13.514-2.708-20.251c-0.245-1.651-0.159-2.612,1.475-3.474C87.899,23.971,94.594,20.255,101.317,16.593z"/>
	<path fill-rule="evenodd" clip-rule="evenodd" fill="#EFCB25" d="M349.523,143.213c-6.239-7.38-12.486-14.753-18.699-22.154
		c-0.444-0.529-0.646-1.262-0.962-1.899c7.147,0.549,14.137,2.132,21.184,3.327c5.504,0.933,5.533,1.083,3.692,6.381
		C353.069,133.674,351.268,138.434,349.523,143.213z"/>
	<path fill-rule="evenodd" clip-rule="evenodd" fill="#43B9A6" d="M269.62,373.325c-1.284-0.28-1.151-1.3-1.299-2.279
		c-1.646-10.897-3.404-21.796-4.712-32.718c-1.451-12.14-4.324-24.099-4.659-36.372c3.498,9.806,7.001,19.61,10.487,29.423
		c0.198,0.561,0.36,1.173,0.359,1.761C269.753,346.534,269.685,359.931,269.62,373.325z"/>
	<path fill-rule="evenodd" clip-rule="evenodd" fill="#267040" d="M79.539,93.458c2.037,1.209,4.276,0.589,6.424,0.658
		c6.083,0.196,12.194-0.365,18.249,0.67c-8.337,3.882-16.675,7.763-25.363,11.809C78.209,101.94,79.124,97.707,79.539,93.458z"/>
	<path fill-rule="evenodd" clip-rule="evenodd" fill="#EFCB25" d="M305.682,153.217c1.352-2.02,2.895-1.456,4.479-0.33
		C308.708,153.55,307.198,153.425,305.682,153.217z"/>
	<path fill-rule="evenodd" clip-rule="evenodd" fill="#43B9A6" d="M269.054,380.961c0.038-0.66-0.008-1.349,0.597-1.822
		C269.801,379.859,270.046,380.614,269.054,380.961z"/>
	<path fill-rule="evenodd" clip-rule="evenodd" fill="#F9F9F7" d="M117.764,226.607c2.092-12.385,4.224-24.762,6.232-37.16
		c0.302-1.859,1.046-2.333,2.848-2.379c7.181-0.182,7.114-0.24,8.107,6.876c1.535,10.986,3.169,21.961,4.855,33.592
		c2.22-12.022,3.25-23.59,4.662-35.102c0.635-5.18,0.506-5.196,5.781-5.171c6.153,0.029,6.133,0.025,5.146,5.923
		c-3.121,18.638-6.286,37.27-9.269,55.931c-0.394,2.462-1.186,3.221-3.655,3.198c-8.582-0.077-8.533,0.006-9.723-8.507
		c-1.163-8.336-2.429-16.658-3.692-24.979c-0.16-1.048-0.575-2.057-0.958-3.383c-1.901,11.3-3.815,22.252-5.537,33.233
		c-0.371,2.37-1.137,3.27-3.667,3.257c-8.46-0.044-8.489,0.065-9.729-8.308c-2.59-17.491-5.086-34.997-7.772-52.474
		c-0.504-3.276,0.064-4.451,3.699-4.315c8.063,0.302,8.039,0.106,8.854,7.906c1.113,10.65,2.283,21.295,3.428,31.943
		C117.503,226.664,117.634,226.636,117.764,226.607z"/>
	<path fill-rule="evenodd" clip-rule="evenodd" fill="#F9F9F7" d="M238.573,221.517c0.459-8.269,0.374-16.618,3.829-24.415
		c3.607-8.134,10.853-11.658,19.138-8.988c6.735,2.171,9.511,7.84,10.831,14.112c2.595,12.325,2.439,24.718-0.258,37.041
		c-0.388,1.775-1.019,3.521-1.735,5.195c-2.842,6.637-7.551,9.69-14.498,9.622c-6.963-0.071-11.387-3.693-13.951-9.901
		C238.924,236.914,238.903,229.191,238.573,221.517z M261.525,219.895c-0.115-5.744-0.109-11.115-0.968-16.413
		c-0.396-2.441-0.596-5.757-3.852-5.834c-3.495-0.081-3.875,3.342-4.238,5.893c-1.501,10.533-1.32,21.122-0.585,31.707
		c0.11,1.566,0.467,3.128,0.856,4.654c0.441,1.729,1.296,3.312,3.317,3.391c2.252,0.089,3.086-1.633,3.625-3.465
		c0.31-1.046,0.501-2.129,0.706-3.202C261.465,230.966,260.935,225.202,261.525,219.895z"/>
	<path fill-rule="evenodd" clip-rule="evenodd" fill="#F9F9F7" d="M185.875,252.494c-6.265-0.029-6.637,0.002-7.136-6.139
		c-0.34-4.167-1.903-5.527-5.82-4.932c-1.312,0.199-2.686,0.08-4.022-0.018c-1.411-0.105-1.975,0.604-2.168,1.859
		c-0.26,1.687-0.816,3.378-0.77,5.054c0.105,3.723-1.8,4.234-5.017,4.126c-7.417-0.248-7.413-0.089-5.953-7.33
		c3.641-18.049,7.339-36.089,10.84-54.165c0.554-2.863,1.637-3.902,4.523-3.583c3.25,0.358,7.257-1.118,9.617,0.711
		c2.249,1.742,1.626,5.883,2.195,8.981c3.15,17.147,6.119,34.331,9.473,51.44c0.729,3.724-0.251,4.529-3.567,4.015
		C187.355,252.403,186.608,252.498,185.875,252.494z M173.029,205.879c-0.158,0.025-0.315,0.05-0.474,0.075
		c-1.068,6.835-2.123,13.672-3.208,20.504c-0.971,6.117-0.519,6.558,5.573,5.926c1.495-0.156,1.873-0.725,1.674-2.073
		C175.395,222.169,174.215,214.023,173.029,205.879z"/>
	<path fill-rule="evenodd" clip-rule="evenodd" fill="#F9F9F7" d="M209.254,211.096c1.653-6.593,3.467-13.089,4.845-19.675
		c0.596-2.845,1.71-3.946,4.571-3.521c2.701,0.401,6.493-1.207,7.871,0.771c1.156,1.661-1.212,4.901-2.062,7.43
		c-2.596,7.734-5.144,15.488-7.87,23.178c-1.566,4.416-2.467,8.843-2.313,13.571c0.189,5.846-0.079,11.704-0.039,17.557
		c0.013,1.848-0.556,2.479-2.496,2.56c-9.983,0.405-10.468,0.431-9.781-9.361c0.896-12.806-1.351-24.9-5.854-36.778
		c-1.982-5.231-3.394-10.677-5.225-15.971c-0.762-2.199-0.816-3.382,2.063-3.097c3.378,0.336,7.514-1.236,9.974,0.66
		c2.306,1.777,1.856,6.043,2.607,9.216c1.034,4.382,2.014,8.778,3.028,13.165C208.586,210.855,208.745,210.879,209.254,211.096z"/>
	<path fill-rule="evenodd" clip-rule="evenodd" fill="#F9F9F7" d="M277.084,220.746c0-9.638,0.072-19.277-0.051-28.913
		c-0.031-2.445,0.483-3.446,3.181-3.336c5.727,0.233,11.47,0.195,17.203,0.102c2.243-0.037,3.192,0.42,3.16,2.992
		c-0.093,7.356,0.029,7.577-7.209,7.24c-3.391-0.157-4.183,0.938-3.958,4.048c0.235,3.275,0.105,6.591-0.072,9.876
		c-0.107,1.99,0.65,2.409,2.508,2.471c7.305,0.237,7.201,0.302,6.854,7.617c-0.103,2.144-0.829,2.597-2.813,2.617
		c-6.78,0.072-6.783,0.148-6.833,6.937c-0.045,6.101-0.163,12.203-0.077,18.302c0.031,2.205-0.608,2.892-2.889,2.924
		c-9.67,0.138-9.646,0.219-9.601-9.446c0.037-7.81,0.007-15.619,0.007-23.429C276.691,220.747,276.888,220.747,277.084,220.746z"/>
	<path fill-rule="evenodd" clip-rule="evenodd" fill="#F8FAF8" d="M270.445,49.282c0,12.665-0.114,24.232,0.075,35.794
		c0.052,3.152-0.649,4.231-3.992,4.076c-6.583-0.304-6.585-0.098-6.535-6.484c0.141-18.184,0.345-36.368,0.342-54.553
		c0-3.053,0.527-4.308,3.95-4.156c6.551,0.292,6.575,0.07,8.919,6.239c3.624,9.542,7.224,19.093,11.32,28.667
		c0-1.708-0.013-3.417,0.003-5.125c0.074-8.787,0.143-17.574,0.256-26.361c0.017-1.214-0.553-2.909,1.653-2.921
		c2.441-0.014,4.883,0,7.323,0.014c2.003,0.011,1.529,1.539,1.52,2.649c-0.179,19.892-0.414,39.784-0.548,59.676
		c-0.014,1.997-0.782,2.408-2.579,2.464c-6.207,0.192-6.252,0.271-8.506-5.676c-3.973-10.483-7.878-20.991-11.824-31.484
		C271.587,51.47,271.234,50.885,270.445,49.282z"/>
	<path fill-rule="evenodd" clip-rule="evenodd" fill="#F8FAF8" d="M115.974,55.058c0-9.033,0.077-18.068-0.052-27.1
		c-0.034-2.319,0.69-3.469,2.901-4.244c5.326-1.866,10.732-2.538,16.188-1.149c8.127,2.068,11.763,8.361,13.452,15.836
		c2.563,11.353,2.513,22.825-0.479,34.086c-4.216,15.868-15.526,18.776-29.995,14.188c-2.054-0.652-2.654-1.991-2.624-4.154
		c0.126-9.153,0.053-18.31,0.053-27.465C115.603,55.058,115.788,55.058,115.974,55.058z M128.23,54.731
		c-0.146,0-0.292,0-0.437,0.001c0,6.817,0.125,13.637-0.06,20.449c-0.077,2.877,1.418,3.055,3.404,2.566
		c2.682-0.66,3.818-2.853,4.496-5.286c2.05-7.365,2.028-14.915,1.857-22.465c-0.102-4.5-0.322-9.005-1.823-13.318
		c-0.656-1.885-1.595-3.553-3.657-4.263c-2.447-0.843-3.915-0.656-3.832,2.599C128.35,41.583,128.23,48.159,128.23,54.731z"/>
	<path fill-rule="evenodd" clip-rule="evenodd" fill="#F8FAF8" d="M256.579,68.998c0,4.878-0.204,9.77,0.08,14.632
		c0.163,2.82-1.109,3.934-3.444,4.666c-12.513,3.921-24.884,0.847-28.622-15.081c-2.633-11.212-2.671-22.522,0.528-33.651
		c3.742-13.015,14.459-19.243,26.591-15.68c1.723,0.505,4.457,0.924,4.489,2.577c0.051,2.675-1.079,5.424-2.002,8.041
		c-0.314,0.896-1.515,0.236-2.313,0.05c-8.42-1.96-13.156,0.799-15.099,9.236c-2.135,9.275-2.012,18.628,0.002,27.93
		c0.306,1.411,0.88,2.797,1.533,4.09c1.006,1.989,2.593,3.375,4.975,2.903c2.65-0.523,1.32-2.782,1.403-4.212
		c0.225-3.892,0.139-7.803,0.116-11.706c-0.004-0.875,0.42-2.427-0.972-2.301c-3.996,0.361-3.035-2.368-3.09-4.518
		c-0.022-0.854,0.082-1.716-0.008-2.56c-0.241-2.277,0.462-3.331,3.014-3.163c3.521,0.232,7.072,0.178,10.606,0.075
		c1.954-0.056,2.517,0.713,2.486,2.571c-0.089,5.365-0.032,10.733-0.032,16.099C256.741,68.998,256.66,68.998,256.579,68.998z"/>
	<path fill-rule="evenodd" clip-rule="evenodd" fill="#F8FAF8" d="M153.154,55.461c0-9.633,0.122-19.269-0.074-28.897
		c-0.06-2.975,0.912-3.665,3.694-3.542c5.601,0.248,11.218,0.237,16.827,0.167c2.37-0.029,3.102,0.762,3.062,3.182
		c-0.116,7.102-0.011,7.283-7.164,6.995c-3.217-0.129-4.34,0.697-4.07,3.986c0.26,3.143,0.059,6.342-0.165,9.5
		c-0.158,2.242,0.619,2.919,2.851,2.97c6.778,0.155,6.628,0.248,6.641,7.114c0.005,2.758-1.084,3.134-3.449,3.082
		c-6.16-0.132-6.163-0.033-6.179,6.092c-0.001,0.61-0.015,1.22-0.004,1.83c0.056,3.034-0.941,6.774,0.477,8.905
		c1.426,2.144,5.425,0.684,8.288,0.865c1.465,0.093,2.07,0.467,2.204,2.082c0.695,8.453,0.748,8.447-7.647,8.384
		c-4.146-0.031-8.299-0.218-12.436-0.028c-2.672,0.122-3.576-0.582-3.523-3.418c0.184-9.753,0.07-19.511,0.07-29.269
		C152.757,55.461,152.956,55.461,153.154,55.461z"/>
	<path fill-rule="evenodd" clip-rule="evenodd" fill="#F8FAF8" d="M187.852,89.17c-0.397-0.023-1.254-0.042-2.102-0.127
		c-8.185-0.827-9.858-3.979-6.301-11.383c0.793-1.651,1.548-0.998,2.542-0.643c3.101,1.106,6.248,1.891,8.729-1.129
		c2.477-3.014,1.964-6.412,0.584-9.681c-1.442-3.414-3.955-6.125-6.33-8.913c-4.95-5.808-7.642-12.37-6.877-20.163
		c1.417-14.445,15.677-17.314,25.269-12.398c1.359,0.696,1.564,1.724,1.2,3.041c-0.39,1.41-0.919,2.801-1.126,4.238
		c-0.311,2.147-1.253,2.527-3.232,1.824c-2.984-1.062-6.057-1.451-8.427,1.321c-2.386,2.789-1.787,5.919-0.567,8.975
		c1.382,3.46,3.873,6.17,6.284,8.921c5.655,6.451,8.77,13.682,7.196,22.478C203.179,83.995,196.949,89.249,187.852,89.17z"/>
	<path fill-rule="evenodd" clip-rule="evenodd" fill="#F8FBFA" d="M219.871,56.166c0,9.749-0.063,19.499,0.046,29.247
		c0.026,2.318-0.54,3.132-3.027,3.153c-9.534,0.079-9.543,0.176-9.479-9.453c0.115-17.304,0.319-34.609,0.291-51.914
		c-0.004-2.964,0.915-3.63,3.706-3.59c9.04,0.128,8.987,0.021,8.893,9.162c-0.08,7.797-0.017,15.597-0.017,23.395
		C220.146,56.166,220.009,56.166,219.871,56.166z"/>
	<path fill-rule="evenodd" clip-rule="evenodd" fill="#F8F6EB" d="M265.752,139.901c-2.149,6.369-4.507,8.197-8.978,7.264
		c-1.882-0.392-2.654-1.216-2.613-3.18c0.101-4.622-0.054-9.249,0.054-13.87c0.045-1.875-0.959-4.385,2.116-5.031
		c3.059-0.642,5.848-0.365,7.685,2.6c0.902,1.458,1.392,3.079,1.511,5.134c1.331-1.188,1.114-2.574,1.497-3.73
		c0.775-2.34,2.121-4.18,4.819-4.316c2.816-0.143,4.61,1.387,5.417,3.974c1.485,4.765,1.311,9.609,0.149,14.391
		c-0.598,2.459-2.412,4.021-4.976,4.146c-2.595,0.125-4.303-1.293-5.149-3.787C266.87,142.272,266.275,141.113,265.752,139.901z
		 M258.192,135.906c0,2.074,0.008,4.148-0.004,6.222c-0.004,0.667,0.167,1.269,0.877,1.385c0.662,0.108,1.083-0.352,1.442-0.903
		c1.341-2.052,1.417-11.249,0.01-13.241c-0.317-0.451-0.938-0.966-1.421-0.966c-1.02,0-0.885,0.95-0.893,1.646
		C258.182,132.001,258.196,133.954,258.192,135.906z M270.545,135.464c0.162,2.157-0.286,4.357,0.485,6.47
		c0.203,0.559,0.331,1.21,1.065,1.311c0.714,0.098,1.163-0.337,1.292-0.964c0.887-4.305,0.992-8.62-0.079-12.909
		c-0.137-0.547-0.549-1.2-1.258-0.997c-0.358,0.102-0.67,0.619-0.862,1.017C270.248,131.332,270.703,133.43,270.545,135.464z"/>
	<path fill-rule="evenodd" clip-rule="evenodd" fill="#F8F6EB" d="M177.503,136.823c0,2.802-0.043,5.604,0.016,8.404
		c0.031,1.469-0.334,2.263-2.033,2.218c-1.503-0.04-2.287-0.472-2.248-2.083c0.047-1.947,0.012-3.896-0.019-5.846
		c-0.012-0.782-0.241-1.419-1.217-1.473c-1.053-0.058-1.625,0.395-1.638,1.445c-0.02,1.828,0.016,3.655,0.003,5.481
		c-0.01,1.237,0.061,2.424-1.794,2.518c-1.824,0.093-2.38-0.752-2.392-2.351c-0.021-2.922,0.293-5.906-0.201-8.748
		c-0.421-2.435,1.987-6.958-1.616-6.912c-3.286,0.042-1.063,4.596-1.443,7.09c-0.417,2.738-0.106,5.589-0.074,8.39
		c0.016,1.481-0.133,2.571-2.125,2.548c-1.915-0.022-2.157-0.959-2.141-2.521c0.043-4.019,0.034-8.04-0.074-12.056
		c-0.045-1.607,0.934-3.816-2.137-4.047c-1-0.075-0.744-1.38-0.695-2.194c0.055-0.934,0.81-1.142,1.567-1.147
		c3.887-0.029,7.774-0.049,11.661-0.024c1.393,0.009,1.395,1.097,1.412,2.092c0.027,1.583,0.024,3.166,0.053,4.749
		c0.018,0.984-0.058,2.036,1.448,1.961c1.415-0.07,1.411-1.057,1.411-2.064c0-1.096-0.054-2.195,0.008-3.288
		c0.087-1.537-0.787-3.616,2.173-3.523c2.938,0.091,1.972,2.229,2.043,3.709c0.125,2.552,0.035,5.114,0.035,7.671
		C177.492,136.823,177.497,136.823,177.503,136.823z"/>
	<path fill-rule="evenodd" clip-rule="evenodd" fill="#F8F6EB" d="M293.246,137.456c0.001,2.315-0.044,4.633,0.018,6.947
		c0.041,1.508-0.088,2.577-2.083,2.544c-1.763-0.028-2.314-0.664-2.295-2.375c0.07-5.728,0.062-11.458-0.012-17.187
		c-0.021-1.618,0.317-2.527,2.177-2.483c3.404,0.079,6.814-0.012,10.223,0.031c0.877,0.011,2.137-0.386,2.206,1.156
		c0.047,1.035,0.383,2.313-1.357,2.409c-2.007,0.111-1.372,1.681-1.386,2.755c-0.06,4.387-0.055,8.775-0.02,13.163
		c0.013,1.513-0.165,2.534-2.13,2.541c-1.936,0.007-2.175-0.926-2.164-2.489c0.033-4.509-0.072-9.02-0.027-13.529
		c0.017-1.584-0.351-2.686-2.152-2.553c-1.893,0.14-0.904,1.63-0.954,2.489C293.161,133.063,293.246,135.262,293.246,137.456z"/>
	<path fill-rule="evenodd" clip-rule="evenodd" fill="#F8F6EB" d="M187.823,135.984c0,3-0.018,6.001,0.01,9.001
		c0.011,1.292,0.042,2.437-1.779,2.496c-1.868,0.062-1.854-1.137-1.858-2.406c-0.017-5.854-0.013-11.709-0.062-17.563
		c-0.01-1.268,0.296-2.107,1.728-2.255c1.251-0.129,2.082,0.185,2.536,1.479c1.004,2.853,2.109,5.671,3.885,8.481
		c0-2.401,0.014-4.802-0.005-7.202c-0.012-1.395-0.092-2.728,1.926-2.783c2.027-0.057,1.638,1.355,1.646,2.506
		c0.039,5.732,0.065,11.463,0.051,17.196c-0.003,1.011,0.326,2.295-1.399,2.44c-1.468,0.124-1.846-0.861-2.253-1.915
		c-1.229-3.175-2.473-6.345-3.71-9.517C188.301,135.958,188.063,135.971,187.823,135.984z"/>
	<path fill-rule="evenodd" clip-rule="evenodd" fill="#F8F6EB" d="M108.762,135.236c0-2.551,0.016-5.103-0.007-7.654
		c-0.012-1.357,0.539-2.022,1.966-1.969c1.286,0.048,1.646,0.72,1.641,1.884c-0.021,6.103-0.006,12.205-0.015,18.308
		c0,0.861,0.01,1.681-1.254,1.769c-1.369,0.095-1.932-0.575-2.367-1.747c-1.227-3.295-2.55-6.554-4.426-9.802
		c0,2.91,0.027,5.821-0.013,8.731c-0.018,1.225,0.583,2.813-1.671,2.872c-2.054,0.054-2.001-1.226-1.997-2.652
		c0.017-5.615-0.017-11.23,0.007-16.845c0.005-1.019-0.345-2.327,1.351-2.486c1.492-0.139,2.513,0.225,3.053,1.866
		c0.867,2.632,1.988,5.18,3.002,7.764C108.274,135.261,108.518,135.248,108.762,135.236z"/>
	<path fill-rule="evenodd" clip-rule="evenodd" fill="#F8F6EB" d="M237.604,134.561c0-2.195,0.007-4.39-0.003-6.585
		c-0.006-1.463-0.301-2.917,2.045-2.969c2.535-0.056,2.282,1.518,2.278,3.124c-0.007,3.78-0.088,7.565,0.063,11.34
		c0.054,1.354-0.95,3.761,1.472,3.732c2.087-0.024,1.25-2.282,1.283-3.576c0.104-4.021,0.045-8.048,0.007-12.072
		c-0.014-1.489,0.108-2.609,2.117-2.533c1.919,0.073,1.725,1.288,1.729,2.507c0.012,4.756,0.1,9.514,0.002,14.269
		c-0.069,3.396-2.406,5.727-5.394,5.688c-3.091-0.04-5.382-2.292-5.524-5.608c-0.105-2.434-0.021-4.877-0.021-7.316
		C237.64,134.561,237.622,134.561,237.604,134.561z"/>
	<path fill-rule="evenodd" clip-rule="evenodd" fill="#F8F6EB" d="M236.794,136.092c0.227,2.38-0.171,4.794-0.839,7.143
		c-0.688,2.42-2.256,4.176-4.896,4.231c-2.562,0.054-4.451-1.344-5.216-3.817c-1.509-4.877-1.542-9.822-0.124-14.728
		c0.758-2.616,2.504-4.208,5.364-4.001c2.795,0.201,4.291,1.937,4.99,4.573C236.643,131.639,236.906,133.794,236.794,136.092z
		 M232.479,136.852c-0.133-2.722,0.204-4.935-0.539-7.065c-0.202-0.578-0.399-1.268-1.094-1.309
		c-0.903-0.052-1.17,0.716-1.312,1.436c-0.787,3.987-0.688,7.977,0.004,11.966c0.131,0.759,0.411,1.553,1.205,1.633
		c1.131,0.113,1.362-0.941,1.448-1.738C232.386,139.964,232.411,138.135,232.479,136.852z"/>
	<path fill-rule="evenodd" clip-rule="evenodd" fill="#F8F6EB" d="M125.348,136.373c0.167,2.56-0.241,4.979-0.909,7.313
		c-0.686,2.396-2.23,4.024-4.966,4.097c-2.728,0.073-4.234-1.407-5.133-3.822c-1.814-4.866-1.701-9.748-0.145-14.623
		c0.77-2.416,2.396-4.012,5.061-4.002c2.624,0.009,4.278,1.449,5.083,3.943C125.095,131.622,125.475,134.008,125.348,136.373z
		 M121.01,136.55c-0.126-2.057,0.212-4.257-0.549-6.373c-0.221-0.612-0.568-1.146-1.209-1.208c-0.701-0.07-1.083,0.477-1.188,1.112
		c-0.692,4.207-0.756,8.412,0.104,12.608c0.128,0.629,0.42,1.208,1.112,1.228c0.692,0.021,0.948-0.571,1.199-1.156
		C121.333,140.777,120.866,138.696,121.01,136.55z"/>
	<path fill-rule="evenodd" clip-rule="evenodd" fill="#F8F6EB" d="M208.349,140.86c0,0.486,0.059,0.981-0.01,1.458
		c-0.263,1.855,1.05,4.419-2.08,5.036c-3.081,0.607-6.128,0.262-7.627-2.792c-2.726-5.552-2.725-11.296,0.286-16.794
		c1.323-2.418,5.23-3.475,7.752-2.492c0.714,0.278,1.462,0.529,1.277,1.451c-0.158,0.787-0.261,1.613-1.302,1.978
		c-5.257,1.839-5.741,2.565-5.614,8.096c0.046,1.949,0.263,3.894,1.09,5.679c0.219,0.471,0.883,1.021,1.345,1.023
		c0.65,0.003,0.875-0.801,0.856-1.389c-0.052-1.636,0.607-3.36-0.854-4.829c-0.709-0.712-0.791-1.901,0.042-2.625
		c1.004-0.873,2.338-0.368,3.524-0.36c1.165,0.007,1.273,0.921,1.282,1.814c0.013,1.582,0.004,3.164,0.004,4.746
		C208.329,140.86,208.339,140.86,208.349,140.86z"/>
	<path fill-rule="evenodd" clip-rule="evenodd" fill="#F8F6EB" d="M151.854,145.521c0.139,1.08,0.028,2.026-1.389,1.943
		c-1.105-0.065-2.638,0.587-2.886-1.281c-0.17-1.279-0.261-2.37-1.981-2.456c-1.914-0.096-2.173,1.227-2.423,2.542
		c-0.317,1.67-1.578,1.236-2.575,1.19c-1.415-0.065-1.352-1.096-1.153-2.126c1.146-5.958,2.351-11.906,3.396-17.881
		c0.279-1.596,1.085-2.006,2.465-1.914c1.141,0.077,2.519-0.398,2.87,1.402C149.383,133.138,150.626,139.327,151.854,145.521z
		 M145.676,133.121c-0.195,0.011-0.388,0.021-0.582,0.032c-0.303,1.869-0.624,3.736-0.898,5.61
		c-0.128,0.876-0.159,1.754,1.142,1.719c1.13-0.031,1.398-0.632,1.219-1.665C146.227,136.925,145.965,135.02,145.676,133.121z"/>
	<path fill-rule="evenodd" clip-rule="evenodd" fill="#F8F6EB" d="M335.712,145.414c0.071,0.593-0.103,1.431-1.267,1.402
		c-1.121-0.028-2.634,0.559-3.033-1.156c-0.312-1.338-0.313-2.625-2.278-2.604c-1.954,0.021-2.01,1.245-2.214,2.64
		c-0.239,1.637-1.636,1.101-2.63,1.135c-1.533,0.053-1.321-0.948-1.126-1.991c1.112-5.973,2.181-11.955,3.289-17.929
		c0.242-1.313,0.826-2.282,2.436-2.057c1.128,0.157,2.646-0.466,3.002,1.265C333.181,132.425,334.397,138.745,335.712,145.414z
		 M329.476,132.875c-0.22,0.004-0.438,0.007-0.655,0.011c-0.305,1.875-0.639,3.746-0.902,5.627
		c-0.156,1.115,0.557,1.529,1.525,1.472c0.957-0.058,1.103-0.768,0.973-1.558C330.112,136.575,329.79,134.726,329.476,132.875z"/>
	<path fill-rule="evenodd" clip-rule="evenodd" fill="#F8F6EB" d="M218.959,132.958c0.639-2.422,1.231-4.152,1.527-5.93
		c0.352-2.115,1.812-2.18,3.271-1.831c1.793,0.429,0.751,1.841,0.47,2.68c-1.906,5.669-4.032,11.27-3.369,17.44
		c0.188,1.762-1.185,1.879-2.437,1.962c-1.51,0.1-1.947-0.869-1.791-2.111c0.775-6.173-1.389-11.762-3.323-17.413
		c-0.296-0.862-1.391-2.243,0.502-2.558c1.334-0.222,3.024-0.576,3.512,1.555C217.747,128.605,218.287,130.433,218.959,132.958z"/>
	<path fill-rule="evenodd" clip-rule="evenodd" fill="#F8F6EB" d="M92.378,125.521c0.968,0.206,2.737-0.272,2.896,1.592
		c0.136,1.582-0.97,1.888-2.571,2.154c-3.079,0.513-2.116,2.79-1.043,4.445c1.182,1.822,2.848,3.344,3.61,5.437
		c0.944,2.585,0.633,5.05-1.188,7.174c-1.536,1.792-3.551,1.865-5.693,1.365c-1.021-0.239-1.872-0.494-1.742-1.837
		c0.121-1.246,0.454-1.978,1.981-1.925c3.512,0.122,2.988-2.196,2.065-4.157c-0.814-1.73-2.339-3.114-3.268-4.805
		C84.795,130.164,87.196,125.43,92.378,125.521z"/>
	<path fill-rule="evenodd" clip-rule="evenodd" fill="#F8F6EB" d="M312.982,147.004c-1.083-0.245-3.04,0.479-3.23-1.639
		c-0.165-1.829,1.139-2.116,2.858-2.295c2.572-0.269,2.153-2.339,1.329-3.903c-0.957-1.818-2.452-3.349-3.446-5.152
		c-1.393-2.529-1.458-5.171,0.386-7.568c1.431-1.86,3.458-2.152,5.617-1.678c0.911,0.201,2.08,0.371,1.907,1.725
		c-0.134,1.054-0.3,1.877-1.929,1.994c-2.937,0.209-3.505,1.882-1.729,4.444c1.445,2.087,3.378,3.845,3.952,6.484
		C319.609,143.603,317.215,146.962,312.982,147.004z"/>
	<path fill-rule="evenodd" clip-rule="evenodd" fill="#F8F6EB" d="M130.504,125.562c0.852,0,1.705-0.038,2.553,0.01
		c0.912,0.05,2.102-0.303,2.314,1.106c0.175,1.155,0.024,2.169-1.483,2.416c-1.81,0.294-1.287,1.789-1.295,2.912
		c-0.031,4.257-0.046,8.514,0.032,12.771c0.03,1.653-0.073,2.824-2.236,2.796c-2.022-0.026-2.039-1.218-2.038-2.645
		c0.005-4.379,0.005-8.758-0.045-13.136c-0.011-1.001,0.454-2.417-1.181-2.594c-1.532-0.167-1.693-1.065-1.619-2.271
		c0.105-1.749,1.461-1.256,2.446-1.347C128.796,125.501,129.652,125.563,130.504,125.562z"/>
	<path fill-rule="evenodd" clip-rule="evenodd" fill="#F8F6EB" d="M183.113,136.608c0,2.803-0.088,5.608,0.032,8.406
		c0.073,1.686-0.378,2.448-2.196,2.448c-1.661,0-2.082-0.734-2.074-2.214c0.037-5.969,0.037-11.94,0-17.909
		c-0.01-1.564,0.637-2.083,2.186-2.134c1.777-0.059,2.023,0.886,2.018,2.265c-0.016,3.046-0.004,6.092-0.004,9.138
		C183.087,136.608,183.101,136.608,183.113,136.608z"/>
	<path fill-rule="evenodd" clip-rule="evenodd" fill="#F8F6EB" d="M85.839,136.671c0,2.915-0.082,5.833,0.033,8.744
		c0.062,1.566-0.455,2.179-2.027,2.24c-1.679,0.066-2.395-0.431-2.374-2.242c0.066-5.829,0.005-11.659-0.041-17.488
		c-0.012-1.396,0.246-2.288,1.973-2.284c1.682,0.004,2.418,0.493,2.346,2.292c-0.118,2.909-0.032,5.825-0.032,8.739
		C85.758,136.672,85.799,136.672,85.839,136.671z"/>
	<path fill-rule="evenodd" clip-rule="evenodd" fill="#F8F6EB" d="M304.085,131.103c1.078-1.774-0.668-5.532,3.279-6.264
		c1.016-0.188,1.988,0.572,1.425,1.824c-1.083,2.407-1.161,5.576-4.034,6.715C303.718,133.789,303.788,132.394,304.085,131.103z"/>
	<path fill-rule="evenodd" clip-rule="evenodd" fill="#F8F6EB" d="M283.751,144.854c-0.267,1.393-0.962,2.509-2.573,2.321
		c-1.448-0.168-2.444-1.13-2.304-2.682c0.123-1.35,1.07-2.163,2.442-2.172C282.899,142.309,283.664,143.25,283.751,144.854z"/>
	<path fill-rule="evenodd" clip-rule="evenodd" fill="#F8FBFA" d="M222.395,338.479c0-9.759,0.075-19.519-0.051-29.274
		c-0.033-2.598,0.842-3.342,3.369-3.253c5.727,0.204,11.465,0.21,17.196,0.13c2.159-0.028,2.95,0.551,2.96,2.869
		c0.033,7.354,0.128,7.544-7.203,7.266c-3.351-0.127-4.248,0.959-3.991,4.116c0.254,3.148,0.162,6.347-0.034,9.506
		c-0.136,2.188,0.437,2.951,2.771,2.969c6.94,0.049,6.812,0.159,6.807,7.307c-0.002,2.506-0.858,3.038-3.155,3
		c-6.442-0.105-6.443-0.017-6.485,6.412c-0.004,0.61-0.021,1.22-0.008,1.83c0.064,2.916-0.89,6.543,0.497,8.55
		c1.38,1.997,5.235,0.581,7.999,0.714c1.618,0.076,2.305,0.435,2.404,2.279c0.441,8.249,0.515,8.247-7.822,8.189
		c-4.147-0.029-8.299-0.191-12.441-0.051c-2.507,0.085-3.337-0.639-3.292-3.282c0.17-9.758,0.068-19.519,0.068-29.276
		C222.12,338.479,222.257,338.479,222.395,338.479z"/>
	<path fill-rule="evenodd" clip-rule="evenodd" fill="#F8FBFA" d="M196.448,337.95c0-9.639,0.077-19.276-0.053-28.911
		c-0.034-2.469,0.525-3.418,3.193-3.308c5.725,0.235,11.466,0.207,17.196,0.129c2.212-0.029,3.223,0.386,3.203,2.979
		c-0.058,7.349,0.07,7.484-7.255,7.253c-2.921-0.093-4.203,0.51-3.944,3.72c0.263,3.27,0.079,6.586-0.072,9.873
		c-0.093,2.014,0.536,2.718,2.655,2.775c6.994,0.188,6.905,0.279,6.711,7.328c-0.06,2.162-0.594,2.915-2.895,2.915
		c-6.713,0.004-6.724,0.119-6.781,7.025c-0.049,5.978-0.159,11.956-0.057,17.932c0.039,2.261-0.425,3.204-2.977,3.215
		c-9.562,0.044-9.543,0.14-9.508-9.515c0.028-7.805,0.007-15.608,0.007-23.413C196.064,337.948,196.256,337.95,196.448,337.95z"/>
	<path fill-rule="evenodd" clip-rule="evenodd" fill="#F8FBFA" d="M155.5,337.514c0-9.636,0.066-19.276-0.047-28.912
		c-0.029-2.404,0.421-3.382,3.153-3.341c9.363,0.146,9.398,0.027,9.3,9.405c-0.144,13.905-0.248,27.813-0.588,41.717
		c-0.073,2.994,0.849,3.702,3.682,3.658c7.294-0.108,7.172,0.013,6.878,7.488c-0.097,2.464-0.936,3.046-3.224,2.969
		c-5.486-0.182-10.985-0.297-16.467-0.107c-2.9,0.1-3.37-0.992-3.326-3.604c0.158-9.755,0.063-19.515,0.063-29.272
		C155.116,337.514,155.309,337.514,155.5,337.514z"/>
	<path fill-rule="evenodd" clip-rule="evenodd" fill="#F8FBFA" d="M192.13,338.317c0,9.762-0.05,19.522,0.039,29.282
		c0.021,2.125-0.459,2.952-2.81,3c-9.714,0.193-9.746,0.28-9.655-9.59c0.157-17.201,0.44-34.401,0.466-51.603
		c0.004-3.118,0.959-3.831,3.932-3.77c8.643,0.181,8.615,0.049,8.572,8.528c-0.039,8.051-0.009,16.103-0.009,24.153
		C192.487,338.319,192.309,338.319,192.13,338.317z"/>
	<path fill-rule="evenodd" clip-rule="evenodd" fill="#F8FAF8" d="M254.742,371.984c-4.074,0.045-7.421-3.342-7.361-7.448
		c0.056-3.738,3.628-7.271,7.337-7.254c3.729,0.019,7.244,3.465,7.366,7.222C262.214,368.516,258.854,371.94,254.742,371.984z"/>
	<path fill-rule="evenodd" clip-rule="evenodd" fill="#A34040" d="M261.525,219.895c-0.591,5.308-0.061,11.071-1.138,16.73
		c-0.205,1.073-0.396,2.156-0.706,3.202c-0.539,1.832-1.373,3.554-3.625,3.465c-2.021-0.079-2.876-1.661-3.317-3.391
		c-0.39-1.526-0.746-3.088-0.856-4.654c-0.735-10.585-0.916-21.174,0.585-31.707c0.363-2.551,0.743-5.974,4.238-5.893
		c3.256,0.077,3.456,3.393,3.852,5.834C261.416,208.779,261.41,214.15,261.525,219.895z"/>
	<path fill-rule="evenodd" clip-rule="evenodd" fill="#A34040" d="M173.029,205.879c1.187,8.145,2.366,16.29,3.565,24.432
		c0.199,1.349-0.179,1.917-1.674,2.073c-6.092,0.632-6.544,0.191-5.573-5.926c1.085-6.832,2.14-13.669,3.208-20.504
		C172.714,205.929,172.871,205.904,173.029,205.879z"/>
	<path fill-rule="evenodd" clip-rule="evenodd" fill="#368F53" d="M128.23,54.731c0-6.572,0.12-13.148-0.051-19.717
		c-0.083-3.255,1.384-3.441,3.832-2.599c2.062,0.709,3.001,2.377,3.657,4.263c1.5,4.313,1.721,8.817,1.823,13.318
		c0.17,7.55,0.193,15.1-1.857,22.465c-0.678,2.433-1.814,4.625-4.496,5.286c-1.986,0.489-3.481,0.312-3.404-2.566
		c0.185-6.812,0.06-13.632,0.06-20.449C127.939,54.731,128.085,54.731,128.23,54.731z"/>
	<path fill-rule="evenodd" clip-rule="evenodd" fill="#DFB028" d="M258.195,135.906c0.001-1.953-0.014-3.905,0.009-5.856
		c0.008-0.696-0.127-1.647,0.893-1.646c0.482,0,1.104,0.516,1.421,0.966c1.407,1.992,1.331,11.189-0.01,13.241
		c-0.359,0.552-0.78,1.012-1.442,0.903c-0.71-0.117-0.881-0.719-0.877-1.385C258.2,140.054,258.192,137.98,258.195,135.906z"/>
	<path fill-rule="evenodd" clip-rule="evenodd" fill="#DFB028" d="M270.547,135.462c0.156-2.032-0.299-4.131,0.642-6.07
		c0.192-0.398,0.504-0.915,0.862-1.017c0.709-0.203,1.121,0.449,1.258,0.997c1.071,4.29,0.966,8.604,0.079,12.909
		c-0.129,0.627-0.578,1.062-1.292,0.964c-0.734-0.101-0.862-0.752-1.065-1.311C270.259,139.821,270.707,137.621,270.547,135.462z"/>
	<path fill-rule="evenodd" clip-rule="evenodd" fill="#DFB028" d="M232.479,136.852c-0.067,1.283-0.093,3.112-0.287,4.924
		c-0.086,0.797-0.317,1.851-1.448,1.738c-0.794-0.08-1.074-0.874-1.205-1.633c-0.692-3.99-0.791-7.979-0.004-11.966
		c0.142-0.719,0.408-1.488,1.312-1.436c0.694,0.041,0.892,0.73,1.094,1.309C232.683,131.917,232.346,134.13,232.479,136.852z"/>
	<path fill-rule="evenodd" clip-rule="evenodd" fill="#DFB028" d="M121.01,136.55c-0.144,2.146,0.323,4.227-0.531,6.212
		c-0.251,0.584-0.506,1.176-1.199,1.156c-0.692-0.02-0.984-0.599-1.112-1.228c-0.86-4.196-0.796-8.401-0.104-12.608
		c0.105-0.636,0.487-1.182,1.188-1.112c0.642,0.063,0.988,0.596,1.209,1.208C121.222,132.293,120.884,134.493,121.01,136.55z"/>
	<path fill-rule="evenodd" clip-rule="evenodd" fill="#DFB028" d="M145.676,133.121c0.29,1.899,0.551,3.804,0.881,5.697
		c0.179,1.033-0.089,1.634-1.219,1.665c-1.301,0.035-1.271-0.843-1.142-1.719c0.274-1.874,0.595-3.741,0.898-5.61
		C145.288,133.142,145.481,133.131,145.676,133.121z"/>
	<path fill-rule="evenodd" clip-rule="evenodd" fill="#DFB028" d="M329.476,132.875c0.314,1.851,0.637,3.7,0.94,5.552
		c0.13,0.791-0.016,1.5-0.973,1.558c-0.969,0.057-1.682-0.357-1.525-1.472c0.264-1.881,0.598-3.752,0.902-5.627
		C329.038,132.883,329.256,132.879,329.476,132.875z"/>
</g>
</svg>
