<?xml version="1.0" encoding="utf-8"?>
<!-- Generator: Adobe Illustrator 16.0.0, SVG Export Plug-In . SVG Version: 6.00 Build 0)  -->
<!DOCTYPE svg PUBLIC "-//W3C//DTD SVG 1.0//EN" "http://www.w3.org/TR/2001/REC-SVG-20010904/DTD/svg10.dtd">
<svg version="1.0"
	 id="svg1" xmlns:dc="http://purl.org/dc/elements/1.1/" xmlns:svg="http://www.w3.org/2000/svg" xmlns:cc="http://creativecommons.org/ns#" xmlns:sodipodi="http://sodipodi.sourceforge.net/DTD/sodipodi-0.dtd" xmlns:inkscape="http://www.inkscape.org/namespaces/inkscape" xmlns:rdf="http://www.w3.org/1999/02/22-rdf-syntax-ns#" inkscape:version="0.48.1 r9760" sodipodi:docname="gb.svg" sodipodi:version="0.33pre"
	 xmlns="http://www.w3.org/2000/svg" xmlns:xlink="http://www.w3.org/1999/xlink" x="0px" y="0px" width="600px" height="400px"
	 viewBox="0 0 600 400" enable-background="new 0 0 600 400" xml:space="preserve">
<g>
	<g id="flag" transform="matrix(1.0239998,0,0,1.0239998,-256,-2.39998e-6)" inkscape:label="#g3190">
		<g id="g578" transform="scale(16.66667,16.66667)">
			<rect id="rect124" x="15" y="0" fill="#000066" width="35.156" height="23.437"/>
			<g id="g584">
				<path id="path146" inkscape:connector-curvature="0" fill="#FFFFFF" d="M15,0v2.62l31.226,20.817h3.931v-2.62L18.931,0H15z
					 M50.156,0v2.62L18.931,23.437H15v-2.62L46.226,0H50.156z"/>
				<path id="path136" inkscape:connector-curvature="0" fill="#FFFFFF" d="M29.648,0v23.437h5.859V0H29.648z M15,7.813v7.813
					h35.156V7.813H15z"/>
				<path id="path141" inkscape:connector-curvature="0" fill="#CC0000" d="M15,9.375v4.688h35.156V9.375H15z M30.82,0v23.437h3.516
					V0H30.82z"/>
				<path id="path150" inkscape:connector-curvature="0" fill="#CC0000" d="M15,23.437l11.719-7.812h2.62L17.62,23.437H15z M15,0
					l11.719,7.812h-2.62L15,1.747V0z M35.817,7.813L47.536,0h2.62L38.437,7.813H35.817z M50.156,23.437l-11.719-7.812h2.62
					l9.098,6.066V23.437z"/>
			</g>
		</g>
	</g>
</g>
</svg>
