<?xml version="1.0" encoding="utf-8"?>
<!-- Generator: Adobe Illustrator 16.0.0, SVG Export Plug-In . SVG Version: 6.00 Build 0)  -->
<!DOCTYPE svg PUBLIC "-//W3C//DTD SVG 1.1//EN" "http://www.w3.org/Graphics/SVG/1.1/DTD/svg11.dtd">
<svg version="1.1"
	 id="svg378" xmlns:dc="http://purl.org/dc/elements/1.1/" xmlns:svg="http://www.w3.org/2000/svg" xmlns:cc="http://creativecommons.org/ns#" xmlns:sodipodi="http://sodipodi.sourceforge.net/DTD/sodipodi-0.dtd" xmlns:inkscape="http://www.inkscape.org/namespaces/inkscape" xmlns:rdf="http://www.w3.org/1999/02/22-rdf-syntax-ns#" inkscape:version="0.48.1 r9760" sodipodi:docname="hk.svg" sodipodi:version="0.32-hydra1"
	 xmlns="http://www.w3.org/2000/svg" xmlns:xlink="http://www.w3.org/1999/xlink" x="0px" y="0px" width="600px" height="400px"
	 viewBox="0 0 600 400" enable-background="new 0 0 600 400" xml:space="preserve">
<sodipodi:namedview  inkscape:cy="372.04724" inkscape:cx="531.49426" showgrid="false" id="base" inkscape:zoom="0.30856401" inkscape:current-layer="svg378" inkscape:window-maximized="1" inkscape:window-y="24" inkscape:window-x="0" inkscape:window-height="723" inkscape:window-width="1280">
	</sodipodi:namedview>
<rect fill="#BA0000" width="600" height="400"/>
<g>
	<g id="flag" transform="matrix(0.68808466,0,0,0.68808466,-113.42865,9.8037571e-6)" inkscape:label="#g9933">
		<g id="g694" transform="translate(-14.32762,6.606644)">
			<g id="g669" transform="translate(6.25,-3.750031)">
				<path id="path573" inkscape:connector-curvature="0" sodipodi:nodetypes="ccccccccccc" fill="#FFFFFF" d="M591.287,284.894
					c0,0-58.609-25.235-50.199-90.627c8.141-31.477,22.521-52.912,48.569-64.579c12.211-3.799,24.693-5.427,37.445-6.512
					c-3.347,3.166-6.151,6.331-7.597,10.311c-2.803,7.145-0.724,14.019,2.985,20.893c4.703,7.959,7.505,16.189,8.411,26.861
					c1.717,15.014-4.703,29.488-16.551,38.261c-7.508,5.788-16.371,7.778-23.608,14.38c-5.607,5.517-9.043,11.036-10.309,20.622
					C580.251,272.774,585.227,275.307,591.287,284.894z"/>
				<path id="path574" inkscape:connector-curvature="0" fill="#BA0000" stroke="#000000" stroke-width="2.3449" d="M580.16,190.278
					c0-0.09,0-0.182,0-0.271"/>
				
					<path id="path575" inkscape:connector-curvature="0" sodipodi:nodetypes="cc" fill="none" stroke="#BA0000" stroke-width="2.3449" d="
					M583.865,278.1c-22.793-20.17-20.799-70.908-3.432-87.822"/>
				<polygon id="polygon638" fill="#BA0000" points="579.984,177.801 587.492,176.11 588.386,168.791 592.12,175.064 
					599.627,173.361 594.427,178.929 598.171,185.195 598.171,185.195 591.222,182.364 586.03,187.94 586.937,180.622 				"/>
			</g>
			<g id="g674" transform="matrix(0.293016,0.956108,-0.956108,0.293016,725.0029,-258.1252)">
				<path id="path675" inkscape:connector-curvature="0" sodipodi:nodetypes="ccccccccccc" fill="#FFFFFF" d="M475.57,273.855
					c0,0-58.609-25.235-50.199-90.629c8.141-31.475,22.521-52.91,48.57-64.579c12.21-3.799,24.693-5.427,37.445-6.512
					c-3.347,3.166-6.15,6.331-7.597,10.31c-2.805,7.146-0.725,14.021,2.983,20.894c4.703,7.958,7.506,16.19,8.411,26.863
					c1.718,15.014-4.704,29.486-16.552,38.26c-7.508,5.789-16.371,7.778-23.607,14.381c-5.608,5.518-9.044,11.036-10.31,20.62
					C464.534,261.734,469.509,264.269,475.57,273.855z"/>
				<path id="path676" inkscape:connector-curvature="0" fill="#BA0000" stroke="#000000" stroke-width="2.3449" d="M464.444,179.24
					c0-0.092,0-0.181,0.001-0.273"/>
				
					<path id="path677" inkscape:connector-curvature="0" sodipodi:nodetypes="cc" fill="none" stroke="#BA0000" stroke-width="2.3449" d="
					M468.148,267.061c-22.793-20.17-20.799-70.907-3.433-87.823"/>
				<polygon id="polygon678" fill="#BA0000" points="464.267,166.762 471.775,165.072 472.669,157.753 476.403,164.025 
					483.91,162.322 478.709,167.89 482.454,174.156 482.454,174.156 475.506,171.324 470.314,176.9 471.22,169.584 				"/>
			</g>
			<g id="g679" transform="matrix(-0.813545,0.581503,-0.581503,-0.813545,1177.063,339.5501)">
				<path id="path680" inkscape:connector-curvature="0" sodipodi:nodetypes="ccccccccccc" fill="#FFFFFF" d="M430.06,378.884
					c0,0-58.61-25.235-50.199-90.628c8.141-31.476,22.521-52.91,48.57-64.579c12.209-3.799,24.693-5.427,37.446-6.513
					c-3.348,3.165-6.152,6.332-7.598,10.312c-2.805,7.147-0.723,14.018,2.983,20.893c4.704,7.961,7.505,16.191,8.411,26.863
					c1.718,15.013-4.702,29.486-16.55,38.26c-7.508,5.789-16.37,7.778-23.607,14.38c-5.607,5.519-9.045,11.036-10.31,20.621
					C419.024,366.765,424,369.298,430.06,378.884z"/>
				<path id="path681" inkscape:connector-curvature="0" fill="#BA0000" stroke="#000000" stroke-width="2.3449" d="
					M418.935,284.268c-0.001-0.089,0-0.18-0.001-0.27"/>
				
					<path id="path682" inkscape:connector-curvature="0" sodipodi:nodetypes="cc" fill="none" stroke="#BA0000" stroke-width="2.3449" d="
					M422.639,372.09c-22.794-20.169-20.799-70.907-3.433-87.823"/>
				<polygon id="polygon683" fill="#BA0000" points="418.756,271.793 426.266,270.101 427.157,262.783 430.894,269.055 
					438.4,267.351 433.199,272.918 436.945,279.185 436.945,279.185 429.996,276.355 424.804,281.93 425.711,274.613 				"/>
			</g>
			<g id="g684" transform="matrix(-0.786568,-0.617503,0.617503,-0.786568,732.7755,966.9646)">
				<path id="path685" inkscape:connector-curvature="0" sodipodi:nodetypes="ccccccccccc" fill="#FFFFFF" d="M519.483,455.592
					c0,0-58.61-25.233-50.199-90.627c8.14-31.478,22.521-52.912,48.57-64.579c12.209-3.8,24.693-5.427,37.444-6.513
					c-3.347,3.165-6.149,6.332-7.596,10.311c-2.805,7.146-0.726,14.019,2.982,20.892c4.703,7.961,7.506,16.191,8.41,26.864
					c1.718,15.014-4.703,29.487-16.551,38.26c-7.507,5.788-16.37,7.779-23.607,14.38c-5.608,5.518-9.044,11.036-10.31,20.623
					C508.447,443.474,513.423,446.007,519.483,455.592z"/>
				<path id="path686" inkscape:connector-curvature="0" fill="#BA0000" stroke="#000000" stroke-width="2.3449" d="
					M508.357,360.977c0.001-0.091-0.001-0.183,0-0.271"/>
				
					<path id="path687" inkscape:connector-curvature="0" sodipodi:nodetypes="cc" fill="none" stroke="#BA0000" stroke-width="2.3449" d="
					M512.061,448.8c-22.794-20.171-20.8-70.908-3.433-87.822"/>
				<polygon id="polygon688" fill="#BA0000" points="508.18,348.501 515.688,346.81 516.585,339.492 520.318,345.763 
					527.824,344.06 522.622,349.627 526.368,355.895 526.368,355.895 519.42,353.065 514.227,358.64 515.133,351.32 				"/>
			</g>
			<g id="g689" transform="matrix(0.321074,-0.947053,0.947053,0.321074,25.28688,742.4974)">
				<path id="path690" inkscape:connector-curvature="0" sodipodi:nodetypes="ccccccccccc" fill="#FFFFFF" d="M615.82,396.572
					c0,0-58.609-25.236-50.2-90.628c8.142-31.476,22.523-52.913,48.571-64.579c12.21-3.799,24.693-5.427,37.445-6.512
					c-3.347,3.165-6.15,6.331-7.597,10.311c-2.805,7.145-0.725,14.019,2.983,20.892c4.703,7.959,7.506,16.191,8.411,26.863
					c1.719,15.015-4.703,29.486-16.551,38.26c-7.509,5.789-16.371,7.779-23.607,14.381c-5.607,5.519-9.044,11.036-10.31,20.621
					C604.784,384.451,609.76,386.986,615.82,396.572z"/>
				<path id="path691" inkscape:connector-curvature="0" fill="#BA0000" stroke="#000000" stroke-width="2.3449" d="
					M604.695,301.957c0-0.09,0-0.183,0-0.273"/>
				
					<path id="path692" inkscape:connector-curvature="0" sodipodi:nodetypes="cc" fill="none" stroke="#BA0000" stroke-width="2.3449" d="
					M608.398,389.778c-22.793-20.169-20.799-70.907-3.432-87.821"/>
				<polygon id="polygon693" fill="#BA0000" points="604.517,289.48 612.026,287.789 612.92,280.469 616.654,286.743 
					624.161,285.039 618.96,290.608 622.705,296.873 622.705,296.873 615.756,294.042 610.564,299.618 611.471,292.3 				"/>
			</g>
		</g>
	</g>
</g>
</svg>
