<?xml version="1.0" encoding="utf-8"?>
<!-- Generator: Adobe Illustrator 16.0.0, SVG Export Plug-In . SVG Version: 6.00 Build 0)  -->
<!DOCTYPE svg PUBLIC "-//W3C//DTD SVG 1.1//EN" "http://www.w3.org/Graphics/SVG/1.1/DTD/svg11.dtd">
<svg version="1.1"
	 id="svg378" xmlns:dc="http://purl.org/dc/elements/1.1/" xmlns:svg="http://www.w3.org/2000/svg" xmlns:cc="http://creativecommons.org/ns#" xmlns:sodipodi="http://sodipodi.sourceforge.net/DTD/sodipodi-0.dtd" xmlns:inkscape="http://www.inkscape.org/namespaces/inkscape" xmlns:rdf="http://www.w3.org/1999/02/22-rdf-syntax-ns#" inkscape:version="0.48.1 r9760" sodipodi:docname="in.svg"
	 xmlns="http://www.w3.org/2000/svg" xmlns:xlink="http://www.w3.org/1999/xlink" x="0px" y="0px" width="600px" height="400px"
	 viewBox="0 0 600 400" enable-background="new 0 0 600 400" xml:space="preserve">
<sodipodi:namedview  objecttolerance="10" gridtolerance="10" bordercolor="#666666" guidetolerance="10" borderopacity="1" pagecolor="#ffffff" inkscape:cy="385.41213" inkscape:cx="531.495" showgrid="false" id="namedview3924" inkscape:zoom="0.4021669" inkscape:pageopacity="0" inkscape:pageshadow="2" inkscape:current-layer="svg378" inkscape:window-maximized="1" inkscape:window-y="24" inkscape:window-x="0" inkscape:window-height="723" inkscape:window-width="1280">
	</sodipodi:namedview>
<rect y="119.5" fill="#F8FAE6" width="600" height="163"/>
<g>
	<g id="flag" transform="matrix(0.72248902,0,0,0.72248902,-128,-2.3315799e-6)" inkscape:label="#g8997">
		<g id="g228" transform="matrix(0.366639,0,0,0.366639,398.443,219.601)">
			
				<ellipse id="path200" sodipodi:rx="305.00204" sodipodi:ry="305.00201" sodipodi:cy="367.47272" sodipodi:cx="362.90067" fill="#08399C" cx="529.004" cy="156.066" rx="238.282" ry="238.282">
			</ellipse>
			<path id="path175" inkscape:connector-curvature="0" fill="#FFFFFF" d="M735.493,102.597c1.305,4.758,1.578,7.3,2.529,11.853
				c-9.346,2.89-14.208,9.117-13.08,15.349c0.936,5.611,5.088,13.598,16.778,11.899c0.302,4.64,0.439,7.307,0.453,12.241
				c-35.318,0.087-72.538-1.95-107.274-5.032c-25.629-2.218-31.723,4.898-45.051,6.026c-15.454,1.265-27.628,0.345-59.561,1.602
				c31.3-6.452,43.598-10.359,58.087-12.702c13.95-2.164,19.318,2.887,45.279-7.207
				C666.435,123.592,701.432,111.931,735.493,102.597z"/>
			<path id="path205" inkscape:connector-curvature="0" fill="#FFFFFF" d="M477.893-49.012c4.763-1.274,7.307-1.532,11.867-2.45
				c2.828,9.36,9.021,14.264,15.266,13.178c5.615-0.896,13.626-4.997,12.004-16.7c4.645-0.271,7.311-0.393,12.247-0.372
				c-0.144,35.316-2.422,72.525-5.729,107.239c-2.382,25.609,4.689,31.755,5.733,45.084c1.165,15.467,0.166,27.637,1.213,59.576
				c-6.245-31.34-10.072-43.664-12.321-58.17c-2.076-13.961,3.008-19.301-6.916-45.323C498.438,20.18,487.006-14.891,477.893-49.012
				z"/>
			<path id="path206" inkscape:connector-curvature="0" fill="#FFFFFF" d="M532.16-55.608c4.933-0.013,7.458,0.387,12.1,0.665
				c0.343,9.773,5.08,16.098,11.384,16.641c5.663,0.571,14.459-1.344,15.882-13.077c4.557,0.927,7.167,1.493,11.93,2.772
				c-9.165,34.107-20.881,69.497-32.951,102.212c-8.852,24.147-3.583,31.897-5.98,45.051c-2.831,15.252-6.909,26.759-14.061,57.906
				c1.972-31.897,1.419-44.789,2.957-59.388c1.563-14.028,7.845-17.889,4.903-45.583C534.335,16.538,532.248-20.29,532.16-55.608z"
				/>
			<path id="path207" inkscape:connector-curvature="0" fill="#FFFFFF" d="M586.873-47.956c4.767,1.263,7.104,2.302,11.513,3.77
				c-2.19,9.532,0.752,16.863,6.706,19.018c5.32,2.015,14.308,2.435,18.717-8.529c4.166,2.07,6.536,3.29,10.809,5.759
				c-17.666,30.581-38.127,61.744-58.234,90.23c-14.791,21.043-11.701,29.889-17.423,41.976
				c-6.669,14.002-13.582,24.068-28.535,52.312c10.146-30.306,12.944-42.903,18.197-56.61c5.135-13.146,12.199-15.255,16.512-42.77
				C570.335,22.304,577.837-13.814,586.873-47.956z"/>
			<path id="path208" inkscape:connector-curvature="0" fill="#FFFFFF" d="M637.749-26.432c4.28,2.453,6.271,4.061,10.157,6.618
				c-4.579,8.641-3.635,16.483,1.559,20.103c4.619,3.32,13.194,6.05,20.288-3.405c3.488,3.075,5.464,4.868,8.955,8.356
				c-24.966,24.981-52.782,49.801-79.569,72.125c-19.724,16.509-19.023,25.852-27.668,36.052
				c-10.065,11.805-19.336,19.744-41.08,43.165c17.626-26.656,23.587-38.103,32.203-49.987c8.35-11.375,15.724-11.587,26.997-37.056
				C603.629,37.174,620.197,4.217,637.749-26.432z"/>
			<path id="path209" inkscape:connector-curvature="0" fill="#FFFFFF" d="M681.107,7.268c3.51,3.469,5.017,5.534,8.111,9.003
				c-6.643,7.174-7.742,14.997-3.65,19.83c3.613,4.394,11.2,9.235,20.483,1.917c2.581,3.869,4.03,6.109,6.507,10.378
				c-30.544,17.731-63.797,34.575-95.421,49.274c-23.299,10.888-25.025,20.098-35.996,27.738
				c-12.76,8.824-23.764,14.114-50.791,31.169c23.886-21.237,32.579-30.771,43.959-40.044c10.997-8.846,18.175-7.159,35.609-28.877
				C631.795,59.977,656.274,32.381,681.107,7.268z"/>
			<path id="path210" inkscape:connector-curvature="0" fill="#FFFFFF" d="M715.01,52.119c2.474,4.271,3.384,6.656,5.464,10.818
				c-8.299,5.176-11.414,12.435-8.737,18.175c2.33,5.189,8.383,11.853,19.255,7.231c1.475,4.411,2.289,6.955,3.554,11.724
				c-34.127,9.08-70.64,16.594-105.01,22.464c-25.346,4.383-29.43,12.815-42.028,17.301c-14.625,5.161-26.636,7.373-57.191,16.724
				c28.623-14.214,39.517-21.124,52.933-27.08c12.94-5.648,19.417-2.133,41.947-18.507C653.583,90.018,684.455,69.824,715.01,52.119
				z"/>
			<path id="path211" inkscape:connector-curvature="0" fill="#FFFFFF" d="M324.967,209.004c-1.272-4.771-1.534-7.311-2.452-11.869
				c9.357-2.835,14.26-9.03,13.169-15.268c-0.896-5.62-4.999-13.629-16.7-12.002c-0.273-4.643-0.395-7.311-0.376-12.243
				c35.318,0.129,72.524,2.396,107.241,5.69c25.611,2.374,31.753-4.7,45.084-5.749c15.462-1.169,27.635-0.173,59.572-1.235
				c-31.34,6.26-43.661,10.092-58.164,12.345c-13.965,2.077-19.303-3.005-45.323,6.929
				C394.154,188.433,359.087,199.876,324.967,209.004z"/>
			<path id="path212" inkscape:connector-curvature="0" fill="#FFFFFF" d="M742.442,156.755c0.044,4.933-0.339,7.462-0.586,12.105
				c-9.77,0.407-16.059,5.187-16.56,11.5c-0.535,5.665,1.441,14.444,13.183,15.788c-0.9,4.566-1.445,7.178-2.695,11.95
				c-34.164-8.935-69.633-20.409-102.433-32.258c-24.206-8.686-31.919-3.364-45.088-5.677c-15.27-2.721-26.806-6.721-57.998-13.659
				c31.908,1.753,44.793,1.117,59.406,2.551c14.039,1.469,17.939,7.724,45.615,4.59
				C670.313,159.419,707.128,157.083,742.442,156.755z"/>
			<path id="path213" inkscape:connector-curvature="0" fill="#FFFFFF" d="M735.146,211.579c-1.235,4.774-2.256,7.119-3.694,11.541
				c-9.545-2.129-16.863,0.857-18.975,6.826c-1.98,5.333-2.345,14.328,8.653,18.66c-2.042,4.177-3.248,6.56-5.692,10.85
				c-30.695-17.469-61.987-37.722-90.603-57.646c-21.139-14.654-29.965-11.51-42.094-17.15
				c-14.042-6.577-24.155-13.423-52.49-28.194c30.367,9.945,42.983,12.665,56.723,17.829c13.183,5.049,15.336,12.1,42.875,16.232
				C664.779,195.502,700.945,202.763,735.146,211.579z"/>
			<path id="path214" inkscape:connector-curvature="0" fill="#FFFFFF" d="M713.896,262.691c-2.426,4.297-4.022,6.289-6.555,10.19
				c-8.671-4.527-16.505-3.532-20.092,1.685c-3.296,4.64-5.972,13.235,3.525,20.262c-3.053,3.508-4.833,5.495-8.302,9.01
				c-25.128-24.817-50.116-52.483-72.601-79.137c-16.627-19.622-25.965-18.87-36.217-27.453c-11.864-9.989-19.856-19.22-43.41-40.82
				c26.765,17.467,38.245,23.357,50.182,31.902c11.425,8.289,11.679,15.657,37.213,26.774
				C650.088,228.949,683.146,245.323,713.896,262.691z"/>
			<path id="path215" inkscape:connector-curvature="0" fill="#FFFFFF" d="M680.116,306.588c-3.454,3.523-5.512,5.038-8.97,8.147
				c-7.2-6.618-15.027-7.69-19.841-3.58c-4.387,3.63-9.195,11.239-1.843,20.487c-3.864,2.595-6.098,4.055-10.352,6.549
				c-17.847-30.476-34.817-63.67-49.63-95.235c-10.979-23.261-20.195-24.951-27.871-35.897
				c-8.87-12.723-14.208-23.707-31.359-50.671c21.323,23.803,30.89,32.466,40.207,43.808c8.885,10.964,7.226,18.147,29.014,35.5
				C627.224,257.47,654.91,281.85,680.116,306.588z"/>
			<path id="path216" inkscape:connector-curvature="0" fill="#FFFFFF" d="M635.754,340.453c-4.254,2.496-6.643,3.425-10.787,5.524
				c-5.228-8.269-12.501-11.346-18.227-8.632c-5.176,2.358-11.805,8.448-7.123,19.294c-4.402,1.497-6.938,2.324-11.701,3.62
				c-9.276-34.076-16.995-70.547-23.06-104.885c-4.527-25.32-12.984-29.355-17.541-41.924c-5.246-14.597-7.524-26.595-17.051-57.097
				c14.378,28.544,21.353,39.399,27.384,52.783c5.718,12.903,2.241,19.401,18.743,41.838
				C597.506,279.236,617.874,309.994,635.754,340.453z"/>
			<path id="path217" inkscape:connector-curvature="0" fill="#FFFFFF" d="M584.392,361.489c-4.759,1.309-7.3,1.585-11.856,2.535
				c-2.898-9.34-9.124-14.195-15.359-13.064c-5.611,0.936-13.596,5.095-11.882,16.785c-4.641,0.306-7.311,0.444-12.243,0.461
				c-0.114-35.316,1.895-72.544,4.948-107.277c2.197-25.626-4.918-31.718-6.061-45.041c-1.276-15.458-0.365-27.633-1.648-59.565
				c6.477,31.294,10.396,43.593,12.745,58.079c2.179,13.945-2.868,19.32,7.248,45.27
				C563.342,292.449,575.028,327.437,584.392,361.489z"/>
			<path id="path218" inkscape:connector-curvature="0" fill="#FFFFFF" d="M529.078,368.473c-4.933,0.024-7.462-0.371-12.103-0.64
				c-0.365-9.775-5.11-16.088-11.425-16.617c-5.659-0.559-14.448,1.377-15.845,13.11c-4.564-0.916-7.174-1.477-11.941-2.747
				c9.095-34.125,20.737-69.539,32.737-102.282c8.8-24.164,3.517-31.904,5.888-45.064c2.794-15.255,6.85-26.774,13.935-57.934
				c-1.902,31.9-1.327,44.789-2.831,59.392c-1.534,14.031-7.808,17.908-4.807,45.596
				C526.748,296.331,528.916,333.157,529.078,368.473z"/>
			<path id="path219" inkscape:connector-curvature="0" fill="#FFFFFF" d="M474.368,360.941c-4.774-1.252-7.112-2.286-11.532-3.744
				c2.175-9.535-0.781-16.861-6.739-19.003c-5.327-2.002-14.319-2.402-18.699,8.571c-4.17-2.063-6.547-3.277-10.824-5.738
				c17.596-30.619,37.987-61.825,58.035-90.354c14.747-21.076,11.639-29.917,17.327-42.017c6.643-14.017,13.53-24.098,28.424-52.372
				c-10.079,30.328-12.848,42.931-18.072,56.647c-5.11,13.159-12.166,15.283-16.42,42.807
				C490.744,290.645,483.327,326.779,474.368,360.941z"/>
			<path id="path220" inkscape:connector-curvature="0" fill="#FFFFFF" d="M423.271,339.43c-4.284-2.448-6.275-4.052-10.16-6.605
				c4.568-8.645,3.613-16.488-1.589-20.099c-4.627-3.316-13.206-6.035-20.28,3.429c-3.491-3.069-5.471-4.861-8.97-8.346
				c24.933-25.008,52.719-49.864,79.476-72.223c19.705-16.535,18.994-25.878,27.624-36.089
				c10.05-11.818,19.318-19.766,41.025-43.217c-17.593,26.682-23.535,38.133-32.136,50.028
				c-8.343,11.388-15.712,11.607-26.953,37.091C457.314,275.784,440.783,308.759,423.271,339.43z"/>
			<path id="path221" inkscape:connector-curvature="0" fill="#FFFFFF" d="M379.434,305.343c-3.502-3.477-5.01-5.541-8.099-9.016
				c6.658-7.163,7.771-14.986,3.687-19.823c-3.606-4.402-11.185-9.255-20.476-1.954c-2.573-3.871-4.026-6.118-6.496-10.385
				c30.577-17.681,63.86-34.47,95.506-49.119c23.318-10.85,25.058-20.055,36.044-27.676c12.771-8.805,23.782-14.076,50.839-31.084
				c-23.915,21.196-32.63,30.715-44.022,39.969c-11.016,8.831-18.19,7.132-35.657,28.82
				C428.831,252.717,404.307,280.27,379.434,305.343z"/>
			<path id="path222" inkscape:connector-curvature="0" fill="#FFFFFF" d="M345.742,260.674c-2.474-4.271-3.384-6.658-5.46-10.82
				c8.299-5.174,11.418-12.431,8.741-18.171c-2.33-5.191-8.376-11.854-19.252-7.239c-1.475-4.411-2.286-6.955-3.55-11.725
				c34.135-9.065,70.647-16.566,105.021-22.424c25.349-4.376,29.434-12.806,42.035-17.287c14.629-5.156,26.636-7.366,57.198-16.704
				c-28.63,14.203-39.528,21.11-52.948,27.06c-12.936,5.646-19.417,2.125-41.954,18.492
				C407.183,222.799,376.304,242.982,345.742,260.674z"/>
			<path id="path223" inkscape:connector-curvature="0" fill="#FFFFFF" d="M426.973-28.682c4.28-2.453,6.669-3.355,10.842-5.412
				c5.135,8.323,12.38,11.473,18.131,8.824c5.202-2.308,11.897-8.324,7.325-19.22c4.417-1.453,6.964-2.253,11.738-3.499
				c8.918,34.171,16.258,70.721,21.965,105.121c4.258,25.366,12.671,29.491,17.099,42.109c5.088,14.651,7.244,26.669,16.45,57.27
				c-14.076-28.689-20.936-39.618-26.828-53.065c-5.585-12.962-2.039-19.427-18.304-42.033
				C464.569,32.929,444.529,1.961,426.973-28.682z"/>
			<path id="path224" inkscape:connector-curvature="0" fill="#FFFFFF" d="M318.365,153.675c0.011-4.935,0.428-7.456,0.723-12.098
				c9.777-0.299,16.122-5.003,16.693-11.309c0.601-5.659-1.276-14.463-12.999-15.939c0.947-4.553,1.526-7.161,2.831-11.921
				c34.061,9.327,69.394,21.209,102.053,33.43c24.107,8.966,31.882,3.735,45.021,6.195c15.241,2.9,26.728,7.03,57.843,14.326
				c-31.889-2.12-44.785-1.629-59.377-3.233c-14.017-1.631-17.851-7.928-45.559-5.117
				C390.519,151.837,353.683,153.751,318.365,153.675z"/>
			<path id="path225" inkscape:connector-curvature="0" fill="#FFFFFF" d="M326.158,99.419c1.276-4.769,2.319-7.1,3.797-11.51
				c9.526,2.218,16.866-0.702,19.038-6.652c2.028-5.316,2.47-14.304-8.479-18.739c2.079-4.158,3.307-6.529,5.788-10.796
				c30.533,17.746,61.641,38.288,90.072,58.474c21.006,14.846,29.862,11.781,41.932,17.528
				c13.987,6.708,24.033,13.646,52.236,28.675c-30.278-10.223-42.868-13.054-56.56-18.346
				c-13.135-5.169-15.222-12.238-42.728-16.623C396.374,116.138,360.274,108.545,326.158,99.419z"/>
			<path id="path226" inkscape:connector-curvature="0" fill="#FFFFFF" d="M347.917,48.427c2.466-4.273,4.077-6.256,6.651-10.131
				c8.627,4.612,16.472,3.692,20.107-1.489c3.34-4.61,6.098-13.178-3.333-20.297c3.089-3.478,4.889-5.451,8.391-8.929
				c24.892,25.054,49.611,52.958,71.842,79.825c16.439,19.781,25.781,19.117,35.952,27.797
				c11.771,10.103,19.676,19.41,43.019,41.233c-26.595-17.722-38.02-23.72-49.873-32.38c-11.347-8.396-11.532-15.768-36.958-27.13
				C411.397,82.776,378.501,66.084,347.917,48.427z"/>
			<path id="path227" inkscape:connector-curvature="0" fill="#FFFFFF" d="M382.918,4.07c3.51-3.471,5.589-4.955,9.091-8.013
				c7.1,6.724,14.909,7.912,19.79,3.873c4.431-3.565,9.357-11.099,2.146-20.457c3.893-2.536,6.149-3.965,10.448-6.395
				c17.386,30.739,33.865,64.179,48.21,95.961c10.629,23.421,19.816,25.248,27.336,36.306c8.678,12.853,13.847,23.917,30.599,51.132
				c-20.97-24.116-30.404-32.92-39.55-44.402c-8.723-11.095-6.957-18.253-28.483-35.928C435.076,53.964,407.751,29.179,382.918,4.07
				z"/>
		</g>
	</g>
</g>
<rect y="0" fill="#F6891F" width="600" height="119.5"/>
<rect y="277.5" fill="#14B04B" width="600" height="122.5"/>
</svg>
