<?xml version="1.0" encoding="utf-8"?>
<!-- Generator: Adobe Illustrator 16.0.0, SVG Export Plug-In . SVG Version: 6.00 Build 0)  -->
<!DOCTYPE svg PUBLIC "-//W3C//DTD SVG 1.0//EN" "http://www.w3.org/TR/2001/REC-SVG-20010904/DTD/svg10.dtd">
<svg version="1.0"
	 id="svg548" xmlns:dc="http://purl.org/dc/elements/1.1/" xmlns:svg="http://www.w3.org/2000/svg" xmlns:cc="http://creativecommons.org/ns#" xmlns:sodipodi="http://sodipodi.sourceforge.net/DTD/sodipodi-0.dtd" xmlns:inkscape="http://www.inkscape.org/namespaces/inkscape" xmlns:rdf="http://www.w3.org/1999/02/22-rdf-syntax-ns#" inkscape:version="0.48.1 r9760" sodipodi:docname="ke.svg" sodipodi:version="0.32"
	 xmlns="http://www.w3.org/2000/svg" xmlns:xlink="http://www.w3.org/1999/xlink" x="0px" y="0px" width="600px" height="400px"
	 viewBox="0 0 600 400" enable-background="new 0 0 600 400" xml:space="preserve">
<sodipodi:namedview  inkscape:cy="256" inkscape:cx="256" showgrid="false" id="base" inkscape:zoom="0.98242188" inkscape:current-layer="svg548" inkscape:window-maximized="1" inkscape:window-y="24" inkscape:window-x="0" inkscape:window-height="723" inkscape:window-width="1280">
	</sodipodi:namedview>
<g>
	<defs>
		<rect id="SVGID_1_" x="100" width="400" height="400"/>
	</defs>
	<clipPath id="SVGID_2_">
		<use xlink:href="#SVGID_1_"  overflow="visible"/>
	</clipPath>
	<g id="flag" inkscape:label="#g7846" clip-path="url(#SVGID_2_)">
		<rect id="rect551" x="9.344" y="0.887" fill="#FFFFFF" width="586.617" height="398.225"/>
		<rect id="rect552" x="9.344" y="285.127" fill="#008900" width="586.617" height="114.873"/>
		<rect id="rect553" x="7.813" y="144.86" fill="#C23743" width="586.616" height="114.873"/>
		<rect id="rect554" x="9.344" y="-1.648" width="586.617" height="125.065"/>
		
			<path id="path565" inkscape:connector-curvature="0" sodipodi:nodetypes="cccccc" fill="#FFFFFF" stroke="#000000" stroke-width="1.0805" d="
			M223.926,340.843c29.654-55.191,129.064-238.003,128.083-238.53c-16.257-9.542,13.141-24.199,34.731-58.567
			c-15.382,36.937-13.75,71.41-29.541,61.486c-26.263,49.569-107.442,201.09-127.627,238.512
			C227.436,342.595,226.808,342.127,223.926,340.843z"/>
		
			<path id="path568" inkscape:connector-curvature="0" sodipodi:nodetypes="cccccc" fill="#FFFFFF" stroke="#000000" stroke-width="1.0805" d="
			M372.661,343.009c-29.654-55.191-129.064-238.003-128.083-238.53c16.257-9.542-13.141-24.199-34.731-58.567
			c15.381,36.937,13.75,71.41,29.541,61.486c26.262,49.569,107.442,201.09,127.626,238.512
			C369.151,344.761,369.78,344.293,372.661,343.009L372.661,343.009z"/>
		
			<path id="path555" inkscape:connector-curvature="0" sodipodi:nodetypes="ccc" fill="#C23743" stroke="#000000" stroke-width="1.1357" d="
			M297.292,66.746c93.431,65.862,91.897,225.15,0,280.292C211.521,288.835,199.267,131.075,297.292,66.746z"/>
		
			<path id="path557" sodipodi:rx="4.8551788" sodipodi:ry="7.4445949" sodipodi:cy="494.66577" sodipodi:type="arc" sodipodi:cx="355.07428" fill="#FFFFFB" d="
			M309.545,203.83c0,9.728-5.143,17.613-11.486,17.614c-6.345,0.001-11.488-7.885-11.488-17.613c0,0,0,0,0,0
			c0-9.729,5.143-17.615,11.486-17.615c6.345-0.001,11.488,7.885,11.488,17.613C309.545,203.829,309.545,203.829,309.545,203.83z"/>
		
			<path id="path558" inkscape:connector-curvature="0" sodipodi:nodetypes="ccc" fill="#FFFFFF" stroke="#000000" stroke-width="0.3741" d="
			M296.706,72.873c26.271,25.417,25.839,86.888,0,108.168C272.589,158.58,269.143,97.699,296.706,72.873z"/>
		
			<path id="path559" inkscape:connector-curvature="0" sodipodi:nodetypes="ccc" fill="#FFFFFF" stroke="#000000" stroke-width="0.3741" d="
			M296.706,232.163c26.271,25.417,25.839,86.889,0,108.169C272.589,317.87,269.143,256.988,296.706,232.163z"/>
		<rect id="rect560" x="291.165" y="72.875" fill="#C23743" width="10.722" height="110.277"/>
		<rect id="rect561" x="292.697" y="230.633" fill="#C23743" width="10.721" height="110.277"/>
		<path id="path562" inkscape:connector-curvature="0" sodipodi:nodetypes="ccc" stroke="#000000" stroke-width="0.3149" d="
			M240.063,141.796c15.938,29.676,15.677,101.448,0,126.292C225.432,241.865,223.341,170.782,240.063,141.796z"/>
		<path id="path563" inkscape:connector-curvature="0" sodipodi:nodetypes="ccc" stroke="#000000" stroke-width="0.3149" d="
			M356.469,143.328c15.938,29.676,15.677,101.447,0,126.293C341.836,243.396,339.745,172.313,356.469,143.328z"/>
	</g>
</g>
<rect x="497.501" y="0.167" width="102.499" height="123.25"/>
<rect x="500" y="285.127" width="100" height="114.873"/>
<rect y="285.127" width="101" height="114.873"/>
<rect x="483.5" y="144.86" fill="#C23743" width="117" height="114.873"/>
<rect x="483.5" y="285.127" fill="#008900" width="117" height="114.873"/>
<rect y="285.127" fill="#008900" width="117" height="114.873"/>
<rect y="144.86" fill="#C23743" width="101.094" height="114.873"/>
<rect width="101" height="123.417"/>
<rect y="123.417" fill="#FFFFFF" width="215.833" height="21.443"/>
<rect x="384.168" y="123.417" fill="#FFFFFF" width="215.832" height="21.443"/>
<rect x="384.168" y="259.733" fill="#FFFFFF" width="215.832" height="25.394"/>
<rect y="259.733" fill="#FFFFFF" width="215.832" height="25.394"/>
</svg>
