<?xml version="1.0" encoding="utf-8"?>
<!-- Generator: Adobe Illustrator 16.0.0, SVG Export Plug-In . SVG Version: 6.00 Build 0)  -->
<!DOCTYPE svg PUBLIC "-//W3C//DTD SVG 1.0//EN" "http://www.w3.org/TR/2001/REC-SVG-20010904/DTD/svg10.dtd">
<svg version="1.0"
	 id="svg672" xmlns:dc="http://purl.org/dc/elements/1.1/" xmlns:svg="http://www.w3.org/2000/svg" xmlns:cc="http://creativecommons.org/ns#" xmlns:sodipodi="http://sodipodi.sourceforge.net/DTD/sodipodi-0.dtd" xmlns:inkscape="http://www.inkscape.org/namespaces/inkscape" xmlns:rdf="http://www.w3.org/1999/02/22-rdf-syntax-ns#" inkscape:version="0.48.1 r9760" sodipodi:docname="mo.svg" sodipodi:version="0.33pre"
	 xmlns="http://www.w3.org/2000/svg" xmlns:xlink="http://www.w3.org/1999/xlink" x="0px" y="0px" width="600px" height="400px"
	 viewBox="0 0 600 400" enable-background="new 0 0 600 400" xml:space="preserve">
<rect fill="#1F9F49" width="600" height="400"/>
<sodipodi:namedview  snaptogrid="false" inkscape:cy="248.03149" inkscape:cx="372.04724" showgrid="false" id="base" inkscape:zoom="0.44080424" inkscape:current-layer="svg672" inkscape:window-maximized="1" inkscape:window-y="24" inkscape:window-x="0" inkscape:window-height="723" inkscape:window-width="1280" snaptoguides="false">
	</sodipodi:namedview>
<g>
	<g id="flag" transform="matrix(1.032127,0,0,1.032127,-128,1.153985e-5)" inkscape:label="#g6841">
		<path id="path678" inkscape:connector-curvature="0" sodipodi:nodetypes="ccccccccccccccccccccccccccccc" fill="#FEFFFF" d="
			M414.986,221.597c-9.112,6.344-18.643,11.953-27.755,18.296c-11.418,0.808-22.491,0.923-34.255,0.346
			c0,0-24.566-4.151-30.795-14.878c-0.345-1.038,7.958-4.844,7.958-4.844c12.571,8.881,26.527,16.724,52.593,15.571
			c-32.179-2.884-53.976-20.646-60.551-37.023c17.416-12.226,46.25-11.996,69.894,4.843c-7.382-9.226-32.063-19.491-50.517-16.608
			c-2.653-2.769-4.96-6.229-7.613-8.997c21.223-4.728,50.748,8.881,61.591,20.069c-11.418-18.338-19.724-39.099-6.23-64.358
			c2.653,2.538,5.652,5.075,8.304,7.612c-10.149,18.569-6.457,40.252,1.732,55.361c-14.187-29.295-2.768-58.245,15.916-72.315
			c21.798,13.148,28.027,48.095,15.224,73.009c7.267-4.153,13.15-35.294,3.115-56.055c2.307-2.768,4.614-5.536,6.92-8.304
			c15.11,20.414,5.997,53.285-6.574,65.742c9.573-8.305,34.368-24.567,63.319-20.761c-2.309,2.768-5.999,5.19-8.305,7.958
			c-23.76-0.923-43.018,9.227-51.555,17.992c20.876-13.84,49.71-20.761,70.932-5.189c-9.804,26.18-37.601,34.023-60.553,36.33
			c19.491,1.499,37.601-4.267,52.247-14.532c2.768,1.5,5.537,2.999,8.305,4.499c-6.23,5.882-15.224,11.764-28.027,13.494
			c-12.34,1.614-23.991,1.154-36.331,1.384C434.405,234.012,424.559,227.825,414.986,221.597L414.986,221.597z"/>
		<path id="path683" inkscape:connector-curvature="0" sodipodi:nodetypes="ccccccccccc" fill="#FFFFFF" d="M414.986,227.723
			l-23.732,17.859l-63.613-0.244c0.781,2.563,3.212,5.84,4.648,7.341l63.124,0.244l19.572-15.169l18.84,14.925h63.859
			c1.834-1.957,3.792-4.649,5.503-6.974l-64.714,0.123L414.986,227.723L414.986,227.723z"/>
		<path id="path687" inkscape:connector-curvature="0" sodipodi:nodetypes="ccc" fill="#FFFFFF" d="M378.532,289.069
			c18.267,9.017,57.088,8.277,74.622-0.221L378.532,289.069z"/>
		<path id="path688" inkscape:connector-curvature="0" sodipodi:nodetypes="ccccc" fill="#FFFFFF" d="M336.521,258.797
			c0.734,0,156.881-0.124,156.881-0.124c-2.732,3.1-5.955,6.443-9.297,9.297l-139.553-0.611
			C341.933,265.542,338.448,261.303,336.521,258.797L336.521,258.797z"/>
		<path id="path689" inkscape:connector-curvature="0" sodipodi:nodetypes="ccccc" fill="#FFFFFF" d="M347.298,270.05l134.726,0.368
			c-2.528,1.957-4.566,4.281-7.461,5.749l-119.764-0.101C352.033,274.579,349.198,272.055,347.298,270.05z"/>
		<path id="path690" inkscape:connector-curvature="0" sodipodi:nodetypes="ccccc" fill="#FFFFFF" d="M359.57,280.077l110.099-0.27
			c-2.935,1.885-6.239,3.893-9.908,5.656h-90.282C366.421,284.402,362.873,282.117,359.57,280.077L359.57,280.077z"/>
		
			<polygon id="polygon564" sodipodi:r2="6.7779307" sodipodi:sides="5" sodipodi:arg1="0.93428808" sodipodi:arg2="1.5626066" sodipodi:r1="16.944826" sodipodi:cy="115.10958" sodipodi:type="star" sodipodi:cx="195.51263" inkscape:randomized="0" inkscape:rounded="0" inkscape:flatsided="false" fill="#FEB700" points="
			473.387,124.332 469.417,118.503 462.573,120.199 466.889,114.624 463.161,108.638 469.799,111.021 474.339,105.625 
			474.125,112.674 480.659,115.325 473.891,117.298 		">
		</polygon>
		
			<polygon id="polygon714" sodipodi:r2="6.7779307" sodipodi:sides="5" sodipodi:arg1="0.93428808" sodipodi:arg2="1.5626066" sodipodi:r1="16.944826" sodipodi:cy="115.10958" sodipodi:type="star" sodipodi:cx="195.51263" inkscape:randomized="0" inkscape:rounded="0" inkscape:flatsided="false" fill="#FEB700" points="
			423.611,116.03 415.745,110.65 407.967,116.157 410.653,107.014 403.011,101.319 412.537,101.046 415.594,92.018 418.795,100.995 
			428.325,101.111 420.779,106.93 		">
		</polygon>
		
			<polygon id="polygon715" sodipodi:r2="6.7779307" sodipodi:sides="5" sodipodi:arg1="0.93428808" sodipodi:arg2="1.5626066" sodipodi:r1="16.944826" sodipodi:cy="115.10958" sodipodi:type="star" sodipodi:cx="195.51263" inkscape:randomized="0" inkscape:rounded="0" inkscape:flatsided="false" fill="#FEB700" points="
			506.388,162.959 499.893,160.213 495.06,165.349 495.664,158.324 489.287,155.316 496.156,153.719 497.045,146.723 
			500.686,152.763 507.616,151.447 502.996,156.776 		">
		</polygon>
		
			<polygon id="polygon716" sodipodi:r2="6.7779307" sodipodi:sides="5" sodipodi:arg1="0.93428808" sodipodi:arg2="1.5626066" sodipodi:r1="16.944826" sodipodi:cy="115.10958" sodipodi:type="star" sodipodi:cx="195.51263" inkscape:randomized="0" inkscape:rounded="0" inkscape:flatsided="false" fill="#FEB700" points="
			356.794,124.223 360.763,118.395 367.607,120.092 363.291,114.515 367.02,108.53 360.382,110.912 355.842,105.516 
			356.056,112.565 349.521,115.216 356.292,117.19 		">
		</polygon>
		
			<polygon id="polygon717" sodipodi:r2="6.7779307" sodipodi:sides="5" sodipodi:arg1="0.93428808" sodipodi:arg2="1.5626066" sodipodi:r1="16.944826" sodipodi:cy="115.10958" sodipodi:type="star" sodipodi:cx="195.51263" inkscape:randomized="0" inkscape:rounded="0" inkscape:flatsided="false" fill="#FEB700" points="
			322.249,162.707 328.745,159.961 333.577,165.098 332.971,158.072 339.35,155.064 332.481,153.467 331.592,146.471 
			327.95,152.511 321.021,151.196 325.64,156.524 		">
		</polygon>
	</g>
</g>
<rect fill="none" width="600" height="400"/>
</svg>
