<?xml version="1.0" encoding="utf-8"?>
<!-- Generator: Adobe Illustrator 16.0.0, SVG Export Plug-In . SVG Version: 6.00 Build 0)  -->
<!DOCTYPE svg PUBLIC "-//W3C//DTD SVG 1.1//EN" "http://www.w3.org/Graphics/SVG/1.1/DTD/svg11.dtd">
<svg version="1.1"
	 id="svg3337" xmlns:dc="http://purl.org/dc/elements/1.1/" xmlns:svg="http://www.w3.org/2000/svg" xmlns:cc="http://creativecommons.org/ns#" xmlns:sodipodi="http://sodipodi.sourceforge.net/DTD/sodipodi-0.dtd" xmlns:inkscape="http://www.inkscape.org/namespaces/inkscape" xmlns:rdf="http://www.w3.org/1999/02/22-rdf-syntax-ns#" inkscape:version="0.48.1 r9760" sodipodi:docname="mx.svg" sodipodi:version="0.32"
	 xmlns="http://www.w3.org/2000/svg" xmlns:xlink="http://www.w3.org/1999/xlink" x="0px" y="0px" width="600px" height="400px"
	 viewBox="-44 56 600 400" enable-background="new -44 56 600 400" xml:space="preserve">
<sodipodi:namedview  snaptogrid="false" inkscape:cy="248.03149" inkscape:cx="434.05511" showgrid="true" id="base" inkscape:zoom="0.3778322" inkscape:current-layer="svg3337" inkscape:window-maximized="1" inkscape:window-y="24" inkscape:window-x="0" inkscape:window-height="723" inkscape:window-width="1280">
	</sodipodi:namedview>
<g id="flag" transform="matrix(0.57142869,0,0,1,0,15.937033)" inkscape:label="#g5880">
	<rect id="rect880" x="82.25" y="40.063" fill="#FFFFFF" width="699.999" height="400"/>
	<rect id="rect1201" x="668.335" y="40.063" fill="#BC0000" width="306.414" height="400"/>
	<rect id="rect1201_1_" x="-77" y="40.063" fill="#0B7226" width="307.344" height="400"/>
</g>
<g id="g877" transform="matrix(0.42218879,0,0,0.42218879,-24.915799,315.30864)">
	<path id="path723" inkscape:connector-curvature="0" sodipodi:nodetypes="ccccccccc" fill="#9C4314" d="M457.32-97.758
		c0.15-0.194,6.828-11.885,6.036-10.002c3.076,2.357,8.693,0.125,4.617-5.179c0.992-2.142,2.244-3.777,3.236-5.924
		c2.241-4.196-2.558-6.002-4.456-3.102c-1.16,2.223-2.282,3.544-3.443,5.767c-6.045-2.871-6.443,3.881-3.549,5.061
		c-1.284,1.818-3.471,4.811-4.752,6.629C455.778-102.257,456.55-100.007,457.32-97.758L457.32-97.758z"/>
	<path id="path724" inkscape:connector-curvature="0" sodipodi:nodetypes="ccccccccc" fill="#9C4314" d="M456.523-100.37
		c-0.199-0.148-11.983-6.659-10.089-5.894c2.313-3.109,0-8.693-5.241-4.543c-2.158-0.962-3.811-2.19-5.97-3.153
		c-4.227-2.179-5.968,2.644-3.039,4.499c2.239,1.133,3.576,2.232,5.816,3.363c-2.784,6.083,3.972,6.386,5.108,3.479
		c1.837,1.256,8.947,5.378,10.781,6.636C456.13-96.785,454.283-99.567,456.523-100.37L456.523-100.37z"/>
	<path id="path721" inkscape:connector-curvature="0" sodipodi:nodetypes="ccccccccc" fill="#9C4314" d="M499.148-28.942
		c0.038-0.243,0.341-13.703,0.542-11.67c3.828,0.606,7.701-4.032,1.594-6.754c-0.149-2.355,0.172-4.388,0.024-6.747
		c-0.029-4.756-5.11-4.062-5.396-0.606c0.038,2.507-0.318,4.203-0.28,6.71c-6.684,0.356-3.818,6.481-0.712,6.139
		c-0.263,2.209-0.759,5.882-1.022,8.094C495.647-32.166,497.397-30.554,499.148-28.942z"/>
	<path id="path722" inkscape:connector-curvature="0" sodipodi:nodetypes="ccccccccc" fill="#9C4314" d="M497.201-30.859
		c-0.245-0.035-13.707-0.148-11.677-0.377c0.553-3.837-4.14-7.642-6.774-1.499c-2.356,0.183-4.395-0.111-6.75,0.072
		c-4.755,0.097-3.989,5.167-0.53,5.406c2.507-0.074,4.208,0.257,6.715,0.183c0.45,6.678,6.534,3.726,6.148,0.627
		c2.214,0.231,9.121,0.953,11.334,1.184C497.256-27.036,495.614-29.087,497.201-30.859z"/>
	
		<path id="path691" inkscape:connector-curvature="0" sodipodi:nodetypes="cccccccccccccc" fill="#42B2F3" stroke="#000000" stroke-width="2.5" d="
		M636.489,15.282c0,0,4.617,6.234,6.695,6.465c6.463,0.46,57.711,0,57.711,0c0-0.079,1.848-1.078,1.848-1.154
		c1.693-2.156,1.54-3.386,3.231-5.542c2.695-2.692,6.541-3.539,9.234-6.234c11.545-2.769,21.933-5.54,33.475-7.386
		c-0.923-6.849-7.848-5.387-11.542-8.08c-1.154-1.078-0.923-2.156-0.231-3.234c8.54-3.923,17.082-7.848,25.624-11.774
		c0-0.923,0-1.846,0-2.769c-18.162,2.156-34.937,5.693-54.483,6.463c-22.238,9.158-44.476,18.315-66.714,27.473
		C639.72,11.436,638.104,13.358,636.489,15.282z"/>
	<path id="path610" inkscape:connector-curvature="0" fill="none" stroke="#000000" d="M452.038-107.3c-0.077,0-0.155,0-0.232,0
		c1.159,0,0.238,0.076,0-2.771"/>
	
		<path id="path611" inkscape:connector-curvature="0" sodipodi:nodetypes="ccccccccccccccccccccccccccc" fill="#008D00" stroke="#286726" stroke-width="4.625" d="
		M453.028-104.231c-3.463-12.236-9.058-22.957-22.117-26.126c-2.448-0.557-4.188-7.552-0.108-7.224
		c2.308,0.923,0.046-0.44,2.355,0.483c2.285,0.819,5.844-0.985,4.375-4.876c0-0.46-4.359-8.199-4.359-8.429
		c-0.815-0.884,0.7-5.844,4.617-3.231c1.848,1.212,3.695,4.057,6.358,4.617c0.98-0.164,1.627-3.205,1.464-5.557
		c0-0.231,0.23-7.98,0.23-7.98c-0.928-4.668,3.204-7.051,6.521-3.557c0.23,1.154-0.028,1.166,0.202,2.321
		c0.76,1.545,1.684,1.786,2.77,0.23c1.463-1.463,2.925-2.925,4.387-4.387c2.605-0.968,4.229-1.936,4.386,3.463
		c0,0-3.593,4.505-5.292,6.138c-0.885,1.306-2.803,3.08,0.529,4.06c0.231,0,4.764,0.653,4.764,0.653
		c3.102,1.29,3.428,4.7,1.144,5.01c0,0-2.418,2.822-6.663,5.174c-1.306,1.049-2.381,2.31-1.239,3.751
		c2.45,0.95,1.67,0.039,5.846,0.039c3.524-0.817,3.197,7.812-3.169,7.23c-1.905,0.456-4.419,0.266-5.452,3.31
		c-0.461,2.373-0.575,6.923-0.575,8.08c-0.396,5.494,0.412,13.115,0.412,13.346C454.875-103.77,453.491-105.156,453.028-104.231
		L453.028-104.231z"/>
	
		<path id="path612" inkscape:connector-curvature="0" sodipodi:nodetypes="ccccccccccccccccscccccccc" fill="#008D00" stroke="#286726" stroke-width="4.625" d="
		M490.817-33.834c-0.45-0.574-12.019-13.252-25.382-11.827c-2.494,0.303-6.491-5.695-2.54-6.766
		c2.484,0.093,0.551-0.264,3.035-0.174c2.1-1.473-1.698-6.005-3.413-4.434c-0.155-0.432-4.581,0.948-6.458,0.569
		c-5.806-0.557-8.342-7.046-4.1-9.507c2.638,1.008,7.625,1.103,10.321,0.729c2.665-0.81,1.431-3.236-1.151-3.597
		c-3.675-0.546-18.497-4.157-17.189-5.956c-2.451-4.08-0.017-7.228,4.283-5.059c3.549,2.151,3.962,0.941,3.098-0.662
		c-1.051-3.056-2.062-2.322-2.217-4.971c-0.263-1.707,0.293-3.25,2.81-2.177c1.063-0.895,2.81,5.496,9.41,3.072
		c1.221,1.02,2.259-6.914,6.84-5.706c3.434,1.064,1.087,4.633,1.758,9.673c0.551,3.319,3.866,2.556,4.323,0.833
		c-0.718-7.626,6.737-7.758,7.589-5.184c0.708,1.885,1.345,7.016,0.444,11.838c-0.492,2.452-0.103,7.316,1.46,8.285
		c2.625,0.072,0.93-0.523,2.736-3.243c3.042-1.957,7.773,5.133,2.236,8.693c-5.838,1.258,3.309,23.506,4.079,24.745
		C491.945-33.746,490.941-34.859,490.817-33.834L490.817-33.834z"/>
	<path id="path702" inkscape:connector-curvature="0" sodipodi:nodetypes="ccccccccc" fill="#9C4314" d="M562.532,25.67
		c0-0.247-1.809-13.585-1.292-11.609c3.874,0,6.975-5.191,0.517-6.918c-0.517-2.306-0.517-4.365-1.034-6.671
		c-0.774-4.693-5.684-3.211-5.424,0.245c0.43,2.473,0.345,4.203,0.774,6.673c-6.544,1.399-2.755,6.997,0.259,6.176
		c0.086,2.223,0.171,5.928,0.258,8.151C558.57,23.036,560.552,24.352,562.532,25.67z"/>
	<path id="path720" inkscape:connector-curvature="0" sodipodi:nodetypes="ccccccccc" fill="#9C4314" d="M562.296,24.098
		c-0.247,0.002-13.561,2.001-11.592,1.455c-0.055-3.874-5.287-6.9-6.924-0.416c-2.299,0.548-4.358,0.578-6.656,1.126
		c-4.682,0.842-3.13,5.73,0.323,5.422c2.466-0.465,4.197-0.405,6.662-0.872c1.491,6.525,7.038,2.658,6.17-0.345
		c2.223-0.116,9.159-0.486,11.379-0.601C562.949,27.866,561.006,26.098,562.296,24.098z"/>
	
		<path id="path637" inkscape:connector-curvature="0" sodipodi:nodetypes="cccccccccccccc" fill="#33B1E9" stroke="#000000" stroke-width="2.625" d="
		M557.752-48.857c32.585,19.233,40.958,16.441,39.598,7.92c1.561,0,1.899,1.36,6.525-2.049
		c-0.644,12.602,13.077,19.846,21.441,18.327c7.548,0.486,6.574,10.469,6.574,10.469c0.458,10.215-2.977,14.344-2.518,24.556
		c-0.116,0-0.23-1.217-0.345-1.217c-9.286-2.209-27.581-2.468-34.433-3.946l0,0c31.408-21.426-24.154-22.014-29.124-22.745
		c-3.753-0.486-1.076-4.138,1.116-5.112c17.287-3.409-16.249-19.777-15.376-21.727c-2.048-1.217,0.143-2.19,0.143-2.19
		C553.649-48.064,555.458-47.365,557.752-48.857L557.752-48.857z"/>
	
		<path id="path643" inkscape:connector-curvature="0" sodipodi:nodetypes="ccccccccc" fill="#983D25" stroke="#000000" stroke-width="3.75" d="
		M639.116-32.562c-5.666,0-10.226,4.561-10.226,10.229c-1.705,7.791-1.461,18.745,0,29.217c0,5.662,4.56,10.224,10.226,10.224
		c22.561,2.433,46.826,1.705,67.686,0c5.665,0,10.224-4.561,10.224-10.224c2.679-9.255,1.948-18.993,0-29.217
		c0-5.667-4.559-10.229-10.224-10.229C684.24-33.535,661.191-34.752,639.116-32.562z"/>
	
		<path id="path1138" inkscape:connector-curvature="0" sodipodi:nodetypes="ccccccccccccc" fill="#268728" stroke="#000003" stroke-width="2.5" stroke-linecap="round" stroke-linejoin="round" d="
		M562.908-310.679c-5.149,4.458-10.296,8.917-15.445,13.374c-6.343,2.805-13.237,6.296-8.274,21.235
		c-2.895,19.167,12.55,22.2,26.063,18.201c2.252-4.963,2.967-8.39,5.218-13.354c-5.975-0.918-9.171,1.174-14.596,0.806
		c-3.724-0.597-3.998-3.4-2.621-5.239c5.838-2.896,11.124-5.653,16.961-8.549c-0.138-0.873-0.275-0.229-0.413-1.103
		c-4.827,2.482-8.274,3.31-13.374,5.378c-4.047,1.426-5.195-3.769-3.586-6.067c0,0,10.479-15.029,10.479-15.167
		C564.199-304.325,563.59-309.647,562.908-310.679z"/>
	
		<path id="path614" sodipodi:rx="10.382629" sodipodi:ry="10.382629" sodipodi:cy="473.60449" sodipodi:type="arc" sodipodi:cx="265.49878" fill="#FFFFFF" stroke="#000000" stroke-width="2.5" d="
		M606.084-47.914c0,4.469-3.622,8.091-8.091,8.091c-4.469,0-8.091-3.622-8.091-8.091c0-4.467,3.622-8.091,8.091-8.091
		C602.462-56.005,606.084-52.38,606.084-47.914z"/>
	
		<path id="path615" sodipodi:rx="10.382629" sodipodi:ry="10.382629" sodipodi:cy="473.60449" sodipodi:type="arc" sodipodi:cx="265.49878" fill="#FFFFFF" stroke="#000000" stroke-width="2.6515" d="
		M567.709-17.399c0,4.214-3.415,7.629-7.629,7.629c-4.213,0-7.629-3.414-7.629-7.629c0-4.212,3.415-7.629,7.629-7.629
		C564.294-25.028,567.709-21.611,567.709-17.399z"/>
	
		<path id="path616" sodipodi:rx="10.382629" sodipodi:ry="10.382629" sodipodi:cy="473.60449" sodipodi:type="arc" sodipodi:cx="265.49878" fill="#FFFFFF" stroke="#000000" stroke-width="2.625" d="
		M757.274-0.289c0,4.212-3.416,7.629-7.629,7.629c-4.212,0-7.631-3.416-7.631-7.629c0-4.212,3.419-7.631,7.631-7.631
		C753.857-7.92,757.274-4.501,757.274-0.289z"/>
	
		<path id="path1143" inkscape:connector-curvature="0" sodipodi:nodetypes="cccc" fill="#BA4600" stroke="#000000" stroke-linejoin="round" d="
		M563.644-300.481c0.184,4.587,0.308,10.348,0.308,12.103c-0.195-4.291-1.698-7.726-2.254-9.414
		C562.366-298.893,563.449-300.481,563.644-300.481L563.644-300.481z"/>
	
		<path id="path617" sodipodi:rx="10.382629" sodipodi:ry="10.382629" sodipodi:cy="473.60449" sodipodi:type="arc" sodipodi:cx="265.49878" fill="#973100" stroke="#000000" stroke-width="3.8182" d="
		M638.449,8.956c0,4.214-3.415,7.629-7.629,7.629c-4.214,0-7.629-3.414-7.629-7.629c0-4.214,3.414-7.629,7.629-7.629
		C635.034,1.328,638.449,4.742,638.449,8.956z"/>
	
		<path id="path618" sodipodi:rx="10.382629" sodipodi:ry="10.382629" sodipodi:cy="473.60449" sodipodi:type="arc" sodipodi:cx="265.49878" fill="#973100" stroke="#000000" stroke-width="3.8182" d="
		M718.897,8.956c0,4.214-3.414,7.629-7.629,7.629c-4.214,0-7.629-3.414-7.629-7.629c0-4.214,3.414-7.629,7.629-7.629
		C715.483,1.328,718.897,4.742,718.897,8.956z"/>
	
		<path id="path619" sodipodi:rx="10.382629" sodipodi:ry="10.382629" sodipodi:cy="473.60449" sodipodi:type="arc" sodipodi:cx="265.49878" fill="#973100" stroke="#000000" stroke-width="3.8182" d="
		M718.897-28.033c0,4.214-3.414,7.629-7.629,7.629c-4.214,0-7.629-3.414-7.629-7.629c0-4.212,3.414-7.629,7.629-7.629
		C715.483-35.661,718.897-32.245,718.897-28.033z"/>
	
		<path id="path620" sodipodi:rx="10.382629" sodipodi:ry="10.382629" sodipodi:cy="473.60449" sodipodi:type="arc" sodipodi:cx="265.49878" fill="#973100" stroke="#000000" stroke-width="3.8182" d="
		M638.911-28.033c0,4.214-3.414,7.629-7.629,7.629c-4.213,0-7.629-3.414-7.629-7.629c0-4.212,3.415-7.629,7.629-7.629
		C635.496-35.661,638.911-32.245,638.911-28.033z"/>
	
		<path id="path621" inkscape:connector-curvature="0" sodipodi:nodetypes="ccccccccccccccccscccccccc" fill="#008D00" stroke="#286726" stroke-width="4.625" d="
		M563.666,29.811c-0.451-0.574-3.877-10.284-23.241-10.71c-2.724-0.16-4.452,0.625-9.969,0.243
		c-3.196,0.264-1.944-3.546-0.677-4.918c2.1-1.473-7.482-0.756-10.774-0.365c-3.322-0.192-5.556-0.759-7.433-1.136
		c-5.807-0.56-9.205-4.638-4.962-7.097c1.778-1.749,9.004,0.238,11.698-0.132c2.665-0.812,2.292-5.304-0.29-5.667
		c-3.674-0.544-19.701-1.746-18.393-3.544c-2.451-4.08-1.739-6.194,4.626-5.406c3.549,2.154,3.447-0.604,2.583-2.209
		c-1.052-3.053-6.884-3.527-7.039-6.174c-0.95-6.354,3.221-7.212,5.738-6.139c1.063-0.893-4.765-5.866,1.834-8.288
		c1.64-0.514,5.014-0.113,6.152,5.912c3.433,1.064,1.061-3.955,5.718-5.993c3.992-1.672-0.266,17.88,4.494,17.707
		c4.102,1.67,3.293-10.689,6.728-8.286c7.424-1.904,3.83,23.716,7.061,22.171c5.362,4.691,5.924-4.217,7.485-3.248
		c2.627,0.069,4.374,0.162,2.91,6.053c-1.091,4.585,0.541,5.649,1.374,7.487c5.016,11.052,12.543,10.95,15.055,16.034
		C565.153,33.632,563.791,28.786,563.666,29.811z"/>
	
		<path id="path622" inkscape:connector-curvature="0" sodipodi:nodetypes="ccccc" fill="#009400" stroke="#000000" stroke-width="2.5" d="
		M656.402,46.812c-9.259,7.605-18.877,12.532-22.4,20.45c4.22-0.567,5.851-1.272,8.999-0.877
		c3.409-7.629,14.132-11.702,20.462-17.871C661.109,47.948,658.756,47.379,656.402,46.812z"/>
	
		<path id="path629" inkscape:connector-curvature="0" sodipodi:nodetypes="ccccc" fill="#009400" stroke="#000000" stroke-width="2.5" d="
		M681.171,47.626c8.371,7.733,18.75,12.153,22.398,20.325c-4.217-0.569-5.977-1.145-8.494-0.495
		c-3.41-7.629-14.635-12.084-20.966-18.253C676.461,48.635,678.816,48.193,681.171,47.626L681.171,47.626z"/>
	
		<path id="path630" inkscape:connector-curvature="0" sodipodi:nodetypes="ccccc" fill="#FFFFFF" stroke="#000000" stroke-width="2.5" d="
		M674.84,49.204c10.145,6.088,14.193,10.469,20.443,18.26c-3.002,0.18-7.215,1.543-8.755,2.436
		c-7.55-9.819-13.393-13.31-19.724-19.476C669.157,49.852,672.487,49.773,674.84,49.204L674.84,49.204z"/>
	
		<path id="path827" inkscape:connector-curvature="0" sodipodi:nodetypes="cccccccccccc" fill="#FFBA00" stroke="#000000" stroke-width="2.5" stroke-opacity="0.7724" d="
		M579.071-280.414c-4.062,1.118-5.816,4.545-6.186,7.741c-14.971,10.488-4.09,31.131,9.795,26.843
		c-10.272-15.384,0-24.075,11.427-18.682c3.463,2.54,5.876,7.837,6.204,7.509c2.173-4.713,10.773-8.816,10.773-8.816
		s6.928,0.931,8.178-3.551c0.789-2.866,7.166-14.731,7.166-14.731c-7.4-1.523-14.799-3.047-22.2-4.571
		c-5.114-0.109-10.23-0.217-15.345-0.327c-2.72,1.197-5.44,2.394-8.161,3.592C579.633-283.665,580.16-282.154,579.071-280.414z"/>
	
		<path id="path631" inkscape:connector-curvature="0" sodipodi:nodetypes="ccccc" fill="#D40000" stroke="#000000" stroke-width="2.5" d="
		M666.561,49.69c10.145,6.09,14.799,11.788,21.047,19.58c-2.75,0.812-3.678,5.336-5.221,6.229
		c-4.869-9.819-12.923-18.188-21.445-26.547C663.296,48.38,664.209,50.259,666.561,49.69L666.561,49.69z"/>
	
		<path id="path627" inkscape:connector-curvature="0" sodipodi:nodetypes="ccccc" fill="#FFFFFF" stroke="#000000" stroke-width="2.5" d="
		M662.732,48.515c-10.145,6.09-13.685,9.965-19.934,17.755c3.002,0.18,6.707,2.049,8.248,2.942
		c7.548-9.821,13.392-13.31,19.72-19.479C668.414,49.165,665.086,49.084,662.732,48.515L662.732,48.515z"/>
	
		<path id="path628" inkscape:connector-curvature="0" sodipodi:nodetypes="ccccc" fill="#D40000" stroke="#000000" stroke-width="2.5" d="
		M671.012,49.003c-10.148,6.088-14.419,12.162-20.666,19.955c5.028,3.599,3.804,3.821,4.839,5.854
		c4.87-9.821,15.582-17.936,24.104-26.298C676.933,47.948,673.364,49.572,671.012,49.003L671.012,49.003z"/>
	
		<path id="path635" sodipodi:rx="16.127098" sodipodi:ry="9.0576925" sodipodi:cy="472.44934" sodipodi:type="arc" sodipodi:cx="187.56036" fill="#973000" stroke="#000000" stroke-width="2.2433" d="
		M557.207-45.108c-1.217,4.404-8.048,6.065-15.258,3.708c-7.21-2.355-12.069-7.837-10.852-12.239
		c1.216-4.404,8.047-6.067,15.257-3.708C553.564-54.994,558.423-49.514,557.207-45.108z"/>
	
		<path id="path761" inkscape:connector-curvature="0" sodipodi:nodetypes="cccccc" fill="#008D2B" stroke="#005E00" stroke-width="2.5" d="
		M654.522,36.23c-7.313,5.255-17.654,12.276-24.968,17.531c-1.501,1.281,5.069,2.625,7.478,1.448
		c7.72-5.299,11.781-8.771,19.499-14.071c1.471-0.821,2.945-1.642,4.415-2.466C657.796,38.446,657.672,36.456,654.522,36.23
		L654.522,36.23z"/>
	
		<path id="path636" sodipodi:rx="16.127098" sodipodi:ry="9.0576925" sodipodi:cy="472.44934" sodipodi:type="arc" sodipodi:cx="187.56036" fill="#973000" stroke="#000000" stroke-width="2.5489" d="
		M601.756,2.57c1.618,3.618-2.034,8.498-8.157,10.904c-6.123,2.401-12.396,1.418-14.013-2.2c-1.618-3.615,2.036-8.498,8.157-10.899
		C593.867-2.029,600.14-1.046,601.756,2.57z"/>
	
		<path id="path756" inkscape:connector-curvature="0" sodipodi:nodetypes="csccc" fill="#008D00" stroke="#000000" stroke-width="2.6276" d="
		M729.107-44.745c0.382-20.066,17.975-2.498,24.884-10.765c16.233-19.132,17.626-20.589,31.967-18.512
		c38.437,15.104-1.684,50.032-40.97,34.13C740.68-42.265,733.419-42.374,729.107-44.745z"/>
	<g id="g660" transform="translate(315.1899,-492.2125)">
		
			<path id="path657" sodipodi:rx="7.234406" sodipodi:ry="7.234406" sodipodi:cy="390.34146" sodipodi:type="arc" sodipodi:cx="612.08899" fill="#6D390B" d="
			M558.881,381.343c-0.511,2.241-3.134,3.43-5.854,2.658c-2.723-0.773-4.511-3.217-3.999-5.459c0.514-2.244,3.134-3.433,5.857-2.662
			C557.607,376.657,559.395,379.1,558.881,381.343z"/>
		
			<rect id="rect659" x="554.839" y="383.92" transform="matrix(-0.7553 -0.6554 0.6554 -0.7553 731.9442 1044.8781)" fill="#6D390B" width="12.381" height="3.758"/>
	</g>
	<path id="path1192" inkscape:connector-curvature="0" sodipodi:nodetypes="ccccc" fill="#6D390B" d="M816.029-82.194l2.042,2.861
		l7.055-6.148l-2.04-2.861L816.029-82.194L816.029-82.194z"/>
	
		<path id="path638" inkscape:connector-curvature="0" sodipodi:nodetypes="cc" fill="none" stroke="#000000" stroke-width="3.75" stroke-linecap="round" d="
		M639.116-32.805c11.931,3.652,20.695,46.99,32.383,50.883"/>
	
		<path id="path639" inkscape:connector-curvature="0" sodipodi:nodetypes="cc" fill="none" stroke="#000000" stroke-width="3.75" stroke-linecap="round" d="
		M650.559-33.047c11.931,3.65,20.452,46.99,32.14,50.886"/>
	
		<path id="path640" inkscape:connector-curvature="0" sodipodi:nodetypes="cc" fill="none" stroke="#000000" stroke-width="3.75" stroke-linecap="round" d="
		M661.759-33.536c11.931,3.652,20.695,47.236,32.381,51.129"/>
	
		<path id="path645" sodipodi:rx="16.127098" sodipodi:ry="9.0576925" sodipodi:cy="472.44934" sodipodi:type="arc" sodipodi:cx="187.56036" fill="#973000" stroke="#000000" stroke-width="2.2433" d="
		M776.084-27.619c1.617,3.615-2.036,8.496-8.158,10.899s-12.396,1.42-14.013-2.197c-1.617-3.615,2.036-8.496,8.158-10.902
		C768.194-32.219,774.467-31.236,776.084-27.619z"/>
	
		<path id="path650" inkscape:connector-curvature="0" sodipodi:nodetypes="ccccc" fill="#DC0000" stroke="#000000" stroke-width="2.3875" d="
		M821.643-72.243c0.597,2.313-0.439,5.313-4.508,6.366c-4.071,1.05-7.895-0.534-8.491-2.847c-0.599-2.315,1.76-5.642,5.831-6.696
		C818.545-76.471,821.046-74.558,821.643-72.243L821.643-72.243z"/>
	
		<path id="path719" inkscape:connector-curvature="0" sodipodi:nodetypes="ccccccccccccccccscccccccc" fill="#008D00" stroke="#286026" stroke-width="4.625" d="
		M642.487,38.686c-6.037,1.226-19.795,4.208-25.793,16.231c-1.088,2.265-10.141,4.016-8.913,0.113
		c1.413-2.045,1.92-2.223,3.334-4.268c-0.111-2.563-5.976-1.807-5.572,0.486c-0.45-0.102-3.287,0.446-4.618,1.823
		c-3.598,4.591-9.738,4.388-9.525-0.511c2.27-1.679,3.42-3.292,4.558-5.762c0.753-2.683-4.495-3.643-6.192-1.663
		c-3.591,1.878-5.845,4.568-10.12,6.655c-4.759,1.712-9.332-1.339-5.188-3.793c3.725-1.83,0.621-6.06-1.198-6.199
		c-3.138-0.759-15.994,1.411-18.308,0.116c-1.81-0.236-5.12-4.999-1.242-5.85c3.511-1.147,9.376,1.286,10.89-5.579
		c1.517-11.561,19.861,5.915,16.883,1.089c-6.722-9.939,4.718-12.273,8.172-5.505c1.408,3.053,8.392,7.587,10.417,6.736
		c3.809,0.419-7.064-9.627,1.568-11.267c1.968,0.419,5.481,0.569,7.904,3.925c1.801,1.735,2.185,8.878,8.923,9.467
		c1.472-2.172,0.059-1.066-1.258-4.05c-0.01-3.62,5.971-3.324,8.527,2.797c2.533,4.675,15.897,1.499,28.126,1.781
		C657.78,34.816,664.083,38.263,642.487,38.686L642.487,38.686z"/>
	
		<path id="path648" inkscape:connector-curvature="0" sodipodi:nodetypes="ccccc" fill="#DC0000" stroke="#000000" stroke-width="2.5" d="
		M808.106-72.673c2.151,3.305,2.107,8.542-3.708,12.329c-5.813,3.782-12.623,3.31-14.774,0.007
		c-2.153-3.305-0.213-9.747,5.602-13.532C801.04-77.655,805.953-75.978,808.106-72.673z"/>
	
		<path id="path651" inkscape:connector-curvature="0" sodipodi:nodetypes="ccccc" fill="#DC0000" stroke="#000000" stroke-width="2.3875" d="
		M812.268-86.378c2.015,1.286,3.301,4.187,1.039,7.73c-2.262,3.546-6.139,4.992-8.154,3.706c-2.015-1.286-2.556-5.327-0.296-8.873
		C807.119-87.357,810.251-87.664,812.268-86.378L812.268-86.378z"/>
	
		<path id="path649" inkscape:connector-curvature="0" sodipodi:nodetypes="ccccc" fill="#DC0000" stroke="#000000" stroke-width="2.3875" d="
		M818.395-80.366c1.305,2.003,1.277,5.177-2.248,7.469c-3.523,2.295-7.649,2.01-8.954,0.007c-1.305-2.003-0.127-5.908,3.396-8.202
		C814.111-83.387,817.09-82.372,818.395-80.366z"/>
	
		<path id="path653" inkscape:connector-curvature="0" sodipodi:nodetypes="ccccc" fill="#D90000" stroke="#000000" stroke-width="1.7964" d="
		M831.503-92.235c0.981,1.508,0.962,3.898-1.691,5.621c-2.651,1.728-5.757,1.513-6.738,0.002c-0.981-1.506-0.097-4.443,2.556-6.169
		C828.281-94.506,830.52-93.741,831.503-92.235L831.503-92.235z"/>
	
		<path id="path633" inkscape:connector-curvature="0" sodipodi:nodetypes="ccccccccc" fill="#FFFFFF" stroke="#000000" stroke-width="2.5" d="
		M663.978,29.459c-5.186,0.608-8.14,0.93-9.135,4.682c-0.553,2.549-0.111,5.878,0.332,8.737c0,3.282,4.144,5.461,8.97,6.396h8.304
		c3.497,0,9.967-3.423,9.967-6.708c0.518-1.855,0.5-4.851,0.5-6.881c0-5.524-3.9-5.861-8.776-6.382L663.978,29.459L663.978,29.459z"
		/>
	
		<path id="path654" inkscape:connector-curvature="0" sodipodi:nodetypes="cccc" fill="#008F00" stroke="#286326" stroke-width="4.125" d="
		M848.361-35.775c-0.574-19.169-5.621-46.942,17.906-56.47c3.035-0.791,4.133,0.921,3.099,3.444
		C862.365-71.126,855.363-53.451,848.361-35.775z"/>
	
		<path id="path656" inkscape:connector-curvature="0" sodipodi:nodetypes="ccccc" fill="#008C00" stroke="#286326" stroke-width="4.125" d="
		M878.764-74.803c4.187-7.878,14.538-9.863,18.193-9.618c-7.224,7.386-14.45,25.483-18.507,31.407
		c-5.841,10.064-22.886,17.205-33.112,23.131C856.783-45.466,867.319-59.22,878.764-74.803z"/>
	<path id="path692" inkscape:connector-curvature="0" fill="#009400" stroke="#000000" d="M664.422,29.364
		c0,0-5.195,0.923-5.31,0.923c-0.116,0-4.04,2.54-4.04,2.54s-0.808,4.962-0.808,5.077c0,0.116,0.924,5.658,0.924,5.658l2.424,3.347
		l6.348,2.19L664.422,29.364z"/>
	
		<path id="path655" inkscape:connector-curvature="0" sodipodi:nodetypes="cccc" fill="#008D00" stroke="#286326" stroke-width="4.125" d="
		M845.264-29.92c0.687-0.687,13.467-60.938,34.777-68.077c3.442,4.478,1.781,14.207,0.405,19.372
		C873.905-56.13,858.004-40.708,845.264-29.92z"/>
	<g id="g663" transform="matrix(-0.804325,-0.594186,-0.594186,0.804325,1685.2,-40.01024)">
		
			<path id="path664" sodipodi:rx="7.234406" sodipodi:ry="7.234406" sodipodi:cy="390.34146" sodipodi:type="arc" sodipodi:cx="612.08899" fill="#6D390B" d="
			M675.807,419.617c-0.513,2.241-3.134,3.433-5.856,2.66s-4.513-3.219-3.999-5.459c0.513-2.244,3.134-3.433,5.857-2.661
			C674.529,414.928,676.319,417.375,675.807,419.617z"/>
		
			<rect id="rect665" x="671.764" y="425.954" transform="matrix(0.7553 -0.6553 0.6553 0.7553 -112.0422 548.0367)" fill="#6D390B" width="12.381" height="-3.759"/>
	</g>
	<g id="g666" transform="matrix(1.003739,0.372061,-0.360902,1.034774,410.1987,-647.8094)">
		
			<path id="path667" sodipodi:rx="7.234406" sodipodi:ry="7.234406" sodipodi:cy="390.34146" sodipodi:type="arc" sodipodi:cx="612.08899" fill="#6D390B" d="
			M565.733,381.667c-0.512,2.243-3.135,3.434-5.856,2.66c-2.723-0.773-4.512-3.217-4-5.46c0.514-2.244,3.135-3.434,5.858-2.661
			C564.456,376.98,566.247,379.423,565.733,381.667z"/>
		<polygon id="rect668" fill="#6D390B" points="564.436,380.649 573.789,388.762 571.325,391.6 561.972,383.489 		"/>
	</g>
	<g id="g669" transform="matrix(-0.834255,0.670776,-0.703141,-0.840595,1699.062,-80.20277)">
		
			<path id="path670" sodipodi:rx="7.234406" sodipodi:ry="7.234406" sodipodi:cy="390.34146" sodipodi:type="arc" sodipodi:cx="612.08899" fill="#6D390B" d="
			M637.118,443.644c-0.513,2.243-3.135,3.434-5.857,2.66c-2.72-0.773-4.51-3.219-3.997-5.459c0.511-2.245,3.134-3.435,5.855-2.661
			C635.842,438.957,637.633,441.401,637.118,443.644z"/>
		<polygon id="rect671" fill="#6D390B" points="635.822,442.626 645.173,450.74 642.71,453.576 633.358,445.464 		"/>
	</g>
	
		<path id="path682" inkscape:connector-curvature="0" sodipodi:nodetypes="ccccc" fill="#008C00" stroke="#286326" stroke-width="3.3559" d="
		M836-11.966c13.092-7.094,4.888,2.859,4.073,8.311c-3.867,13.446-7.485,13.534-12.035,15.826
		c-6.782,6.188-28.52,3.185-38.624,5.737C802.076,8.713,823.338-2.772,836-11.966L836-11.966z"/>
	
		<path id="path673" inkscape:connector-curvature="0" sodipodi:nodetypes="ccccc" fill="#008C00" stroke="#286326" stroke-width="3.3559" d="
		M816.397-15.084c5.468-4.337,6.366-13.916,6-17.237c-4.955,7.078-17.635,14.855-21.699,18.947
		c-6.958,5.989-11.23,22.016-14.975,31.738C796.372,6.899,805.749-3.62,816.397-15.084z"/>
	
		<path id="path675" inkscape:connector-curvature="0" sodipodi:nodetypes="ccccc" fill="#008C00" stroke="#286326" stroke-width="4.125" d="
		M748.318,39.942c8.563-2.512,23.156,3.814,25.539,6.597c-10.333-0.005-27.072,7.171-34.146,8.41
		c-11.281,2.857-42.57-14.795-53.77-17.316C704.64,36.692,729.177,42.653,748.318,39.942z"/>
	
		<path id="path759" inkscape:connector-curvature="0" sodipodi:nodetypes="cccccc" fill="#00602B" stroke="#004500" stroke-width="2.5" d="
		M683.142,38.122c7.312,5.255,17.656,12.276,24.965,17.531c1.504,1.279-5.068,2.625-7.476,1.448
		c-7.721-5.299-11.781-8.771-19.499-14.071c-1.471-0.821-2.942-1.642-4.416-2.466C679.866,40.338,679.991,38.348,683.142,38.122z"/>
	
		<path id="path674" inkscape:connector-curvature="0" sodipodi:nodetypes="cccc" fill="#008C00" stroke="#286326" stroke-width="3.9395" d="
		M784.633,17.917c0.879-0.331,35.742-47.395,57.413-45.45c1.305,5.165-3.969,12.919-7.208,16.846
		C820.255,6.212,800.138,13.462,784.633,17.917z"/>
	<g id="g676" transform="matrix(0.709974,0.80116,-0.805943,0.742606,688.2635,-730.6158)">
		
			<path id="path677" sodipodi:rx="7.234406" sodipodi:ry="7.234406" sodipodi:cy="390.34146" sodipodi:type="arc" sodipodi:cx="612.08899" fill="#6D390B" d="
			M567.891,386.001c-0.514,2.242-3.135,3.432-5.855,2.66c-2.723-0.775-4.511-3.219-3.999-5.463c0.512-2.241,3.135-3.432,5.855-2.657
			C566.614,381.315,568.405,383.759,567.891,386.001z"/>
		<polygon id="rect678" fill="#6D390B" points="566.595,384.983 575.946,393.097 573.484,395.934 564.132,387.821 		"/>
	</g>
	<g id="g679" transform="matrix(-1.059519,0.152771,-0.177403,-1.081451,1548.507,405.7483)">
		
			<path id="path680" sodipodi:rx="7.234406" sodipodi:ry="7.234406" sodipodi:cy="390.34146" sodipodi:type="arc" sodipodi:cx="612.08899" fill="#6D390B" d="
			M643.071,438c-0.513,2.24-3.136,3.433-5.857,2.659c-2.72-0.773-4.511-3.219-3.997-5.463c0.51-2.24,3.133-3.433,5.855-2.659
			S643.582,435.756,643.071,438z"/>
		<polygon id="rect681" fill="#6D390B" points="641.773,436.979 651.127,445.095 648.662,447.934 639.311,439.818 		"/>
	</g>
	
		<path id="path660" inkscape:connector-curvature="0" sodipodi:nodetypes="ccccc" fill="#DC0000" stroke="#000000" stroke-width="1.8674" d="
		M493.718-140.627c1.02-1.524,3.374-2.526,6.307-0.882c2.933,1.642,4.173,4.521,3.152,6.045c-1.021,1.524-4.319,1.987-7.253,0.342
		C492.992-136.762,492.695-139.103,493.718-140.627z"/>
	
		<path id="path684" inkscape:connector-curvature="0" sodipodi:nodetypes="ccccc" fill="#008C00" stroke="#286326" stroke-width="3.3559" d="
		M742.343,33.653c14.397-3.807,13.541-10.74,20.265-16.802c-15.569-2.278-27.991,3.231-34.643,6.891
		c-10.508,6.777-13.226,14.135-22.331,19.201C721.155,40.957,728.15,38.73,742.343,33.653L742.343,33.653z"/>
	
		<path id="path685" inkscape:connector-curvature="0" sodipodi:nodetypes="cccc" fill="#008C00" stroke="#286326" stroke-width="3.9395" d="
		M695.392,37.865c41.18,3.107,34.618-13.61,79.744-13.198c-0.666,5.285-9.285,11.915-13.728,14.397
		C741.674,49.5,709.247,54.387,695.392,37.865L695.392,37.865z"/>
	<path id="path693" inkscape:connector-curvature="0" fill="#D40000" stroke="#000000" d="M674.465,29.248l0.116,19.393l5.309-2.079
		c0,0,2.193-3.463,2.193-3.694c0-0.229,0.923-4.733,0.923-4.848s-0.463-5.54-0.463-5.54l-4.039-2.655L674.465,29.248z"/>
	<polygon id="rect656" fill="#6D390B" points="503.037,-150.81 496.447,-158.051 498.689,-159.949 505.279,-152.709 	"/>
	
		<path id="path663" inkscape:connector-curvature="0" sodipodi:nodetypes="ccccc" fill="#DC0000" stroke="#000000" stroke-width="2.2073" d="
		M494.747-146.353c1.118-1.944,3.695-3.223,6.905-1.125c3.211,2.097,4.568,5.77,3.45,7.716c-1.117,1.945-4.728,2.535-7.939,0.437
		C493.954-141.421,493.629-144.406,494.747-146.353L494.747-146.353z"/>
	
		<path id="path658" inkscape:connector-curvature="0" sodipodi:nodetypes="ccccc" fill="#DC0000" stroke="#000000" stroke-width="2.0065" d="
		M512.886-154.472c1.876,0.077,3.913,1.738,3.806,5.513c-0.105,3.774-2.144,6.659-4.024,6.583c-1.879-0.078-3.869-2.958-3.763-6.735
		C509.011-152.883,511.007-154.546,512.886-154.472z"/>
	
		<path id="path661" inkscape:connector-curvature="0" sodipodi:nodetypes="ccccc" fill="#DC0000" stroke="#000000" stroke-width="2.1989" d="
		M503.654-152.963c2.127-0.559,4.9,0.386,5.897,4.131c1,3.744-0.431,7.268-2.561,7.825c-2.128,0.557-5.211-1.599-6.211-5.346
		C499.782-150.096,501.526-152.406,503.654-152.963z"/>
	
		<path id="path665" inkscape:connector-curvature="0" sodipodi:nodetypes="cccc" fill="#008D00" stroke="#000000" stroke-width="2.5" stroke-linecap="round" stroke-linejoin="round" d="
		M556.694-92.913c-6.421-16.323-23.94-43.421-41.788-30.362c-19.806,17.087,9.033,43.965,33.628,42.441
		C551.254-84.859,553.974-88.886,556.694-92.913L556.694-92.913z"/>
	
		<path id="path659" inkscape:connector-curvature="0" sodipodi:nodetypes="ccccc" fill="#DC0000" stroke="#000000" stroke-width="2.6168" d="
		M505.729-140.764c3.43-2.306,8.931-2.359,13.018,3.632c4.086,5.993,3.719,13.104,0.29,15.41c-3.43,2.308-10.233,0.409-14.319-5.584
		C500.632-133.297,502.298-138.455,505.729-140.764z"/>
	
		<path id="path662" inkscape:connector-curvature="0" sodipodi:nodetypes="ccccc" fill="#DC0000" stroke="#000000" stroke-width="1.8803" d="
		M493.048-168.025c1.564-1.052,4.073-1.076,5.937,1.657c1.862,2.732,1.695,5.975,0.132,7.027c-1.564,1.051-4.667,0.185-6.53-2.548
		C490.725-164.62,491.483-166.972,493.048-168.025z"/>
	
		<path id="path666" inkscape:connector-curvature="0" sodipodi:nodetypes="cccc" fill="#008D00" stroke="#000000" stroke-width="2.6276" d="
		M611.215-73.49c-8.066-14.35-30.081-32.3-52.505-20.818c-26.516,18.613,10.697,46.489,48.781,32.744
		C610.908-65.105,607.797-69.949,611.215-73.49z"/>
	
		<path id="path668" inkscape:connector-curvature="0" sodipodi:nodetypes="cccc" fill="#008D00" stroke="#000000" stroke-width="2.6276" d="
		M685.978-65.001c-8.066-14.353-51.302-30.669-70.135-16.902c-23.578,26.448,11.024,44.858,57.596,31.766
		C676.855-53.678,682.559-61.462,685.978-65.001z"/>
	
		<path id="path669" inkscape:connector-curvature="0" fill="none" stroke="#000000" stroke-width="2.5" stroke-linecap="round" stroke-linejoin="round" d="
		M518.061-118.611c0.231,0,4.848,5.769,4.848,5.769l-0.231-8.08"/>
	
		<path id="path671" inkscape:connector-curvature="0" fill="none" stroke="#000000" stroke-width="2.5" stroke-linecap="round" stroke-linejoin="round" d="
		M526.142-107.3l4.848,4.848"/>
	
		<path id="path672" inkscape:connector-curvature="0" fill="none" stroke="#000000" stroke-width="2.5" stroke-linecap="round" stroke-linejoin="round" d="
		M543.225-110.534l0.461,5.542l3-0.231"/>
	
		<path id="path676" inkscape:connector-curvature="0" fill="none" stroke="#000000" stroke-width="2.5" stroke-linecap="round" stroke-linejoin="round" d="
		M543.225-92.066c-1.155-0.692-5.08-3.921-5.08-3.921"/>
	
		<path id="path678" inkscape:connector-curvature="0" fill="none" stroke="#000000" stroke-width="2.5" stroke-linecap="round" stroke-linejoin="round" d="
		M531.913-91.601l-6.464-2.079"/>
	<path id="path679" inkscape:connector-curvature="0" fill="none" stroke="#000000" stroke-width="2.5" d="M519.678-103.838
		l-6.234-2.079"/>
	
		<path id="path681" inkscape:connector-curvature="0" fill="none" stroke="#000000" stroke-width="2.5" stroke-linecap="round" stroke-linejoin="round" d="
		M507.904-107.532h-5.31"/>
	
		<path id="path683" inkscape:connector-curvature="0" fill="none" stroke="#000000" stroke-linecap="round" stroke-linejoin="round" d="
		M532.836-125.076v-6.925"/>
	
		<path id="path686" inkscape:connector-curvature="0" fill="none" stroke="#000000" stroke-width="2.5" stroke-linecap="round" stroke-linejoin="round" d="
		M523.602-87.678c-0.693,0-9.695-0.46-9.695-0.46"/>
	
		<path id="path687" inkscape:connector-curvature="0" fill="none" stroke="#000000" stroke-width="2.5" stroke-linecap="round" stroke-linejoin="round" d="
		M539.762-81.445l-6.927,2.306"/>
	
		<path id="path688" inkscape:connector-curvature="0" fill="none" stroke="#000000" stroke-width="2.5" stroke-linecap="round" stroke-linejoin="round" d="
		M550.15-106.148c0.23-0.229,5.771-2.998,5.771-2.998"/>
	
		<path id="path689" inkscape:connector-curvature="0" fill="none" stroke="#000000" stroke-width="2.5" stroke-linecap="round" stroke-linejoin="round" d="
		M534.451-113.997c0-0.229-1.847-7.617-1.847-7.617"/>
	
		<path id="path694" inkscape:connector-curvature="0" sodipodi:nodetypes="ccccccccc" fill="none" stroke="#000000" stroke-width="2.5" d="
		M663.862,29.343c-5.186,0.608-8.139,0.93-9.134,4.682c-0.554,2.549-0.111,5.878,0.331,8.737c0.924,4.786,4.145,5.461,8.971,6.396
		h8.305c3.495,0,9.158-2.269,10.081-6.592c0.634-2.202,0.384-4.966,0.384-6.997c-0.46-5.061-3.9-5.861-8.774-6.38L663.862,29.343z"
		/>
	<path id="path695" inkscape:connector-curvature="0" sodipodi:nodetypes="cc" fill="none" stroke="#000000" stroke-width="2.5" d="
		M664.431,29.35l-0.164,19.261"/>
	<path id="path696" inkscape:connector-curvature="0" sodipodi:nodetypes="cc" fill="none" stroke="#000000" stroke-width="2.5" d="
		M674.551,29.35l-0.162,19.261"/>
	
		<path id="path699" inkscape:connector-curvature="0" sodipodi:nodetypes="ccccc" fill="#008C00" stroke="#286326" stroke-width="2.2464" d="
		M882.859-135.37c3.046-10.012-7.497-12.381-9.842-18.004c-4.816,9.421-3.127,19.013-2.276,24.06
		c1.975,8.188,9.234,13.851,10.437,20.769C883.308-118.873,882.965-125.204,882.859-135.37z"/>
	
		<path id="path700" inkscape:connector-curvature="0" sodipodi:nodetypes="ccccc" fill="#008C00" stroke="#286326" stroke-width="2.9852" d="
		M896.809-144.665c0.206-5.479,7.351-9.403,10.233-10.268c-1.786,10.655,1.423,15.659,0.574,20.028
		c-0.638,7.134-13.705,18.033-19.259,24.091C891.174-122.516,893.992-132.962,896.809-144.665z"/>
	
		<path id="path698" inkscape:connector-curvature="0" sodipodi:nodetypes="cccc" fill="#008C00" stroke="#286326" stroke-width="3.195" d="
		M881.755-101.957c0.349-0.657-5.438-50.931,9.06-61.362c3.798,2.231,5.043,9.426,5.322,13.372
		C896.939-132.619,897.508-123.814,881.755-101.957z"/>
	
		<path id="path712" inkscape:connector-curvature="0" sodipodi:nodetypes="ccccc" fill="#DC0000" stroke="#000000" stroke-width="2.7639" d="
		M590.98-103.153c4.149,1.316,7.802,5.841,5.558,13.194c-2.243,7.351-5.716,12.079-11.167,10.437
		c-7.087-1.64-8.357-8.209-6.116-15.56C581.499-102.436,586.831-104.467,590.98-103.153L590.98-103.153z"/>
	
		<path id="path717" inkscape:connector-curvature="0" sodipodi:nodetypes="ccccc" fill="#DC0000" stroke="#000000" stroke-width="3.1678" d="
		M597.992-110.666c1.317,0.925,2.105,2.866,0.497,5.063c-1.606,2.195-4.242,2.954-5.561,2.029c-1.318-0.925-1.578-3.571,0.028-5.767
		C594.564-111.538,596.672-111.593,597.992-110.666z"/>
	
		<path id="path718" inkscape:connector-curvature="0" sodipodi:nodetypes="ccccc" fill="#DC0000" stroke="#000000" stroke-width="3.1678" d="
		M587.088-112.921c1.574-0.333,3.532,0.414,4.043,3.086c0.513,2.674-0.729,5.119-2.303,5.454c-1.576,0.333-3.688-1.279-4.203-3.951
		C584.115-111.006,585.512-112.586,587.088-112.921z"/>
	
		<path id="path713" inkscape:connector-curvature="0" sodipodi:nodetypes="ccccc" fill="#DC0000" stroke="#000000" stroke-width="3.1678" d="
		M591.669-107.088c1.542,0.46,2.901,2.059,2.067,4.647c-0.834,2.591-3.097,4.143-4.639,3.678c-1.543-0.463-2.622-2.894-1.789-5.484
		C588.142-106.835,590.126-107.552,591.669-107.088L591.669-107.088z"/>
	
		<path id="path714" inkscape:connector-curvature="0" sodipodi:nodetypes="ccccc" fill="#DC0000" stroke="#000000" stroke-width="2.5172" d="
		M593.9-116.354c1.286,0.349,2.422,1.557,1.724,3.516c-0.695,1.961-2.584,3.134-3.87,2.783c-1.288-0.349-2.188-2.188-1.493-4.15
		C590.957-116.162,592.613-116.705,593.9-116.354L593.9-116.354z"/>
	
		<path id="path715" inkscape:connector-curvature="0" sodipodi:nodetypes="ccccc" fill="#DC0000" stroke="#000000" stroke-width="3.1704" d="
		M600.661-104.557c1.409,0.967,2.196,2.81,0.348,4.656c-1.847,1.848-4.766,2.288-6.174,1.318c-1.409-0.967-1.59-3.4,0.258-5.251
		C596.938-105.679,599.253-105.526,600.661-104.557L600.661-104.557z"/>
	
		<path id="path716" inkscape:connector-curvature="0" sodipodi:nodetypes="ccccc" fill="#DC0000" stroke="#000000" stroke-width="2.8772" d="
		M582.935-108.598c1.433-0.171,3.119,0.678,3.354,3.171c0.236,2.496-1.074,4.629-2.507,4.802c-1.435,0.171-3.185-1.485-3.422-3.979
		C580.125-107.094,581.501-108.427,582.935-108.598z"/>
	<path id="path701" inkscape:connector-curvature="0" fill="none" stroke="#000000" d="M561.461,21.053c0-0.076,0-0.155,0-0.229
		V21.053C561.461,20.977,561.461,20.898,561.461,21.053z"/>
	
		<path id="path750" inkscape:connector-curvature="0" sodipodi:nodetypes="cccc" fill="#FFFFFF" stroke="#000000" stroke-width="2.5" d="
		M747.638-75.486c8.082,4.309,5.311,14.39-0.46,17.082c-0.308-6.618-4.538-8.619-10.848-10.157
		C739.637-70.406,743.178-76.409,747.638-75.486z"/>
	
		<path id="path751" inkscape:connector-curvature="0" sodipodi:nodetypes="cccc" fill="#008D00" stroke="#000000" stroke-width="2.6276" d="
		M670.489-35.18c2.97-43.81,36.26-49.123,58.32-41.541c32.307,23.443-0.456,42.922-48.818,44.187
		C675.682-34.907,674.801-32.807,670.489-35.18z"/>
	
		<path id="path740" inkscape:connector-curvature="0" sodipodi:nodetypes="cccc" fill="#FFFFFF" stroke="#000000" stroke-width="2.657" d="
		M680.167-84.396c-10.335-0.419-13.453,9.664-9.4,14.924c4.115-5.533,9.38-5.093,16.395-3.197
		C685.013-75.946,685.034-82.916,680.167-84.396z"/>
	
		<path id="path739" inkscape:connector-curvature="0" sodipodi:nodetypes="cccc" fill="#FFFFFF" stroke="#000000" stroke-width="2.5" d="
		M685.557-71.288c-8.082,4.309-6.361,14.39-0.588,17.082c0.308-6.618,4.541-8.619,10.848-10.157
		C692.507-66.208,690.018-72.211,685.557-71.288L685.557-71.288z"/>
	
		<path id="path738" inkscape:connector-curvature="0" sodipodi:nodetypes="ccccccccccccccccc" fill="#F6AA00" stroke="#000000" stroke-width="2.5" stroke-linecap="round" stroke-linejoin="round" d="
		M748.709-74.656c0.095-3.606-2.75-6.72-6.086-7.226c-4.018-0.488-7.876,2.288-11.896-0.652c-0.49-0.324-9.826-8.383-12.507-12.137
		c-2.679-1.471-8.29-4.224-8.29-4.224c-3.31,4.309-5.639,9.271-10.418,12.111c-2.376,0.951-3.282,2.066-7.619,1.712
		c-4.48-2.096-9.414-3.171-11.977-0.895c2.181,4.316,1.587,9.777,0.669,13.934c1.615,0.923,3.393-0.183,5.334,0.254
		c5.989,0.157,4.467,6.588,6.696,9.359c6.305,1.714,9.509-1.307,10.43-6.447c1.665-2.625,6.761-2.963,10.386-3.955
		c3.925-0.756,8.829-2.003,12.426,0.014c2.972,1.575,4.964,3.484,6.465,6.694c0,0,4.73,0.421,9.463-0.463
		C741.947-69.419,741.365-74.589,748.709-74.656z"/>
	
		<path id="path741" inkscape:connector-curvature="0" sodipodi:nodetypes="cccc" fill="none" stroke="#000000" stroke-width="2.5" d="
		M706.899-94.372c0.076,3.463,0.153,6.925,0.231,10.388c1.231,3.768,9.618,3.384,10.617,0.923
		c-0.076-3.925-0.153-7.848-0.231-11.774"/>
	
		<path id="path742" inkscape:connector-curvature="0" sodipodi:nodetypes="cc" fill="none" stroke="#000000" stroke-width="2.5" stroke-linecap="round" d="
		M709.668-72.211c1.811-0.613,2.482-5.651,2.482-5.651"/>
	
		<path id="path743" inkscape:connector-curvature="0" sodipodi:nodetypes="cc" fill="none" stroke="#000000" stroke-width="2.5" stroke-linecap="round" d="
		M717.056-73.596l0.46-4.157"/>
	
		<path id="path744" inkscape:connector-curvature="0" sodipodi:nodetypes="cc" fill="none" stroke="#000000" stroke-width="2.5" stroke-linecap="round" d="
		M724.673-73.596l-0.692-4.388"/>
	
		<path id="path745" inkscape:connector-curvature="0" sodipodi:nodetypes="cc" fill="none" stroke="#000000" stroke-width="2.5" stroke-linecap="round" d="
		M704.589-76.828c-0.28,0.157-3.921-4.386-2.769-3.925"/>
	
		<path id="path746" inkscape:connector-curvature="0" sodipodi:nodetypes="cc" fill="none" stroke="#000000" stroke-width="2.5" stroke-linecap="round" d="
		M697.897-70.134c0.46,0-6.03-6.722-4.876-6.262"/>
	
		<path id="path747" inkscape:connector-curvature="0" sodipodi:nodetypes="cc" fill="none" stroke="#000000" stroke-width="2.5" stroke-linecap="round" d="
		M691.894-82.601c-0.169-0.513-0.463-3,0.694-2.54"/>
	
		<path id="path748" inkscape:connector-curvature="0" sodipodi:nodetypes="cc" fill="none" stroke="#000000" stroke-width="2.5" stroke-linecap="round" d="
		M706.361-84.144c-9.861,8.51-19.148,4.929-20.487,12.088"/>
	
		<path id="path749" inkscape:connector-curvature="0" sodipodi:nodetypes="cc" fill="none" stroke="#000000" stroke-width="2.5" stroke-linecap="round" d="
		M730.78-79.333c0.345-0.419,1.534-2.623,0.289-2.616"/>
	
		<path id="path752" inkscape:connector-curvature="0" fill="none" stroke="#000000" stroke-width="2.5" stroke-linecap="round" stroke-linejoin="round" d="
		M572.391-75.123c0.128-0.19,7.494-0.798,7.494-0.798l-6.832-4.319"/>
	
		<path id="path753" inkscape:connector-curvature="0" sodipodi:nodetypes="ccc" fill="none" stroke="#000000" stroke-width="2.5" stroke-linecap="round" stroke-linejoin="round" d="
		M617.275-67.765c0.128-0.19,7.494-0.798,7.494-0.798l-5.851-6.773"/>
	
		<path id="path754" inkscape:connector-curvature="0" sodipodi:nodetypes="ccc" fill="none" stroke="#000000" stroke-width="2.5" stroke-linecap="round" stroke-linejoin="round" d="
		M635.425-66.537c-0.361-1.173,7.741,0.18,7.494-0.8l-5.115-5.544"/>
	
		<path id="path755" inkscape:connector-curvature="0" fill="none" stroke="#000000" stroke-width="2.5" stroke-linecap="round" stroke-linejoin="round" d="
		M625.735-92.369c0.23,0,4.848,5.773,4.848,5.773l-0.232-8.082"/>
	
		<path id="path757" inkscape:connector-curvature="0" sodipodi:nodetypes="ccc" fill="none" stroke="#000000" stroke-width="2.5" stroke-linecap="round" stroke-linejoin="round" d="
		M764.75-53.842c0.176,0.146-0.042,8.23-0.042,8.23l5.302-5.75"/>
	
		<path id="path758" inkscape:connector-curvature="0" sodipodi:nodetypes="ccc" fill="none" stroke="#000000" stroke-width="2.5" stroke-linecap="round" stroke-linejoin="round" d="
		M705.576-55.931c0.16,0.169-0.891,7.485-0.891,7.485l7.906-4.194"/>
	
		<path id="path763" inkscape:connector-curvature="0" fill="none" stroke="#000000" stroke-width="2.5" stroke-linecap="round" stroke-linejoin="round" d="
		M567.015-93.424l4.848,4.848"/>
	
		<path id="path764" inkscape:connector-curvature="0" fill="none" stroke="#000000" stroke-width="2.5" stroke-linecap="round" stroke-linejoin="round" d="
		M558.184-85.349l4.848,4.848"/>
	
		<path id="path765" inkscape:connector-curvature="0" fill="none" stroke="#000000" stroke-width="2.5" stroke-linecap="round" stroke-linejoin="round" d="
		M591.256-72.782l6.829-0.608"/>
	
		<path id="path766" inkscape:connector-curvature="0" fill="none" stroke="#000000" stroke-width="2.5" stroke-linecap="round" stroke-linejoin="round" d="
		M580.402-66.03l6.839-0.486"/>
	
		<path id="path767" inkscape:connector-curvature="0" fill="none" stroke="#000000" stroke-width="2.5" stroke-linecap="round" stroke-linejoin="round" d="
		M629.841-81.565l4.847,4.846"/>
	
		<path id="path768" inkscape:connector-curvature="0" fill="none" stroke="#000000" stroke-width="2.5" stroke-linecap="round" stroke-linejoin="round" d="
		M650.025-79.041l4.848,4.846"/>
	
		<path id="path769" inkscape:connector-curvature="0" fill="none" stroke="#000000" stroke-width="2.5" stroke-linecap="round" stroke-linejoin="round" d="
		M612.432-87.873l4.847,4.848"/>
	
		<path id="path770" inkscape:connector-curvature="0" fill="none" stroke="#000000" stroke-width="2.5" stroke-linecap="round" stroke-linejoin="round" d="
		M561.465-103.264l4.848,4.848"/>
	
		<path id="path771" inkscape:connector-curvature="0" fill="none" stroke="#000000" stroke-width="2.5" stroke-linecap="round" stroke-linejoin="round" d="
		M615.641-44.252l4.485-5.186"/>
	
		<path id="path772" inkscape:connector-curvature="0" fill="none" stroke="#000000" stroke-width="2.5" stroke-linecap="round" stroke-linejoin="round" d="
		M638.347-39.964l4.485-5.184"/>
	
		<path id="path773" inkscape:connector-curvature="0" fill="none" stroke="#000000" stroke-width="2.5" stroke-linecap="round" stroke-linejoin="round" d="
		M551.139-66.472l6.828-0.611"/>
	
		<path id="path774" inkscape:connector-curvature="0" sodipodi:nodetypes="ccc" fill="none" stroke="#000000" stroke-width="2.663" stroke-linecap="round" stroke-linejoin="round" d="
		M564.064-71.339c-1.115,0.062,3.458-0.294,4.72,0.213l-6.743-4.827"/>
	
		<path id="path775" inkscape:connector-curvature="0" fill="none" stroke="#000000" stroke-width="2.5" stroke-linecap="round" stroke-linejoin="round" d="
		M572.585-56.886l6.829-0.608"/>
	
		<path id="path776" inkscape:connector-curvature="0" fill="none" stroke="#000000" stroke-width="2.5" stroke-linecap="round" stroke-linejoin="round" d="
		M653.571-63.507l6.84-0.486"/>
	
		<path id="path777" inkscape:connector-curvature="0" fill="none" stroke="#000000" stroke-width="2.5" stroke-linecap="round" stroke-linejoin="round" d="
		M641.965-53.919l6.839-0.488"/>
	
		<path id="path778" inkscape:connector-curvature="0" fill="none" stroke="#000000" stroke-width="2.5" stroke-linecap="round" stroke-linejoin="round" d="
		M650.209-89.087c0.23,0,4.848,5.769,4.848,5.769l-0.231-8.08"/>
	
		<path id="path780" inkscape:connector-curvature="0" fill="none" stroke="#000000" stroke-width="2.5" stroke-linecap="round" stroke-linejoin="round" d="
		M716.744-68.445l-4.846,4.848"/>
	
		<path id="path781" inkscape:connector-curvature="0" fill="none" stroke="#000000" stroke-width="2.5" stroke-linecap="round" stroke-linejoin="round" d="
		M732.64-63.146l-4.848,4.846"/>
	
		<path id="path782" inkscape:connector-curvature="0" fill="none" stroke="#000000" stroke-width="2.5" stroke-linecap="round" stroke-linejoin="round" d="
		M725.575-49.522l-4.848,4.848"/>
	
		<path id="path783" inkscape:connector-curvature="0" fill="none" stroke="#000000" stroke-width="2.5" stroke-linecap="round" stroke-linejoin="round" d="
		M782.595-48.259l-4.846,4.846"/>
	
		<path id="path784" inkscape:connector-curvature="0" fill="none" stroke="#000000" stroke-width="2.5" stroke-linecap="round" stroke-linejoin="round" d="
		M752.572-51.793l-4.846,4.848"/>
	
		<path id="path785" inkscape:connector-curvature="0" fill="none" stroke="#000000" stroke-width="2.5" stroke-linecap="round" stroke-linejoin="round" d="
		M782.094-80.808l-4.848,4.848"/>
	
		<path id="path786" inkscape:connector-curvature="0" fill="none" stroke="#000000" stroke-width="2.5" stroke-linecap="round" stroke-linejoin="round" d="
		M805.03-48.037l-6.824-0.648"/>
	
		<path id="path787" inkscape:connector-curvature="0" fill="none" stroke="#000000" stroke-width="2.5" stroke-linecap="round" stroke-linejoin="round" d="
		M747.712-32.826l0.331-6.847"/>
	
		<path id="path788" inkscape:connector-curvature="0" fill="none" stroke="#000000" stroke-width="2.5" stroke-linecap="round" stroke-linejoin="round" d="
		M769.346-63.826l3.488-5.903"/>
	
		<path id="path789" inkscape:connector-curvature="0" fill="none" stroke="#000000" stroke-width="2.5" stroke-linecap="round" stroke-linejoin="round" d="
		M780.194-57.266l3.488-5.905"/>
	
		<path id="path790" inkscape:connector-curvature="0" sodipodi:nodetypes="ccc" fill="none" stroke="#000000" stroke-width="2.5" stroke-linecap="round" stroke-linejoin="round" d="
		M789.227-38.488c-0.15,0.176-7.538-0.058-7.538-0.058l5.297,3.861"/>
	
		<path id="path791" inkscape:connector-curvature="0" sodipodi:nodetypes="ccc" fill="none" stroke="#000000" stroke-width="2.5" stroke-linecap="round" stroke-linejoin="round" d="
		M686.653-40.54c0.16,0.169-0.891,7.483-0.891,7.483l7.906-4.191"/>
	
		<path id="path792" inkscape:connector-curvature="0" sodipodi:nodetypes="ccc" fill="none" stroke="#000000" stroke-width="2.5" stroke-linecap="round" stroke-linejoin="round" d="
		M625.838-53.923c0.899-0.666,5.469-2.086,5.223-3.069l-4.863-1.76"/>
	
		<path id="path828" inkscape:connector-curvature="0" sodipodi:nodetypes="cccccscccccccccccccccccccccccccccccccccccccccccccccccccccccccccccccccccccccccccccccccccccccccccccc" fill="#9C4314" stroke="#000000" stroke-width="2.5" stroke-linejoin="round" stroke-opacity="0.7724" d="
		M831.705-100.095c3.201,2.489,8.602-25.803,7.777-34.655c0-0.585-1.004-19.356,2.924-32.767c2.484-4.515,2.572-38.343-1.152-47.238
		c2.968-0.25,6.56-1.21,7.004-4.836c-13.701,5.071-16.953-28.956-30.135-48.497c-12.872-19.598-28.847-31.022-45.443-42.914
		c1.295-3.327,3.211-6.448,5.746-9.568c-20.378,10.208-52.132-26.75-98.989-23.988c-10.562,1.051-15.537,1.69-18.238,8.119
		c-8.711,0.739-17.63,2.719-17.652,14.215c0.016,2.753,2.517,7.784,8.119,7.847c7.677,2.21,13.906,0.49,19.102,11.183
		c0.391,2.925,0.988,8.127,1.376,11.052c0,0-6.872-8.705-10.631-10.153c0.998-1.448-0.591-2.442,2.305-4.681
		c-3.516-2.034-9.811-0.379-9.811-0.379s-13.61-6.406-24.574-4.681c0-1.17-2.098-8.876-2.098-8.876
		c-1.94,5.429-6.222,5.136-6.85,10.289c-1.169-3.706-2.754-8.238-3.923-11.944c-3.848,5.254-2.732,10.921-4.096,16.382
		c-1.526,1.241-4.566,1.31-5.333-2.207c-0.39-4.291-0.918-4.72-0.895-9.838c-2.777,4.84-6.105,7.198-7.228,15.554
		c-1.17-3.12-1.789-6.103-2.96-9.222c0.148,10.868-9.226,17.39-18.105,25.021c-2.494,4.616,0.391,4.681,0.585,7.021
		c1.56,0.78,3.12,1.559,4.681,2.34c2.731-0.194,5.667-0.39,8.398-0.584c1.366,1.755,0.249,1.86,3.889,2.993
		c9.752,2.732,21.956-8.993,31.531,9.429c-4.41,3.669-8.819,12.305-7.435,13.905c1.755,0-3.524,2.483,3.61,0.208
		c-7.446,7.24-12.493,16.759-12.493,17.346c-0.827,2.032,3.001-0.275,2.201,3.419c1.047-2.771,1.771-0.231,1.771-0.231
		c-16.995,18.384-0.568,38.099-2.4,48.718c2.827,4.551,3.178-0.086,6.711-0.59c2.99,13.026,11.541,20.927,16.807,31.265
		c-2.719-0.834-8.122-1.13-11.047,0.109c0.249,4.901,4.681,9.562,8.191,13.85c-2.534,0.78-4.876,1.557-7.41,2.343
		c-5.267,2.729-8.767,5.595-12.472,9.687c-2.471,5.97,11.794,7.42,18.633,8.424c-0.621,2.142-1.494,4.839-0.253,7.194
		c10.757,1.036,23.186-2.144,23.186-2.727c0-0.594,2.695-2.105,2.695-2.105c1.449,2.898,4.634,3.756,6.046,3.342
		c2.033,0,5.188-8.096,3.74-14.3c3.902,4.677,7.571,12.125,11.473,16.809c1.18,1.24,2.704,0.328,3.682-0.504
		c3.315,5.267,7.892,10.534,11.209,15.796c1.753,2.01,1.376,1.27,3.75,1.418c2.17-0.703,4.018-0.992,5.151-5.198
		c0,0,0.719,0.652,1.742,2.972c2.621,1.862,4.469-2.616,5.917-4.066c0.828-1.994,4.055,0.391,4.055-0.777
		c1.17,0.78,1.938,4.208,3.111,4.989c1.79-0.664,3.569-4.601,3.706-8.776c1.776,3.662,2.327,3.356,3.692,4.342
		c1.17-0.985,1.538-4.802,2.709-5.776c-0.252-2.019,14.054,13.793,14.64,13.793c1.411,1.027,9.495,3.509,11.151,0.618
		c4.036,2.695,14.899,4.36,16.661,0.03c8.94,3.817,19.462-0.46,19.018-4.733c8.156,3.259,20.866,1.085,20.866,0.502
		c1.448-0.174,5.38-3.992,1.656-6.884c-27.109-18.921-67.457-50.248-82.982-57.79c0-5.586-4.228-25.732-8.778-31.282
		c-0.826-2.86,1.034-6.396,3.724-6.19c10.55,9.864,14.385,8.925,19.969,10.515c6.046,4.768,8.216,12.05,14.263,18.681
		c2.85,0.91,6.218,3.796,5.341,0.982c-3.773-9.469-8.334-18.634-19.629-30.947c5.85,2.926,15.435,10.675,21.905,16.29
		c4.314,7.11,5.526,12.773,9.426,21.743c2.829,1.794,5.716,8.405,5.302,2.926c-0.62-10.306-7.848-26.671-7.848-27.842
		c11.489,9.167,11.371,23.374,14.834,32.065c3.002,4.411,4.511,10.271,5.753,8.9c1.448-2.002-3.412-26.817-3.412-26.817
		c-0.78-3.12-1.17-6.655-1.95-9.775c8.552,4.922,11.542,23.706,15.544,46.206c0.012,3.588,1.471,7.513,1.277,9.851
		c1.834,2.269,3.946,8.526,3.854,4.793c0,0,0.005-36.607-2.477-45.017c-0.62-4.48,1.101-11.81,1.101-11.81
		c3.118,15.213,6.447,31.665,9.567,46.876c0,3.71,0,7.411,0,11.119c1.559,1.559,3.12,3.12,4.679,4.686
		c0.976-9.174,1.95-18.338,2.926-27.503c0,0-3.509-32.182-3.509-32.766c0-0.585,0-9.362,0-9.362
		c-0.074-3.297,2.958-2.665,4.957,1.071c0.391,7.996,0.368,14.337,0.756,22.334c1.367,9.161,2.315,15.848,3.06,27.499
		C829.315-122.28,829.681-99.704,831.705-100.095L831.705-100.095z"/>
	
		<path id="path793" inkscape:connector-curvature="0" sodipodi:nodetypes="ccc" fill="none" stroke="#000000" stroke-width="2.5" stroke-linecap="round" stroke-linejoin="round" d="
		M680.151-47.174c-0.442-1.032-0.756-5.806-1.767-5.794l-2.847,4.316"/>
	
		<path id="path794" inkscape:connector-curvature="0" sodipodi:nodetypes="cc" fill="none" stroke="#000000" stroke-width="2.5" stroke-linecap="round" stroke-linejoin="round" d="
		M765.705-73.228l-0.583,4.827"/>
	
		<path id="path795" inkscape:connector-curvature="0" sodipodi:nodetypes="ccc" fill="none" stroke="#000000" stroke-width="2.5" stroke-linecap="round" stroke-linejoin="round" d="
		M723.151-37.607c-1.113,0.139-5.787-0.886-6.06,0.088l3.359,3.937"/>
	<path id="path823" inkscape:connector-curvature="0" fill="none" stroke="#000000" d="M651.602-145.835c0,0.169,0,0.338,0,0.505
		V-145.835c0,0.169,0,0.338,0,0.505V-145.835c0,1.683,0,3.366,0,5.048c0,1.261,0,2.521,0,3.782c0.258,1.251,0.252,2.646,0.252,4.039
		c0.158,1.066,0.532,2.352,1.008,3.532c0.069,1.497,0.487,2.477,1.01,3.784c0.108,1.288,0.548,2.394,1.01,3.534
		c0.109,1.295,0.527,1.973,0.756,3.026c0.365,1.212,0.808,2.001,1.262,2.776c0.328,0.328,0.453,0.657,0.756,0.759"/>
	<path id="path825" inkscape:connector-curvature="0" fill="none" stroke="#000000" d="M631.921-114.799
		c0-0.409-0.064-1.647,0.505-2.524c0.893-1.27,1.61-2.056,2.775-3.28c1.379-0.877,2.362-1.918,3.533-3.028
		c1.255-0.803,1.888-1.51,3.027-2.271c0.7-0.712,1.508-1.069,2.271-1.513c0.869-0.428,1.5-1.057,2.775-1.261
		c0.77-0.386,2.366-0.252,3.533-0.252c1.204,0,1.625-0.234,2.776-0.252"/>
	
		<path id="path829" inkscape:connector-curvature="0" sodipodi:nodetypes="cc" fill="none" stroke="#000000" stroke-width="2.5" stroke-linecap="round" stroke-opacity="0.7724" d="
		M815.333-202.448c3.9,2.827,8.191,8.973,9.946,20.088"/>
	
		<path id="path830" inkscape:connector-curvature="0" sodipodi:nodetypes="cc" fill="none" stroke="#000000" stroke-width="2.5" stroke-linecap="round" stroke-opacity="0.7724" d="
		M793.402-198.659c5.658,5.07,8.85,10.585,13.069,23.013"/>
	
		<path id="path831" inkscape:connector-curvature="0" sodipodi:nodetypes="cc" fill="#00C600" stroke="#000000" stroke-width="2.5" stroke-linecap="round" stroke-opacity="0.7724" d="
		M779.739-192.598c3.444,3.932,5.526,8.06,7.414,12.968"/>
	
		<path id="path832" inkscape:connector-curvature="0" sodipodi:nodetypes="cc" fill="#00C600" stroke="#000000" stroke-width="2.5" stroke-linecap="round" stroke-opacity="0.7724" d="
		M756.337-205.471c4.483,5.169,11.7,13.068,15.405,21.063"/>
	
		<path id="path833" inkscape:connector-curvature="0" sodipodi:nodetypes="ccccc" fill="none" stroke="#000000" stroke-width="2.5" stroke-opacity="0.7724" d="
		M661.079-337.459c0.327,22.48,33.232,16.998,36.003,38.121c6.299,23.051,3.673,37.942-5.538,45.263
		c-5.232,5.385-1.233,13.756,0.326,18.055c8.552,21.677,21.466,25.167,27.019,43.876"/>
	
		<path id="path834" inkscape:connector-curvature="0" sodipodi:nodetypes="cccc" fill="none" stroke="#000000" stroke-width="2.5" stroke-linecap="round" stroke-opacity="0.7724" d="
		M648.775-322.108c0-0.431,0.771-1.185,1.536-1.535c3.275-1.068,5.289-1.13,8.638-1.344c2.88,0,5.566,0.127,8.445,0.576"/>
	
		<path id="path835" inkscape:connector-curvature="0" sodipodi:nodetypes="cc" fill="none" stroke="#000000" stroke-width="2.5" stroke-opacity="0.7724" d="
		M691.381-115.75l11.438,18.611"/>
	
		<path id="path836" inkscape:connector-curvature="0" sodipodi:nodetypes="cc" fill="none" stroke="#000000" stroke-width="2.5" stroke-opacity="0.7724" d="
		M727.84-143.438l61.251,46.905"/>
	
		<path id="path837" inkscape:connector-curvature="0" sodipodi:nodetypes="cc" fill="none" stroke="#000000" stroke-width="2.5" stroke-opacity="0.7724" d="
		M726.209-130.572L770.97-91.28"/>
	
		<path id="path838" inkscape:connector-curvature="0" sodipodi:nodetypes="ccc" fill="none" stroke="#000000" stroke-width="2.5" stroke-opacity="0.7724" d="
		M641.987-179.314c5.895,11.704,22.553,27.248,32.548,29.727c0.34-7.516-0.086-10.42-1.281-15.632"/>
	
		<path id="path839" inkscape:connector-curvature="0" sodipodi:nodetypes="ccc" fill="none" stroke="#000000" stroke-width="2.5" stroke-opacity="0.7724" d="
		M660.951-185.978c5.895,11.704,11.277,24.175,26.909,31.266c1.624-11.362-1.878-26.824-10.506-42.542"/>
	
		<path id="path840" inkscape:connector-curvature="0" sodipodi:nodetypes="ccc" fill="none" stroke="#000000" stroke-width="2.5" stroke-opacity="0.7724" d="
		M663.709-201.672c5.383,3.246,10.249,4.698,13.839,5.126c1.624-11.362,3.044-23.384-6.225-39.652"/>
	
		<path id="path841" inkscape:connector-curvature="0" sodipodi:nodetypes="ccc" fill="none" stroke="#000000" stroke-width="2.5" stroke-opacity="0.7724" d="
		M643.011-194.947c7.947,8.628,14.353,9.055,17.94,9.482c2.65-7.774,3.76-24.263,0.513-42.032"/>
	
		<path id="path842" inkscape:connector-curvature="0" sodipodi:nodetypes="ccc" fill="none" stroke="#000000" stroke-width="2.5" stroke-opacity="0.7724" d="
		M622.43-188.024c7.911,10.238,26.147,29.668,35.961,36.73c0.34-1.628,0.847-2.386,0.717-7.595"/>
	
		<path id="path843" inkscape:connector-curvature="0" sodipodi:nodetypes="ccc" fill="none" stroke="#000000" stroke-width="2.5" stroke-opacity="0.7724" d="
		M757.522-300.464c8.473,9.769,41.173,42.645,47.647,58.032c11.175,25.15,31.78,29.933,36.915,27.116"/>
	
		<path id="path844" inkscape:connector-curvature="0" sodipodi:nodetypes="ccc" fill="none" stroke="#000000" stroke-width="2.5" stroke-opacity="0.7724" d="
		M701.496-164.559c2.942,12.034,8.286,33.926,15.986,37.384c1.325-1.293,2.447-3.687,2.315-8.898"/>
	
		<path id="path845" inkscape:connector-curvature="0" sodipodi:nodetypes="ccc" fill="none" stroke="#000000" stroke-width="2.5" stroke-opacity="0.7724" d="
		M657.063-232.754c3.457,3.522,4.24,6.728,7.829,7.156c4.372-3.576,12.072-23.506,9.306-38.217"/>
	
		<path id="path846" inkscape:connector-curvature="0" sodipodi:nodetypes="ccc" fill="none" stroke="#000000" stroke-width="2.5" stroke-opacity="0.7724" d="
		M638.925-233.304c1.626,7.918,3.142,14.605,8.746,14.666c9.318-7.789,12.07-25.224,9.303-39.936"/>
	
		<path id="path847" inkscape:connector-curvature="0" sodipodi:nodetypes="cc" fill="none" stroke="#000000" stroke-width="2.5" stroke-opacity="0.7724" d="
		M635.313-191.413l-4.196-9.221"/>
	
		<path id="path848" inkscape:connector-curvature="0" sodipodi:nodetypes="cc" fill="none" stroke="#000000" stroke-width="2.5" stroke-opacity="0.7724" d="
		M725.848-116.793l28.086,25.513"/>
	
		<path id="path849" inkscape:connector-curvature="0" sodipodi:nodetypes="cc" fill="none" stroke="#000000" stroke-width="2.5" stroke-opacity="0.7724" d="
		M712.474-127.056l8.667,24.398"/>
	
		<path id="path850" inkscape:connector-curvature="0" sodipodi:nodetypes="ccc" fill="none" stroke="#000000" stroke-width="2.5" stroke-opacity="0.7724" d="
		M674.278-149.401c5.894,11.704,18.452,28.601,28.446,31.079c0.342-1.619,0.153-3.032,0.023-8.237"/>
	
		<path id="path851" inkscape:connector-curvature="0" sodipodi:nodetypes="ccc" fill="none" stroke="#000000" stroke-width="2.5" stroke-opacity="0.7724" d="
		M659.072-151.745c5.894,11.696,23.216,30.765,33.211,36.354c0.34-1.621,1.8-1.931,1.67-7.138"/>
	
		<path id="path852" inkscape:connector-curvature="0" sodipodi:nodetypes="cc" fill="none" stroke="#000000" stroke-width="2.5" stroke-opacity="0.7724" d="
		M702.213-118.813l12.514,20.751"/>
	
		<path id="path853" inkscape:connector-curvature="0" sodipodi:nodetypes="ccc" fill="none" stroke="#000000" stroke-width="2.5" stroke-opacity="0.7724" d="
		M687.24-170.893c5.38,3.246,11.029,5.967,14.619,6.395c0.548-12.653-3.863-33.058-12.919-48.681"/>
	
		<path id="path854" inkscape:connector-curvature="0" sodipodi:nodetypes="ccc" fill="none" stroke="#000000" stroke-width="2.5" stroke-opacity="0.7724" d="
		M624.956-237.242c-1.598,5.983-1.375,12.524,4.227,12.586c15.552-6.714,6.267-13.402,19.623-36.067"/>
	
		<path id="path855" inkscape:connector-curvature="0" sodipodi:nodetypes="ccc" fill="none" stroke="#000000" stroke-width="2.5" stroke-opacity="0.7724" d="
		M645.474-278.407c5.895,11.703,7.623,19.66,16.807,22.667c1.838-0.829,6.411-21.515-9.095-38.308"/>
	
		<path id="path856" inkscape:connector-curvature="0" sodipodi:nodetypes="ccc" fill="none" stroke="#000000" stroke-width="2.5" stroke-opacity="0.7724" d="
		M664.371-268.653c3.028,3.522,7.464,4.364,11.054,4.146c3.509-7.014-3.997-26.885-13.88-37.161"/>
	
		<path id="path857" inkscape:connector-curvature="0" sodipodi:nodetypes="ccc" fill="none" stroke="#000000" stroke-width="2.5" stroke-opacity="0.7724" d="
		M751.232-284.857c7.4,10.414,39.864,46.766,53.777,58.371c3.127-0.399,7.753,3.485,3.426-9.655"/>
	
		<path id="path858" inkscape:connector-curvature="0" sodipodi:nodetypes="ccsc" fill="none" stroke="#000000" stroke-width="2.5" stroke-opacity="0.7724" d="
		M747.578-261.857c7.397,10.414,20.947,28.045,34.863,39.65c3.497,1.305,6.881,0.885,7.994-0.023
		c1.194-1.151,0.106-9.404,0.414-17.8"/>
	
		<path id="path859" inkscape:connector-curvature="0" sodipodi:nodetypes="ccsc" fill="none" stroke="#000000" stroke-width="2.5" stroke-opacity="0.7724" d="
		M738.762-248.744c8.475,9.338,19.661,20.09,33.362,32.555c3.495,1.306,6.518,1.357,6.918-0.023c0.333-1.365,0.967-1.02,0.199-9.415
		"/>
	
		<path id="path860" inkscape:connector-curvature="0" sodipodi:nodetypes="ccsc" fill="none" stroke="#000000" stroke-width="2.5" stroke-opacity="0.7724" d="
		M726.942-231.977c8.473,9.339,16.219,16.222,23.899,17.938c3.713,0.445,5.662,0.496,6.06-0.884
		c0.333-1.365,0.106-7.898-0.016-15.434"/>
	
		<path id="path861" inkscape:connector-curvature="0" sodipodi:nodetypes="ccsc" fill="none" stroke="#000000" stroke-width="2.5" stroke-opacity="0.7724" d="
		M714.903-219.51c8.477,9.339,8.484,13.211,16.164,14.928c3.713,0.446,6.463-0.043,7.134-1.313c1.194-2.654,1.612-5.534,1.49-13.07"
		/>
	
		<path id="path862" inkscape:connector-curvature="0" sodipodi:nodetypes="csc" fill="none" stroke="#000000" stroke-width="2.5" stroke-linecap="round" stroke-opacity="0.7724" d="
		M711.466-280.558c8.535,1.554,9.243-5.826,8.549-11.105c-0.84-6.618-5.519-9.515-11.064-8.124"/>
	
		<path id="path863" inkscape:connector-curvature="0" sodipodi:nodetypes="csc" fill="none" stroke="#000000" stroke-width="2.5" stroke-linecap="round" stroke-opacity="0.7724" d="
		M706.735-251.323c4.022,1.552,9.077,1.454,10.916-3.153c1.485-3.504,0.928-12.095-4.615-10.704"/>
	
		<path id="path864" inkscape:connector-curvature="0" sodipodi:nodetypes="csc" fill="none" stroke="#000000" stroke-width="2.5" stroke-linecap="round" stroke-opacity="0.7724" d="
		M712.754-265.296c7.677,0.479,8.394-3.026,8.119-7.45c-0.303-5.158-3.798-9.085-9.343-7.695"/>
	
		<path id="path869" inkscape:connector-curvature="0" sodipodi:nodetypes="cc" fill="none" stroke="#000000" stroke-width="2.5" stroke-opacity="0.7724" d="
		M720.221-285.351c11.209-6.747,43.5,20.31,18.94,28.925"/>
	
		<path id="path870" inkscape:connector-curvature="0" sodipodi:nodetypes="cc" fill="none" stroke="#000000" stroke-width="2.5" stroke-opacity="0.7724" d="
		M717.845-266.18c11.209-6.747,35.895,15.327,10.865,23.924"/>
	
		<path id="path871" inkscape:connector-curvature="0" sodipodi:nodetypes="cc" fill="none" stroke="#000000" stroke-width="2.5" stroke-opacity="0.7724" d="
		M713.638-250.953c12.516,0.435,26.917,20.522,2.38,22.977"/>
	
		<path id="path872" inkscape:connector-curvature="0" sodipodi:nodetypes="csc" fill="none" stroke="#000000" stroke-width="2.5" stroke-linecap="round" stroke-opacity="0.7724" d="
		M698.901-240.222c4.02,1.552,6.345,2.559,9.935-0.54c1.416-1.301,3.285-7.261-2.001-10.568"/>
	
		<path id="path873" inkscape:connector-curvature="0" sodipodi:nodetypes="cc" fill="none" stroke="#000000" stroke-width="2.5" stroke-opacity="0.7724" d="
		M594.11-264.498c4.233-5.462,14.578-8.946,18.117-1.713"/>
	
		<path id="path874" inkscape:connector-curvature="0" sodipodi:nodetypes="cc" fill="none" stroke="#000000" stroke-width="2.5" stroke-opacity="0.7724" d="
		M706.446-239.251c7.289,2.395,18.889,22.678-0.592,24.747"/>
	
		<path id="path875" inkscape:connector-curvature="0" sodipodi:nodetypes="csc" fill="none" stroke="#000000" stroke-width="2.5" stroke-linecap="round" stroke-opacity="0.7724" d="
		M697.147-330.996c8.408,1.59,12.655,15.175,19.356,16.223c12.255,1.827-1.582-14.183-4.235-15.984"/>
	
		<path id="path876" inkscape:connector-curvature="0" sodipodi:nodetypes="cc" fill="none" stroke="#000000" stroke-width="2.5" stroke-opacity="0.7724" d="
		M573.184-272.927c3.772,0.153,7.311-0.539,9.697-5.002"/>
	
		<path id="path883" inkscape:connector-curvature="0" sodipodi:nodetypes="ccc" fill="none" stroke="#000000" stroke-width="2.5" stroke-opacity="0.7724" d="
		M610.56-233.988c2.094,3.906,7.478,2.345,11.929-0.364c6.087-3.48,0.956-15.711,15.466-26.139"/>
	
		<path id="path884" inkscape:connector-curvature="0" sodipodi:nodetypes="ccc" fill="none" stroke="#000000" stroke-width="2.5" stroke-opacity="0.7724" d="
		M618.274-182.483c7.91,10.237,22.915,25.511,32.266,33.721c0.341-1.62,1.859-2.447,1.728-7.66"/>
	
		<path id="path885" inkscape:connector-curvature="0" sodipodi:nodetypes="cc" fill="none" stroke="#000000" stroke-width="2.5" stroke-opacity="0.7724" d="
		M650.236-149.454l17.989,24.993"/>
	
		<path id="path886" inkscape:connector-curvature="0" sodipodi:nodetypes="ccc" fill="none" stroke="#000000" stroke-width="2.5" stroke-opacity="0.7724" d="
		M687.754-155.483c2.94,12.029,14.642,31.082,22.34,34.545c1.328-1.302,2.218-6.46,2.086-11.674"/>
	
		<path id="path887" inkscape:connector-curvature="0" sodipodi:nodetypes="cc" fill="none" stroke="#000000" stroke-width="2.5" stroke-opacity="0.7724" d="
		M683.565-121.026l-1.096,11.151"/>
	
		<path id="path888" inkscape:connector-curvature="0" sodipodi:nodetypes="ccc" fill="none" stroke="#000000" stroke-width="2.5" stroke-opacity="0.7724" d="
		M710.499-176.794c2.942,12.033,7.365,41.311,14.14,46.617c1.325-1.291,4.062-25.616,3.932-30.828"/>
	
		<path id="path889" inkscape:connector-curvature="0" sodipodi:nodetypes="ccc" fill="none" stroke="#000000" stroke-width="2.5" stroke-opacity="0.7724" d="
		M701.408-177.625c3.997,0.477,6.326,0.464,9.454,0.429c0.548-12.651-4.932-27.522-13.987-43.147"/>
	
		<path id="path890" inkscape:connector-curvature="0" sodipodi:nodetypes="cc" fill="#00C600" stroke="#000000" stroke-width="2.5" stroke-linecap="round" stroke-opacity="0.7724" d="
		M723.695-208.862l-0.625,12.793"/>
	
		<path id="path891" inkscape:connector-curvature="0" sodipodi:nodetypes="ccc" fill="none" stroke="#000000" stroke-width="2.5" stroke-opacity="0.7724" d="
		M678.52-214.333c4.228,1.631,7.249,2.158,10.606,1.893c3.472-17.133-5.265-17.152-16.15-29.264"/>
	
		<path id="path892" inkscape:connector-curvature="0" sodipodi:nodetypes="csc" fill="none" stroke="#000000" stroke-width="2.5" stroke-linecap="round" stroke-opacity="0.7724" d="
		M727.16-328.226c8.406,1.59,3.076,14.165,14.505,18.07c9.597,3.197,4.189-10.027,1.536-11.828"/>
	
		<path id="path893" inkscape:connector-curvature="0" sodipodi:nodetypes="csc" fill="none" stroke="#000000" stroke-width="2.5" stroke-opacity="0.7724" d="
		M714.658-299.978c6.07-4.412,27.753,1.696,35.094,7.859c2.1,1.96,5.311,9.784-4.661,16.979"/>
	
		<path id="path902" inkscape:connector-curvature="0" sodipodi:nodetypes="ccccc" fill="none" stroke="#000000" stroke-width="2.5" stroke-opacity="0.7724" d="
		M599.765-289.616c17.409-16.987,25.484-15.054,45.416-2.524c2.86,0.673,5.971,0.084,7.822-1.009
		c1.01-2.439,0.047-4.925-1.262-6.811c-8.915-6.392-15.558-8.244-23.969-7.065"/>
	
		<path id="path903" inkscape:connector-curvature="0" sodipodi:nodetypes="cccc" fill="none" stroke="#000000" stroke-width="2.5" stroke-opacity="0.7724" d="
		M624.818-226.569c-3.915,5.77-7.115,18.319-0.504,32.297c0.263,1.608,1.951,3.216,0.251,4.288
		c-3.257,1.641-4.729,4.353-6.559,7.064"/>
	
		<path id="path904" inkscape:connector-curvature="0" sodipodi:nodetypes="cc" fill="none" stroke="#000000" stroke-width="2.5" stroke-opacity="0.7724" d="
		M726.279-137.345c0.118-21.169-2.975-38.057-11.42-53.342"/>
	
		<path id="path905" inkscape:connector-curvature="0" sodipodi:nodetypes="ccccc" fill="none" stroke="#000000" stroke-width="2.5" stroke-opacity="0.7724" d="
		M689.704-219.768c2.794-0.298,6.303,0.475,8.029-0.356c0.833-3.093-1.547-6.9-2.498-9.813c1.603-0.178,3.569-0.178,4.816-0.536
		c0.715-2.676,0-6.422,0-9.634"/>
	
		<path id="path906" inkscape:connector-curvature="0" sodipodi:nodetypes="cccccc" fill="#FFFFFF" stroke="#000000" stroke-width="2.5" stroke-opacity="0.7724" d="
		M585.131-280.028c0.673-4.711,4.878-9.924,9.589-12.615c2.27-1.262,3.784,0.252,4.794,0.755c1.262,2.019,0.503,5.804,0,7.318
		c-1.262,2.524-3.784,4.542-8.326,6.308C588.832-279.272,587.487-279.019,585.131-280.028L585.131-280.028z"/>
	<path id="path907" inkscape:connector-curvature="0" fill="none" stroke="#000000" stroke-width="2.5" stroke-opacity="0.7724" d="
		M625.502-190.205c1.01,0.504,11.102,11.606,11.102,11.606h6.056l0.503-16.905"/>
	
		<path id="path908" inkscape:connector-curvature="0" sodipodi:nodetypes="cc" fill="none" stroke="#000000" stroke-width="2.5" stroke-linecap="round" stroke-linejoin="round" stroke-opacity="0.7724" d="
		M641.902-222.754c-2.018,6.644-1.262,13.289,0,19.933"/>
	
		<path id="path909" inkscape:connector-curvature="0" sodipodi:nodetypes="cc" fill="none" stroke="#000000" stroke-width="2.5" stroke-opacity="0.7724" d="
		M628.752-191.413l2.365-9.221"/>
	
		<path id="path910" inkscape:connector-curvature="0" sodipodi:nodetypes="cc" fill="none" stroke="#000000" stroke-width="2.5" stroke-opacity="0.7724" d="
		M633.07-226.286c-3.028,5.551-3.888,14.67-2.314,21.291"/>
	
		<path id="path911" inkscape:connector-curvature="0" sodipodi:nodetypes="cc" fill="none" stroke="#000000" stroke-width="2.5" stroke-opacity="0.7724" d="
		M715.548-189.394l-5.709,0.115"/>
	
		<path id="path1170" inkscape:connector-curvature="0" sodipodi:nodetypes="cccccc" fill="#9F3000" stroke="#000000" stroke-width="2.5" d="
		M511.008-210.84c0.801,2.472-1.894,1.144-2.475,1.839c-2.834,1.002-7.329-2.472-10.167-10.87c1.385-2.351,9.526-7.406,12.14-6.319
		c0,0,5.123,1.952,5.738,4.092C515.261-218.977,510.835-210.493,511.008-210.84L511.008-210.84z"/>
	
		<path id="path912" inkscape:connector-curvature="0" sodipodi:nodetypes="cc" fill="none" stroke="#000000" stroke-width="2.5" stroke-opacity="0.7724" d="
		M715.548-189.394l0.092-11.24"/>
	
		<path id="path913" inkscape:connector-curvature="0" sodipodi:nodetypes="cc" fill="none" stroke="#000000" stroke-width="2.5" stroke-opacity="0.7724" d="
		M724.835-130.339l1.603,27.424"/>
	
		<path id="path1153" inkscape:connector-curvature="0" sodipodi:nodetypes="ccccccccccccccc" fill="#238700" stroke="#000000" stroke-width="2.5" d="
		M510.824-209.885c5.532,5.203,14.223,1.713,15.608,14.423c0.592,7.113-9.484,21.337,0,34.178
		c3.357,4.941,12.051,10.275,12.051,10.275c4.545,5.071,5.927,14.094,8.89,21.139c6.256,9.354,14.885,11.394,21.734,9.088
		c0,0,22.523-10.073,22.523-10.272c0-0.197-11.459-15.41-11.459-15.213c0,0.198-12.842,10.867-13.04,10.867
		c-1.382-0.199-8.89,0.592-11.656-8.892c-0.198-12.117-6.19-18.826-15.807-23.708c-4.872-3.689-8.757-9.548-4.543-17.781
		c2.435-7.508,4.873-20.153-3.754-28.649c-5.532-3.688-9.485-6.587-15.412-7.706C508.124-219.171,508.19-219.962,510.824-209.885
		L510.824-209.885z"/>
	
		<path id="path914" inkscape:connector-curvature="0" sodipodi:nodetypes="cc" fill="none" stroke="#000000" stroke-width="2.5" stroke-opacity="0.7724" d="
		M622.197-315.651c-3.028,5.55-2.751,8.878-2.247,14.429"/>
	<path id="path915" inkscape:connector-curvature="0" fill="none" stroke="#000000" stroke-width="2.5" stroke-opacity="0.7724" d="
		M606.83-288.354c0.084,0,0.169,0,0.252,0c-0.335,0,0.673,0,1.01,0c1.935,0,3.869,0,5.802,0c1.879-0.051,2.682-0.763,4.039-1.767
		c0.909-0.514,1.876-1.288,2.775-2.018c0.747-0.534,1.646-1.164,2.522-1.514c1.432,0,2.55,0.105,3.784,0.505
		c1.143,0.479,2.082,1.165,3.028,1.766c0.945,0.378,1.8,0.505,3.28,0.505c1.541,0,3.155-0.073,4.543,0.252
		c1.333,0.089,2.827,0.382,3.784,0.756c1.221,0.77,1.957,1.689,2.775,2.524c0.049,1.339,0.489,2.159,0.505,3.532
		c0,1.173,0.132,2.762-0.252,3.532c0,1.452-0.232,2.483-0.505,3.533c-0.928,0.87-1.263,1.544-2.522,1.765
		c-0.991,0.778-2.477,0.758-4.037,0.758c-1.345,0-2.691,0-4.038,0c-0.875-0.731-1.938-1.491-3.028-2.522
		c-0.585-1.358-0.971-1.8-2.269-2.271c-1.092-0.171-2.389-0.253-3.785-0.253c-1.233,0-2.259,0.087-3.028-0.503
		c-0.697-0.664-1.701-1.013-2.776-1.262c-1.144-0.325-2.491-0.252-3.784-0.252c-0.673,0-1.345,0-2.019,0"/>
	<path id="path916" inkscape:connector-curvature="0" fill="none" stroke="#000000" stroke-width="2.5" stroke-opacity="0.7724" d="
		M613.39-286.084c0.084,0.084,0.169,0.169,0.253,0.253c-0.574-0.573-0.363-0.297,1.009,0.252c1.671,0.386,3.467,0.703,5.298,0.756
		c1.736,0,3.316,0.213,5.046,0.252c1.207,0,2.477,0.099,3.533-0.252"/>
	<path id="path917" inkscape:connector-curvature="0" fill="none" stroke="#000000" stroke-width="2.5" stroke-opacity="0.7724" d="
		M629.538-290.121c-0.084,0-0.168,0-0.252,0c0.791,0,0.305-0.065-0.756,1.262c-0.103,1.441-0.412,2.237,0.252,3.533
		c0.822,0.273,2.215,0.885,2.775,1.514c0.813,0.581,0.758,1.102,0.758,2.522c-0.486,0.79-0.921,1.423-1.513,2.524
		c-0.318,0.793-0.731,1.857-1.01,2.775c-0.289,1.153-0.489,2.251-0.505,3.533c0,0.841,0,1.682,0,2.522"/>
	
		<path id="path918" inkscape:connector-curvature="0" sodipodi:nodetypes="cccc" fill="none" stroke="#000000" stroke-width="2.5" stroke-opacity="0.7724" d="
		M720.873-319.5c0.282,0.539,5.121,10.197,11.131,4.071c0.891-1.044,1.201-1.802,1.201-3.582c0-0.93-0.127-2.01-0.356-2.776"/>
	
		<path id="path1183" inkscape:connector-curvature="0" sodipodi:nodetypes="cccc" fill="#FFFFFF" stroke="#000000" stroke-width="1.3573" d="
		M575.272-125.248c2.91,4.055,8.199,1.968,9.26-1.277c-3.622,0.236-5.007-1.904-6.285-5.181
		C577.475-129.828,574.456-127.575,575.272-125.248L575.272-125.248z"/>
	
		<path id="path919" inkscape:connector-curvature="0" sodipodi:nodetypes="ccc" fill="none" stroke="#000000" stroke-width="2.5" stroke-opacity="0.7724" d="
		M746.405-310.484c0,0.187,5.124,4.9,12.879,4.9c1.869,0,10.758-2.246,13.592-6.194"/>
	
		<path id="path920" inkscape:connector-curvature="0" sodipodi:nodetypes="ccccc" fill="none" stroke="#000000" stroke-width="2.5" stroke-opacity="0.7724" d="
		M757.142-305.941c0.116,0.758,0.356,3.518,0.356,5.353c-0.023,1.944,0.444,3.57-0.289,5.191c-0.798,2.067-1.682,2.893-3.636,3.602
		c-1.589,0.719-1.924,0.03-3.696,0.096"/>
	
		<path id="path921" inkscape:connector-curvature="0" sodipodi:nodetypes="cc" fill="none" stroke="#000000" stroke-width="2.5" stroke-opacity="0.7724" d="
		M714.47-315.707c0,0.12,5.466,13.107,7.265,14.424"/>
	
		<path id="path1184" inkscape:connector-curvature="0" sodipodi:nodetypes="cccc" fill="#FFFFFF" stroke="#000000" stroke-width="1.3573" d="
		M578.822-127.614c2.911,4.055,8.2,1.966,9.26-1.279c-3.621,0.236-5.006-1.904-6.282-5.179c-0.775,1.878-3.792,4.131-2.977,6.458
		H578.822z"/>
	
		<path id="path1185" inkscape:connector-curvature="0" sodipodi:nodetypes="cccc" fill="#FFFFFF" stroke="#000000" stroke-width="1.3573" d="
		M584.347-129.98c2.911,4.055,8.2,1.966,9.26-1.281c-3.621,0.236-5.005-1.904-6.284-5.179
		C586.549-134.562,583.533-132.31,584.347-129.98L584.347-129.98z"/>
	
		<path id="path922" inkscape:connector-curvature="0" sodipodi:nodetypes="cccc" fill="none" stroke="#000000" stroke-width="2.5" stroke-opacity="0.7724" d="
		M683.278-322.354c0.12,0,0.238,0,0.359,0c-0.477,0,0.951,0,1.427,0c5.672-0.956,24.718,2.558,28.025,6.064"/>
	
		<path id="path923" inkscape:connector-curvature="0" sodipodi:nodetypes="ccccc" fill="none" stroke="#000000" stroke-width="2.5" stroke-opacity="0.7724" d="
		M686.847-230.294c-0.118-0.119,0.268,2.184,0.148,2.066c0.703,0.703-0.106-1.901-0.504-3.493c-0.594-1.42-0.712-2.355-0.712-4.281
		c0-0.477,0-0.952,0-1.427"/>
	
		<path id="path924" inkscape:connector-curvature="0" sodipodi:nodetypes="cccccccccccccc" fill="none" stroke="#000000" stroke-width="2.5" stroke-opacity="0.7724" d="
		M651.237-146.306c0,0.171,0,0.335,0,0.507V-146.306c0,0.171,0,0.335,0,0.507v-2.066c0,1.683,0,4.925,0,6.609
		c0,1.263,0,2.526,0,3.78c0.258,1.256,0.252,2.651,0.252,4.036c0.158,1.076,0.533,2.355,1.01,3.539
		c0.069,1.497,0.486,2.477,1.009,3.777c0.109,1.295,0.548,2.401,1.01,3.541c0.109,1.293,0.529,1.971,0.756,3.023
		c0.365,1.214,0.81,2.003,1.263,2.773c0.327,0.335,0.649,2.026,0.951,2.121"/>
	
		<path id="path925" inkscape:connector-curvature="0" sodipodi:nodetypes="cccccccccccc" fill="none" stroke="#000000" stroke-width="2.5" stroke-opacity="0.7724" d="
		M635.846-161.19c0,0.084,0,0.168,0,0.252c0-0.337,0,0.673,0,1.01c0,1.849,0,3.7,0,5.55c0.328,1.674,0.386,3.442,0.758,5.047
		c0.136,1.442,0.485,2.674,0.756,4.037c0.12,1.349,1.736,6.132,2.271,7.316c0.597,1.115,1.479,2.278,2.018,3.023
		c1.008,0.315,1.831,0.671,3.028,0.759c1.177,0,2.355,0,3.532,0c1.417-0.275,1.904-0.423,2.524-1.513
		c0.339-0.678,0.319-1.154,0.756-1.513"/>
	
		<path id="path926" inkscape:connector-curvature="0" sodipodi:nodetypes="ccccc" fill="none" stroke="#000000" stroke-width="2.5" stroke-opacity="0.7724" d="
		M631.556-115.267c0-0.412-0.064-1.654,0.505-2.526c0.893-1.268,1.61-2.056,2.775-3.28c1.379-0.879,4.808-5.595,15.139-8.323
		c1.204,0,1.625-0.234,2.776-0.259"/>
	
		<path id="path927" inkscape:connector-curvature="0" sodipodi:nodetypes="cc" fill="none" stroke="#000000" stroke-width="2.5" stroke-opacity="0.7724" d="
		M632.784-138.162c0.083,0.086,5.646,2.993,8.532,3.116"/>
	<path id="path1104" inkscape:connector-curvature="0" fill="none" stroke="#000000" d="M648.673-128.391c-0.091,0-0.184,0-0.276,0
		H648.673C648.582-128.391,648.489-128.391,648.673-128.391z"/>
	
		<path id="path1106" inkscape:connector-curvature="0" sodipodi:nodetypes="cccccc" fill="#FFBC00" stroke="#000000" stroke-width="2.5" d="
		M646.191-128.664c-0.827-0.553-27.578-8.274-27.026-8.274c0.552,0-9.79,7.032-9.79,7.032l25.509,8.686l10.205-7.444H646.191z"/>
	
		<path id="path1107" inkscape:connector-curvature="0" sodipodi:nodetypes="cccccccccc" fill="#F7B200" stroke="#000000" stroke-width="2.5" d="
		M620.631-137.148c1.69-4.29,1.234-9.944-4.291-13.455c-12.61-7.735-33.8-7.085-37.829,1.951c-4.356-0.586-6.566,2.925-7.216,6.435
		c-11.245,3.054-0.843,16.047,1.949,16.572c3.778,1.293,4.811,0.345,5.461-0.893c2.104,0.52,4.988-1.73,5.712-3.28
		c2.67,0.493,4.7,0.442,4.751-2.237c7.653,7.173,18.199,12.139,19.372,2.903C612.57-131.817,616.601-134.484,620.631-137.148
		L620.631-137.148z"/>
	
		<path id="path1109" inkscape:connector-curvature="0" sodipodi:nodetypes="cc" fill="none" stroke="#000000" stroke-width="2.5" d="
		M571.314-142.413c-0.716,5.005,2.646,10.4,7.977,15.602"/>
	
		<path id="path1110" inkscape:connector-curvature="0" sodipodi:nodetypes="cc" fill="none" stroke="#000000" stroke-width="2.5" d="
		M578.317-148.653c-0.716,5.004,0.714,13.519,6.044,18.719"/>
	
		<path id="path1111" inkscape:connector-curvature="0" sodipodi:nodetypes="cc" fill="none" stroke="#000000" stroke-width="2.5" d="
		M586.222-154.032c-4.895,4.112-2.228,16.83,3.103,22.03"/>
	
		<path id="path1108" inkscape:connector-curvature="0" sodipodi:nodetypes="cccscscccsccc" fill="#288800" stroke="#000100" stroke-width="2.5" stroke-linejoin="round" d="
		M599.309-258.005c11.295,14.959-4.499,31.486-18.301,41.01c-16.27,12.796-25.057,37.743,3.637,39.274
		c10.361-0.19,21.615-1.107,27.947,7.008c6.332,8.113,6.565,23.102-9.385,32.707c-1.561-1.376-3.885-5.492-5.615-6.746
		c-1.731-1.254-2.869,0.355-4.432-1.026c-0.552-5.147,7.862-12.808-0.094-14.66c-10.297,1.746-46.338,1.897-45.879-32.483
		c0.791-7.662,4.888-16.263,11.46-25.013c6.573-8.75,24.593-19.601,26.322-24.351c2.776-4.103-2.299-12.087-6.342-13.189
		C575.318-264.3,589.933-273.724,599.309-258.005L599.309-258.005z"/>
	<path id="path1117" inkscape:connector-curvature="0" fill="none" stroke="#000000" stroke-width="2.5" d="M574.22-231.53
		l0.39,20.085"/>
	<path id="path1118" inkscape:connector-curvature="0" fill="none" stroke="#000000" stroke-width="2.5" d="M563.691-223.536
		l21.449,3.12"/>
	
		<path id="path1119" inkscape:connector-curvature="0" sodipodi:nodetypes="cc" fill="none" stroke="#000000" stroke-width="2.5" d="
		M579.485-236.015l18.136,3.704"/>
	
		<path id="path1120" inkscape:connector-curvature="0" sodipodi:nodetypes="cc" fill="none" stroke="#000000" stroke-width="2.5" stroke-opacity="0.6415" d="
		M560.388-220.038l15.102,8.944"/>
	
		<path id="path1121" inkscape:connector-curvature="0" sodipodi:nodetypes="cc" fill="none" stroke="#000000" stroke-width="2.5" stroke-opacity="0.6415" d="
		M549.633-201.147l11.793,12.528"/>
	
		<path id="path1122" inkscape:connector-curvature="0" sodipodi:nodetypes="cc" fill="none" stroke="#000000" stroke-width="2.5" stroke-opacity="0.6415" d="
		M560.527-219.211l2.002,29.627"/>
	
		<path id="path1123" inkscape:connector-curvature="0" sodipodi:nodetypes="cc" fill="none" stroke="#000000" stroke-width="2.5" stroke-opacity="0.6415" d="
		M552.392-206.802l19.376,0.394"/>
	
		<path id="path1125" inkscape:connector-curvature="0" sodipodi:nodetypes="cc" fill="none" stroke="#000000" stroke-width="2.5" d="
		M532.122-156.747c3-2.843,6.132-6.922,8.069-10.913"/>
	
		<path id="path1126" inkscape:connector-curvature="0" sodipodi:nodetypes="cc" fill="none" stroke="#000000" stroke-width="2.5" d="
		M538.189-151.647c4.052-2.507,9.255-4.484,14.413-5.534"/>
	
		<path id="path1127" inkscape:connector-curvature="0" sodipodi:nodetypes="cc" fill="none" stroke="#000000" stroke-width="2.5" d="
		M545.635-134.41c3.515-2.928,7.293-6.034,9.878-10.112"/>
	
		<path id="path1128" inkscape:connector-curvature="0" sodipodi:nodetypes="cc" fill="none" stroke="#000000" stroke-width="2.5" d="
		M545.773-133.737c6.183-0.148,12.455-0.786,18.55-1.908"/>
	
		<path id="path1129" inkscape:connector-curvature="0" sodipodi:nodetypes="cc" fill="none" stroke="#000000" stroke-width="2.5" d="
		M556.804-121.586c4.6-1.733,8.801-4.393,12.207-7.055"/>
	
		<path id="path1130" inkscape:connector-curvature="0" sodipodi:nodetypes="cc" fill="none" stroke="#000000" stroke-width="2.5" d="
		M524.814-162.955c3.566-2.878,7.131-6.154,10.034-9.563"/>
	
		<path id="path1131" inkscape:connector-curvature="0" sodipodi:nodetypes="cc" fill="none" stroke="#000000" stroke-width="2.5" d="
		M522.194-172.192c3.876-1.041,7.663-3.009,10.965-4.846"/>
	
		<path id="path1132" inkscape:connector-curvature="0" sodipodi:nodetypes="cc" fill="none" stroke="#000000" stroke-width="2.5" d="
		M523.55-181.805c3.135-1.217,6.802-1.723,10.201-1.922"/>
	
		<path id="path1133" inkscape:connector-curvature="0" sodipodi:nodetypes="cc" fill="none" stroke="#000000" stroke-width="2.5" d="
		M526.469-190.669c3.792-0.374,6.347-0.143,10.142,1.043"/>
	
		<path id="path1134" inkscape:connector-curvature="0" sodipodi:nodetypes="cc" fill="none" stroke="#000000" stroke-width="2.5" d="
		M527.102-196.299c3.138-1.684,6.665-2.781,10.194-2.321"/>
	
		<path id="path1135" inkscape:connector-curvature="0" sodipodi:nodetypes="cc" fill="none" stroke="#000000" stroke-width="2.5" d="
		M525.54-200.463l10.928-7.462"/>
	
		<path id="path1136" inkscape:connector-curvature="0" sodipodi:nodetypes="cc" fill="none" stroke="#000000" stroke-width="2.5" d="
		M523.61-203.548l9.308-9.227"/>
	
		<path id="path1137" inkscape:connector-curvature="0" sodipodi:nodetypes="cc" fill="none" stroke="#000000" stroke-width="2.5" d="
		M520.972-204.826l6.819-11.648"/>
	
		<path id="path1140" inkscape:connector-curvature="0" sodipodi:nodetypes="cc" fill="none" stroke="#000000" stroke-width="2.5" d="
		M548.175-273.674l-0.084,16.599"/>
	
		<path id="path1141" inkscape:connector-curvature="0" sodipodi:nodetypes="cc" fill="none" stroke="#000000" stroke-width="2.5" d="
		M564.968-271.03c-2.447,4.781-5.874,10.438-10.277,14.66"/>
	
		<path id="path1142" inkscape:connector-curvature="0" sodipodi:nodetypes="cc" fill="none" stroke="#000000" stroke-width="2.5" d="
		M552.576-274.236c-4.875-0.39-9.481,2.251-13.187,5.371"/>
	
		<path id="path1145" inkscape:connector-curvature="0" sodipodi:nodetypes="cccc" fill="#9D4600" fill-opacity="0.9937" stroke="#000000" stroke-linecap="round" stroke-linejoin="round" d="
		M578.564-261.57c8.103,2.98,18.861,7.078,17.743,30.875c6.706-7.265,9.779-17.463,1.256-30.317
		C591.836-267.205,583.454-268.509,578.564-261.57z"/>
	
		<path id="path1146" inkscape:connector-curvature="0" sodipodi:nodetypes="cc" fill="none" stroke="#000000" stroke-width="2.5" d="
		M582.22-253.631c0.327-4.611,6.776-10.314,10.175-11.571"/>
	
		<path id="path1147" inkscape:connector-curvature="0" sodipodi:nodetypes="cc" fill="none" stroke="#000000" stroke-width="2.5" d="
		M584.702-249.463c1.698-5.891,9.044-10.57,12.443-11.827"/>
	
		<path id="path1148" inkscape:connector-curvature="0" sodipodi:nodetypes="cc" fill="none" stroke="#000000" stroke-width="2.5" d="
		M584.858-241.113c3.137,0.049,15.012-6.537,17.729-10.459"/>
	
		<path id="path1149" inkscape:connector-curvature="0" sodipodi:nodetypes="cc" fill="none" stroke="#000000" stroke-width="2.5" d="
		M585.83-245.504c3.818-2.654,10.99-8.662,14.389-9.919"/>
	
		<path id="path1150" inkscape:connector-curvature="0" sodipodi:nodetypes="cc" fill="none" stroke="#000000" stroke-width="2.5" d="
		M596.314-240.694c2.858-1.627,3.835-1.227,6.832-4.31"/>
	
		<path id="path1151" inkscape:connector-curvature="0" sodipodi:nodetypes="cc" fill="none" stroke="#000000" stroke-width="2.5" d="
		M578.564-261.431c8.149,2.654,18.114,8.662,17.463,30.735"/>
	
		<path id="path1154" inkscape:connector-curvature="0" sodipodi:nodetypes="cc" fill="none" stroke="#000000" stroke-width="2.5" stroke-opacity="0.6415" d="
		M551.439-176.14l11.09-13.444"/>
	
		<path id="path1155" inkscape:connector-curvature="0" sodipodi:nodetypes="cc" fill="none" stroke="#000000" stroke-width="2.5" stroke-opacity="0.6415" d="
		M552.822-173.375l9.905-0.009"/>
	
		<path id="path1156" inkscape:connector-curvature="0" sodipodi:nodetypes="cc" fill="none" stroke="#000000" stroke-width="2.5" stroke-opacity="0.6415" d="
		M547.29-186.809l13.857,7.893"/>
	<path id="path1157" inkscape:connector-curvature="0" sodipodi:nodetypes="ccccscsccccc" fill="#9D4600" stroke="#000000" d="
		M565.946-188.152c-2.653-0.245-4.176-0.751-6.481-1.604c1.087,17.857,2.867,18.773,5.69,25.51
		c8.444,5.352,23.056,4.102,29.242,2.766c0.664,0.934,4.32,5.472,2.071,6.79c-2.423,1.521-3.407,4.467-3.495,9.23
		c1.432,1.613,2.924,0.213,4.381,1.249c1.456,1.037,3.172,4.708,4.521,7.867c0,0,17.957-12.34,15.044-23.951
		c-1.912-10.907-9.287-14.621-9.287-14.621c-10.425-5.211-25.079-1.756-30.425-3.753
		C570.557-180.145,566.372-185.893,565.946-188.152L565.946-188.152z"/>
	
		<path id="path1158" inkscape:connector-curvature="0" sodipodi:nodetypes="cc" fill="none" stroke="#000000" stroke-width="2.5" d="
		M595.532-156.643c8.993-4.106,18.504-4.441,21.085-4.064"/>
	
		<path id="path1159" inkscape:connector-curvature="0" sodipodi:nodetypes="cc" fill="none" stroke="#000000" stroke-width="2.5" d="
		M560.357-180.499c1.952-1.143,4.826-3.583,8.135-3.531"/>
	
		<path id="path1160" inkscape:connector-curvature="0" sodipodi:nodetypes="cc" fill="none" stroke="#000000" stroke-width="2.5" d="
		M576.894-160.825c1.598-9.461,5.653-15.849,7.742-17.448"/>
	
		<path id="path1161" inkscape:connector-curvature="0" sodipodi:nodetypes="cc" fill="none" stroke="#000000" stroke-width="2.5" d="
		M582.301-160.087c1.597-9.461,6.02-16.217,8.109-17.815"/>
	
		<path id="path1162" inkscape:connector-curvature="0" sodipodi:nodetypes="cc" fill="none" stroke="#000000" stroke-width="2.5" d="
		M588.321-160.703c1.597-9.459,5.652-15.602,7.741-17.2"/>
	
		<path id="path1163" inkscape:connector-curvature="0" sodipodi:nodetypes="cc" fill="none" stroke="#000000" stroke-width="2.5" d="
		M592.867-161.439c1.598-9.461,6.88-14.128,8.969-15.726"/>
	
		<path id="path1164" inkscape:connector-curvature="0" sodipodi:nodetypes="cc" fill="none" stroke="#000000" stroke-width="2.5" d="
		M595.891-158.762c1.598-9.461,9.633-14.717,11.722-16.315"/>
	
		<path id="path1165" inkscape:connector-curvature="0" sodipodi:nodetypes="cc" fill="none" stroke="#000000" stroke-width="2.5" d="
		M596.138-157.289c5.477-7.876,14.479-11.704,17.049-12.258"/>
	
		<path id="path1167" inkscape:connector-curvature="0" sodipodi:nodetypes="cc" fill="none" stroke="#000000" stroke-width="2.5" d="
		M571.243-162.055c1.597-9.459,5.775-14.62,7.863-16.218"/>
	
		<path id="path1168" inkscape:connector-curvature="0" sodipodi:nodetypes="cc" fill="none" stroke="#000000" stroke-width="2.5" d="
		M565.837-163.775c1.598-9.461,6.513-14.251,8.601-15.849"/>
	
		<path id="path1113" inkscape:connector-curvature="0" sodipodi:nodetypes="csc" fill="none" stroke="#000000" stroke-width="2.5" d="
		M593.904-144.34c4.245-3.339,7.131,7.448,7.342,8.757c0.21,1.307,1.004,2.637,3.117,3.858"/>
	
		<path id="path1169" inkscape:connector-curvature="0" sodipodi:nodetypes="cc" fill="none" stroke="#000000" stroke-width="2.5" d="
		M562.52-170.286c1.72-4.793,5.529-10.073,7.618-11.672"/>
	
		<path id="path1112" inkscape:connector-curvature="0" sodipodi:nodetypes="cccc" fill="#FFFFFF" stroke="#000000" stroke-width="2.657" d="
		M585.797-153.595c-5.511,8.753,0.849,16.481,7.984,13.381c-0.819-6.049-2.366-9.891,3.15-15.709
		C593.02-155.691,589.509-157.076,585.797-153.595z"/>
	<path id="path1171" inkscape:connector-curvature="0" fill="none" stroke="#000000" stroke-width="2.5" d="M565.017-217.953
		l2.607,12.858"/>
	<path id="path1172" inkscape:connector-curvature="0" fill="none" stroke="#000000" stroke-width="2.5" d="M567.623-206.137
		l-4.691,15.811"/>
	
		<path id="path1173" inkscape:connector-curvature="0" sodipodi:nodetypes="cc" fill="none" stroke="#000000" stroke-width="2.5" d="
		M595.336-155.814c9.705-1.893,19.029,0,21.45,0.97"/>
	
		<path id="path1174" inkscape:connector-curvature="0" sodipodi:nodetypes="cc" fill="none" stroke="#000000" stroke-width="2.6888" d="
		M594.189-154.265c9.947-0.145,18.622,3.918,20.76,5.514"/>
	
		<path id="path1175" inkscape:connector-curvature="0" sodipodi:nodetypes="cc" fill="none" stroke="#000000" stroke-width="2.6707" d="
		M594.293-152.42c9.568,2.177,13.858,7.028,15.53,9.078"/>
	
		<path id="path1176" inkscape:connector-curvature="0" sodipodi:nodetypes="cc" fill="none" stroke="#000000" stroke-width="2.6707" d="
		M593.631-150.217c8.585,4.755,10.518,8.654,11.554,11.089"/>
	
		<rect id="rect1177" x="454.035" y="-105.052" transform="matrix(-0.9735 0.2286 -0.2286 -0.9735 879.2073 -290.0449)" fill="#296526" width="4.735" height="21.903"/>
	<path id="path1179" inkscape:connector-curvature="0" sodipodi:nodetypes="ccccc" fill="#296526" d="M489.934-32.176l9.679,11.02
		l3.615-3.056l-9.087-11.417L489.934-32.176L489.934-32.176z"/>
	<path id="path1180" inkscape:connector-curvature="0" sodipodi:nodetypes="ccccc" fill="#296526" d="M785.387,14.919l-11.991,8.447
		l2.655,3.921l12.322-7.818L785.387,14.919L785.387,14.919z"/>
	<path id="path1181" inkscape:connector-curvature="0" sodipodi:nodetypes="ccccc" fill="#296526" d="M848.657-37.827
		l-10.696,10.039l3.174,3.511l11.112-9.458L848.657-37.827L848.657-37.827z"/>
	<path id="path1182" inkscape:connector-curvature="0" sodipodi:nodetypes="ccccc" fill="#296526" d="M882.572-108.642l-3.891,9.604
		l2.128,2.755l4.187-9.139L882.572-108.642L882.572-108.642z"/>
	
		<path id="path1186" inkscape:connector-curvature="0" sodipodi:nodetypes="ccc" fill="none" stroke="#000000" stroke-width="2.5" d="
		M565.705-163.255c-5.195-8.549-5.853-17.494-6.117-26.24c2.763,1.315,4.934,2.039,6.511,1.578"/>
	
		<path id="path1187" inkscape:connector-curvature="0" sodipodi:nodetypes="cc" fill="none" stroke="#000000" stroke-width="2.5" d="
		M547.613-274.175c-4.278-10.695,0.662-16.49,5.997-21.57"/>
	
		<path id="path1188" sodipodi:rx="4.4755249" sodipodi:ry="3.0433271" sodipodi:cy="154.93271" sodipodi:type="arc" sodipodi:cx="204.62036" d="
		M554.581-298.717c0.9,1.14,0.352,3.206-1.225,4.615c-1.575,1.409-3.582,1.627-4.483,0.486c-0.9-1.139-0.352-3.206,1.224-4.615
		C551.674-299.64,553.68-299.857,554.581-298.717z"/>
	<path id="path1189" inkscape:connector-curvature="0" fill="none" stroke="#000000" stroke-width="3.25" d="M526.883-217.297
		c-0.895,0-16.391-2.085-16.391-2.085"/>
	<path id="path1190" inkscape:connector-curvature="0" fill="none" stroke="#000000" stroke-width="3.25" d="M520.327-205.972
		c0-0.596-10.133-13.112-10.133-13.112"/>
</g>
</svg>
