<?xml version="1.0" encoding="utf-8"?>
<!-- Generator: Adobe Illustrator 16.0.0, SVG Export Plug-In . SVG Version: 6.00 Build 0)  -->
<!DOCTYPE svg PUBLIC "-//W3C//DTD SVG 1.1//EN" "http://www.w3.org/Graphics/SVG/1.1/DTD/svg11.dtd">
<svg version="1.1"
	 id="svg566" xmlns:dc="http://purl.org/dc/elements/1.1/" xmlns:svg="http://www.w3.org/2000/svg" xmlns:cc="http://creativecommons.org/ns#" xmlns:sodipodi="http://sodipodi.sourceforge.net/DTD/sodipodi-0.dtd" xmlns:inkscape="http://www.inkscape.org/namespaces/inkscape" xmlns:rdf="http://www.w3.org/1999/02/22-rdf-syntax-ns#" inkscape:version="0.48.1 r9760" sodipodi:docname="nz.svg" sodipodi:version="0.32"
	 xmlns="http://www.w3.org/2000/svg" xmlns:xlink="http://www.w3.org/1999/xlink" x="0px" y="0px" width="600px" height="400px"
	 viewBox="-44 56 600 400" enable-background="new -44 56 600 400" xml:space="preserve">
<sodipodi:namedview  inkscape:cy="248.03149" inkscape:cx="331.29922" showgrid="false" id="base" inkscape:zoom="0.47574604" inkscape:current-layer="svg566" inkscape:window-maximized="1" inkscape:window-y="24" inkscape:window-x="0" inkscape:window-height="723" inkscape:window-width="1280">
	</sodipodi:namedview>
<g id="flag" inkscape:label="#g3004">
	<rect id="rect580" x="-44" y="56" inkscape:label="#rect580" fill="#00006A" width="600" height="400.247">
	</rect>
	<g id="g560" transform="matrix(1.0175708,0,0,0.95604785,-9.9033974e-4,-1.0435174)">
		<path id="path572" inkscape:connector-curvature="0" sodipodi:nodetypes="ccccc" fill="#FFFFFF" d="M-43.239,59.666
			l237.696,175.962h48.756L10.648,59.751L-43.239,59.666z"/>
		<path id="path577" inkscape:connector-curvature="0" sodipodi:nodetypes="ccccc" fill="#FF0000" d="M225.405,235.625
			L-7.319,59.669l-18.112,0.216l233.699,175.741H225.405L225.405,235.625z"/>
		<path id="path581" inkscape:connector-curvature="0" sodipodi:nodetypes="ccccc" fill="#FFFFFF" d="M243.213,59.666L5.518,235.628
			h-48.756L189.326,59.751L243.213,59.666z"/>
		<path id="path579" inkscape:connector-curvature="0" sodipodi:nodetypes="ccccc" fill="#FF0000" d="M225.354,59.666
			L-7.276,235.622l-18.104,0.007L208.225,59.666H225.354L225.354,59.666z"/>
		<rect id="rect570" x="77.072" y="59.668" fill="#FFFFFF" width="45.831" height="175.958"/>
		<rect id="rect569" x="-43.235" y="130.052" fill="#FFFFFF" width="286.443" height="35.191"/>
		<rect id="rect574" x="87.097" y="59.668" fill="#FF0000" width="25.78" height="175.958"/>
		<rect id="rect575" x="-43.235" y="138.849" fill="#FF0000" width="286.443" height="17.596"/>
	</g>
	<g id="g8203" transform="matrix(0.8656228,0,0,0.8656228,-61.259702,103.94337)">
		<g id="g591" transform="matrix(1.026601,0,0,1.032127,-9.9878156e-4,4.455906e-4)">
			
				<polygon id="polygon589" sodipodi:r2="15.270433" sodipodi:sides="5" sodipodi:arg1="0.96850938" sodipodi:arg2="1.596828" sodipodi:r1="38.176083" sodipodi:cy="77.26931" sodipodi:type="star" sodipodi:cx="497.44034" inkscape:randomized="0" inkscape:rounded="0" inkscape:flatsided="false" fill="#FFFFFF" points="
				528.07,35.577 506.046,19.384 483.208,34.409 491.801,8.458 470.455,-8.62 497.791,-8.465 507.437,-34.044 515.737,-7.998 
				543.045,-6.729 520.838,9.214 			">
			</polygon>
			
				<polygon id="polygon590" sodipodi:r2="8.9671125" sodipodi:sides="5" sodipodi:arg1="0.90975159" sodipodi:arg2="1.5380701" sodipodi:r1="22.41778" sodipodi:cy="73.337006" sodipodi:type="star" sodipodi:cx="497.44034" inkscape:randomized="0" inkscape:rounded="0" inkscape:flatsided="false" fill="#FF0000" points="
				519.242,22.468 506.209,13.093 492.89,22.055 497.778,6.764 485.141,-3.133 501.193,-3.209 506.701,-18.288 511.734,-3.044 
				527.776,-2.466 514.834,7.032 			">
			</polygon>
		</g>
		<g id="g594" transform="matrix(1.026601,0,0,1.032127,-86.795213,144.08306)">
			
				<polygon id="polygon595" sodipodi:r2="15.270433" sodipodi:sides="5" sodipodi:arg1="0.96850938" sodipodi:arg2="1.596828" sodipodi:r1="38.176083" sodipodi:cy="77.26931" sodipodi:type="star" sodipodi:cx="497.44034" inkscape:randomized="0" inkscape:rounded="0" inkscape:flatsided="false" fill="#FFFFFF" points="
				528.07,35.577 506.045,19.384 483.207,34.409 491.801,8.458 470.455,-8.62 497.792,-8.464 507.436,-34.044 515.737,-7.998 
				543.046,-6.73 520.839,9.215 			">
			</polygon>
			
				<polygon id="polygon596" sodipodi:r2="8.9671125" sodipodi:sides="5" sodipodi:arg1="0.90975159" sodipodi:arg2="1.5380701" sodipodi:r1="22.41778" sodipodi:cy="73.337006" sodipodi:type="star" sodipodi:cx="497.44034" inkscape:randomized="0" inkscape:rounded="0" inkscape:flatsided="false" fill="#FF0000" points="
				519.241,22.468 506.21,13.093 492.891,22.056 497.779,6.764 485.141,-3.133 501.193,-3.209 506.701,-18.288 511.733,-3.044 
				527.776,-2.466 514.834,7.032 			">
			</polygon>
		</g>
		<g id="g597" transform="matrix(1.026601,0,0,1.032127,90.830087,129.87779)">
			
				<polygon id="polygon598" sodipodi:r2="15.270433" sodipodi:sides="5" sodipodi:arg1="0.96850938" sodipodi:arg2="1.596828" sodipodi:r1="38.176083" sodipodi:cy="77.26931" sodipodi:type="star" sodipodi:cx="497.44034" inkscape:randomized="0" inkscape:rounded="0" inkscape:flatsided="false" fill="#FFFFFF" points="
				528.071,35.577 506.045,19.384 483.207,34.409 491.802,8.458 470.454,-8.62 497.791,-8.465 507.436,-34.044 515.738,-7.997 
				543.045,-6.729 520.839,9.214 			">
			</polygon>
			
				<polygon id="polygon599" sodipodi:r2="8.9671125" sodipodi:sides="5" sodipodi:arg1="0.90975159" sodipodi:arg2="1.5380701" sodipodi:r1="22.41778" sodipodi:cy="73.337006" sodipodi:type="star" sodipodi:cx="497.44034" inkscape:randomized="0" inkscape:rounded="0" inkscape:flatsided="false" fill="#FF0000" points="
				519.241,22.468 506.21,13.093 492.891,22.055 497.779,6.764 485.14,-3.133 501.193,-3.21 506.701,-18.287 511.733,-3.043 
				527.776,-2.466 514.833,7.032 			">
			</polygon>
		</g>
		<g id="g600" transform="matrix(1.026601,0,0,1.032127,-2.019471,334.84036)">
			
				<polygon id="polygon601" sodipodi:r2="15.270433" sodipodi:sides="5" sodipodi:arg1="0.96850938" sodipodi:arg2="1.596828" sodipodi:r1="38.176083" sodipodi:cy="77.26931" sodipodi:type="star" sodipodi:cx="497.44034" inkscape:randomized="0" inkscape:rounded="0" inkscape:flatsided="false" fill="#FFFFFF" points="
				528.07,35.577 506.046,19.384 483.208,34.409 491.801,8.457 470.455,-8.62 497.792,-8.465 507.436,-34.045 515.737,-7.998 
				543.046,-6.73 520.838,9.214 			">
			</polygon>
			
				<polygon id="polygon602" sodipodi:r2="8.9671125" sodipodi:sides="5" sodipodi:arg1="0.90975159" sodipodi:arg2="1.5380701" sodipodi:r1="22.41778" sodipodi:cy="73.337006" sodipodi:type="star" sodipodi:cx="497.44034" inkscape:randomized="0" inkscape:rounded="0" inkscape:flatsided="false" fill="#FF0000" points="
				519.242,22.468 506.209,13.094 492.89,22.055 497.779,6.764 485.141,-3.134 501.193,-3.209 506.701,-18.287 511.733,-3.044 
				527.776,-2.466 514.834,7.032 			">
			</polygon>
		</g>
	</g>
</g>
</svg>
