<?xml version="1.0" encoding="utf-8"?>
<!-- Generator: Adobe Illustrator 16.0.0, SVG Export Plug-In . SVG Version: 6.00 Build 0)  -->
<!DOCTYPE svg PUBLIC "-//W3C//DTD SVG 1.0//EN" "http://www.w3.org/TR/2001/REC-SVG-20010904/DTD/svg10.dtd">
<svg version="1.0"
	 id="svg761" xmlns:dc="http://purl.org/dc/elements/1.1/" xmlns:svg="http://www.w3.org/2000/svg" xmlns:cc="http://creativecommons.org/ns#" xmlns:sodipodi="http://sodipodi.sourceforge.net/DTD/sodipodi-0.dtd" xmlns:inkscape="http://www.inkscape.org/namespaces/inkscape" xmlns:rdf="http://www.w3.org/1999/02/22-rdf-syntax-ns#" inkscape:version="0.48.1 r9760" sodipodi:docname="sa.svg" sodipodi:version="0.33pre"
	 xmlns="http://www.w3.org/2000/svg" xmlns:xlink="http://www.w3.org/1999/xlink" x="0px" y="0px" width="600px" height="400px"
	 viewBox="0 0 600 400" enable-background="new 0 0 600 400" xml:space="preserve">
<sodipodi:namedview  inkscape:cy="248.03149" inkscape:cx="372.04724" showgrid="false" id="base" inkscape:zoom="0.44080424" inkscape:current-layer="svg761" inkscape:window-maximized="1" inkscape:window-y="24" inkscape:window-x="0" inkscape:window-height="723" inkscape:window-width="1280">
	</sodipodi:namedview>
<rect fill="#1B9D00" width="600" height="400"/>
<g>
	<g id="flag" transform="matrix(1.032127,0,0,1.032127,-128,1.153985e-5)" inkscape:label="#g5255">
		
			<path id="path766" inkscape:connector-curvature="0" sodipodi:nodetypes="cccccccccccccccccccccccccccccccccccccccc" fill="#FFFFFF" d="
			M232.13,87.324c-0.859,11.589-1.89,31.983,7.957,34.075c11.909,1.145,5.342-20.158,9.654-24.021
			c0.815-1.909,2.317-1.919,2.442,0.489c0,6.023,0,12.047,0,18.07c-0.11,5.876,3.754,7.607,6.755,8.821
			c3.123-0.241,5.209-0.137,6.432,2.902c0.488,10.419,0.977,20.838,1.466,31.257c0,0,7.242,2.073,7.587-17.581
			c0.346-11.54-2.305-21.2-0.75-23.445c0.055-2.206,2.872-2.338,4.825-1.263c3.113,2.196,4.5,4.908,9.339,3.823
			c7.361-2.028,11.786-5.609,11.895-11.262c-0.43-5.372-1.031-10.745-3.36-16.117c0.325-0.977-1.421-3.508-1.097-4.485
			c1.323,2.072,3.336,1.9,3.794,0c-1.254-4.129-3.198-8.085-6.349-9.797c-2.606-2.295-6.418-1.826-7.813,2.96
			c-0.647,5.515,1.988,12.067,6.004,17.409c0.853,2.087,2.05,5.555,1.523,8.678c-2.136,1.219-4.274,0.711-6.064-1.179
			c0,0-5.86-4.395-5.86-5.372c1.555-9.956,0.344-11.085-0.518-13.848c-0.602-3.814-2.412-5.037-3.878-7.642
			c-1.466-1.554-3.448-1.554-4.396,0c-2.591,4.49-1.383,14.129,0.488,18.446c1.352,3.971,3.418,6.463,2.442,6.463
			c-0.803,2.244-2.466,1.726-3.675-0.864c-1.726-5.353-2.072-13.34-2.072-16.937c-0.518-4.459-1.087-13.97-4.022-16.387
			c-1.79-2.438-4.443-1.249-5.37,0.976c-0.193,4.426-0.214,8.851,0.285,12.93c2.012,7.154,2.645,13.444,3.622,20.77
			c0.272,9.813-5.674,4.258-5.402-0.607c1.37-6.319,1.014-16.265-0.203-18.786c-0.966-2.521-2.106-3.143-4.456-2.728
			c-1.864-0.114-6.663,5.126-8.01,13.818c0,0-1.149,4.474-1.639,8.446c-0.659,4.489-3.614,7.657-5.686-0.631
			C236.23,98.681,235.13,83.851,232.13,87.324L232.13,87.324z"/>
		<path id="path767" inkscape:connector-curvature="0" sodipodi:nodetypes="cccc" fill="#FFFFFF" d="M264.495,134.869
			c-10.51,5.138-20.676,9.931-31.015,14.896c0.378-7.03,14.745-19.72,24.544-19.899C264.4,130.044,262.797,132.337,264.495,134.869
			L264.495,134.869z"/>
		<path id="path768" inkscape:connector-curvature="0" sodipodi:nodetypes="cccccccccccccccccccccccccccccccccc" fill="#FFFFFF" d="
			M259.076,144.587c-16.345,42.133,38.275,48.004,44.379,1.726c0.575-1.899,2.878-3.799,3.28-0.691
			c-1.266,41.902-42.248,44.781-49.212,31.599c-1.726-3.107-2.245-10.014-2.418-14.159c-1.036-8.23-5.352-5.065-6.043,3.108
			c-0.691,4.547-0.518,5.815-0.518,10.189c2.187,33.096,54.97,18.879,63.544-8.461c4.547-15.139-0.749-26.304,1.726-26.248
			c5.238,5.642,12.548,0.749,14.159-1.208c0.692-0.979,2.419-1.611,3.627-0.345c4.086,2.937,11.284,1.553,12.779-3.627
			c0.863-5.065,1.555-10.303,1.728-15.712c-3.34,1.037-5.814,1.726-6.044,3.108c-0.231,1.497-0.46,2.992-0.691,4.489
			c-0.288,1.44-3.168,1.496-3.281-0.346c-1.266-5.756-6.504-6.504-9.67,2.419c-2.131,1.726-5.986,2.072-6.39-0.518
			c0.518-5.986-1.9-6.793-6.734-3.972c-1.555-11.857-3.107-23.196-4.662-35.053c2.015-0.058,3.858,1.438,5.7-0.864
			c-2.017-6.273-6.275-19.109-8.637-20.03c-1.151-1.381-2.131-0.518-3.626-0.173c-2.532,0.806-4.893,2.993-4.144,7.253
			c2.993,18.188,4.95,32.06,7.944,50.249c0.46,2.13-1.325,4.948-3.627,4.661c-3.914-2.648-4.89-8-11.569-7.771
			c-4.835,0.058-10.362,5.296-11.051,10.363c-0.806,4.027-1.095,8.401-0.002,11.913c3.399,4.086,7.484,3.685,11.053,2.763
			c2.935-1.208,5.352-4.144,6.388-3.454c0.692,0.864,0.171,10.532-13.814,17.958c-8.462,3.799-15.196,4.663-18.821-2.245
			C262.186,157.191,264.603,140.787,259.076,144.587L259.076,144.587z"/>
		<path id="path769" inkscape:connector-curvature="0" sodipodi:nodetypes="cccccccccc" fill="#FFFFFF" d="M328.406,101.76
			c3.281-1.209,18.823-18.994,18.823-18.994c-0.806-0.691-1.526-1.209-2.332-1.9c-0.864-0.748-0.777-1.496,0-2.245
			c3.856-2.244,2.619-7.166,0.605-9.41c-3.338-1.497-6.246-1.008-8.375,0.086c-2.705,2.59-3.337,6.734-1.207,9.324
			c2.073,0.979,4.144,3.08,2.763,4.231c-6.36,6.792-23.771,18.505-21.756,18.908C317.355,102.336,328.062,102.307,328.406,101.76
			L328.406,101.76z"/>
		<path id="path770" inkscape:connector-curvature="0" sodipodi:nodetypes="ccccccsc" fill="#FFFFFF" d="M234.549,164.7
			c-5.83,9.286-6.336,23.159-3.12,27.295c1.709,1.954,4.517,2.81,6.594,2.198c3.663-1.588,5.265-9.008,4.396-11.722
			c-1.221-1.913-2.185-2.216-3.405-0.589c-2.576,5.232-3.647,1.643-3.873-1.281c-0.395-5.545,0.128-10.652,0.73-14.696
			C236.51,161.76,235.858,163.027,234.549,164.7z"/>
		<path id="path771" inkscape:connector-curvature="0" sodipodi:nodetypes="csccccsccc" fill="#FFFFFF" d="M483.63,149.829
			c-5.635-12.131-13.437-24.119-15.92-28.724c-2.483-4.607-21.222-31.805-23.982-34.864c-6.09-7.235,9.886,3.013-2.021-11.351
			c-4.542-3.895-4.805-4.132-8.572-7.31c-1.902-1.349-6.542-3.813-7.365,0.271c-0.413,3.601-0.189,5.554,0.414,8.552
			c0.466,1.999,3.378,5.347,4.808,7.287c19.014,25.558,35.875,51.369,52.134,83.821C485.693,166.292,485.133,151.86,483.63,149.829
			L483.63,149.829z"/>
		<path id="path793" inkscape:connector-curvature="0" sodipodi:nodetypes="ccccccccccccc" fill="#FFFFFF" d="M458.892,190.418
			c-1.107,1.244,2.736,6.565,7.732,6.56c8.357-0.971,15.71-5.663,22.521-18.017c1.82-2.881,5.022-9.043,5.117-13.823
			c0.636-28.025-1.404-49.832-5.603-70.087c-0.269-1.973-0.104-4.292,0.229-4.884c0.541-0.646,2.377,0.003,3.349-1.593
			c1.429-1.458-3.792-13.535-6.767-18.187c-1.058-2.077-1.427-3.464-3.175,0.244c-1.839,3.014-3.075,8.273-2.931,13.187
			c3.987,27.595,5.211,51.736,7.815,79.332c0.212,2.669-0.18,6.547-1.953,8.093C478.663,178.095,469.192,186.529,458.892,190.418
			L458.892,190.418z"/>
		<path id="path794" inkscape:connector-curvature="0" sodipodi:nodetypes="ccccccccccccsc" fill="#FFFFFF" d="M571.76,190.27
			c-5.997,3.466-6.004,7.454-1.156,7.598c8.355-0.971,18.227-1.664,25.037-11.945c1.822-2.881,3.985-10.672,4.08-15.452
			c0.638-28.025-0.365-48.943-4.564-69.198c-0.271-1.973-1.143-6.514-0.808-7.106c0.541-1.387,3.264,0.151,4.237-1.445
			c1.429-1.458-7.051-12.35-10.027-17.002c-1.056-2.077-1.425-3.464-3.173,0.244c-1.839,3.014-2.483,8.421-1.747,13.187
			c4.432,29.965,7.728,52.477,8.41,79.036c-0.382,2.521-0.477,3.88-1.658,7.056c-2.615,3.352-5.512,7.543-8.23,9.569
			C579.445,186.836,573.648,188.769,571.76,190.27z"/>
		<path id="path795" inkscape:connector-curvature="0" sodipodi:nodetypes="cssscccccccc" fill="#FFFFFF" d="M576.252,163.408
			c-0.068-7.008,0.1-13.059-0.131-18.286c-0.231-5.227-1.154-9.483-2.963-13.193c-1.713-3.978-0.649-7.175-1.453-11.412
			c-0.802-4.236-0.606-10.58-1.818-15.607c-0.333-1.963-1.353-8.25-1.039-8.853c0.496-1.403,2.381,0.044,3.302-1.582
			c1.378-1.503-4.784-17.447-7.91-22c-1.124-2.041-3.164-1.342-5.683,1.977c-2.333,2.184-1.467,7.165-0.575,11.904
			c5.995,31.286,10.466,59.603,9.49,89.385C567.173,178.273,576.315,168.188,576.252,163.408z"/>
		<path id="path796" inkscape:connector-curvature="0" sodipodi:nodetypes="cccccccccscc" fill="#FFFFFF" d="M531.953,124.6
			c-3.77-0.069-11.668-7.338-13.973-11.597c-0.87-2.443-0.312-4.826,0.456-6.222c1.397-0.908,3.544-1.928,5.149-0.95
			c0,0,1.665,2.33,1.344,2.626c2.059,0.986,2.933,0.419,3.143-0.419c0.138-1.466-0.609-2.34-0.619-3.955
			c0.874-4.38,5.879-5.061,7.764-2.268c1.381,1.703,1.887,5.321,2.095,7.764c-0.021,1.248-2.042-0.216-3.19,0.084
			c-1.149,0.301-1.425,1.626-1.514,2.825C532.4,115.663,532.023,120.76,531.953,124.6L531.953,124.6z"/>
		<path id="path797" inkscape:connector-curvature="0" sodipodi:nodetypes="cscccccscc" fill="#FFFFFF" d="M462.366,171.177
			c1.039-9.522-0.384-26.48-0.479-32.099c-0.38-13.274-2.549-38.912-3.58-43.195c-1.164-8.074,3.321,0.886,2.7-3.807
			c-1.455-8.063-5.927-13.528-11.184-20.913c-1.696-2.402-1.639-2.892-4.256,0.589c-2.895,6.57-0.396,11.089,0.352,16.205
			c3.792,16.67,6.004,32.009,7.034,47.172c1.029,15.164,1.345,31.558,0.407,47.528C456.201,182.769,460.769,178.061,462.366,171.177
			L462.366,171.177z"/>
		<path id="path798" inkscape:connector-curvature="0" sodipodi:nodetypes="csccccsccc" fill="#FFFFFF" d="M589.086,155.925
			c-6.648-11.157-16.683-23.24-19.362-27.733c-2.681-4.494-25.353-33.746-28.241-36.682c-8.294-8.713,3.804-1.418-1.59-8.148
			c-4.559-5.007-5.889-6.579-9.793-9.59c-1.957-1.265-3.143-3.68-3.785,0.436c-0.257,3.616-0.524,7.799-0.28,10.847
			c-0.015,1.694,1.749,4.877,3.264,6.753c20.11,24.706,42.042,49.933,59.699,81.646C591.51,172.123,590.676,157.888,589.086,155.925
			L589.086,155.925z"/>
		<path id="path799" inkscape:connector-curvature="0" sodipodi:nodetypes="cccccc" fill="#1BA400" d="M287.406,135.34
			c-0.48,0.839-1.544,1.926-1.187,3.051c0.747,1.012,1.344,1.217,2.587,1.272c1.08,0,2.588,0.255,2.911-0.382
			c0.582-0.64,1.023-1.946,0.539-3.179C291.132,133.293,287.994,134.34,287.406,135.34z"/>
		<path id="path800" inkscape:connector-curvature="0" sodipodi:nodetypes="cccccccccccccccccccsc" fill="#FFFFFF" d="
			M511.775,297.963c8.892,0.327,14.713,0.407,22.621,1.347c0,0,6.822-0.674,9.257-1.043c10.294-0.982,10.75,14.705,10.75,14.705
			c-0.112,9.199-3.664,9.681-8.198,10.652c-2.589,0.331-3.949-1.55-5.312-3.554c-1.709,0.715-4.031,0.817-6.845,0.428
			c-3.705-0.231-7.41-0.216-11.116-0.448c-3.938-0.346-6.031,0.411-9.969,0.062c-0.81,1.275-1.866,3.039-4.273,2.471
			c-2.004-0.221-4.377-5.845-3.677-10.12c1.446-3.067,1.048-2.082,0.897-3.427c-36.357-0.927-73.061-2.547-108.724-2.085
			c-27.904,0.117-55.462,1.275-83.02,2.434c-14.705-0.233-25.936-2.549-33.695-13.895c0.695,0,37.515,2.083,48.285,1.389
			c19.915-0.233,38.093-1.853,58.356-2.432c39.947,0.694,79.546,0.694,119.493,3.472c-3.821-2.613-3.957-8.788,1.924-10.298
			c0.5-0.342,0.757,3.071,1.637,3.007C514.875,290.274,512.81,296.649,511.775,297.963L511.775,297.963z"/>
		
			<path id="path801" inkscape:connector-curvature="0" sodipodi:nodetypes="cccccccccccccccccccccccccccccccccccccccc" fill="#FFFFFF" d="
			M351.398,77.775c-6.054,17.303,3.468,36.23,10.07,34.387c4.763,1.972,7.795-7.089,9.746-17.016
			c1.334-2.786,2.341-3.083,3.026-1.651c-0.176,13.201,0.948,16.125,4.343,20.132c7.571,5.841,13.834,0.746,14.325,0.254
			c0.49-0.491,5.895-5.895,5.895-5.895c1.312-1.38,3.06-1.461,4.912-0.245c1.801,1.637,1.548,4.465,5.404,6.426
			c3.245,1.298,10.184,0.3,11.79-2.496c2.163-3.707,2.681-4.98,3.684-6.386c1.544-2.055,4.174-1.141,4.174-0.492
			c-0.246,1.146-1.79,2.293-0.736,4.357c1.836,1.377,2.259,0.491,3.346,0.185c3.841-1.836,6.725-10.191,6.725-10.191
			c0.17-3.108-1.573-2.851-2.702-2.211c-1.474,0.901-1.571,1.189-3.043,2.09c-1.879,0.279-5.522,1.524-7.323-1.265
			c-1.839-3.353-1.864-8.031-3.27-11.413c0-0.246-2.439-5.327-0.168-5.652c1.147,0.213,3.592,0.86,3.98-1.199
			c1.202-2.007-2.574-7.69-5.158-10.562c-2.242-2.462-5.35-2.759-8.35-0.245c-2.101,1.933-1.799,4.093-2.211,6.14
			c-0.536,2.351-0.421,5.243,1.965,8.351c2.097,4.135,5.922,9.46,4.667,16.948c0,0-2.235,3.539-6.129,3.076
			c-1.624-0.354-4.256-1.043-5.662-11.427c-1.063-7.86,0.252-18.857-3.085-24.013c-1.205-3.113-2.085-6.119-5.02-0.795
			c-0.789,2.091-4.175,5.264-1.72,11.79c2.01,4.138,2.827,10.872,1.915,18.364c-1.391,2.129-1.7,2.85-3.525,4.979
			c-2.564,2.757-5.346,2.053-7.477,1.024c-1.991-1.342-3.55-2.036-4.459-6.299c0.164-6.795,0.542-17.918-0.699-20.278
			c-1.831-3.655-4.851-2.333-6.141-1.229c-6.198,5.667-9.261,15.229-11.131,22.843c-1.72,5.549-3.548,3.959-4.835,1.72
			C355.39,96.947,355.178,74.003,351.398,77.775L351.398,77.775z"/>
		
			<path id="path802" inkscape:connector-curvature="0" sodipodi:nodetypes="ccccccccccccsccccccccccccccccccccccccccccccc" fill="#FFFFFF" d="
			M369.625,115.39c2.75-1.947,1.465-3.308,5.575,0.802c5.147,8.8,8.455,20.196,8.951,30.293c-0.217,2.488,1.538,4.063,2.339,3.522
			c0.477-5.841,14.682-13.98,27.707-15.17c1.992-0.433,1.023-4.25,1.348-6.197c-0.781-7.231,4.063-13.814,10.853-14.339
			c9.24,1.366,12.317,6.3,12.472,13.831c-0.997,14.458-16.058,16.909-24.521,18.062c-1.297,0.491-1.838,1.09,0,1.798l35.457,0.161
			l1.809,1.045c0.218,0.845-0.517,0.14-1.917,2.445c-1.398,2.305-3.463,7.62-3.571,11.169c-10.563,3.397-21.489,4.885-32.594,6.228
			c-3.858,1.951-5.77,4.551-4.978,7.477c1.298,3.245,9.844,6.487,9.844,6.641c1.624,1.018,3.542,3.393-0.46,8.26
			c-17.294-0.761-30.695-8.121-35.335-18.509c-1.398-1.084-2.905-0.006-3.87,1.398c-6.752,8.704-13.396,16.543-24.908,20.704
			c-6.864,1.715-13.893-1.053-17.212-5.549c-2.223-2.559-2.137-5.384-2.954-5.996c-3.709,1.641-35.64,15.208-31.592,8.888
			c7.771-8.317,21.224-14.427,33.104-22.636c0.857-2.75,2.417-12.055,7.109-15.085c0.271,0.023-0.744,5.464-0.641,7.759
			c0.053,1.884-0.138,2.622,0.273,2.137c0.802-0.511,15.218-11.839,16.332-15.313c1.406-1.992,0.422-7.037,0.422-7.19
			c-2.704-6.968-6.495-7.56-7.901-11.022c-1.266-4.599-0.694-9.849,1.936-11.312c2.334-2.119,5.099-1.857,7.649,0.459
			c2.912,2.608,5.498,7.705,6.246,11.502c-0.5,1.502-3.809-0.998-4.958-0.253c2.032,2.105,2.981,4.533,3.716,7.504
			c1.878,7.953,1.305,11.045-0.586,16.188c-6.4,13.458-14.58,17.474-21.737,22.459c-0.191,0.068-0.318,3.415,2.374,5.225
			c0.928,0.974,4.661,1.474,9.05,0.068c8.483-4.626,17.288-13.147,21.66-22.64c1.27-7.181-0.491-14.795-2.358-21.435
			c-2.813-6.49-6.125-15.756-6.125-15.909C367.521,118.813,367.85,117.409,369.625,115.39L369.625,115.39z"/>
		<path id="path803" inkscape:connector-curvature="0" sodipodi:nodetypes="ccccccccccccccccc" fill="#FFFFFF" d="M276.799,77.962
			c4.08,1.946,11.752,1.118,11.428-5.462c0-0.582-0.148-2.551-0.205-3.084c-0.834-1.94-3.106-1.461-3.621,0.542
			c-0.163,0.656,0.29,1.724-0.305,2.054c-0.342,0.344-1.645,0.142-1.591-1.676c0-0.579-0.428-1.202-0.684-1.569
			c-0.258-0.169-0.422-0.216-0.888-0.216c-0.57,0.023-0.56,0.171-0.872,0.649c-0.132,0.487-0.315,0.963-0.315,1.515
			c-0.071,0.647-0.315,0.878-0.791,0.973c-0.533,0-0.412,0.059-0.843-0.216c-0.255-0.28-0.576-0.387-0.576-0.865
			c0-0.495-0.112-1.296-0.26-1.623c-0.227-0.298-0.589-0.436-0.999-0.541c-2.229,0.008-2.382,2.55-2.254,3.515
			C273.852,72.14,273.758,76.7,276.799,77.962L276.799,77.962z"/>
		<path id="path804" inkscape:connector-curvature="0" sodipodi:nodetypes="ccccccccccccccccc" fill="#FFFFFF" d="M396.422,128.596
			c4.082,1.946,13.795,0.826,11.43-5.462c0-0.582-0.148-2.551-0.206-3.084c-0.833-1.94-3.105-1.461-3.62,0.542
			c-0.163,0.656,0.288,1.724-0.306,2.054c-0.342,0.344-1.645,0.142-1.59-1.676c0-0.579-0.428-1.202-0.685-1.569
			c-0.257-0.169-0.422-0.216-0.888-0.216c-0.569,0.023-0.56,0.171-0.871,0.649c-0.132,0.487-0.316,0.963-0.316,1.515
			c-0.07,0.647-0.314,0.878-0.791,0.973c-0.532,0-0.412,0.059-0.842-0.216c-0.256-0.28-0.577-0.387-0.577-0.865
			c0-0.495-0.112-1.296-0.26-1.623c-0.226-0.298-0.589-0.436-0.998-0.541c-2.229,0.008-2.382,2.55-2.256,3.515
			C393.478,122.774,393.383,127.334,396.422,128.596L396.422,128.596z"/>
		<path id="path805" inkscape:connector-curvature="0" sodipodi:nodetypes="ccccccccccccccccc" fill="#FFFFFF" d="M466.179,107.639
			c4.08,1.946,11.753,1.118,11.428-5.462c0-0.582-0.148-2.551-0.204-3.084c-0.835-1.94-3.107-1.461-3.622,0.542
			c-0.163,0.656,0.289,1.724-0.305,2.054c-0.341,0.344-1.644,0.142-1.591-1.676c0-0.579-0.428-1.202-0.683-1.569
			c-0.259-0.169-0.422-0.216-0.889-0.216c-0.57,0.023-0.56,0.171-0.872,0.649c-0.133,0.487-0.314,0.963-0.314,1.515
			c-0.072,0.647-0.316,0.878-0.791,0.973c-0.534,0-0.413,0.059-0.844-0.216c-0.255-0.28-0.575-0.387-0.575-0.865
			c0-0.495-0.112-1.296-0.261-1.623c-0.227-0.298-0.589-0.436-0.999-0.541c-2.229,0.008-2.382,2.55-2.254,3.515
			C463.233,101.817,463.138,106.377,466.179,107.639L466.179,107.639z"/>
		<path id="path806" inkscape:connector-curvature="0" sodipodi:nodetypes="cccccccccccccccccccccccccccc" fill="#FFFFFF" d="
			M502.308,160.272c-7.111,8.015-3.976,21.272-2.369,24.128c2.345,4.691,4.233,7.7,8.796,10.02c4.156,3.059,7.393,1.146,9.18-0.995
			c4.182-4.334,4.231-15.399,6.194-17.592c1.378-4.028,4.844-3.34,6.527-1.555c1.631,2.345,3.554,3.857,5.949,5.133
			c3.9,3.441,8.559,4.07,13.148,0.934c3.136-1.759,5.175-4.032,7.011-8.544c2.04-5.456,0.903-30.663,0.494-45.603
			c-0.157-1.172-4.053-20.545-4.053-20.761c0-0.217-0.515-9.887-0.944-12.191c-0.076-0.935-0.307-1.204,0.674-1.085
			c1.039,0.874,1.181,0.929,1.83,1.217c1.048,0.192,1.987-1.593,1.355-3.236c-3.245-5.985-6.491-11.971-9.736-17.956
			c-0.78-0.769-1.79-1.614-3.028,0.217c-1.185,1.038-2.445,2.917-2.407,5.332c0.288,4.255,1.037,8.585,1.325,12.84
			c1.298,7.283,2.596,14.567,3.894,21.85c1.226,15.576,1.533,28.323,2.759,43.899c-0.172,6.595-2.222,12.345-4.144,13.175
			c0,0-2.926,1.696-4.888-0.177c-1.427-0.573-7.14-9.519-7.14-9.519c-2.92-2.677-4.844-1.912-6.922,0
			c-5.73,5.533-8.324,15.884-12.217,23.023c-1.005,1.593-3.843,2.957-6.986-0.116C498.621,171.801,503.301,156.281,502.308,160.272
			L502.308,160.272z"/>
		<path id="path807" inkscape:connector-curvature="0" sodipodi:nodetypes="cccccc" fill="#FFFFFF" d="M468.009,69.432
			c3.656,1.53,6.235,8.936,5.395,12.552c-0.729,4.473-2.668,9.304-4.061,8.675c-1.516-0.562,1.033-4.446-0.424-8.522
			c-0.808-2.653-5.798-7.5-5.272-8.929C462.616,70.213,465.769,68.904,468.009,69.432z"/>
		<path id="path808" inkscape:connector-curvature="0" sodipodi:nodetypes="csccccccc" fill="#FFFFFF" d="M514.078,164.665
			c0.77-8.893-0.528-14.316-0.759-19.543c-0.231-5.227-5.912-45.11-7.064-49.065c-1.391-7.478,5.522-1.003,4.769-5.352
			c-2.394-5.483-8.345-13.467-10.215-18.23c-1.124-2.041-0.651-3.856-3.168-0.537c-2.335,7.631-3.145,13.868-2.254,18.607
			c5.995,31.286,12.143,57.299,11.167,87.081C509.398,177.645,512.676,171.121,514.078,164.665L514.078,164.665z"/>
		<path id="path809" inkscape:connector-curvature="0" sodipodi:nodetypes="cccccc" fill="#FFFFFF" d="M576.546,82.036
			c3.334,1.657,5.285,10.938,4.918,13.589c-0.664,4.843-2.432,10.073-3.703,9.392c-1.381-0.608,0.278-7.182-0.386-9.226
			c-0.736-2.872-5.285-8.12-4.807-9.667C571.629,82.883,574.502,81.465,576.546,82.036L576.546,82.036z"/>
		<path id="path810" inkscape:connector-curvature="0" sodipodi:nodetypes="cccccc" fill="#FFFFFF" d="M328.835,147.847
			c3.188,1.217,5.057,8.037,4.705,9.986c-0.636,3.558-2.328,7.401-3.542,6.901c-1.322-0.447,0.265-5.278-0.369-6.78
			c-0.27-3.643-4.695-5.529-4.602-7.103C324.202,147.958,326.878,147.426,328.835,147.847z"/>
		<path id="path811" inkscape:connector-curvature="0" sodipodi:nodetypes="ccccccc" fill="#1B9D00" d="M405.864,158.083
			c4.115,0.261,6.171,3.49,2.317,4.844c-3.802,1.302-7.456,2.319-7.473,7.813c1.406,7.656-1.929,5.029-3.919,3.989
			c-2.343-1.683-8.921-5.735-9.859-14.485c-0.14-2.088,1.487-3.845,4.108-3.833C394.987,157.484,400.813,157.562,405.864,158.083z"
			/>
		<path id="path812" inkscape:connector-curvature="0" sodipodi:nodetypes="cccccc" fill="#FFFFFF" d="M243.62,67.225
			c4.703,1.418,4.982,8.332,4.634,10.353c-0.626,3.689-2.293,7.673-3.489,7.154c-1.302-0.463-0.051-5.471-0.677-7.029
			c-0.697-2.188-4.671-6.185-4.221-7.363C238.982,67.87,241.692,66.789,243.62,67.225z"/>
		<path id="path813" inkscape:connector-curvature="0" sodipodi:nodetypes="cccccccc" fill="#FFFFFF" d="M336.517,99.823
			c-3.609,1.952-5.009,7.771-2.762,11.159c2.1,2.984,5.414,1.878,5.856,1.878c3.537,0.442,5.634-6.629,5.634-6.629
			s0.111-1.988-4.088,1.769c-1.767,0.331-1.988-0.332-2.43-1.327c-0.368-1.841-0.295-3.682,0.553-5.524
			C339.905,99.382,338.542,98.608,336.517,99.823z"/>
		<path id="path814" inkscape:connector-curvature="0" sodipodi:nodetypes="cccccccc" fill="#FFFFFF" d="M363.587,64.553
			c-1.815,1.216-5.425,4.956-5.535,9.265c-0.11,2.431-0.562,2.424,1.029,3.971c1.151,1.658,2.311,1.509,4.631,0.293
			c1.334-0.982,1.784-1.634,2.233-3.281c0.554-2.762-2.92,1.31-3.361-1.764c-0.774-2.854,1.456-4.022,3.556-6.784
			C366.209,64.361,366.168,63.021,363.587,64.553z"/>
		<path id="path815" inkscape:connector-curvature="0" sodipodi:nodetypes="ccccc" fill="#FFFFFF" d="M385.396,68.427
			c-0.782,1.727-1.718,10.748-1.563,10.748c-0.623,2.688,2.814,3.838,4.377,0.383c2.343-6.334,2.343-9.021,2.5-11.708
			C389.979,63.757,387.219,63.885,385.396,68.427L385.396,68.427z"/>
		<path id="path816" inkscape:connector-curvature="0" sodipodi:nodetypes="ccccc" fill="#FFFFFF" d="M522.896,138.395
			c0.469-0.469,19.376-13.906,19.376-13.906c1.926-0.677,1.51,6.927,0.624,6.875c0.365,1.51-18.645,14.427-20,13.906
			C521.96,145.947,521.021,140.062,522.896,138.395z"/>
		<path id="path817" inkscape:connector-curvature="0" sodipodi:nodetypes="cccccc" fill="#FFFFFF" d="M540.139,138.286
			c3.332,1.657,4.659,11.407,4.292,14.058c0.117,5.156-3.211,9.292-4.483,8.611c-1.381-0.608,0.121-6.401-0.543-8.445
			c-0.736-2.872-3.565-8.276-3.088-9.823C535.378,139.446,538.095,137.715,540.139,138.286z"/>
		<path id="path818" inkscape:connector-curvature="0" sodipodi:nodetypes="ccccccccccccc" fill="#FFFFFF" d="M427.674,180.271
			c1.315-1.922,5.378-4.688,5.469-4.688c1.875-0.938,3.705,0.735,3.595,0.625c0.312,1.875-1.187,3.62-0.717,6.121
			c0.409,1.008,0.71,2.127,2.557,1.7c3.001-2.362,5.783-2.514,8.784-2.665c2.301,0.139,2.392,4.034,0.939,4.063
			c-5.545,1.205-8.027,2.689-11.986,4.2c-1.875,1.093-3.484-0.294-3.484-0.45c0-0.156-1.098-1.064-0.331-3.548
			c0.136-1.992-0.666-3.084-2.326-2.858c-1.249,0.676-2.35,1.124-2.975-0.313C426.953,181.397,426.874,180.881,427.674,180.271z"/>
		<path id="path819" inkscape:connector-curvature="0" sodipodi:nodetypes="ccccccccccccc" fill="#FFFFFF" d="M560.029,185.522
			c0.81,1.031,1.334,1.985-0.064,3.679c-1.327,1.215-2.259,1.884-3.586,3.099c-0.626,1.068-1.026,2.688,0.889,3.204
			c3.535,0.993,11.712-4.309,11.712-4.42c1.326-0.994,0.884-2.872,0.772-2.872c-0.772-0.884-2.515-0.359-3.686-0.502
			c-0.558,0-2.388-0.277-1.518-1.897c0.729-1.008,0.988-1.625,1.48-2.867c0.553-1.215,0.08-2.026-1.909-2.689
			c-2.027-0.368-2.837-0.184-5.083,0c-1.215,0.258-1.629,0.801-1.851,2.274C557.272,184.765,558.631,184.638,560.029,185.522
			L560.029,185.522z"/>
		
			<path id="path820" sodipodi:rx="3.437515" sodipodi:ry="3.125015" sodipodi:cy="181.37419" sodipodi:type="arc" sodipodi:cx="381.25159" fill="#259F00" d="
			M428.399,130.541c-0.518,0.896-2.271,0.852-3.915-0.098c-1.643-0.951-2.555-2.448-2.036-3.344
			c0.518-0.897,2.271-0.853,3.915,0.098C428.005,128.148,428.917,129.645,428.399,130.541z"/>
		
			<path id="path821" sodipodi:rx="3.437515" sodipodi:ry="3.125015" sodipodi:cy="181.37419" sodipodi:type="arc" sodipodi:cx="381.25159" fill="#259F00" d="
			M342.101,78.62c-0.982,0.241-2.265-0.635-2.867-1.955c-0.602-1.32-0.293-2.586,0.689-2.827c0.982-0.24,2.267,0.635,2.868,1.955
			C343.392,77.114,343.083,78.379,342.101,78.62z"/>
		<path id="path822" inkscape:connector-curvature="0" sodipodi:nodetypes="ccccccc" fill="#209000" d="M512.816,310.007
			c9.06,0.441,17.572,0.102,26.633,0.545c1.641,1.395,0.469,4.82-0.626,4.574c-2.944-0.074-4.642-0.146-7.588-0.22
			c-0.1-2.886-7.465-2.413-7.253,0.091c-3.978,0.479-7.566-0.138-11.541-0.286C511.262,313.247,511.414,310.611,512.816,310.007
			L512.816,310.007z"/>
	</g>
</g>
</svg>
