<?xml version="1.0" encoding="utf-8"?>
<!-- Generator: Adobe Illustrator 16.0.0, SVG Export Plug-In . SVG Version: 6.00 Build 0)  -->
<!DOCTYPE svg PUBLIC "-//W3C//DTD SVG 1.1//EN" "http://www.w3.org/Graphics/SVG/1.1/DTD/svg11.dtd">
<svg version="1.1"
	 id="svg378" xmlns:dc="http://purl.org/dc/elements/1.1/" xmlns:svg="http://www.w3.org/2000/svg" xmlns:cc="http://creativecommons.org/ns#" xmlns:sodipodi="http://sodipodi.sourceforge.net/DTD/sodipodi-0.dtd" xmlns:inkscape="http://www.inkscape.org/namespaces/inkscape" xmlns:rdf="http://www.w3.org/1999/02/22-rdf-syntax-ns#" sodipodi:docname="sg.svg" inkscape:version="0.48.1 r9760"
	 xmlns="http://www.w3.org/2000/svg" xmlns:xlink="http://www.w3.org/1999/xlink" x="0px" y="0px" width="600px" height="400px"
	 viewBox="0 0 600 400" enable-background="new 0 0 600 400" xml:space="preserve">
<sodipodi:namedview  pagecolor="#ffffff" borderopacity="1" guidetolerance="10" bordercolor="#666666" gridtolerance="10" objecttolerance="10" inkscape:zoom="0.4021669" id="namedview3077" showgrid="false" inkscape:cx="531.495" inkscape:cy="354.33051" inkscape:window-width="1280" inkscape:window-height="723" inkscape:window-x="0" inkscape:window-y="24" inkscape:window-maximized="1" inkscape:current-layer="svg378" inkscape:pageshadow="2" inkscape:pageopacity="0">
	</sodipodi:namedview>
<rect fill="#DF0000" width="600" height="216.5"/>
<rect y="216.5" fill="#FFFFFF" width="600" height="183.5"/>
<g>
	<g id="flag" transform="matrix(0.7224893,0,0,0.7224893,-20,2.4115845e-6)" inkscape:label="#g5010">
		<path id="path141" inkscape:connector-curvature="0" fill="#FFFFFF" d="M246.433,40.542
			c-44.262,10.148-77.15,42.921-86.448,87.481c-12.633,60.537,26.799,119.811,87.454,132.464
			c-61.28,17.469-124.605-17.755-141.915-78.472c-17.307-60.713,17.918-124.037,78.633-141.348
			C205.47,34.59,225.093,34.552,246.433,40.542L246.433,40.542z"/>
		<polygon id="polygon142" fill="#FFFFFF" points="207.575,133.478 190.475,121.021 211.631,120.848 218.193,100.736 
			224.895,120.802 246.05,120.828 229.038,133.402 235.55,153.53 235.55,153.53 218.335,141.237 201.204,153.651 		"/>
		<polygon id="polygon144" fill="#FFFFFF" points="230.954,202.792 213.855,190.336 235.01,190.162 241.571,170.05 248.274,190.115 
			269.43,190.142 252.418,202.717 258.93,222.845 258.93,222.845 241.715,210.552 224.583,222.965 		"/>
		<polygon id="polygon145" fill="#FFFFFF" points="308.746,202.283 291.647,189.826 312.803,189.652 319.364,169.541 
			326.067,189.605 347.222,189.632 330.21,202.208 336.722,222.335 336.722,222.335 319.506,210.043 302.375,222.456 		"/>
		<polygon id="polygon146" fill="#FFFFFF" points="331.943,133.533 314.843,121.076 335.999,120.902 342.56,100.791 
			349.263,120.856 370.417,120.883 353.405,133.457 359.919,153.586 359.919,153.586 342.702,141.292 325.572,153.706 		"/>
		<polygon id="polygon147" fill="#FFFFFF" points="270.359,87.922 253.259,75.465 274.414,75.292 280.976,55.18 287.678,75.245 
			308.834,75.272 291.822,87.846 298.333,107.974 298.333,107.974 281.118,95.682 263.987,108.095 		"/>
	</g>
</g>
</svg>
