<?xml version="1.0" encoding="utf-8"?>
<!-- Generator: Adobe Illustrator 16.0.0, SVG Export Plug-In . SVG Version: 6.00 Build 0)  -->
<!DOCTYPE svg PUBLIC "-//W3C//DTD SVG 1.1//EN" "http://www.w3.org/Graphics/SVG/1.1/DTD/svg11.dtd">
<svg version="1.1"
	 id="svg548" xmlns:dc="http://purl.org/dc/elements/1.1/" xmlns:svg="http://www.w3.org/2000/svg" xmlns:cc="http://creativecommons.org/ns#" xmlns:sodipodi="http://sodipodi.sourceforge.net/DTD/sodipodi-0.dtd" xmlns:inkscape="http://www.inkscape.org/namespaces/inkscape" xmlns:rdf="http://www.w3.org/1999/02/22-rdf-syntax-ns#" inkscape:version="0.48.1 r9760" sodipodi:docname="ar.svg" sodipodi:version="0.32"
	 xmlns="http://www.w3.org/2000/svg" xmlns:xlink="http://www.w3.org/1999/xlink" x="0px" y="0px" width="600px" height="400px"
	 viewBox="0 0 600 400" enable-background="new 0 0 600 400" xml:space="preserve">
<sodipodi:namedview  inkscape:cy="256" inkscape:cx="256" showgrid="true" id="base" inkscape:zoom="0.98242188" inkscape:current-layer="svg548" inkscape:window-maximized="1" inkscape:window-y="24" inkscape:window-x="0" inkscape:window-height="723" inkscape:window-width="1280" inkscape:snap-global="false">
	
		<inkscape:grid  units="mm" color="#0000ff" empopacity="0.4" enabled="false" empspacing="5" visible="true" spacingx="20mm" opacity="0.2" spacingy="20mm" originy="0px" originx="0px" empcolor="#0000ff" type="xygrid" id="GridFromPre046Settings" snapvisiblegridlinesonly="true">
		</inkscape:grid>
</sodipodi:namedview>
<g id="flag" transform="matrix(0.75529899,0,0,1.1329482,-28.677986,-260.34849)" inkscape:label="#g561">
	<rect id="rect552" x="38.141" y="229.797" fill="#00C4FF" width="794.215" height="117.638"/>
	<rect id="rect554" x="38.141" y="347.435" fill="#FFFFFF" width="791.397" height="117.526"/>
	<rect id="rect555" x="38.141" y="464.961" fill="#00C4FF" width="794.215" height="118.008"/>
</g>
<g id="g904" transform="matrix(1.2385848,0,0,1.2385848,-158.39244,-42.013928)">
	
		<path id="path598" sodipodi:rx="26.49913" sodipodi:ry="26.369865" sodipodi:cy="221.32898" sodipodi:type="arc" sodipodi:cx="355.99329" fill="#FFD600" stroke="#000000" stroke-width="0.625" stroke-opacity="0.3866" d="
		M389.042,194.824c0,11.619-9.613,21.039-21.469,21.039c-11.858,0-21.47-9.42-21.47-21.039c0-11.62,9.612-21.041,21.47-21.041
		C379.429,173.783,389.042,183.204,389.042,194.824z"/>
	
		<path id="path561" inkscape:connector-curvature="0" sodipodi:nodetypes="ccc" fill="none" stroke="#000000" stroke-width="0.5" stroke-opacity="0.3866" d="
		M373.62,179.776c-2.715-0.636-5.495,0.255-6.373,0.192c-1.204,0-4.247-1.019-6.371,0"/>
	
		<path id="path562" inkscape:connector-curvature="0" sodipodi:nodetypes="cssc" fill="none" stroke="#000000" stroke-width="0.5" stroke-opacity="0.3866" d="
		M357.529,182.933c2.693-1.825,5.702,0.658,6.502,0.192c2.184-1.392,4.214-1.135,6.306,0.125c1.347,0.771,3.7-2.249,6.436,0.192"/>
	
		<path id="path564" inkscape:connector-curvature="0" sodipodi:nodetypes="ccccc" fill="#EFC000" stroke="#000000" stroke-width="0.5" stroke-opacity="0.3866" d="
		M354.508,186.052c1.423-1.124,6.064-1.167,10.837,1.464c0.722-0.17,1.182-0.658,0.591-1.336c-3.591-1.209-7.772-2.738-11.626-1.591
		C353.259,185.31,353.522,185.776,354.508,186.052L354.508,186.052z"/>
	
		<path id="path565" inkscape:connector-curvature="0" sodipodi:nodetypes="ccccc" fill="#EFC000" stroke="#000000" stroke-width="0.5" stroke-opacity="0.3866" d="
		M379.916,186.052c-1.424-1.124-6.065-1.167-10.838,1.464c-0.722-0.17-1.182-0.658-0.591-1.336
		c3.591-1.209,7.773-2.738,11.625-1.591C381.165,185.31,380.902,185.776,379.916,186.052L379.916,186.052z"/>
	
		<path id="path569" inkscape:connector-curvature="0" sodipodi:nodetypes="cccc" fill="#F0BF00" stroke="#000000" stroke-width="0.625" stroke-linejoin="round" stroke-opacity="0.3866" d="
		M352.602,189.808c4.707-2.928,10.925-1.4,13.531,0.191c-3.811-0.7-3.875-1.019-6.635-1.083
		C357.551,188.981,354.683,188.789,352.602,189.808z"/>
	
		<path id="path570" inkscape:connector-curvature="0" sodipodi:nodetypes="cc" fill="none" stroke="#000000" stroke-width="0.625" stroke-opacity="0.3866" d="
		M363.374,189.489c-2.299,4.647-6.305,4.71-9.13-0.255"/>
	
		<path id="path571" sodipodi:rx="3.6748049" sodipodi:ry="1.679909" sodipodi:cy="212.87613" sodipodi:type="arc" sodipodi:cx="341.86151" fill-opacity="0.368" d="
		M362.148,190.907c-0.682,0.743-2.35,1.189-3.725,0.99c-1.376-0.199-1.94-0.965-1.258-1.71c0.681-0.746,2.35-1.189,3.725-0.99
		C362.267,189.395,362.829,190.161,362.148,190.907z"/>
	
		<path id="path572" sodipodi:rx="0.73496997" sodipodi:ry="0.41997501" sodipodi:cy="212.56116" sodipodi:type="arc" sodipodi:cx="343.33142" fill="#FFD700" d="
		M358.772,189.961c0.07,0.173-0.147,0.404-0.485,0.515c-0.337,0.11-0.669,0.06-0.74-0.114c-0.069-0.173,0.147-0.405,0.486-0.515
		C358.371,189.737,358.701,189.787,358.772,189.961z"/>
	
		<path id="path573" inkscape:connector-curvature="0" sodipodi:nodetypes="cccc" fill="none" stroke="#000000" stroke-width="0.625" stroke-opacity="0.3866" d="
		M364.079,197.49c-2.652,4.32,0.962,1.273,1.549,2.524c1.031,1.16,2.064,0.886,2.675,0c0.609-1.001,4.459,1.887,1.83-2.387"/>
	
		<path id="path574" inkscape:connector-curvature="0" sodipodi:nodetypes="ccccc" fill="none" stroke="#000000" stroke-width="0.625" stroke-linecap="round" stroke-linejoin="round" stroke-opacity="0.3866" d="
		M359.362,204.653c2.276-0.251,6.102-1.933,7.463-0.546c1.172-1.251,5.303,0.363,7.954,0.546c-1.924,1.135-5.82,0.363-7.674,1.567
		C365.299,205.153,361.31,206.13,359.362,204.653L359.362,204.653z"/>
	
		<path id="path575" inkscape:connector-curvature="0" sodipodi:nodetypes="ccsc" fill="none" stroke="#000000" stroke-width="0.625" stroke-linejoin="round" stroke-opacity="0.3866" d="
		M363.024,206.63c3.449,1.366,4.223,1.159,7.955,0.136c-0.774,1.979-2.753,2.395-3.872,2.319
		C365.944,209.013,364.362,209.153,363.024,206.63z"/>
	
		<path id="path599" inkscape:connector-curvature="0" sodipodi:nodetypes="cscsss" fill="#FFD700" stroke="#000000" stroke-width="0.625" stroke-linejoin="round" stroke-opacity="0.3866" d="
		M360.316,217.836c-2.488,6.311,0.237,9.311-0.98,12.709c-1.172,3.273-6.271,11.383-2.391,14.906
		c3.085,0.139-0.533-4.471,5.637-13.006c2.864-3.997-0.747-6.528,2.268-14.37C365.132,217.402,360.708,216.841,360.316,217.836z"/>
	
		<path id="path600" inkscape:connector-curvature="0" sodipodi:nodetypes="ccss" fill="#FFD700" stroke="#000000" stroke-width="0.625" stroke-linejoin="round" stroke-opacity="0.3866" d="
		M365.586,218.312c-0.956,7.082-0.388,28.841,1.9,27.971c2.533,0.792,2.867-21.317,2.635-27.854
		C370.089,217.705,365.721,217.254,365.586,218.312z"/>
	
		<path id="path605" inkscape:connector-curvature="0" sodipodi:nodetypes="cscsss" fill="none" stroke="#000000" stroke-width="0.625" stroke-linejoin="round" stroke-opacity="0.3866" d="
		M355.941,215.887c-2.776,6.196-6.888,6.494-8.47,9.748c-1.523,3.133-3.733,12.385-9.05,12.273
		c-2.304-1.992,3.608-2.834,5.358-13.117c0.84-4.797,5.246-4.158,8.751-11.809C352.812,212.312,356.379,214.91,355.941,215.887z"/>
	
		<path id="path607" inkscape:connector-curvature="0" sodipodi:nodetypes="cscsss" fill="none" stroke="#000000" stroke-width="0.625" stroke-linejoin="round" stroke-opacity="0.3866" d="
		M345.746,206.316c-6.394,2.694-6.698,6.68-10.055,8.214c-3.233,1.478-12.78,3.623-12.661,8.776
		c2.056,2.231,2.923-3.498,13.533-5.198c4.95-0.816,4.289-5.087,12.182-8.488C349.434,209.346,346.752,205.891,345.746,206.316z"/>
	
		<path id="path609" inkscape:connector-curvature="0" sodipodi:nodetypes="cscsss" fill="none" stroke="#000000" stroke-width="0.625" stroke-linejoin="round" stroke-opacity="0.3866" d="
		M343.752,201.852c-6.498,2.449-9.609-0.175-13.109,1.024c-3.37,1.155-11.71,6.143-15.368,2.402c-0.16-2.988,4.618,0.49,13.389-5.54
		c4.109-2.796,6.741,0.688,14.817-2.279C344.171,197.184,344.775,201.469,343.752,201.852z"/>
	
		<path id="path612" inkscape:connector-curvature="0" sodipodi:nodetypes="ccss" fill="none" stroke="#000000" stroke-width="0.625" stroke-linejoin="round" stroke-opacity="0.3866" d="
		M360.566,217.301c-2.033,6.867-11.493,26.607-13.234,24.926c-2.648-0.252,6.128-20.661,9.026-26.568
		C356.684,215.007,360.877,216.279,360.566,217.301z"/>
	
		<path id="path613" inkscape:connector-curvature="0" sodipodi:nodetypes="ccss" fill="none" stroke="#000000" stroke-width="0.625" stroke-linejoin="round" stroke-opacity="0.3866" d="
		M351.625,212.955c-4.448,5.697-20.612,20.81-21.611,18.633c-2.377-1.159,13.396-17.134,18.297-21.633
		C348.856,209.461,352.296,212.111,351.625,212.955z"/>
	
		<path id="path616" inkscape:connector-curvature="0" sodipodi:nodetypes="ccss" fill="none" stroke="#000000" stroke-width="0.625" stroke-linejoin="round" stroke-opacity="0.3866" d="
		M346.016,205.663c-6.355,3.621-27.246,11.615-27.313,9.235c-1.741-1.95,19.129-10.888,25.428-13.234
		C344.831,201.411,346.966,205.132,346.016,205.663z"/>
	
		<path id="path617" inkscape:connector-curvature="0" sodipodi:nodetypes="cccc" fill="none" stroke="#000000" stroke-width="0.625" stroke-opacity="0.0818" d="
		M364.079,197.49c-2.652,4.32,0.962,1.273,1.549,2.524c1.031,1.16,2.064,0.886,2.675,0c0.609-1.001,4.459,1.887,1.83-2.387"/>
	
		<path id="path618" inkscape:connector-curvature="0" sodipodi:nodetypes="ccccc" fill="#F0BF00" stroke="#000000" stroke-width="0.625" stroke-linecap="round" stroke-linejoin="round" stroke-opacity="0.0818" d="
		M359.362,204.653c2.276-0.251,6.102-1.933,7.463-0.546c1.172-1.251,5.303,0.363,7.954,0.546c-1.924,1.135-5.82,0.363-7.674,1.567
		C365.299,205.153,361.31,206.13,359.362,204.653L359.362,204.653z"/>
	
		<path id="path619" inkscape:connector-curvature="0" sodipodi:nodetypes="ccsc" fill="#F0BF00" stroke="#000000" stroke-width="0.625" stroke-linejoin="round" stroke-opacity="0.0818" d="
		M363.024,206.63c3.449,1.366,4.223,1.159,7.955,0.136c-0.774,1.979-2.753,2.395-3.872,2.319
		C365.944,209.013,364.362,209.153,363.024,206.63z"/>
	
		<path id="path630" inkscape:connector-curvature="0" sodipodi:nodetypes="cscsss" fill="#FFD700" stroke="#000000" stroke-width="0.625" stroke-linejoin="round" stroke-opacity="0.1487" d="
		M355.941,215.887c-2.776,6.196-6.888,6.494-8.47,9.748c-1.523,3.133-3.733,12.385-9.05,12.273
		c-2.304-1.992,3.608-2.834,5.358-13.117c0.84-4.797,5.246-4.158,8.751-11.809C352.812,212.312,356.379,214.91,355.941,215.887z"/>
	
		<path id="path632" inkscape:connector-curvature="0" sodipodi:nodetypes="cscsss" fill="#FFD700" stroke="#000000" stroke-width="0.625" stroke-linejoin="round" stroke-opacity="0.1487" d="
		M345.746,206.316c-6.394,2.694-6.698,6.68-10.055,8.214c-3.233,1.478-12.78,3.623-12.661,8.776
		c2.056,2.231,2.923-3.498,13.533-5.198c4.95-0.816,4.289-5.087,12.182-8.488C349.434,209.346,346.752,205.891,345.746,206.316z"/>
	
		<path id="path634" inkscape:connector-curvature="0" sodipodi:nodetypes="cscsss" fill="#FFD700" stroke="#000000" stroke-width="0.625" stroke-linejoin="round" stroke-opacity="0.1487" d="
		M343.752,201.852c-6.498,2.449-9.609-0.175-13.109,1.024c-3.37,1.155-11.71,6.143-15.368,2.402c-0.16-2.988,4.618,0.49,13.389-5.54
		c4.109-2.796,6.741,0.688,14.817-2.279C344.171,197.184,344.775,201.469,343.752,201.852z"/>
	
		<path id="path637" inkscape:connector-curvature="0" sodipodi:nodetypes="ccss" fill="#FFD700" stroke="#000000" stroke-width="0.625" stroke-linejoin="round" stroke-opacity="0.1487" d="
		M360.566,217.301c-2.033,6.867-11.493,26.607-13.234,24.926c-2.648-0.252,6.128-20.661,9.026-26.568
		C356.684,215.007,360.877,216.279,360.566,217.301z"/>
	
		<path id="path638" inkscape:connector-curvature="0" sodipodi:nodetypes="ccss" fill="#FFD700" stroke="#000000" stroke-width="0.625" stroke-linejoin="round" stroke-opacity="0.1487" d="
		M351.625,212.955c-4.448,5.697-20.612,20.81-21.611,18.633c-2.377-1.159,13.396-17.134,18.297-21.633
		C348.856,209.461,352.296,212.111,351.625,212.955z"/>
	
		<path id="path641" inkscape:connector-curvature="0" sodipodi:nodetypes="ccss" fill="#FFD700" stroke="#000000" stroke-width="0.625" stroke-linejoin="round" stroke-opacity="0.1487" d="
		M346.016,205.663c-6.355,3.621-27.246,11.615-27.313,9.235c-1.741-1.95,19.129-10.888,25.428-13.234
		C344.831,201.411,346.966,205.132,346.016,205.663z"/>
	
		<path id="path602" inkscape:connector-curvature="0" sodipodi:nodetypes="ccss" fill="#FFD700" stroke="#000000" stroke-width="0.625" stroke-linejoin="round" stroke-opacity="0.3866" d="
		M391.871,196.866c7.307,0.926,29.762,0.375,28.864-1.843c0.817-2.454-21.996-2.778-28.742-2.553
		C391.245,192.503,390.779,196.735,391.871,196.866z"/>
	
		<path id="path604" inkscape:connector-curvature="0" sodipodi:nodetypes="cscsss" fill="#FFD700" stroke="#000000" stroke-width="0.625" stroke-linejoin="round" stroke-opacity="0.3866" d="
		M374.938,218.149c2.488,6.311-0.237,9.31,0.981,12.708c1.173,3.273,6.271,11.383,2.392,14.906
		c-3.086,0.14,0.531-4.471-5.637-13.005c-2.862-3.998,0.747-6.528-2.268-14.372C370.122,217.714,374.547,217.156,374.938,218.149z"
		/>
	
		<path id="path606" inkscape:connector-curvature="0" sodipodi:nodetypes="cscsss" fill="#FFD700" stroke="#000000" stroke-width="0.625" stroke-linejoin="round" stroke-opacity="0.3866" d="
		M379.498,216.2c2.774,6.196,6.888,6.494,8.47,9.748c1.523,3.133,3.733,12.387,9.048,12.275c2.304-1.992-3.605-2.835-5.358-13.117
		c-0.839-4.797-5.245-4.158-8.75-11.809C382.627,212.626,379.061,215.223,379.498,216.2z"/>
	
		<path id="path608" inkscape:connector-curvature="0" sodipodi:nodetypes="cscsss" fill="#FFD700" stroke="#000000" stroke-width="0.625" stroke-linejoin="round" stroke-opacity="0.3866" d="
		M389.698,206.472c6.394,2.694,6.697,6.68,10.054,8.216c3.233,1.478,12.779,3.623,12.661,8.775
		c-2.055,2.234-2.924-3.498-13.533-5.197c-4.95-0.816-4.289-5.087-12.18-8.487C386.008,209.502,388.69,206.048,389.698,206.472z"/>
	
		<path id="path610" inkscape:connector-curvature="0" sodipodi:nodetypes="cscsss" fill="#FFD700" stroke="#000000" stroke-width="0.625" stroke-linejoin="round" stroke-opacity="0.3866" d="
		M391.506,201.852c6.498,2.449,9.61-0.175,13.109,1.024c3.37,1.155,11.707,6.143,15.367,2.402c0.161-2.988-4.617,0.49-13.388-5.54
		c-4.109-2.796-6.741,0.688-14.818-2.279C391.087,197.184,390.483,201.469,391.506,201.852z"/>
	
		<path id="path611" inkscape:connector-curvature="0" sodipodi:nodetypes="ccss" fill="#FFD700" stroke="#000000" stroke-width="0.625" stroke-linejoin="round" stroke-opacity="0.3866" d="
		M374.835,217.615c2.033,6.863,11.496,26.607,13.237,24.926c2.648-0.252-6.128-20.661-9.026-26.568
		C378.719,215.32,374.525,216.593,374.835,217.615z"/>
	
		<path id="path614" inkscape:connector-curvature="0" sodipodi:nodetypes="ccss" fill="#FFD700" stroke="#000000" stroke-width="0.625" stroke-linejoin="round" stroke-opacity="0.3866" d="
		M383.39,212.955c4.448,5.697,20.612,20.81,21.611,18.633c2.376-1.159-13.397-17.134-18.294-21.633
		C386.159,209.461,382.72,212.111,383.39,212.955z"/>
	
		<path id="path615" inkscape:connector-curvature="0" sodipodi:nodetypes="ccss" fill="#FFD700" stroke="#000000" stroke-width="0.625" stroke-linejoin="round" stroke-opacity="0.3866" d="
		M389.515,205.663c6.355,3.621,27.247,11.615,27.313,9.235c1.742-1.95-19.128-10.888-25.428-13.234
		C390.701,201.411,388.565,205.132,389.515,205.663z"/>
	
		<path id="path631" inkscape:connector-curvature="0" sodipodi:nodetypes="cscsss" fill="#FFD700" stroke="#000000" stroke-width="0.625" stroke-linejoin="round" stroke-opacity="0.1487" d="
		M379.498,216.2c2.774,6.196,6.888,6.494,8.47,9.748c1.523,3.133,3.733,12.387,9.048,12.275c2.304-1.992-3.605-2.835-5.358-13.117
		c-0.839-4.797-5.245-4.158-8.75-11.809C382.627,212.626,379.061,215.223,379.498,216.2z"/>
	
		<path id="path633" inkscape:connector-curvature="0" sodipodi:nodetypes="cscsss" fill="#FFD700" stroke="#000000" stroke-width="0.625" stroke-linejoin="round" stroke-opacity="0.1487" d="
		M389.698,206.472c6.394,2.694,6.697,6.68,10.054,8.216c3.233,1.478,12.779,3.623,12.661,8.775
		c-2.055,2.234-2.924-3.498-13.533-5.197c-4.95-0.816-4.289-5.087-12.18-8.487C386.008,209.502,388.69,206.048,389.698,206.472z"/>
	
		<path id="path635" inkscape:connector-curvature="0" sodipodi:nodetypes="cscsss" fill="#FFD700" stroke="#000000" stroke-width="0.625" stroke-linejoin="round" stroke-opacity="0.1487" d="
		M391.506,201.852c6.498,2.449,9.61-0.175,13.109,1.024c3.37,1.155,11.707,6.143,15.367,2.402c0.161-2.988-4.617,0.49-13.388-5.54
		c-4.109-2.796-6.741,0.688-14.818-2.279C391.087,197.184,390.483,201.469,391.506,201.852z"/>
	
		<path id="path636" inkscape:connector-curvature="0" sodipodi:nodetypes="ccss" fill="#FFD700" stroke="#000000" stroke-width="0.625" stroke-linejoin="round" stroke-opacity="0.1487" d="
		M374.835,217.615c2.033,6.863,11.496,26.607,13.237,24.926c2.648-0.252-6.128-20.661-9.026-26.568
		C378.719,215.32,374.525,216.593,374.835,217.615z"/>
	
		<path id="path639" inkscape:connector-curvature="0" sodipodi:nodetypes="ccss" fill="#FFD700" stroke="#000000" stroke-width="0.625" stroke-linejoin="round" stroke-opacity="0.1487" d="
		M383.39,212.955c4.448,5.697,20.612,20.81,21.611,18.633c2.376-1.159-13.397-17.134-18.294-21.633
		C386.159,209.461,382.72,212.111,383.39,212.955z"/>
	
		<path id="path640" inkscape:connector-curvature="0" sodipodi:nodetypes="ccss" fill="#FFD700" stroke="#000000" stroke-width="0.625" stroke-linejoin="round" stroke-opacity="0.1487" d="
		M389.515,205.663c6.355,3.621,27.247,11.615,27.313,9.235c1.742-1.95-19.128-10.888-25.428-13.234
		C390.701,201.411,388.565,205.132,389.515,205.663z"/>
	
		<path id="path686" inkscape:connector-curvature="0" sodipodi:nodetypes="ccss" fill="#FFD700" stroke="#000000" stroke-width="0.625" stroke-linejoin="round" stroke-opacity="0.3866" d="
		M343.323,192.728c-7.308-0.926-29.763-0.375-28.865,1.842c-0.816,2.454,21.997,2.779,28.743,2.552
		C343.949,197.091,344.413,192.858,343.323,192.728z"/>
	
		<path id="path687" inkscape:connector-curvature="0" sodipodi:nodetypes="cscsss" fill="#FFD700" stroke="#000000" stroke-width="0.625" stroke-linejoin="round" stroke-opacity="0.3866" d="
		M360.255,171.445c-2.488-6.311,0.237-9.31-0.981-12.71c-1.173-3.271-6.271-11.381-2.391-14.906
		c3.084-0.138-0.533,4.471,5.638,13.006c2.861,3.997-0.748,6.528,2.267,14.37C365.07,171.878,360.646,172.438,360.255,171.445z"/>
	
		<path id="path688" inkscape:connector-curvature="0" sodipodi:nodetypes="cscsss" fill="#FFD700" stroke="#000000" stroke-width="0.625" stroke-linejoin="round" stroke-opacity="0.3866" d="
		M355.697,173.394c-2.777-6.196-6.889-6.494-8.472-9.748c-1.524-3.133-3.732-12.386-9.049-12.274
		c-2.305,1.991,3.608,2.834,5.357,13.117c0.84,4.798,5.246,4.159,8.751,11.809C352.566,176.967,356.133,174.37,355.697,173.394z"/>
	
		<path id="path689" inkscape:connector-curvature="0" sodipodi:nodetypes="cscsss" fill="#FFD700" stroke="#000000" stroke-width="0.625" stroke-linejoin="round" stroke-opacity="0.3866" d="
		M345.496,183.122c-6.393-2.694-6.698-6.681-10.054-8.214c-3.233-1.478-12.78-3.623-12.663-8.776
		c2.057-2.231,2.924,3.498,13.534,5.198c4.951,0.816,4.289,5.086,12.182,8.486C349.186,180.092,346.502,183.546,345.496,183.122z"/>
	
		<path id="path690" inkscape:connector-curvature="0" sodipodi:nodetypes="cscsss" fill="#FFD700" stroke="#000000" stroke-width="0.625" stroke-linejoin="round" stroke-opacity="0.3866" d="
		M343.686,187.74c-6.498-2.447-9.609,0.176-13.109-1.023c-3.37-1.154-11.71-6.142-15.368-2.402c-0.16,2.988,4.617-0.49,13.389,5.538
		c4.109,2.797,6.741-0.688,14.817,2.28C344.106,192.41,344.71,188.127,343.686,187.74z"/>
	
		<path id="path691" inkscape:connector-curvature="0" sodipodi:nodetypes="ccss" fill="#FFD700" stroke="#000000" stroke-width="0.625" stroke-linejoin="round" stroke-opacity="0.3866" d="
		M360.355,171.979c-2.033-6.866-11.493-26.607-13.234-24.926c-2.648,0.252,6.128,20.661,9.027,26.568
		C356.476,174.272,360.669,173,360.355,171.979z"/>
	
		<path id="path692" inkscape:connector-curvature="0" sodipodi:nodetypes="ccss" fill="#FFD700" stroke="#000000" stroke-width="0.625" stroke-linejoin="round" stroke-opacity="0.3866" d="
		M351.802,176.638c-4.448-5.695-20.612-20.809-21.611-18.633c-2.378,1.159,13.396,17.134,18.295,21.633
		C349.035,180.133,352.473,177.481,351.802,176.638z"/>
	
		<path id="path693" inkscape:connector-curvature="0" sodipodi:nodetypes="ccss" fill="#FFD700" stroke="#000000" stroke-width="0.625" stroke-linejoin="round" stroke-opacity="0.3866" d="
		M345.677,183.929c-6.354-3.62-27.245-11.615-27.312-9.234c-1.741,1.95,19.128,10.887,25.428,13.233
		C344.493,188.182,346.629,184.461,345.677,183.929z"/>
	
		<path id="path694" inkscape:connector-curvature="0" sodipodi:nodetypes="cscsss" fill="#FFD700" stroke="#000000" stroke-width="0.625" stroke-linejoin="round" stroke-opacity="0.1487" d="
		M355.697,173.394c-2.777-6.196-6.889-6.494-8.472-9.748c-1.524-3.133-3.732-12.386-9.049-12.274
		c-2.305,1.991,3.608,2.834,5.357,13.117c0.84,4.798,5.246,4.159,8.751,11.809C352.566,176.967,356.133,174.37,355.697,173.394z"/>
	
		<path id="path695" inkscape:connector-curvature="0" sodipodi:nodetypes="cscsss" fill="#FFD700" stroke="#000000" stroke-width="0.625" stroke-linejoin="round" stroke-opacity="0.1487" d="
		M345.496,183.122c-6.393-2.694-6.698-6.681-10.054-8.214c-3.233-1.478-12.78-3.623-12.663-8.776
		c2.057-2.231,2.924,3.498,13.534,5.198c4.951,0.816,4.289,5.086,12.182,8.486C349.186,180.092,346.502,183.546,345.496,183.122z"/>
	
		<path id="path696" inkscape:connector-curvature="0" sodipodi:nodetypes="cscsss" fill="#FFD700" stroke="#000000" stroke-width="0.625" stroke-linejoin="round" stroke-opacity="0.1487" d="
		M343.686,187.74c-6.498-2.447-9.609,0.176-13.109-1.023c-3.37-1.154-11.71-6.142-15.368-2.402c-0.16,2.988,4.617-0.49,13.389,5.538
		c4.109,2.797,6.741-0.688,14.817,2.28C344.106,192.41,344.71,188.127,343.686,187.74z"/>
	
		<path id="path697" inkscape:connector-curvature="0" sodipodi:nodetypes="ccss" fill="#FFD700" stroke="#000000" stroke-width="0.625" stroke-linejoin="round" stroke-opacity="0.1487" d="
		M360.355,171.979c-2.033-6.866-11.493-26.607-13.234-24.926c-2.648,0.252,6.128,20.661,9.027,26.568
		C356.476,174.272,360.669,173,360.355,171.979z"/>
	
		<path id="path698" inkscape:connector-curvature="0" sodipodi:nodetypes="ccss" fill="#FFD700" stroke="#000000" stroke-width="0.625" stroke-linejoin="round" stroke-opacity="0.1487" d="
		M351.802,176.638c-4.448-5.695-20.612-20.809-21.611-18.633c-2.378,1.159,13.396,17.134,18.295,21.633
		C349.035,180.133,352.473,177.481,351.802,176.638z"/>
	
		<path id="path699" inkscape:connector-curvature="0" sodipodi:nodetypes="ccss" fill="#FFD700" stroke="#000000" stroke-width="0.625" stroke-linejoin="round" stroke-opacity="0.1487" d="
		M345.677,183.929c-6.354-3.62-27.245-11.615-27.312-9.234c-1.741,1.95,19.128,10.887,25.428,13.233
		C344.493,188.182,346.629,184.461,345.677,183.929z"/>
	
		<path id="path701" inkscape:connector-curvature="0" sodipodi:nodetypes="ccss" fill="#FFD700" stroke="#000000" stroke-width="0.625" stroke-linejoin="round" stroke-opacity="0.3866" d="
		M369.568,171.274c0.956-7.082,0.388-28.842-1.9-27.971c-2.533-0.792-2.866,21.317-2.633,27.853
		C365.066,171.88,369.436,172.331,369.568,171.274z"/>
	
		<path id="path702" inkscape:connector-curvature="0" sodipodi:nodetypes="cscsss" fill="#FFD700" stroke="#000000" stroke-width="0.625" stroke-linejoin="round" stroke-opacity="0.3866" d="
		M391.533,187.682c6.513-2.411,9.605,0.23,13.115-0.949c3.376-1.136,11.745-6.077,15.381-2.316
		c0.143,2.988-4.614-0.516-13.421,5.464c-4.128,2.772-6.737-0.725-14.832,2.197C391.085,192.35,390.507,188.062,391.533,187.682z"/>
	
		<path id="path703" inkscape:connector-curvature="0" sodipodi:nodetypes="cscsss" fill="#FFD700" stroke="#000000" stroke-width="0.625" stroke-linejoin="round" stroke-opacity="0.3866" d="
		M389.521,183.264c6.394-2.689,6.702-6.676,10.059-8.209c3.233-1.478,12.782-3.617,12.666-8.769
		c-2.055-2.233-2.924,3.496-13.535,5.192c-4.951,0.813-4.292,5.084-12.186,8.48C385.834,180.233,388.512,183.689,389.521,183.264z"
		/>
	
		<path id="path704" inkscape:connector-curvature="0" sodipodi:nodetypes="cscsss" fill="#FFD700" stroke="#000000" stroke-width="0.625" stroke-linejoin="round" stroke-opacity="0.3866" d="
		M379.483,173.38c2.78-6.196,6.893-6.491,8.477-9.744c1.525-3.133,3.739-12.385,9.056-12.271c2.302,1.993-3.611,2.834-5.366,13.114
		c-0.842,4.797-5.248,4.156-8.758,11.805C382.609,176.955,379.046,174.356,379.483,173.38z"/>
	
		<path id="path705" inkscape:connector-curvature="0" sodipodi:nodetypes="cscsss" fill="#FFD700" stroke="#000000" stroke-width="0.625" stroke-linejoin="round" stroke-opacity="0.3866" d="
		M374.717,171.626c2.525-6.297-0.181-9.311,1.055-12.703c1.192-3.266,6.341-11.347,2.48-14.893
		c-3.084-0.156,0.506,4.474-5.715,12.975c-2.885,3.982,0.708,6.532-2.353,14.359C369.898,172.035,374.318,172.618,374.717,171.626z"
		/>
	
		<path id="path706" inkscape:connector-curvature="0" sodipodi:nodetypes="ccss" fill="#FFD700" stroke="#000000" stroke-width="0.625" stroke-linejoin="round" stroke-opacity="0.3866" d="
		M390.981,187.781c7.083-1.97,27.457-11.138,25.721-12.826c-0.26-2.566-21.32,5.939-27.416,8.746
		C388.614,184.019,389.928,188.083,390.981,187.781z"/>
	
		<path id="path707" inkscape:connector-curvature="0" sodipodi:nodetypes="ccss" fill="#FFD700" stroke="#000000" stroke-width="0.625" stroke-linejoin="round" stroke-opacity="0.3866" d="
		M386.172,179.492c5.877-4.311,21.474-19.975,19.229-20.943c-1.195-2.305-17.68,12.98-22.323,17.728
		C382.567,176.809,385.303,180.141,386.172,179.492z"/>
	
		<path id="path708" inkscape:connector-curvature="0" sodipodi:nodetypes="ccss" fill="#FFD700" stroke="#000000" stroke-width="0.625" stroke-linejoin="round" stroke-opacity="0.3866" d="
		M378.648,173.555c3.736-6.157,11.988-26.402,9.531-26.467c-2.014-1.688-11.235,18.536-13.659,24.641
		C374.26,172.408,378.101,174.477,378.648,173.555z"/>
	
		<path id="path709" inkscape:connector-curvature="0" sodipodi:nodetypes="cscsss" fill="#FFD700" stroke="#000000" stroke-width="0.625" stroke-linejoin="round" stroke-opacity="0.1487" d="
		M389.521,183.264c6.394-2.689,6.702-6.676,10.059-8.209c3.233-1.478,12.782-3.617,12.666-8.769
		c-2.055-2.233-2.924,3.496-13.535,5.192c-4.951,0.813-4.292,5.084-12.186,8.48C385.834,180.233,388.512,183.689,389.521,183.264z"
		/>
	
		<path id="path710" inkscape:connector-curvature="0" sodipodi:nodetypes="cscsss" fill="#FFD700" stroke="#000000" stroke-width="0.625" stroke-linejoin="round" stroke-opacity="0.1487" d="
		M379.483,173.38c2.78-6.196,6.893-6.491,8.477-9.744c1.525-3.133,3.739-12.385,9.056-12.271c2.302,1.993-3.611,2.834-5.366,13.114
		c-0.842,4.797-5.248,4.156-8.758,11.805C382.609,176.955,379.046,174.356,379.483,173.38z"/>
	
		<path id="path711" inkscape:connector-curvature="0" sodipodi:nodetypes="cscsss" fill="#FFD700" stroke="#000000" stroke-width="0.625" stroke-linejoin="round" stroke-opacity="0.1487" d="
		M374.717,171.626c2.525-6.297-0.181-9.311,1.055-12.703c1.192-3.266,6.341-11.347,2.48-14.893
		c-3.084-0.156,0.506,4.474-5.715,12.975c-2.885,3.982,0.708,6.532-2.353,14.359C369.898,172.035,374.318,172.618,374.717,171.626z"
		/>
	
		<path id="path712" inkscape:connector-curvature="0" sodipodi:nodetypes="ccss" fill="#FFD700" stroke="#000000" stroke-width="0.625" stroke-linejoin="round" stroke-opacity="0.1487" d="
		M390.981,187.781c7.083-1.97,27.457-11.138,25.721-12.826c-0.26-2.566-21.32,5.939-27.416,8.746
		C388.614,184.019,389.928,188.083,390.981,187.781z"/>
	
		<path id="path713" inkscape:connector-curvature="0" sodipodi:nodetypes="ccss" fill="#FFD700" stroke="#000000" stroke-width="0.625" stroke-linejoin="round" stroke-opacity="0.1487" d="
		M386.172,179.492c5.877-4.311,21.474-19.975,19.229-20.943c-1.195-2.305-17.68,12.98-22.323,17.728
		C382.567,176.809,385.303,180.141,386.172,179.492z"/>
	
		<path id="path714" inkscape:connector-curvature="0" sodipodi:nodetypes="ccss" fill="#FFD700" stroke="#000000" stroke-width="0.625" stroke-linejoin="round" stroke-opacity="0.1487" d="
		M378.648,173.555c3.736-6.157,11.988-26.402,9.531-26.467c-2.014-1.688-11.235,18.536-13.659,24.641
		C374.26,172.408,378.101,174.477,378.648,173.555z"/>
	<path id="path555" inkscape:connector-curvature="0" fill="none" stroke="#000000" stroke-opacity="0.0781" d="M211.946,204.503"/>
	<path id="path577" inkscape:connector-curvature="0" fill="none" stroke="#000000" stroke-opacity="0.171" d="M351.239,184.656
		h-1.971"/>
	<path id="path578" inkscape:connector-curvature="0" fill="none" stroke="#000000" stroke-opacity="0.171" d="M350.745,185.884
		h-1.971"/>
	<path id="path579" inkscape:connector-curvature="0" fill="none" stroke="#000000" stroke-opacity="0.171" d="M350.533,187.044
		h-2.182"/>
	<path id="path580" inkscape:connector-curvature="0" fill="none" stroke="#000000" stroke-opacity="0.171" d="M349.901,188.135
		h-2.182"/>
	<path id="path581" inkscape:connector-curvature="0" fill="none" stroke="#000000" stroke-opacity="0.171" d="M349.76,189.295
		h-2.604"/>
	<path id="path582" inkscape:connector-curvature="0" fill="none" stroke="#000000" stroke-opacity="0.171" d="M349.83,190.456
		h-2.887"/>
	<path id="path583" inkscape:connector-curvature="0" fill="none" stroke="#000000" stroke-opacity="0.171" d="M349.407,191.75
		h-2.745"/>
	<path id="path584" inkscape:connector-curvature="0" fill="none" stroke="#000000" stroke-opacity="0.171" d="M349.549,193.047
		h-2.675"/>
	<path id="path585" inkscape:connector-curvature="0" fill="none" stroke="#000000" stroke-opacity="0.171" d="M349.549,194.275
		h-2.746"/>
	<path id="path586" inkscape:connector-curvature="0" fill="none" stroke="#000000" stroke-opacity="0.171" d="M350.253,195.708
		h-3.45"/>
	<path id="path587" inkscape:connector-curvature="0" fill="none" stroke="#000000" stroke-opacity="0.171" d="M349.972,197.345
		h-2.957"/>
	<path id="path588" inkscape:connector-curvature="0" fill="none" stroke="#000000" stroke-opacity="0.0781" d="M350.041,198.506
		h-2.957"/>
	<path id="path589" inkscape:connector-curvature="0" fill="none" stroke="#000000" stroke-opacity="0.0781" d="M350.533,200.073
		h-2.956"/>
	<path id="path590" inkscape:connector-curvature="0" fill="none" stroke="#000000" stroke-opacity="0.0781" d="M350.604,201.439
		h-2.957"/>
	<path id="path591" inkscape:connector-curvature="0" fill="none" stroke="#000000" stroke-opacity="0.0781" d="M351.448,202.939
		h-2.957"/>
	<path id="path592" inkscape:connector-curvature="0" fill="none" stroke="#000000" stroke-opacity="0.0781" d="M352.294,204.167
		h-2.957"/>
	<path id="path593" inkscape:connector-curvature="0" fill="none" stroke="#000000" stroke-opacity="0.0781" d="M353.069,205.6
		h-2.957"/>
	<path id="path594" inkscape:connector-curvature="0" fill="none" stroke="#000000" stroke-opacity="0.0781" d="M353.984,206.964
		h-2.957"/>
	<path id="path595" inkscape:connector-curvature="0" fill="none" stroke="#000000" stroke-opacity="0.0781" d="M354.618,208.259
		h-2.957"/>
	<path id="path596" inkscape:connector-curvature="0" fill="none" stroke="#000000" stroke-opacity="0.0781" d="M355.954,209.828
		h-2.957"/>
	<path id="path597" inkscape:connector-curvature="0" fill="none" stroke="#000000" stroke-opacity="0.0781" d="M356.517,211.261
		h-1.9"/>
	<path id="path620" inkscape:connector-curvature="0" fill="none" stroke="#000000" stroke-opacity="0.0781" d="M350.041,198.506
		h-2.957"/>
	<path id="path621" inkscape:connector-curvature="0" fill="none" stroke="#000000" stroke-opacity="0.0781" d="M350.533,200.073
		h-2.956"/>
	<path id="path622" inkscape:connector-curvature="0" fill="none" stroke="#000000" stroke-opacity="0.0781" d="M350.604,201.439
		h-2.957"/>
	<path id="path623" inkscape:connector-curvature="0" fill="none" stroke="#000000" stroke-opacity="0.0781" d="M351.448,202.939
		h-2.957"/>
	<path id="path624" inkscape:connector-curvature="0" fill="none" stroke="#000000" stroke-opacity="0.0781" d="M352.294,204.167
		h-2.957"/>
	<path id="path625" inkscape:connector-curvature="0" fill="none" stroke="#000000" stroke-opacity="0.0781" d="M353.069,205.6
		h-2.957"/>
	<path id="path626" inkscape:connector-curvature="0" fill="none" stroke="#000000" stroke-opacity="0.0781" d="M353.984,206.964
		h-2.957"/>
	<path id="path627" inkscape:connector-curvature="0" fill="none" stroke="#000000" stroke-opacity="0.0781" d="M354.618,208.259
		h-2.957"/>
	<path id="path628" inkscape:connector-curvature="0" fill="none" stroke="#000000" stroke-opacity="0.0781" d="M355.954,209.828
		h-2.957"/>
	<path id="path629" inkscape:connector-curvature="0" fill="none" stroke="#000000" stroke-opacity="0.0781" d="M356.824,211.143
		h-1.901"/>
	
		<path id="path749" inkscape:connector-curvature="0" fill="#00699D" fill-opacity="0.8667" stroke="#000000" stroke-opacity="0.0781" d="
		M523.155,204.189"/>
	
		<path id="path750" inkscape:connector-curvature="0" fill="#00699D" fill-opacity="0.8667" stroke="#000000" stroke-opacity="0.1338" d="
		M383.865,184.344h1.971"/>
	
		<path id="path751" inkscape:connector-curvature="0" fill="#00699D" fill-opacity="0.8667" stroke="#000000" stroke-opacity="0.1338" d="
		M384.358,185.571h1.971"/>
	
		<path id="path752" inkscape:connector-curvature="0" fill="#00699D" fill-opacity="0.8667" stroke="#000000" stroke-opacity="0.1338" d="
		M384.568,186.73h2.181"/>
	
		<path id="path753" inkscape:connector-curvature="0" fill="#00699D" fill-opacity="0.8667" stroke="#000000" stroke-opacity="0.1338" d="
		M385.202,187.822h2.182"/>
	
		<path id="path754" inkscape:connector-curvature="0" fill="#00699D" fill-opacity="0.8667" stroke="#000000" stroke-opacity="0.1338" d="
		M385.342,188.981h2.603"/>
	
		<path id="path755" inkscape:connector-curvature="0" fill="#00699D" fill-opacity="0.8667" stroke="#000000" stroke-opacity="0.1338" d="
		M385.271,190.142h2.887"/>
	
		<path id="path756" inkscape:connector-curvature="0" fill="#00699D" fill-opacity="0.8667" stroke="#000000" stroke-opacity="0.1338" d="
		M385.694,191.437h2.747"/>
	
		<path id="path757" inkscape:connector-curvature="0" fill="#00699D" fill-opacity="0.8667" stroke="#000000" stroke-opacity="0.1338" d="
		M385.554,192.734h2.676"/>
	
		<path id="path758" inkscape:connector-curvature="0" fill="#00699D" fill-opacity="0.8667" stroke="#000000" stroke-opacity="0.1338" d="
		M385.554,193.961h2.745"/>
	
		<path id="path759" inkscape:connector-curvature="0" fill="#00699D" fill-opacity="0.8667" stroke="#000000" stroke-opacity="0.1338" d="
		M384.849,195.395h3.45"/>
	
		<path id="path760" inkscape:connector-curvature="0" fill="#00699D" fill-opacity="0.8667" stroke="#000000" stroke-opacity="0.1338" d="
		M385.131,197.032h2.958"/>
	
		<path id="path761" inkscape:connector-curvature="0" fill="#00699D" fill-opacity="0.8667" stroke="#000000" stroke-opacity="0.0632" d="
		M385.062,198.191h2.957"/>
	
		<path id="path762" inkscape:connector-curvature="0" fill="#00699D" fill-opacity="0.8667" stroke="#000000" stroke-opacity="0.0632" d="
		M384.568,199.76h2.957"/>
	
		<path id="path763" inkscape:connector-curvature="0" fill="#00699D" fill-opacity="0.8667" stroke="#000000" stroke-opacity="0.0632" d="
		M384.497,201.125h2.957"/>
	
		<path id="path764" inkscape:connector-curvature="0" fill="#00699D" fill-opacity="0.8667" stroke="#000000" stroke-opacity="0.0632" d="
		M383.652,202.626h2.958"/>
	
		<path id="path765" inkscape:connector-curvature="0" fill="#00699D" fill-opacity="0.8667" stroke="#000000" stroke-opacity="0.0632" d="
		M382.808,203.855h2.957"/>
	
		<path id="path766" inkscape:connector-curvature="0" fill="#00699D" fill-opacity="0.8667" stroke="#000000" stroke-opacity="0.0632" d="
		M382.034,205.287h2.957"/>
	
		<path id="path767" inkscape:connector-curvature="0" fill="#00699D" fill-opacity="0.8667" stroke="#000000" stroke-opacity="0.0632" d="
		M381.118,206.651h2.958"/>
	
		<path id="path768" inkscape:connector-curvature="0" fill="#00699D" fill-opacity="0.8667" stroke="#000000" stroke-opacity="0.0632" d="
		M380.484,207.947h2.957"/>
	
		<path id="path769" inkscape:connector-curvature="0" fill="#00699D" fill-opacity="0.8667" stroke="#000000" stroke-opacity="0.0632" d="
		M379.148,209.516h2.957"/>
	
		<path id="path770" inkscape:connector-curvature="0" fill="#00699D" fill-opacity="0.8667" stroke="#000000" stroke-opacity="0.0632" d="
		M378.585,210.948h1.9"/>
	<path id="path771" inkscape:connector-curvature="0" fill="none" stroke="#000000" stroke-opacity="0.0632" d="M385.062,198.191
		h2.957"/>
	<path id="path772" inkscape:connector-curvature="0" fill="none" stroke="#000000" stroke-opacity="0.0632" d="M384.568,199.76
		h2.957"/>
	<path id="path773" inkscape:connector-curvature="0" fill="none" stroke="#000000" stroke-opacity="0.0632" d="M384.497,201.125
		h2.957"/>
	<path id="path774" inkscape:connector-curvature="0" fill="none" stroke="#000000" stroke-opacity="0.0632" d="M383.652,202.626
		h2.958"/>
	<path id="path775" inkscape:connector-curvature="0" fill="none" stroke="#000000" stroke-opacity="0.0632" d="M382.808,203.855
		h2.957"/>
	<path id="path776" inkscape:connector-curvature="0" fill="none" stroke="#000000" stroke-opacity="0.0632" d="M382.034,205.287
		h2.957"/>
	<path id="path777" inkscape:connector-curvature="0" fill="none" stroke="#000000" stroke-opacity="0.0632" d="M381.118,206.651
		h2.958"/>
	<path id="path778" inkscape:connector-curvature="0" fill="none" stroke="#000000" stroke-opacity="0.0632" d="M380.484,207.947
		h2.957"/>
	<path id="path779" inkscape:connector-curvature="0" fill="none" stroke="#000000" stroke-opacity="0.0632" d="M379.148,209.516
		h2.957"/>
	<path id="path780" inkscape:connector-curvature="0" fill="none" stroke="#000000" stroke-opacity="0.0632" d="M378.585,210.948
		h1.9"/>
	
		<path id="path781" inkscape:connector-curvature="0" sodipodi:nodetypes="cccc" fill="#F0BF00" stroke="#000000" stroke-width="0.625" stroke-linejoin="round" stroke-opacity="0.3866" d="
		M382.468,189.65c-4.707-2.928-10.926-1.4-13.531,0.192c3.811-0.7,3.876-1.018,6.634-1.083
		C377.519,188.824,380.389,188.633,382.468,189.65z"/>
	
		<path id="path782" inkscape:connector-curvature="0" sodipodi:nodetypes="cc" fill="none" stroke="#000000" stroke-width="0.625" stroke-opacity="0.3866" d="
		M379.708,189.175c-2.298,4.647-6.304,4.71-9.129-0.255"/>
	
		<path id="path783" sodipodi:rx="3.6748049" sodipodi:ry="1.679909" sodipodi:cy="212.87613" sodipodi:type="arc" sodipodi:cx="341.86151" fill-opacity="0.368" d="
		M378.473,190.636c-0.703,0.714-2.428,1.139-3.849,0.948c-1.421-0.192-2.003-0.924-1.298-1.638c0.703-0.714,2.427-1.139,3.848-0.948
		C378.595,189.19,379.177,189.924,378.473,190.636z"/>
	
		<path id="path784" sodipodi:rx="0.73496997" sodipodi:ry="0.41997501" sodipodi:cy="212.56116" sodipodi:type="arc" sodipodi:cx="343.33142" fill="#FFD700" d="
		M375.107,189.647c0.069,0.173-0.147,0.404-0.484,0.516c-0.337,0.11-0.669,0.058-0.74-0.114s0.147-0.404,0.484-0.513
		C374.704,189.423,375.037,189.473,375.107,189.647z"/>
</g>
</svg>
