<?xml version="1.0" encoding="utf-8"?>
<!-- Generator: Adobe Illustrator 16.0.0, SVG Export Plug-In . SVG Version: 6.00 Build 0)  -->
<!DOCTYPE svg PUBLIC "-//W3C//DTD SVG 1.0//EN" "http://www.w3.org/TR/2001/REC-SVG-20010904/DTD/svg10.dtd">
<svg version="1.0"
	 id="svg548" xmlns:dc="http://purl.org/dc/elements/1.1/" xmlns:svg="http://www.w3.org/2000/svg" xmlns:cc="http://creativecommons.org/ns#" xmlns:sodipodi="http://sodipodi.sourceforge.net/DTD/sodipodi-0.dtd" xmlns:inkscape="http://www.inkscape.org/namespaces/inkscape" xmlns:rdf="http://www.w3.org/1999/02/22-rdf-syntax-ns#" inkscape:version="0.48.1 r9760" sodipodi:docname="za.svg"
	 xmlns="http://www.w3.org/2000/svg" xmlns:xlink="http://www.w3.org/1999/xlink" x="0px" y="0px" width="600px" height="400px"
	 viewBox="0 0 600 400" enable-background="new 0 0 600 400" xml:space="preserve">
<sodipodi:namedview  objecttolerance="10" gridtolerance="10" bordercolor="#666666" guidetolerance="10" borderopacity="1" pagecolor="#000000" inkscape:cy="256" inkscape:cx="256" showgrid="false" id="namedview3792" inkscape:zoom="0.98242188" inkscape:pageopacity="1" inkscape:pageshadow="2" inkscape:current-layer="svg548" inkscape:window-maximized="1" inkscape:window-y="24" inkscape:window-x="0" inkscape:window-height="723" inkscape:window-width="1280">
	</sodipodi:namedview>
<g id="flag" inkscape:label="#g5620">
	<g>
		<g id="g4048" transform="matrix(1.0248069,0,0,1.0248069,-71.873186,1.3125411e-5)">
			<g id="g603" transform="matrix(1.998266,0,0,1.998801,-74.83725,-1553.702)">
				<path id="path581" inkscape:connector-curvature="0" d="M72.548,932.84V817.121l86.152,57.828L72.548,932.84z"/>
				<path id="path597" inkscape:connector-curvature="0" fill="#0000CC" d="M131.331,972.593l96.722-65.081h137.479v65.081H131.331
					L131.331,972.593z"/>
				<path id="path598" inkscape:connector-curvature="0" sodipodi:nodetypes="ccccc" fill="#FF0000" d="M125.118,777.322
					l240.414,0.005v65.092H228.053C228.053,842.418,126.407,776.678,125.118,777.322L125.118,777.322z"/>
				<path id="path599" inkscape:connector-curvature="0" fill="#FFCC00" d="M72.548,801.74v15.381l86.152,57.828L72.548,932.84
					v15.38l108.512-73.272L72.548,801.74L72.548,801.74z"/>
				<path id="path600" inkscape:connector-curvature="0" fill="#009933" d="M72.548,801.74v-24.413h36.2l114.95,77.756h141.833
					v39.764H223.699l-114.95,77.746h-36.2V948.22l108.512-73.272L72.548,801.74L72.548,801.74z"/>
				<path id="path601" inkscape:connector-curvature="0" fill="#FFFFFF" d="M108.749,777.326h22.582l96.722,65.092h137.479v12.664
					H223.699L108.749,777.326L108.749,777.326z"/>
				<path id="path602" inkscape:connector-curvature="0" fill="#FFFFFF" d="M108.749,972.593h22.582l96.722-65.081h137.479v-12.665
					H223.699L108.749,972.593L108.749,972.593z"/>
			</g>
		</g>
	</g>
</g>
</svg>
