<?xml version="1.0" encoding="utf-8"?>
<!-- Generator: Adobe Illustrator 16.0.0, SVG Export Plug-In . SVG Version: 6.00 Build 0)  -->
<!DOCTYPE svg PUBLIC "-//W3C//DTD SVG 1.1//EN" "http://www.w3.org/Graphics/SVG/1.1/DTD/svg11.dtd">
<svg version="1.1"
	 id="svg378" xmlns:dc="http://purl.org/dc/elements/1.1/" xmlns:svg="http://www.w3.org/2000/svg" xmlns:cc="http://creativecommons.org/ns#" xmlns:sodipodi="http://sodipodi.sourceforge.net/DTD/sodipodi-0.dtd" xmlns:inkscape="http://www.inkscape.org/namespaces/inkscape" xmlns:rdf="http://www.w3.org/1999/02/22-rdf-syntax-ns#" inkscape:version="0.48.1 r9760" sodipodi:docname="br.svg" sodipodi:version="0.33pre"
	 xmlns="http://www.w3.org/2000/svg" xmlns:xlink="http://www.w3.org/1999/xlink" x="0px" y="0px" width="600px" height="400px"
	 viewBox="0 0 600 400" enable-background="new 0 0 600 400" xml:space="preserve">
<sodipodi:namedview  inkscape:cy="372.04724" inkscape:cx="531.49426" showgrid="false" id="base" inkscape:zoom="0.30856401" inkscape:current-layer="svg378" inkscape:window-maximized="1" inkscape:window-y="24" inkscape:window-x="0" inkscape:window-height="723" inkscape:window-width="1280">
	</sodipodi:namedview>
<g id="flag" inkscape:label="#g4571">
	<rect id="rect552" x="1" y="1" sodipodi:fill-cmyk="(0.78 0 0.56 0.38)" fill="#229E45" width="600" height="400">
	</rect>
	<g id="g3551" transform="matrix(0.7480632,0,0,0.7480632,65.575502,64.495751)">
		
			<path id="path554" sodipodi:fill-cmyk="(0 0.0775862 0.96 0.03)" inkscape:connector-curvature="0" sodipodi:nodetypes="ccccc" fill="#F8E509" d="
			M315.097,369.216l287.336-186.488L313.364-4.263L25.081,183.177L315.097,369.216z"/>
		
			<path id="path557" sodipodi:rx="76.874496" sodipodi:ry="75.827141" sodipodi:cy="149.97711" sodipodi:type="arc" sodipodi:cx="216.37971" sodipodi:fill-cmyk="(0.732759 0.551724 0 0.36)" fill="#2B49A3" d="
			M440.297,182.477c0,67.027-54.422,121.364-121.556,121.364s-121.558-54.337-121.558-121.364S251.605,61.113,318.739,61.113
			S440.297,115.45,440.297,182.477z"/>
		
			<polygon id="polygon559" sodipodi:r2="2.2389653" sodipodi:sides="5" sodipodi:arg1="0.9736225" sodipodi:arg2="1.601941" sodipodi:r1="4.4779305" sodipodi:cy="103.97687" sodipodi:type="star" sodipodi:cx="226.02466" inkscape:randomized="0" inkscape:rounded="0" inkscape:flatsided="false" fill="#FFFFEF" points="
			278.778,255.17 275.011,252.998 271.118,254.93 271.983,250.602 268.978,247.423 273.28,246.926 275.315,243.029 277.108,247.047 
			281.37,247.818 278.178,250.801 		">
		</polygon>
		
			<polygon id="polygon560" sodipodi:r2="2.2389653" sodipodi:sides="5" sodipodi:arg1="0.9736225" sodipodi:arg2="1.601941" sodipodi:r1="4.4779305" sodipodi:cy="103.97687" sodipodi:type="star" sodipodi:cx="226.02466" inkscape:randomized="0" inkscape:rounded="0" inkscape:flatsided="false" fill="#FFFFEF" points="
			360.242,275.795 356.475,273.62 352.583,275.551 353.448,271.224 350.442,268.046 354.744,267.548 356.78,263.653 358.571,267.67 
			362.835,268.44 359.643,271.423 		">
		</polygon>
		
			<polygon id="polygon561" sodipodi:r2="2.2389653" sodipodi:sides="5" sodipodi:arg1="0.9736225" sodipodi:arg2="1.601941" sodipodi:r1="4.4779305" sodipodi:cy="103.97687" sodipodi:type="star" sodipodi:cx="226.02466" inkscape:randomized="0" inkscape:rounded="0" inkscape:flatsided="false" fill="#FFFFEF" points="
			325.14,242.852 321.888,240.972 318.523,242.64 319.271,238.904 316.674,236.157 320.39,235.726 322.149,232.361 323.698,235.831 
			327.379,236.497 324.622,239.074 		">
		</polygon>
		
			<polygon id="polygon562" sodipodi:r2="2.2389653" sodipodi:sides="5" sodipodi:arg1="0.9736225" sodipodi:arg2="1.601941" sodipodi:r1="4.4779305" sodipodi:cy="103.97687" sodipodi:type="star" sodipodi:cx="226.02466" inkscape:randomized="0" inkscape:rounded="0" inkscape:flatsided="false" fill="#FFFFEF" points="
			407.403,230.997 404.208,229.153 400.905,230.791 401.638,227.121 399.091,224.426 402.739,224.002 404.465,220.698 
			405.987,224.105 409.602,224.758 406.894,227.291 		">
		</polygon>
		
			<polygon id="polygon563" sodipodi:r2="2.2389653" sodipodi:sides="5" sodipodi:arg1="0.9736225" sodipodi:arg2="1.601941" sodipodi:r1="4.4779305" sodipodi:cy="103.97687" sodipodi:type="star" sodipodi:cx="226.02466" inkscape:randomized="0" inkscape:rounded="0" inkscape:flatsided="false" fill="#FFFFEF" points="
			323.643,206.337 319.875,204.161 315.984,206.093 316.849,201.766 313.844,198.588 318.145,198.089 320.179,194.195 
			321.974,198.212 326.235,198.981 323.044,201.963 		">
		</polygon>
		
			<polygon id="polygon564" sodipodi:r2="2.2389653" sodipodi:sides="5" sodipodi:arg1="0.9736225" sodipodi:arg2="1.601941" sodipodi:r1="4.4779305" sodipodi:cy="103.97687" sodipodi:type="star" sodipodi:cx="226.02466" inkscape:randomized="0" inkscape:rounded="0" inkscape:flatsided="false" fill="#FFFFEF" points="
			223.343,168.676 219.575,166.501 215.684,168.432 216.547,164.107 213.543,160.928 217.844,160.429 219.881,156.534 
			221.674,160.551 225.935,161.321 222.742,164.304 		">
		</polygon>
		
			<polygon id="polygon565" sodipodi:r2="2.2389653" sodipodi:sides="5" sodipodi:arg1="0.9736225" sodipodi:arg2="1.601941" sodipodi:r1="4.4779305" sodipodi:cy="103.97687" sodipodi:type="star" sodipodi:cx="226.02466" inkscape:randomized="0" inkscape:rounded="0" inkscape:flatsided="false" fill="#FFFFEF" points="
			235.402,218.765 231.636,216.591 227.743,218.522 228.608,214.196 225.603,211.017 229.905,210.518 231.939,206.624 
			233.732,210.641 237.994,211.411 234.803,214.394 		">
		</polygon>
		
			<polygon id="polygon566" sodipodi:r2="2.2389653" sodipodi:sides="5" sodipodi:arg1="0.9736225" sodipodi:arg2="1.601941" sodipodi:r1="4.4779305" sodipodi:cy="103.97687" sodipodi:type="star" sodipodi:cx="226.02466" inkscape:randomized="0" inkscape:rounded="0" inkscape:flatsided="false" fill="#FFFFEF" points="
			360.57,150.235 357.243,148.313 353.804,150.021 354.569,146.198 351.916,143.392 355.715,142.95 357.511,139.509 
			359.096,143.057 362.861,143.738 360.04,146.373 		">
		</polygon>
		
			<polygon id="polygon567" sodipodi:r2="2.2389653" sodipodi:sides="5" sodipodi:arg1="0.9736225" sodipodi:arg2="1.601941" sodipodi:r1="4.4779305" sodipodi:cy="103.97687" sodipodi:type="star" sodipodi:cx="226.02466" inkscape:randomized="0" inkscape:rounded="0" inkscape:flatsided="false" fill="#FFFFEF" points="
			353.692,182.824 351.07,181.311 348.363,182.654 348.965,179.644 346.873,177.434 349.867,177.085 351.282,174.375 
			352.53,177.172 355.495,177.707 353.274,179.782 		">
		</polygon>
		
			<polygon id="polygon568" sodipodi:r2="2.2389653" sodipodi:sides="5" sodipodi:arg1="0.9736225" sodipodi:arg2="1.601941" sodipodi:r1="4.4779305" sodipodi:cy="103.97687" sodipodi:type="star" sodipodi:cx="226.02466" inkscape:randomized="0" inkscape:rounded="0" inkscape:flatsided="false" fill="#FFFFEF" points="
			217.746,227.839 215.231,226.387 212.631,227.676 213.208,224.788 211.203,222.667 214.075,222.334 215.434,219.735 
			216.631,222.415 219.475,222.93 217.344,224.92 		">
		</polygon>
		
			<polygon id="polygon569" sodipodi:r2="2.2389653" sodipodi:sides="5" sodipodi:arg1="0.9736225" sodipodi:arg2="1.601941" sodipodi:r1="4.4779305" sodipodi:cy="103.97687" sodipodi:type="star" sodipodi:cx="226.02466" inkscape:randomized="0" inkscape:rounded="0" inkscape:flatsided="false" fill="#FFFFEF" points="
			408.102,239.382 406.052,238.296 403.936,239.262 404.406,237.101 402.772,235.512 405.112,235.263 406.219,233.318 
			407.194,235.324 409.513,235.711 407.777,237.199 		">
		</polygon>
		
			<polygon id="polygon570" sodipodi:r2="2.2389653" sodipodi:sides="5" sodipodi:arg1="0.9736225" sodipodi:arg2="1.601941" sodipodi:r1="4.4779305" sodipodi:cy="103.97687" sodipodi:type="star" sodipodi:cx="226.02466" inkscape:randomized="0" inkscape:rounded="0" inkscape:flatsided="false" fill="#FFFFEF" points="
			217.746,227.839 215.231,226.387 212.631,227.676 213.208,224.788 211.203,222.667 214.075,222.334 215.434,219.735 
			216.631,222.415 219.475,222.93 217.344,224.92 		">
		</polygon>
		
			<polygon id="polygon571" sodipodi:r2="2.2389653" sodipodi:sides="5" sodipodi:arg1="0.9736225" sodipodi:arg2="1.601941" sodipodi:r1="4.4779305" sodipodi:cy="103.97687" sodipodi:type="star" sodipodi:cx="226.02466" inkscape:randomized="0" inkscape:rounded="0" inkscape:flatsided="false" fill="#FFFFEF" points="
			217.746,227.839 215.231,226.387 212.631,227.676 213.208,224.788 211.203,222.667 214.075,222.334 215.434,219.735 
			216.631,222.415 219.475,222.93 217.344,224.92 		">
		</polygon>
		
			<polygon id="polygon572" sodipodi:r2="2.2389653" sodipodi:sides="5" sodipodi:arg1="0.9736225" sodipodi:arg2="1.601941" sodipodi:r1="4.4779305" sodipodi:cy="103.97687" sodipodi:type="star" sodipodi:cx="226.02466" inkscape:randomized="0" inkscape:rounded="0" inkscape:flatsided="false" fill="#FFFFEF" points="
			257.659,227.839 255.146,226.387 252.546,227.676 253.125,224.788 251.118,222.667 253.99,222.331 255.349,219.732 
			256.546,222.413 259.392,222.928 257.26,224.92 		">
		</polygon>
		
			<polygon id="polygon573" sodipodi:r2="2.2389653" sodipodi:sides="5" sodipodi:arg1="0.9736225" sodipodi:arg2="1.601941" sodipodi:r1="4.4779305" sodipodi:cy="103.97687" sodipodi:type="star" sodipodi:cx="226.02466" inkscape:randomized="0" inkscape:rounded="0" inkscape:flatsided="false" fill="#FFFFEF" points="
			252.7,241.115 250.185,239.664 247.586,240.953 248.165,238.065 246.158,235.942 249.03,235.612 250.388,233.008 251.586,235.69 
			254.43,236.206 252.3,238.196 		">
		</polygon>
		
			<polygon id="polygon574" sodipodi:r2="2.2389653" sodipodi:sides="5" sodipodi:arg1="0.9736225" sodipodi:arg2="1.601941" sodipodi:r1="4.4779305" sodipodi:cy="103.97687" sodipodi:type="star" sodipodi:cx="226.02466" inkscape:randomized="0" inkscape:rounded="0" inkscape:flatsided="false" fill="#FFFFEF" points="
			335.582,216.938 333.066,215.487 330.468,216.775 331.045,213.887 329.039,211.766 331.91,211.432 333.27,208.831 
			334.466,211.514 337.312,212.029 335.182,214.019 		">
		</polygon>
		
			<polygon id="polygon575" sodipodi:r2="2.2389653" sodipodi:sides="5" sodipodi:arg1="0.9736225" sodipodi:arg2="1.601941" sodipodi:r1="4.4779305" sodipodi:cy="103.97687" sodipodi:type="star" sodipodi:cx="226.02466" inkscape:randomized="0" inkscape:rounded="0" inkscape:flatsided="false" fill="#FFFFEF" points="
			311.26,216.932 308.746,215.48 306.148,216.769 306.725,213.881 304.718,211.76 307.59,211.427 308.949,208.826 310.146,211.508 
			312.992,212.022 310.86,214.013 		">
		</polygon>
		
			<polygon id="polygon576" sodipodi:r2="2.2389653" sodipodi:sides="5" sodipodi:arg1="0.9736225" sodipodi:arg2="1.601941" sodipodi:r1="4.4779305" sodipodi:cy="103.97687" sodipodi:type="star" sodipodi:cx="226.02466" inkscape:randomized="0" inkscape:rounded="0" inkscape:flatsided="false" fill="#FFFFEF" points="
			245.297,208.458 243.721,207.547 242.094,208.355 242.455,206.546 241.199,205.215 242.998,205.008 243.848,203.377 
			244.598,205.059 246.383,205.381 245.047,206.629 		">
		</polygon>
		
			<polygon id="polygon577" sodipodi:r2="2.2389653" sodipodi:sides="5" sodipodi:arg1="0.9736225" sodipodi:arg2="1.601941" sodipodi:r1="4.4779305" sodipodi:cy="103.97687" sodipodi:type="star" sodipodi:cx="226.02466" inkscape:randomized="0" inkscape:rounded="0" inkscape:flatsided="false" fill="#FFFFEF" points="
			405.001,249.885 402.487,248.435 399.888,249.724 400.466,246.836 398.46,244.715 401.332,244.382 402.689,241.78 
			403.888,244.463 406.732,244.977 404.602,246.968 		">
		</polygon>
		
			<polygon id="polygon578" sodipodi:r2="2.2389653" sodipodi:sides="5" sodipodi:arg1="0.9736225" sodipodi:arg2="1.601941" sodipodi:r1="4.4779305" sodipodi:cy="103.97687" sodipodi:type="star" sodipodi:cx="226.02466" inkscape:randomized="0" inkscape:rounded="0" inkscape:flatsided="false" fill="#FFFFEF" points="
			384.756,252.542 382.671,251.336 380.52,252.408 380.998,250.011 379.337,248.247 381.715,247.969 382.84,245.81 383.833,248.037 
			386.19,248.464 384.423,250.118 		">
		</polygon>
		
			<polygon id="polygon579" sodipodi:r2="2.2389653" sodipodi:sides="5" sodipodi:arg1="0.9736225" sodipodi:arg2="1.601941" sodipodi:r1="4.4779305" sodipodi:cy="103.97687" sodipodi:type="star" sodipodi:cx="226.02466" inkscape:randomized="0" inkscape:rounded="0" inkscape:flatsided="false" fill="#FFFFEF" points="
			394.306,252.311 392.366,251.19 390.361,252.186 390.806,249.956 389.259,248.316 391.474,248.059 392.521,246.053 
			393.445,248.122 395.641,248.52 393.998,250.058 		">
		</polygon>
		
			<polygon id="polygon580" sodipodi:r2="2.2389653" sodipodi:sides="5" sodipodi:arg1="0.9736225" sodipodi:arg2="1.601941" sodipodi:r1="4.4779305" sodipodi:cy="103.97687" sodipodi:type="star" sodipodi:cx="226.02466" inkscape:randomized="0" inkscape:rounded="0" inkscape:flatsided="false" fill="#FFFFEF" points="
			421.744,228.364 419.874,227.285 417.944,228.245 418.372,226.097 416.881,224.522 419.015,224.272 420.024,222.342 
			420.915,224.334 423.028,224.718 421.445,226.197 		">
		</polygon>
		
			<polygon id="polygon581" sodipodi:r2="2.2389653" sodipodi:sides="5" sodipodi:arg1="0.9736225" sodipodi:arg2="1.601941" sodipodi:r1="4.4779305" sodipodi:cy="103.97687" sodipodi:type="star" sodipodi:cx="226.02466" inkscape:randomized="0" inkscape:rounded="0" inkscape:flatsided="false" fill="#FFFFEF" points="
			384.512,266.05 382.07,264.718 379.549,265.901 380.11,263.251 378.162,261.303 380.95,260.997 382.268,258.61 383.43,261.071 
			386.191,261.546 384.122,263.371 		">
		</polygon>
		
			<polygon id="polygon582" sodipodi:r2="2.2389653" sodipodi:sides="5" sodipodi:arg1="0.9736225" sodipodi:arg2="1.601941" sodipodi:r1="4.4779305" sodipodi:cy="103.97687" sodipodi:type="star" sodipodi:cx="226.02466" inkscape:randomized="0" inkscape:rounded="0" inkscape:flatsided="false" fill="#FFFFEF" points="
			384.658,276.957 382.431,275.624 380.131,276.808 380.642,274.156 378.866,272.209 381.409,271.903 382.611,269.516 
			383.67,271.978 386.19,272.449 384.303,274.278 		">
		</polygon>
		
			<polygon id="polygon583" sodipodi:r2="2.2389653" sodipodi:sides="5" sodipodi:arg1="0.9736225" sodipodi:arg2="1.601941" sodipodi:r1="4.4779305" sodipodi:cy="103.97687" sodipodi:type="star" sodipodi:cx="226.02466" inkscape:randomized="0" inkscape:rounded="0" inkscape:flatsided="false" fill="#FFFFEF" points="
			366.258,252.307 364.389,251.227 362.457,252.187 362.887,250.039 361.396,248.464 363.532,248.214 364.54,246.284 
			365.43,248.276 367.545,248.658 365.96,250.139 		">
		</polygon>
		
			<polygon id="polygon584" sodipodi:r2="2.2389653" sodipodi:sides="5" sodipodi:arg1="0.9736225" sodipodi:arg2="1.601941" sodipodi:r1="4.4779305" sodipodi:cy="103.97687" sodipodi:type="star" sodipodi:cx="226.02466" inkscape:randomized="0" inkscape:rounded="0" inkscape:flatsided="false" fill="#FFFFEF" points="
			349.014,252.308 347.146,251.229 345.214,252.187 345.644,250.041 344.154,248.464 346.287,248.217 347.298,246.284 
			348.187,248.277 350.301,248.66 348.717,250.139 		">
		</polygon>
		
			<polygon id="polygon585" sodipodi:r2="2.2389653" sodipodi:sides="5" sodipodi:arg1="0.9736225" sodipodi:arg2="1.601941" sodipodi:r1="4.4779305" sodipodi:cy="103.97687" sodipodi:type="star" sodipodi:cx="226.02466" inkscape:randomized="0" inkscape:rounded="0" inkscape:flatsided="false" fill="#FFFFEF" points="
			319.738,226.706 317.869,225.626 315.938,226.586 316.366,224.438 314.877,222.861 317.011,222.613 318.019,220.681 
			318.91,222.672 321.024,223.057 319.44,224.536 		">
		</polygon>
		
			<polygon id="polygon586" sodipodi:r2="2.2389653" sodipodi:sides="5" sodipodi:arg1="0.9736225" sodipodi:arg2="1.601941" sodipodi:r1="4.4779305" sodipodi:cy="103.97687" sodipodi:type="star" sodipodi:cx="226.02466" inkscape:randomized="0" inkscape:rounded="0" inkscape:flatsided="false" fill="#FFFFEF" points="
			322.999,278.886 321.418,277.974 319.781,278.783 320.142,276.966 318.88,275.632 320.689,275.42 321.546,273.783 
			322.298,275.471 324.089,275.795 322.749,277.048 		">
		</polygon>
		
			<polygon id="polygon587" sodipodi:r2="2.2389653" sodipodi:sides="5" sodipodi:arg1="0.9736225" sodipodi:arg2="1.601941" sodipodi:r1="4.4779305" sodipodi:cy="103.97687" sodipodi:type="star" sodipodi:cx="226.02466" inkscape:randomized="0" inkscape:rounded="0" inkscape:flatsided="false" fill="#FFFFEF" points="
			278.778,194.483 275.013,192.31 271.12,194.239 271.985,189.913 268.981,186.734 273.282,186.237 275.316,182.34 277.109,186.357 
			281.37,187.127 278.18,190.111 		">
		</polygon>
		<path id="path726" inkscape:connector-curvature="0" sodipodi:nodetypes="ccccc" fill="#FFFFFF" d="M432.287,226.147
			c1.852-4.846,4.241-12.15,5.51-18.856c-64.563-56.717-136.538-85.772-227.483-79.793c-3.26,6.252-5.87,12.795-8.07,19.876
			C309.996,137.093,388.985,184.801,432.287,226.147z"/>
		<path id="path790" inkscape:connector-curvature="0" fill="#309E3A" d="M403.262,194.259l2.307,1.26
			c-0.363,0.82-0.458,1.533-0.295,2.144c0.171,0.616,0.594,1.154,1.27,1.608c0.718,0.491,1.359,0.706,1.923,0.649
			c0.572-0.057,0.997-0.291,1.273-0.698c0.175-0.261,0.245-0.537,0.214-0.822c-0.026-0.289-0.184-0.63-0.473-1.023
			c-0.198-0.269-0.685-0.834-1.457-1.695c-0.992-1.107-1.585-2.039-1.774-2.799c-0.265-1.069-0.104-2.04,0.486-2.916
			c0.381-0.564,0.893-0.982,1.538-1.256c0.653-0.275,1.367-0.338,2.136-0.188c0.773,0.149,1.585,0.513,2.431,1.09
			c1.384,0.94,2.219,1.949,2.504,3.03c0.292,1.086,0.114,2.149-0.537,3.19l-2.291-1.415c0.287-0.632,0.358-1.18,0.208-1.642
			c-0.141-0.462-0.525-0.906-1.153-1.332c-0.646-0.439-1.241-0.649-1.787-0.632c-0.352,0.012-0.624,0.162-0.817,0.446
			c-0.176,0.261-0.215,0.561-0.121,0.898c0.121,0.426,0.637,1.136,1.548,2.128c0.907,0.991,1.527,1.8,1.859,2.428
			c0.338,0.627,0.491,1.277,0.458,1.953c-0.022,0.674-0.27,1.36-0.74,2.06c-0.43,0.633-1.004,1.107-1.727,1.423
			c-0.725,0.316-1.496,0.392-2.324,0.227c-0.821-0.168-1.71-0.58-2.667-1.231c-1.393-0.944-2.247-1.993-2.56-3.145
			C402.384,196.845,402.573,195.595,403.262,194.259L403.262,194.259z"/>
		<path id="path791" inkscape:connector-curvature="0" fill="#309E3A" d="M392.324,187.076l2.356,1.162
			c-0.328,0.832-0.397,1.552-0.209,2.154c0.197,0.607,0.64,1.128,1.335,1.559c0.735,0.461,1.384,0.649,1.945,0.568
			c0.572-0.081,0.987-0.329,1.243-0.748c0.167-0.268,0.226-0.546,0.181-0.832c-0.037-0.286-0.209-0.624-0.514-1.008
			c-0.209-0.257-0.714-0.802-1.522-1.632c-1.034-1.065-1.662-1.975-1.885-2.724c-0.307-1.059-0.183-2.035,0.367-2.935
			c0.362-0.578,0.855-1.017,1.487-1.317c0.644-0.299,1.354-0.393,2.127-0.275c0.781,0.121,1.606,0.452,2.474,0.992
			c1.423,0.883,2.295,1.86,2.624,2.929c0.335,1.074,0.2,2.141-0.406,3.209l-2.35-1.321c0.262-0.645,0.311-1.193,0.142-1.646
			c-0.161-0.457-0.561-0.885-1.204-1.286c-0.666-0.413-1.269-0.599-1.812-0.559c-0.352,0.022-0.616,0.184-0.799,0.479
			c-0.163,0.269-0.196,0.568-0.086,0.898c0.14,0.423,0.68,1.112,1.632,2.068c0.946,0.953,1.602,1.738,1.956,2.35
			c0.362,0.611,0.542,1.256,0.538,1.932c0.007,0.676-0.218,1.371-0.658,2.09c-0.402,0.649-0.962,1.146-1.67,1.492
			c-0.71,0.345-1.483,0.449-2.313,0.32c-0.824-0.134-1.73-0.51-2.714-1.12c-1.428-0.89-2.324-1.903-2.683-3.042
			C391.549,189.691,391.688,188.438,392.324,187.076z"/>
		<path id="path792" inkscape:connector-curvature="0" fill="#309E3A" d="M378.785,183.448l6.936-11.403l8.423,5.162l-1.175,1.931
			l-6.125-3.757l-1.54,2.527l5.704,3.495l-1.167,1.92l-5.702-3.493l-1.886,3.103l6.346,3.89l-1.171,1.923L378.785,183.448z"/>
		<path id="path795" inkscape:connector-curvature="0" fill="#309E3A" d="M359.07,167.255l1.029-2.003l5.146,2.663l-2.426,4.731
			c-0.753,0.227-1.697,0.282-2.843,0.162c-1.133-0.123-2.188-0.435-3.162-0.939c-1.238-0.641-2.183-1.456-2.837-2.452
			c-0.649-1-0.961-2.1-0.928-3.308c0.037-1.213,0.347-2.388,0.933-3.526c0.632-1.239,1.457-2.201,2.466-2.898
			c1.008-0.692,2.145-1.039,3.402-1.039c0.961-0.003,2.005,0.292,3.136,0.873c1.471,0.762,2.458,1.664,2.961,2.711
			c0.512,1.044,0.606,2.174,0.282,3.388l-2.6-0.782c0.133-0.67,0.055-1.292-0.238-1.865c-0.282-0.578-0.768-1.044-1.456-1.401
			c-1.046-0.54-2.046-0.638-3.005-0.29c-0.957,0.345-1.766,1.171-2.436,2.478c-0.726,1.41-0.958,2.63-0.697,3.66
			c0.265,1.022,0.901,1.796,1.915,2.321c0.5,0.258,1.048,0.42,1.65,0.486c0.607,0.063,1.162,0.044,1.67-0.05l0.774-1.506
			L359.07,167.255L359.07,167.255z"/>
		<path id="path804" inkscape:connector-curvature="0" fill="#309E3A" d="M273.056,145.926l1.939-13.216l3.976,0.589l1.07,9.365
			l3.679-8.666l3.991,0.59l-1.937,13.216l-2.47-0.364l1.527-10.406l-4.14,10.021l-2.559-0.38l-1.081-10.79l-1.526,10.404
			L273.056,145.926L273.056,145.926z"/>
		<path id="path805" inkscape:connector-curvature="0" fill="#309E3A" d="M259.612,144.365l1.243-13.305l9.824,0.928l-0.207,2.252
			l-7.151-0.675l-0.277,2.95l6.652,0.625l-0.209,2.243l-6.653-0.628l-0.336,3.62l7.399,0.697l-0.208,2.243L259.612,144.365
			L259.612,144.365z"/>
		<g id="g812" transform="matrix(1.3970329,-0.89423081,0.89073809,1.4025114,-199.05196,128.09607)">
			<path id="path810" inkscape:connector-curvature="0" fill="#309E3A" d="M208.213,138.417c0.458-0.678,0.944-1.178,1.459-1.501
				c0.38-0.237,0.792-0.401,1.234-0.495c0.445-0.092,0.866-0.095,1.268-0.015c0.533,0.105,1.07,0.34,1.612,0.706
				c0.98,0.664,1.558,1.498,1.733,2.502c0.18,1.008-0.098,2.053-0.83,3.136c-0.727,1.073-1.588,1.718-2.584,1.93
				c-0.993,0.211-1.979-0.015-2.955-0.676c-0.99-0.668-1.572-1.501-1.748-2.499C207.226,140.503,207.497,139.474,208.213,138.417
				L208.213,138.417z"/>
			<path id="path811" inkscape:connector-curvature="0" fill="#F7FFFF" d="M209.627,139.308c-0.51,0.753-0.723,1.443-0.639,2.068
				c0.085,0.623,0.396,1.116,0.932,1.477c0.535,0.362,1.104,0.467,1.706,0.315c0.607-0.155,1.172-0.618,1.693-1.389
				c0.516-0.762,0.732-1.445,0.651-2.046c-0.08-0.6-0.396-1.087-0.949-1.462c-0.554-0.374-1.128-0.485-1.726-0.334
				C210.702,138.083,210.145,138.541,209.627,139.308z"/>
		</g>
		<g id="g815" transform="matrix(1.3830214,-0.91591787,0.91234052,1.3884442,-199.31962,133.77167)">
			<path id="path808" inkscape:connector-curvature="0" fill="#309E3A" d="M213.712,147.587l4.501-6.653l2.827,1.913
				c0.712,0.482,1.187,0.889,1.425,1.229c0.244,0.337,0.359,0.724,0.346,1.16c-0.013,0.437-0.153,0.851-0.419,1.244
				c-0.338,0.499-0.764,0.812-1.278,0.94c-0.512,0.126-1.089,0.034-1.731-0.277c0.176,0.366,0.29,0.714,0.339,1.044
				c0.055,0.331,0.066,0.864,0.037,1.599l-0.066,1.847l-1.606-1.086l0.009-2.105c0.006-0.75-0.012-1.235-0.048-1.454
				c-0.035-0.223-0.107-0.405-0.217-0.551c-0.108-0.147-0.315-0.325-0.625-0.534l-0.271-0.184l-1.879,2.777L213.712,147.587z"/>
			<path id="path809" inkscape:connector-curvature="0" fill="#FFFFFF" d="M217.653,144.656l0.994,0.672
				c0.645,0.437,1.066,0.68,1.262,0.736c0.197,0.054,0.386,0.045,0.567-0.027c0.18-0.072,0.338-0.207,0.474-0.407
				c0.151-0.225,0.213-0.445,0.183-0.663c-0.023-0.22-0.132-0.422-0.325-0.604c-0.099-0.089-0.421-0.318-0.965-0.686l-1.048-0.709
				L217.653,144.656L217.653,144.656z"/>
		</g>
		<g id="g818" transform="matrix(1.4175186,-0.86112499,0.85776163,1.4230776,-194.7184,119.26492)">
			<path id="path806" inkscape:connector-curvature="0" fill="#309E3A" d="M224.217,143.382l2.456,1.661
				c0.553,0.375,0.946,0.703,1.178,0.985c0.312,0.379,0.508,0.81,0.588,1.291c0.08,0.482,0.048,0.985-0.094,1.511
				c-0.142,0.522-0.423,1.094-0.845,1.717c-0.37,0.548-0.758,0.973-1.162,1.278c-0.494,0.371-0.996,0.602-1.508,0.693
				c-0.385,0.071-0.82,0.034-1.303-0.107c-0.36-0.106-0.788-0.328-1.284-0.664l-2.527-1.709L224.217,143.382L224.217,143.382z"/>
			<path id="path807" inkscape:connector-curvature="0" fill="#FFFFFF" d="M224.798,145.416l-2.981,4.407l1.003,0.678
				c0.374,0.254,0.66,0.416,0.855,0.486c0.254,0.093,0.498,0.123,0.728,0.088c0.233-0.031,0.495-0.165,0.786-0.401
				c0.293-0.238,0.614-0.613,0.962-1.128c0.348-0.514,0.569-0.941,0.665-1.277c0.096-0.336,0.113-0.637,0.054-0.903
				c-0.059-0.265-0.195-0.509-0.409-0.733c-0.159-0.169-0.512-0.44-1.06-0.81L224.798,145.416L224.798,145.416z"/>
		</g>
		<g id="g824" transform="matrix(1.5511433,-0.58457754,0.58229378,1.5572259,-164.55035,46.057858)">
			<path id="path800" inkscape:connector-curvature="0" fill="#309E3A" d="M246.173,161.795l4.5-6.653l2.156,1.459
				c0.817,0.553,1.327,0.946,1.53,1.181c0.314,0.356,0.486,0.79,0.515,1.3c0.032,0.507-0.131,1.026-0.489,1.555
				c-0.274,0.408-0.582,0.702-0.92,0.879c-0.335,0.179-0.673,0.27-1.011,0.274c-0.333,0.004-0.636-0.048-0.906-0.156
				c-0.363-0.154-0.85-0.436-1.457-0.847l-0.876-0.593l-1.698,2.51L246.173,161.795z"/>
			<path id="path801" inkscape:connector-curvature="0" fill="#FFFFFF" d="M251.256,157.177l-1.277,1.887l0.735,0.498
				c0.53,0.357,0.906,0.562,1.132,0.613c0.226,0.052,0.44,0.038,0.64-0.042c0.203-0.08,0.371-0.216,0.504-0.414
				c0.163-0.242,0.229-0.488,0.193-0.742c-0.038-0.254-0.15-0.474-0.341-0.66c-0.14-0.139-0.451-0.372-0.936-0.7L251.256,157.177
				L251.256,157.177z"/>
		</g>
		<g id="g827" transform="matrix(1.6028459,-0.4211636,0.41951839,1.6091316,-143.19355,2.8882875)">
			<path id="path798" inkscape:connector-curvature="0" fill="#309E3A" d="M249.13,161.48l4.499-6.651l2.826,1.913
				c0.713,0.48,1.187,0.89,1.426,1.227c0.245,0.337,0.359,0.723,0.347,1.16c-0.015,0.436-0.153,0.852-0.419,1.244
				c-0.338,0.499-0.763,0.813-1.278,0.941c-0.513,0.125-1.089,0.033-1.731-0.277c0.176,0.367,0.29,0.714,0.34,1.043
				c0.055,0.332,0.065,0.865,0.036,1.599l-0.065,1.849l-1.607-1.087l0.008-2.105c0.005-0.752-0.011-1.235-0.048-1.455
				c-0.036-0.222-0.109-0.406-0.218-0.55c-0.108-0.148-0.315-0.325-0.625-0.535l-0.271-0.185l-1.88,2.777L249.13,161.48
				L249.13,161.48z"/>
			<path id="path799" inkscape:connector-curvature="0" fill="#FFFFFF" d="M253.07,158.551l0.995,0.673
				c0.643,0.436,1.065,0.681,1.261,0.734c0.198,0.054,0.387,0.046,0.567-0.027c0.181-0.07,0.34-0.208,0.473-0.407
				c0.151-0.224,0.213-0.446,0.184-0.663c-0.023-0.219-0.133-0.42-0.325-0.603c-0.1-0.09-0.421-0.319-0.965-0.687l-1.047-0.71
				L253.07,158.551z"/>
		</g>
		<g id="g830" transform="matrix(1.5863601,-0.4799687,0.47809436,1.5925811,-149.72374,20.413807)">
			<path id="path796" inkscape:connector-curvature="0" fill="#309E3A" d="M258.964,164.009c0.459-0.678,0.946-1.178,1.459-1.501
				c0.381-0.236,0.791-0.402,1.235-0.495c0.446-0.092,0.868-0.096,1.266-0.015c0.535,0.105,1.072,0.341,1.612,0.707
				c0.982,0.662,1.559,1.496,1.734,2.501c0.179,1.007-0.098,2.052-0.831,3.135c-0.725,1.074-1.587,1.717-2.582,1.931
				c-0.993,0.21-1.978-0.016-2.956-0.677c-0.989-0.669-1.572-1.502-1.748-2.499C257.977,166.098,258.248,165.068,258.964,164.009
				L258.964,164.009z"/>
			<path id="path797" inkscape:connector-curvature="0" fill="#FFFFFF" d="M260.379,164.9c-0.51,0.754-0.724,1.443-0.638,2.068
				c0.086,0.622,0.396,1.115,0.931,1.477c0.536,0.362,1.103,0.465,1.705,0.312c0.607-0.152,1.172-0.616,1.694-1.388
				c0.516-0.762,0.733-1.445,0.652-2.047c-0.078-0.6-0.396-1.088-0.949-1.462c-0.553-0.375-1.128-0.486-1.725-0.334
				C261.452,163.678,260.897,164.135,260.379,164.9z"/>
		</g>
		<g id="g833" transform="matrix(1.6454301,-0.19485046,0.19408944,1.651883,-103.71444,-53.916108)">
			<path id="path793" inkscape:connector-curvature="0" fill="#309E3A" d="M265.069,170.398l4.5-6.653l2.828,1.913
				c0.71,0.482,1.185,0.891,1.424,1.229c0.243,0.337,0.36,0.724,0.346,1.16c-0.013,0.437-0.154,0.851-0.42,1.245
				c-0.338,0.499-0.764,0.812-1.28,0.94c-0.512,0.125-1.088,0.031-1.729-0.277c0.176,0.365,0.289,0.715,0.34,1.043
				c0.053,0.332,0.065,0.864,0.036,1.599l-0.066,1.848l-1.605-1.086l0.008-2.104c0.005-0.752-0.01-1.236-0.048-1.455
				c-0.034-0.221-0.106-0.405-0.217-0.55c-0.106-0.147-0.315-0.326-0.623-0.534l-0.272-0.185l-1.879,2.777L265.069,170.398
				L265.069,170.398z"/>
			<path id="path794" inkscape:connector-curvature="0" fill="#FFFFFF" d="M269.009,167.468l0.995,0.672
				c0.644,0.436,1.065,0.68,1.261,0.734c0.196,0.055,0.387,0.046,0.567-0.026c0.181-0.072,0.338-0.208,0.473-0.408
				c0.152-0.224,0.213-0.444,0.184-0.662c-0.025-0.219-0.133-0.421-0.326-0.603c-0.1-0.089-0.421-0.318-0.966-0.686l-1.047-0.71
				L269.009,167.468z"/>
		</g>
		<g id="g836" transform="matrix(1.6568386,0,0,1.6633355,-60.954842,-99.343601)">
			<path id="path788" inkscape:connector-curvature="0" fill="#309E3A" d="M287.205,180.149c0.458-0.678,0.945-1.179,1.458-1.501
				c0.381-0.237,0.792-0.402,1.234-0.494c0.447-0.089,0.867-0.096,1.268-0.016c0.534,0.106,1.072,0.341,1.613,0.709
				c0.98,0.662,1.559,1.497,1.733,2.502c0.179,1.007-0.099,2.052-0.832,3.135c-0.726,1.072-1.588,1.716-2.581,1.929
				c-0.994,0.21-1.979-0.016-2.957-0.677c-0.989-0.669-1.572-1.503-1.749-2.501C286.218,182.237,286.489,181.207,287.205,180.149
				L287.205,180.149z"/>
			<path id="path789" inkscape:connector-curvature="0" fill="#FFFFFF" d="M288.621,181.04c-0.51,0.753-0.723,1.443-0.64,2.068
				c0.087,0.623,0.397,1.115,0.932,1.479c0.536,0.361,1.105,0.466,1.707,0.314c0.608-0.155,1.172-0.617,1.694-1.388
				c0.515-0.762,0.731-1.445,0.649-2.048c-0.08-0.6-0.396-1.088-0.949-1.463c-0.555-0.374-1.129-0.485-1.726-0.334
				C289.694,179.817,289.138,180.274,288.621,181.04L288.621,181.04z"/>
		</g>
		<path id="path872" inkscape:connector-curvature="0" fill="#309E3A" d="M296.431,148.666l2.142-9.38l6.927,1.597l-0.36,1.585
			l-5.04-1.159l-0.48,2.078l4.694,1.082l-0.363,1.578l-4.688-1.078l-0.584,2.552l5.217,1.202l-0.36,1.582L296.431,148.666
			L296.431,148.666z"/>
	</g>
</g>
</svg>
