<?xml version="1.0" encoding="utf-8"?>
<!-- Generator: Adobe Illustrator 16.0.0, SVG Export Plug-In . SVG Version: 6.00 Build 0)  -->
<!DOCTYPE svg PUBLIC "-//W3C//DTD SVG 1.1//EN" "http://www.w3.org/Graphics/SVG/1.1/DTD/svg11.dtd">
<svg version="1.1" id="Layer_1" xmlns="http://www.w3.org/2000/svg" xmlns:xlink="http://www.w3.org/1999/xlink" x="0px" y="0px"
	 width="600px" height="400px" viewBox="200 50 600 400" enable-background="new 200 50 600 400" xml:space="preserve">
<rect x="200" y="50" fill="#FF0000" width="600" height="400"/>
<rect x="350" y="50" fill="#FFFFFF" width="300" height="400"/>
<path fill="#FF0000" d="M499.995,128.125L479.527,166.3c-2.323,4.149-6.483,3.764-10.645,1.447l-14.818-7.673l11.044,58.636
	c2.323,10.713-5.129,10.713-8.807,6.081l-25.861-28.951l-4.198,14.702c-0.484,1.931-2.613,3.958-5.807,3.476l-32.701-6.875
	l8.589,31.227c1.839,6.949,3.273,9.826-1.856,11.658l-11.655,5.478l56.293,45.725c2.228,1.729,3.354,4.841,2.561,7.657
	l-4.927,16.168c19.382-2.233,36.75-5.596,56.142-7.665c1.711-0.183,4.578,2.643,4.566,4.626l-2.568,59.234h9.424l-1.483-59.107
	c-0.012-1.983,2.588-4.936,4.3-4.753c19.393,2.069,36.76,5.432,56.142,7.665l-4.927-16.168c-0.793-2.816,0.332-5.928,2.561-7.657
	l56.293-45.725l-11.655-5.478c-5.13-1.833-3.695-4.709-1.856-11.658l8.589-31.227l-32.701,6.875
	c-3.193,0.483-5.322-1.545-5.807-3.476l-4.198-14.702l-25.86,28.951c-3.678,4.632-11.13,4.632-8.807-6.081l11.044-58.636
	l-14.818,7.673c-4.161,2.317-8.322,2.702-10.645-1.447"/>
</svg>
