<?xml version="1.0" encoding="utf-8"?>
<!-- Generator: Adobe Illustrator 16.0.0, SVG Export Plug-In . SVG Version: 6.00 Build 0)  -->
<!DOCTYPE svg PUBLIC "-//W3C//DTD SVG 1.1//EN" "http://www.w3.org/Graphics/SVG/1.1/DTD/svg11.dtd">
<svg version="1.1"
	 id="svg378" xmlns:dc="http://purl.org/dc/elements/1.1/" xmlns:svg="http://www.w3.org/2000/svg" xmlns:cc="http://creativecommons.org/ns#" xmlns:sodipodi="http://sodipodi.sourceforge.net/DTD/sodipodi-0.dtd" xmlns:inkscape="http://www.inkscape.org/namespaces/inkscape" xmlns:rdf="http://www.w3.org/1999/02/22-rdf-syntax-ns#" inkscape:version="0.48.1 r9760" sodipodi:docname="cn.svg" sodipodi:version="0.31pre"
	 xmlns="http://www.w3.org/2000/svg" xmlns:xlink="http://www.w3.org/1999/xlink" x="0px" y="0px" width="600px" height="400px"
	 viewBox="-44 56 600 400" enable-background="new -44 56 600 400" xml:space="preserve">
<sodipodi:namedview  inkscape:cy="354.33051" inkscape:cx="531.495" showgrid="false" id="base" inkscape:zoom="0.30856358" inkscape:current-layer="svg378" inkscape:window-maximized="1" inkscape:window-y="24" inkscape:window-x="0" inkscape:window-height="723" inkscape:window-width="1280">
	</sodipodi:namedview>
<g id="flag" inkscape:label="#g3362">
	<rect id="rect149" x="-44" y="56" inkscape:label="#rect149" fill="#FF3300" width="600" height="400.021">
	</rect>
	<path id="path139" fill="#FFFF00" d="M140.843,256.519l-50.466-36.036l-50.219,36.391l18.677-59.135L8.709,161.221l62.017-0.509
		l19.235-58.957l19.647,58.821l62.017,0.078l-49.87,36.86L140.843,256.519z"/>
	<path id="path138" fill="#FFFF00" d="M261.355,128.963l-10.03-13.982l-16.447,5.062l10.2-13.859l-9.897-14.078l16.335,5.417
		l10.329-13.763l-0.105,17.208l16.281,5.571l-16.396,5.217L261.355,128.963z"/>
	<path id="path137" fill="#FFFF00" d="M220.274,383.986l-11.441-12.853l-15.826,6.762l8.689-14.854l-11.319-12.963l16.813,3.675
		l8.828-14.772l1.701,17.124l16.775,3.833l-15.758,6.908L220.274,383.986z"/>
	<path id="path136" fill="#FFFF00" d="M300.77,218.983l-5.572-16.28l-17.209,0.105l13.762-10.331l-5.417-16.334l14.078,9.897
		l13.858-10.2l-5.062,16.447l13.985,10.029l-17.206,0.268L300.77,218.983z"/>
	<path id="path135" fill="#FFFF00" d="M298.378,301.959l-14.074-9.902l-13.862,10.195l5.066-16.444l-13.98-10.035l17.207-0.263
		l5.222-16.396l5.566,16.283l17.209-0.1l-13.766,10.326L298.378,301.959z"/>
</g>
</svg>
