<?xml version="1.0" encoding="utf-8"?>
<!-- Generator: Adobe Illustrator 16.0.0, SVG Export Plug-In . SVG Version: 6.00 Build 0)  -->
<!DOCTYPE svg PUBLIC "-//W3C//DTD SVG 1.1//EN" "http://www.w3.org/Graphics/SVG/1.1/DTD/svg11.dtd">
<svg version="1.1"
	 id="Layer_1" xmlns:inkscape="http://www.inkscape.org/namespaces/inkscape" xmlns:sodipodi="http://sodipodi.sourceforge.net/DTD/sodipodi-0.dtd" xmlns:ns1="http://sozi.baierouge.fr" xmlns:rdf="http://www.w3.org/1999/02/22-rdf-syntax-ns#" xmlns:dc="http://purl.org/dc/elements/1.1/" xmlns:svg="http://www.w3.org/2000/svg" xmlns:cc="http://web.resource.org/cc/"
	 xmlns="http://www.w3.org/2000/svg" xmlns:xlink="http://www.w3.org/1999/xlink" x="0px" y="0px" width="400px" height="400px"
	 viewBox="106 196 400 400" enable-background="new 106 196 400 400" xml:space="preserve">
<g id="_x23_000000ff">
	<path d="M312.304,200.999c1.561,2.703,3.252,5.341,4.57,8.181c9.939,21.001,17.299,43.277,21.36,66.166
		c0.863,4.91,1.516,10.178-0.384,14.931c-8.816,21.433-15.463,43.662-21.91,65.891c-3.636,11.562-3.486,23.92-7.169,35.47
		c20.844-23.319,47.152-41.457,65.502-67.047c3.232-3.806,5.354-9.27,10.52-10.857c26.846-6.979,54.466-11.928,82.291-11.359
		c-3.559,7.684-8.325,14.715-13.125,21.674c-8.75,12.528-18.622,24.259-29.431,35.065c-4.009,3.662-7.726,7.795-12.519,10.478
		c-3.663,2.102-8.005,1.914-12.034,2.683c-20.001,2.991-39.655,7.841-59.251,12.757c-10.461,2.729-19.839,8.553-30.418,10.909
		c27.733,6.293,53.233,20.024,81.238,25.363c5.266,1.025,10.605,1.601,15.908,2.437c2.703,0.396,5.126,1.892,6.817,4.021
		c18.61,21.12,36.071,43.629,48.648,68.935c-8.268,0.68-16.542-0.288-24.756-1.161c-15.489-1.906-30.828-5.274-45.606-10.335
		c-5.518-1.972-11.616-3.845-15.246-8.787c-11.839-17.059-25.304-32.916-38.963-48.526c-3.084-3.448-5.981-7.064-9.424-10.165
		c-7.274-6.821-15.881-12.477-21.471-20.91c9.712,31.949,10.454,66.087,22.562,97.386c1.233,4.119,3.677,7.919,3.924,12.3
		c0.196,2.507-0.77,4.87-1.422,7.246c-7.804,26.721-17.436,53.115-31.449,77.264c-4.396-7.214-7.738-14.983-10.938-22.776
		c-6.165-15.283-10.957-31.128-14.19-47.285c-1.063-6.261-2.847-12.928-0.489-19.122c9.136-22.157,15.934-45.177,22.593-68.171
		c3.206-11.601,3.107-23.914,7.235-35.293c-20.66,24.195-47.767,42.279-66.462,68.255c-2.593,3.063-4.402,6.764-7.398,9.479
		c-1.548,1.457-3.605,2.136-5.642,2.56c-26.192,6.612-53.095,11.497-80.213,10.693c4.963-10.342,11.668-19.724,18.439-28.934
		c7.706-10.237,16.168-19.905,25.304-28.882c3.945-3.493,7.536-7.594,12.413-9.813c2.802-1.377,5.982-1.384,9.005-1.86
		c21.209-3.082,42.046-8.2,62.785-13.508c9.919-3.003,19.061-8.147,29.137-10.687c-15.822-3.506-30.84-9.767-46.087-15.133
		c-13.406-4.831-27.093-9.14-41.257-11.078c-3.702-0.731-7.575-0.627-11.146-1.959c-2.541-0.953-4.192-3.199-5.917-5.165
		c-17.993-20.519-34.709-42.499-47.024-66.997c3.278-0.222,6.563-0.352,9.847-0.177c21.81,1.253,43.515,5.426,64.065,12.9
		c3.481,1.273,7.007,2.755,9.743,5.322c1.633,1.456,2.782,3.329,4.035,5.099c10.834,15.296,22.953,29.626,35.269,43.74
		c3.494,3.905,6.778,8.01,10.605,11.607c6.862,6.502,14.861,11.882,20.647,19.461c-9.253-31.475-10.161-64.979-22.084-95.733
		c-1.6-5.04-4.976-10.021-3.539-15.525c8.006-27.996,17.788-55.754,32.533-80.981L312.304,200.999z"/>
	<path d="M345.379,227.55c13.935-7.455,27.432-15.727,41.688-22.588c10.852,6.267,21.633,12.646,32.433,18.997
		c0.659,0.438,1.678,0.783,1.58,1.782c2.364,17.692,4.846,35.639,2.809,53.481c-12.505,8.912-26.095,16.106-39.331,23.836
		c-14.458,8.355-25.434,21.224-38.446,31.461c-0.174-35.654,1.766-71.358-0.737-106.971L345.379,227.55z"/>
	<path d="M193.562,228.053c11.094-7.194,22.233-14.316,33.4-21.4c15.894,6.542,31.997,13.298,45.71,23.868
		c1.221,17.118-0.307,34.255-0.497,51.38c0.078,16.059,4.513,31.649,6.152,47.553c-29.17-17.3-57.157-36.657-87.502-51.914
		c0.947-16.489,1.144-33.032,2.744-49.484L193.562,228.053z"/>
	<path d="M461.807,346.416c12.969,8.943,26.336,17.333,38.918,26.832c0.308,13.859,0.308,27.72,0.248,41.587
		c-13.275,11.183-26.688,22.621-42.497,30.097c-10.865-5.529-20.987-12.365-31.169-19.044c-5.974-3.95-11.931-8.024-18.484-10.969
		c-10.984-5.11-22.686-8.441-33.729-13.415c28.817-18.493,59.118-34.732,86.711-55.099L461.807,346.416z"/>
	<path d="M110.997,377.855c13.25-11.386,26.826-22.837,42.725-30.384c11.29,5.778,21.81,12.9,32.388,19.86
		c4.486,2.937,8.92,5.98,13.713,8.409c11.962,6.15,25.049,9.655,37.292,15.166c-28.895,18.437-59.134,34.796-86.808,55.092
		c-12.87-9.073-26.329-17.312-38.846-26.884c-0.221-13.736-0.423-27.484-0.468-41.242L110.997,377.855z"/>
	<path d="M228.421,488.215c14.861-8.362,26.093-21.49,39.304-32.022c0.209,35.673-1.796,71.408,0.764,107.043
		c-13.916,7.423-27.42,15.615-41.583,22.574c-11.42-6.481-22.704-13.208-34-19.905c-2.547-17.94-4.786-36.134-3.011-54.266
		c12.187-8.84,25.547-15.849,38.518-23.432L228.421,488.215z"/>
	<path d="M334.903,461.262c29.157,17.267,57.084,36.683,87.456,51.837c-0.776,16.523-1.176,33.078-2.645,49.57
		c-11.108,7.167-22.255,14.284-33.399,21.406c-15.913-6.508-32.011-13.311-45.749-23.849c-1.268-17.249,0.327-34.516,0.521-51.765
		c-0.217-15.957-4.528-31.427-6.187-47.211L334.903,461.262z"/>
</g>
</svg>
