<?xml version="1.0" encoding="iso-8859-1"?>
<!-- Generator: Adobe Illustrator 16.0.0, SVG Export Plug-In . SVG Version: 6.00 Build 0)  -->
<!DOCTYPE svg PUBLIC "-//W3C//DTD SVG 1.1//EN" "http://www.w3.org/Graphics/SVG/1.1/DTD/svg11.dtd">
<svg version="1.1" id="Capa_1" xmlns="http://www.w3.org/2000/svg" xmlns:xlink="http://www.w3.org/1999/xlink" x="0px" y="0px"
	 width="163.443px" height="163.442px" viewBox="0 0 163.443 163.442" style="enable-background:new 0 0 163.443 163.442;"
	 xml:space="preserve">
<g>
	<g>
		<polygon points="81.262,87.437 82.56,89.222 83.642,91.208 84.741,93.785 85.823,95.871 87.211,98.152 88.903,100.429 
			90.983,102.816 91.87,102.71 91.775,101.227 90.888,99.14 88.903,96.764 87.312,94.08 86.125,91.799 85.137,89.222 84.538,87.141 
			82.752,85.362 81.366,83.666 80.373,83.866 80.471,85.451 		"/>
		<polygon points="91.68,59.869 92.768,59.071 92.768,57.98 90.392,57.788 89.091,59.271 88.406,61.554 87.803,64.332 
			87.714,70.183 89.5,73.561 90.581,78.015 91.574,80.698 92.768,84.162 94.955,87.235 96.935,89.818 98.418,92.992 101.297,96.268 
			103.377,97.449 106.156,98.75 109.229,100.228 111.913,99.441 113.893,97.449 116.772,95.375 118.255,93.885 119.249,90.806 
			118.947,89.617 118.054,90.215 116.666,92.396 114.886,93.986 112.9,95.079 111.316,96.161 109.135,97.26 107.344,96.562 
			105.458,95.274 102.585,92.396 100.304,90.61 98.418,87.732 97.03,84.759 96.042,81.986 96.042,79.304 94.352,76.727 
			92.963,73.221 92.667,70.68 91.68,68.797 91.479,65.517 91.68,62.145 		"/>
		<polygon points="112.699,69.583 111.014,66.317 108.934,61.654 105.76,58.084 102.585,55.202 98.815,53.024 94.056,51.928 
			88.305,52.927 83.145,54.706 78.789,56.996 75.81,59.476 73.729,64.529 73.239,68.797 73.729,74.341 74.625,80.888 75.417,82.673 
			76.011,84.457 76.41,86.35 76.809,89.127 77.595,91.905 78.691,93.885 80.671,97.544 83.352,102.32 85.232,105.098 88.11,107.876 
			90.09,109.75 92.969,112.723 96.131,114.413 98.223,115.797 100.6,117.588 103.579,118.876 108.237,118.977 112.404,118.48 
			115.477,117.191 117.369,114.413 117.758,113.22 119.342,111.245 122.026,108.656 124.101,104.885 125.697,102.71 
			126.583,100.322 127.577,97.745 128.073,95.375 128.57,92.697 128.475,90.61 127.979,89.919 126.986,91.208 125.389,95.375 
			125,98.549 124.208,101.527 122.322,103.898 120.442,106.576 118.751,108.857 117.167,111.541 115.382,114.318 111.813,115.501 
			108.538,115.797 105.062,116.098 102.585,114.514 100.399,113.515 97.432,111.836 94.754,110.045 93.17,107.965 90.09,105.878 
			88.21,102.911 85.923,100.523 84.339,97.745 82.255,93.986 80.574,90.51 79.084,87.141 77.988,80.497 77.693,77.116 
			77.196,74.058 76.307,70.576 76.307,66.516 77.595,63.344 79.286,60.566 81.463,58.58 86.125,57.593 89.5,56.305 94.163,56.098 
			98.118,56.402 100.895,57.892 103.975,59.869 105.86,61.358 106.747,64.033 109.525,68.501 111.612,72.961 112.404,76.833 
			111.913,79.304 110.82,81.78 110.022,83.866 108.042,83.961 107.445,82.282 105.955,80.297 102.887,76.833 101.102,73.354 
			97.828,69.288 96.54,65.729 95.144,64.923 94.251,65.815 94.648,68.005 95.847,71.073 98.72,76.727 101.398,80.196 
			105.458,83.771 106.948,86.254 110.329,86.94 113.107,83.074 113.692,79.002 114.189,74.941 		"/>
		<polygon points="101.592,87.638 104.465,89.617 105.458,91.491 108.142,92.798 110.915,93.088 111.813,91.208 110.619,89.719 
			107.445,89.222 105.565,87.336 102.787,84.759 100.701,82.188 99.317,79.895 98.72,80.793 99.317,83.666 100.304,85.947 		"/>
		<path d="M97.237,63.536l2.08,1.49l1.49,1.484l1.188,1.785l1.088,1.985l1.383,1.779l1.389,2.185l1.384,2.089l0.691,2.072
			l1.288-0.284l0.101-2.192l-0.603-2.078l-0.686-1.489l-1.389-2.577l-1.384-2.09l-1.483-2.97l-2.188-2.084l-1.784-1.584
			l-1.289-1.587l-1.785-0.502l-1.483,1.288c-0.408,0.836-0.757,1.345-1.194,2.084l0.598,0.999L97.237,63.536z"/>
		<path d="M89.695,147.041l-3.175-1.69l-3.566-1.483l-4.661-3.175l-4.661-3.464l-3.077-2.281l-3.171-2.979l-2.282-3.27l-3.667-5.852
			l-1.883-2.394l-2.385-5.645l-1.584-4.664l-1.889-4.368l-0.795-4.663l-0.792-4.457l0.195-5.946l0.295-6.158l0.6-5.746l0.89-3.969
			l0.192-2.778l1.292-3.467l0.89-2.574l1.093-2.385l2.379-0.993l0.502,0.795l-0.104,2.976l-0.496,1.974l-2.385,4.667l0.402,4.561
			l-0.697,5.449l0.594,5.852l0.792,4.268l1.682,5.255l1.292,4.368l2.385,4.953l2.474,4.161l2.58,3.972l2.281,3.866l3.771,4.858
			l4.557,4.262l4.164,3.766l1.883,2.187l4.765,1.584l3.369,1.194l3.269,1.088l3.476,1.791l2.222,0.372
			c1.549-1.082,3.139-2.223,4.771-3.417l-4.12-0.225l-3.966-0.804l-4.066-0.49l-4.765-2.784l-4.262-1.673l-2.678-1.791l-2.674-2.376
			l-2.876-3.381l-2.674-2.772l-3.476-4.262l-1.977-3.28l-1.69-3.47l-2.178-4.066l-2.379-7.034l-1.495-5.455l-1.283-8.423l-0.6-6.254
			l1.091-7.932l0.594-4.859l0.393-4.273l1.59-4.061l2.875-5.456l1.785-2.681l3.573-1.386l6.147-3.466l7.832-2.181l5.751-1.094
			l7.045,1.584l5.45,1.393l4.262,2.373l3.57,2.586l4.367,6.147l2.979,3.076l2.974,5.66l1.979,6.936l0.603,7.847l-0.992,5.438
			l-2.182,5.26l-1.69,5.758l-2.973,4.361l-1.289,4.558l-2.872,1.886l-3.866,0.496l-4.864-1.785l-4.066-2.482L97.81,99.73
			l-1.98-3.375l-2.583-3.563l-2.08-3.582l-1.886-2.778L87,82.673l-0.887-3.382l-0.798-3.957l-0.789-3.776l-0.497-3.366l0.601-2.879
			l0.496-2.488l-0.201-1.679l-2.178,2.385l-1.295,3.171l0.694,3.765l0.104,5.054l0.89,4.374l1.387,3.168l2.089,4.362l3.168,4.368
			l2.577,4.463l2.482,3.57l2.979,4.361l2.979,2.885l4.16,1.088l1.986,1.294h3.967l2.187-1.489l3.269-2.087l2.477-3.47l1.892-3.469
			l2.181-3.86l0.993-3.28l1.685-4.362l2.081-2.778l0.2-2.08l-0.502-6.656l-0.496-4.551l-1.088-4.457l-1.389-3.667l-2.477-4.667
			l-3.375-5.653l-2.282-2.675l-2.672-3.476l-2.884-2.571l-3.665-2.184l-5.16-2.282l-4.864-1.386h-4.362L88.4,38.454l-5.054,0.987
			l-3.972,0.801l-4.165,2.675l-5.453,2.881l-2.571,1.785l-2.083,2.379l-2.385,3.771l-1.883,2.583l-1.888,2.078l-2.282,3.762
			l-1.977,1.495l-0.207,1.785l-2.379,3.077l-1.097,3.171l-0.591,3.957l-0.594,2.775l0.098,4.468l-1.194,3.771l-0.198,4.362
			l-0.085,2.175l0.393,4.67l0.201,2.967l1.386,3.162l1.289,4.381l1.785,5.242l0.497,3.671l2.482,4.752l3.667,5.172l2.184,2.879
			l1.283,2.471l4.965,4.167l4.164,3.777l4.563,3.463l5.355,3.175l4.557,1.093l2.507,1.159c0.868-0.532,1.803-1.105,2.784-1.727
			L89.695,147.041z"/>
		<path d="M96.54,142.572l-5.261-1.679l-3.564-1.679l-3.177-1.596l-3.275-2.182l-2.872-2.181l-3.47-3.948l-3.476-3.783l-3.067-4.055
			l-2.184-3.771l-2.979-4.268l-2.379-5.455l-0.895-2.984l-1.49-1.893l-0.497-2.967l-1.584-2.275l0.198-2.879l-0.99,0.296
			l-0.497,3.168l1.093,1.685v3.08l1.091,2.086l1.096,3.08l0.295,0.686l1.386,3.469l2.083,4.067l2.087,4.368l2.979,3.469l2.876,4.062
			l2.382,2.884l2.482,3.369l3.47,2.577l4.46,2.081l3.168,1.891l4.066,1.697l4.268,1.968l1.561,0.532
			c1.04-0.68,2.116-1.395,3.228-2.146L96.54,142.572z"/>
		<path d="M5.407,53.231l0.89-1.194l2.178-2.482l2.385-3.074l3.171-2.875l1.69-1.791l1.977-2.081l4.868-4.56l3.771-2.479
			l5.251-3.875l4.268-3.165l9.818-4.861l5.349-2.977l3.573-1.288l3.467-1.679l3.118-1.59c-1.561-0.523-3.136-0.97-4.726-1.369
			l-1.761,0.574l-0.999-0.598l-0.032-0.635c-3.656-0.733-7.347-1.085-11.015-1.12L39.32,11.17l-5.054,2.482l-2.881,2.282
			l-2.778,1.185l-3.47,2.09l-2.976,1.682l-1.788,2.875l-3.768,2.882l-4.667,3.473l-2.379,4.256l-0.201,2.089l-1.986,2.778
			l-3.275,1.294l-2.633,0.721c-0.101,0.44-0.15,0.937-0.245,1.392v1.646l-0.311,0.121c-0.213,1.241-0.514,2.397-0.653,3.709
			c0,0.018,0,0.039,0,0.057l1.761-2.102l3.372-2.681l3.369-3.765l1.685-0.786l1.983-3.579l3.869-3.564l4.862-3.777l5.251-4.459
			l4.365-2.58l2.282-2.276l2.674-0.896l4.563-2.471l5.054-2.184L51,11.078l1.194,0.704l-0.195,1.974l-2.976,1.682l-3.771,0.89
			l-2.083,1.889L39.5,19.705l-3.372,2.482l-3.771,0.688l-3.274,3.662l-5.852,3.972l-1.682,1.978l-2.083,0.691l-2.178,2.681
			l-2.083,1.489l-2.178,2.873l-0.295,1.98l-3.177,1.3l-2.772,2.967l-1.889,1.194l-0.201,1.971L2.41,50.736L0.043,51.91
			c-0.071,1.835-0.053,3.655,0.044,5.464l0.139-0.101l2.681-3.667L5.407,53.231z"/>
		<path d="M96.734,15.94l5.361,0.497l5.751,1.98l8.926,4.164l5.55,4.265l4.066,3.076l4.457,3.668l4.764,3.771l2.873,3.656
			l3.18,3.777l2.482,3.171l1.98,2.778l2.974,3.662l3.274,4.46l2.683,3.573l2.477,5.251l1.88,2.684l1.129,2.512
			c0.621-2.016,1.147-4.058,1.578-6.115l-0.023-0.074l-2.477-3.877l-4.268-4.551l-3.859-5.66l-3.677-5.157l-3.073-4.164
			l-4.658-4.164l-2.583-4.457l-3.871-3.171l-4.658-4.265l-6.348-3.665l-5.557-4.073l-5.449-3.269l-6.549-2.385l-2.259-0.78
			c-2.388,0.769-4.698,1.688-6.957,2.73L96.734,15.94z"/>
		<path d="M46.853,128.989l-2.281-3.759l-2.276-4.865l-1.191-4.864l-0.993-3.369l-0.301-4.368l-0.594-3.871l-0.201-5.852
			l0.104-1.591l-0.295-1.188l-1.49,1.489l0.104,1.785l-0.298,3.47l0.103,3.375v3.274l0.692,5.449l0.597,3.074l0.697,5.06
			l1.186,2.281l0.703,1.053c2.341,2.039,4.679,3.983,6.99,5.84L46.853,128.989z"/>
		<path d="M9.172,29.127l5.054-4.259l3.673-3.076l4.061-3.766l2.482-2.388l0.497-1.685l1.386,0.195l4.066-2.276l1.7-0.818
			c-5.326,1.067-10.344,3.032-14.78,6.011l-0.7,1.847l-2.276,2.879l-4.158,1.672c-0.015,0.012-0.021,0.03-0.032,0.042l-1.566,2.742
			l-1.345,0.981c-0.839,1.289-1.561,2.716-2.27,4.161l1.333,0.618L9.172,29.127z"/>
		<path d="M141.166,103.1l-1.088,3.576l-0.945,2.3c1.336-1.52,2.647-3.073,3.913-4.657v-0.024l0.804-4.161l0.095-3.085l-0.497-2.968
			l-0.296-3.57l-0.2-3.664l-0.497-1.892l-1.093-0.101l-0.396,2.382l0.396,3.08l0.094,4.262l-0.094,4.562L141.166,103.1z"/>
		<path d="M88.11,20.692l5.746,0.7l8.038,2.178l5.657,2.181l4.657,2.172l5.757,3.074l8.128,5.757l3.569,3.073l4.463,4.164
			l2.577,3.077l2.678,2.964l3.274,5.462l3.57,4.864l2.275,4.061l2.281,2.974l1.686,4.268l2.175,4.858l1.69,3.966v3.08
			c1.058-2.217,2.01-4.463,2.854-6.745l-1.17-2.388l-1.785-3.966l-3.47-4.667l-2.482-3.762l-2.281-4.365l-2.979-3.963l-3.263-3.162
			l-2.376-5.749l-3.375-3.077l-3.464-3.073l-3.174-3.668l-3.973-2.681l-4.161-2.973l-6.146-3.166l-4.368-3.171l-5.054-1.985
			l-4.362-0.792l-5.852-1.882l-3.807-0.429c-1.514,0.845-2.979,1.747-4.397,2.704L88.11,20.692z"/>
		<path d="M66.784,27.348l-6.043,1.478l-1.889,2.391l-2.875,2.574l-4.557,2.583l-3.275,1.484l-3.573,1.785l-1.578,2.276L41.607,44.4
			l-1.49,2.675l-3.073,3.263l-2.09,2.981l-4.261,4.365l-2.48,3.171l-2.677,1.882l-3.771,2.482l-1.889,2.179l-2.675,2.482
			l-1.688,3.369l-2.574,3.865l-2.674,3.671L7.88,84.753l-0.139,0.153c0.612,1.212,1.271,2.406,1.938,3.606l1.578-3.157l2.078-3.575
			l2.385-4.947l2.778-4.265l3.274-4.17l2.184-2.967l1.882-1.383l1.094,0.39l0.195,1.691l-1.888,2.081l-1.682,2.379l-1.292,2.291
			l-1.486,2.663l-1.779,3.467l-2.385,4.475l-1.889,2.961l-2.275,2.482l-1.265,2.199c0.629,1.052,1.259,2.104,1.918,3.133
			l0.236-0.668l3.369-5.054l1.788-3.671l1.779-3.079l2.577-3.269l1.986-0.497l1.386,0.497l-0.201,1.193l-1.49,1.779l-1.584,2.176
			l-0.896,1.696l-1.289,2.275l-1.986,2.477l-0.097,2.281l-1.09,1.685l-1.584,3.369l-0.437,0.449
			c0.425,0.604,0.836,1.194,1.271,1.791l1.247-1.342l1.587-0.992l1.386-3.086l0.993-2.471l0.993-3.269l1.094-2.979l2.778-4.167
			l2.379-2.677l2.778-2.778l0.89-2.574l0.104-2.479l2.58-3.96l1.977-3.074l1.785-2.482l1.883-3.378l2.482-2.778l3.868-4.061
			l3.86-2.976l2.483-2.083l2.089-1.289l1.779-1.785l4.956-3.972l3.47-2.373l3.177-1.688l3.171-1.294l4.758-0.987l3.668-1.883
			l4.456-1.103l3.476-0.098l6.443-0.496l3.67,0.697h1.584l3.08,0.993l3.168,0.688l3.872,1.386l4.066,2.181l3.073,2.583l3.564,2.379
			l2.684,2.778l2.577,2.089l2.878,1.972l3.375,4.475l2.577,3.067l1.289,2.586l2.086,2.873l1.886,3.667l1.289,1.889l2.281,2.778
			l1.288,1.587l0.592,2.97l1.093,1.49l1.49,0.987l0.396,3.469l0.296,2.176l1.986,4.279v3.871l0.384,2.625
			c0.709-1.165,1.389-2.353,2.045-3.547l-0.945-6.921l-0.993-2.974l-1.088-3.077l-1.785-3.667l-1.59-4.262l-1.188-1.785
			l-2.271-3.369l-2.777-2.574l-1.49-3.771l-3.067-2.68l-1.986-3.263l-2.482-3.184l-4.167-3.661l-2.477-1.98l-3.966-3.57l-2.482-1.69
			l-3.671-2.674l-1.183-1.682l-3.569-1.386l-3.375-1.185l-3.369-0.691l-4.368-1.791l-2.382-0.295l-4.859,0.198l-5.455,1.19
			l-6.34,0.588l-6.646,2.184l-4.956,1.788l-7.536,3.762l-2.882,2.291l-2.275,1.584l-2.281,2.58l-4.262,2.873l-3.473,3.378
			l-2.772,2.979l-3.076,3.957l-3.668,3.372l-1.096,2.09l-2.778,4.265l-1.977,5.653l-2.281,5.249l-2.574,1.188l-1.889-0.488
			l1.188-2.778l1.087-2.872l1.386-2.684l1.49-2.876l0.691-2.178l0.896-2.178l2.873-2.881l1.09-2.474l3.275-3.18l3.57-4.067
			l2.282-1.888l3.573-2.964l2.178-2.385l3.667-1.986l2.778-2.385l3.564-3.074l4.861-2.967l3.57-1.103l3.573-1.185l3.771-1.18
			l3.57-0.999l4.268-0.594h2.474l2.979-0.399l1.288-1.386l-1.785-1.188h-4.037c-0.884,0.697-1.814,1.351-2.645,2.095
			c-0.671-0.605-1.428-1.126-2.137-1.688l-1.797,0.192l-5.854,2.281L66.784,27.348z"/>
		<path d="M138.482,68.295l-0.497-3.57l-0.686-1.386l-2.092-3.171l-1.98-4.764l-2.678-3.668l-2.08-1.785l-1.295-0.691l-0.396,1.194
			l2.482,3.269l2.175,3.762l1.59,3.469l2.477,5.557l0.799,3.963l0.691,7.241l-0.592,4.563l-0.496,6.248l0.496,7.341l-1.383,5.545
			l-3.47,11.219l-1.59,3.463l-3.665,4.161l-3.174,3.175l-2.872,2.671l-4.067,2.583l-4.262,1.986l-4.959-0.106l-4.764-0.893
			l-3.865-0.296l-5.953-2.175l-3.871-2.866l-2.778-2.678l-2.97-4.262l-1.986-3.18l-3.662-3.955l-2.68-4.072l-1.688-5.952
			l-1.882-5.65l-0.792-6.354l-0.098-6.146l-0.298-4.457l-0.393-3.671l-0.393-3.073l0.497-5.45l1.185-3.771l1.889-4.258l4.268-4.273
			l4.469-2.078l4.85-1.392l5.255-1.386l5.55,0.795l5.261,1.688l5.16,3.269l3.369,3.667l2.281,3.074l2.678,5.157l1.483,5.456
			l0.898,4.164l-0.597,4.762l-0.401,4.262l-1.779,2.482l-1.39,2.086l0.692,1.679l2.576-2.074l2.276-2.182l0.898-5.16l0.792-4.462
			l0.295-3.372l-0.686-3.171l-0.993-3.378l-0.993-3.165l-2.677-3.972l-2.282-3.166l-1.778-2.583l-3.771-2.674l-2.382-2.09
			l-2.583-1.676l-4.061-1.297l-4.463-1.283l-5.952,0.098l-4.362,0.792l-6.15,3.077l-3.269,1.688l-1.288,2.075l-2.979,2.09
			l-2.08,2.979l-1.587,2.876l-0.896,3.57l-0.295,3.57v4.262l0.295,4.17l-0.192,3.272l-0.299,3.569l0.201,5.154l0.198,1.584
			l0.89,5.367l1.69,5.355l2.571,5.745l1.587,3.476l3.771,5.249l3.369,3.582l2.58,3.062l2.876,3.877l3.57,3.369l3.168,1.785
			l5.952,2.081l4.657,1.105l6.349-0.201l3.073-0.604l1.508-0.349c6.064-4.752,12.4-10.214,18.459-16.284l1.956-2.902l1.585-3.865
			l1.288-4.562l0.993-3.961l0.999-5.556l-0.503-4.563l1.094-6.242l-0.296-3.871l1.194-4.956l-1.489-3.165L138.482,68.295z"/>
		<path d="M5.303,36.858l0.792-1.289l-1.283-2.181l-0.952,0.311c-0.58,1.386-1.052,2.887-1.513,4.406L5.303,36.858z"/>
		<path d="M5.697,60.862l6.052-5.949l2.675-2.875l5.26-5.66l4.061-3.369l3.875-3.875l4.459-3.171l4.959-1.478l2.577-1.496
			l3.171-2.474l4.469-3.67l5.949-2.382l5.06-3.071l6.641-3.673l4.138-1.235c-1.602-0.786-3.225-1.531-4.909-2.178l-0.216,0.047
			l-4.164,2.677l-3.966,2.282l-7.141,3.269l-4.069,2.583l-5.55,2.973l-3.074,2.081l-4.164,1.791l-4.365,3.567l-3.57,1.894
			l-3.275,3.275l-2.281,3.564l-3.57,2.681l-2.778,2.574l-2.875,3.073l-2.772,3.771l-3.771,2.178L0.359,60.59
			c0.175,1.623,0.399,3.233,0.695,4.829l0.091-0.089L5.697,60.862z"/>
		<path d="M149.091,88.329l-0.597-3.162l-1.578-3.085l-0.496-2.873l-1.39-3.677l-0.887-2.663l-1.389-3.768l-1.088-0.299v2.968
			l0.391,3.969l0.697,2.086l0.893,3.062l1.59,4.173l1.088,2.873l0.396,2.979l-0.201,3.865l-0.147,5.237
			c1.159-1.59,2.288-3.191,3.369-4.823L149.298,92L149.091,88.329z"/>
		<path d="M32.673,37.958l-2.184,3.269l-4.758,3.874l-1.986,1.18l-1.087,2.881l-2.678,1.685l-3.171,2.276l-1.088,2.976l-1.986,0.305
			l-2.675,2.778l-1.788,3.378l-3.068,2.474l-2.482,2.973l-1.584,1.889L2.053,69.97c0.34,1.309,0.75,2.598,1.167,3.886l2.29-2.674
			l2.474-3.958l2.184-2.586l4.262-4.758l4.365-4.164l5.054-4.362l3.08-3.177l3.168-3.96l2.577-2.184l2.577-3.077l1.09-2.276
			l-0.987-0.301L32.673,37.958z"/>
		<path d="M127.53,10.476l0.744,0.7l2.482,0.697l5.249,2.571l2.287,0.704l4.362,3.068l4.764,2.477l2.979,2.681l5.249,3.765
			l1.04,0.914C150.061,17.344,139.327,11.855,127.53,10.476z"/>
		<path d="M122.322,14.052l3.174,0.301l3.671,3.567l2.577,0.701l4.463,3.269l2.181,0.692l4.268,2.976l4.953,3.269l4.268,3.378
			l5.551,4.661l1.59,2.881l2.979,2.282l0.143,0.127c-0.526-2.488-1.212-4.812-2.027-6.986l-4.362-4.944l-3.771-2.282l-3.073-0.993
			l-0.497-1.779l-5.656-3.57l-3.476-1.986l-4.752-3.073l-7.543-3.274l-3.174-1.593l-2.571-0.192l-2.086,0.493l-2.453-1.723
			c-2.755,0.225-5.503,0.7-8.222,1.306l6.909,3.304l3.564,3.171l6.744,3.567l3.866,3.073l3.664,3.166l4.072,2.684l5.154,1.681
			l4.167,2.675l5.355,4.558l3.47,3.274l6.147,7.335l1.855,2.846c-0.035-1.581-0.101-3.159-0.266-4.758
			c-0.06-0.573-0.213-1.052-0.284-1.616l-2.004-2.214l-1.489-2.675l-3.563-2.772l-3.275-2.778l-3.865-3.18l-3.381-3.269
			l-2.577-0.887l-6.744-3.469l-1.975-0.201l-2.388-2.873l-4.764-2.881l-2.482-1.393l-2.377-1.478l-2.777-1.688l-0.592-1.587
			l0.935-0.302L122.322,14.052z"/>
		<path d="M154.151,45.881l-3.369-3.073l-2.576-2.778l-2.885-1.883l-2.772-2.881l-3.073-1.191l0.295,1.294l2.778,3.372l2.772,2.681
			l2.583,2.778l2.672,2.373l3.47,3.881l2.281,2.778l2.477,3.074l3.369,4.359l0.75,1.208c0.201-1.531,0.344-3.068,0.426-4.623
			l-3.257-4.427L154.151,45.881z"/>
		<path d="M28.11,107.268l-0.299-2.974l-0.792-0.496l-0.688,3.865l-0.287,3.239c0.691,0.757,1.38,1.502,2.078,2.234l-0.109-1.206
			L28.11,107.268z"/>
		<path d="M63.613,22.882l-5.157,2.385l-4.661,2.483l-3.667,0.984l-2.178,2.781l-4.858,1.978l-4.667,5.254l-2.875,4.165
			l-2.875,1.785l-4.365,6.348l-3.963,3.966l-6.543,5.06l-2.778,4.362l-3.275,2.678l-2.184,4.661l-3.07,3.762L4.6,77.737
			c0.467,1.2,0.946,2.394,1.472,3.575l1.41-1.902l3.869-6.346l2.081-2.881l1.986-1.49l5.453-5.742l3.966-4.371l4.661-4.77
			l3.074-3.357l6.839-7.35l2.778-3.866l2.678-1.483l3.171-2.58l4.362-2.778l4.959-2.976l2.976-1.888l7.144-2.669l5.55-2.882
			l4.478-0.455c-1.265-0.913-2.601-1.755-3.957-2.571l-3.396,1.433l-3.963,0.399L63.613,22.882z"/>
		<path d="M123.51,47.279l-3.771-3.375l-3.073-3.372l-3.771-1.888l-4.262-2.483l-5.261-2.479l-5.65-2.083l-7.643,0.109l-5.154,1.091
			l-4.265,1.093l-5.751,2.181l-5.06,1.779l-3.771,2.771l-6.053,5.258l-1.49,2.285l-2.081,2.878l-1.986,4.262l-1.483,3.668
			l-2.864,3.076l-2.772,3.375l-0.89,2.58l-1.888,2.876v1.688l-0.591,2.379l-1.292,3.174L41.4,81.088l0.104,3.57l-1.09,2.482
			l-0.192,2.578l0.89,3.085L42,94.878l0.594,2.678l-0.103,2.482l0.399,2.577l0.399,3.263l0.497,3.181l0.884,3.269l0.697,2.482
			l1.688,4.262l1.289,4.273l3.372,4.45l1.98,3.872l2.282,2.583l3.963,4.67l3.124,3.569c3.31,2.265,6.336,4.221,8.952,5.846
			l0.521-0.691l1.888,0.591l2.282,1.691l1.883,1.483l3.378,1.389l1.04,0.532c0.733-0.402,1.765-0.993,3.059-1.75l-3.111-0.875
			l-2.876-1.773l-3.771-2.683l-4.563-0.391l-1.685-1.395l-2.577-2.471l-3.467-2.885l-2.482-2.778l-3.771-4.557l-2.379-3.47
			l-1.289-2.672l-2.973-3.665l-1.584-3.67l-0.89-3.174l-1.096-3.264l-0.792-4.468l-1.194-7.235l-0.993-4.463l-0.591-4.758v-3.771
			l1.785-8.725l0.89-4.953l2.772-6.348l3.08-3.57l2.379-3.765l2.778-4.867l4.061-5.151l2.58-3.582l4.764-2.967l2.577-3.074
			l4.661-1.688l4.066-1.297l5.155-0.884l4.864-1.088l4.953-0.304l3.57,0.691l4.167,1.289l2.878,0.993l3.08,1.688l3.369,1.685
			l3.369,2.385l5.455,5.447l1.785,3.373l2.182,5.06l2.281,3.667l1.88,4.865l1.288,4.456l0.402,5.258l0.295,4.959l-0.2,5.739
			l0.106,4.67l-1.1,6.147l-0.686,5.261l-1.892,6.543l-2.772,2.678l-2.08,3.073l-2.974,3.966l-2.281,1.886l-3.865,2.684l-3.477,0.786
			l-3.765-0.201l-4.066-0.095l-2.678-0.798l-2.281-1.584l-2.176-1.596l-1.791-1.182l-2.175-1.691l-1.886-2.27l-1.495-1.992
			l-1.98-1.779l-1.685-2.677l-1.584-1.886l-1.985-3.57l-3.771-5.757l-1.49-3.866l-1.289-1.584l-0.393,2.66l1.088,3.476l1.587,3.665
			l2.681,4.456l4.07,5.557l2.57,2.778l2.584,3.582l3.765,5.147l5.952,1.892l5.154,1.791l5.154,0.095l4.663-0.189l3.169-1.985
			l2.482-2.282l2.086-1.679l2.275-2.777l3.665-3.582l1.288-3.264l1.986-3.469l1.289-3.766l0.893-4.368l0.792-3.671l0.886-6.543
			l-0.39-4.864l0.887-2.376l-0.296-2.482l-0.295-6.15l-1.088-3.765l-0.792-3.077l-2.275-3.28L127.18,56.6l-1.584-4.061
			L123.51,47.279z"/>
		<path d="M52.01,50.045l-3.369,3.881l-2.482,3.269l-1.779,1.785l-1.386,2.674l-2.681,3.47l-2.58,3.869l-0.987,3.171l-1.983,4.466
			l-0.697,4.365l-0.201,2.281l-0.497,3.766l-0.694,3.469l-1.49,4.664l-0.295,4.664l-0.104,1.885v3.174l0.296,4.954l0.103,4.562
			l0.122,2.034c1.368,1.371,2.754,2.701,4.146,4.019l-0.993-2.979l-0.296-4.759l-0.195-3.269l-0.295-3.671l0.594-6.844l0.688-5.16
			l0.792-3.074l0.201-2.08l0.296-4.273l0.896-4.061l1.69-3.074l1.191-4.061l1.685-3.378l2.178-4.758l3.472-4.368l2.772-2.974
			l1.788-2.875l2.48-4.165l-0.198-1.593L52.01,50.045z"/>
		<path d="M18.987,100.133l-0.101,1.892l-0.08,0.248c0.364,0.467,0.709,0.946,1.07,1.407v-2.264l-0.295-1.39L18.987,100.133z"/>
		<path d="M29.005,83.866l-2.58,5.952l-1.386,3.671l-1.088,3.263l-1.194,3.877l-0.198,3.27l-0.786,2.074
			c0.609,0.733,1.208,1.478,1.838,2.199l0.133-1.897v-2.087l1.096-2.275l0.695-2.182l0.691-2.187l0.89-1.572l0.89-3.085l0.497-3.074
			l0.993-2.885l0.792-3.073l0.103-1.282l-0.6-0.302L29.005,83.866z"/>
	</g>
</g>
<g>
</g>
<g>
</g>
<g>
</g>
<g>
</g>
<g>
</g>
<g>
</g>
<g>
</g>
<g>
</g>
<g>
</g>
<g>
</g>
<g>
</g>
<g>
</g>
<g>
</g>
<g>
</g>
<g>
</g>
</svg>
