<?xml version="1.0" encoding="utf-8"?>
<!-- Generator: Adobe Illustrator 16.0.0, SVG Export Plug-In . SVG Version: 6.00 Build 0)  -->
<!DOCTYPE svg PUBLIC "-//W3C//DTD SVG 1.1//EN" "http://www.w3.org/Graphics/SVG/1.1/DTD/svg11.dtd">
<svg version="1.1"
	 id="Layer_1" xmlns:inkscape="http://www.inkscape.org/namespaces/inkscape" xmlns:sodipodi="http://sodipodi.sourceforge.net/DTD/sodipodi-0.dtd" xmlns:ns1="http://sozi.baierouge.fr" xmlns:rdf="http://www.w3.org/1999/02/22-rdf-syntax-ns#" xmlns:dc="http://purl.org/dc/elements/1.1/" xmlns:svg="http://www.w3.org/2000/svg" xmlns:cc="http://web.resource.org/cc/"
	 xmlns="http://www.w3.org/2000/svg" xmlns:xlink="http://www.w3.org/1999/xlink" x="0px" y="0px" width="400px" height="400px"
	 viewBox="106 196 400 400" enable-background="new 106 196 400 400" xml:space="preserve">
<g id="Layer_x0020_1">
	<path fill="#2B2A29" stroke="#2B2A29" stroke-width="0.1971" d="M317.669,375.74l125.84-72.5l-125.84-72.593v145.089V375.74z
		 M317.669,561.33l125.556-72.217l-125.556-72.595v144.805V561.33z M161.909,465.515l120.272-69.195l-120.272-69.574V465.52V465.515
		z M294.447,415.86l-126.212,72.876l126.212,72.878V415.858V415.86z M294.447,230.643l-126.585,72.876l126.585,73.256V230.646
		V230.643z M450.117,326.081L328.25,396.316l121.867,70.234V326.079V326.081z M133.776,495.343V296.625l172.282-99.404
		l172.192,99.404v198.718l-172.192,99.403L133.776,495.343L133.776,495.343z"/>
</g>
</svg>
