<?xml version="1.0" encoding="utf-8"?>
<!-- Generator: Adobe Illustrator 16.0.0, SVG Export Plug-In . SVG Version: 6.00 Build 0)  -->
<!DOCTYPE svg PUBLIC "-//W3C//DTD SVG 1.1//EN" "http://www.w3.org/Graphics/SVG/1.1/DTD/svg11.dtd">
<svg version="1.1" id="Layer_1" xmlns="http://www.w3.org/2000/svg" xmlns:xlink="http://www.w3.org/1999/xlink" x="0px" y="0px"
	 width="400px" height="400px" viewBox="55 26.5 400 400" enable-background="new 55 26.5 400 400" xml:space="preserve">
<g>
	<title>Layer 1</title>
	<g id="imagebot_1" transform="translate(37.5 -35) matrix(0.844434 0 0 0.844434 -1.25507 73.5882)">
		<path id="imagebot_2" d="M32.04,73.748l195.52,338.547c6.71,11.646,19.145,18.816,32.5,18.816c13.487,0,25.854-7.17,32.631-18.816
			L488.158,73.748c3.289-5.723,5.065-12.236,5.065-18.815c0-20.793-16.839-37.635-37.628-37.635H64.672
			c-20.785,0-37.627,16.842-37.627,37.632c0,6.645,1.71,13.092,5,18.815L32.04,73.748z"/>
		<polygon id="imagebot_3" points="74.671,60.722 260.06,381.835 445.521,60.722 		"/>
	</g>
</g>
</svg>
