<?xml version='1.0' encoding='iso-8859-1'?>
<!DOCTYPE svg PUBLIC '-//W3C//DTD SVG 1.1//EN' 'http://www.w3.org/Graphics/SVG/1.1/DTD/svg11.dtd'>
<svg version="1.1" xmlns="http://www.w3.org/2000/svg" viewBox="0 0 297 297" xmlns:xlink="http://www.w3.org/1999/xlink" enable-background="new 0 0 297 297">
  <g>
    <path d="m22.1,131.563c21.522,8.995 61.16,19.98 126.401,19.98 65.226,0 104.858-10.979 126.39-19.979-7.01,0-15.487-2.16-24.043-6.44-7.443-3.726-15.382-9.968-23.059-16.004-14.153-11.129-28.788-22.637-44.688-22.637-9.205,0-17.782,3.913-25.496,11.633l-9.104,9.112-9.106-9.113c-7.713-7.719-16.29-11.632-25.495-11.632-15.897,0-30.533,11.508-44.687,22.637-7.677,6.036-15.617,12.278-23.061,16.004-8.553,4.279-17.042,6.439-24.052,6.439z"/>
    <path d="m0,136.64c0.384,0.761 10.131,20.004 33.172,37.978 20.995,16.377 58.046,35.899 115.329,35.899s94.334-19.523 115.328-35.899c23.041-17.974 32.787-37.218 33.171-37.978-16.909,10.038-60.697,29.213-148.499,29.213-87.804-0.001-131.595-19.176-148.501-29.213z"/>
  </g>
</svg>
