<?xml version='1.0' encoding='iso-8859-1'?>
<!DOCTYPE svg PUBLIC '-//W3C//DTD SVG 1.1//EN' 'http://www.w3.org/Graphics/SVG/1.1/DTD/svg11.dtd'>
<svg version="1.1" xmlns="http://www.w3.org/2000/svg" viewBox="0 0 297 297" xmlns:xlink="http://www.w3.org/1999/xlink" enable-background="new 0 0 297 297">
  <g>
    <path d="m67.822,162.854c2.991-25.627 24.458-45.568 50.427-45.568 11.086,0 21.63,3.641 30.251,10.158 8.621-6.52 19.164-10.158 30.25-10.158 25.97,0 47.435,19.941 50.428,45.568l57.057-35.706c2.797-1.75 2.985-4.758 0.419-6.684-2.566-1.926-4.667-3.501-4.667-3.501-6.804,5.996-13.295,10.377-16.102,12.182-3.324,2.135-7.169,3.266-11.119,3.266-3.954,0-7.801-1.131-11.122-3.268-3.386-2.178-12.15-8.105-20.346-16.107-12.095-11.807-18.225-23.555-18.225-34.924 0-5.754 1.364-11.189 3.77-16.004l-13.611-10.209c-3.802,8.813-10.847,17.807-21.259,27.178-10.121,9.113-20.141,15.572-20.551,15.836-3.234,2.078-6.974,3.18-10.816,3.18-3.84,0-7.577-1.1-10.817-3.18-1.061-0.682-10.66-6.936-20.549-15.836-7.922-7.127-13.876-14.037-17.956-20.816l-82.807,62.105c-2.64,1.98-2.511,5.032 0.286,6.782l57.059,35.706z"/>
    <path d="m213.732,172.52c0.748-1.01 1.174-2.24 1.174-3.531 0-20.436-16.222-37.063-36.156-37.063-12.643,0-23.781,6.674-30.249,16.773-6.47-10.1-17.607-16.773-30.252-16.773-19.934,0-36.156,16.627-36.156,37.063 0,1.291 0.428,2.521 1.176,3.531l65.231,40.82 65.232-40.82z"/>
    <path d="m297,275.627v-120.543c0-5.5-3.815-7.613-8.477-4.695l-134.475,84.152c-1.696,1.063-3.623,1.594-5.548,1.594-1.925,0-3.852-0.531-5.548-1.594l-134.475-84.152c-4.663-2.918-8.477-0.805-8.477,4.695v120.543c0,5.775 4.683,10.459 10.458,10.459h276.084c5.775,0 10.458-4.684 10.458-10.459z"/>
    <path d="m250.886,117.84c1.183,0.762 2.532,1.141 3.88,1.141 1.347,0 2.697-0.381 3.88-1.141 5.41-3.477 32.402-21.744 32.402-39.729 0-12.219-9.748-22.16-21.733-22.16-5.59,0-10.694,2.164-14.55,5.713-3.855-3.549-8.961-5.713-14.551-5.713-11.983,0-21.734,9.941-21.734,22.16 0,17.987 26.994,36.252 32.406,39.729z"/>
    <path d="m119.952,69.367c9.308,8.377 18.496,14.31 18.882,14.559 1.15,0.738 2.462,1.107 3.772,1.107 1.311,0 2.621-0.369 3.773-1.107 0.386-0.248 9.574-6.182 18.881-14.559 13.473-12.125 20.301-23.213 20.301-32.955 0-14.059-11.2-25.498-24.969-25.498-7.057,0-13.438,3.006-17.985,7.83-4.548-4.824-10.931-7.83-17.988-7.83-13.769,0-24.969,11.439-24.969,25.498-0.001,9.742 6.829,20.83 20.302,32.955z"/>
  </g>
</svg>
