<?xml version='1.0' encoding='iso-8859-1'?>
<!DOCTYPE svg PUBLIC '-//W3C//DTD SVG 1.1//EN' 'http://www.w3.org/Graphics/SVG/1.1/DTD/svg11.dtd'>
<svg version="1.1" xmlns="http://www.w3.org/2000/svg" viewBox="0 0 297 297" xmlns:xlink="http://www.w3.org/1999/xlink" enable-background="new 0 0 297 297">
  <g>
    <path d="m89.675,144.428c0-15.674-12.547-28.426-27.97-28.426-6.33,0-12.175,2.148-16.866,5.764-4.693-3.615-10.539-5.764-16.869-5.764-15.423,0-27.97,12.752-27.97,28.426 0,10.615 6.723,21.814 20.55,34.238 8.998,8.086 17.916,13.834 18.292,14.076 1.826,1.172 3.911,1.758 5.997,1.758 2.085,0 4.17-0.586 5.996-1.758 0.376-0.242 9.294-5.992 18.291-14.078 13.827-12.424 20.549-23.623 20.549-34.236z"/>
    <path d="m58.983,67.414c8.998,8.086 17.916,13.836 18.292,14.076 1.827,1.172 3.912,1.758 5.997,1.758 2.085,0 4.17-0.586 5.997-1.758 0.375-0.242 9.293-5.992 18.29-14.076 13.827-12.426 20.549-23.625 20.549-34.238 0-15.674-12.547-28.426-27.97-28.426-6.33,0-12.175,2.148-16.866,5.766-4.693-3.618-10.539-5.766-16.869-5.766-15.423,0-27.97,12.752-27.97,28.426 0.001,10.615 6.723,21.814 20.55,34.238z"/>
    <path d="m269.03,132.988c-6.33,0-12.175,2.148-16.866,5.764-4.693-3.615-10.539-5.764-16.869-5.764-15.423,0-27.97,12.75-27.97,28.426 0,10.613 6.723,21.814 20.55,34.238 8.999,8.084 17.917,13.834 18.292,14.076 1.826,1.172 3.912,1.758 5.997,1.758 2.085,0 4.17-0.586 5.997-1.758 0.375-0.242 9.293-5.992 18.29-14.078 13.827-12.423 20.549-23.623 20.549-34.236 0-15.676-12.547-28.426-27.97-28.426z"/>
    <path d="m162.953,238.834c0-40 0-155.586 0-155.586h80.495c35.028,0 47.742-28.549 47.742-47.74 0-6.133-4.971-11.104-11.103-11.104h-128.236c-6.132,0-11.104,4.971-11.104,11.104v161.646c-7.007-4.074-15.271-6.293-24.082-6.293-12.82,0-25.818,4.619-36.6,13.008-23.993,18.664-30.365,50.756-14.202,71.537 8.325,10.705 21.53,16.844 36.229,16.844 12.82,0 25.817-4.619 36.599-13.008 12.303-9.57 24.262-24.408 24.262-40.408z"/>
  </g>
</svg>
