<?xml version='1.0' encoding='iso-8859-1'?>
<!DOCTYPE svg PUBLIC '-//W3C//DTD SVG 1.1//EN' 'http://www.w3.org/Graphics/SVG/1.1/DTD/svg11.dtd'>
<svg version="1.1" xmlns="http://www.w3.org/2000/svg" viewBox="0 0 297 297" xmlns:xlink="http://www.w3.org/1999/xlink" enable-background="new 0 0 297 297">
  <g>
    <path d="m126.349,55.507c-9.808,0-18.699,4.144-25.132,10.833-6.433-6.689-15.324-10.833-25.132-10.833-19.58,0-35.511,16.52-35.511,36.825 0,13.99 9.583,29.905 28.481,47.304 13.037,12.002 25.917,20.511 26.459,20.867 1.731,1.138 3.717,1.707 5.702,1.707 1.986,0 3.972-0.57 5.703-1.708 0.541-0.355 13.42-8.865 26.454-20.868 18.896-17.399 28.477-33.314 28.477-47.302 0.001-20.305-15.925-36.825-35.501-36.825z"/>
    <path d="m293.85,253.065l-100.419-100.483c21.387-39.125 15.574-89.294-17.493-122.39-19.461-19.469-45.333-30.192-72.851-30.192-27.519,0-53.391,10.723-72.849,30.192-40.168,40.19-40.168,105.584 0,145.774 19.458,19.47 45.329,30.192 72.848,30.192 17.591,0 34.508-4.389 49.51-12.638l100.367,100.436c1.946,1.948 4.588,3.043 7.341,3.043 2.754,0 5.394-1.095 7.341-3.042l26.205-26.22c4.05-4.052 4.05-10.62 0-14.672zm-248.93-91.772c-32.082-32.099-32.082-84.328-1.42109e-14-116.427 15.537-15.548 36.195-24.109 58.167-24.109s42.63,8.562 58.168,24.108c32.075,32.102 32.076,84.332 0.001,116.428-15.539,15.548-36.198,24.109-58.17,24.109-21.972-2.84217e-14-42.629-8.561-58.166-24.109z"/>
  </g>
</svg>
