<?xml version='1.0' encoding='iso-8859-1'?>
<!DOCTYPE svg PUBLIC '-//W3C//DTD SVG 1.1//EN' 'http://www.w3.org/Graphics/SVG/1.1/DTD/svg11.dtd'>
<svg version="1.1" xmlns="http://www.w3.org/2000/svg" viewBox="0 0 297.012 297.012" xmlns:xlink="http://www.w3.org/1999/xlink" enable-background="new 0 0 297.012 297.012">
  <g>
    <path d="m162.207,144.709c0.398,0 0.807-0.02 1.215-0.071 5.592-0.663 9.592-5.736 8.93-11.339-0.664-5.592-5.735-9.592-11.339-8.93-5.593,0.664-9.593,5.735-8.929,11.339 0.612,5.184 5.021,9.001 10.123,9.001z"/>
    <path d="m236.43,108.082c2.479,0 4.969-0.897 6.929-2.714 4.133-3.838 4.389-10.287 0.562-14.431-3.838-4.133-10.287-4.378-14.42-0.551-4.143,3.827-4.389,10.286-0.563,14.419 2.012,2.177 4.746,3.277 7.492,3.277z"/>
    <path d="m133.224,144.79v-0.011c0.349,0.041 0.685,0.052 1.02,0.052 5.184,0 9.625-3.93 10.145-9.205 0.552-5.602-3.541-10.603-9.153-11.154-5.603-0.551-10.603,3.541-11.155,9.154-0.561,5.603 3.541,10.604 9.143,11.164z"/>
    <path d="m214.367,125.361c1.898,0 3.826-0.531 5.541-1.644 4.725-3.062 6.082-9.378 3.021-14.114-3.071-4.725-9.389-6.082-14.114-3.01-4.734,3.061-6.082,9.379-3.021,14.113 1.949,3.011 5.225,4.655 8.573,4.655z"/>
    <path d="m189.394,138.066c1.193,0 2.408-0.214 3.593-0.664 5.275-1.98 7.939-7.867 5.959-13.144-1.99-5.276-7.878-7.94-13.143-5.96-5.276,1.989-7.95,7.868-5.96,13.154 1.54,4.082 5.417,6.614 9.551,6.614z"/>
    <path d="m103.528,138.341c1.112,0.388 2.256,0.57 3.368,0.57 4.214,0 8.164-2.631 9.634-6.836 1.867-5.316-0.939-11.145-6.256-13.002-5.316-1.867-11.144,0.939-13.002,6.256-1.867,5.327 0.939,11.145 6.256,13.012z"/>
    <path d="m53.258,105.164c2,2.051 4.652,3.071 7.307,3.071 2.571,0 5.143-0.959 7.123-2.898 4.031-3.939 4.112-10.398 0.173-14.43-3.938-4.031-10.398-4.112-14.43-0.174-4.031,3.94-4.113,10.4-0.173,14.431z"/>
    <path d="m76.219,124.573c1.755,1.185 3.745,1.746 5.705,1.756 3.275,0 6.5-1.582 8.47-4.5 3.153-4.674 1.918-11.012-2.745-14.176-4.674-3.153-11.021-1.918-14.175,2.756-3.153,4.674-1.919,11.012 2.745,14.164z"/>
    <path d="m173.498,184.938c-7.477,0-14.516,3.06-19.825,8.614-1.347,1.41-3.213,2.209-5.164,2.209s-3.817-0.799-5.165-2.209c-5.307-5.555-12.347-8.614-19.823-8.614-15.468,0-28.052,13.171-28.052,29.359 0,11.632 8.982,26.049 25.978,41.693 12.539,11.544 24.861,19.683 25.38,20.024 1.004,0.66 2.363,0.659 3.369-0.002 0.511-0.338 12.916-8.553 25.373-20.022 16.991-15.646 25.973-30.064 25.973-41.694-0.001-16.188-12.581-29.358-28.044-29.358z"/>
    <path d="m138.3,168.649v4.727c3.626,1.393 7.056,3.302 10.209,5.692 3.15-2.389 6.578-4.297 10.201-5.688v-4.731c34-2.247 66.044-15.693 91.173-38.441 27.557-24.946 45.717-63.012 47.123-99.5 0.103-2.683-1.091-5.317-2.999-7.216-1.889-1.898-4.522-2.989-7.206-2.989-2.693,0-5.326,1.091-7.225,2.989-1.897,1.899-2.887,4.533-2.99,7.216-0.15,3.913-0.759,10.543-1.427,14.338-4.184-1.229-8.847,0.332-11.38,4.153-3.112,4.704-1.827,11.031 2.867,14.144 1.03,0.685 2.144,1.133 3.278,1.403-1.283,3.575-2.732,7.074-4.336,10.491-0.472-2.152-1.632-4.17-3.463-5.68-4.348-3.592-10.777-2.969-14.369,1.379-3.582,4.347-2.97,10.775 1.377,14.368 1.898,1.561 4.205,2.326 6.491,2.326 1.257,0 2.504-0.245 3.686-0.701-22.483,36.929-64.054,61.647-110.806,61.647-47.506,0-89.659-25.523-111.875-63.443 1.708,1.162 3.714,1.772 5.738,1.772 2.164,0 4.338-0.684 6.185-2.092 4.48-3.429 5.338-9.827 1.918-14.307-3.418-4.481-9.827-5.338-14.307-1.919-2.654,2.031-4.025,5.104-4.001,8.203-2.006-4.124-3.782-8.371-5.317-12.729 1.718-0.138 3.426-0.711 4.95-1.751 4.643-3.194 5.827-9.542 2.643-14.195-2.855-4.149-8.226-5.526-12.657-3.493-0.631-3.658-1.247-10.146-1.393-13.916-0.104-2.693-1.063-5.317-2.962-7.216-1.897-1.898-4.52-2.989-7.215-2.989-2.685,0-5.317,1.091-7.215,2.989-1.898,1.899-3.095,4.533-2.991,7.216 1.406,36.488 19.564,74.554 47.121,99.5 25.13,22.749 57.174,36.196 91.174,38.443z"/>
  </g>
</svg>
