<?xml version='1.0' encoding='iso-8859-1'?>
<!DOCTYPE svg PUBLIC '-//W3C//DTD SVG 1.1//EN' 'http://www.w3.org/Graphics/SVG/1.1/DTD/svg11.dtd'>
<svg version="1.1" xmlns="http://www.w3.org/2000/svg" viewBox="0 0 297 297" xmlns:xlink="http://www.w3.org/1999/xlink" enable-background="new 0 0 297 297">
  <g>
    <path d="m148.5,64.788c13.861,0 27.198,2.292 39.65,6.517 12.2-12.982 18.173-24.782 18.173-35.843 0-19.554-15.617-35.462-34.814-35.462-9.276,0-17.718,3.715-23.965,9.761-6.246-6.046-14.689-9.761-23.965-9.761-19.197,0-34.814,15.908-34.814,35.462 0,11.204 6.134,23.165 18.656,36.348 12.86-4.542 26.684-7.022 41.079-7.022z"/>
    <path d="m39.99,188.49c0,59.833 48.677,108.51 108.51,108.51s108.51-48.677 108.51-108.51c0-59.834-48.677-108.511-108.51-108.511s-108.51,48.677-108.51,108.511zm195.319,0c0,47.866-38.942,86.808-86.809,86.808s-86.809-38.942-86.809-86.808c0-47.867 38.942-86.809 86.809-86.809s86.809,38.942 86.809,86.809z"/>
  </g>
</svg>
