<?xml version='1.0' encoding='iso-8859-1'?>
<!DOCTYPE svg PUBLIC '-//W3C//DTD SVG 1.1//EN' 'http://www.w3.org/Graphics/SVG/1.1/DTD/svg11.dtd'>
<svg version="1.1" xmlns="http://www.w3.org/2000/svg" viewBox="0 0 297 297" xmlns:xlink="http://www.w3.org/1999/xlink" enable-background="new 0 0 297 297">
  <g>
    <path d="m168.265,178.811c-5.596,0-10.148,4.793-10.148,10.684 0,5.31-4.305,9.614-9.615,9.614-5.311,0-9.615-4.305-9.615-9.614 0-5.891-4.553-10.684-10.15-10.684-5.595,0-10.148,4.793-10.148,10.684 0,9.06 16.338,24.332 29.908,34.037 13.573-9.725 29.918-25.011 29.918-34.037-0.002-5.891-4.556-10.684-10.15-10.684z"/>
    <path d="m227.824,79.584c0-6.086-1.151-11.961-3.263-17.516 7.398-6.463 12.077-15.958 12.077-26.554 0-19.471-15.784-35.255-35.256-35.255-13.952,0-26.01,8.106-31.725,19.864-6.738-1.447-13.828-2.236-21.158-2.236-7.33,0-14.42,0.789-21.158,2.236-5.714-11.757-17.772-19.863-31.724-19.863-19.472-1.55431e-15-35.256,15.784-35.256,35.255 0,10.596 4.68,20.091 12.077,26.554-2.111,5.555-3.263,11.43-3.263,17.516 0,32.253 31.825,58.71 72.381,61.448v-23.54c-5.715-2.325-9.699-7.41-9.699-13.311 0-5.803 4.159-8.839 8.268-8.839 1.835,0 3.414,0.536 4.94,1.056 1.213,0.412 2.467,0.839 3.436,0.839 0.968,0 2.223-0.427 3.434-0.839 1.527-0.52 3.107-1.056 4.941-1.056 4.108,0 8.268,3.036 8.268,8.839 0,5.9-3.984,10.985-9.699,13.311v23.54c40.555-2.74 72.379-29.196 72.379-61.449zm-107.777,15.608c-1.796,1.795-4.273,2.821-6.806,2.821-2.532,0-5.011-1.026-6.795-2.821-1.794-1.784-2.82-4.262-2.82-6.794 0-2.532 1.026-5.011 2.82-6.795 1.784-1.795 4.263-2.82 6.795-2.82 2.532,0 5.01,1.025 6.806,2.82 1.784,1.784 2.81,4.263 2.81,6.795-0.001,2.533-1.026,5.01-2.81,6.794zm70.511,0c-1.795,1.795-4.273,2.821-6.806,2.821-2.532,0-5.011-1.026-6.795-2.821-1.794-1.784-2.82-4.262-2.82-6.794 0-2.532 1.026-5.011 2.82-6.795 1.784-1.795 4.263-2.82 6.795-2.82 2.543,0 5.011,1.025 6.806,2.82 1.784,1.784 2.81,4.263 2.81,6.795-0.001,2.533-1.026,5.01-2.81,6.794z"/>
    <path d="m297,147.123c0-20.605-15.337-37.368-34.188-37.368h-27.501c-4.914,9.404-12.173,17.979-21.538,25.263-17.595,13.684-40.775,21.221-65.273,21.221s-47.679-7.537-65.273-21.221c-9.365-7.284-16.624-15.858-21.538-25.263h-27.501c-18.851,0-34.188,16.763-34.188,37.368 0,20.603 15.337,37.366 34.188,37.366h35.824c-0.261,2.22-0.594,4.439-0.921,6.626-1.137,7.579-2.302,15.351-0.663,23.081l-16.705,5.449c-0.299,0.098-0.594,0.215-0.878,0.35-8.04,3.803-14.104,10.641-17.073,19.252-3.187,9.242-2.412,19.73 2.124,28.776l4.042,8.053c4.521,9.016 12.462,15.922 21.782,18.952 3.524,1.145 7.118,1.713 10.677,1.712 5.243,0 10.403-1.234 15.122-3.676l40.586-20.988c13.402,2.968 27.389,2.968 40.791,0l40.585,20.987c7.922,4.1 17.085,4.795 25.8,1.965 9.32-3.03 17.261-9.936 21.782-18.951l4.042-8.055c4.536-9.045 5.311-19.533 2.124-28.775-2.97-8.611-9.033-15.449-17.073-19.252-0.284-0.135-0.579-0.252-0.878-0.35l-16.705-5.449c1.639-7.73 0.474-15.502-0.663-23.081-0.328-2.187-0.66-4.406-0.921-6.626h35.824c18.85,8.52651e-14 34.187-16.763 34.187-37.366zm-143.306,96.127c-1.581,1.015-3.388,1.523-5.193,1.523-1.806,0-3.61-0.509-5.193-1.523-7.339-4.711-43.95-29.44-43.95-53.755 0-16.495 13.179-29.914 29.378-29.914 7.604,0 14.543,2.957 19.766,7.8 5.222-4.843 12.16-7.8 19.764-7.8 16.199,0 29.378,13.419 29.378,29.914-0.001,24.314-36.611,49.044-43.95,53.755z"/>
  </g>
</svg>
