<?xml version='1.0' encoding='iso-8859-1'?>
<!DOCTYPE svg PUBLIC '-//W3C//DTD SVG 1.1//EN' 'http://www.w3.org/Graphics/SVG/1.1/DTD/svg11.dtd'>
<svg version="1.1" xmlns="http://www.w3.org/2000/svg" viewBox="0 0 297.001 297.001" xmlns:xlink="http://www.w3.org/1999/xlink" enable-background="new 0 0 297.001 297.001">
  <g>
    <path d="m240.804,112.435c-10.231,0-18.521,8.074-18.521,18.032 0,9.959 8.289,18.032 18.521,18.032-10.231,0-18.521,8.075-18.521,18.034 0,9.958 8.289,18.032 18.521,18.032 18.516,0 41.664-36.066 41.664-36.066s-23.15-36.064-41.664-36.064z"/>
    <path d="m214.369,148.5c-1.873-2.656-3.336-5.611-4.318-8.771h-15.743c-1.597-30.617-11.548-59.557-29.03-84.169-18.602-26.19-45.07-45.758-74.527-55.104-2.964-0.938-6.196-0.411-8.704,1.427-2.509,1.835-3.991,4.757-3.991,7.865v129.98h-18.949l-29.597-29.598c-3.427-3.425-8.98-3.425-12.407,0-3.426,3.426-3.426,8.981 0,12.407l25.964,25.964-25.964,25.964c-3.426,3.426-3.426,8.981 0,12.407 1.714,1.712 3.958,2.569 6.204,2.569 2.245,0 4.49-0.857 6.203-2.569l29.599-29.599h18.947v129.979c0,3.107 1.482,6.03 3.991,7.865 1.691,1.239 3.712,1.883 5.758,1.883 0.988,0 1.98-0.15 2.946-0.456 29.457-9.345 55.925-28.913 74.526-55.102 17.482-24.612 27.434-53.552 29.03-84.169h15.743c0.983-3.16 2.445-6.116 4.319-8.773zm-116.817,124.615v-115.842h77.205c-3.148,50.989-33.476,96.215-77.205,115.842zm0-133.387v-115.842c43.73,19.628 74.058,64.854 77.205,115.843h-77.205z"/>
  </g>
</svg>
