<?xml version='1.0' encoding='iso-8859-1'?>
<!DOCTYPE svg PUBLIC '-//W3C//DTD SVG 1.1//EN' 'http://www.w3.org/Graphics/SVG/1.1/DTD/svg11.dtd'>
<svg version="1.1" xmlns="http://www.w3.org/2000/svg" viewBox="0 0 297 297" xmlns:xlink="http://www.w3.org/1999/xlink" enable-background="new 0 0 297 297">
  <g>
    <path d="m297,210.378v-105.6c0-12.737-10.363-23.1-23.1-23.1h-141.9c-12.737,0-23.1,10.362-23.1,23.1v105.6c0,12.737 10.362,23.101 23.1,23.101h69.951l53.618,35.745c0.996,0.663 2.337,0.73 3.385,0.165 1.078-0.576 1.746-1.691 1.746-2.91v-33h13.2c12.737,2.84217e-14 23.1-10.364 23.1-23.101zm-88.701-8.168c-1.629,1.045-3.488,1.568-5.348,1.568-1.859,0-3.718-0.523-5.348-1.568-7.556-4.851-45.253-30.313-45.253-55.348 0-16.984 13.57-30.801 30.249-30.801 7.829,0 14.974,3.045 20.352,8.031 5.376-4.986 12.52-8.031 20.349-8.031 16.68,0 30.249,13.816 30.249,30.801 5.68434e-14,25.035-37.694,50.498-45.25,55.348z"/>
    <path d="m223.3,135.863c-5.761,0-10.449,4.935-10.449,11 0,5.467-4.432,9.899-9.899,9.899-5.468,0-9.9-4.433-9.9-9.899 0-6.065-4.688-11-10.451-11-5.761,0-10.448,4.935-10.448,11 0,9.328 16.821,25.054 30.793,35.046 13.976-10.013 30.805-25.752 30.805-35.046-0.002-6.066-4.69-11-10.451-11z"/>
    <path d="m132,66.279h56.1v-15.95c0-12.737-10.362-23.1-23.1-23.1h-141.9c-12.736,0-23.1,10.362-23.1,23.1v105.601c0,12.736 10.363,23.1 23.1,23.1h13.2v33c0,1.219 0.668,2.334 1.744,2.909 1.054,0.565 2.391,0.499 3.387-0.163l52.069-34.715v-23.536c-0.32-0.16-0.641-0.319-0.945-0.515-7.556-4.85-45.253-30.313-45.253-55.348 0-16.983 13.57-30.8 30.249-30.8 7.829,0 14.974,3.044 20.352,8.03 4.745-4.401 10.868-7.285 17.622-7.903 4.997-2.375 10.583-3.71 16.475-3.71z"/>
    <path d="m77.551,89.662c-5.761,0-10.448,4.935-10.448,11 0,8.366 13.527,21.873 26.397,31.779v-22.921c-3.256-1.622-5.498-4.974-5.498-8.857 0-6.066-4.688-11.001-10.451-11.001z"/>
  </g>
</svg>
