<?xml version='1.0' encoding='iso-8859-1'?>
<!DOCTYPE svg PUBLIC '-//W3C//DTD SVG 1.1//EN' 'http://www.w3.org/Graphics/SVG/1.1/DTD/svg11.dtd'>
<svg version="1.1" xmlns="http://www.w3.org/2000/svg" viewBox="0 0 297 297" xmlns:xlink="http://www.w3.org/1999/xlink" enable-background="new 0 0 297 297">
  <g>
    <path d="m125.768,45.711v-3.212c0-12.535 10.197-22.732 22.732-22.732 12.535,0 22.732,10.197 22.732,22.732v3.212h19.767v-3.212c0-23.434-19.065-42.499-42.499-42.499-23.434,0-42.499,19.065-42.499,42.499v3.212h19.767z"/>
    <path d="m175.748,148.466c-10.119,0-18.352,8.563-18.352,19.088 0,4.913-3.982,8.896-8.895,8.896-4.913,0-8.896-3.982-8.896-8.896 0-10.525-8.233-19.088-18.353-19.088-10.119,0-18.352,8.563-18.352,19.088 0,15.513 26.229,38.896 45.597,52.263 19.369-13.388 45.603-36.787 45.603-52.263 2.84217e-14-10.526-8.233-19.088-18.352-19.088z"/>
    <path d="m50.653,59.054c-5.458,0-9.884,4.426-9.884,9.884v191.493c0,20.165 16.404,36.569 36.569,36.569h142.322c20.165,0 36.569-16.404 36.569-36.569v-191.493c0-5.458-4.426-9.884-9.884-9.884h-195.692zm102.653,178.94c-1.463,0.939-3.134,1.409-4.805,1.409-1.671,0-3.341-0.47-4.805-1.409-5.997-3.849-58.586-38.522-58.586-70.44 0-20.335 16.213-36.878 36.142-36.878 10.86,0 20.617,4.913 27.249,12.674 6.631-7.761 16.388-12.674 27.247-12.674 19.929,0 36.142,16.543 36.142,36.878 0,31.916-52.587,66.591-58.584,70.44z"/>
  </g>
</svg>
