<?xml version='1.0' encoding='iso-8859-1'?>
<!DOCTYPE svg PUBLIC '-//W3C//DTD SVG 1.1//EN' 'http://www.w3.org/Graphics/SVG/1.1/DTD/svg11.dtd'>
<svg version="1.1" xmlns="http://www.w3.org/2000/svg" viewBox="0 0 297 297" xmlns:xlink="http://www.w3.org/1999/xlink" enable-background="new 0 0 297 297">
  <g>
    <path d="m172.001,122.745c-3.534,0-6.805,1.18-9.46,3.406-6.42,5.391-7.007,15.303-1.308,22.096 1.558,1.855 2.318,4.113 2.319,6.361 0.002,2.83-1.202,5.643-3.542,7.605-4.192,3.52-10.447,2.975-13.967-1.221-3.174-3.783-7.734-5.951-12.514-5.951-3.532,0-6.803,1.178-9.457,3.406-6.423,5.395-7.014,15.307-1.316,22.1 5.496,6.553 21.525,10.311 43.978,10.311h0.004c6.618,0 12.563-0.334 16.786-0.66 5.686-21.631 9.246-51.654 0.986-61.504-3.169-3.781-7.729-5.949-12.509-5.949z"/>
    <path d="m95.723,80.565c-0.827,0-2.054,0.203-3.206,1.172-2.119,1.779-2.396,4.957-0.616,7.078 0.953,1.139 2.354,1.789 3.842,1.789 0.827,0 2.054-0.203 3.207-1.17 2.123-1.783 2.399-4.955 0.622-7.072-0.958-1.143-2.36-1.797-3.849-1.797z"/>
    <path d="m290.936,175.131l-143.909-171.588c-2.679-3.197-7.074-4.369-10.992-2.945l-82.068,29.92c-2.188,0.799-4.026,2.34-5.189,4.357l-43.701,75.67c-2.084,3.609-1.689,8.135 0.989,11.328l143.912,171.584c1.69,2.016 4.112,3.275 6.733,3.506 0.288,0.025 0.575,0.037 0.863,0.037 2.322,0 4.582-0.816 6.375-2.32l125.766-105.584c4.191-3.519 4.738-9.771 1.221-13.965zm-214.229-73.574c-8.799-10.494-7.429-26.195 3.057-35.004 4.468-3.752 10.134-5.816 15.959-5.816 7.368,0 14.309,3.236 19.042,8.881 8.801,10.49 7.428,26.191-3.062,34.998-4.462,3.75-10.133,5.818-15.961,5.818-7.366,1.42109e-14-14.304-3.234-19.035-8.877zm131.035,68.137c-2.395,17.381-6.867,32.033-7.058,32.648-1.147,3.729-4.375,6.439-8.248,6.922-0.465,0.059-11.566,1.424-25.697,1.424-0.003,0-0.003,0-0.006,0-29.579,0-49.486-5.854-59.169-17.396-12.72-15.166-11.034-37.609 3.758-50.029 6.185-5.191 14.07-8.051 22.208-8.051 1.355,0 2.702,0.078 4.035,0.229 0.564-9.234 4.696-18.154 12.228-24.477 6.183-5.189 14.069-8.047 22.208-8.047 10.66,0 20.758,4.752 27.704,13.037 8.798,10.49 11.502,28.57 8.037,53.74z"/>
  </g>
</svg>
