<?xml version='1.0' encoding='iso-8859-1'?>
<!DOCTYPE svg PUBLIC '-//W3C//DTD SVG 1.1//EN' 'http://www.w3.org/Graphics/SVG/1.1/DTD/svg11.dtd'>
<svg version="1.1" xmlns="http://www.w3.org/2000/svg" viewBox="0 0 297 297" xmlns:xlink="http://www.w3.org/1999/xlink" enable-background="new 0 0 297 297">
  <g>
    <path d="m148.498,152.609c18.338-13.229 40.329-34.311 40.329-47.419 0-8.997-6.721-16.318-14.982-16.318-8.267,0-14.992,7.321-14.992,16.318 0,5.715-4.634,10.349-10.349,10.349-5.715,0-10.349-4.634-10.349-10.349 0-8.997-6.725-16.318-14.991-16.318s-14.991,7.321-14.991,16.319c-2.84217e-14,13.147 21.988,34.213 40.325,47.418z"/>
    <path d="m0,207.744v25.613c0,15.834 12.998,28.717 28.976,28.717h239.049c15.978,0 28.976-12.883 28.976-28.717v-25.613c0-1.711-1.393-3.104-3.105-3.104h-290.791c-1.712,0.001-3.105,1.393-3.105,3.104zm131.425,6.727h34.15c5.715,0 10.348,4.634 10.348,10.349 0,5.715-4.633,10.349-10.348,10.349h-34.15c-5.715,0-10.348-4.634-10.348-10.349-1.42109e-14-5.715 4.633-10.349 10.348-10.349z"/>
    <path d="m278.373,190.152v-119.006c0-19.972-16.248-36.22-36.22-36.22h-187.306c-19.972,0-36.22,16.248-36.22,36.22v119.007h259.746zm-155.209-121.977c9.898,0 18.869,4.201 25.34,10.975 6.472-6.773 15.442-10.975 25.341-10.975 19.674,0 35.68,16.604 35.68,37.015 0,14.07-9.647,30.088-28.675,47.608-13.137,12.096-26.113,20.67-26.659,21.029-1.726,1.134-3.707,1.702-5.687,1.702-1.979,0-3.959-0.567-5.686-1.702-0.546-0.358-13.524-8.933-26.663-21.028-19.03-17.52-28.68-33.537-28.68-47.608 0.001-20.412 16.01-37.016 35.689-37.016z"/>
  </g>
</svg>
