<?xml version='1.0' encoding='iso-8859-1'?>
<!DOCTYPE svg PUBLIC '-//W3C//DTD SVG 1.1//EN' 'http://www.w3.org/Graphics/SVG/1.1/DTD/svg11.dtd'>
<svg version="1.1" xmlns="http://www.w3.org/2000/svg" viewBox="0 0 297 297" xmlns:xlink="http://www.w3.org/1999/xlink" enable-background="new 0 0 297 297">
  <g>
    <path d="m244.178,116.887l14.323-16.161c2.694-3.04 3.355-7.377 1.688-11.081-1.666-3.704-5.351-6.087-9.412-6.087h-118.901l-30.789-32.264c1.943-11.824 3.809-33.552-6.129-43.975-4.435-4.651-10.596-7.319-16.901-7.319-5.694,0-11.067,2.134-15.129,6.008-3.748,3.574-6.045,8.26-6.609,13.398-5.157,0.329-9.974,2.417-13.693,5.965-8.885,8.481-8.977,22.864-0.203,32.066 5.748,6.025 15.521,8.956 29.874,8.956 0.002,0 0.002,0 0.004,0 5.201,0 10.119-0.398 13.879-0.821l17.164,17.986h-22.874c-4.063,0-7.746,2.383-9.412,6.087-1.668,3.704-1.006,8.041 1.688,11.081l14.324,16.161h157.108zm-159.484-67.767c-3.309,0.379-7.762,0.758-12.394,0.758-0.001,0-0.003,0-0.003,0-10.516,0-16.154-1.985-17.925-3.84-2.491-2.612-2.646-6.525-0.347-8.72 1.252-1.193 2.724-1.444 3.737-1.444 1.814,0 3.621,0.802 4.955,2.201 3.147,3.299 8.374,3.424 11.675,0.274 1.701-1.623 2.559-3.8 2.558-5.979-0.001-2.047-0.758-4.098-2.283-5.696-1.266-1.325-1.965-3.008-1.971-4.736-0.002-0.903 0.204-2.622 1.629-3.979 1.251-1.193 2.721-1.444 3.731-1.444 1.813,0 3.616,0.803 4.95,2.201 3.976,4.17 3.592,18.799 1.688,30.404z"/>
    <path d="m208.2,276.356h-32.255v-82.486l54.51-61.501h-129.663l54.51,61.501v82.486h-32.255c-5.7,0-10.322,4.621-10.322,10.322 0,5.699 4.622,10.321 10.322,10.321h85.153c5.7,0 10.322-4.622 10.322-10.321 0.001-5.7-4.621-10.322-10.322-10.322z"/>
  </g>
</svg>
