<?xml version='1.0' encoding='iso-8859-1'?>
<!DOCTYPE svg PUBLIC '-//W3C//DTD SVG 1.1//EN' 'http://www.w3.org/Graphics/SVG/1.1/DTD/svg11.dtd'>
<svg version="1.1" xmlns="http://www.w3.org/2000/svg" viewBox="0 0 297 297" xmlns:xlink="http://www.w3.org/1999/xlink" enable-background="new 0 0 297 297">
  <g>
    <path d="m56.354,70.569c5.607,0 10.154-4.547 10.154-10.154v-33.507c0-5.607-4.547-10.154-10.154-10.154s-10.154,4.547-10.154,10.154v33.507c0,5.607 4.546,10.154 10.154,10.154z"/>
    <path d="m114.992,53.815c5.607,0 10.154-4.546 10.154-10.153v-33.508c0-5.607-4.546-10.154-10.154-10.154s-10.153,4.547-10.153,10.154v33.508c0,5.608 4.546,10.153 10.153,10.153z"/>
    <path d="m173.631,70.569c5.607,0 10.153-4.547 10.153-10.154v-33.507c0-5.607-4.546-10.154-10.153-10.154-5.607,0-10.154,4.547-10.154,10.154v33.507c0,5.607 4.546,10.154 10.154,10.154z"/>
    <path d="m137.165,166.693c-6.625,0-12.014,5.911-12.014,13.177 0,5.607-4.547,10.153-10.154,10.153-5.607,0-10.153-4.546-10.153-10.153 0-7.266-5.391-13.177-12.017-13.177-6.625,0-12.014,5.911-12.014,13.177 0,10.938 18.475,28.688 34.183,40.123 15.705-11.437 34.175-29.188 34.175-40.123 0-7.265-5.386-13.177-12.006-13.177z"/>
    <path d="m248.77,117.277h-31.477v-23.354c0-5.607-4.546-10.153-10.153-10.153h-184.293c-5.607,0-10.154,4.546-10.154,10.153v167.539c-0.001,19.596 15.942,35.538 35.537,35.538h133.523c19.596,0 35.538-15.942 35.538-35.538v-40.108h31.477c19.596,0 35.538-15.942 35.538-35.538v-33c0.002-19.596-15.941-35.539-35.536-35.539zm-104.73,105.051c-11.557,10.643-22.982,18.191-23.463,18.508-1.693,1.113-3.637,1.671-5.58,1.671-1.942,0-3.885-0.557-5.578-1.67-0.481-0.316-11.908-7.864-23.468-18.507-16.884-15.544-25.445-29.829-25.445-42.46 0-18.464 14.499-33.484 32.321-33.484 8.573,0 16.378,3.476 22.17,9.138 5.791-5.662 13.595-9.138 22.168-9.138 17.818,0 32.315,15.021 32.315,33.484 0,12.629-8.56,26.913-25.44,42.458zm119.96-36.513c0,8.398-6.832,15.23-15.23,15.23h-31.477v-63.461h31.477c8.398,0 15.23,6.832 15.23,15.23v33.001z"/>
  </g>
</svg>
