<?xml version='1.0' encoding='iso-8859-1'?>
<!DOCTYPE svg PUBLIC '-//W3C//DTD SVG 1.1//EN' 'http://www.w3.org/Graphics/SVG/1.1/DTD/svg11.dtd'>
<svg version="1.1" xmlns="http://www.w3.org/2000/svg" viewBox="0 0 297.315 297.315" xmlns:xlink="http://www.w3.org/1999/xlink" enable-background="new 0 0 297.315 297.315">
  <g>
    <path d="m187.959,71.925c0-11.279-8.587-20.42-19.183-20.42-10.604,0-19.19,9.141-19.19,20.42 0-11.279-8.589-20.42-19.188-20.42-10.599,0-19.192,9.141-19.192,20.42 0,20.419 38.38,45.938 38.38,45.938s38.373-25.521 38.373-45.938z"/>
    <path d="m273.018,211.968c-9.271-48.716-46.489-87.626-94.296-99.365-0.106,0.1-0.204,0.199-0.311,0.299-10.319,9.607-20.561,16.449-20.992,16.736-2.372,1.578-5.103,2.367-7.832,2.367-2.729,0-5.458-0.788-7.83-2.365-0.431-0.287-10.675-7.129-20.995-16.737-0.264-0.245-0.506-0.486-0.765-0.731-48.637,11.218-86.663,50.491-96.04,99.797h249.061z"/>
    <path d="M10.102,225.606C4.523,225.606,0,230.128,0,235.708s4.523,10.102,10.102,10.102h277.112   c5.578,0,10.102-4.522,10.102-10.102s-4.523-10.103-10.102-10.103H10.102z"/>
  </g>
</svg>
