<?xml version='1.0' encoding='iso-8859-1'?>
<!DOCTYPE svg PUBLIC '-//W3C//DTD SVG 1.1//EN' 'http://www.w3.org/Graphics/SVG/1.1/DTD/svg11.dtd'>
<svg version="1.1" xmlns="http://www.w3.org/2000/svg" viewBox="0 0 297 297" xmlns:xlink="http://www.w3.org/1999/xlink" enable-background="new 0 0 297 297">
  <g>
    <path d="m41.202,174.586c0,23.67 17.487,51.385 51.979,82.375 24.656,22.154 48.937,37.811 49.958,38.467 1.634,1.047 3.498,1.572 5.362,1.572 1.864,0 3.729-0.525 5.362-1.572 1.021-0.656 25.302-16.314 49.958-38.469 34.489-30.99 51.977-58.705 51.977-82.373 0-33.045-26.292-59.928-58.61-59.928-20.262,0-38.155,10.566-48.686,26.592-10.532-16.025-28.427-26.592-48.689-26.592-32.319,0-58.611,26.883-58.611,59.928zm107.298,20.978c8.758,0 15.884,7.125 15.884,15.883 0,5.002-2.331,9.467-5.957,12.379v8.965c0,5.482-4.444,9.928-9.927,9.928-5.482,0-9.927-4.445-9.927-9.928v-8.965c-3.626-2.912-5.957-7.377-5.957-12.379-2.84217e-14-8.758 7.126-15.883 15.884-15.883z"/>
    <path d="m98.368,100.797v-30.811c0-27.642 22.489-50.133 50.132-50.133 27.643,0 50.132,22.49 50.132,50.133v30.811c6.894,0.139 13.557,1.244 19.854,3.219v-34.03c0-38.591-31.395-69.986-69.986-69.986s-69.986,31.395-69.986,69.986v34.029c6.298-1.974 12.961-3.079 19.854-3.218z"/>
  </g>
</svg>
