<?xml version='1.0' encoding='iso-8859-1'?>
<!DOCTYPE svg PUBLIC '-//W3C//DTD SVG 1.1//EN' 'http://www.w3.org/Graphics/SVG/1.1/DTD/svg11.dtd'>
<svg version="1.1" xmlns="http://www.w3.org/2000/svg" viewBox="0 0 297 297" xmlns:xlink="http://www.w3.org/1999/xlink" enable-background="new 0 0 297 297">
  <g>
    <path d="m99.087,153.817c-4.906,0-8.898,4.237-8.898,9.446 0,3.821-3.098,6.918-6.919,6.918-3.821,0-6.918-3.097-6.918-6.918 0-5.209-3.992-9.446-8.9-9.446-4.907,0-8.9,4.238-8.9,9.448 0,7.694 13.626,20.518 24.72,28.443 11.298-8.046 24.714-20.674 24.714-28.445-0.001-5.208-3.993-9.446-8.899-9.446z"/>
    <path d="m124.038,198.165h26.191v-90.435c0-5.458-4.425-9.884-9.884-9.884h-40.298c15.112-6.521 25.72-21.562 25.72-39.04 0-21.189-29.739-50.447-35.7-56.097-3.813-3.613-9.785-3.613-13.598,0-5.961,5.649-35.7,34.907-35.7,56.097 0,17.479 10.608,32.52 25.721,39.04h-40.299c-5.458,0-9.884,4.426-9.884,9.884v179.386c0,5.458 4.426,9.884 9.884,9.884h76.522c-1.533-3.137-2.396-6.658-2.396-10.378v-64.737c-1.42109e-14-13.079 10.642-23.72 23.721-23.72zm-37.012,7.724c-1.143,0.738-2.45,1.108-3.757,1.108-1.307,0-2.612-0.37-3.755-1.108-5.811-3.756-34.8-23.466-34.8-42.623 0-12.84 10.2-23.285 22.737-23.285 6.142,0 11.723,2.506 15.817,6.572 4.096-4.066 9.676-6.572 15.817-6.572 12.536,0 22.735,10.445 22.735,23.283 0.002,19.155-28.983,38.868-34.794,42.625z"/>
    <path d="m270.809,212.002h-56.606c15.113-6.521 25.721-21.563 25.721-39.04 0-21.19-29.739-50.448-35.7-56.097-3.813-3.613-9.785-3.613-13.598,0-5.961,5.648-35.7,34.906-35.7,56.097 0,17.478 10.607,32.519 25.72,39.04h-56.606c-5.458,0-9.883,4.425-9.883,9.883v64.737c0,5.458 4.425,9.884 9.883,9.884h146.771c5.458,0 9.884-4.426 9.884-9.884v-64.737c-0.003-5.458-4.428-9.883-9.886-9.883zm-116.134,52.383c-5.457,0-9.884-4.429-9.884-9.884 0-5.456 4.427-9.884 9.884-9.884 5.465,0 9.883,4.428 9.883,9.884-2.84217e-14,5.455-4.418,9.884-9.883,9.884zm27.674,0c-5.457,0-9.884-4.429-9.884-9.884 0-5.456 4.427-9.884 9.884-9.884 5.465,0 9.883,4.428 9.883,9.884-0.001,5.455-4.419,9.884-9.883,9.884zm27.673,0c-5.457,0-9.884-4.429-9.884-9.884 0-5.456 4.427-9.884 9.884-9.884 5.465,0 9.883,4.428 9.883,9.884 0,5.455-4.418,9.884-9.883,9.884zm27.674,0c-5.457,0-9.884-4.429-9.884-9.884 0-5.456 4.427-9.884 9.884-9.884 5.465,0 9.883,4.428 9.883,9.884-2.84217e-14,5.455-4.418,9.884-9.883,9.884z"/>
  </g>
</svg>
