<?xml version='1.0' encoding='iso-8859-1'?>
<!DOCTYPE svg PUBLIC '-//W3C//DTD SVG 1.1//EN' 'http://www.w3.org/Graphics/SVG/1.1/DTD/svg11.dtd'>
<svg version="1.1" xmlns="http://www.w3.org/2000/svg" viewBox="0 0 297 297" xmlns:xlink="http://www.w3.org/1999/xlink" enable-background="new 0 0 297 297">
  <g>
    <path d="m166.961,146.992c-2.918,0-5.714,1.191-7.875,3.354-3.226,3.232-8.461,3.235-11.691,0.007-1.615-1.612-2.424-3.727-2.425-5.844-0.001-2.115 0.805-4.231 2.418-5.848 4.195-4.199 4.493-10.737 0.663-14.572-1.728-1.73-4.087-2.683-6.644-2.683-2.917,0-5.714,1.191-7.874,3.354-6.301,6.314-5.89,27.205-3.434,42.872 4.976,0.756 12.741,1.693 20.621,1.693 0.002,0 0.003,0 0.004,0 15.463,0 20.679-3.553 22.203-5.079 4.199-4.204 4.502-10.738 0.677-14.569-1.727-1.732-4.087-2.685-6.643-2.685z"/>
    <path d="m199.091,98.578c-13.87-13.891-32.043-20.836-50.222-20.834-18.173,0.001-36.351,6.946-50.219,20.834-27.737,27.781-27.735,72.813 0.001,100.594 13.868,13.887 32.044,20.829 50.22,20.829s36.352-6.942 50.22-20.829c27.734-27.778 27.733-72.813 0-100.594zm-14.463,77.35c-6.669,6.682-17.762,9.932-33.903,9.932-0.001,0-0.001,0-0.004,0-14.867,0-28.816-2.85-29.402-2.971-3.232-0.668-5.758-3.193-6.424-6.425-1.61-7.81-8.846-47.565 6.938-63.387 5.29-5.293 12.24-8.204 19.575-8.204 6.979,0 13.494,2.676 18.345,7.536 4.936,4.942 7.429,11.447 7.503,18.05 6.866,0.074 13.266,2.744 18.051,7.534 10.257,10.276 9.952,27.293-0.679,37.935z"/>
    <path d="m88.412,88.356c7.945-7.958 17.185-14.146 27.236-18.39 6.73-22.947 1.08-48.793-16.965-66.863-1.655-1.656-3.822-2.702-6.148-2.966-0.801-0.09-1.601-0.137-2.378-0.137-14.18,0-17.883,13.468-19.873,20.702-1.051,3.822-2.243,8.154-3.996,9.91-0.757,0.759-1.189,1.094-3.505,1.094-0.817,0-1.637-0.038-2.456-0.074-1.065-0.047-2.166-0.095-3.36-0.095-4.716,0-11.727,0.742-18.133,7.16-7.65,7.661-7.274,16.322-7.049,21.498 0.192,4.44 0.036,4.934-1.026,5.997-1.748,1.751-6.067,2.942-9.879,3.994-7.256,2.001-22.355,6.167-20.533,22.266 0.263,2.321 1.304,4.484 2.955,6.138 12.736,12.76 29.674,19.786 47.691,19.786 6.572,0 12.993-0.948 19.125-2.755 4.161-9.914 10.245-19.203 18.294-27.265z"/>
    <path d="m296.653,204.553c-0.263-2.322-1.304-4.487-2.956-6.141-12.738-12.758-29.676-19.783-47.694-19.783-6.142,0-12.15,0.832-17.915,2.42-4.165,10.322-10.418,19.99-18.761,28.346-8.229,8.239-17.844,14.58-28.313,18.829-6.196,22.647-0.438,47.915 17.301,65.675 1.654,1.656 3.822,2.702 6.148,2.966 0.802,0.091 1.601,0.136 2.376,0.136 14.181,0 17.885-13.465 19.873-20.699 1.052-3.822 2.244-8.153 3.996-9.909 0.759-0.76 1.192-1.097 3.518-1.097 0.816,0 1.631,0.039 2.447,0.074 1.06,0.047 2.155,0.094 3.344,0.094 4.721-0.001 11.736-0.742 18.145-7.161 7.65-7.659 7.273-16.32 7.049-21.494-0.193-4.439-0.037-4.932 1.025-5.995 1.748-1.751 6.068-2.943 9.88-3.994 7.258-2.006 22.357-6.171 20.537-22.267z"/>
  </g>
</svg>
