<?xml version='1.0' encoding='iso-8859-1'?>
<!DOCTYPE svg PUBLIC '-//W3C//DTD SVG 1.1//EN' 'http://www.w3.org/Graphics/SVG/1.1/DTD/svg11.dtd'>
<svg version="1.1" xmlns="http://www.w3.org/2000/svg" viewBox="0 0 297 297" xmlns:xlink="http://www.w3.org/1999/xlink" enable-background="new 0 0 297 297">
  <g>
    <path d="m163.337,202.416c-3.825,0-6.938,3.436-6.938,7.658 0,4.362-3.537,7.899-7.899,7.899-4.362,0-7.899-3.537-7.899-7.899 0-4.223-3.113-7.658-6.939-7.658s-6.938,3.436-6.938,7.658c0,6.433 11.556,17.811 21.773,25.367 9.997-7.387 21.777-18.698 21.777-25.367 0-4.222-3.111-7.658-6.937-7.658z"/>
    <path d="m155.727,168.342c-1.868,2.008-4.487,3.148-7.228,3.148-2.741,0-5.36-1.14-7.229-3.148l-42.59-45.765c-4.584,11.748-8.293,24.294-8.293,34.151v130.398c0,5.453 4.421,9.874 9.874,9.874h96.478c5.453,0 9.874-4.421 9.874-9.874v-130.397c0-9.858-3.709-22.404-8.293-34.152l-42.593,45.765zm-2.897,83.341c-1.314,0.861-2.823,1.292-4.33,1.292-1.507,0-3.015-0.43-4.329-1.292-5.552-3.637-33.246-22.736-33.246-41.608 0-12.934 10.199-23.457 22.736-23.457 5.665,0 10.854,2.148 14.839,5.696 3.984-3.548 9.172-5.696 14.837-5.696 12.537,0 22.736,10.523 22.736,23.457 5.68434e-14,18.869-27.692,37.971-33.243,41.608z"/>
    <path d="m107.34,102.896l41.159,44.225 41.16-44.226c-4.613-9.508-8.388-16.101-8.485-16.27-6.051-10.492-7.452-50.985-6.515-76.387 0.099-2.681-0.897-5.286-2.758-7.217-1.861-1.929-4.428-3.021-7.11-3.021h-32.584c-2.684,0-5.25,1.092-7.111,3.023-1.861,1.931-2.855,4.536-2.757,7.217 0.942,25.394-0.455,65.881-6.513,76.385-0.097,0.17-3.873,6.763-8.486,16.271z"/>
  </g>
</svg>
