<?xml version='1.0' encoding='iso-8859-1'?>
<!DOCTYPE svg PUBLIC '-//W3C//DTD SVG 1.1//EN' 'http://www.w3.org/Graphics/SVG/1.1/DTD/svg11.dtd'>
<svg version="1.1" xmlns="http://www.w3.org/2000/svg" viewBox="0 0 297 297" xmlns:xlink="http://www.w3.org/1999/xlink" enable-background="new 0 0 297 297">
  <g>
    <path d="m189.026,31.035c0-14.186-11.161-25.729-24.88-25.729-6.438,0-12.313,2.541-16.736,6.707-4.423-4.164-10.298-6.705-16.736-6.705-13.722,0-24.886,11.541-24.886,25.727 0,20.92 30.947,42.293 37.151,46.365 1.356,0.891 2.914,1.336 4.471,1.336 1.557,0 3.114-0.445 4.472-1.336 6.202-4.072 37.144-25.447 37.144-46.365z"/>
    <path d="m139.389,93.75l-74.888-24.453c-3.973-1.299-8.338-0.035-11.005,3.186-9.666,11.673-18.196,25.724-24.851,40.73l114.147,36.48c3.297-15.844 4.57-31.992 3.599-46.924-0.27-4.156-3.042-7.728-7.002-9.019z"/>
    <path d="m67.397,291.186c1.05,0.344 2.115,0.508 3.163,0.508 4.287,0 8.276-2.73 9.68-7.027 1.746-5.346-1.173-11.096-6.52-12.842l-20.531-6.705 17.549-54.207c2.945,0.438 5.918,0.668 8.902,0.668 26.488,0 49.791-17 57.98-42.299 0.613-1.891 1.184-3.801 1.735-5.717l-116.012-37.079c-0.589,1.654-1.163,3.315-1.702,4.981-9.316,28.775 3.857,59.555 29.734,73.121l-17.548,54.207-20.479-6.688c-5.344-1.744-11.096,1.172-12.843,6.518-1.746,5.348 1.173,11.098 6.52,12.844l60.372,19.717z"/>
    <path d="m243.504,72.482c-2.665-3.219-7.032-4.482-11.005-3.186l-74.888,24.454c-3.96,1.291-6.732,4.863-7.002,9.02-0.973,14.955 0.307,31.133 3.614,47.002l114.101-36.629c-6.649-14.979-15.169-29.004-24.82-40.661z"/>
    <path d="m289.975,271.469c5.347-1.746 8.266-7.496 6.52-12.844-1.747-5.346-7.497-8.266-12.843-6.518l-20.479,6.688-17.548-54.207c25.877-13.566 39.051-44.346 29.734-73.123-0.547-1.689-1.13-3.371-1.728-5.051l-115.966,37.229c0.546,1.891 1.11,3.773 1.714,5.639 8.19,25.301 31.49,42.299 57.98,42.299 2.984,0 5.957-0.229 8.902-0.668l17.549,54.207-20.531,6.705c-5.347,1.746-8.266,7.496-6.52,12.842 1.403,4.297 5.392,7.027 9.68,7.027 1.048,0 2.113-0.164 3.163-0.508l60.373-19.717z"/>
  </g>
</svg>
