<?xml version='1.0' encoding='iso-8859-1'?>
<!DOCTYPE svg PUBLIC '-//W3C//DTD SVG 1.1//EN' 'http://www.w3.org/Graphics/SVG/1.1/DTD/svg11.dtd'>
<svg version="1.1" xmlns="http://www.w3.org/2000/svg" viewBox="0 0 297 297" xmlns:xlink="http://www.w3.org/1999/xlink" enable-background="new 0 0 297 297">
  <g>
    <path d="m216.463,40.66c23.806,0 41.594-10.733 41.594-20.331 0-9.597-17.788-20.329-41.594-20.329-23.736,0-41.473,10.732-41.473,20.329 0,9.598 17.737,20.331 41.473,20.331z"/>
    <path d="m216.523,119.903c22.901,0 41.533-18.632 41.533-41.533v-34.249c-10.213,6.924-24.949,11.205-41.594,11.205-7.977,0-15.508-0.996-22.318-2.791 5.979,5.568 9.437,12.312 9.437,19.651v45.64c4.075,1.342 8.424,2.077 12.942,2.077z"/>
    <path d="m261.085,138.559c-3.915-1.618-8.422-0.725-11.417,2.271l-22.668,22.668v-29.923c-3.396,0.644-6.896,0.995-10.477,0.995-3.583,0-7.079-0.357-10.475-1.005v152.958c0,5.785 4.69,10.477 10.475,10.477 5.785,0 10.477-4.691 10.477-10.477v-44.543c0.354-0.363 0.692-0.746 0.998-1.168l37.562-51.857c1.295-1.787 1.991-3.939 1.991-6.145v-34.571c0.001-4.239-2.551-8.058-6.466-9.68z"/>
    <path d="m136.904,185.438v101.086c0,5.785 4.691,10.477 10.477,10.477 5.785,0 10.477-4.691 10.477-10.477v-101.086c-3.397,0.644-6.896,0.989-10.477,0.989-3.581,0-7.08-0.346-10.477-0.989z"/>
    <path d="m147.32,51.857c-23.737,0-41.473,10.732-41.473,20.329s17.735,20.33 41.473,20.33c23.806,0 41.594-10.733 41.594-20.33s-17.788-20.329-41.594-20.329z"/>
    <path d="m105.848,95.998v34.229c0,22.901 18.632,41.533 41.533,41.533 22.901,0 41.533-18.632 41.533-41.533v-34.249c-10.213,6.925-24.949,11.206-41.594,11.206-16.59,0-31.282-4.274-41.472-11.186z"/>
    <path d="m36.704,44.141v34.23c0,22.901 18.633,41.533 41.534,41.533 4.519,0 8.867-0.734 12.942-2.078v-45.639c0-7.347 3.458-14.098 9.435-19.67-6.843,1.806-14.415,2.81-22.438,2.81-16.59-0.001-31.281-4.274-41.473-11.186z"/>
    <path d="M78.178,40.66c23.806,0,41.594-10.733,41.594-20.331C119.771,10.732,101.983,0,78.178,0   C54.44,0,36.704,10.732,36.704,20.329C36.704,29.927,54.44,40.66,78.178,40.66z"/>
    <path d="m67.762,133.575v27.685l-20.43-20.43c-2.996-2.996-7.502-3.89-11.417-2.271-3.915,1.622-6.467,5.441-6.467,9.68v34.571c0,2.206 0.696,4.358 1.991,6.145l36.322,50.146v47.422c0,5.785 4.69,10.477 10.477,10.477 5.785,0 10.476-4.691 10.476-10.477v-152.96c-3.396,0.648-6.894,1.007-10.476,1.007-3.581-2.84217e-14-7.08-0.351-10.476-0.995z"/>
  </g>
</svg>
