<?xml version='1.0' encoding='iso-8859-1'?>
<!DOCTYPE svg PUBLIC '-//W3C//DTD SVG 1.1//EN' 'http://www.w3.org/Graphics/SVG/1.1/DTD/svg11.dtd'>
<svg version="1.1" xmlns="http://www.w3.org/2000/svg" viewBox="0 0 297 297" xmlns:xlink="http://www.w3.org/1999/xlink" enable-background="new 0 0 297 297">
  <g>
    <path d="m178.453,133.633c-10.747,0-19.49,9.447-19.49,21.059 0,5.774-4.683,10.457-10.458,10.457-5.775,0-10.457-4.683-10.457-10.457 0-11.611-8.743-21.059-19.49-21.059s-19.49,9.447-19.49,21.059c0,17.188 28.281,43.148 49.437,58.217 21.152-15.07 49.429-41.03 49.429-58.217-0.002-11.612-8.741-21.059-19.481-21.059z"/>
    <path d="m243.404,51.765h-24.053v-41.308c0-3.361-1.616-6.517-4.344-8.483-2.727-1.965-6.232-2.499-9.421-1.438l-155.096,51.699c-0.004,0.001-0.009,0.002-0.013,0.004l-.188,.063c-0.021,0.007-0.04,0.021-0.062,0.028-4.121,1.403-7.09,5.298-7.09,9.893v224.319c0,5.775 4.683,10.457 10.458,10.457h189.809c5.775,0 10.458-4.682 10.458-10.457v-224.319c0-5.775-4.682-10.458-10.458-10.458zm-44.969-26.798v26.799h-80.395l80.395-26.799zm-44.183,209.361c-1.744,1.146-3.746,1.72-5.747,1.72-2,0-4.001-0.573-5.745-1.72-6.613-4.349-64.608-43.524-64.608-79.637 0-23.145 18.125-41.974 40.405-41.974 11.863,0 22.55,5.339 29.947,13.825 7.398-8.486 18.085-13.825 29.948-13.825 22.273,0 40.395,18.829 40.395,41.974 0.001,36.111-57.984,75.288-64.595,79.637z"/>
  </g>
</svg>
